<?xml version="1.0" standalone="no"?>
<!DOCTYPE svg PUBLIC "-//W3C//DTD SVG 20010904//EN"
 "http://www.w3.org/TR/2001/REC-SVG-20010904/DTD/svg10.dtd">
<svg version="1.0" xmlns="http://www.w3.org/2000/svg"
 width="700.000000pt" height="700.000000pt" viewBox="0 0 700.000000 700.000000"
 preserveAspectRatio="xMidYMid meet">
<metadata>
Created by potrace 1.14, written by Peter Selinger 2001-2017
</metadata>
<g transform="translate(0.000000,700.000000) scale(0.100000,-0.100000)"
fill="#000000" stroke="none">
<path d="M0 3500 l0 -3500 3500 0 3500 0 0 3500 0 3500 -3500 0 -3500 0 0
-3500z m2010 1884 c163 -31 287 -93 389 -195 68 -68 132 -185 151 -274 6 -30
16 -55 21 -55 5 0 9 101 9 245 l0 245 225 0 226 0 -3 -1502 -3 -1503 -27 -96
c-77 -281 -270 -491 -537 -584 -163 -57 -168 -58 -703 -62 l-498 -4 0 205 0
206 418 0 c464 1 531 7 638 60 112 55 206 170 238 291 16 64 35 889 20 889 -5
0 -17 -29 -26 -65 -82 -312 -383 -486 -800 -461 -447 26 -745 290 -844 746
-21 97 -32 918 -14 1071 52 454 323 772 718 843 106 20 301 20 402 0z m3158
-13 c261 -76 435 -249 477 -475 17 -88 25 -19 25 209 l0 245 225 0 225 0 -2
-1507 -3 -1508 -22 -80 c-13 -44 -46 -127 -74 -184 -44 -89 -64 -116 -142
-195 -131 -132 -258 -203 -446 -248 -80 -20 -122 -22 -583 -25 l-498 -4 0 205
0 206 413 0 c226 0 442 5 479 10 94 14 170 45 241 98 106 81 162 189 177 342
12 115 14 784 2 788 -5 1 -14 -23 -21 -54 -47 -209 -197 -360 -431 -432 -156
-48 -387 -53 -557 -12 -385 92 -624 389 -673 837 -18 165 -8 953 14 1053 92
426 348 686 741 751 28 4 120 6 205 4 121 -2 171 -8 228 -24z"/>
<path d="M1835 5000 c-171 -26 -304 -103 -388 -227 -104 -151 -122 -285 -114
-823 6 -381 10 -414 73 -545 63 -133 168 -222 317 -272 73 -24 98 -27 227 -27
113 -1 158 3 205 17 155 48 273 146 343 285 73 146 77 181 77 647 0 357 -2
420 -18 485 -78 333 -363 514 -722 460z"/>
<path d="M4925 5001 c-203 -34 -345 -132 -426 -295 -67 -138 -70 -168 -67
-685 l3 -456 27 -81 c82 -240 266 -368 548 -381 305 -14 518 120 613 384 43
117 49 205 45 619 -4 351 -6 385 -26 457 -59 214 -192 357 -387 416 -78 24
-248 35 -330 22z"/>
</g>
</svg>
