<svg xmlns="http://www.w3.org/2000/svg" viewBox="0 0 24 24" width="24" height="24" fill="none">
    <path d="M4 12.0005L4 14.5446C4 17.7896 4 19.4122 4.88607 20.5111C5.06508 20.7331 5.26731 20.9354 5.48933 21.1144C6.58831 22.0005 8.21082 22.0005 11.4558 22.0005C12.1614 22.0005 12.5141 22.0005 12.8372 21.8865C12.9044 21.8627 12.9702 21.8355 13.0345 21.8047C13.3436 21.6569 13.593 21.4075 14.0919 20.9086L18.8284 16.172C19.4065 15.594 19.6955 15.3049 19.8478 14.9374C20 14.5699 20 14.1611 20 13.3436V10.0005C20 6.22922 20 4.34361 18.8284 3.17203C17.7693 2.11287 16.1265 2.01125 13.0345 2.0015M13 21.5005V21.0005C13 18.172 13 16.7578 13.8787 15.8791C14.7574 15.0005 16.1716 15.0005 19 15.0005H19.5" stroke="currentColor" stroke-width="1.5" stroke-linecap="round" stroke-linejoin="round" />
    <path d="M12 5.99954H4M8 1.99954V9.99954" stroke="currentColor" stroke-width="1.5" stroke-linecap="round" stroke-linejoin="round" />
</svg>
