<svg xmlns="http://www.w3.org/2000/svg" viewBox="0 0 24 24" width="24" height="24" fill="none">
    <path d="M17 7.5C17.4915 8.0057 18.7998 10 19.5 10M22 7.5C21.5085 8.0057 20.2002 10 19.5 10M19.5 10V2" stroke="currentColor" stroke-width="1.5" stroke-linecap="round" stroke-linejoin="round" />
    <path d="M20.9999 13C20.998 17.147 20.9472 19.2703 19.6088 20.6088C18.2175 22 15.9783 22 11.5 22C7.02166 22 4.78249 22 3.39124 20.6088C2 19.2175 2 16.9783 2 12.5C2 8.02166 2 5.78249 3.39124 4.39124C4.78249 3 7.02166 3 11.5 3C11.6699 3 14 3.00008 14 3.00008" stroke="currentColor" stroke-width="1.5" stroke-linecap="round" />
    <path d="M2 14.1354C2.61902 14.0455 3.24484 14.0011 3.87171 14.0027C6.52365 13.9466 9.11064 14.7729 11.1711 16.3342C13.082 17.7821 14.4247 19.7749 15 22" stroke="currentColor" stroke-width="1.5" stroke-linejoin="round" />
    <path d="M21 16.8962C19.8246 16.3009 18.6088 15.9988 17.3862 16.0001C15.5345 15.9928 13.7015 16.6733 12 18" stroke="currentColor" stroke-width="1.5" stroke-linejoin="round" />
</svg>
