<svg width="32" height="33" viewBox="0 0 32 33" fill="none" xmlns="http://www.w3.org/2000/svg">
<path d="M30.0014 17.1604C30.0014 16.0093 29.9061 15.1693 29.6998 14.2982H16.2871V19.4937H24.1601C24.0014 20.7849 23.1442 22.7293 21.2394 24.0359L21.2127 24.2098L25.4536 27.4295L25.7474 27.4582C28.4458 25.016 30.0014 21.4226 30.0014 17.1604Z" fill="#4285F4"/>
<path d="M16.2863 30.8495C20.1434 30.8495 23.3814 29.605 25.7466 27.4584L21.2386 24.036C20.0323 24.8605 18.4132 25.436 16.2863 25.436C12.5086 25.436 9.30225 22.9939 8.15929 19.6183L7.99176 19.6322L3.58208 22.9767L3.52441 23.1338C5.87359 27.7072 10.699 30.8495 16.2863 30.8495Z" fill="#34A853"/>
<path d="M8.15964 19.6183C7.85806 18.7472 7.68352 17.8138 7.68352 16.8494C7.68352 15.8849 7.85806 14.9516 8.14377 14.0805L8.13578 13.895L3.67083 10.4968L3.52475 10.5649C2.55654 12.4627 2.00098 14.5939 2.00098 16.8494C2.00098 19.105 2.55654 21.236 3.52475 23.1338L8.15964 19.6183Z" fill="#FBBC05"/>
<path d="M16.2864 8.26278C18.9689 8.26278 20.7784 9.39833 21.8102 10.3473L25.8419 6.48949C23.3658 4.23394 20.1435 2.84949 16.2864 2.84949C10.699 2.84949 5.8736 5.99168 3.52441 10.565L8.14345 14.0806C9.30229 10.705 12.5086 8.26278 16.2864 8.26278Z" fill="#EB4335"/>
</svg>
