<svg width="32" height="33" viewBox="0 0 32 33" fill="none" xmlns="http://www.w3.org/2000/svg">
<path fill-rule="evenodd" clip-rule="evenodd" d="M16.0116 2.84949C8.26354 2.84949 2 9.26613 2 17.2044C2 23.5499 6.01327 28.9212 11.5807 30.8222C12.2768 30.9652 12.5318 30.5134 12.5318 30.1333C12.5318 29.8005 12.5088 28.6598 12.5088 27.4713C8.61115 28.327 7.79949 25.7601 7.79949 25.7601C7.17311 24.0964 6.245 23.6689 6.245 23.6689C4.96929 22.7895 6.33793 22.7895 6.33793 22.7895C7.75303 22.8846 8.49557 24.263 8.49557 24.263C9.74804 26.4493 11.7663 25.8316 12.5782 25.4512C12.6941 24.5243 13.0655 23.8827 13.4599 23.5262C10.3512 23.1934 7.08047 21.9577 7.08047 16.4437C7.08047 14.8751 7.63687 13.5918 8.51851 12.5937C8.37941 12.2373 7.89213 10.7635 8.6579 8.791C8.6579 8.791 9.84097 8.41067 12.5085 10.2645C13.6506 9.95028 14.8284 9.79043 16.0116 9.78908C17.1947 9.78908 18.4007 9.95562 19.5143 10.2645C22.1822 8.41067 23.3653 8.791 23.3653 8.791C24.131 10.7635 23.6435 12.2373 23.5044 12.5937C24.4092 13.5918 24.9427 14.8751 24.9427 16.4437C24.9427 21.9577 21.672 23.1695 18.5401 23.5262C19.0506 23.9777 19.4911 24.8332 19.4911 26.188C19.4911 28.113 19.4682 29.6579 19.4682 30.133C19.4682 30.5134 19.7234 30.9652 20.4192 30.8225C25.9867 28.9209 29.9999 23.5499 29.9999 17.2044C30.0229 9.26613 23.7364 2.84949 16.0116 2.84949Z" fill="#24292F"/>
</svg>
