<svg xmlns="http://www.w3.org/2000/svg" viewBox="0 0 24 24" width="24" height="24" fill="none">
    <path d="M3.01206 6.59744C2.89214 7.65674 3.6584 10.1951 5.87693 10.255" stroke="currentColor" stroke-width="1.5" stroke-linecap="round" />
    <path d="M18.2891 10.195C19.3684 10.255 20.9873 8.99582 20.9873 6.59741" stroke="currentColor" stroke-width="1.5" stroke-linecap="round" />
    <path d="M20.0876 20.9879C20.1476 19.6088 19.2482 17.4742 17.5093 17.4142" stroke="currentColor" stroke-width="1.5" stroke-linecap="round" />
    <path d="M3.90138 20.9881C3.84009 19.5998 4.7594 17.4509 6.53675 17.3905" stroke="currentColor" stroke-width="1.5" stroke-linecap="round" />
    <path d="M3.01227 13.7926H5.21757" stroke="currentColor" stroke-width="1.5" stroke-linecap="round" />
    <path d="M21 13.7926L18.8282 13.7926" stroke="currentColor" stroke-width="1.5" stroke-linecap="round" />
    <path d="M11.9932 13.7926V10.8546M16.4902 2.99982L14.6914 4.79862M7.49615 2.99982L9.29496 4.79862" stroke="currentColor" stroke-width="1.5" stroke-linecap="round" />
    <path d="M6.95612 8.61209C8.57504 9.77532 12.5924 11.4542 16.9695 8.68404" stroke="currentColor" stroke-width="1.5" stroke-linecap="round" />
    <path d="M16.826 7.6767C13.2523 2.7 8.69536 5.09841 7.07644 7.8206C6.02093 9.59542 4.37823 13.8886 7.49616 18.5655C10.8539 22.6667 14.8113 20.808 16.4302 18.6494C17.9892 16.7906 19.5242 11.9938 16.826 7.6767Z" stroke="currentColor" stroke-width="1.5" stroke-linecap="round" />
</svg>
