<svg xmlns="http://www.w3.org/2000/svg" width="64px" height="64px" viewBox="0 0 64 64"><defs><path id="a" d="M3.885 6.745h221.676v243.6H3.885z"/></defs><path d="M0 0h64v64H0Z" style="stroke-width:.0330729"/><g aria-label="gg" style="font-size:53.3333px;font-family:&quot;JetBrains Mono&quot;;-inkscape-font-specification:&quot;JetBrains Mono&quot;;white-space:pre;shape-inside:url(#a);display:inline;fill:#fff" transform="matrix(.88322 0 0 .88322 .424 -7.296)"><path d="M12.471 64.225v-4.373h8.267q2.507 0 3.947-1.44 1.44-1.387 1.44-3.787v-2.667l.106-4.8h-.16q-.426 2.614-2.506 4.054-2.08 1.386-5.227 1.386-4.533 0-7.147-2.88-2.613-2.88-2.613-7.893v-6.187q0-5.013 2.613-7.946 2.614-2.934 7.147-2.934 3.147 0 5.227 1.494 2.08 1.493 2.506 4.106h.107v-5.066h4.747v29.333q0 4.427-2.774 6.987-2.72 2.613-7.466 2.613zm7.307-15.627q2.987 0 4.693-1.866 1.707-1.867 1.707-5.174v-5.6q0-3.306-1.707-5.173-1.706-1.867-4.693-1.867-3.04 0-4.747 1.76-1.653 1.76-1.653 4.747v6.667q0 2.986 1.653 4.746 1.707 1.76 4.747 1.76zM44.471 64.225v-4.373h8.267q2.507 0 3.947-1.44 1.44-1.387 1.44-3.787v-2.667l.106-4.8h-.16q-.426 2.614-2.506 4.054-2.08 1.386-5.227 1.386-4.533 0-7.147-2.88-2.613-2.88-2.613-7.893v-6.187q0-5.013 2.613-7.946 2.614-2.934 7.147-2.934 3.147 0 5.227 1.494 2.08 1.493 2.506 4.106h.107v-5.066h4.747v29.333q0 4.427-2.774 6.987-2.72 2.613-7.466 2.613zm7.307-15.627q2.987 0 4.693-1.866 1.707-1.867 1.707-5.174v-5.6q0-3.306-1.707-5.173-1.706-1.867-4.693-1.867-3.04 0-4.747 1.76-1.653 1.76-1.653 4.747v6.667q0 2.986 1.653 4.746 1.707 1.76 4.747 1.76z"/></g></svg>
