<svg xmlns="http://www.w3.org/2000/svg" width="24" height="24"><defs><style>.cls-1{fill:#4285f4}.cls-2{fill:#669df6}.cls-3{fill:#aecbfa}</style></defs><g data-name="Product Icons"><g data-name="colored-32/cloud-audit-logs"><path id="Fill-3" class="cls-1" d="M12.77 12.72a1.07 1.07 0 0 1-1.52 0l-1.49-1.49.76-.76L12 11.93l4.2-4.2.81.79Z"/><path id="Fill-10" class="cls-2" d="M16 11.59a.91.91 0 0 0-.81.81 3.21 3.21 0 0 1-2.86 2.76 3.25 3.25 0 0 1-1.84-.36 3.19 3.19 0 0 1 1.2-6 3.07 3.07 0 0 1 1.21.13.9.9 0 0 0 1-.28.91.91 0 0 0-.4-1.45A5 5 0 0 0 7 12.49 5 5 0 0 0 12.48 17 5 5 0 0 0 17 12.63a.91.91 0 0 0-1-1Z"/><path id="Fill-16" class="cls-3" d="M12 18a2 2 0 1 1-2 2 2 2 0 0 1 2-2"/><path id="Fill-16-2" data-name="Fill-16" class="cls-3" d="M12 2a2 2 0 1 1-2 2 2 2 0 0 1 2-2"/><path id="Rectangle" style="fill:none" d="M0 0h24v24H0z"/></g><path class="cls-1" d="M18 20a1 1 0 0 1-.71-1.7L20 15.59V8.41L17.31 5.7a1 1 0 0 1 0-1.41 1 1 0 0 1 1.42 0l3 3A1 1 0 0 1 22 8v8a1 1 0 0 1-.29.7l-3 3a1 1 0 0 1-.71.3Z"/><path class="cls-2" d="M6 20a1 1 0 0 1-.71-.3l-3-3A1 1 0 0 1 2 16V8a1 1 0 0 1 .29-.71l3-3a1 1 0 0 1 1.42 0 1 1 0 0 1 0 1.41L4 8.41v7.18l2.69 2.71a1 1 0 0 1 0 1.42A1 1 0 0 1 6 20Z"/></g></svg>