<svg xmlns="http://www.w3.org/2000/svg" width="24" height="24"><defs><style>.cls-1{fill:#4285f4}.cls-2{fill:#669df6}</style></defs><g data-name="Product Icons"><path class="cls-1" d="M21.63 6.57H9.26a.32.32 0 0 0-.32.33v2.16a.32.32 0 0 0 .32.32h12.37a.32.32 0 0 0 .37-.32V6.9a.32.32 0 0 0-.31-.33ZM10.49 8.71a.7.7 0 0 1-.7-.7.7.7 0 1 1 1.4 0 .7.7 0 0 1-.7.7ZM21.63 10.61H9.26a.32.32 0 0 0-.32.32v2.15a.32.32 0 0 0 .32.32h12.37a.32.32 0 0 0 .32-.32v-2.15a.32.32 0 0 0-.32-.32Zm-11.14 2.14a.7.7 0 1 1 .7-.7.7.7 0 0 1-.7.7ZM21.68 14.62H9.32a.32.32 0 0 0-.32.32v2.16a.32.32 0 0 0 .32.33h12.36a.32.32 0 0 0 .32-.33v-2.16a.32.32 0 0 0-.32-.32Zm-11.14 2.13a.71.71 0 0 1-.7-.71.71.71 0 0 1 1.41 0 .71.71 0 0 1-.71.71Z"/><path class="cls-2" d="M6.74 9.86H4.61a.81.81 0 0 1-.21-1.61h2.34A.81.81 0 1 1 7 9.86Z"/><path d="M6.74 12.81H2.92a.82.82 0 0 1-.21-1.62h4A.82.82 0 0 1 7 12.81Z" style="fill:#aecbfa"/><path class="cls-2" d="M6.74 15.75H4.61a.81.81 0 0 1-.21-1.61h2.34A.81.81 0 0 1 7 15.75Z"/></g></svg>