<svg baseProfile="tiny" xmlns="http://www.w3.org/2000/svg" width="24" height="24" overflow="visible" xml:space="preserve"><path fill="#D2E3FC" d="M6.579 1.333c-1.067 0-1.867.8-1.867 1.867 0 .356.089.712.355 1.067l.8-.8V3.2c0-.444.356-.8.8-.8s.8.356.8.8c0 .445-.355.8-.8.8h-.266l-.8.712c.889.533 2.044.355 2.578-.534.533-.889.355-2.044-.534-2.578-.266-.178-.622-.267-1.066-.267z"/><path fill="#5E97F6" d="M5.867 6.756c0-.622-.177-1.244-.533-1.778L4.267 6.045c.09.267.178.445.178.711 0 .445-.178.8-.445 1.067l.534 1.423c.889-.534 1.333-1.512 1.333-2.49z"/><path fill="#5E97F6" d="M3.023 8.268c-.8 0-1.512-.623-1.512-1.423s.623-1.511 1.423-1.511c.266 0 .622.089.889.267l1.067-.978c-.623-.534-1.245-.8-1.956-.8C1.334 3.823 0 5.156 0 6.756c0 1.6 1.245 2.934 2.934 2.934.177 0 .444 0 .622-.089l-.533-1.333z"/><path fill="#4285F4" d="M6.668 9.423c-.623 0-1.245.09-1.867.267l.8 1.956c.355 0 .71-.089 1.067-.089 2.489 0 4.445 2.045 4.445 4.445 0 2.49-2.045 4.445-4.445 4.445-2.49 0-4.446-2.045-4.446-4.445 0-1.69.89-3.2 2.4-3.912l-.8-1.955c-3.289 1.6-4.622 5.6-3.022 8.8 1.6 3.29 5.6 4.624 8.801 3.023 3.29-1.6 4.623-5.6 3.023-8.8-1.156-2.223-3.467-3.735-5.957-3.735z"/></svg>