<svg xmlns="http://www.w3.org/2000/svg" width="24" height="24"><defs><style>.cls-1{fill:#4285f4}</style></defs><g data-name="Product Icons"><path class="cls-1" d="M15.33 2v2.38h-2.16V2h-2.34v2.38H8.67V2H6.29v2.38a2 2 0 0 0-1.91 1.91H2v2.38h2.38v2.14H2v2.38h2.38v2.14H2v2.38h2.38a2 2 0 0 0 1.91 1.91V22h2.38v-2.38h2.16V22h2.34v-2.38h2.16V22h2.38v-2.38a2 2 0 0 0 1.91-1.91H22v-2.38h-2.38v-2.14H22v-2.38h-2.38V8.67H22V6.29h-2.38a2 2 0 0 0-1.91-1.91V2Zm1.53 15.24H7.14a.38.38 0 0 1-.38-.38V7.14a.38.38 0 0 1 .38-.38h9.72a.38.38 0 0 1 .38.38v9.72a.38.38 0 0 1-.38.38Z"/><path class="cls-1" d="M12.83 7.54v3.58h1.96l-3.5 4.86v-3.63H9.22l3.61-4.81z"/></g></svg>