<svg width="24" height="24" xmlns="http://www.w3.org/2000/svg"><g fill="none" fill-rule="evenodd"><path d="M0 0h24v24H0z"/><g transform="translate(2.063 2.813)" fill-rule="nonzero"><circle fill="#185ABC" cx="1.65" cy="1.65" r="1.65"/><circle fill="#185ABC" cx="1.65" cy="9.13" r="1.65"/><circle fill="#185ABC" cx="1.65" cy="16.61" r="1.65"/><circle fill="#185ABC" cx="17.694" cy="9.131" r="2.063"/><path d="M4.89 10.12h3.487c.138-.238.287-.47.447-.692l.21-.302a8.29 8.29 0 0 1-.637-1.004H4.89c.076.259.123.525.14.793v.422a3.405 3.405 0 0 1-.14.783Z" fill="#669DF6"/><path d="m11.438 6.094-.229-.411-.278-.462-.437-.874C9.242 1.837 7.95.683 5.346.683H4.89c.094.326.141.664.14 1.004.001.34-.046.678-.14 1.004h.457c1.61 0 2.316.512 3.29 2.289l.238.432.239.481c1.44 2.912 2.484 4.016 4.899 4.257a4.319 4.319 0 0 1-.12-1.004c.002-.34.049-.677.14-1.004h.06c-1.173-.11-1.849-.622-2.654-2.048Z" fill="#185ABC"/><path d="m9.61 11.486-.239.451-.378.764-.238.451-.229.412c-.914 1.616-1.63 2.088-3.18 2.088H4.89c.078.258.125.524.14.793v.372a3.486 3.486 0 0 1-.14.793h.716c2.395-.07 3.687-1.235 4.968-3.654l.537-1.075.209-.391.179-.332c.144-.25.303-.492.477-.722a5.652 5.652 0 0 1-1.69-1.004 7.76 7.76 0 0 0-.675 1.054Z" fill="#669DF6"/></g></g></svg>