<svg baseProfile="tiny" xmlns="http://www.w3.org/2000/svg" width="24" height="24" overflow="visible" xml:space="preserve"><path fill="none" d="M0 0h24v24H0z"/><g fill-rule="evenodd"><path fill="#5C85DE" d="m20.9 13.5 1.9 1.5c.2.2.3.5.1.7l-2.2 3.9c-.1.2-.4.3-.7.2l-2.2-.9c-.8.6-1.7 1.1-2.6 1.5l-.3 2.4c0 .3-.3.5-.6.5H9.7c-.3 0-.5-.2-.6-.5l-.3-2.4c-.9-.3-1.8-.9-2.6-1.5l-2.2.9c-.3.1-.5 0-.7-.2l-2.2-3.9c-.1-.3-.1-.6.2-.7l1.9-1.5c-.2-1-.2-2 0-3L1.3 9c-.3-.1-.3-.4-.2-.7l2.2-3.9c.1-.2.4-.3.7-.2l2.2.9c.8-.7 1.7-1.2 2.7-1.5l.3-2.4c0-.3.3-.5.6-.5h4.5c.3 0 .5.2.6.5l.3 2.4c.9.3 1.8.9 2.6 1.5l2.2-.9c.3-.1.5 0 .7.2l2.2 3.9c.1.3.1.6-.2.7l-1.9 1.5c.2 1 .2 2 .1 3zM12 18c.8 0 1.5-.7 1.5-1.5h-3c0 .8.7 1.5 1.5 1.5zm3.8-6.8c0-2.3-.5-3.5-2.6-4v-.4c0-.6-.5-1.1-1.1-1.1s-1.2.4-1.2 1.1v.5c-2.2.5-2.6 1.7-2.6 4v2.2L6.8 15v.8h10.5V15l-1.5-1.5v-2.3z"/><path fill="#3367D6" d="M12 23.2V18c.8 0 1.5-.7 1.5-1.5H12v-.8h5.2V15l-1.5-1.5v-2.2c0-2.3-.5-3.5-2.6-4v-.5c0-.6-.5-1.1-1.1-1.1V.8h2.2c.3 0 .5.2.6.5l.3 2.4c.9.3 1.8.9 2.6 1.5l2.2-.9c.3-.1.5 0 .7.2l2.2 3.9c.2.2.2.5-.1.6l-1.9 1.5c.2 1 .2 2 0 3l1.9 1.5c.2.2.3.5.1.7l-2.2 3.9c-.1.2-.4.3-.7.2l-2.2-.9c-.8.6-1.7 1.1-2.6 1.5l-.3 2.4c0 .3-.3.5-.6.5H12z"/></g></svg>