<svg height="24" width="24" xmlns="http://www.w3.org/2000/svg"><path d="M4.87 12.328c1.57-.443 3.21.451 3.66 1.997.45 1.546-.46 3.16-2.029 3.603a3.01 3.01 0 0 1-1.542.023l-.163-.044-1.554 2.76-1.032-.564 1.552-2.765a2.897 2.897 0 0 1-.92-1.407c-.45-1.546.458-3.16 2.028-3.603zm8.668 6.153v1.515h-3.076v-1.515zm3.077-3.03v1.515h-6.153v-1.514zm-9.223-.805c-.27-.924-1.257-1.463-2.196-1.198-.938.265-1.486 1.238-1.217 2.162.27.924 1.257 1.463 2.196 1.198s1.486-1.238 1.217-2.162zm12.3-2.224v1.515h-9.23v-1.515zM22 9.392v1.515H2V9.392zm0-3.03v1.516H2V6.363zM11.279 3.334v1.515H4.308V3.333zm8.413 0v1.515h-6.97V3.333z" fill="#4285f4" fill-rule="evenodd"/></svg>