<svg xmlns="http://www.w3.org/2000/svg" width="24" height="24"><defs><style>.cls-1{fill:#4285f4}</style></defs><g data-name="Product Icons"><path class="cls-1" d="M12 6.4A5.59 5.59 0 0 1 16 8l1-1A7.07 7.07 0 0 0 7 7l1 1a5.59 5.59 0 0 1 4-1.6ZM12 17.6A5.59 5.59 0 0 1 8 16l-1 1a7.07 7.07 0 0 0 10 0l-1-1a5.59 5.59 0 0 1-4 1.6Z"/><path d="M12 15.07a3.06 3.06 0 0 1-3-2.34H5.11v2.38L2 12l3.11-3.1v2.38H9a3.06 3.06 0 0 1 3-2.34 3.06 3.06 0 0 1 3 2.34h3.91V8.89L22 12l-3.11 3.12v-2.39H15a3.06 3.06 0 0 1-3 2.34Zm0-4.68A1.61 1.61 0 1 0 13.61 12 1.61 1.61 0 0 0 12 10.39Z" style="fill:#669df6"/></g></svg>