<svg id="Product_Icons" data-name="Product Icons" xmlns="http://www.w3.org/2000/svg" width="24" height="24"><defs><style>.cls-2{fill:#4285f4}.cls-3{fill:#669df6}</style></defs><path d="M18.18 17.24a9 9 0 0 1-1.51 1.32l2.94 2.94a1 1 0 0 0 1.41 0 1 1 0 0 0 0-1.41Z" style="fill-rule:evenodd;fill:#4285f4"/><path class="cls-2" d="M14 15.5H9.19l4-8H10v-1h4.81l-4 8H14v1z"/><circle class="cls-3" cx="14" cy="15" r="1.25"/><circle class="cls-3" cx="10" cy="15" r="1.25"/><path class="cls-2" d="M8 10.5h8v1H8z"/><path d="M12 4a7 7 0 1 1-7 7 7 7 0 0 1 7-7m0-2a9 9 0 1 0 9 9 9 9 0 0 0-9-9" style="fill:#669df6;fill-rule:evenodd"/><circle class="cls-3" cx="12" cy="11" r="1.25"/><circle class="cls-3" cx="8" cy="11" r="1.25"/><circle class="cls-3" cx="16" cy="11" r="1.25"/><circle class="cls-3" cx="14" cy="7" r="1.25"/><circle class="cls-3" cx="10" cy="7" r="1.25"/></svg>