<svg width="24" height="24" xmlns="http://www.w3.org/2000/svg"><g fill="none" fill-rule="evenodd" transform="translate(-2.4 -2)"><path d="M0 0h24v24H0z"/><circle fill="#4285F4" fill-rule="nonzero" cx="14.4" cy="23.7" r="1"/><circle fill="#4285F4" fill-rule="nonzero" cx="5.85" cy="15.3" r="1"/><circle fill="#4285F4" fill-rule="nonzero" cx="20.25" cy="18" r="1"/><path d="m18.36 19.06-.08-.16-2.79 2.85.13.1c.3.2.54.47.71.79l.09.16 2.78-2.89-.12-.08c-.3-.2-.54-.46-.72-.77ZM7.74 16.36c-.17.31-.42.57-.71.77l-.14.09 5.52 5.58.09-.16c.16-.31.4-.58.7-.78l.13-.09-5.51-5.57-.08.16ZM20.06 3.6c-1.69.01-3.3.69-4.46 1.88l-1.2 1.16-1.2-1.16A6.234 6.234 0 0 0 8.76 3.6c-3.59.08-6.43 2.95-6.36 6.41 0 1.46.5 2.88 1.43 4.03l.11.15.1-.15c.19-.3.45-.55.76-.72l.14-.08-.09-.13c-.7-.89-1.07-1.98-1.07-3.1-.03-1.3.48-2.56 1.41-3.5.94-.95 2.22-1.49 3.57-1.52 1.34.01 2.61.55 3.52 1.5l2.12 2.13 2.14-2.16c.91-.94 2.19-1.47 3.52-1.47 2.81.07 5.03 2.31 4.97 5.02 0 1.32-.52 2.59-1.45 3.55l-2.4 2.43.16.09c.3.18.56.43.74.73l.08.14 2.4-2.4a6.466 6.466 0 0 0 1.84-4.54c.07-3.45-2.76-6.32-6.34-6.41Z" fill="#4285F4" fill-rule="nonzero"/></g></svg>