<svg width="24" height="24" xmlns="http://www.w3.org/2000/svg"><path d="M22 6v11.887h-3.962a.189.189 0 0 1-.189-.189v-1.132c0-.104.085-.189.189-.189h2.452V7.509h-2.452a.189.189 0 0 1-.189-.188V6.189c0-.105.085-.189.189-.189H22ZM6.31 6c.103 0 .188.084.188.189V7.32a.189.189 0 0 1-.189.188h-2.8v8.868h2.783c.105 0 .19.085.19.189v1.132a.189.189 0 0 1-.19.189H2V6h4.31Zm11.117 3.868v1.456l.06.025 1.351-.478.28.82-1.362.465-.037.098.937 1.26-.706.514-.912-1.26h-.085l-.913 1.26-.705-.514.924-1.26-.024-.098-1.362-.465.28-.82 1.337.478.073-.025V9.868h.864Zm-10.231 0v1.442l.06.024 1.351-.473.28.812-1.363.46-.036.097.937 1.248-.706.51-.912-1.249h-.085l-.913 1.248-.705-.509.924-1.248-.024-.097-1.362-.46.28-.812 1.337.473.073-.024V9.868h.864Zm5.094 0v1.442l.061.024 1.35-.473.28.812-1.362.46-.037.097.937 1.248-.706.51-.912-1.249h-.085l-.912 1.248-.706-.509.925-1.248-.025-.097-1.362-.46.28-.812 1.338.473.073-.024V9.868h.863Z" fill="#4285F4" fill-rule="nonzero"/></svg>