<svg width="24" height="24" xmlns="http://www.w3.org/2000/svg"><path d="M19.857 15c.058 0 .116.002.173.007L19.857 15a2.065 2.065 0 0 1 .556.076C21.327 15.333 22 16.21 22 17.25c0 1.243-.96 2.25-2.143 2.25-1.183 0-2.143-1.007-2.143-2.25 0-.872.473-1.628 1.163-2.002l.033-.017c.034-.018.07-.034.104-.05l-.137.067a2.085 2.085 0 0 1 .812-.241c.056-.005.112-.007.168-.007ZM4.143 15c.062 0 .123.003.183.008L4.143 15a2.065 2.065 0 0 1 .926.22c.72.364 1.217 1.136 1.217 2.03 0 1.243-.96 2.25-2.143 2.25C2.959 19.5 2 18.493 2 17.25c0-1.118.777-2.046 1.795-2.22a2.039 2.039 0 0 1 .348-.03Zm11.317-3.75a.61.61 0 0 1 .602.619.63.63 0 0 1-.058.266l.001.003-3.141 5.16a1.241 1.241 0 0 1-.225.329c-.219.23-.524.373-.862.373-.666 0-1.206-.554-1.206-1.238 0-.307.11-.59.291-.806l.048-.052-.004-.004 4.163-4.506a.611.611 0 0 1 .39-.144Zm-.352-4.5c2.905 1.214 5.013 4.08 5.277 7.495a2.781 2.781 0 0 0-1.53.136c-.21-2.731-1.861-5.035-4.155-6.072.223-.39.364-.838.4-1.317l.008-.242.001-.007Zm-5.815-.183a3.166 3.166 0 0 0 .321 1.59c-2.477.944-4.293 3.337-4.521 6.204a2.769 2.769 0 0 0-1.531-.106c.26-3.415 2.366-6.286 5.27-7.51l.247-.099.214-.079ZM12.198 4.5c1.09 0 1.99.854 2.126 1.96-.001-.001-.001-.001 0 0l.01.107a2.394 2.394 0 0 1 0 .365l.007-.182a2.388 2.388 0 0 1-.077.6 2.3 2.3 0 0 1-.302.678A2.114 2.114 0 0 1 12.198 9c-.885 0-1.645-.564-1.972-1.369a3.897 3.897 0 0 1-.052-.141 2.304 2.304 0 0 1-.118-.74 2.375 2.375 0 0 1 .036-.418C10.28 5.29 11.151 4.5 12.198 4.5Z" fill="#4285F4" fill-rule="nonzero"/></svg>