<svg width="24" height="24" xmlns="http://www.w3.org/2000/svg"><path d="M12.031 12.064c1.314 0 2.5.555 3.333 1.444a3.273 3.273 0 0 1 2.476-1.131h.87c1.817 0 3.29 1.483 3.29 3.311C22 17.518 20.527 19 18.71 19H4.917A2.927 2.927 0 0 1 2 16.064a2.927 2.927 0 0 1 2.918-2.937h2.173c.557 0 1.09.158 1.547.446a4.555 4.555 0 0 1 3.393-1.509Zm-4.94 2.31H4.918c-.927 0-1.68.756-1.68 1.69 0 .933.753 1.69 1.68 1.69h2.556l-.001-.089-.006-1.042-.001-.004.001-.047.005-.167v-.008l.007-.113a4.488 4.488 0 0 1 .243-1.169l.035-.093a4.48 4.48 0 0 1 .174-.404l.007-.014-.024-.014a1.663 1.663 0 0 0-.823-.216Zm11.618-.75h-.87c-.71 0-1.355.365-1.729.952l.008.014c.07.14.132.284.188.431l.021.06c.024.064.045.13.066.195l.015.051.025.086.023.087a4.527 4.527 0 0 1 .133.876l.005.123.001.124v1.13h2.114a2.058 2.058 0 0 0 2.052-2.065c0-1.14-.919-2.064-2.052-2.064Zm-3.447 2.215v.003l.001.002-.001-.005Zm-.206-.592.002.003v-.002l-.007-.013.005.012ZM5.788 7.885a2.475 2.475 0 0 1 2.483 2.468 2.475 2.475 0 0 1-2.483 2.467 2.475 2.475 0 0 1-2.483-2.467 2.475 2.475 0 0 1 2.483-2.468ZM18.364 6.76a2.63 2.63 0 0 1 2.634 2.624 2.63 2.63 0 0 1-2.634 2.624 2.63 2.63 0 0 1-2.635-2.624 2.63 2.63 0 0 1 2.635-2.624ZM5.788 9.132c-.69 0-1.244.549-1.244 1.22 0 .673.554 1.222 1.244 1.222s1.244-.55 1.244-1.221c0-.672-.555-1.221-1.244-1.221ZM12.062 5a2.912 2.912 0 0 1 2.918 2.905 2.912 2.912 0 0 1-2.918 2.905 2.912 2.912 0 0 1-2.918-2.905A2.912 2.912 0 0 1 12.062 5Zm6.302 3.007c-.773 0-1.396.618-1.396 1.377 0 .758.623 1.377 1.396 1.377.772 0 1.395-.619 1.395-1.377 0-.759-.623-1.377-1.395-1.377Zm-6.302-1.76c-.93 0-1.679.744-1.679 1.658 0 .914.75 1.659 1.68 1.659.928 0 1.678-.745 1.678-1.659s-.75-1.658-1.679-1.658ZM9.071 15.11l.009-.019-.009.02-.003.003.003-.004Zm6.117.472.015.046-.008-.028-.016-.047.009.029Zm0 0-.016-.049v-.002l-.011-.029-.001-.003-.006-.017-.008-.021-.001-.003-.008-.02-.01-.026-.009-.023-.003-.007-.003-.007v-.002l-.007-.017.004.011-.033-.078-.006-.014-.003-.006-.011-.023-.009-.019.001.001-.019-.039-.004-.008-.004-.008.002.003v-.003l-.012-.023-.01-.018-.001-.002-.02-.039-.01-.019-.007-.013-.005-.009-.016-.029-.018-.032a3.308 3.308 0 0 0-.052-.09l-.05-.08-.029-.041.015.024-.044-.067c-.6-.861-1.6-1.425-2.733-1.425-1.131 0-2.13.562-2.73 1.42l-.002.003c-.08.115-.152.234-.217.357l-.011.02-.02.04.008-.018-.021.044-.002.005-.004.008-.019.039-.008.018-.001.003-.01.02-.002.006-.006.015-.012.024.006-.012-.079.197c-.025.07-.048.143-.069.215l-.055.22-.005.023-.002.011-.005.024-.007.04-.005.028v.002l-.005.028v.003l-.004.024-.002.012-.002.01v.001l-.018.153c-.01.108-.016.216-.016.325l.006 1.046v.088h6.644v-1.13c0-.077-.002-.153-.007-.229l-.003-.021.001.002a.764.764 0 0 0-.002-.022l.001.019-.001-.021-.002-.021-.002-.032-.003-.014-.005-.048-.003-.024V16.203l-.01-.072-.006-.037-.011-.066-.016-.078-.003-.016-.004-.017-.007-.037-.01-.036.007.032-.008-.034-.007-.029-.003-.011V15.8l-.02-.079-.003-.006-.008-.027-.033-.105Z" fill="#4285F4" fill-rule="nonzero"/></svg>