<svg baseProfile="tiny" xmlns="http://www.w3.org/2000/svg" width="24" height="24" overflow="visible" xml:space="preserve"><path fill="none" d="M0 0h24v24H0z"/><path fill-rule="evenodd" fill="#85A4E6" d="M.8 5.9 3.7.8h5.8l2.9 5.1-2.9 5H3.7z"/><path fill-rule="evenodd" fill="#5C85DE" d="M11.4 7.7 8.5 2.6l1-1.9 2.9 5.2z"/><path fill-rule="evenodd" fill="#3367D6" d="M2.7 9.3h5.8l2-3.4.9 1.8-1.9 3.2-5.8.1z"/><path fill-rule="evenodd" fill="#85A4E6" d="m11.2 11.9 3-5.1H20l2.9 5.1-2.9 5h-5.8z"/><path fill-rule="evenodd" fill="#5C85DE" d="M21.9 13.7 19 8.6l1-1.9 2.9 5.2z"/><path fill-rule="evenodd" fill="#3367D6" d="M13.2 15.3H19l2-3.4.9 1.8-1.9 3.2-5.8.1z"/><path fill-rule="evenodd" fill="#85A4E6" d="m.8 17.9 2.9-5.1h5.8l2.9 5.1-2.9 5H3.7z"/><path fill-rule="evenodd" fill="#5C85DE" d="m11.4 19.7-2.9-5.1 1-1.9 2.9 5.2z"/><path fill-rule="evenodd" fill="#3367D6" d="M2.7 21.3h5.8l2-3.4.9 1.8-1.9 3.2-5.8.1z"/></svg>