<svg xmlns="http://www.w3.org/2000/svg" width="24" height="24"><defs><style>.cls-1{fill:#4285f4}</style></defs><g data-name="Product Icons"><path class="cls-1" d="M18.23 6.24A9.61 9.61 0 0 0 12.08 4C7.24 4 3.11 7.65 2 12.9a.81.81 0 1 0 1.58.35C4.53 8.74 8 5.6 12.08 5.6A7.86 7.86 0 0 1 16.53 7ZM18.67 7.53l-5.88 2.63a2 2 0 1 0 1.13 2.58 1.83 1.83 0 0 0 .12-.46.1.1 0 0 0 .05 0l5-4c.59-.54.27-1.06-.42-.75Z"/><circle cx="20.04" cy="9.99" r=".84" style="fill:#669df6"/><circle cx="21.16" cy="13.04" r=".84" style="fill:#aecbfa"/></g></svg>