<svg baseProfile="tiny" xmlns="http://www.w3.org/2000/svg" width="24" height="24" overflow="visible" xml:space="preserve"><path fill="none" d="M0 0h24v24H0z"/><path fill-rule="evenodd" fill="#5C85DE" d="m20.9 13.5 1.9 1.5c.2.2.3.5.1.7l-2.2 3.9c-.1.2-.4.3-.7.2l-2.2-.9c-.8.6-1.7 1.1-2.6 1.5l-.3 2.4c0 .3-.3.5-.6.5H9.7c-.3 0-.5-.2-.6-.5l-.3-2.4c-.9-.3-1.8-.9-2.6-1.5l-2.2.9c-.3.1-.5 0-.7-.2l-2.2-3.9c-.1-.3-.1-.6.2-.7l1.9-1.5c-.2-1-.2-2 0-3L1.3 9c-.3-.1-.3-.4-.2-.7l2.2-3.9c.1-.2.4-.3.7-.2l2.2.9c.8-.7 1.7-1.2 2.7-1.5l.3-2.4c0-.3.3-.5.6-.5h4.5c.3 0 .5.2.6.5l.3 2.4c.9.3 1.8.9 2.6 1.5l2.2-.9c.3-.1.5 0 .7.2l2.2 3.9c.1.3.1.6-.2.7l-1.9 1.5c.2 1 .2 2 .1 3zm-12.3.9.6-1.2h4.9c.5 0 .9-.3 1.2-.7l2.5-4.6-1.1-.6-.7 1.3-1.8 3.3H9.5l-.1-.2-2-5H5.3V8h1.3l1.6 4.3-.9 1.6c-.1.2-.2.4-.2.6 0 .7.6 1.3 1.3 1.3h7.9v-1.3H8.8c-.1.1-.2 0-.2-.1zm.8 2c-.7 0-1.2.6-1.2 1.2s.6 1.2 1.2 1.2c.7 0 1.2-.6 1.2-1.2s-.6-1.2-1.2-1.2zm5.4 0c-.7 0-1.2.6-1.2 1.2s.6 1.2 1.2 1.2c.7 0 1.2-.6 1.2-1.2s-.6-1.2-1.2-1.2zM12 4.5v3.3h3.3L12 4.5zm0 0L8.7 7.8H12V4.5zm0 3.3H8.7l3.3 3.3V7.8zm3.3 0H12v3.3l3.3-3.3z"/><path fill-rule="evenodd" fill="#3367D6" d="m12 11.1 3.3-3.3L12 4.5V.8h2.2c.3 0 .5.2.6.5l.3 2.4c.9.3 1.8.9 2.6 1.5l2.2-.9c.3-.1.5 0 .7.2l2.2 3.9c.2.2.2.5-.1.6l-1.9 1.5c.2 1 .2 2 0 3l1.9 1.5c.2.2.3.5.1.7l-2.2 3.9c-.1.2-.4.3-.7.2l-2.2-.9c-.8.6-1.7 1.1-2.6 1.5l-.3 2.4c0 .3-.3.5-.6.5H12v-7.4h4.4v-1.3H12v-1.3h2.1c.5 0 .9-.3 1.2-.7L17.8 8l-1.1-.6-.7 1.3-1.8 3.3H12v-.9zm2.8 5.3c-.7 0-1.2.6-1.2 1.2s.6 1.2 1.2 1.2c.7 0 1.2-.6 1.2-1.2s-.6-1.2-1.2-1.2z"/></svg>