<svg xmlns="http://www.w3.org/2000/svg" width="24" height="24"><defs><style>.cls-1{fill:#669df6}.cls-2{fill:#4285f4}.cls-3{fill:#aecbfa}</style></defs><g data-name="Product Icons"><path class="cls-1" d="M20 5h-3v2h3v12h-3v2h5V5h-2z"/><path class="cls-2" d="m20 8 2-1h-2v1zM22 18l-2 1h2v-1z"/><path class="cls-1" d="M4 21h3v-2H4V7h3V5H2v16h2z"/><g data-name="Shape"><path class="cls-2" d="m2 18 2 1H2v-1zM4 8 2 7h2v1z"/></g><path id="Rectangle-7-Copy" class="cls-3" d="M7 12h10v2H7z"/><path id="Rectangle-7-Copy-2" data-name="Rectangle-7-Copy" class="cls-3" d="M7 15h10v2H7z"/><path id="Rectangle-7-Copy-3" data-name="Rectangle-7-Copy" class="cls-3" d="M7 9h10v2H7z"/></g></svg>