<svg width="24" height="24" xmlns="http://www.w3.org/2000/svg"><path d="m6.625 8.143.083.06 4.988 3.888a1.98 1.98 0 0 1 2.11 1.245 1.953 1.953 0 0 1-.532 2.165c-.612.543-1.5.654-2.228.279a1.961 1.961 0 0 1-1.068-1.806l.012-.161-.002-.001-3.851-5.056c-.43-.565-.058-.972.488-.613Zm14.539 6.015c.462 0 .836.371.836.83 0 .458-.374.83-.836.83a.833.833 0 0 1-.837-.83c0-.459.375-.83.837-.83ZM4.842 9.215l.963 1.323a10.109 10.109 0 0 0-2.213 4.552.799.799 0 0 1-.533.605.808.808 0 0 1-.793-.163.793.793 0 0 1-.247-.765 11.607 11.607 0 0 1 2.823-5.552Zm15.224 1.93c.462 0 .837.372.837.83 0 .458-.375.83-.837.83a.833.833 0 0 1-.836-.83c0-.458.374-.83.836-.83Zm-1.963-2.574c.462 0 .836.371.836.83 0 .458-.374.829-.836.829a.833.833 0 0 1-.837-.83c0-.458.375-.83.837-.83Zm-2.726-1.822c.461 0 .836.372.836.83 0 .458-.375.83-.836.83a.833.833 0 0 1-.837-.83c0-.458.375-.83.837-.83Zm-6.278-.202c.462 0 .837.371.837.83 0 .458-.375.83-.837.83a.833.833 0 0 1-.836-.83c0-.459.374-.83.836-.83ZM12.253 6c.462 0 .836.371.836.83 0 .458-.374.83-.836.83a.833.833 0 0 1-.837-.83c0-.459.375-.83.837-.83Z" fill="#4285F4" fill-rule="nonzero"/></svg>