<svg width="24" height="24" xmlns="http://www.w3.org/2000/svg"><path d="m16.184 12.418 3.941 1.788v2.681c0 1.064-.31 2.096-.84 2.972l-1.27-1.296a2.272 2.272 0 0 0-.28-2.811 2.16 2.16 0 0 0-3.096 0 2.269 2.269 0 0 0 0 3.16 2.153 2.153 0 0 0 2.754.286l1.366 1.394C18.08 21.4 17.19 22 16.184 22.25c-2.259-.563-3.94-2.883-3.94-5.363v-2.681l3.94-1.788Zm.037-10.168.14.006c.779.068 1.4.699 1.47 1.485l.007.15.005 8.561-1.623-.738V3.89H5.763v13.123l5.915-.001.002.06c.021.54.111 1.07.261 1.58H5.754a1.636 1.636 0 0 1-1.623-1.498l-.006-.141.008-13.123c0-.854.654-1.562 1.489-1.634l.14-.006h10.459Zm-4.547 11.463v1.63h-4.32v-1.63h4.32Zm2.801-3.262v1.631H7.353v-1.63h7.122Zm-.902-3.261v1.583h-6.22V7.19h6.22Zm2.611 11.485c.726 0 1.314-.6 1.314-1.341 0-.74-.588-1.34-1.314-1.34-.725 0-1.313.6-1.313 1.34 0 .74.588 1.34 1.313 1.34Z" fill="#4285F4" fill-rule="nonzero"/></svg>