<svg xmlns="http://www.w3.org/2000/svg" width="24" height="24" xml:space="preserve"><path fill="none" d="M0 0h24v24H0z"/><path fill-rule="evenodd" clip-rule="evenodd" fill="#3367D6" fill-opacity=".6" d="M13.2 0v5.5H7.7z"/><path fill-rule="evenodd" clip-rule="evenodd" fill="#3367D6" fill-opacity=".8" d="M13.2 5.5V11L7.7 5.5z"/><path fill="#3367D6" fill-opacity=".6" d="M7.5 16.48v-.1l1-1.8h8.2c.8 0 1.6-.5 1.9-1.1l4.2-7.7-1.8-1.1-1.2 2.2-3 5.5H9l-.1-.3-2.5-5.2-1-2.2-1-2.2H.8v2.2H3l4 8.3-1.5 2.7c-.2.3-.3.7-.3 1.1 0 1.2 1 2.2 2.2 2.2h13.2v-2.2H7.8c-.1 0-.3-.1-.3-.3z"/><path fill-rule="evenodd" clip-rule="evenodd" fill="#3367D6" d="M8.8 19.9c-1.1 0-2.1.9-2.1 2.1 0 1.1.9 2.1 2.1 2.1s2.1-.9 2.1-2.1c0-1.2-1-2.1-2.1-2.1zM17.8 19.9c-1.1 0-2.1.9-2.1 2.1 0 1.1.9 2.1 2.1 2.1 1.1 0 2.1-.9 2.1-2.1 0-1.2-1-2.1-2.1-2.1z"/><path fill-rule="evenodd" clip-rule="evenodd" fill="#3367D6" fill-opacity=".8" d="m13.2 0 5.5 5.5h-5.5z"/><path fill-rule="evenodd" clip-rule="evenodd" fill="#3367D6" d="M18.7 5.5 13.2 11V5.5z"/></svg>