<svg xmlns="http://www.w3.org/2000/svg" width="24" height="24"><defs><style>.cls-2{fill:#669df6}</style></defs><g data-name="Product Icons"><circle cx="11.44" cy="11.5" r="2.97" style="fill:#4285f4"/><circle class="cls-2" cx="4.02" cy="10.79" r="2.02"/><circle class="cls-2" cx="14.52" cy="18.62" r="2.02"/><path class="cls-2" d="M19.57 4.2A2.43 2.43 0 1 0 22 6.63a2.43 2.43 0 0 0-2.43-2.43Zm0 3.8a1.37 1.37 0 1 1 1.36-1.37A1.37 1.37 0 0 1 19.57 8Z"/><path class="cls-2" d="M18.2 6.68a8.29 8.29 0 0 0-5.06-3.32l-.28 1.34a6.95 6.95 0 1 1-8.22 5.38 6.88 6.88 0 0 1 1.87-3.47l-1-1a8.31 8.31 0 1 0 13.38 2.2 1.36 1.36 0 0 1-.69-1.13Z"/></g></svg>