<svg data-name="Artwork" xmlns="http://www.w3.org/2000/svg" width="24" height="24"><path d="M16.791 6.375a.841.841 0 0 1 .834.846V17.64a.685.685 0 0 1-.75.735H4.688L2.25 20.812V7.221a.841.841 0 0 1 .834-.846Z" fill="#4285f4"/><path fill="#669df6" d="M12.375 11.438h2.813v4.875h-2.813z"/><path fill="#aecbfa" d="M8.625 8.625h2.813v7.688H8.625z"/><path fill="#fff" d="M4.875 10.125h2.813v6.188H4.875z"/><path d="M20.916 3.188a.839.839 0 0 1 .833.8v13.637l-2.25-2.25h-.75v-9.3a.823.823 0 0 0-.824-.821H6.375V4.033a.841.841 0 0 1 .8-.845h13.741Z" fill="#669df6"/></svg>