<svg xmlns="http://www.w3.org/2000/svg" width="24" height="24"><defs><style>.cls-1{fill:#4285f4}</style></defs><g data-name="Product Icons"><path class="cls-1" d="m6.83 19.46 1 1.65h9.48L22 12.89 20.1 9.6l-4.74 8.21H7.78ZM17.17 4.54l-1-1.65H6.74L2 11.11l1.9 3.29 4.75-8.21h7.58Z"/><path style="fill:#669df6" d="m15.47 9.99-1.33.99v2.08l1.33 1V9.99z"/><path style="fill:#aecbfa" d="m10.79 12.3-.38.69H9.5l.57-.98-.57-1h.91l.38.64h2.5V9.62h-2.03l.43.68h.75v.74h-1.22l-.91-1.42H8.53v4.76h1.78l.91-1.42h1.22v.74h-.75l-.43.68h2.03V12.3h-2.5z"/></g></svg>