<svg xmlns="http://www.w3.org/2000/svg" width="24" height="24"><defs><style>.cls-1,.cls-2{fill:#aecbfa;fill-rule:evenodd}.cls-2{fill:#669df6}</style></defs><g data-name="Product Icons"><path class="cls-1" d="M4.67 10.44v3.01l7.33 3.9v-3.01l-7.33-3.9zM4.67 15.09v3.01L12 22v-3.01l-7.33-3.9z"/><path class="cls-2" d="m12 17.35 7.33-3.9v-3.01L12 14.34v3.01zM12 22l7.33-3.9v-3.01L12 18.99V22z"/><path style="fill:#4285f4;fill-rule:evenodd" d="M19.33 8.91V5.9L12 2v3.01l7.33 3.9z"/><path class="cls-2" d="M12 2 4.67 5.9v3.01L12 5.01V2z"/><path class="cls-1" d="M4.67 5.87v3.02l7.33 3.9V9.77l-7.33-3.9z"/><path class="cls-2" d="m12 12.79 7.33-3.9V5.87L12 9.77v3.02z"/></g></svg>