<svg xmlns="http://www.w3.org/2000/svg" width="24" height="24"><defs><style>.cls-1{fill:#a6cafd}.cls-3{fill:#fff}.cls-4{fill:#669df6}</style></defs><g data-name="Product Icons"><path class="cls-1" d="M20 4H7.7a1.12 1.12 0 0 0-1 .63L3 12h2l3-6h11v1h2V5a1 1 0 0 0-1-1Z"/><circle cx="10" cy="12" r="3" style="fill:#559cfc"/><circle class="cls-3" cx="10" cy="12" r="1"/><path id="path-5" class="cls-3" d="M0 0h8v1H0V0z"/><rect class="cls-4" x="17" y="8" width="5" height="2" rx="1"/><rect class="cls-4" x="14" y="11" width="8" height="2" rx="1"/><rect class="cls-4" x="17" y="14" width="5" height="2" rx="1"/><path class="cls-1" d="M19 17v1H8l-2-4H4l2.69 5.37a1.12 1.12 0 0 0 1 .63H20a1 1 0 0 0 1-1v-2Z"/><path style="fill:none;stroke:#2683fb;stroke-miterlimit:10" d="M10 12H2"/></g></svg>