<svg xmlns="http://www.w3.org/2000/svg" width="24" height="24"><defs><style>.cls-1{fill:#669df6}.cls-1,.cls-2,.cls-3{fill-rule:evenodd}.cls-2{fill:#4285f4}.cls-3{fill:#aecbfa}</style></defs><g data-name="Product Icons"><path class="cls-1" d="m6.68 16.3-2.41-4.26 2.41-4.25H4.42L2 12.04l2.42 4.26h2.26z"/><path class="cls-2" d="m4.57 12.56-.3-.52H2l1.11 1.97 1.46-1.45z"/><path class="cls-3" d="M15 6.37H9.12L5.81 12l3.31 5.59H15L18.29 12 15 6.37Zm-2.93 8.36a2.64 2.64 0 1 1 2.66-2.64 2.65 2.65 0 0 1-2.66 2.64ZM4.27 12.06l2.41-4.27H4.42L2 12.06l1.11 1.97 1.16-1.97z"/><path class="cls-1" d="m15 6.45-1.7 3.33a2.66 2.66 0 0 1-1.25 5 2.62 2.62 0 0 1-1.18-.27l-1.75 3.12H15L18.29 12 15 6.45Z"/><path class="cls-1" d="m17.32 7.79 2.41 4.25-2.41 4.26h2.27L22 12.04l-2.41-4.25h-2.27z"/><path class="cls-2" d="m19.43 11.53.3.51H22l-1.11-1.97-1.46 1.46z"/><path class="cls-3" d="m19.73 12.02-2.41 4.28h2.27L22 12.02l-1.11-1.97-1.16 1.97z"/></g></svg>