<svg width="24" height="24" xmlns="http://www.w3.org/2000/svg"><path d="M11.897 16.194c.81 0 1.466.628 1.466 1.403S12.707 19 11.897 19c-.81 0-1.466-.628-1.466-1.403s.657-1.403 1.466-1.403Zm2.037-1.82.721 1.203.838-.001a1.463 1.463 0 0 1 1.387-.947c.81 0 1.466.628 1.466 1.403s-.657 1.403-1.466 1.403a1.464 1.464 0 0 1-1.377-.92l-.949-.001a.83.83 0 0 1-.705-.403l-.8-1.332h-2.305l-.798 1.332a.83.83 0 0 1-.706.403h-.949a1.464 1.464 0 0 1-1.376.921c-.81 0-1.466-.628-1.466-1.403s.656-1.403 1.466-1.403c.642 0 1.188.396 1.386.947h.838l.746-1.244-1.153-1.915H6.847a1.457 1.457 0 0 1-1.24.928l-.141.007c-.81 0-1.466-.628-1.466-1.403s.656-1.404 1.466-1.404c.637 0 1.18.39 1.382.935H8.66l1.185-1.934-.706-1.177h-.843a1.464 1.464 0 0 1-1.381.934c-.81 0-1.466-.628-1.466-1.403s.656-1.403 1.466-1.403c.637 0 1.18.39 1.381.934h.944a.83.83 0 0 1 .706.403l.77 1.283h2.362l.77-1.283a.83.83 0 0 1 .706-.402l.944-.001a1.464 1.464 0 0 1 1.382-.934c.81 0 1.466.628 1.466 1.403s-.657 1.403-1.466 1.403c-.638 0-1.18-.39-1.382-.934h-.843l-.732 1.219 1.14 1.892h2.09a1.457 1.457 0 0 1 1.24-.928l.141-.007c.81 0 1.466.629 1.466 1.404 0 .775-.656 1.403-1.466 1.403-.637 0-1.18-.39-1.381-.934l-2.019-.001-1.2 1.957ZM11.897 5c.81 0 1.466.628 1.466 1.403s-.656 1.403-1.466 1.403c-.81 0-1.466-.628-1.466-1.403S11.088 5 11.897 5Z" fill="#4285F4" fill-rule="nonzero"/></svg>