<svg xmlns="http://www.w3.org/2000/svg" width="24" height="24"><path style="fill:#669df6;fill-rule:evenodd" d="m16.38 5.77-5.09 12.45 1.42-12.45h3.67z"/><path style="fill:#aecbfa;fill-rule:evenodd" d="m12.71 5.77-1.42 12.45H7.62l5.09-12.45zM3.71 14.65l-1.46 3.57h2.57l.41-3.57ZM5.83 9.49l-.41 3.58H4.35l1.48-3.58z"/><path style="fill:#669df6;fill-rule:evenodd" d="m9.48 9.49-.01.03-1.45 3.55h-2.6l.41-3.58h3.65zM21.75 5.77l-5.1 12.46 1.43-12.46h3.67z"/><path style="fill:#aecbfa;fill-rule:evenodd" d="m18.08 5.77-1.43 12.46h-3.67l5.1-12.46z"/><path style="fill:#669df6;fill-rule:evenodd" d="m7.38 14.65-1.47 3.57H4.82l.41-3.57h2.15z"/></svg>