<svg width="24" height="24" xmlns="http://www.w3.org/2000/svg"><path d="M14.711 8.845c.06 0 .112.042.13.1l.007.047v.809c0 .065-.039.12-.094.14l-.043.007h-.549v1.45c0 .041.007.083.02.122l.025.058 3.703 6.82c.103.192.118.421.044.623l-.044.099-1.343 2.52a.675.675 0 0 1-.482.352l-.102.008H8.017a.658.658 0 0 1-.526-.27l-.058-.09-1.343-2.52a.767.767 0 0 1-.044-.623l.044-.099 3.693-6.82a.489.489 0 0 0 .047-.118l.008-.063V9.948h-.55a.139.139 0 0 1-.13-.1L9.153 9.8v-.809c0-.065.039-.12.093-.14l.044-.007h5.422Zm-1.579 1.103h-2.265v1.674a.767.767 0 0 1-.05.276l-.04.085-3.54 6.608a.383.383 0 0 0-.029.291l.03.07.915 1.698a.34.34 0 0 0 .22.172l.071.008h1.128l-.997-1.85a.384.384 0 0 1-.029-.292l.03-.07.868-1.611 6.469-.001-.514-.959h-2.394l-.389-.722 2.396-.001-.72-1.345h-2.417l-.39-.722 2.419-.001-.681-1.273a.757.757 0 0 1-.085-.267l-.006-.094V9.948Zm3.215 7.867h-2.39l.388.736 2.396-.001-.394-.735ZM10.631 5.773c.372 0 .673.323.673.721 0 .399-.301.722-.673.722-.372 0-.674-.323-.674-.722 0-.398.302-.721.674-.721Zm2.54-1.548c.559 0 1.01.484 1.01 1.082 0 .598-.451 1.082-1.01 1.082-.557 0-1.01-.484-1.01-1.082 0-.598.453-1.082 1.01-1.082ZM11.642 2c.372 0 .673.323.673.722 0 .398-.301.721-.673.721-.372 0-.674-.323-.674-.721 0-.399.302-.722.674-.722Z" fill="#4285F4" fill-rule="evenodd"/></svg>