<svg height="24" width="24" xmlns="http://www.w3.org/2000/svg"><path d="M11.04 1c5.544 0 10.039 4.496 10.039 10.042l-.009.409 1.93.913v3.545c0 3.28-2.133 6.346-5 7.091-1.405-.365-2.635-1.288-3.522-2.52a9.986 9.986 0 0 1-3.439.605C5.495 21.085 1 16.589 1 11.042 1 5.496 5.495 1 11.04 1zm2.038 16-4.352.002c.092.269.192.525.297.769.345.798.74 1.415 1.144 1.81.33.323.626.465.89.468l.025-.001.085-.005c.24-.032.505-.176.797-.462.404-.395.799-1.012 1.144-1.81l.077-.188a7.838 7.838 0 0 1-.107-.582zm-5.517 0-3.288.001a9 9 0 0 0 4.654 2.803c-.537-.7-1.002-1.659-1.366-2.804zM19 13h-2v1.999h-1.987l-.012.064L15 17l2-.001V19h2v-2.001L21 17v-2l-2-.001zM6.738 12H2.071a8.955 8.955 0 0 0 1.436 4.001H7.28a20.462 20.462 0 0 1-.543-4zm7.03 0-5.917.001c.062 1.44.26 2.804.573 4L13.001 16 13 15.91v-3.546zM7.083 7H2.976a8.97 8.97 0 0 0-.955 4h4.697l.003-.276c.018-1.322.145-2.58.362-3.724zm6.834 0H8.214a20.768 20.768 0 0 0-.383 4h6.468l-.004-.411a20.522 20.522 0 0 0-.378-3.59zm5.157 0h-4.077c.232 1.225.362 2.578.364 4h.523L18 10l2.027.958-.001-.181A8.964 8.964 0 0 0 19.074 7zM8.927 2.28l-.214.055A9.019 9.019 0 0 0 3.563 6h3.74c.388-1.552.95-2.84 1.624-3.72zm2.131-.245c-.259 0-.558.142-.891.468-.404.395-.799 1.013-1.144 1.81-.22.51-.413 1.076-.577 1.687h5.239a12.233 12.233 0 0 0-.577-1.686c-.345-.798-.74-1.416-1.144-1.81-.33-.323-.625-.465-.888-.469h-.018zm2.102.255.024.031c.66.879 1.211 2.151 1.594 3.68h3.71A9.016 9.016 0 0 0 13.16 2.29z" fill="#4285f4"/></svg>