<svg xmlns="http://www.w3.org/2000/svg" width="24" height="24"><defs><style>.cls-2{fill:#669df6}.cls-3{fill:#aecbfa}</style></defs><g data-name="Product Icons"><path d="M16.49 12 12 16.49 7.51 12 12 7.51ZM12 14.91 14.91 12 12 9.09 9.09 12Z" style="fill:#4285f4"/><path class="cls-2" d="M16.33 15.02h2.65L22 12h-2.65l-3.02 3.02z"/><path class="cls-3" d="M16.33 8.98 19.35 12H22l-3.02-3.02h-2.65zM7.67 8.98H5.02L2 12h2.65l3.02-3.02z"/><path class="cls-2" d="m2 12 3.02 3.02h2.65L4.65 12H2z"/><path class="cls-3" d="M8.98 5.02v2.65L12 4.65V2L8.98 5.02z"/><path class="cls-2" d="M12 2v2.65l3.02 3.02V5.02L12 2z"/><path class="cls-3" d="M8.98 16.33v2.65L12 22v-2.65l-3.02-3.02z"/><path class="cls-2" d="M12 19.35V22l3.02-3.02v-2.65L12 19.35z"/></g></svg>