<svg xmlns="http://www.w3.org/2000/svg" width="24" height="24"><defs><style>.cls-1{fill:#669df6}</style></defs><g data-name="Product Icons"><g data-name="colored-32/profiler"><path class="cls-1" d="M8 2h8v2H8zM16.54 7.43l-.13.13L18 9.16l.12-.16a8 8 0 0 0-1.58-1.57ZM20.61 6.55l-1.6-1.6-2.41 2.41 2.51.69 1.5-1.5z"/><path d="m16.6 7.36-.06.07A8 8 0 0 1 18.12 9l1-1Z" style="fill:#4285f4"/><circle id="Oval" class="cls-1" cx="12" cy="14" r="4"/><path id="Oval-2" data-name="Oval" d="M12 18a4 4 0 1 0 0-8v4l-3.27 2.32A4 4 0 0 0 12 18Z" style="fill:#aecbfa"/><path class="cls-1" d="M12 22a8 8 0 1 1 8-8 8 8 0 0 1-8 8Zm0-2a6 6 0 1 0-6-6 6 6 0 0 0 6 6Z"/></g></g></svg>