<svg width="24" height="24" xmlns="http://www.w3.org/2000/svg"><path d="M13.172 3c.2 0 .385.124.44.3l.016.078.266 1.742c.82.314 1.57.765 2.219 1.324l1.852-.708a.51.51 0 0 1 .541.13l.049.068 1.902 3.114c.1.173.068.374-.056.518l-.058.058-1.772 1.313a7.13 7.13 0 0 1-.025 2.064l-2.132-1.193v-.02C16.3 9.12 14.046 7 11.27 7c-2.849 0-5.149 2.233-5.149 5s2.3 5 5.149 5c.814 0 1.583-.182 2.267-.507l2.065 1.235a7.538 7.538 0 0 1-1.651.9l-.304 1.994a.476.476 0 0 1-.39.37l-.085.008H9.368a.472.472 0 0 1-.454-.3l-.022-.078-.289-1.9a7.536 7.536 0 0 1-2.155-1.18l-1.892.722a.51.51 0 0 1-.541-.13l-.049-.068-1.902-3.114a.443.443 0 0 1 .056-.518l.058-.058 1.605-1.19a7.107 7.107 0 0 1-.035-2.399l-1.57-1.163a.426.426 0 0 1-.15-.5l.036-.076 1.902-3.114a.513.513 0 0 1 .51-.218l.08.02 1.699.648a7.533 7.533 0 0 1 2.385-1.35l.252-1.656a.476.476 0 0 1 .392-.37L9.368 3h3.804ZM8.86 9.002c1.257-.94 3.066-1.107 4.507-.232 1.369.83 2.026 2.3 1.81 3.725l6.556 3.978c.275.118.37.516.13.809l-1.035 1.609a.59.59 0 0 1-.819.183l-6.556-3.978c-1.224.814-2.872.884-4.24.053-1.442-.874-2.14-2.514-1.762-4.035l3.157 1.866 1.35-2.099Z" fill="#4285F4" fill-rule="nonzero"/></svg>