<svg height="24" width="24" xmlns="http://www.w3.org/2000/svg"><g fill="#4285f4" fill-rule="evenodd"><path d="M7.773 4.4v3.995h.004l-.004.003v5.24l3.088 1.79-3.408 2.02-2.308-1.34a1.318 1.318 0 0 1-.66-1.139V7.066c0-.469.252-.902.66-1.14zM16.126 9.732l3.36 2.01v3.252c0 .47-.25.905-.657 1.144l-6.844 4.009-.02-.012.014.012-2.952 1.744a.334.334 0 0 1-.503-.284l-.007-3.43 3.533-2.113-.01-.017 4.086-2.388zM12.666 2.246l6.206 3.612c.41.238.66.673.66 1.143v3.339l-3.476-2.066-.004.006-4.11-2.387-3.05 1.77V3.65l2.414-1.404c.42-.245.94-.245 1.36 0z"/></g></svg>