<svg height="24" width="24" xmlns="http://www.w3.org/2000/svg"><g fill="none"><path d="m12.65 2.154 6.253 3.66c.424.232.69.674.695 1.156v8.033a1.341 1.341 0 0 1-.695 1.155L8.94 21.984a.341.341 0 0 1-.514-.284v-3.535l-3.419-2.007a1.341 1.341 0 0 1-.695-1.155V6.97c.006-.482.271-.924.695-1.156l6.254-3.66c.43-.247.96-.247 1.39 0z" fill="#aecbfa"/><path d="M8.192 9.48a.382.382 0 0 0-.382.37v3.945l.001.04a.73.73 0 0 0 .353.584l.014.008 1.924 1.098v1.54l.001.03a.382.382 0 0 0 .559.309l.014-.008 5.103-2.955.036-.021a.73.73 0 0 0 .332-.594V9.862a.382.382 0 0 0-.56-.337l-.012.006-3.394 1.949-.029.016a.382.382 0 0 1-.362-.01l-.013-.006-3.395-1.95a.382.382 0 0 0-.19-.05z" fill="#669df6"/><path d="M12.245 5.063a.478.478 0 0 0-.459-.009l-.013.008L8.03 7.175a.382.382 0 0 0-.013.657l.01.007 3.742 2.15c.144.082.32.084.465.006l.014-.008 3.684-2.15a.382.382 0 0 0 .008-.655l-.01-.006z" fill="#185abc"/></g></svg>