<svg xmlns="http://www.w3.org/2000/svg" width="24" height="24"><g data-name="Product Icons"><path d="M7.78 16.6v-3.75c0-.15-.29-.34-.49-.43a5.46 5.46 0 1 1 7.44-6.83A5.4 5.4 0 0 1 12 12.38a.82.82 0 0 0-.54.9V22H7.78v-1.75H4.17V16.6Zm3.64-9.11a1.82 1.82 0 1 0-3.64-.06 1.83 1.83 0 0 0 1.8 1.85 1.84 1.84 0 0 0 1.83-1.79Z" style="fill:#4285f4"/><path d="M19.52 5.59a5.44 5.44 0 0 0-6.32-3.44 5.44 5.44 0 0 1 1.13 10.23.84.84 0 0 0-.55.9V22h2.43v-8.71a.83.83 0 0 1 .55-.9 5.4 5.4 0 0 0 2.76-6.8Z" style="fill:#669df6"/></g></svg>