<svg xmlns="http://www.w3.org/2000/svg" width="24" height="24"><defs><style>.cls-1{fill:#669df6}.cls-2{fill:#4285f4}.cls-3{fill:#aecbfa}</style></defs><g data-name="Product Icons"><g data-name="colored-32/functions"><path class="cls-1" d="M2 15.56 5 18V6L2 8.43v7.13z"/><path class="cls-2" d="m2 10 3-2V6l-3 4zM5 18v-2l-3-2 3 4z"/><path class="cls-3" d="m8 20-6-6v4l4 4 2-2z"/></g><path class="cls-3" d="M5.99 2.01 2 6l.01 4 5.98-5.99-2-2z"/><g data-name="colored-32/functions"><g data-name="Shape"><path class="cls-1" d="m22 8.45-3-2.44v12l3-2.42V8.45z"/><path class="cls-2" d="m22 14.01-3 2v2l3-4zM19 6.01v2l3 2-3-4z"/><path class="cls-3" d="m16 4.01 6 6v-4l-4-4-2 2z"/></g></g><path class="cls-3" d="M18.01 22 22 18.01l-.01-4L16.01 20l2 2z"/><circle id="Oval" class="cls-3" cx="8" cy="12" r="1"/><circle id="Oval-2" data-name="Oval" class="cls-3" cx="12" cy="12" r="1"/><circle id="Oval-3" data-name="Oval" class="cls-3" cx="15.99" cy="12" r="1"/></g></svg>