<svg xmlns="http://www.w3.org/2000/svg" width="24" height="24"><g data-name="Product Icons"><path d="M17.49 12.4v6.7a.4.4 0 0 1-.4.4H4.9a.4.4 0 0 1-.4-.4V6.9a.4.4 0 0 1 .4-.4h6.7a.4.4 0 0 0 .4-.4V4.4a.4.4 0 0 0-.4-.4H2.4a.4.4 0 0 0-.4.4v17.2a.4.4 0 0 0 .4.4h17.2a.4.4 0 0 0 .4-.4v-9.2a.4.4 0 0 0-.4-.4h-1.71a.4.4 0 0 0-.4.4Z" style="fill:#669df6"/><path d="M14 2.4v7.2a.4.4 0 0 0 .4.4h7.2a.4.4 0 0 0 .4-.4V2.4a.4.4 0 0 0-.4-.4h-7.2a.4.4 0 0 0-.4.4Zm5.6 4.1h-1.71a.4.4 0 0 1-.4-.4V4.4a.4.4 0 0 1 .4-.4h1.71a.4.4 0 0 1 .4.4v1.7a.4.4 0 0 1-.4.4Z" style="fill:#4285f4"/></g></svg>