<svg id="Artwork" xmlns="http://www.w3.org/2000/svg" width="24" height="24"><defs><style>.cls-2{fill:#aecbfa}.cls-3{fill:#669df6}</style></defs><path d="M7.63 18.47V9.29h1.86v9.18Zm-3.75 0V9.29h1.81v9.18Zm7.55 0V9.29h1.8v9.18Zm5.47-9.18v4.27l-1.73.8V9.29Z" style="fill:#4285f4"/><path class="cls-2" d="m17.18 17.56-.44.44L18 19.29l.59-.61.19-.19v3l-.19.28h-.06a3.81 3.81 0 0 1-1-.45 4.7 4.7 0 0 1-2.06-3.5v-2.63l3.17-1.45.19.37v3.49l-.19.19-.64.61Z"/><path class="cls-3" d="M18.58 13.74v4l.19-.19 1.29-1.33.43.44-1.72 1.78-.19.19v3.06h.06a3.75 3.75 0 0 0 1-.45 4.67 4.67 0 0 0 2.06-3.5v-2.55ZM15 19.5h-4.61v-1.63h4.17v.06A5.34 5.34 0 0 0 15 19.5Z"/><path class="cls-2" d="M9.27 6.52a1.12 1.12 0 0 0 1.12 1.12v2H2.25V8l8.14-5.71v3.1a1.13 1.13 0 0 0-1.12 1.13Z"/><path class="cls-3" d="M18.53 8v1.59h-8.14V7.64a1.13 1.13 0 0 0 0-2.25V2.25Z"/><path class="cls-2" d="M10.39 17.86v1.64H2.25v-1.62l8.14-.02z"/></svg>