<svg width="24" height="24" xmlns="http://www.w3.org/2000/svg"><path d="M10.19 2c.183 0 .336.131.372.304l.008.077v1.951h2.049v-1.95c0-.184.13-.338.304-.374L12.999 2h.622c.184 0 .337.131.373.305l.008.076v1.951h2.049v-1.95c0-.184.13-.337.303-.373L16.431 2h.622c.183 0 .336.13.372.304l.009.076v1.951h1.82c.208.001.38.151.417.35l.008.076v1.817h1.94c.184 0 .337.131.373.305l.008.077v.622a.383.383 0 0 1-.304.374l-.077.007h-1.94v2.053h1.94c.184 0 .337.131.373.305l.008.077v.622a.382.382 0 0 1-.304.373l-.077.008h-1.94v2.053h1.94c.184 0 .337.131.373.305l.008.077v.622a.382.382 0 0 1-.304.373l-.077.008h-1.94v1.818c-.001.208-.151.382-.35.418l-.075.007h-1.82v1.95c-.001.185-.132.339-.305.375l-.077.008h-.62a.382.382 0 0 1-.374-.306l-.007-.076v-1.95H14v1.95c0 .184-.13.337-.304.373l-.076.009H13a.382.382 0 0 1-.373-.306l-.008-.076v-1.95l-1.013-.001.002.05c0 2.618-2.036 4.753-4.59 4.866L6.804 22C4.15 22 2 19.82 2 17.13s2.15-4.872 4.804-4.872l.139.002-.001-.862h-1.94a.382.382 0 0 1-.373-.304l-.007-.077v-.623c0-.184.13-.337.303-.373l.077-.008h1.94V7.96h-1.94a.382.382 0 0 1-.373-.304l-.007-.077-.001-.623c0-.184.13-.337.304-.373L5 6.575h1.94V4.758c.001-.209.152-.382.35-.418l.076-.008h1.82v-1.95c0-.184.13-.338.304-.374L9.568 2h.621ZM6.73 14.49l-.728.739 1.543 1.565H4.07v1.044h3.475l-1.543 1.564.727.738 2.787-2.824L6.73 14.49Zm11.517-8.73H8.374v6.765a4.852 4.852 0 0 1 3.008 3.126h6.864v-9.89Zm-2.942 2.523c.208 0 .38.15.417.349l.007.076v3.996c0 .208-.15.382-.349.418l-.076.008h-3.988a.427.427 0 0 1-.418-.35l-.007-.076V8.708c0-.208.15-.382.348-.418l.077-.007h3.989Z" fill="#4285F4" fill-rule="evenodd"/></svg>