<svg xmlns="http://www.w3.org/2000/svg" width="24" height="24"><defs><style>.cls-2{fill:#669df6}</style></defs><g data-name="Product Icons"><path d="M11.85 7a5.1 5.1 0 1 0 5.1 5.1 5.1 5.1 0 0 0-5.1-5.1Zm0 9.08a4 4 0 1 1 4-4 4 4 0 0 1-4 4.01Z" style="fill:#4285f4"/><path class="cls-2" d="M13.77 12.71a2.09 2.09 0 0 0-.28-.22 3.11 3.11 0 0 0-2.61-.28 2.31 2.31 0 0 0-.89.47.86.86 0 0 0-.37.65v1h4.47v-.82a1 1 0 0 0-.32-.8ZM11.85 11.53a1.16 1.16 0 1 0-1.17-1.15 1.17 1.17 0 0 0 1.17 1.15Z"/><path style="fill:#aecbfa" d="M20.78 10.72h-1.04l.77.77H18.3v.9h2.21l-.77.78h1.04L22 11.94l-1.22-1.22z"/><path class="cls-2" d="m17.54 8.5.64.64.98-.97v1.09l.73-.74V6.79h-1.73l-.73.74h1.09l-.98.97zM19.16 15.83l-.98-.97-.64.63.98.98h-1.09l.73.73h1.73v-1.73l-.73-.73v1.09zM3.35 10.65A1.35 1.35 0 1 0 4.71 12a1.35 1.35 0 0 0-1.36-1.35Zm0 2.1a.76.76 0 1 1 .76-.75.76.76 0 0 1-.76.75Z"/></g></svg>