<svg width="24" height="24" xmlns="http://www.w3.org/2000/svg"><path d="M20.884 10.544c.094.605.12 1.216.08 1.826-.232 3.507-2.642 6.63-6.158 7.841a9.393 9.393 0 0 1-3.043.515l-.203 1.165a.1.1 0 0 1-.045.09.111.111 0 0 1-.104.01l-1.6-1.473-.167-.036.025-.095-.88-.809a.104.104 0 0 1-.035-.096.102.102 0 0 1 .066-.078l3.212-1.43a.122.122 0 0 1 .158-.006.113.113 0 0 1 .027.15l-.201 1.161a7.84 7.84 0 0 0 2.323-.426c2.93-1.009 4.938-3.612 5.132-6.535a6.888 6.888 0 0 0-.027-1.217l-.04-.302 1.48-.255Zm-16.722 4.81c.968-.749 2.388-.606 3.172.318.784.925.635 2.282-.333 3.03-.969.75-2.389.607-3.173-.318-.784-.924-.634-2.281.334-3.03Zm9.663-4.618c.7.963.45 2.337-.558 3.07-1.008.731-2.392.544-3.091-.418-.7-.963-.45-2.337.558-3.07 1.008-.731 2.392-.544 3.091.418ZM12.701 2.01l2.621 2.413c.028.024.042.06.036.096a.102.102 0 0 1-.066.078l-3.212 1.43a.122.122 0 0 1-.158.006.113.113 0 0 1-.027-.15l.18-1.04a7.835 7.835 0 0 0-2.413.43c-3.406 1.172-5.514 4.475-5.095 7.84l.028.198-1.48.251c-.636-4.121 1.912-8.213 6.08-9.648a9.388 9.388 0 0 1 3.131-.515l.226-1.29a.1.1 0 0 1 .045-.09c.03-.02.07-.024.104-.01Zm-1.545 8.89c-.672.489-.839 1.405-.372 2.047.466.642 1.389.766 2.06.278.672-.488.84-1.404.373-2.046-.467-.642-1.39-.766-2.061-.278Zm5.793-5.18c.94-.781 2.365-.686 3.182.212a2.088 2.088 0 0 1-.222 3.04c-.94.78-2.365.685-3.182-.213a2.088 2.088 0 0 1 .222-3.04Z" fill="#4285F4" fill-rule="nonzero"/></svg>