<svg xmlns="http://www.w3.org/2000/svg" width="24" height="24"><defs><style>.cls-1{fill:#669df6}</style></defs><g data-name="Product Icons"><path class="cls-1" d="M2.01 6.99h6.64v1.67H2.01zM11.17 15.32H2v1.67h9.17v-1.67zM4.51 11.16H2v1.66h10l-1.67-1.66H4.51z"/><path d="M12 9.07a.42.42 0 0 1 .42-.36.41.41 0 0 1 .41.36v9.18a2.09 2.09 0 0 0 2.61 2A2.16 2.16 0 0 0 17 18.14V5.75a.4.4 0 0 1 .19-.4.41.41 0 0 1 .45 0 .4.4 0 0 1 .19.4v9.16a2.07 2.07 0 0 0 .81 1.64 2 2 0 0 0 1.8.37A2.16 2.16 0 0 0 22 14.8V12h-1.67v2.92a.4.4 0 0 1-.19.4.41.41 0 0 1-.45 0 .4.4 0 0 1-.19-.4V5.75a2.09 2.09 0 0 0-2.61-2 2.16 2.16 0 0 0-1.56 2.13v12.37a.4.4 0 0 1-.19.4.41.41 0 0 1-.45 0 .4.4 0 0 1-.19-.4V9.08a2.07 2.07 0 0 0-4.11-.36 2.4 2.4 0 0 0-.05.46v2L12 12.82V9.07Z" style="fill:#4285f4"/></g></svg>