<svg width="24" height="24" xmlns="http://www.w3.org/2000/svg"><path d="M12 19.819c.6 0 1.086.488 1.086 1.09C13.086 21.512 12.6 22 12 22c-.6 0-1.086-.488-1.086-1.09 0-.603.486-1.091 1.086-1.091Zm1.339-14.362c.16 0 .307.118.32.275l.255 1.727a4.6 4.6 0 0 1 1.136.641l1.658-.654c.16-.052.334 0 .415.144l1.337 2.264c.08.144.04.314-.08.419l-1.418 1.086c.04.21.054.419.054.641 0 .222-.027.432-.054.641l1.43 1.086c.121.105.161.275.081.42l-1.337 2.263a.354.354 0 0 1-.414.144L15.05 15.9a4.968 4.968 0 0 1-1.123.641l-.254 1.727a.341.341 0 0 1-.334.275h-2.674a.33.33 0 0 1-.335-.275l-.254-1.727A4.6 4.6 0 0 1 8.94 15.9l-1.658.654c-.16.052-.334 0-.415-.144L5.53 14.146a.335.335 0 0 1 .08-.419l1.418-1.086a5.007 5.007 0 0 1 0-1.282L5.61 10.273a.32.32 0 0 1-.08-.42L6.867 7.59a.354.354 0 0 1 .415-.144L8.94 8.1a5.372 5.372 0 0 1 1.136-.641l.254-1.727a.341.341 0 0 1 .335-.275Zm-9.78 9.995a1.083 1.083 0 0 1 1.477.425c.29.527.1 1.19-.424 1.483a1.083 1.083 0 0 1-1.476-.425 1.093 1.093 0 0 1 .424-1.483Zm15.405.425c.291-.527.952-.717 1.476-.425.525.292.714.956.424 1.483-.291.526-.952.717-1.476.425a1.093 1.093 0 0 1-.424-1.483Zm-6.962-5.84c-1.11 0-2.006.877-2.006 1.963s.896 1.963 2.006 1.963c1.11 0 2.005-.877 2.005-1.963s-.896-1.963-2.005-1.963Zm7.386-3.397a1.083 1.083 0 0 1 1.476.425c.29.527.1 1.191-.424 1.483a1.083 1.083 0 0 1-1.476-.425 1.093 1.093 0 0 1 .424-1.483Zm-16.252.425c.291-.526.952-.717 1.476-.425.525.292.714.956.424 1.483-.291.527-.952.717-1.476.425a1.093 1.093 0 0 1-.424-1.483ZM12 2c.6 0 1.086.488 1.086 1.09 0 .603-.486 1.091-1.086 1.091-.6 0-1.086-.488-1.086-1.09C10.914 2.488 11.4 2 12 2Z" fill="#4285F4" fill-rule="nonzero"/></svg>