<svg xmlns="http://www.w3.org/2000/svg" width="24" height="24"><defs><style>.cls-1{fill:#4285f4}.cls-2{fill:#aecbfa}</style></defs><g data-name="Product Icons"><path class="cls-1" d="m2.81 9.37 2.38-4.24h3.06V7H6.26L4.94 9.34l.81 1.36-1.59.93-1.35-2.26z"/><path class="cls-2" d="m14.5 13.07 2.5-1.44 2.5 1.44v2.89L17 17.4l-2.5-1.44v-2.89zM4.5 13.07 7 11.63l2.5 1.44v2.89L7 17.4l-2.5-1.44v-2.89zM9.5 4.59 12 3.15l2.5 1.44v2.88L12 8.92 9.5 7.47V4.59z"/><path class="cls-1" d="m17 11.63 2.5 1.44v2.89L17 17.4v-5.77zM7 11.63l2.5 1.44v2.89L7 17.4v-5.77zM12 3.15l2.5 1.44v2.88L12 8.92V3.15zM18.25 10.7l.81-1.35L17.74 7h-1.99V5.13h3.06l2.38 4.24-1.35 2.26-1.59-.93zM9.61 20.75l-1.48-2.46 1.6-.93.93 1.52h2.65l.94-1.52 1.6.92-1.49 2.47H9.61z"/></g></svg>