<svg xmlns="http://www.w3.org/2000/svg" width="24" height="24"><defs><style>.cls-1,.cls-3{fill:#669df6;fill-rule:evenodd}.cls-3{fill:#4285f4}</style></defs><g data-name="Product Icons"><path class="cls-1" d="M10.48 11a.91.91 0 1 1-.91.91.91.91 0 0 1 .91-.91Zm0-.8a1.71 1.71 0 1 0 1.7 1.71 1.7 1.7 0 0 0-1.7-1.71ZM4.57 11a.91.91 0 1 1-.91.91.91.91 0 0 1 .91-.91Zm0-.8a1.71 1.71 0 1 0 1.7 1.71 1.7 1.7 0 0 0-1.7-1.71ZM7.61 16.31a.91.91 0 0 1 0 1.82.91.91 0 1 1 0-1.82Zm0-.79a1.71 1.71 0 1 0 1.2.5 1.7 1.7 0 0 0-1.2-.5ZM7.61 5.79a.91.91 0 1 1-.94.91.92.92 0 0 1 .94-.91Zm0-.8a1.71 1.71 0 1 0 1.2.5A1.7 1.7 0 0 0 7.61 5Z"/><path style="fill:#4285f4" d="M10.66 2h1.68v20h-1.68z"/><path class="cls-3" d="M16.25 4.87h-4.51a.37.37 0 0 0-.3.4v2.82a.36.36 0 0 0 .3.39h4.51a.36.36 0 0 0 .31-.39V5.28a.37.37 0 0 0-.31-.41ZM20.57 10.16h-8.32c-.31 0-.56.18-.56.39v2.82c0 .22.25.4.56.4h8.32c.31 0 .56-.19.56-.4v-2.82c0-.22-.25-.39-.56-.39ZM14.66 15.44h-3.53c-.13 0-.23.18-.23.39v2.82c0 .22.1.39.23.39h3.53c.13 0 .24-.18.24-.39v-2.82c-.01-.22-.11-.39-.24-.39Z"/></g></svg>