<svg width="24" height="24" xmlns="http://www.w3.org/2000/svg"><path d="m12.472 3 8.89 15.33.638 1.102H10.412A4.405 4.405 0 0 1 6.403 22C3.971 22 2 20.037 2 17.615c0-2.421 1.971-4.384 4.403-4.384.046 0 .09 0 .136.002L12.472 3ZM6.335 15.24l-.667.664 1.41 1.406h-3.18v.943h3.185l-1.415 1.408.667.665 2.555-2.542-2.555-2.544Zm6.137.608-1.776.787a4.38 4.38 0 0 1 .097 1.329l6.455-.001-4.776-2.115Zm0-4.383-3.009 2.998c.254.243.477.517.666.815l2.343-1.037 5.017 2.221-5.017-4.997Zm0-5.529-4.415 7.615c.055.022.11.045.164.07l4.251-4.24 4.733 4.719-4.733-8.164Z" fill="#4285F4" fill-rule="nonzero"/></svg>