<svg xmlns="http://www.w3.org/2000/svg" width="24" height="24"><path d="M6 7.85v3.78a6.3 6.3 0 0 0 0 .75A7.58 7.58 0 0 0 8.4 17a7.34 7.34 0 0 0 3.43 1.86H12v-3.74a3.12 3.12 0 0 1 0-6.24V5.06ZM20.22 11.22a.78.78 0 0 1 0 1.56.78.78 0 0 1 0-1.56m0-.75A1.53 1.53 0 1 0 21.75 12a1.53 1.53 0 0 0-1.53-1.53Z" style="fill:#aecbfa"/><path d="M12 5.06v3.82a3.12 3.12 0 0 1 0 6.24v3.76h.17A7.34 7.34 0 0 0 15.6 17a7.58 7.58 0 0 0 2.34-4.6 6.3 6.3 0 0 0 0-.75v-3.8ZM20.22 4.71a.78.78 0 1 1 0 1.56.78.78 0 0 1 0-1.56m0-.75a1.53 1.53 0 1 0 1.53 1.53A1.52 1.52 0 0 0 20.22 4ZM3.78 17.73a.78.78 0 0 1 0 1.56.78.78 0 1 1 0-1.56m0-.75a1.53 1.53 0 1 0 1.52 1.53A1.53 1.53 0 0 0 3.78 17Z" style="fill:#4285f4"/><path d="M3.78 11.22a.78.78 0 0 1 0 1.56.78.78 0 0 1 0-1.56m0-.75A1.53 1.53 0 1 0 5.3 12a1.53 1.53 0 0 0-1.52-1.53Z" style="fill:#aecbfa"/><path d="M18.75 11.63H18a6.3 6.3 0 0 1 0 .75h.81a1.65 1.65 0 0 1-.11-.38 1.5 1.5 0 0 1 .05-.37ZM5.25 12.38h.81a6.3 6.3 0 0 1 0-.75h-.81a1.5 1.5 0 0 1 0 .37 1.65 1.65 0 0 1 0 .38ZM6.87 5.11H5.25a1.58 1.58 0 0 1 0 .38 1.5 1.5 0 0 1 0 .37h1.4l1.5 1L9 6.48ZM18.75 5.11h-1.62l-2.08 1.37.8.38 1.5-1h1.4a1.5 1.5 0 0 1-.05-.37 1.58 1.58 0 0 1 .05-.38ZM9 17.49a7.19 7.19 0 0 1-.6-.49l-1.75 1.14h-1.4a1.5 1.5 0 0 1 0 .37 1.58 1.58 0 0 1 0 .38h1.62ZM18.75 18.14h-1.4L15.6 17a7.19 7.19 0 0 1-.59.51l2.12 1.4h1.62a1.58 1.58 0 0 1-.05-.38 1.5 1.5 0 0 1 .05-.39ZM12 10.38A1.62 1.62 0 1 0 13.62 12 1.63 1.63 0 0 0 12 10.38Z" style="fill:#669df6"/><path d="M20.22 17.73a.78.78 0 1 1 0 1.56.78.78 0 0 1 0-1.56m0-.75a1.53 1.53 0 1 0 1.53 1.53A1.53 1.53 0 0 0 20.22 17ZM3.78 4.71a.78.78 0 0 1 0 1.56.78.78 0 0 1 0-1.56m0-.75A1.53 1.53 0 1 0 5.3 5.49 1.52 1.52 0 0 0 3.78 4Z" style="fill:#669df6"/></svg>