<svg xmlns="http://www.w3.org/2000/svg" width="24" height="24"><defs><style>.cls-1{fill:#669df6}.cls-3{fill:#aecbfa}</style></defs><g data-name="Product Icons"><path id="Fill-1" class="cls-1" d="M11 2v20l10-8L11 2z"/><path id="Fill-2" style="fill:#4285f4" d="m11 2-.98 1.17 8.85 10.61-8.8 7.05.94 1.17L21 13.99 11 2z"/><path id="Fill-3" class="cls-1" d="M11 2 7 6.75a3.11 3.11 0 0 1 1.11 1L11 4.34V2Z"/><path id="Fill-5" class="cls-1" d="M8.35 18a2.93 2.93 0 0 1-.92 1.19L11 22v-1.92Z"/><path id="Fill-7" class="cls-3" d="M6 10a1 1 0 1 1 1-1 1 1 0 0 1-1 1m0-4a3 3 0 1 0 3 3 3 3 0 0 0-3-3"/><path id="Fill-7-2" data-name="Fill-7" class="cls-3" d="M6 18a1 1 0 1 1 1-1 1 1 0 0 1-1 1m0-4a3 3 0 1 0 3 3 3 3 0 0 0-3-3"/></g></svg>