<svg baseProfile="tiny" xmlns="http://www.w3.org/2000/svg" width="24" height="24" overflow="visible" xml:space="preserve"><g fill-rule="evenodd"><path fill="#5C85DE" d="M6.8 6.8C3.9 6.8 3.6 3 6.8 3c2.3 0 3.3.7 5.2 1.5 2.1-.8 2.9-1.5 5.2-1.5 3.2 0 2.9 3.8 0 3.8H6.8z"/><path fill="#3367D6" d="M6.8 6.8h10.4c.8 0 1.5-.4 1.8-.8l-7 .8L5 6c.3.4 1 .8 1.8.8z"/><path fill="#85A4E6" d="M20.2 12.8h-7.4V21h6c.8 0 1.5-.7 1.5-1.5v-6.7h-.1zM3.8 12.8h7.5V21h-6c-.8 0-1.5-.7-1.5-1.5v-6.7zM11.2 12V6.8H3.8c-.8 0-1.5.7-1.5 1.5V12h8.9zM21.8 12h-9V6.8h7.5c.8 0 1.5.7 1.5 1.5V12z"/><path fill="#3367D6" d="M3.8 12h7.5v1.5H3.8zM12.8 12h7.5v1.5h-7.5z"/><path fill="#3367D6" d="M13.5 6.8h.8V21h-.8z"/><path fill="#5C85DE" d="M10.5 6.8h3V21h-3z"/></g></svg>