<svg height="24" width="24" xmlns="http://www.w3.org/2000/svg"><path d="M6.344 13.507a4.28 4.28 0 0 1 4.282 4.278 4.28 4.28 0 0 1-4.282 4.277 4.28 4.28 0 0 1-4.282-4.277 4.28 4.28 0 0 1 4.282-4.278zm-.034 1.866-.651.654 1.378 1.385-3.107-.001v.928h3.11l-1.381 1.386.65.654 2.495-2.503zm15.752-13.31v12.523h-4.319V18.9h-6.277a5.243 5.243 0 0 0 .083-1.83h4.363v-4.314h4.319V3.892h-8.873v4.315h-4.32v4.359a5.29 5.29 0 0 0-1.83.083V6.378h4.319V2.063zm-3.615 3.611v5.3h-4.319v4.315h-3.15a5.256 5.256 0 0 0-2.155-2.152V9.989h4.319V5.673z" fill="#4285f4" fill-rule="evenodd"/></svg>