<svg xmlns="http://www.w3.org/2000/svg" width="24" height="24"><defs><style>.cls-1,.cls-2{fill:#669df6;fill-rule:evenodd}.cls-2{fill:#4285f4}</style></defs><g data-name="Product Icons"><path id="Fill-1" class="cls-1" d="M7 2 2 7v10l5 5h5l-2.5-2.86H8.25l-3.39-3.39v-7.5l3.39-3.39H9.5L12 2H7z"/><path id="Fill-2" class="cls-1" d="M14.5 2 12 4.86h3.75l3.39 3.39v7.5l-3.39 3.39H12L14.5 22H17l5-5V7l-5-5h-2.5z"/><path id="Fill-3" class="cls-2" d="m12 17-2.5-2.5L12 12 9.5 9.5 12 7H9.5L7 9.5v5L9.5 17H12z"/><path id="Fill-4" class="cls-2" d="M14.5 7 12 9.5l2.5 2.5-2.5 2.5 2.5 2.5 2.5-2.5v-5L14.5 7z"/></g></svg>