<svg xmlns="http://www.w3.org/2000/svg" width="24" height="24"><defs><style>.cls-1{fill:#4285f4}.cls-1,.cls-2,.cls-4{fill-rule:evenodd}.cls-2{fill:#669df6}.cls-4{fill:#aecbfa}</style></defs><g data-name="Product Icons"><path class="cls-1" d="m14.68 13.06 4.55 2.63v.99l-4.94-2.85.39-.77z"/><path class="cls-2" d="m9.98 13.65-5.21 3.01-.32-.8 5.08-2.94.45.73z"/><path style="fill:#aecbfa" d="M11.55 3.29h.86v5.78h-.86z"/><path class="cls-4" d="M3.25 7v10L12 22l8.74-5V7L12 2Zm15.63 8.89L12 19.78l-6.88-3.89V8.11L12 4.22l6.87 3.89v7.78Z"/><path class="cls-4" d="m11.98 11.5 3.98-2.29-3.98-2.3-3.97 2.3 3.97 2.29z"/><path class="cls-2" d="m11.52 12.3-3.86-2.29v4.59l3.86 2.29V12.3z"/><path class="cls-1" d="M12.48 12.3v4.59l3.86-2.29v-4.59l-3.86 2.29z"/></g></svg>