<svg xmlns="http://www.w3.org/2000/svg" width="24" height="24"><defs><style>.cls-1{fill:#aecbfa}.cls-2{fill:#669df6}.cls-3{fill:#4285f4}.cls-4{fill:#fff}</style></defs><g data-name="Product Icons"><path class="cls-1" d="M2 4h20v7H2z"/><path class="cls-2" d="M20 4h2v7h-2z"/><path class="cls-3" d="M22 4h-2v7l2-7z"/><path class="cls-2" d="M2 4h2v7H2z"/><path class="cls-4" d="M6 7h6v1H6z"/><rect class="cls-4" x="15" y="6" width="3" height="3" rx="1.5"/><path class="cls-1" d="M2 13h20v7H2z"/><path class="cls-2" d="M20 13h2v7h-2z"/><path class="cls-3" d="M22 13h-2v7l2-7z"/><path class="cls-2" d="M2 13h2v7H2z"/><path class="cls-4" d="M6 16h6v1H6z"/><rect class="cls-4" x="15" y="15" width="3" height="3" rx="1.5"/></g></svg>