<svg xmlns="http://www.w3.org/2000/svg" width="24" height="24"><defs><style>.cls-3{fill:#4285f4}.cls-2{fill:#669df6}.cls-2,.cls-3,.cls-4{fill-rule:evenodd}.cls-4{fill:#aecbfa}</style></defs><g data-name="Product Icons"><path style="fill:#4285f4" d="M10 17h4v4h-4z"/><path class="cls-2" d="m19 10.84-4.34-4.33-1.01 1.01L19 12.85v-2.01z"/><path class="cls-3" d="m15.67 9.53-2.02-2.01 1.01-1.01 1.01 1.01v2.01z"/><path class="cls-4" d="m10.94 12.24-1.01-1.01 4.73-4.72 1.01 1.01-4.73 4.72z"/><path class="cls-2" d="M10.94 12.24 8.08 9.39 9.1 8.38l2.85 2.85-1.01 1.01z"/><path class="cls-3" d="m10.08 11.38-2-1.99L9.1 8.38l.98.98v2.02z"/><path class="cls-4" d="m5.44 13.99 4.64-4.63-1.01-1.01L5 12.41v1.58h.44z"/><path class="cls-2" d="M22 4.05a1.24 1.24 0 0 0-1-1H3a1.24 1.24 0 0 0-1 1V17a1.19 1.19 0 0 0 1 1h18a1.19 1.19 0 0 0 1-1V4.05ZM20 16H4V5h16ZM8 22c0-.69.31-1 1-1h6c.69 0 1 .31 1 1Z"/></g></svg>