<svg xmlns="http://www.w3.org/2000/svg" width="24" height="24"><defs><style>.cls-1,.cls-2{fill:#669df6;fill-rule:evenodd}.cls-2{fill:#4285f4}</style></defs><g data-name="Product Icons"><path class="cls-1" d="m3.27 12.39 1.81-2.18a.1.1 0 0 1 .18.07V15a.1.1 0 0 1-.17.07l-.8-.8a3.31 3.31 0 0 0 .28 3.56A3 3 0 0 0 6.64 19a2.92 2.92 0 0 0 2.26-.68 3 3 0 0 0 .69-.84l.12-.2.13.19a7.57 7.57 0 0 0 1.06 1.26l.1.09-.08.11A4.88 4.88 0 0 1 7 21a5.08 5.08 0 0 1-5-5.16 5.26 5.26 0 0 1 1.27-3.45Z"/><path class="cls-2" d="m20.73 12.39-1.81-2.18a.1.1 0 0 0-.18.07V15a.1.1 0 0 0 .17.07l.8-.8a3.31 3.31 0 0 1-.28 3.56A3 3 0 0 1 17.36 19a2.92 2.92 0 0 1-2.26-.68 3 3 0 0 1-.69-.84l-.12-.2-.13.19a7.57 7.57 0 0 1-1.06 1.26l-.1.09.08.11A4.88 4.88 0 0 0 17 21a5.08 5.08 0 0 0 5-5.16 5.26 5.26 0 0 0-1.27-3.45Z"/><path class="cls-1" d="M11 6a1 1 0 0 1 1-1V3a3 3 0 0 0 0 6V7a1 1 0 0 1-1-1"/><path class="cls-2" d="M15 6a3 3 0 0 0-3-3v2a1 1 0 0 1 0 2v2a3 3 0 0 0 3-3"/><path d="M12 17c-1.19 0-3-2.21-3-4.16V10l3-1V7L7 9v3.84C7 15.55 9.43 19 12 19Z" style="fill:#aecbfa;fill-rule:evenodd"/><path class="cls-1" d="M17 12.84V9l-5-2v2l3 1v2.84c0 1.95-1.81 4.16-3 4.16v2c2.57 0 5-3.46 5-6.16"/><path class="cls-2" d="M12.38 14.39a1.07 1.07 0 0 1-1.52 0L9.37 12.9l.76-.76 1.49 1.49 4.27-4.26.76.76Z"/></g></svg>