<svg xmlns="http://www.w3.org/2000/svg" width="24" height="24"><defs><style>.cls-1{fill:#aecbfa}.cls-2{fill:#4285f4}.cls-3{fill:#669df6}</style></defs><g data-name="Product Icons"><g data-name="colored-32/recommendation"><path class="cls-1" d="M12 2h10v10H12Zm4.46 6.76 2.84-2.83-.8-.8-2 2-1-1-.8.8Z"/><path class="cls-2" d="M2 14v8h8v-8Zm6 6H4v-4h4Z"/><path id="Shape-2" data-name="Shape" class="cls-2" d="M12 12h10v-1.97L14 10l-2 2z"/><path id="Shape-3" data-name="Shape" class="cls-3" d="M20 4v6.02L22 12V2l-2 2z"/></g><path class="cls-1" d="m10 22-2-2v-4l2-2v8z"/><path class="cls-3" d="m2 22 2-2h4l2 2H2z"/><g data-name="Group"><path id="Shape-4" data-name="Shape" class="cls-2" d="M2 4v8h8V4Zm6 6H4V6h4Z"/></g><path class="cls-1" d="m10 12-2-2V6l2-2v8z"/><path class="cls-3" d="m2 12 2-2h4l2 2H2z"/><g data-name="Group"><path id="Shape-5" data-name="Shape" class="cls-2" d="M12 14v8h8v-8Zm6 6h-4v-4h4Z"/></g><path class="cls-1" d="m20 22-2-2v-4l2-2v8z"/><path class="cls-3" d="m12 22 2-2h4l2 2h-8z"/></g></svg>