<svg xmlns="http://www.w3.org/2000/svg" width="24" height="24"><defs><style>.cls-1{fill:#669df6}.cls-2{fill:#4285f4}</style></defs><g data-name="Product Icons"><g data-name="Data Studio"><path class="cls-1" d="M19.5 16.17h-7.26a2.53 2.53 0 0 0-2.74 2.5 2.5 2.5 0 0 0 2.74 2.5h7.26Z"/><circle class="cls-2" cx="19.5" cy="18.67" r="2.5"/><path class="cls-1" d="M12 9.5H4.74A2.53 2.53 0 0 0 2 12a2.5 2.5 0 0 0 2.74 2.5H12Z"/><circle class="cls-2" cx="12" cy="12" r="2.5"/><path class="cls-1" d="M19.5 2.83h-7.26a2.54 2.54 0 0 0-2.74 2.5 2.5 2.5 0 0 0 2.74 2.5h7.26Z"/><circle class="cls-2" cx="19.5" cy="5.33" r="2.5"/></g></g></svg>