<svg width="24" height="24" xmlns="http://www.w3.org/2000/svg"><path d="M12.346 2c.71 0 1.31.393 1.8 1.057.4.541.745 1.287 1.03 2.203.563 1.8.88 4.205.88 6.764 0 2.558-.317 4.963-.88 6.763-.285.916-.63 1.662-1.03 2.203-.49.664-1.09 1.057-1.8 1.057-1.623 0-2.627-1.418-3.162-3.838a.7.7 0 0 1-.014-.219h1.63c.22.98.496 1.941.803 2.26.205.212.413.288.743.288a.084.084 0 0 0 .026-.005.378.378 0 0 0 .087-.045c.1-.066.218-.182.341-.35.288-.39.568-.996.81-1.77.517-1.654.816-3.92.816-6.344 0-2.425-.3-4.691-.816-6.345-.242-.774-.522-1.38-.81-1.77a1.448 1.448 0 0 0-.341-.35.378.378 0 0 0-.087-.044.084.084 0 0 0-.026-.006c-.265 0-.5.125-.756.464-.326.432-.61 1.137-.83 2.13H9.099c.265-1.333.645-2.32 1.155-2.995C10.802 2.382 11.522 2 12.346 2Zm.22 12.5v1.51H4.642a.755.755 0 0 1 0-1.51h7.924Zm8.68-1.604a.755.755 0 1 1 0 1.51h-3.744c.062-.491.106-.996.132-1.51h3.611Zm-8.68-1.604v1.51H2.755a.755.755 0 0 1 0-1.51h9.811Zm4.985-1.604h3.694a.755.755 0 0 1 .103 1.503l-.103.007h-3.594a20.563 20.563 0 0 0-.1-1.51Zm-4.985-1.603v1.51H4.642a.755.755 0 0 1-.103-1.503l.103-.007h7.924Z" fill="#4285F4" fill-rule="evenodd"/></svg>