<svg xmlns="http://www.w3.org/2000/svg" width="24" height="24"><path d="M19.51 6.92a10.43 10.43 0 0 1-1 .92A8.09 8.09 0 0 1 8 19.65h1.75a7.51 7.51 0 0 1-.86-1.3H6.31a8.75 8.75 0 0 1-1-1.19h3.06A10.38 10.38 0 0 1 8 15.85H4.59a8 8 0 0 1-.42-1.19h3.57c-.07-.42-.11-.85-.14-1.3H3.94a6.51 6.51 0 0 1 0-.77v-.43h3.63a11.34 11.34 0 0 1 .08-1.3H4.08a8.16 8.16 0 0 1 .36-1.19h3.4a9.52 9.52 0 0 1 .33-1.3H5.1A8 8 0 0 1 6 7.18h2.61a9.2 9.2 0 0 1 .71-1.31H7.5a8.06 8.06 0 0 1 7.74-.69 10.7 10.7 0 0 0 1.29 3.19s2.93-1.67 3.38-3.44a2.42 2.42 0 0 0-4.68-1.23v.07a9.41 9.41 0 1 0 6.17 8.82 8.71 8.71 0 0 0-1.89-5.67ZM16.5 4a1.14 1.14 0 1 1 .81 1.39A1.13 1.13 0 0 1 16.5 4Z" style="fill:#4285f4" data-name="Product Icons"/></svg>