<svg xmlns="http://www.w3.org/2000/svg" width="24" height="24"><defs><style>.cls-1{fill:#4285f4}.cls-2{fill:#aecbfa}</style></defs><g data-name="Product Icons"><g data-name="colored-32/endpoints"><path class="cls-1" d="M15 10H9l-1 2 1 2h6l1-2-1-2z"/><path id="Shape-2" data-name="Shape" class="cls-2" d="m16 12-1-2H9l-1 2h8z"/></g><path class="cls-1" d="M18 6h-3l3.97 6 1.5-2.25L18 6z"/><path class="cls-2" d="m21.95 12-1.48-2.25-1.5 2.25L15 18h3l3.95-6z"/><path class="cls-1" d="M5.95 18h3l-3.97-6-1.5 2.25L5.95 18z"/><path class="cls-2" d="m2 12 1.48 2.25L4.98 12l3.97-6h-3L2 12z"/></g></svg>