<svg xmlns="http://www.w3.org/2000/svg" width="24" height="24"><defs><style>.cls-1{fill:#aecbfa}.cls-2{fill:#4285f4}</style></defs><g data-name="Product Icons"><path class="cls-1" d="M7.01 2h2v3h-2zM11.01 2h2v3h-2zM15.01 2h2v3h-2z"/><path class="cls-2" d="M7.01 19h2v3h-2zM11.01 19h2v3h-2zM15.01 19h2v3h-2zM19 15h3v2h-3zM19 11h3v2h-3zM19 7h3v2h-3z"/><path class="cls-1" d="M2 15h3v2H2zM2 11h3v2H2zM2 7h3v2H2z"/><path d="M11 13H9V7H7v8h4v3h2v-3h4V7h-2v6h-2V6h-2Zm-7 7V4h16v16Z" style="fill:#669df6" data-name="colored-32/quantum-engine"/></g></svg>