<svg xmlns="http://www.w3.org/2000/svg" width="24" height="24"><defs><style>.cls-1{fill:#4285f4}.cls-2{fill:#669df6}</style></defs><g data-name="Product Icons"><path class="cls-1" d="M15.3 11.17v1.66h4.5v-1.66ZM9.86 5.89H7v1.67h3.93a10 10 0 0 0-1.07-1.67ZM11 16.44H7.6v1.67h2.29A10.7 10.7 0 0 0 11 16.44ZM12 12a7.45 7.45 0 0 0 0-.83H4.5v1.66H12a7.45 7.45 0 0 0 0-.83Z"/><path class="cls-2" d="M3.67 12.48a.48.48 0 1 1 .47-.48.48.48 0 0 1-.47.48Zm0-2.15A1.67 1.67 0 1 0 5.33 12a1.67 1.67 0 0 0-1.66-1.67ZM6.17 17.75a.48.48 0 1 1 .47-.48.47.47 0 0 1-.47.48Zm0-2.14a1.67 1.67 0 1 0 1.66 1.66 1.67 1.67 0 0 0-1.66-1.66ZM6.17 7.2a.48.48 0 1 1 .47-.47.47.47 0 0 1-.47.47Zm0-2.14a1.67 1.67 0 1 0 0 3.33 1.67 1.67 0 0 0 0-3.33Z"/><path class="cls-1" d="M18.67 14.5v-5L22 12l-3.33 2.5zM9.5 22l-.86-1.5a10.73 10.73 0 0 0 4.19-8.5 10.89 10.89 0 0 0-4.2-8.5L9.5 2a12.53 12.53 0 0 1 5 10 12.46 12.46 0 0 1-5 10Z"/></g></svg>