<svg xmlns="http://www.w3.org/2000/svg" width="24" height="24"><defs><style>.cls-1{fill:none}.cls-2{fill:#4285f4}.cls-3{fill:#669df6}</style></defs><g data-name="Product Icons"><path class="cls-1" d="M0 0h24v24H0z"/><path class="cls-1" d="M0 0h24v24H0z"/><g data-name="colored-32/web-risk"><path id="Fill-1" class="cls-2" d="M4 18V6h8V4H3a1 1 0 0 0-1 1v14a1 1 0 0 0 1 1h9v-2Z"/><path id="Fill-3" class="cls-3" d="M21 4h-9v2h8v12h-8v2h9a1 1 0 0 0 1-1V5a1 1 0 0 0-1-1"/><path id="Fill-7" class="cls-3" d="M9 12v-2l3-1V7L7 9v3c0 2.38 3 5 5 5v-2c-.89 0-3-1.38-3-3"/><path id="Fill-7-2" data-name="Fill-7" d="M15 12c0 1.62-2.1 3-3 3v2c2 0 5-2.62 5-5V9l-5-2v2l3 1v2" style="fill:#aecbfa"/><path id="Fill-9" class="cls-2" d="M12.59 12.8a.86.86 0 0 1-1.19 0l-1-1.22.6-.58 1 1.09 3-3 .6.59Z"/></g></g></svg>