<svg xmlns="http://www.w3.org/2000/svg" width="24" height="24"><g data-name="Product Icons"><g data-name="Cloud-Shell shaded 32px"><path d="M20.2 2.67H3.8A1.79 1.79 0 0 0 2 4.47v10.8a1.79 1.79 0 0 0 1.8 1.8H10v2.26H8v2h8v-2h-2v-2.26h6.2a1.79 1.79 0 0 0 1.8-1.8V4.47a1.79 1.79 0 0 0-1.8-1.8Zm-3.53 12h-4v-2h4Zm0-4.54-9.07 3.8v-1.86l6.53-2.8L7.6 6.4V4.53l9.07 3.74Z" style="fill:#aecbfa"/><path style="fill:#4285f4" d="M10 17.07h4v2.26h-4v-2.26z"/><path style="fill:#669df6" d="M8 19.33h8v2H8z"/></g></g></svg>