<svg xmlns="http://www.w3.org/2000/svg" width="24" height="24" xml:space="preserve"><g transform="translate(16 4)"><defs><filter id="a" filterUnits="userSpaceOnUse" x="-9" y="-6" width="17" height="28"><feColorMatrix values="1 0 0 0 0 0 1 0 0 0 0 0 1 0 0 0 0 0 1 0"/></filter></defs><mask maskUnits="userSpaceOnUse" x="-9" y="-6" width="17" height="28" id="b"><g filter="url(#a)"><path fill-rule="evenodd" clip-rule="evenodd" fill="#FFF" d="M3 6H1V3.4l-5-2.2V-1l7 3v4zm0 1v.7C3 12.1-.7 17-4 17v-2c2 0 5-3.9 5-7.3V7h2z"/></g></mask><path mask="url(#b)" fill-rule="evenodd" clip-rule="evenodd" fill="#AECBFA" d="M-9 22H8V-6H-9z"/></g><g transform="translate(6.667 4)"><defs><filter id="c" filterUnits="userSpaceOnUse" x="-6.7" y="-6" width="17" height="28"><feColorMatrix values="1 0 0 0 0 0 1 0 0 0 0 0 1 0 0 0 0 0 1 0"/></filter></defs><mask maskUnits="userSpaceOnUse" x="-6.7" y="-6" width="17" height="28" id="d"><g filter="url(#c)"><path fill-rule="evenodd" clip-rule="evenodd" fill="#FFF" d="M.5 9h-2c-.1-.4-.1-.9-.1-1.3V2l7-3v2.2l-5 2.2v4.4c-.1.3 0 .8.1 1.2zm.2 1c.9 2.6 3.1 5 4.6 5v2c-2.7 0-5.7-3.4-6.7-7H.7z"/></g></mask><path mask="url(#d)" fill-rule="evenodd" clip-rule="evenodd" fill="#669DF6" d="M-6.7 22h17V-6h-17z"/></g><path fill-rule="evenodd" clip-rule="evenodd" fill="#4285F4" d="M7.8 12H2v1h6.3l1.7-2.5 3 6.1 2.3-4.6H22v-1h-7.3L13 14.4l-2.9-5.9z"/><path fill="none" d="M0 0h24v24H0z"/></svg>