<svg xmlns="http://www.w3.org/2000/svg" width="24" height="24"><defs><style>.cls-1{fill:#4285f4}.cls-2{fill:#669df6}</style></defs><g data-name="Product Icons"><path class="cls-1" d="M3.47 15.68a4.31 4.31 0 1 1 6.07-.4 3.68 3.68 0 0 1-.39.4 4.32 4.32 0 0 1-5.68 0Zm5.2-5.2a3.07 3.07 0 1 0-.4 4.33 3 3 0 0 0 .4-.4 3.07 3.07 0 0 0 0-3.93ZM14.86 15.68a4.31 4.31 0 1 1 6.07-.4 3.78 3.78 0 0 1-.4.4 4.31 4.31 0 0 1-5.67 0Zm5.2-5.2a3.07 3.07 0 1 0-.4 4.33 3 3 0 0 0 .4-.4 3.08 3.08 0 0 0 0-3.93Z"/><circle class="cls-2" cx="6.31" cy="12.44" r="1.69"/><circle class="cls-2" cx="17.69" cy="12.44" r="1.69"/><path d="M14.39 7.81a.31.31 0 0 0-.18-.56H9.79a.31.31 0 0 0-.18.56 5.73 5.73 0 0 1 2.13 2.92.28.28 0 0 0 .36.16.29.29 0 0 0 .17-.17 5.67 5.67 0 0 1 2.12-2.91Z" style="fill:#aecbfa"/></g></svg>