<svg xmlns="http://www.w3.org/2000/svg" width="24" height="24"><defs><style>.cls-2{fill:#aecbfa}.cls-2,.cls-3,.cls-4{fill-rule:evenodd}.cls-3{fill:#4285f4}.cls-4{fill:#669df6}</style></defs><g data-name="Product Icons"><path style="fill:none" d="M2 2h20v20H2z"/><path class="cls-2" d="M17.85 14.2 7.67 20.08l-.98-1.68 10.19-5.89.97 1.69z"/><path class="cls-2" d="M7.63 18.16V6.4H9.5v10.35l-1.87 1.41z"/><path class="cls-2" d="M9.56 9.69 9.3 7.33l10.19 5.87-.97 1.68-8.96-5.19z"/><path class="cls-3" d="M14.39 10.26 9.3 7.33l.26 2.36 1.51.86a4 4 0 0 0 3.32-.29Z"/><path class="cls-2" d="M8.13 8.29a3.78 3.78 0 1 1 3.27 1.89 3.8 3.8 0 0 1-3.27-1.89ZM13 5.49a1.84 1.84 0 0 0-1.59-.92A1.83 1.83 0 0 0 9.57 6.4a1.84 1.84 0 1 0 3.67 0 1.8 1.8 0 0 0-.24-.91Z"/><path class="cls-3" d="M7.63 12.94v5.22l1.87-1.41v-1.63a3.29 3.29 0 0 0-1.87-2.18ZM13.33 16.81l4.52-2.61-2.21-1-1.25.8a4.23 4.23 0 0 0-1.06 2.86Z"/><path class="cls-2" d="M2.51 18.7a3.77 3.77 0 0 1 1.38-5.16 3.72 3.72 0 0 1 2.86-.38 3.78 3.78 0 1 1-4.24 5.54Zm4.85-2.81A1.79 1.79 0 0 0 6.25 15a1.83 1.83 0 0 0-2.06 2.69 1.83 1.83 0 1 0 3.17-1.84ZM14.33 18.36a3.79 3.79 0 0 1 0-3.77 3.79 3.79 0 0 1 5.16-1.39 3.78 3.78 0 0 1 1.38 5.16 3.78 3.78 0 0 1-6.54 0Zm4.86-2.81a2 2 0 0 0-.67-.67 1.85 1.85 0 0 0-2.51.68 1.86 1.86 0 0 0 0 1.83 1.83 1.83 0 0 0 2.07.85 1.82 1.82 0 0 0 1.11-.85 1.88 1.88 0 0 0 0-1.84Z"/><path class="cls-4" d="M9.49 16.15s-2.34 2-2.8 2.25l2.86-1.65a4.07 4.07 0 0 0-.06-.6ZM10.15 10s-.59-3.28-.59-3.6v3.29a3.47 3.47 0 0 0 .59.27ZM15.3 13.47s2.76 1.15 3.22 1.41l-2.86-1.64a1.69 1.69 0 0 0-.36.23Z"/></g></svg>