<svg xmlns="http://www.w3.org/2000/svg" width="24" height="24"><defs><style>.cls-3{fill:#4285f4}</style></defs><g data-name="Product Icons"><path style="fill:#669df6" d="M15 10.32h.16v-1H12.5V8.18h-1.1v1.14H8.82v1H15z"/><path d="M15.33 14.75a6.8 6.8 0 0 1-2.53-1.27 6.41 6.41 0 0 0 1.2-2.07h-1.19a5 5 0 0 1-.81 1.31 4.82 4.82 0 0 1-.81-1.31H10a8.39 8.39 0 0 0 1.27 2.08 6.62 6.62 0 0 1-2.6 1.38l.6 1a8.35 8.35 0 0 0 2.73-1.6 6.69 6.69 0 0 0 2.75 1.53Z" style="fill:#aecbfa"/><path class="cls-3" d="m6.82 19.46.95 1.65h9.49L22 12.89 20.1 9.6l-4.74 8.21H7.77ZM17.18 4.54l-.95-1.65H6.74L2 11.11l1.9 3.29 4.74-8.21h7.59Z"/></g></svg>