<svg width="24" height="24" xmlns="http://www.w3.org/2000/svg" xmlns:xlink="http://www.w3.org/1999/xlink"><defs><path d="m19.655 20.918.477.59a2.311 2.311 0 0 1-1.747.47l.105-.747a1.538 1.538 0 0 0 1.165-.313Zm-6.363-3.539c1.266 0 2.292 1.011 2.292 2.259 0 1.247-1.026 2.259-2.292 2.259-1.266 0-2.293-1.012-2.293-2.26 0-1.247 1.027-2.258 2.293-2.258Zm3.91 2.661c.085.412.343.77.706.987l-.398.645a2.267 2.267 0 0 1-1.059-1.48l.75-.152ZM10.397 2c1.202 0 2.22.765 2.608 1.822h2.94c1.017 0 1.85.82 1.85 1.822v5.467h-1.85V5.644h-1.85v2.733H6.7V5.644h-1.85V19.31h4.623v1.822H4.85C3.832 21.132 3 20.312 3 19.31V5.644c0-1.002.832-1.822 1.85-1.822h2.94A2.781 2.781 0 0 1 10.397 2ZM20.86 18.955a2.238 2.238 0 0 1-.112 1.814l-.682-.345a1.484 1.484 0 0 0 .075-1.21l.719-.26Zm-3.339-1.161.394.647a1.513 1.513 0 0 0-.712.982l-.75-.155a2.268 2.268 0 0 1 1.068-1.474Zm1.181-.322c.648 0 1.253.266 1.685.724l-.561.513a1.537 1.537 0 0 0-1.326-.47l-.1-.748c.093-.012.208-.018.302-.02Zm-.142-5.283c1.266 0 2.292 1.011 2.292 2.258 0 1.248-1.026 2.26-2.292 2.26-1.266 0-2.293-1.012-2.293-2.26 0-1.247 1.027-2.258 2.293-2.258Zm-5.268 0c1.266 0 2.292 1.011 2.292 2.258 0 1.248-1.026 2.26-2.292 2.26-1.266 0-2.293-1.012-2.293-2.26 0-1.247 1.027-2.258 2.293-2.258Zm-2.895-8.367a.92.92 0 0 0-.925.911.92.92 0 0 0 .925.911.92.92 0 0 0 .925-.91.92.92 0 0 0-.925-.912Z" id="a"/></defs><use fill="#4285F4" fill-rule="nonzero" xlink:href="#a"/></svg>