<svg xmlns="http://www.w3.org/2000/svg" width="24" height="24"><path style="fill:#4285f4" d="m21.74 12.89-4.12 4.13-1.06-1.07 2.32-2.31h-7.62v-1.5h7.62l-2.32-2.32 1.06-1.06 4.12 4.13z"/><path d="m11.77 4.76.3.3V6l-.3.3A4.69 4.69 0 0 0 7.4 10l-.13.51-.52.05a3.19 3.19 0 0 0-3 3 2.83 2.83 0 0 0 0 .41L2.52 15a4.1 4.1 0 0 1-.28-1.48 4.61 4.61 0 0 1 3.85-4.38 6.12 6.12 0 0 1 5.68-4.38Z" style="fill:#aecbfa"/><path style="fill:#4285f4" d="M14.01 17.45H6.38l2.32 2.32-1.06 1.06-4.13-4.13 4.13-4.13 1.06 1.07-2.32 2.31h7.63v1.5z"/><path d="m16.63 7.49-1.1 1a4.45 4.45 0 0 0-3.76-2.27V4.76a5.88 5.88 0 0 1 4.86 2.73Z" style="fill:#669df6"/></svg>