<svg xmlns="http://www.w3.org/2000/svg" width="24" height="24"><defs><style>.cls-1,.cls-3{fill:#669df6;fill-rule:evenodd}.cls-3{fill:#aecbfa}</style></defs><g data-name="Product Icons"><path id="Shape-2" data-name="Shape" class="cls-1" d="M13.34 12.76V8.4h-2.68v4.36l-3.77 2.18 1.34 2.32L12 15.08l3.77 2.18 1.34-2.32-3.77-2.18z"/><path style="fill:#4285f4;fill-rule:evenodd" d="M13.34 12.76V8.4H12v5.12L7.56 16.1l.67 1.16L12 15.08l3.77 2.18 1.34-2.32-3.77-2.18z"/><path class="cls-3" d="M10.65 2.77 8.62 3.99v3.73L12 9.55V6.44l-1.35-.62V2.77z"/><path class="cls-1" d="M13.35 5.82 12 6.44v3.11l3.38-1.83V3.99l-2.03-1.22v3.05zM18.14 17.08l-.08 1.39 2.7 1.53-2.18 1.2-3.24-1.87.11-3.83 3.27-2L22 15.38v2.49l-2.69-1.55ZM5.86 17.08l-1.17-.76L2 17.87v-2.49l3.23-1.87 3.27 2 .11 3.83-3.19 1.89L3.24 20l2.7-1.56Z"/><path class="cls-3" d="m22 17.87-.05-2.49-3.23-1.86-3.27 2.01 2.69 1.55 1.16-.76 2.7 1.55zM2 17.87l2.7-1.55 1.16.76 2.69-1.55-3.27-2.01-3.23 1.86L2 17.87z"/></g></svg>