<svg xmlns="http://www.w3.org/2000/svg" width="24" height="24" style="enable-background:new 0 0 24 24" xml:space="preserve"><path d="M10.48 6.35c0-.203.04-.404.12-.591-2.857.641-5 3.194-5 6.241a.75.75 0 0 0 1.5 0c0-2.283 1.571-4.2 3.688-4.742a1.505 1.505 0 0 1-.308-.908zm7.17 4.9a.75.75 0 0 0-.75.75c0 2.283-1.571 4.2-3.688 4.742.328.43.4 1.003.188 1.5 2.857-.642 5-3.195 5-6.242a.75.75 0 0 0-.75-.75z" style="fill:#669df6"/><path d="M20.605 10.48a1.5 1.5 0 0 1 .638.145c-.67-4.507-4.553-7.98-9.243-7.98a.75.75 0 0 0 0 1.5c3.904 0 7.143 2.866 7.745 6.603.253-.175.553-.268.86-.268zM12 19.855c-3.904 0-7.143-2.866-7.745-6.603a1.494 1.494 0 0 1-1.497.123c.669 4.507 4.555 7.98 9.242 7.98a.75.75 0 0 0 0-1.5z" style="fill:#aecbfa"/><path d="M12 15.543A3.543 3.543 0 1 1 15.543 12 3.548 3.548 0 0 1 12 15.543zm0-5.586a2.043 2.043 0 1 0 0 4.087 2.043 2.043 0 0 0 0-4.087zm8.605 1.273a.77.77 0 1 0 0 1.54.77.77 0 0 0 0-1.54zM12 5.578a.77.77 0 1 0 .77.77.771.771 0 0 0-.77-.77zM3.395 11.23a.77.77 0 1 0 .77.77.77.77 0 0 0-.77-.77zM12 16.88a.77.77 0 1 0 .77.77.77.77 0 0 0-.77-.77z" style="fill:#4285f4"/></svg>