<svg xmlns="http://www.w3.org/2000/svg" width="24" height="24"><path d="M8.36 7.8a4.4 4.4 0 0 0-.54.52l-.23-.23-.88-.88.53-.53.88.88ZM17.32 16.76l-.53.53-1.09-1.1a4.33 4.33 0 0 0 .53-.52ZM6.58 11.6a2.61 2.61 0 0 0 0 .4 2 2 0 0 0 0 .35H4.87v-.75ZM19.13 11.6v.75h-1.66v-.75ZM7.79 15.65a4.42 4.42 0 0 0 .53.53l-1.11 1.11-.53-.53ZM15.9 7.54l.86-.86.53.53L16.2 8.3a4.42 4.42 0 0 0-.53-.53ZM12 17.47h.38v1.67h-.75v-1.69ZM12.4 4.87v1.69a1.94 1.94 0 0 0-.34 0 2.68 2.68 0 0 0-.4 0V4.87Z" style="fill:#4285f4"/><path d="M17.92 11.6a5.88 5.88 0 0 0-1.49-3.53 5.29 5.29 0 0 0-.54-.52A5.81 5.81 0 0 0 12.4 6.1h-.77a5.84 5.84 0 0 0-3.51 1.46 6.62 6.62 0 0 0-.53.53 5.89 5.89 0 0 0-1.47 3.51v.75a5.89 5.89 0 0 0 1.44 3.53 5.3 5.3 0 0 0 .53.53 5.91 5.91 0 0 0 3.56 1.49h.75a5.89 5.89 0 0 0 3.52-1.47 4.42 4.42 0 0 0 .53-.53 5.83 5.83 0 0 0 1.47-3.55V12c0-.12.01-.27 0-.4ZM12 17.16A5.16 5.16 0 1 1 17.16 12 5.16 5.16 0 0 1 12 17.16Zm0-9.09A3.93 3.93 0 1 0 16 12a3.94 3.94 0 0 0-4-3.93Z" style="fill:#669df6;fill-rule:evenodd"/><path d="M12 5a1.4 1.4 0 0 1 0-2.79V3a.65.65 0 0 0 0 1.29Z" style="fill:#aecbfa;fill-rule:evenodd"/><path d="M12 5v-.71A.65.65 0 0 0 12 3v-.75A1.4 1.4 0 0 1 12 5Z" style="fill:#669df6;fill-rule:evenodd"/><path d="M12 21.75A1.4 1.4 0 0 1 12 19v.75A.65.65 0 0 0 12 21Z" style="fill:#aecbfa;fill-rule:evenodd"/><path d="M12 21.75V21a.65.65 0 0 0 0-1.29V19a1.4 1.4 0 0 1 0 2.79Z" style="fill:#669df6;fill-rule:evenodd"/><path d="M6.09 7.48a1.39 1.39 0 1 1 0-2.78v.75a.64.64 0 0 0-.64.64.64.64 0 0 0 .64.64Z" style="fill:#aecbfa;fill-rule:evenodd"/><path d="M6.09 7.48v-.75a.64.64 0 0 0 0-1.28V4.7a1.39 1.39 0 1 1 0 2.78Z" style="fill:#669df6;fill-rule:evenodd"/><path d="M17.91 19.3a1.39 1.39 0 0 1 0-2.78v.75a.64.64 0 0 0 0 1.28Z" style="fill:#aecbfa;fill-rule:evenodd"/><path d="M17.91 19.3v-.75a.64.64 0 0 0 .64-.64.64.64 0 0 0-.64-.64v-.75a1.39 1.39 0 0 1 0 2.78Z" style="fill:#669df6;fill-rule:evenodd"/><path d="M3.64 13.39a1.39 1.39 0 0 1 0-2.78v.75a.64.64 0 1 0 0 1.28Z" style="fill:#aecbfa;fill-rule:evenodd"/><path d="M3.64 13.39v-.75a.64.64 0 1 0 0-1.28v-.75a1.39 1.39 0 1 1 0 2.78Z" style="fill:#669df6;fill-rule:evenodd"/><path d="M20.36 13.39a1.38 1.38 0 0 1-1-.4A1.43 1.43 0 0 1 19 12a1.4 1.4 0 0 1 1.4-1.39v.75a.65.65 0 0 0-.65.64.64.64 0 0 0 .19.45.6.6 0 0 0 .46.19Z" style="fill:#aecbfa;fill-rule:evenodd"/><path d="M20.36 13.39v-.75a.64.64 0 0 0 0-1.28v-.75a1.39 1.39 0 0 1 0 2.78Z" style="fill:#669df6;fill-rule:evenodd"/><path d="M6.06 19.3a1.39 1.39 0 0 1-1-.42 1.33 1.33 0 0 1-.38-1 1.44 1.44 0 0 1 1.45-1.38v.75a.69.69 0 0 0-.7.65.57.57 0 0 0 .17.44.67.67 0 0 0 .47.19Z" style="fill:#aecbfa;fill-rule:evenodd"/><path d="M6.06 19.3v-.75a.69.69 0 0 0 .7-.65.56.56 0 0 0-.17-.44.67.67 0 0 0-.47-.19v-.75a1.39 1.39 0 0 1 1 .42 1.32 1.32 0 0 1 .38 1 1.44 1.44 0 0 1-1.44 1.36Z" style="fill:#669df6;fill-rule:evenodd"/><path d="M17.91 7.48a1.39 1.39 0 0 1 0-2.78v.75a.64.64 0 1 0 0 1.28Z" style="fill:#aecbfa;fill-rule:evenodd"/><path d="M17.91 7.48v-.75a.64.64 0 0 0 .64-.64.64.64 0 0 0-.64-.64V4.7a1.39 1.39 0 1 1 0 2.78Z" style="fill:#669df6;fill-rule:evenodd"/><path d="M12 8.07v7.85a3.93 3.93 0 1 1 0-7.85Z" style="fill:#aecbfa;fill-rule:evenodd"/><path d="M16 12a3.92 3.92 0 0 1-4 3.92V8.07A3.93 3.93 0 0 1 16 12Z" style="fill:#669df6;fill-rule:evenodd"/><path style="fill:#aecbfa" d="M12.02 13.04h2.11v.75h-2.11zM12.02 11.67h2.11v.75h-2.11zM12.02 10.31h2.11v.75h-2.11z"/><path style="fill:#fff" d="M9.91 13.04h2.11v.75H9.91zM9.91 11.67h2.11v.75H9.91zM9.91 10.31h2.11v.75H9.91z"/></svg>