<svg data-name="Artwork" xmlns="http://www.w3.org/2000/svg" width="24" height="24"><path fill="#aecbfa" d="M8.999 7.013h2v4h-2zM12.999 7.013h2v4h-2z"/><path d="M8 18.93a7.993 7.993 0 0 1 4-14.917v-2a10 10 0 0 0-4 19.159Z" fill="#aecbfa"/><path fill="#4285f4" d="M10.999 17.012h2v5h-2z"/><path d="M16.99 10.013H7v2.937a5 5 0 1 0 10.008 0Z" fill="#4285f4"/><path d="M12 18.012a5.039 5.039 0 0 1-5-5.062v-2.937h5" fill="#669df6"/><path d="M12 2.012a10 10 0 0 1 4 19.163v-2.244a7.994 7.994 0 0 0-4-14.919Z" fill="#4285f4"/></svg>