<svg height="24" width="24" xmlns="http://www.w3.org/2000/svg"><g fill="none" fill-rule="evenodd"><path d="m12.666 2.246 6.195 3.626c.42.23.683.667.688 1.145v7.958c-.007.476-.27.913-.688 1.144l-9.87 5.772a.338.338 0 0 1-.51-.281v-3.503l-3.386-1.988a1.329 1.329 0 0 1-.689-1.144V7.017c.006-.478.269-.915.689-1.145l6.194-3.626c.426-.245.951-.245 1.377 0z" fill="#aecbfa" fill-rule="nonzero"/><path d="M9.82 13.236a.714.714 0 0 0-1.43 0v1.429a.714.714 0 0 0 1.43 0z" fill="#185abc"/><path d="M9.82 11.094a.714.714 0 1 0-1.43 0 .714.714 0 0 0 1.43 0zM12.676 11.094a.714.714 0 1 0-1.428 0 .714.714 0 0 0 1.428 0z" fill="#4285f4"/><path d="M12.676 8.95a.714.714 0 1 0-1.428 0 .714.714 0 0 0 1.428 0zM15.533 6.808a.714.714 0 1 0-1.428 0 .714.714 0 0 0 1.428 0z" fill="#669df6"/><path d="M15.533 11.094a.714.714 0 1 0-1.428 0 .714.714 0 0 0 1.428 0z" fill="#185abc"/><path d="M15.533 8.95a.714.714 0 1 0-1.428 0 .714.714 0 0 0 1.428 0z" fill="#4285f4"/><g fill="#185abc"><path d="M11.248 13.236a.714.714 0 0 1 1.428 0v1.429a.714.714 0 0 1-1.428 0zM15.533 13.236a.714.714 0 1 0-1.428 0v1.429a.714.714 0 0 0 1.428 0z"/></g></g></svg>