<svg width="24" height="24" fill="none" xmlns="http://www.w3.org/2000/svg"><g clip-path="url(#a)"><path d="m21.602 11.27-2.553-.798a7.197 7.197 0 0 1 .085 2.6h2.47a.447.447 0 0 0 .38-.418v-.964a.45.45 0 0 0-.38-.417M12.047 4.78c.502.001 1.004.054 1.496.157l-.917-2.542a.448.448 0 0 0-.42-.38h-.382a.448.448 0 0 0-.42.38l-.797 2.532a7.23 7.23 0 0 1 1.435-.143M4.787 11.995c0-.513.054-1.026.162-1.528l-2.553.797a.45.45 0 0 0-.38.42v.964a.45.45 0 0 0 .38.418h2.47a7.192 7.192 0 0 1-.08-1.077v.006Z" fill="#669DF6"/><path fill-rule="evenodd" clip-rule="evenodd" d="M16.321 7.674a6.11 6.11 0 1 0-8.642 8.642 6.11 6.11 0 0 0 8.642-8.642Zm-1.15 1.057-1.87 1.332-.007-.003a.385.385 0 0 1-.614-.296h-.002l-.13-2.302a4.54 4.54 0 0 1 2.623 1.27Zm-2.82 2.523.438.55-.158.685-.632.306-.635-.306-.157-.686.44-.549h.704Zm-1.367-3.712c.156-.035.312-.061.467-.08l-.13 2.305-.01.005a.387.387 0 0 1-.613.296l-.003.002-1.883-1.34a4.504 4.504 0 0 1 2.172-1.188Zm-3.495 4.914c-.113-1.03.13-2.03.64-2.864l1.719 1.543-.002.01a.388.388 0 0 1-.151.665l-.002.008-2.204.638Zm2.942 1.236-.876 2.124a4.55 4.55 0 0 1-1.82-2.286l2.26-.384.004.004a.387.387 0 0 1 .425.533l.007.01Zm2.585 2.732a4.51 4.51 0 0 1-2.471-.128l1.111-2.017h.002a.387.387 0 0 1 .68 0h.009l1.114 2.02a4.6 4.6 0 0 1-.445.125Zm1.436-.6-.885-2.145.003-.004a.388.388 0 0 1 .424-.534l.003-.005 2.28.387a4.529 4.529 0 0 1-1.825 2.302Zm2.065-3.375-2.216-.64-.002-.01a.387.387 0 0 1-.151-.666l-.001-.004 1.71-1.536c.255.415.449.88.564 1.382.114.498.143.994.096 1.474Z" fill="#4285F4"/></g><defs><clipPath id="a"><path fill="#fff" transform="translate(2.016 2.016)" d="M0 0h19.969v16.09H0z"/></clipPath></defs></svg>