<svg xmlns="http://www.w3.org/2000/svg" width="24" height="24"><defs><style>.cls-1{fill:#aecbfa}.cls-2{fill:#669df6}.cls-3{fill:#4285f4}</style></defs><g data-name="Product Icons"><g data-name="Layer 1-2"><path class="cls-1" d="m5.45 8.53 3.1-3.11 3.1 3.11-3.1 3.12-3.1-3.12z"/><path class="cls-2" d="m2 12 3.1-3.12L8.2 12l-3.1 3.12L2 12z"/><path class="cls-3" d="m5.45 15.47 3.1-3.12 3.1 3.12-3.1 3.12-3.1-3.12z"/><path class="cls-1" d="m12.35 8.53 3.1-3.11 3.1 3.11-3.1 3.12-3.1-3.12z"/><path class="cls-2" d="m15.8 12 3.1-3.12L22 12l-3.1 3.12L15.8 12z"/><path class="cls-3" d="m12.35 15.47 3.1-3.12 3.1 3.12-3.1 3.12-3.1-3.12z"/></g></g></svg>