<svg fill="none" height="24" width="24" xmlns="http://www.w3.org/2000/svg"><g fill="#4285f4"><path clip-rule="evenodd" d="M20.625 8.349v10.288a1.981 1.981 0 0 1-1.988 1.988H8.349a1.988 1.988 0 0 1-1.988-1.988h12.276V6.36c1.103 0 1.988.894 1.988 1.988z" fill-rule="evenodd"/><path clip-rule="evenodd" d="M15.651 3.375H5.363a1.994 1.994 0 0 0-1.988 1.988v10.288c0 1.104.895 1.988 1.988 1.988h10.288a1.981 1.981 0 0 0 1.988-1.988V5.363a1.988 1.988 0 0 0-1.988-1.988zm0 12.276H5.363V5.363h10.288z" fill-rule="evenodd"/><path d="M13.075 8.483a2.532 2.532 0 0 0-.395-.94 2.564 2.564 0 0 0-1.108-.94 2.698 2.698 0 0 0-1.071-.225c-.376 0-.733.085-1.062.226a2.564 2.564 0 0 0-1.109.94c-.29.412-.45.92-.45 1.465a2.44 2.44 0 0 0 .065.564c.02.084.038.178.066.263.075.225.179.432.31.62.122.178.263.347.432.498v3.307l1.748-1.644 1.757 1.644v-3.307c.338-.301.592-.686.742-1.118.028-.085.047-.179.066-.263.009-.02.009-.029.009-.038a2.439 2.439 0 0 0 0-1.052zm-1.353.526a1.217 1.217 0 0 1-2.433 0c0-.188.037-.367.122-.526.188-.414.61-.696 1.09-.696a1.2 1.2 0 0 1 1.099.696c.085.16.122.338.122.526z"/></g></svg>