<svg xmlns="http://www.w3.org/2000/svg" width="24" height="24"><defs><style>.cls-1{fill:#aecbfa}.cls-2{fill:#669df6}.cls-3{fill:#4285f4}</style></defs><g data-name="Product Icons"><path class="cls-1" d="M9 9h6v6H9z"/><path class="cls-2" d="M11 2h2v4h-2zM7 2h2v4H7zM15 2h2v4h-2z"/><path class="cls-3" d="M11 18h2v4h-2zM7 18h2v4H7zM15 18h2v4h-2zM18 13v-2h4v2zM18 17v-2h4v2zM18 9V7h4v2z"/><path class="cls-2" d="M2 13v-2h4v2zM2 17v-2h4v2zM2 9V7h4v2z"/><path class="cls-1" d="M5 5v14h14V5Zm12 12H7V7h10Z"/><path class="cls-2" d="M9 15h6l-3-3-3 3z"/><path class="cls-3" d="m12 12 3 3V9l-3 3z"/></g></svg>