<svg xmlns="http://www.w3.org/2000/svg" width="24" height="24"><defs><style>.cls-1{fill:#aecbfa}.cls-2{fill:#669df6}.cls-3{fill:#4285f4}</style></defs><g data-name="Product Icons"><path class="cls-1" d="M16 2h6v6h-6z"/><path class="cls-2" d="M19 2h3v6h-3z"/><path class="cls-1" d="M16 16h6v6h-6z"/><path class="cls-2" d="M19 16h3v6h-3z"/><path class="cls-1" d="M2 2h6v6H2z"/><path class="cls-2" d="M5 2h3v6H5z"/><path class="cls-1" d="M2 16h6v6H2z"/><path class="cls-2" d="M5 16h3v6H5zM8 4h8v2H8zM8 18h8v2H8zM18 8h2v8h-2zM4 8h2v8H4z"/><path class="cls-3" d="M4 8h2v2H4zM18 8h2v2h-2zM8 4h2v2H8zM8 18h2v2H8z"/></g></svg>