<svg xmlns="http://www.w3.org/2000/svg" width="24" height="24"><defs><style>.cls-2{fill:#669df6}.cls-3{fill:#aecbfa}</style></defs><g data-name="Product Icons"><path d="M14.86 5.44A5.48 5.48 0 0 0 7.8 6.5a5.31 5.31 0 0 0-1.34 3.6 5.49 5.49 0 0 0 2.41 4.53l-.17.28-.56.16c-.89 1.56-1.22 2-2.06 3.48l1.48.85c.85-1.5 1.17-1.94 2.05-3.48l-.16-.61.14-.26a5.49 5.49 0 0 0 5.27-9.61Zm-1.92 8.3a3.79 3.79 0 1 1 2.66-4.65 3.8 3.8 0 0 1-2.66 4.65Z" style="fill:#4285f4"/><path class="cls-2" d="m2.05 8.78.13-1.07h1.18v.35h-.84v.45a.68.68 0 0 1 .79.11.78.78 0 0 1 .17.53.77.77 0 0 1-.09.36.53.53 0 0 1-.24.25.65.65 0 0 1-.38.09.73.73 0 0 1-.36-.08.66.66 0 0 1-.26-.21.63.63 0 0 1-.15-.32h.42a.27.27 0 0 0 .09.2.25.25 0 0 0 .2.07.23.23 0 0 0 .22-.1.43.43 0 0 0 .07-.29.37.37 0 0 0-.09-.27.33.33 0 0 0-.25-.1.41.41 0 0 0-.24.08Z"/><path class="cls-3" d="M5.45 9.82H5V8.21l-.51.15V8l.88-.31ZM3 12.66h-.41v-1.61l-.5.15v-.34l.91-.31Z"/><path class="cls-2" d="M5.86 11.79a1.13 1.13 0 0 1-.18.67.74.74 0 0 1-1 0 1 1 0 0 1-.19-.65v-.39a1.06 1.06 0 0 1 .18-.67.73.73 0 0 1 1 0 1.08 1.08 0 0 1 .19.65Zm-.42-.43a.83.83 0 0 0-.07-.36.25.25 0 0 0-.23-.12.24.24 0 0 0-.22.11.75.75 0 0 0-.07.36v.51a.85.85 0 0 0 .07.39.23.23 0 0 0 .23.12.23.23 0 0 0 .22-.12.77.77 0 0 0 .07-.37Z"/><path class="cls-3" d="M19.13 9.74h-.41V8.12l-.51.16v-.34l.88-.32Z"/><path class="cls-2" d="m20.62 8.7.13-1.07h1.18V8h-.84l-.09.43a.65.65 0 0 1 .31-.08.63.63 0 0 1 .48.19.74.74 0 0 1 .17.52.81.81 0 0 1-.09.37.6.6 0 0 1-.25.25.79.79 0 0 1-.38.09.85.85 0 0 1-.35-.08.62.62 0 0 1-.26-.22.58.58 0 0 1-.1-.32H21a.35.35 0 0 0 .1.21.29.29 0 0 0 .2.07.26.26 0 0 0 .22-.1.44.44 0 0 0 .06-.33.41.41 0 0 0-.09-.28.34.34 0 0 0-.25-.09.34.34 0 0 0-.24.07ZM19.54 11.79a1.13 1.13 0 0 1-.18.67.74.74 0 0 1-1 0 1 1 0 0 1-.19-.65v-.39a1.06 1.06 0 0 1 .18-.67.73.73 0 0 1 1 0 1.08 1.08 0 0 1 .19.65Zm-.42-.43a.83.83 0 0 0-.07-.38.25.25 0 0 0-.23-.12.24.24 0 0 0-.22.11.75.75 0 0 0-.07.36v.51a.85.85 0 0 0 .07.39.23.23 0 0 0 .23.12.23.23 0 0 0 .22-.12.9.9 0 0 0 .07-.37Z"/><path class="cls-3" d="m20.62 11.62.13-1.07h1.18v.35h-.84l-.05.45a.65.65 0 0 1 .31-.08.63.63 0 0 1 .48.19.78.78 0 0 1 .17.54.77.77 0 0 1-.09.36.51.51 0 0 1-.25.25.69.69 0 0 1-.38.09.72.72 0 0 1-.35-.08.59.59 0 0 1-.26-.21.63.63 0 0 1-.1-.32H21a.32.32 0 0 0 .1.2.25.25 0 0 0 .2.07.23.23 0 0 0 .22-.1.43.43 0 0 0 .08-.29.37.37 0 0 0-.09-.27.31.31 0 0 0-.25-.1.35.35 0 0 0-.24.08Z"/><path class="cls-2" d="M9.73 12.11v-.94a.86.86 0 0 1 .35-.62 2.43 2.43 0 0 1 .83-.43 2.87 2.87 0 0 1 2.42.28 1.05 1.05 0 0 1 .27.2.9.9 0 0 1 .3.75v.76ZM11.81 9.5a1.08 1.08 0 1 1 1.08-1.07 1.09 1.09 0 0 1-1.08 1.07Z"/></g></svg>