<svg xmlns="http://www.w3.org/2000/svg" width="24" height="24"><defs><style>.cls-5{fill:#4285f4;fill-rule:evenodd}</style></defs><g data-name="Product Icons"><path style="fill:none" d="M2 2h20v20H2z"/><path id="Fill-1" d="M6.45 18.24a3 3 0 1 1 3-3 3 3 0 0 1-3 3Zm3.63-.4A4.43 4.43 0 1 0 2 15.32a4.91 4.91 0 0 0 0 .67 3.43 3.43 0 0 0 .09.44l.06.21a4.59 4.59 0 0 0 .34.79 4.24 4.24 0 0 0 .76 1l.15.15.33.27a4.16 4.16 0 0 0 .73.44A4.44 4.44 0 0 0 9 19l2.93 2.93a.33.33 0 0 0 .47 0l.66-.65a.33.33 0 0 0 0-.47Z" style="fill:#4285f4"/><path d="M11.8 16.58a5.41 5.41 0 0 0 .2-1.51 5.53 5.53 0 0 0-5.61-5.42 5.82 5.82 0 0 0-1.92.35V5.83a.62.62 0 0 1 .62-.62h16.19a.63.63 0 0 1 .63.62V16a.63.63 0 0 1-.63.63Z" style="fill:#aecbfa"/><path id="Fill-4-path" d="M15.58 5.21V3.73h-4.44v1.48H9.65V2.87a.63.63 0 0 1 .63-.62h6.16a.62.62 0 0 1 .62.62v2.34Z" style="fill-rule:evenodd;fill:#669df6"/><path id="Path-4" class="cls-5" d="m15.58 5.21 1.48-.47v.47h-1.48z"/><path class="cls-5" d="m9.64 5.21 1.49-.54v.54H9.64z"/></g></svg>