<svg xmlns="http://www.w3.org/2000/svg" width="24" height="24"><defs><style>.cls-1{fill:#aecbfa}.cls-2{fill:#4285f4;fill-rule:evenodd}.cls-3{fill:#669df6}</style></defs><g data-name="Product Icons"><circle id="Oval" class="cls-1" cx="12" cy="12" r="1.6"/><path class="cls-2" d="M7.58 9.2h6.37l.74-.7-.74-.7H7.58v1.4z"/><circle class="cls-3" cx="6.8" cy="8.5" r="1.23"/><circle class="cls-1" cx="17.2" cy="8.5" r="1.6"/><path class="cls-2" d="m9.36 15.5.74.7h6.28v-1.4H10.1l-.74.7z"/><circle class="cls-1" cx="6.8" cy="15.5" r="1.6"/><circle class="cls-3" cx="17.2" cy="15.5" r="1.23"/><path class="cls-2" d="M4.18 5h12.68l.74-.7-.74-.7H4.18V5z"/><circle class="cls-3" cx="3.6" cy="4.3" r="1.23"/><circle class="cls-1" cx="20.4" cy="4.3" r="1.6"/><path class="cls-2" d="m6.4 19.7.74.7h12.7V19H7.14l-.74.7z"/><circle class="cls-1" cx="3.6" cy="19.7" r="1.6"/><circle class="cls-3" cx="20.4" cy="19.7" r="1.23"/></g></svg>