<svg width="24" height="24" xmlns="http://www.w3.org/2000/svg"><path d="M3.95 8.261a2.373 2.373 0 0 0 1.526.001v8.123c0 1.668 1.29 3.02 2.881 3.02 1.534 0 2.789-1.257 2.876-2.843l.005-.177v-1.347a2.373 2.373 0 0 0 1.524.097v1.25c0 2.548-1.972 4.615-4.405 4.615-2.363 0-4.292-1.95-4.4-4.398l-.005-.217-.001-8.124Zm15.336 9.15c.946 0 1.714.803 1.714 1.794S20.232 21 19.286 21c-.947 0-1.715-.804-1.715-1.795 0-.99.768-1.794 1.715-1.794ZM15.643 4.075c2.433 0 4.405 2.066 4.405 4.615v8.048a2.373 2.373 0 0 0-1.524 0V8.69c0-1.668-1.29-3.02-2.881-3.02-1.591 0-2.881 1.352-2.881 3.02v1.424a2.376 2.376 0 0 0-1.525.097l.001-1.521c0-2.549 1.972-4.615 4.405-4.615Zm-3.5 6.755c.947 0 1.714.803 1.714 1.795 0 .99-.767 1.794-1.714 1.794s-1.714-.803-1.714-1.794c0-.992.767-1.795 1.714-1.795ZM4.714 4c.947 0 1.715.804 1.715 1.795 0 .99-.768 1.794-1.715 1.794C3.768 7.59 3 6.786 3 5.795S3.768 4 4.714 4Z" fill="#4285F4" fill-rule="nonzero"/></svg>