<svg xmlns="http://www.w3.org/2000/svg" width="24" height="24"><defs><style>.cls-1{fill:#aecbfa}.cls-2{fill:#669df6}.cls-3{fill:#4285f4}.cls-4{fill:#fff}</style></defs><g data-name="Product Icons"><path class="cls-1" d="m7 6 1-1H2l1 1h4z"/><path class="cls-2" d="M7 6v4l1 1V5L7 6z"/><path class="cls-1" d="M3 6 2 5v6l1-1V6z"/><path class="cls-3" d="m3 10-1 1h6l-1-1H3z"/><path class="cls-1" d="M3 6h4v4H3z"/><path class="cls-3" d="m14 6 1-1H9l1 1h4z"/><path class="cls-1" d="M14 6v4l1 1V5l-1 1z"/><path class="cls-3" d="M10 6 9 5v6l1-1V6z"/><path class="cls-1" d="m10 10-1 1h6l-1-1h-4z"/><path class="cls-4" d="M10 6h4v4h-4z"/><path class="cls-3" d="m21 6 1-1h-6l1 1h4z"/><path class="cls-1" d="M21 6v4l1 1V5l-1 1z"/><path class="cls-3" d="m17 6-1-1v6l1-1V6z"/><path class="cls-1" d="m17 10-1 1h6l-1-1h-4z"/><path class="cls-4" d="M17 6h4v4h-4z"/><path class="cls-3" d="m7 14 1-1H2l1 1h4z"/><path class="cls-1" d="M7 14v4l1 1v-6l-1 1z"/><path class="cls-3" d="m3 14-1-1v6l1-1v-4z"/><path class="cls-1" d="m3 18-1 1h6l-1-1H3z"/><path class="cls-4" d="M3 14h4v4H3z"/><path class="cls-1" d="m14 14 1-1H9l1 1h4z"/><path class="cls-2" d="M14 14v4l1 1v-6l-1 1z"/><path class="cls-1" d="m10 14-1-1v6l1-1v-4z"/><path class="cls-3" d="m10 18-1 1h6l-1-1h-4z"/><path class="cls-1" d="M10 14h4v4h-4zM21 14l1-1h-6l1 1h4z"/><path class="cls-2" d="M21 14v4l1 1v-6l-1 1z"/><path class="cls-1" d="m17 14-1-1v6l1-1v-4z"/><path class="cls-3" d="m17 18-1 1h6l-1-1h-4z"/><path class="cls-1" d="M17 14h4v4h-4z"/></g></svg>