<?xml version="1.0" encoding="utf-8"?>
<svg version="1.1" id="Layer_1" xmlns="http://www.w3.org/2000/svg" xmlns:xlink="http://www.w3.org/1999/xlink" x="0px" y="0px"
	 viewBox="0 0 32.8 26.4" style="enable-background:new 0 0 32.8 26.4;" xml:space="preserve">
<style type="text/css">
	.st0{fill:#EA4335;}
	.st1{fill:#4285F4;}
	.st2{fill:#34A853;}
	.st3{fill:#FBBC05;}
</style>
<path class="st0" d="M20.8,7.3h1l2.9-2.8l0.1-1.2C19.5-1.5,11.4-1,6.7,4.3C5.4,5.8,4.5,7.6,4,9.5c0.3-0.1,0.7-0.2,1-0.1l5.7-0.9
	c0,0,0.3-0.5,0.4-0.4C13.6,5.2,17.9,4.9,20.8,7.3L20.8,7.3z"/>
<path class="st1" d="M28.7,9.5c-0.7-2.4-2-4.6-3.9-6.2l-4,4c1.7,1.4,2.7,3.5,2.6,5.6v0.7c2,0,3.6,1.6,3.6,3.6s-1.6,3.6-3.6,3.6h-7.1
	l-0.7,0.7v4.3l0.7,0.7h7.1c5.1,0,9.3-4.1,9.3-9.2C32.8,14.1,31.3,11.2,28.7,9.5z"/>
<path class="st2" d="M9.2,26.3h7.1v-5.7H9.2c-0.5,0-1-0.1-1.5-0.3l-1,0.3l-2.9,2.8l-0.2,1C5.2,25.7,7.2,26.4,9.2,26.3z"/>
<path class="st3" d="M9.2,7.9C4.1,7.9,0,12.1,0,17.2c0,2.9,1.4,5.5,3.6,7.3l4.1-4.1C6,19.5,5.2,17.4,6,15.6s2.9-2.6,4.7-1.8
	c0.8,0.4,1.4,1,1.8,1.8l4.1-4.1C14.8,9.2,12.1,7.8,9.2,7.9z"/>
</svg>
