<?xml version="1.0" encoding="UTF-8"?>
<svg xmlns="http://www.w3.org/2000/svg" xmlns:xlink="http://www.w3.org/1999/xlink" width="100" height="100" viewBox="0 0 100 100" version="1.1">
<g id="surface1">
<path style=" stroke:none;fill-rule:evenodd;fill:rgb(100%,99.607843%,99.607843%);fill-opacity:1;" d="M 100 10.089844 C 100 4.519531 95.480469 0 89.910156 0 L 10.089844 0 C 4.519531 0 0 4.519531 0 10.089844 L 0 89.910156 C 0 95.480469 4.519531 100 10.089844 100 L 89.910156 100 C 95.480469 100 100 95.480469 100 89.910156 Z M 100 10.089844 "/>
<path style=" stroke:none;fill-rule:evenodd;fill:rgb(30.19608%,30.19608%,30.19608%);fill-opacity:1;" d="M 100 10.089844 C 100 4.519531 95.480469 0 89.910156 0 L 10.089844 0 C 4.519531 0 0 4.519531 0 10.089844 L 0 89.910156 C 0 95.480469 4.519531 100 10.089844 100 L 89.910156 100 C 95.480469 100 100 95.480469 100 89.910156 Z M 94.667969 10.089844 L 94.667969 89.910156 C 94.667969 92.535156 92.535156 94.667969 89.910156 94.667969 C 89.910156 94.667969 10.089844 94.667969 10.089844 94.667969 C 7.464844 94.667969 5.332031 92.535156 5.332031 89.910156 L 5.332031 10.089844 C 5.332031 7.464844 7.464844 5.332031 10.089844 5.332031 L 89.910156 5.332031 C 92.535156 5.332031 94.667969 7.464844 94.667969 10.089844 Z M 94.667969 10.089844 "/>
<path style=" stroke:none;fill-rule:evenodd;fill:rgb(30.19608%,30.19608%,30.19608%);fill-opacity:1;" d="M 66.558594 72.558594 C 61.792969 75.664062 56.105469 77.46875 50 77.46875 C 33.222656 77.46875 19.605469 63.851562 19.605469 47.074219 C 19.605469 30.296875 33.222656 16.679688 50 16.679688 C 66.777344 16.679688 80.394531 30.296875 80.394531 47.074219 C 80.394531 55.8125 76.699219 63.699219 70.785156 69.246094 L 77.820312 79.078125 C 78.679688 80.28125 78.402344 81.960938 77.199219 82.820312 C 75.992188 83.679688 74.316406 83.402344 73.457031 82.199219 Z M 50 22.042969 C 63.816406 22.042969 75.03125 33.257812 75.03125 47.074219 C 75.03125 60.890625 63.816406 72.105469 50 72.105469 C 36.183594 72.105469 24.96875 60.890625 24.96875 47.074219 C 24.96875 33.257812 36.183594 22.042969 50 22.042969 Z M 67.054688 56.886719 L 41.675781 56.886719 C 40.933594 56.886719 46.472656 62.398438 46.003906 62.398438 L 39.429688 62.398438 C 38.941406 62.398438 33.0625 55.113281 32.945312 54.15625 C 32.945312 54.152344 32.945312 54.148438 32.945312 54.144531 C 32.945312 54.140625 32.945312 54.136719 32.945312 54.128906 C 33.0625 53.175781 38.941406 45.886719 39.429688 45.886719 L 46.003906 45.886719 C 46.472656 45.886719 40.933594 51.402344 41.675781 51.402344 L 67.054688 51.402344 Z M 32.945312 37.261719 L 58.320312 37.261719 C 59.066406 37.261719 53.527344 31.75 53.996094 31.75 L 60.570312 31.75 C 61.058594 31.75 66.933594 39.035156 67.054688 39.992188 C 67.054688 39.996094 67.054688 40 67.054688 40.003906 C 67.054688 40.007812 67.054688 40.011719 67.054688 40.019531 C 66.933594 40.972656 61.058594 48.261719 60.570312 48.261719 L 53.996094 48.261719 C 53.527344 48.261719 59.066406 42.746094 58.320312 42.746094 L 32.945312 42.746094 Z M 32.945312 37.261719 "/>
</g>
</svg>
