<?xml version="1.0" encoding="UTF-8"?>
<svg xmlns="http://www.w3.org/2000/svg" xmlns:xlink="http://www.w3.org/1999/xlink" width="100" height="100" viewBox="0 0 100 100" version="1.1">
<g id="surface1">
<path style=" stroke:none;fill-rule:evenodd;fill:rgb(100%,99.607843%,99.607843%);fill-opacity:1;" d="M 100 10.089844 C 100 4.519531 95.480469 0 89.910156 0 L 10.089844 0 C 4.519531 0 0 4.519531 0 10.089844 L 0 89.910156 C 0 95.480469 4.519531 100 10.089844 100 L 89.910156 100 C 95.480469 100 100 95.480469 100 89.910156 Z M 100 10.089844 "/>
<path style=" stroke:none;fill-rule:evenodd;fill:rgb(30.19608%,30.19608%,30.19608%);fill-opacity:1;" d="M 100 10.089844 C 100 4.519531 95.480469 0 89.910156 0 L 10.089844 0 C 4.519531 0 0 4.519531 0 10.089844 L 0 89.910156 C 0 95.480469 4.519531 100 10.089844 100 L 89.910156 100 C 95.480469 100 100 95.480469 100 89.910156 Z M 94.667969 10.089844 L 94.667969 89.910156 C 94.667969 92.535156 92.535156 94.667969 89.910156 94.667969 C 89.910156 94.667969 10.089844 94.667969 10.089844 94.667969 C 7.464844 94.667969 5.332031 92.535156 5.332031 89.910156 L 5.332031 10.089844 C 5.332031 7.464844 7.464844 5.332031 10.089844 5.332031 L 89.910156 5.332031 C 92.535156 5.332031 94.667969 7.464844 94.667969 10.089844 Z M 94.667969 10.089844 "/>
<path style=" stroke:none;fill-rule:evenodd;fill:rgb(30.19608%,30.19608%,30.19608%);fill-opacity:1;" d="M 57.667969 58.753906 C 57.109375 59.3125 56.539062 59.882812 55.964844 60.453125 L 57.601562 66.5625 C 57.632812 66.679688 57.59375 66.796875 57.511719 66.871094 C 57.507812 66.875 57.503906 66.878906 57.5 66.882812 L 52.171875 72.210938 L 53.417969 76.851562 C 53.433594 76.894531 53.445312 76.9375 53.460938 76.984375 L 54.679688 81.535156 C 54.894531 82.335938 54.417969 83.160156 53.617188 83.375 C 52.816406 83.589844 51.992188 83.113281 51.777344 82.3125 L 51.230469 80.265625 C 51.21875 80.246094 51.210938 80.226562 51.207031 80.207031 L 48.871094 71.488281 C 48.835938 71.367188 48.882812 71.242188 48.972656 71.164062 C 48.980469 71.15625 48.988281 71.148438 48.996094 71.144531 L 54.300781 65.835938 L 53.515625 62.90625 C 52.5625 63.855469 51.667969 64.742188 50.910156 65.492188 C 49.085938 67.300781 47.242188 69.152344 42.253906 68.964844 C 39.035156 68.84375 36.574219 67.144531 35.382812 66.128906 L 49.109375 52.398438 C 49.539062 51.96875 49.539062 51.277344 49.109375 50.847656 C 48.683594 50.421875 47.988281 50.421875 47.5625 50.847656 L 33.832031 64.578125 C 32.8125 63.382812 31.113281 60.925781 30.992188 57.707031 C 30.808594 52.714844 32.65625 50.871094 34.464844 49.050781 C 35.199219 48.308594 36.058594 47.441406 36.980469 46.519531 L 34.25 45.785156 L 28.941406 51.089844 C 28.9375 51.097656 28.929688 51.105469 28.917969 51.113281 C 28.84375 51.203125 28.71875 51.25 28.597656 51.214844 L 19.878906 48.878906 C 19.859375 48.875 19.839844 48.867188 19.820312 48.855469 L 17.773438 48.308594 C 16.972656 48.09375 16.496094 47.269531 16.710938 46.46875 C 16.925781 45.667969 17.75 45.191406 18.550781 45.40625 L 23.101562 46.625 C 23.144531 46.640625 23.191406 46.652344 23.234375 46.671875 L 27.875 47.914062 L 33.203125 42.585938 C 33.207031 42.582031 33.210938 42.578125 33.214844 42.574219 C 33.289062 42.492188 33.40625 42.453125 33.523438 42.484375 L 39.429688 44.066406 C 40.027344 43.46875 40.625 42.871094 41.207031 42.292969 L 38.925781 40.011719 L 32.949219 40.011719 C 32.914062 40.011719 32.878906 40.003906 32.847656 39.996094 C 32.222656 39.953125 31.664062 39.523438 31.496094 38.886719 L 30.277344 34.335938 C 30.0625 33.535156 30.539062 32.710938 31.335938 32.496094 C 32.136719 32.28125 32.960938 32.757812 33.175781 33.558594 L 34.101562 37.007812 L 40.039062 37.007812 C 40.152344 37.007812 40.25 37.066406 40.304688 37.15625 C 40.328125 37.171875 40.347656 37.1875 40.363281 37.203125 L 43.332031 40.171875 L 43.957031 39.542969 L 44.644531 38.859375 L 42.535156 36.746094 C 42.414062 36.625 42.414062 36.429688 42.535156 36.308594 L 47.046875 31.796875 L 47.046875 27.707031 C 47.046875 26.878906 47.71875 26.207031 48.546875 26.207031 C 49.375 26.207031 50.050781 26.878906 50.050781 27.707031 L 50.050781 32.417969 C 50.050781 32.773438 49.925781 33.101562 49.71875 33.355469 C 49.707031 33.378906 49.691406 33.398438 49.671875 33.414062 L 46.5625 36.527344 L 63.597656 53.5625 L 66.710938 50.453125 C 66.726562 50.433594 66.746094 50.417969 66.769531 50.40625 C 67.027344 50.199219 67.351562 50.074219 67.707031 50.074219 L 72.417969 50.074219 C 73.246094 50.074219 73.921875 50.75 73.921875 51.578125 C 73.921875 52.40625 73.246094 53.078125 72.417969 53.078125 L 68.332031 53.078125 L 63.820312 57.589844 C 63.699219 57.710938 63.5 57.710938 63.378906 57.589844 L 61.101562 55.3125 L 60.421875 55.992188 L 59.789062 56.628906 L 62.851562 59.691406 C 62.867188 59.707031 62.882812 59.726562 62.898438 59.75 C 62.988281 59.804688 63.046875 59.902344 63.046875 60.015625 L 63.046875 65.953125 L 66.496094 66.878906 C 67.296875 67.09375 67.773438 67.917969 67.558594 68.71875 C 67.34375 69.519531 66.519531 69.992188 65.71875 69.777344 L 61.171875 68.558594 C 60.53125 68.390625 60.101562 67.832031 60.058594 67.207031 C 60.050781 67.175781 60.042969 67.144531 60.042969 67.105469 L 60.042969 61.128906 Z M 51.371094 39.414062 C 51.613281 39.011719 51.910156 38.636719 52.253906 38.289062 C 53.472656 37.070312 55.09375 36.480469 56.742188 36.503906 C 56.988281 35.507812 57.175781 34.480469 57.296875 33.425781 C 57.886719 28.183594 56.695312 23.171875 54.230469 19.078125 L 54.234375 19.078125 C 53.792969 18.316406 54.054688 17.339844 54.816406 16.902344 C 55.578125 16.460938 56.550781 16.722656 56.992188 17.484375 C 59.738281 22.15625 61.058594 27.835938 60.386719 33.773438 C 60.253906 34.96875 60.042969 36.136719 59.761719 37.269531 C 60.367188 37.582031 60.941406 37.992188 61.460938 38.496094 L 61.507812 38.546875 C 61.992188 39.050781 62.386719 39.609375 62.691406 40.199219 C 63.824219 39.917969 64.988281 39.707031 66.183594 39.574219 C 72.125 38.902344 77.804688 40.21875 82.476562 42.96875 C 83.234375 43.40625 83.496094 44.382812 83.058594 45.144531 C 82.617188 45.90625 81.644531 46.164062 80.882812 45.726562 C 76.785156 43.261719 71.777344 42.070312 66.53125 42.664062 C 65.480469 42.78125 64.453125 42.96875 63.453125 43.21875 C 63.480469 44.867188 62.886719 46.484375 61.667969 47.707031 C 61.324219 48.050781 60.945312 48.34375 60.546875 48.589844 Z M 51.371094 39.414062 "/>
</g>
</svg>
