<?xml version="1.0" encoding="UTF-8"?>
<svg xmlns="http://www.w3.org/2000/svg" xmlns:xlink="http://www.w3.org/1999/xlink" width="100" height="100" viewBox="0 0 100 100" version="1.1">
<g id="surface1">
<path style=" stroke:none;fill-rule:evenodd;fill:rgb(100%,99.607843%,99.607843%);fill-opacity:1;" d="M 100 10.089844 C 100 4.519531 95.480469 0 89.910156 0 L 10.089844 0 C 4.519531 0 0 4.519531 0 10.089844 L 0 89.910156 C 0 95.480469 4.519531 100 10.089844 100 L 89.910156 100 C 95.480469 100 100 95.480469 100 89.910156 Z M 100 10.089844 "/>
<path style=" stroke:none;fill-rule:evenodd;fill:rgb(30.19608%,30.19608%,30.19608%);fill-opacity:1;" d="M 100 10.089844 C 100 4.519531 95.480469 0 89.910156 0 L 10.089844 0 C 4.519531 0 0 4.519531 0 10.089844 L 0 89.910156 C 0 95.480469 4.519531 100 10.089844 100 L 89.910156 100 C 95.480469 100 100 95.480469 100 89.910156 Z M 94.667969 10.089844 L 94.667969 89.910156 C 94.667969 92.535156 92.535156 94.667969 89.910156 94.667969 C 89.910156 94.667969 10.089844 94.667969 10.089844 94.667969 C 7.464844 94.667969 5.332031 92.535156 5.332031 89.910156 L 5.332031 10.089844 C 5.332031 7.464844 7.464844 5.332031 10.089844 5.332031 L 89.910156 5.332031 C 92.535156 5.332031 94.667969 7.464844 94.667969 10.089844 Z M 94.667969 10.089844 "/>
<path style=" stroke:none;fill-rule:evenodd;fill:rgb(30.19608%,30.19608%,30.19608%);fill-opacity:1;" d="M 22.027344 71.898438 C 19.730469 71.898438 18.375 70.609375 17.597656 69.042969 C 16.921875 67.6875 16.71875 66.117188 16.664062 65.234375 L 16.664062 65.226562 C 16.640625 64.734375 16.820312 64.257812 17.15625 63.902344 C 17.496094 63.550781 17.964844 63.347656 18.453125 63.347656 C 22.015625 63.347656 40.816406 63.347656 45.230469 63.347656 C 46.367188 63.347656 47.296875 64.226562 47.375 65.34375 L 52.625 65.34375 C 52.703125 64.226562 53.632812 63.347656 54.769531 63.347656 C 59.183594 63.347656 77.984375 63.347656 81.546875 63.347656 C 82.039062 63.347656 82.507812 63.550781 82.84375 63.902344 C 83.183594 64.257812 83.359375 64.734375 83.335938 65.242188 C 83.28125 66.117188 83.078125 67.6875 82.40625 69.042969 C 81.625 70.609375 80.269531 71.898438 77.972656 71.898438 Z M 52.910156 67.789062 L 47.089844 67.789062 C 45.957031 67.789062 45.027344 66.90625 44.945312 65.792969 L 19.171875 65.792969 C 19.253906 66.433594 19.425781 67.234375 19.785156 67.953125 C 20.183594 68.753906 20.851562 69.453125 22.027344 69.453125 L 77.972656 69.453125 C 79.148438 69.453125 79.816406 68.753906 80.214844 67.953125 C 80.574219 67.234375 80.746094 66.429688 80.828125 65.792969 L 55.054688 65.792969 C 54.976562 66.90625 54.046875 67.789062 52.910156 67.789062 Z M 77.144531 30.453125 C 77.144531 29.15625 76.09375 28.101562 74.796875 28.101562 L 26.851562 28.101562 C 25.554688 28.101562 24.5 29.15625 24.5 30.453125 L 24.5 59.59375 C 24.5 60.894531 25.554688 61.945312 26.851562 61.945312 L 74.796875 61.945312 C 76.09375 61.945312 77.144531 60.894531 77.144531 59.59375 Z M 74.324219 30.921875 L 27.320312 30.921875 L 27.320312 59.125 L 74.324219 59.125 Z M 40.902344 39.25 L 31.570312 48.582031 C 31.3125 48.839844 31.3125 49.257812 31.570312 49.511719 C 31.828125 49.769531 32.246094 49.769531 32.5 49.511719 L 41.832031 40.183594 C 42.089844 39.925781 42.089844 39.507812 41.832031 39.25 C 41.574219 38.996094 41.160156 38.996094 40.902344 39.25 Z M 33.886719 41.640625 L 31.570312 43.953125 C 31.3125 44.210938 31.3125 44.628906 31.570312 44.882812 C 31.828125 45.140625 32.246094 45.140625 32.5 44.882812 L 34.816406 42.570312 C 35.074219 42.3125 35.074219 41.894531 34.816406 41.640625 C 34.558594 41.382812 34.140625 41.382812 33.886719 41.640625 Z M 40.910156 34.695312 L 35.664062 39.941406 C 35.410156 40.199219 35.410156 40.613281 35.664062 40.871094 C 35.921875 41.128906 36.339844 41.128906 36.597656 40.871094 L 41.839844 35.625 C 42.097656 35.371094 42.097656 34.953125 41.839844 34.695312 C 41.585938 34.4375 41.167969 34.4375 40.910156 34.695312 Z M 45.753906 34.484375 L 43.261719 36.976562 C 43.003906 37.230469 43.003906 37.648438 43.261719 37.90625 C 43.515625 38.164062 43.933594 38.164062 44.191406 37.90625 L 46.683594 35.414062 C 46.941406 35.15625 46.941406 34.738281 46.683594 34.484375 C 46.425781 34.226562 46.007812 34.226562 45.753906 34.484375 Z M 45.753906 34.484375 "/>
<path style=" stroke:none;fill-rule:evenodd;fill:rgb(30.19608%,30.19608%,30.19608%);fill-opacity:1;" d="M 22.027344 71.898438 C 19.730469 71.898438 18.375 70.609375 17.597656 69.042969 C 16.921875 67.6875 16.71875 66.117188 16.664062 65.234375 L 16.664062 65.226562 C 16.640625 64.734375 16.820312 64.257812 17.15625 63.902344 C 17.496094 63.550781 17.964844 63.347656 18.453125 63.347656 C 22.015625 63.347656 40.816406 63.347656 45.230469 63.347656 C 46.367188 63.347656 47.296875 64.226562 47.375 65.34375 L 52.625 65.34375 C 52.703125 64.226562 53.632812 63.347656 54.769531 63.347656 C 59.183594 63.347656 77.984375 63.347656 81.546875 63.347656 C 82.039062 63.347656 82.507812 63.550781 82.84375 63.902344 C 83.183594 64.257812 83.359375 64.734375 83.335938 65.242188 C 83.28125 66.117188 83.078125 67.6875 82.40625 69.042969 C 81.625 70.609375 80.269531 71.898438 77.972656 71.898438 Z M 52.910156 67.789062 L 47.089844 67.789062 C 45.957031 67.789062 45.027344 66.90625 44.945312 65.792969 L 19.171875 65.792969 C 19.253906 66.433594 19.425781 67.234375 19.785156 67.953125 C 20.183594 68.753906 20.851562 69.453125 22.027344 69.453125 L 77.972656 69.453125 C 79.148438 69.453125 79.816406 68.753906 80.214844 67.953125 C 80.574219 67.234375 80.746094 66.429688 80.828125 65.792969 L 55.054688 65.792969 C 54.976562 66.90625 54.046875 67.789062 52.910156 67.789062 Z M 77.144531 30.453125 C 77.144531 29.15625 76.09375 28.101562 74.796875 28.101562 L 26.851562 28.101562 C 25.554688 28.101562 24.5 29.15625 24.5 30.453125 L 24.5 59.59375 C 24.5 60.894531 25.554688 61.945312 26.851562 61.945312 L 74.796875 61.945312 C 76.09375 61.945312 77.144531 60.894531 77.144531 59.59375 Z M 74.324219 30.921875 L 27.320312 30.921875 L 27.320312 59.125 L 74.324219 59.125 Z M 40.902344 39.25 L 31.570312 48.582031 C 31.3125 48.839844 31.3125 49.257812 31.570312 49.511719 C 31.828125 49.769531 32.246094 49.769531 32.5 49.511719 L 41.832031 40.183594 C 42.089844 39.925781 42.089844 39.507812 41.832031 39.25 C 41.574219 38.996094 41.160156 38.996094 40.902344 39.25 Z M 33.886719 41.640625 L 31.570312 43.953125 C 31.3125 44.210938 31.3125 44.628906 31.570312 44.882812 C 31.828125 45.140625 32.246094 45.140625 32.5 44.882812 L 34.816406 42.570312 C 35.074219 42.3125 35.074219 41.894531 34.816406 41.640625 C 34.558594 41.382812 34.140625 41.382812 33.886719 41.640625 Z M 40.910156 34.695312 L 35.664062 39.941406 C 35.410156 40.199219 35.410156 40.613281 35.664062 40.871094 C 35.921875 41.128906 36.339844 41.128906 36.597656 40.871094 L 41.839844 35.625 C 42.097656 35.371094 42.097656 34.953125 41.839844 34.695312 C 41.585938 34.4375 41.167969 34.4375 40.910156 34.695312 Z M 45.753906 34.484375 L 43.261719 36.976562 C 43.003906 37.230469 43.003906 37.648438 43.261719 37.90625 C 43.515625 38.164062 43.933594 38.164062 44.191406 37.90625 L 46.683594 35.414062 C 46.941406 35.15625 46.941406 34.738281 46.683594 34.484375 C 46.425781 34.226562 46.007812 34.226562 45.753906 34.484375 Z M 45.753906 34.484375 "/>
</g>
</svg>
