<?xml version="1.0" encoding="UTF-8"?>
<svg xmlns="http://www.w3.org/2000/svg" xmlns:xlink="http://www.w3.org/1999/xlink" width="100" height="100" viewBox="0 0 100 100" version="1.1">
<g id="surface1">
<path style=" stroke:none;fill-rule:evenodd;fill:rgb(100%,99.607843%,99.607843%);fill-opacity:1;" d="M 100 10.089844 C 100 4.519531 95.480469 0 89.910156 0 L 10.089844 0 C 4.519531 0 0 4.519531 0 10.089844 L 0 89.910156 C 0 95.480469 4.519531 100 10.089844 100 L 89.910156 100 C 95.480469 100 100 95.480469 100 89.910156 Z M 100 10.089844 "/>
<path style=" stroke:none;fill-rule:evenodd;fill:rgb(30.19608%,30.19608%,30.19608%);fill-opacity:1;" d="M 100 10.089844 C 100 4.519531 95.480469 0 89.910156 0 L 10.089844 0 C 4.519531 0 0 4.519531 0 10.089844 L 0 89.910156 C 0 95.480469 4.519531 100 10.089844 100 L 89.910156 100 C 95.480469 100 100 95.480469 100 89.910156 Z M 94.667969 10.089844 L 94.667969 89.910156 C 94.667969 92.535156 92.535156 94.667969 89.910156 94.667969 C 89.910156 94.667969 10.089844 94.667969 10.089844 94.667969 C 7.464844 94.667969 5.332031 92.535156 5.332031 89.910156 L 5.332031 10.089844 C 5.332031 7.464844 7.464844 5.332031 10.089844 5.332031 L 89.910156 5.332031 C 92.535156 5.332031 94.667969 7.464844 94.667969 10.089844 Z M 94.667969 10.089844 "/>
<path style=" stroke:none;fill-rule:evenodd;fill:rgb(30.19608%,30.19608%,30.19608%);fill-opacity:1;" d="M 61.285156 53.011719 C 60.820312 55.25 59.84375 57.296875 58.476562 59.027344 L 65.339844 67.195312 L 66.011719 59.484375 L 71.507812 66.03125 L 70.488281 77.75 L 58.460938 76.699219 L 53.144531 70.371094 L 60.871094 71.042969 L 53.964844 62.824219 C 51.921875 63.925781 49.582031 64.554688 47.097656 64.554688 C 40.101562 64.554688 34.253906 59.578125 32.90625 52.976562 L 26.863281 52.976562 C 25.886719 54.542969 24.152344 55.582031 22.175781 55.582031 C 19.132812 55.582031 16.660156 53.113281 16.660156 50.066406 C 16.660156 47.023438 19.132812 44.550781 22.175781 44.550781 C 24.152344 44.550781 25.886719 45.59375 26.863281 47.160156 L 32.90625 47.160156 C 34.253906 40.554688 40.101562 35.582031 47.097656 35.582031 C 49.582031 35.582031 51.917969 36.207031 53.960938 37.3125 L 60.824219 29.144531 L 53.109375 29.816406 L 58.609375 23.269531 L 70.328125 22.25 L 71.371094 34.28125 L 66.054688 40.609375 L 65.382812 32.882812 L 58.476562 41.105469 C 59.839844 42.835938 60.820312 44.878906 61.28125 47.117188 L 71.945312 47.117188 L 66.472656 41.640625 L 75.019531 41.640625 L 83.339844 49.957031 L 74.800781 58.496094 L 66.535156 58.496094 L 72.019531 53.011719 Z M 47.097656 40.066406 C 52.621094 40.066406 57.101562 44.546875 57.101562 50.066406 C 57.101562 55.589844 52.621094 60.070312 47.097656 60.070312 C 41.578125 60.070312 37.097656 55.589844 37.097656 50.066406 C 37.097656 44.546875 41.578125 40.066406 47.097656 40.066406 Z M 47.097656 40.066406 "/>
</g>
</svg>
