<?xml version="1.0" encoding="UTF-8"?>
<svg xmlns="http://www.w3.org/2000/svg" xmlns:xlink="http://www.w3.org/1999/xlink" width="100" height="100" viewBox="0 0 100 100" version="1.1">
<g id="surface1">
<path style=" stroke:none;fill-rule:evenodd;fill:rgb(100%,99.607843%,99.607843%);fill-opacity:1;" d="M 100 10.089844 C 100 4.519531 95.480469 0 89.910156 0 L 10.089844 0 C 4.519531 0 0 4.519531 0 10.089844 L 0 89.910156 C 0 95.480469 4.519531 100 10.089844 100 L 89.910156 100 C 95.480469 100 100 95.480469 100 89.910156 Z M 100 10.089844 "/>
<path style=" stroke:none;fill-rule:evenodd;fill:rgb(30.19608%,30.19608%,30.19608%);fill-opacity:1;" d="M 100 10.089844 C 100 4.519531 95.480469 0 89.910156 0 L 10.089844 0 C 4.519531 0 0 4.519531 0 10.089844 L 0 89.910156 C 0 95.480469 4.519531 100 10.089844 100 L 89.910156 100 C 95.480469 100 100 95.480469 100 89.910156 Z M 94.667969 10.089844 L 94.667969 89.910156 C 94.667969 92.535156 92.535156 94.667969 89.910156 94.667969 C 89.910156 94.667969 10.089844 94.667969 10.089844 94.667969 C 7.464844 94.667969 5.332031 92.535156 5.332031 89.910156 L 5.332031 10.089844 C 5.332031 7.464844 7.464844 5.332031 10.089844 5.332031 L 89.910156 5.332031 C 92.535156 5.332031 94.667969 7.464844 94.667969 10.089844 Z M 94.667969 10.089844 "/>
<path style=" stroke:none;fill-rule:evenodd;fill:rgb(30.19608%,30.19608%,30.19608%);fill-opacity:1;" d="M 44.535156 39.804688 L 47.039062 39.804688 L 47.039062 29.007812 C 47.039062 28.839844 47.089844 28.683594 47.179688 28.554688 C 47.324219 28.351562 47.5625 28.21875 47.828125 28.21875 L 57.886719 28.21875 L 57.886719 27.550781 C 57.886719 27.179688 58.1875 26.882812 58.554688 26.882812 L 68.746094 26.882812 C 69.113281 26.882812 69.414062 27.179688 69.414062 27.550781 L 69.414062 28.21875 L 79.433594 28.21875 C 79.699219 28.21875 79.9375 28.351562 80.078125 28.554688 C 80.167969 28.683594 80.222656 28.839844 80.222656 29.007812 L 80.222656 69.957031 L 82.546875 69.957031 C 82.984375 69.957031 83.339844 70.3125 83.339844 70.746094 L 83.339844 72.328125 C 83.339844 72.761719 82.984375 73.117188 82.546875 73.117188 L 17.453125 73.117188 C 17.015625 73.117188 16.660156 72.761719 16.660156 72.328125 L 16.660156 70.746094 C 16.660156 70.3125 17.015625 69.957031 17.453125 69.957031 L 19.265625 69.957031 L 19.265625 40.59375 C 19.265625 40.554688 19.269531 40.515625 19.273438 40.480469 L 19.273438 40.476562 C 19.332031 40.097656 19.660156 39.804688 20.054688 39.804688 L 25.550781 39.804688 L 25.550781 38.625 C 25.550781 38.253906 25.851562 37.957031 26.21875 37.957031 L 31.886719 37.957031 C 32.253906 37.957031 32.554688 38.253906 32.554688 38.625 L 32.554688 39.804688 L 37.53125 39.804688 L 37.53125 38.625 C 37.53125 38.253906 37.832031 37.957031 38.199219 37.957031 L 43.867188 37.957031 C 44.234375 37.957031 44.535156 38.253906 44.535156 38.625 Z M 47.039062 42.964844 L 22.425781 42.964844 L 22.425781 69.957031 L 47.039062 69.957031 Z M 77.0625 31.378906 L 50.199219 31.378906 L 50.199219 69.957031 L 58.796875 69.957031 L 58.796875 62.644531 C 58.796875 62.421875 58.976562 62.242188 59.199219 62.242188 L 68.101562 62.242188 C 68.324219 62.242188 68.503906 62.421875 68.503906 62.644531 L 68.503906 69.957031 L 77.0625 69.957031 Z M 62.824219 63.847656 L 60.402344 63.847656 L 60.402344 69.957031 L 62.824219 69.957031 Z M 66.898438 63.847656 L 64.425781 63.847656 L 64.425781 69.957031 L 66.898438 69.957031 Z M 28.710938 62.417969 L 25.550781 62.417969 L 25.550781 65.578125 L 28.710938 65.578125 Z M 35.984375 62.417969 L 32.824219 62.417969 L 32.824219 65.578125 L 35.984375 65.578125 Z M 43.253906 62.417969 L 40.09375 62.417969 L 40.09375 65.578125 L 43.253906 65.578125 Z M 28.710938 54.839844 L 25.550781 54.839844 L 25.550781 58 L 28.710938 58 Z M 35.984375 54.839844 L 32.824219 54.839844 L 32.824219 58 L 35.984375 58 Z M 43.253906 54.839844 L 40.09375 54.839844 L 40.09375 58 L 43.253906 58 Z M 57.957031 51.679688 L 54.796875 51.679688 L 54.796875 54.839844 L 57.957031 54.839844 Z M 65.230469 51.679688 L 62.070312 51.679688 L 62.070312 54.839844 L 65.230469 54.839844 Z M 72.5 51.679688 L 69.34375 51.679688 L 69.34375 54.839844 L 72.5 54.839844 Z M 28.710938 47.261719 L 25.550781 47.261719 L 25.550781 50.421875 L 28.710938 50.421875 Z M 35.984375 47.261719 L 32.824219 47.261719 L 32.824219 50.421875 L 35.984375 50.421875 Z M 43.253906 47.261719 L 40.09375 47.261719 L 40.09375 50.421875 L 43.253906 50.421875 Z M 57.957031 44.101562 L 54.796875 44.101562 L 54.796875 47.261719 L 57.957031 47.261719 Z M 65.230469 44.101562 L 62.070312 44.101562 L 62.070312 47.261719 L 65.230469 47.261719 Z M 72.5 44.101562 L 69.34375 44.101562 L 69.34375 47.261719 L 72.5 47.261719 Z M 57.957031 36.523438 L 54.796875 36.523438 L 54.796875 39.683594 L 57.957031 39.683594 Z M 65.230469 36.523438 L 62.070312 36.523438 L 62.070312 39.683594 L 65.230469 39.683594 Z M 72.5 36.523438 L 69.34375 36.523438 L 69.34375 39.683594 L 72.5 39.683594 Z M 72.5 36.523438 "/>
</g>
</svg>
