<?xml version="1.0" encoding="UTF-8"?>
<svg xmlns="http://www.w3.org/2000/svg" xmlns:xlink="http://www.w3.org/1999/xlink" width="100" height="100" viewBox="0 0 100 100" version="1.1">
<g id="surface1">
<path style=" stroke:none;fill-rule:evenodd;fill:rgb(100%,99.607843%,99.607843%);fill-opacity:1;" d="M 100 10.089844 C 100 4.519531 95.480469 0 89.910156 0 L 10.089844 0 C 4.519531 0 0 4.519531 0 10.089844 L 0 89.910156 C 0 95.480469 4.519531 100 10.089844 100 L 89.910156 100 C 95.480469 100 100 95.480469 100 89.910156 Z M 100 10.089844 "/>
<path style=" stroke:none;fill-rule:evenodd;fill:rgb(30.19608%,30.19608%,30.19608%);fill-opacity:1;" d="M 89.976562 0 L 90.039062 0 L 90.105469 0.00390625 L 90.234375 0.00390625 L 90.300781 0.0078125 L 90.363281 0.0117188 L 90.429688 0.0117188 L 90.492188 0.015625 L 90.558594 0.0195312 L 90.621094 0.0234375 L 90.6875 0.03125 L 90.8125 0.0390625 L 90.878906 0.046875 L 90.941406 0.0507812 L 91.066406 0.0664062 L 91.132812 0.0742188 L 91.382812 0.105469 L 91.445312 0.117188 L 91.507812 0.125 L 91.632812 0.148438 L 91.695312 0.15625 L 91.820312 0.179688 L 91.878906 0.191406 L 91.941406 0.203125 L 92.003906 0.21875 L 92.066406 0.230469 L 92.125 0.246094 L 92.1875 0.257812 L 92.25 0.273438 L 92.308594 0.289062 L 92.371094 0.300781 L 92.429688 0.316406 L 92.492188 0.332031 L 92.550781 0.351562 L 92.609375 0.367188 L 92.671875 0.382812 L 92.730469 0.398438 L 92.789062 0.417969 L 92.851562 0.4375 L 92.910156 0.453125 L 93.320312 0.589844 L 93.378906 0.613281 L 93.4375 0.632812 L 93.492188 0.65625 L 93.550781 0.679688 L 93.609375 0.699219 L 93.664062 0.722656 L 93.722656 0.746094 L 93.777344 0.769531 L 93.835938 0.792969 L 93.890625 0.816406 L 93.949219 0.84375 L 94.003906 0.867188 L 94.0625 0.890625 L 94.117188 0.917969 L 94.171875 0.941406 L 94.335938 1.023438 L 94.394531 1.050781 L 94.449219 1.078125 L 94.5 1.105469 L 94.609375 1.160156 L 94.664062 1.191406 L 94.71875 1.21875 L 94.769531 1.246094 L 94.878906 1.308594 L 94.929688 1.335938 L 94.984375 1.367188 L 95.035156 1.398438 L 95.089844 1.429688 L 95.242188 1.523438 L 95.296875 1.558594 L 95.347656 1.589844 L 95.398438 1.625 L 95.449219 1.65625 L 95.5 1.691406 L 95.550781 1.722656 L 95.601562 1.757812 L 95.648438 1.792969 L 95.75 1.863281 L 95.796875 1.898438 L 95.898438 1.96875 L 95.945312 2.003906 L 95.992188 2.042969 L 96.042969 2.078125 L 96.089844 2.117188 L 96.136719 2.152344 L 96.183594 2.191406 L 96.234375 2.230469 L 96.28125 2.265625 L 96.328125 2.304688 L 96.371094 2.34375 L 96.558594 2.5 L 96.601562 2.542969 L 96.648438 2.582031 L 96.691406 2.621094 L 96.738281 2.664062 L 96.78125 2.703125 L 96.824219 2.746094 L 96.871094 2.789062 L 96.914062 2.828125 L 97.171875 3.085938 L 97.210938 3.128906 L 97.253906 3.175781 L 97.296875 3.21875 L 97.335938 3.261719 L 97.378906 3.308594 L 97.417969 3.351562 L 97.457031 3.398438 L 97.5 3.441406 L 97.65625 3.628906 L 97.695312 3.671875 L 97.734375 3.71875 L 97.769531 3.765625 L 97.808594 3.816406 L 97.847656 3.863281 L 97.882812 3.910156 L 97.921875 3.957031 L 97.957031 4.007812 L 97.996094 4.054688 L 98.03125 4.101562 L 98.101562 4.203125 L 98.136719 4.25 L 98.207031 4.351562 L 98.242188 4.398438 L 98.277344 4.449219 L 98.308594 4.5 L 98.34375 4.550781 L 98.375 4.601562 L 98.410156 4.652344 L 98.441406 4.703125 L 98.476562 4.757812 L 98.570312 4.910156 L 98.601562 4.964844 L 98.632812 5.015625 L 98.664062 5.070312 L 98.691406 5.121094 L 98.753906 5.230469 L 98.78125 5.28125 L 98.808594 5.335938 L 98.839844 5.390625 L 98.894531 5.5 L 98.921875 5.550781 L 98.949219 5.605469 L 98.976562 5.664062 L 99.058594 5.828125 L 99.082031 5.882812 L 99.109375 5.9375 L 99.132812 5.996094 L 99.15625 6.050781 L 99.183594 6.109375 L 99.207031 6.164062 L 99.230469 6.222656 L 99.253906 6.277344 L 99.277344 6.335938 L 99.300781 6.390625 L 99.320312 6.449219 L 99.34375 6.507812 L 99.367188 6.5625 L 99.386719 6.621094 L 99.410156 6.679688 L 99.546875 7.089844 L 99.5625 7.148438 L 99.582031 7.210938 L 99.601562 7.269531 L 99.617188 7.328125 L 99.632812 7.390625 L 99.648438 7.449219 L 99.667969 7.507812 L 99.683594 7.570312 L 99.699219 7.628906 L 99.710938 7.691406 L 99.726562 7.75 L 99.742188 7.8125 L 99.753906 7.875 L 99.769531 7.933594 L 99.78125 7.996094 L 99.796875 8.058594 L 99.808594 8.121094 L 99.820312 8.179688 L 99.84375 8.304688 L 99.851562 8.367188 L 99.875 8.492188 L 99.882812 8.554688 L 99.894531 8.617188 L 99.925781 8.867188 L 99.933594 8.933594 L 99.949219 9.058594 L 99.953125 9.121094 L 99.960938 9.1875 L 99.96875 9.3125 L 99.976562 9.378906 L 99.980469 9.441406 L 99.984375 9.507812 L 99.988281 9.570312 L 99.988281 9.636719 L 99.992188 9.699219 L 99.996094 9.765625 L 99.996094 9.894531 L 100 9.960938 L 100 90.039062 L 99.996094 90.105469 L 99.996094 90.234375 L 99.992188 90.300781 L 99.988281 90.363281 L 99.988281 90.429688 L 99.984375 90.492188 L 99.980469 90.558594 L 99.976562 90.621094 L 99.96875 90.6875 L 99.960938 90.8125 L 99.953125 90.878906 L 99.949219 90.941406 L 99.933594 91.066406 L 99.925781 91.132812 L 99.894531 91.382812 L 99.882812 91.445312 L 99.875 91.507812 L 99.851562 91.632812 L 99.84375 91.695312 L 99.820312 91.820312 L 99.808594 91.878906 L 99.796875 91.941406 L 99.78125 92.003906 L 99.769531 92.066406 L 99.753906 92.125 L 99.742188 92.1875 L 99.726562 92.25 L 99.710938 92.308594 L 99.699219 92.371094 L 99.683594 92.429688 L 99.667969 92.492188 L 99.648438 92.550781 L 99.632812 92.609375 L 99.617188 92.671875 L 99.601562 92.730469 L 99.582031 92.789062 L 99.5625 92.851562 L 99.546875 92.910156 L 99.410156 93.320312 L 99.386719 93.378906 L 99.367188 93.4375 L 99.34375 93.492188 L 99.320312 93.550781 L 99.300781 93.609375 L 99.277344 93.664062 L 99.253906 93.722656 L 99.230469 93.777344 L 99.207031 93.835938 L 99.183594 93.890625 L 99.15625 93.949219 L 99.132812 94.003906 L 99.109375 94.0625 L 99.082031 94.117188 L 99.058594 94.171875 L 98.976562 94.335938 L 98.949219 94.394531 L 98.921875 94.449219 L 98.894531 94.5 L 98.839844 94.609375 L 98.808594 94.664062 L 98.78125 94.71875 L 98.753906 94.769531 L 98.691406 94.878906 L 98.664062 94.929688 L 98.632812 94.984375 L 98.601562 95.035156 L 98.570312 95.089844 L 98.476562 95.242188 L 98.441406 95.296875 L 98.410156 95.347656 L 98.375 95.398438 L 98.34375 95.449219 L 98.308594 95.5 L 98.277344 95.550781 L 98.242188 95.601562 L 98.207031 95.648438 L 98.136719 95.75 L 98.101562 95.796875 L 98.03125 95.898438 L 97.996094 95.945312 L 97.957031 95.992188 L 97.921875 96.042969 L 97.882812 96.089844 L 97.847656 96.136719 L 97.808594 96.183594 L 97.769531 96.234375 L 97.734375 96.28125 L 97.695312 96.328125 L 97.65625 96.371094 L 97.5 96.558594 L 97.457031 96.601562 L 97.417969 96.648438 L 97.378906 96.691406 L 97.335938 96.738281 L 97.296875 96.78125 L 97.253906 96.824219 L 97.210938 96.871094 L 97.171875 96.914062 L 96.914062 97.171875 L 96.871094 97.210938 L 96.824219 97.253906 L 96.78125 97.296875 L 96.738281 97.335938 L 96.691406 97.378906 L 96.648438 97.417969 L 96.601562 97.457031 L 96.558594 97.5 L 96.371094 97.65625 L 96.328125 97.695312 L 96.28125 97.734375 L 96.234375 97.769531 L 96.183594 97.808594 L 96.136719 97.847656 L 96.089844 97.882812 L 96.042969 97.921875 L 95.992188 97.957031 L 95.945312 97.996094 L 95.898438 98.03125 L 95.796875 98.101562 L 95.75 98.136719 L 95.648438 98.207031 L 95.601562 98.242188 L 95.550781 98.277344 L 95.5 98.308594 L 95.449219 98.34375 L 95.398438 98.375 L 95.347656 98.410156 L 95.296875 98.441406 L 95.242188 98.476562 L 95.089844 98.570312 L 95.035156 98.601562 L 94.984375 98.632812 L 94.929688 98.664062 L 94.878906 98.691406 L 94.769531 98.753906 L 94.71875 98.78125 L 94.664062 98.808594 L 94.609375 98.839844 L 94.5 98.894531 L 94.449219 98.921875 L 94.394531 98.949219 L 94.335938 98.976562 L 94.171875 99.058594 L 94.117188 99.082031 L 94.0625 99.109375 L 94.003906 99.132812 L 93.949219 99.15625 L 93.890625 99.183594 L 93.835938 99.207031 L 93.777344 99.230469 L 93.722656 99.253906 L 93.664062 99.277344 L 93.609375 99.300781 L 93.550781 99.320312 L 93.492188 99.34375 L 93.4375 99.367188 L 93.378906 99.386719 L 93.320312 99.410156 L 92.910156 99.546875 L 92.851562 99.5625 L 92.789062 99.582031 L 92.730469 99.601562 L 92.671875 99.617188 L 92.609375 99.632812 L 92.550781 99.648438 L 92.492188 99.667969 L 92.429688 99.683594 L 92.371094 99.699219 L 92.308594 99.710938 L 92.25 99.726562 L 92.1875 99.742188 L 92.125 99.753906 L 92.066406 99.769531 L 92.003906 99.78125 L 91.941406 99.796875 L 91.878906 99.808594 L 91.820312 99.820312 L 91.695312 99.84375 L 91.632812 99.851562 L 91.507812 99.875 L 91.445312 99.882812 L 91.382812 99.894531 L 91.132812 99.925781 L 91.066406 99.933594 L 90.941406 99.949219 L 90.878906 99.953125 L 90.8125 99.960938 L 90.6875 99.96875 L 90.621094 99.976562 L 90.558594 99.980469 L 90.492188 99.984375 L 90.429688 99.988281 L 90.363281 99.988281 L 90.300781 99.992188 L 90.234375 99.996094 L 90.105469 99.996094 L 90.039062 100 L 9.960938 100 L 9.894531 99.996094 L 9.765625 99.996094 L 9.699219 99.992188 L 9.636719 99.988281 L 9.570312 99.988281 L 9.507812 99.984375 L 9.441406 99.980469 L 9.378906 99.976562 L 9.3125 99.96875 L 9.1875 99.960938 L 9.121094 99.953125 L 9.058594 99.949219 L 8.933594 99.933594 L 8.867188 99.925781 L 8.617188 99.894531 L 8.554688 99.882812 L 8.492188 99.875 L 8.367188 99.851562 L 8.304688 99.84375 L 8.179688 99.820312 L 8.121094 99.808594 L 8.058594 99.796875 L 7.996094 99.78125 L 7.933594 99.769531 L 7.875 99.753906 L 7.8125 99.742188 L 7.75 99.726562 L 7.691406 99.710938 L 7.628906 99.699219 L 7.570312 99.683594 L 7.507812 99.667969 L 7.449219 99.648438 L 7.390625 99.632812 L 7.328125 99.617188 L 7.269531 99.601562 L 7.210938 99.582031 L 7.148438 99.5625 L 7.089844 99.546875 L 6.679688 99.410156 L 6.621094 99.386719 L 6.5625 99.367188 L 6.507812 99.34375 L 6.449219 99.320312 L 6.390625 99.300781 L 6.335938 99.277344 L 6.277344 99.253906 L 6.222656 99.230469 L 6.164062 99.207031 L 6.109375 99.183594 L 6.050781 99.15625 L 5.996094 99.132812 L 5.9375 99.109375 L 5.882812 99.082031 L 5.828125 99.058594 L 5.664062 98.976562 L 5.605469 98.949219 L 5.550781 98.921875 L 5.5 98.894531 L 5.390625 98.839844 L 5.335938 98.808594 L 5.28125 98.78125 L 5.230469 98.753906 L 5.121094 98.691406 L 5.070312 98.664062 L 5.015625 98.632812 L 4.964844 98.601562 L 4.910156 98.570312 L 4.757812 98.476562 L 4.703125 98.441406 L 4.652344 98.410156 L 4.601562 98.375 L 4.550781 98.34375 L 4.5 98.308594 L 4.449219 98.277344 L 4.398438 98.242188 L 4.351562 98.207031 L 4.25 98.136719 L 4.203125 98.101562 L 4.101562 98.03125 L 4.054688 97.996094 L 4.007812 97.957031 L 3.957031 97.921875 L 3.910156 97.882812 L 3.863281 97.847656 L 3.816406 97.808594 L 3.765625 97.769531 L 3.71875 97.734375 L 3.671875 97.695312 L 3.628906 97.65625 L 3.441406 97.5 L 3.398438 97.457031 L 3.351562 97.417969 L 3.308594 97.378906 L 3.261719 97.335938 L 3.21875 97.296875 L 3.175781 97.253906 L 3.128906 97.210938 L 3.085938 97.171875 L 2.828125 96.914062 L 2.789062 96.871094 L 2.746094 96.824219 L 2.703125 96.78125 L 2.664062 96.738281 L 2.621094 96.691406 L 2.582031 96.648438 L 2.542969 96.601562 L 2.5 96.558594 L 2.34375 96.371094 L 2.304688 96.328125 L 2.265625 96.28125 L 2.230469 96.234375 L 2.191406 96.183594 L 2.152344 96.136719 L 2.117188 96.089844 L 2.078125 96.042969 L 2.042969 95.992188 L 2.003906 95.945312 L 1.96875 95.898438 L 1.898438 95.796875 L 1.863281 95.75 L 1.792969 95.648438 L 1.757812 95.601562 L 1.722656 95.550781 L 1.691406 95.5 L 1.65625 95.449219 L 1.625 95.398438 L 1.589844 95.347656 L 1.558594 95.296875 L 1.523438 95.242188 L 1.429688 95.089844 L 1.398438 95.035156 L 1.367188 94.984375 L 1.335938 94.929688 L 1.308594 94.878906 L 1.246094 94.769531 L 1.21875 94.71875 L 1.191406 94.664062 L 1.160156 94.609375 L 1.105469 94.5 L 1.078125 94.449219 L 1.050781 94.394531 L 1.023438 94.335938 L 0.941406 94.171875 L 0.917969 94.117188 L 0.890625 94.0625 L 0.867188 94.003906 L 0.84375 93.949219 L 0.816406 93.890625 L 0.792969 93.835938 L 0.769531 93.777344 L 0.746094 93.722656 L 0.722656 93.664062 L 0.699219 93.609375 L 0.679688 93.550781 L 0.65625 93.492188 L 0.632812 93.4375 L 0.613281 93.378906 L 0.589844 93.320312 L 0.453125 92.910156 L 0.4375 92.851562 L 0.417969 92.789062 L 0.398438 92.730469 L 0.382812 92.671875 L 0.367188 92.609375 L 0.351562 92.550781 L 0.332031 92.492188 L 0.316406 92.429688 L 0.300781 92.371094 L 0.289062 92.308594 L 0.273438 92.25 L 0.257812 92.1875 L 0.246094 92.125 L 0.230469 92.066406 L 0.21875 92.003906 L 0.203125 91.941406 L 0.191406 91.878906 L 0.179688 91.820312 L 0.15625 91.695312 L 0.148438 91.632812 L 0.125 91.507812 L 0.117188 91.445312 L 0.105469 91.382812 L 0.0742188 91.132812 L 0.0664062 91.066406 L 0.0507812 90.941406 L 0.046875 90.878906 L 0.0390625 90.8125 L 0.03125 90.6875 L 0.0234375 90.621094 L 0.0195312 90.558594 L 0.015625 90.492188 L 0.0117188 90.429688 L 0.0117188 90.363281 L 0.0078125 90.300781 L 0.00390625 90.234375 L 0.00390625 90.105469 L 0 90.039062 L 0 9.960938 L 0.00390625 9.894531 L 0.00390625 9.765625 L 0.0078125 9.699219 L 0.0117188 9.636719 L 0.0117188 9.570312 L 0.015625 9.507812 L 0.0195312 9.441406 L 0.0234375 9.378906 L 0.03125 9.3125 L 0.0390625 9.1875 L 0.046875 9.121094 L 0.0507812 9.058594 L 0.0664062 8.933594 L 0.0742188 8.867188 L 0.105469 8.617188 L 0.117188 8.554688 L 0.125 8.492188 L 0.148438 8.367188 L 0.15625 8.304688 L 0.179688 8.179688 L 0.191406 8.121094 L 0.203125 8.058594 L 0.21875 7.996094 L 0.230469 7.933594 L 0.246094 7.875 L 0.257812 7.8125 L 0.273438 7.75 L 0.289062 7.691406 L 0.300781 7.628906 L 0.316406 7.570312 L 0.332031 7.507812 L 0.351562 7.449219 L 0.367188 7.390625 L 0.382812 7.328125 L 0.398438 7.269531 L 0.417969 7.210938 L 0.4375 7.148438 L 0.453125 7.089844 L 0.589844 6.679688 L 0.613281 6.621094 L 0.632812 6.5625 L 0.65625 6.507812 L 0.679688 6.449219 L 0.699219 6.390625 L 0.722656 6.335938 L 0.746094 6.277344 L 0.769531 6.222656 L 0.792969 6.164062 L 0.816406 6.109375 L 0.84375 6.050781 L 0.867188 5.996094 L 0.890625 5.9375 L 0.917969 5.882812 L 0.941406 5.828125 L 1.023438 5.664062 L 1.050781 5.605469 L 1.078125 5.550781 L 1.105469 5.5 L 1.160156 5.390625 L 1.191406 5.335938 L 1.21875 5.28125 L 1.246094 5.230469 L 1.308594 5.121094 L 1.335938 5.070312 L 1.367188 5.015625 L 1.398438 4.964844 L 1.429688 4.910156 L 1.523438 4.757812 L 1.558594 4.703125 L 1.589844 4.652344 L 1.625 4.601562 L 1.65625 4.550781 L 1.691406 4.5 L 1.722656 4.449219 L 1.757812 4.398438 L 1.792969 4.351562 L 1.863281 4.25 L 1.898438 4.203125 L 1.96875 4.101562 L 2.003906 4.054688 L 2.042969 4.007812 L 2.078125 3.957031 L 2.117188 3.910156 L 2.152344 3.863281 L 2.191406 3.816406 L 2.230469 3.765625 L 2.265625 3.71875 L 2.304688 3.671875 L 2.34375 3.628906 L 2.5 3.441406 L 2.542969 3.398438 L 2.582031 3.351562 L 2.621094 3.308594 L 2.664062 3.261719 L 2.703125 3.21875 L 2.746094 3.175781 L 2.789062 3.128906 L 2.828125 3.085938 L 3.085938 2.828125 L 3.128906 2.789062 L 3.175781 2.746094 L 3.21875 2.703125 L 3.261719 2.664062 L 3.308594 2.621094 L 3.351562 2.582031 L 3.398438 2.542969 L 3.441406 2.5 L 3.628906 2.34375 L 3.671875 2.304688 L 3.71875 2.265625 L 3.765625 2.230469 L 3.816406 2.191406 L 3.863281 2.152344 L 3.910156 2.117188 L 3.957031 2.078125 L 4.007812 2.042969 L 4.054688 2.003906 L 4.101562 1.96875 L 4.203125 1.898438 L 4.25 1.863281 L 4.351562 1.792969 L 4.398438 1.757812 L 4.449219 1.722656 L 4.5 1.691406 L 4.550781 1.65625 L 4.601562 1.625 L 4.652344 1.589844 L 4.703125 1.558594 L 4.757812 1.523438 L 4.910156 1.429688 L 4.964844 1.398438 L 5.015625 1.367188 L 5.070312 1.335938 L 5.121094 1.308594 L 5.230469 1.246094 L 5.28125 1.21875 L 5.335938 1.191406 L 5.390625 1.160156 L 5.5 1.105469 L 5.550781 1.078125 L 5.605469 1.050781 L 5.664062 1.023438 L 5.828125 0.941406 L 5.882812 0.917969 L 5.9375 0.890625 L 5.996094 0.867188 L 6.050781 0.84375 L 6.109375 0.816406 L 6.164062 0.792969 L 6.222656 0.769531 L 6.277344 0.746094 L 6.335938 0.722656 L 6.390625 0.699219 L 6.449219 0.679688 L 6.507812 0.65625 L 6.5625 0.632812 L 6.621094 0.613281 L 6.679688 0.589844 L 7.089844 0.453125 L 7.148438 0.4375 L 7.210938 0.417969 L 7.269531 0.398438 L 7.328125 0.382812 L 7.390625 0.367188 L 7.449219 0.351562 L 7.507812 0.332031 L 7.570312 0.316406 L 7.628906 0.300781 L 7.691406 0.289062 L 7.75 0.273438 L 7.8125 0.257812 L 7.875 0.246094 L 7.933594 0.230469 L 7.996094 0.21875 L 8.058594 0.203125 L 8.121094 0.191406 L 8.179688 0.179688 L 8.304688 0.15625 L 8.367188 0.148438 L 8.492188 0.125 L 8.554688 0.117188 L 8.617188 0.105469 L 8.867188 0.0742188 L 8.933594 0.0664062 L 9.058594 0.0507812 L 9.121094 0.046875 L 9.1875 0.0390625 L 9.3125 0.03125 L 9.378906 0.0234375 L 9.441406 0.0195312 L 9.507812 0.015625 L 9.570312 0.0117188 L 9.636719 0.0117188 L 9.699219 0.0078125 L 9.765625 0.00390625 L 9.894531 0.00390625 L 9.960938 0 Z M 10.097656 5.332031 L 10.027344 5.332031 L 9.996094 5.335938 L 9.902344 5.335938 L 9.871094 5.339844 L 9.8125 5.339844 L 9.78125 5.34375 L 9.75 5.34375 L 9.6875 5.351562 L 9.660156 5.351562 L 9.597656 5.359375 L 9.570312 5.363281 L 9.539062 5.363281 L 9.507812 5.367188 L 9.480469 5.371094 L 9.449219 5.375 L 9.421875 5.378906 L 9.359375 5.386719 L 9.332031 5.394531 L 9.300781 5.398438 L 9.273438 5.402344 L 9.242188 5.40625 L 9.214844 5.414062 L 9.1875 5.417969 L 9.15625 5.425781 L 9.128906 5.429688 L 9.097656 5.4375 L 9.070312 5.441406 L 9.042969 5.449219 L 9.011719 5.453125 L 8.929688 5.476562 L 8.898438 5.484375 L 8.871094 5.488281 L 8.789062 5.511719 L 8.757812 5.519531 L 8.730469 5.53125 L 8.621094 5.5625 L 8.59375 5.574219 L 8.539062 5.589844 L 8.511719 5.601562 L 8.484375 5.609375 L 8.457031 5.621094 L 8.429688 5.628906 L 8.375 5.652344 L 8.351562 5.660156 L 8.269531 5.695312 L 8.242188 5.703125 L 8.214844 5.714844 L 8.191406 5.726562 L 8.136719 5.75 L 8.113281 5.761719 L 8.085938 5.773438 L 8.058594 5.789062 L 8.035156 5.800781 L 7.980469 5.824219 L 7.957031 5.839844 L 7.929688 5.851562 L 7.90625 5.863281 L 7.878906 5.878906 L 7.855469 5.890625 L 7.828125 5.90625 L 7.804688 5.917969 L 7.777344 5.933594 L 7.753906 5.945312 L 7.730469 5.960938 L 7.703125 5.976562 L 7.679688 5.988281 L 7.65625 6.003906 L 7.628906 6.019531 L 7.582031 6.050781 L 7.558594 6.0625 L 7.53125 6.078125 L 7.507812 6.09375 L 7.484375 6.113281 L 7.34375 6.207031 L 7.320312 6.226562 L 7.273438 6.257812 L 7.25 6.277344 L 7.226562 6.292969 L 7.203125 6.3125 L 7.179688 6.328125 L 7.15625 6.347656 L 7.136719 6.363281 L 7.113281 6.382812 L 7.089844 6.398438 L 7.070312 6.417969 L 7.023438 6.457031 L 7.003906 6.472656 L 6.980469 6.492188 L 6.960938 6.511719 L 6.914062 6.550781 L 6.875 6.589844 L 6.851562 6.609375 L 6.832031 6.628906 L 6.808594 6.648438 L 6.75 6.707031 L 6.726562 6.726562 L 6.707031 6.75 L 6.648438 6.808594 L 6.628906 6.832031 L 6.609375 6.851562 L 6.589844 6.875 L 6.550781 6.914062 L 6.511719 6.960938 L 6.492188 6.980469 L 6.472656 7.003906 L 6.457031 7.023438 L 6.417969 7.070312 L 6.398438 7.089844 L 6.382812 7.113281 L 6.363281 7.136719 L 6.347656 7.15625 L 6.328125 7.179688 L 6.3125 7.203125 L 6.292969 7.226562 L 6.277344 7.25 L 6.257812 7.273438 L 6.226562 7.320312 L 6.207031 7.34375 L 6.113281 7.484375 L 6.09375 7.507812 L 6.078125 7.53125 L 6.0625 7.558594 L 6.050781 7.582031 L 6.019531 7.628906 L 6.003906 7.65625 L 5.988281 7.679688 L 5.976562 7.703125 L 5.960938 7.730469 L 5.945312 7.753906 L 5.933594 7.777344 L 5.917969 7.804688 L 5.90625 7.828125 L 5.890625 7.855469 L 5.878906 7.878906 L 5.863281 7.90625 L 5.851562 7.929688 L 5.839844 7.957031 L 5.824219 7.980469 L 5.800781 8.035156 L 5.789062 8.058594 L 5.773438 8.085938 L 5.761719 8.113281 L 5.75 8.136719 L 5.726562 8.191406 L 5.714844 8.214844 L 5.703125 8.242188 L 5.695312 8.269531 L 5.660156 8.351562 L 5.652344 8.375 L 5.628906 8.429688 L 5.621094 8.457031 L 5.609375 8.484375 L 5.601562 8.511719 L 5.589844 8.539062 L 5.574219 8.59375 L 5.5625 8.621094 L 5.53125 8.730469 L 5.519531 8.757812 L 5.511719 8.789062 L 5.488281 8.871094 L 5.484375 8.898438 L 5.476562 8.929688 L 5.453125 9.011719 L 5.449219 9.042969 L 5.441406 9.070312 L 5.4375 9.097656 L 5.429688 9.128906 L 5.425781 9.15625 L 5.417969 9.1875 L 5.414062 9.214844 L 5.40625 9.242188 L 5.402344 9.273438 L 5.398438 9.300781 L 5.394531 9.332031 L 5.386719 9.359375 L 5.378906 9.421875 L 5.375 9.449219 L 5.371094 9.480469 L 5.367188 9.507812 L 5.363281 9.539062 L 5.363281 9.570312 L 5.359375 9.597656 L 5.351562 9.660156 L 5.351562 9.6875 L 5.34375 9.75 L 5.34375 9.78125 L 5.339844 9.8125 L 5.339844 9.871094 L 5.335938 9.902344 L 5.335938 9.996094 L 5.332031 10.027344 L 5.332031 89.972656 L 5.335938 90.003906 L 5.335938 90.097656 L 5.339844 90.128906 L 5.339844 90.1875 L 5.34375 90.21875 L 5.34375 90.25 L 5.351562 90.3125 L 5.351562 90.339844 L 5.359375 90.402344 L 5.363281 90.429688 L 5.363281 90.460938 L 5.367188 90.492188 L 5.371094 90.519531 L 5.375 90.550781 L 5.378906 90.578125 L 5.386719 90.640625 L 5.394531 90.667969 L 5.398438 90.699219 L 5.402344 90.726562 L 5.40625 90.757812 L 5.414062 90.785156 L 5.417969 90.8125 L 5.425781 90.84375 L 5.429688 90.871094 L 5.4375 90.902344 L 5.441406 90.929688 L 5.449219 90.957031 L 5.453125 90.988281 L 5.476562 91.070312 L 5.484375 91.101562 L 5.488281 91.128906 L 5.511719 91.210938 L 5.519531 91.242188 L 5.53125 91.269531 L 5.5625 91.378906 L 5.574219 91.40625 L 5.589844 91.460938 L 5.601562 91.488281 L 5.609375 91.515625 L 5.621094 91.542969 L 5.628906 91.570312 L 5.652344 91.625 L 5.660156 91.648438 L 5.695312 91.730469 L 5.703125 91.757812 L 5.714844 91.785156 L 5.726562 91.808594 L 5.75 91.863281 L 5.761719 91.886719 L 5.773438 91.914062 L 5.789062 91.941406 L 5.800781 91.964844 L 5.824219 92.019531 L 5.839844 92.042969 L 5.851562 92.070312 L 5.863281 92.09375 L 5.878906 92.121094 L 5.890625 92.144531 L 5.90625 92.171875 L 5.917969 92.195312 L 5.933594 92.222656 L 5.945312 92.246094 L 5.960938 92.269531 L 5.976562 92.296875 L 5.988281 92.320312 L 6.003906 92.34375 L 6.019531 92.371094 L 6.066406 92.441406 L 6.078125 92.46875 L 6.09375 92.492188 L 6.113281 92.515625 L 6.207031 92.65625 L 6.226562 92.679688 L 6.257812 92.726562 L 6.277344 92.75 L 6.292969 92.773438 L 6.3125 92.796875 L 6.328125 92.820312 L 6.347656 92.84375 L 6.363281 92.863281 L 6.382812 92.886719 L 6.398438 92.910156 L 6.417969 92.933594 L 6.4375 92.953125 L 6.457031 92.976562 L 6.472656 92.996094 L 6.492188 93.019531 L 6.511719 93.039062 L 6.550781 93.085938 L 6.589844 93.125 L 6.609375 93.148438 L 6.648438 93.1875 L 6.667969 93.210938 L 6.707031 93.25 L 6.726562 93.273438 L 6.75 93.292969 L 6.808594 93.351562 L 6.832031 93.371094 L 6.851562 93.390625 L 6.875 93.410156 L 6.914062 93.449219 L 6.960938 93.488281 L 6.980469 93.507812 L 7.003906 93.527344 L 7.023438 93.542969 L 7.070312 93.582031 L 7.089844 93.601562 L 7.113281 93.617188 L 7.136719 93.636719 L 7.15625 93.652344 L 7.179688 93.671875 L 7.203125 93.6875 L 7.226562 93.707031 L 7.25 93.722656 L 7.273438 93.742188 L 7.320312 93.773438 L 7.34375 93.792969 L 7.484375 93.886719 L 7.507812 93.90625 L 7.53125 93.921875 L 7.558594 93.933594 L 7.628906 93.980469 L 7.65625 93.996094 L 7.679688 94.011719 L 7.703125 94.023438 L 7.730469 94.039062 L 7.753906 94.054688 L 7.777344 94.066406 L 7.804688 94.082031 L 7.828125 94.09375 L 7.855469 94.109375 L 7.878906 94.121094 L 7.90625 94.136719 L 7.929688 94.148438 L 7.957031 94.164062 L 7.980469 94.175781 L 8.035156 94.199219 L 8.058594 94.210938 L 8.085938 94.226562 L 8.113281 94.238281 L 8.136719 94.25 L 8.191406 94.273438 L 8.214844 94.285156 L 8.242188 94.296875 L 8.269531 94.304688 L 8.351562 94.339844 L 8.375 94.347656 L 8.429688 94.371094 L 8.457031 94.378906 L 8.484375 94.390625 L 8.511719 94.398438 L 8.539062 94.410156 L 8.59375 94.425781 L 8.621094 94.4375 L 8.730469 94.46875 L 8.757812 94.480469 L 8.789062 94.488281 L 8.871094 94.511719 L 8.898438 94.515625 L 8.929688 94.523438 L 9.011719 94.546875 L 9.042969 94.550781 L 9.070312 94.558594 L 9.097656 94.5625 L 9.128906 94.570312 L 9.15625 94.574219 L 9.1875 94.582031 L 9.214844 94.585938 L 9.242188 94.59375 L 9.273438 94.597656 L 9.300781 94.601562 L 9.332031 94.605469 L 9.359375 94.613281 L 9.390625 94.617188 L 9.417969 94.621094 L 9.480469 94.628906 L 9.507812 94.632812 L 9.539062 94.636719 L 9.570312 94.636719 L 9.597656 94.640625 L 9.660156 94.648438 L 9.6875 94.648438 L 9.75 94.65625 L 9.78125 94.65625 L 9.8125 94.660156 L 9.871094 94.660156 L 9.902344 94.664062 L 9.996094 94.664062 L 10.027344 94.667969 L 89.972656 94.667969 L 90.003906 94.664062 L 90.097656 94.664062 L 90.128906 94.660156 L 90.1875 94.660156 L 90.21875 94.65625 L 90.25 94.65625 L 90.3125 94.648438 L 90.339844 94.648438 L 90.402344 94.640625 L 90.429688 94.636719 L 90.460938 94.636719 L 90.492188 94.632812 L 90.519531 94.628906 L 90.582031 94.621094 L 90.609375 94.617188 L 90.640625 94.613281 L 90.667969 94.605469 L 90.699219 94.601562 L 90.726562 94.597656 L 90.757812 94.59375 L 90.785156 94.585938 L 90.8125 94.582031 L 90.84375 94.574219 L 90.871094 94.570312 L 90.902344 94.5625 L 90.929688 94.558594 L 90.957031 94.550781 L 90.988281 94.546875 L 91.070312 94.523438 L 91.101562 94.515625 L 91.128906 94.511719 L 91.210938 94.488281 L 91.242188 94.480469 L 91.269531 94.46875 L 91.378906 94.4375 L 91.40625 94.425781 L 91.460938 94.410156 L 91.488281 94.398438 L 91.515625 94.390625 L 91.542969 94.378906 L 91.570312 94.371094 L 91.625 94.347656 L 91.648438 94.339844 L 91.730469 94.304688 L 91.757812 94.296875 L 91.785156 94.285156 L 91.808594 94.273438 L 91.863281 94.25 L 91.886719 94.238281 L 91.914062 94.226562 L 91.941406 94.210938 L 91.964844 94.199219 L 92.019531 94.175781 L 92.042969 94.160156 L 92.070312 94.148438 L 92.09375 94.136719 L 92.121094 94.121094 L 92.144531 94.109375 L 92.171875 94.09375 L 92.195312 94.082031 L 92.222656 94.066406 L 92.246094 94.054688 L 92.269531 94.039062 L 92.296875 94.023438 L 92.320312 94.011719 L 92.34375 93.996094 L 92.371094 93.980469 L 92.441406 93.933594 L 92.46875 93.921875 L 92.492188 93.90625 L 92.515625 93.886719 L 92.65625 93.792969 L 92.679688 93.773438 L 92.726562 93.742188 L 92.75 93.722656 L 92.773438 93.707031 L 92.796875 93.6875 L 92.820312 93.671875 L 92.84375 93.652344 L 92.863281 93.636719 L 92.886719 93.617188 L 92.910156 93.601562 L 92.933594 93.582031 L 92.953125 93.5625 L 92.976562 93.542969 L 92.996094 93.527344 L 93.019531 93.507812 L 93.039062 93.488281 L 93.085938 93.449219 L 93.125 93.410156 L 93.148438 93.390625 L 93.167969 93.371094 L 93.191406 93.351562 L 93.25 93.292969 L 93.273438 93.273438 L 93.292969 93.25 L 93.351562 93.191406 L 93.371094 93.167969 L 93.390625 93.148438 L 93.410156 93.125 L 93.449219 93.085938 L 93.488281 93.039062 L 93.507812 93.019531 L 93.527344 92.996094 L 93.542969 92.976562 L 93.5625 92.953125 L 93.582031 92.933594 L 93.601562 92.910156 L 93.617188 92.886719 L 93.636719 92.863281 L 93.652344 92.84375 L 93.671875 92.820312 L 93.6875 92.796875 L 93.707031 92.773438 L 93.722656 92.75 L 93.742188 92.726562 L 93.773438 92.679688 L 93.792969 92.65625 L 93.886719 92.515625 L 93.90625 92.492188 L 93.921875 92.46875 L 93.933594 92.441406 L 93.980469 92.371094 L 93.996094 92.34375 L 94.011719 92.320312 L 94.023438 92.296875 L 94.039062 92.269531 L 94.054688 92.246094 L 94.066406 92.222656 L 94.082031 92.195312 L 94.09375 92.171875 L 94.109375 92.144531 L 94.121094 92.121094 L 94.136719 92.09375 L 94.148438 92.070312 L 94.160156 92.042969 L 94.175781 92.019531 L 94.199219 91.964844 L 94.210938 91.941406 L 94.226562 91.914062 L 94.238281 91.886719 L 94.25 91.863281 L 94.273438 91.808594 L 94.285156 91.785156 L 94.296875 91.757812 L 94.304688 91.730469 L 94.339844 91.648438 L 94.347656 91.625 L 94.371094 91.570312 L 94.378906 91.542969 L 94.390625 91.515625 L 94.398438 91.488281 L 94.410156 91.460938 L 94.425781 91.40625 L 94.4375 91.378906 L 94.46875 91.269531 L 94.480469 91.242188 L 94.488281 91.210938 L 94.511719 91.128906 L 94.515625 91.101562 L 94.523438 91.070312 L 94.546875 90.988281 L 94.550781 90.957031 L 94.558594 90.929688 L 94.5625 90.902344 L 94.570312 90.871094 L 94.574219 90.84375 L 94.582031 90.8125 L 94.585938 90.785156 L 94.59375 90.757812 L 94.597656 90.726562 L 94.601562 90.699219 L 94.605469 90.667969 L 94.613281 90.640625 L 94.617188 90.609375 L 94.621094 90.582031 L 94.628906 90.519531 L 94.632812 90.492188 L 94.636719 90.460938 L 94.636719 90.429688 L 94.640625 90.402344 L 94.648438 90.339844 L 94.648438 90.3125 L 94.65625 90.25 L 94.65625 90.21875 L 94.660156 90.1875 L 94.660156 90.128906 L 94.664062 90.097656 L 94.664062 90.003906 L 94.667969 89.972656 L 94.667969 10.027344 L 94.664062 9.996094 L 94.664062 9.902344 L 94.660156 9.871094 L 94.660156 9.8125 L 94.65625 9.78125 L 94.65625 9.75 L 94.648438 9.6875 L 94.648438 9.660156 L 94.640625 9.597656 L 94.636719 9.570312 L 94.636719 9.539062 L 94.632812 9.507812 L 94.628906 9.480469 L 94.621094 9.417969 L 94.617188 9.390625 L 94.613281 9.359375 L 94.605469 9.332031 L 94.601562 9.300781 L 94.597656 9.273438 L 94.59375 9.242188 L 94.585938 9.214844 L 94.582031 9.1875 L 94.574219 9.15625 L 94.570312 9.128906 L 94.5625 9.097656 L 94.558594 9.070312 L 94.550781 9.042969 L 94.546875 9.011719 L 94.523438 8.929688 L 94.515625 8.898438 L 94.511719 8.871094 L 94.488281 8.789062 L 94.480469 8.757812 L 94.46875 8.730469 L 94.4375 8.621094 L 94.425781 8.59375 L 94.410156 8.539062 L 94.398438 8.511719 L 94.390625 8.484375 L 94.378906 8.457031 L 94.371094 8.429688 L 94.347656 8.375 L 94.339844 8.351562 L 94.304688 8.269531 L 94.296875 8.242188 L 94.285156 8.214844 L 94.273438 8.191406 L 94.25 8.136719 L 94.238281 8.113281 L 94.226562 8.085938 L 94.210938 8.058594 L 94.199219 8.035156 L 94.175781 7.980469 L 94.164062 7.957031 L 94.148438 7.929688 L 94.136719 7.90625 L 94.121094 7.878906 L 94.109375 7.855469 L 94.09375 7.828125 L 94.082031 7.804688 L 94.066406 7.777344 L 94.054688 7.753906 L 94.039062 7.730469 L 94.023438 7.703125 L 94.011719 7.679688 L 93.996094 7.65625 L 93.980469 7.628906 L 93.933594 7.558594 L 93.921875 7.53125 L 93.90625 7.507812 L 93.886719 7.484375 L 93.792969 7.34375 L 93.773438 7.320312 L 93.742188 7.273438 L 93.722656 7.25 L 93.707031 7.226562 L 93.6875 7.203125 L 93.671875 7.179688 L 93.652344 7.15625 L 93.636719 7.136719 L 93.617188 7.113281 L 93.601562 7.089844 L 93.582031 7.070312 L 93.542969 7.023438 L 93.527344 7.003906 L 93.507812 6.980469 L 93.488281 6.960938 L 93.449219 6.914062 L 93.410156 6.875 L 93.390625 6.851562 L 93.371094 6.832031 L 93.351562 6.808594 L 93.292969 6.75 L 93.273438 6.726562 L 93.25 6.707031 L 93.210938 6.667969 L 93.1875 6.648438 L 93.148438 6.609375 L 93.125 6.589844 L 93.085938 6.550781 L 93.039062 6.511719 L 93.019531 6.492188 L 92.996094 6.472656 L 92.976562 6.457031 L 92.953125 6.4375 L 92.933594 6.417969 L 92.910156 6.398438 L 92.886719 6.382812 L 92.863281 6.363281 L 92.84375 6.347656 L 92.820312 6.328125 L 92.796875 6.3125 L 92.773438 6.292969 L 92.75 6.277344 L 92.726562 6.257812 L 92.679688 6.226562 L 92.65625 6.207031 L 92.515625 6.113281 L 92.492188 6.09375 L 92.46875 6.078125 L 92.441406 6.066406 L 92.371094 6.019531 L 92.34375 6.003906 L 92.320312 5.988281 L 92.296875 5.976562 L 92.269531 5.960938 L 92.246094 5.945312 L 92.222656 5.933594 L 92.195312 5.917969 L 92.171875 5.90625 L 92.144531 5.890625 L 92.121094 5.878906 L 92.09375 5.863281 L 92.070312 5.851562 L 92.042969 5.839844 L 92.019531 5.824219 L 91.964844 5.800781 L 91.941406 5.789062 L 91.914062 5.773438 L 91.886719 5.761719 L 91.863281 5.75 L 91.808594 5.726562 L 91.785156 5.714844 L 91.757812 5.703125 L 91.730469 5.695312 L 91.648438 5.660156 L 91.625 5.652344 L 91.570312 5.628906 L 91.542969 5.621094 L 91.515625 5.609375 L 91.488281 5.601562 L 91.460938 5.589844 L 91.40625 5.574219 L 91.378906 5.5625 L 91.269531 5.53125 L 91.242188 5.519531 L 91.210938 5.511719 L 91.128906 5.488281 L 91.101562 5.484375 L 91.070312 5.476562 L 90.988281 5.453125 L 90.957031 5.449219 L 90.929688 5.441406 L 90.902344 5.4375 L 90.871094 5.429688 L 90.84375 5.425781 L 90.8125 5.417969 L 90.785156 5.414062 L 90.757812 5.40625 L 90.726562 5.402344 L 90.699219 5.398438 L 90.667969 5.394531 L 90.640625 5.386719 L 90.578125 5.378906 L 90.550781 5.375 L 90.519531 5.371094 L 90.492188 5.367188 L 90.460938 5.363281 L 90.429688 5.363281 L 90.402344 5.359375 L 90.339844 5.351562 L 90.3125 5.351562 L 90.25 5.34375 L 90.21875 5.34375 L 90.1875 5.339844 L 90.128906 5.339844 L 90.097656 5.335938 L 90.003906 5.335938 L 89.972656 5.332031 Z M 10.097656 5.332031 "/>
<path style=" stroke:none;fill-rule:evenodd;fill:rgb(100%,100%,100%);fill-opacity:1;" d="M 80.378906 43.671875 L 70.488281 43.671875 C 69.179688 53.816406 60.5 61.664062 50 61.664062 C 39.5 61.664062 30.820312 53.816406 29.511719 43.671875 L 19.621094 43.671875 L 19.621094 38.335938 L 80.378906 38.335938 Z M 80.378906 43.671875 "/>
<path style=" stroke:none;fill-rule:evenodd;fill:rgb(30.19608%,30.19608%,30.19608%);fill-opacity:1;" d="M 80.378906 43.671875 L 70.488281 43.671875 L 70.457031 43.90625 L 70.441406 44.027344 L 70.421875 44.144531 L 70.40625 44.261719 L 70.367188 44.496094 L 70.34375 44.613281 L 70.324219 44.730469 L 70.300781 44.847656 L 70.28125 44.964844 L 70.257812 45.082031 L 70.234375 45.195312 L 70.210938 45.3125 L 70.183594 45.429688 L 70.160156 45.542969 L 70.132812 45.660156 L 70.078125 45.886719 L 70.050781 46.003906 L 70.019531 46.117188 L 69.992188 46.230469 L 69.835938 46.796875 L 69.800781 46.910156 L 69.769531 47.019531 L 69.699219 47.246094 L 69.628906 47.464844 L 69.589844 47.578125 L 69.554688 47.6875 L 69.476562 47.90625 L 69.4375 48.019531 L 69.398438 48.128906 L 69.355469 48.234375 L 69.316406 48.34375 L 69.230469 48.5625 L 69.1875 48.667969 L 69.144531 48.777344 L 69.101562 48.882812 L 69.058594 48.992188 L 68.964844 49.203125 L 68.921875 49.308594 L 68.871094 49.414062 L 68.730469 49.730469 L 68.628906 49.941406 L 68.578125 50.042969 L 68.527344 50.148438 L 68.425781 50.351562 L 68.371094 50.457031 L 68.320312 50.558594 L 68.101562 50.964844 L 68.046875 51.0625 L 67.988281 51.164062 L 67.933594 51.265625 L 67.816406 51.460938 L 67.757812 51.5625 L 67.640625 51.757812 L 67.578125 51.855469 L 67.519531 51.953125 L 67.457031 52.050781 L 67.398438 52.144531 L 67.273438 52.339844 L 67.207031 52.433594 L 67.144531 52.53125 L 67.082031 52.625 L 66.75 53.09375 L 66.683594 53.183594 L 66.617188 53.277344 L 66.546875 53.367188 L 66.480469 53.460938 L 66.128906 53.910156 L 66.054688 54 L 65.984375 54.089844 L 65.910156 54.175781 L 65.839844 54.265625 L 65.617188 54.523438 L 65.539062 54.609375 L 65.390625 54.78125 L 65.3125 54.867188 L 65.238281 54.949219 L 65.160156 55.035156 L 65.082031 55.117188 L 65.003906 55.203125 L 64.925781 55.285156 L 64.84375 55.367188 L 64.765625 55.449219 L 64.523438 55.691406 L 64.441406 55.769531 L 64.359375 55.851562 L 64.03125 56.164062 L 63.859375 56.320312 L 63.777344 56.394531 L 63.691406 56.472656 L 63.433594 56.695312 L 63.34375 56.769531 L 63.171875 56.917969 L 63.082031 56.988281 L 62.992188 57.0625 L 62.90625 57.132812 L 62.546875 57.414062 L 62.453125 57.484375 L 62.363281 57.554688 L 62.269531 57.621094 L 62.179688 57.6875 L 62.085938 57.757812 L 61.804688 57.957031 L 61.710938 58.019531 L 61.617188 58.085938 L 61.523438 58.148438 L 61.429688 58.214844 L 61.332031 58.277344 L 61.238281 58.339844 L 61.042969 58.464844 L 60.945312 58.523438 L 60.847656 58.585938 L 60.554688 58.761719 L 60.457031 58.824219 L 60.355469 58.878906 L 60.257812 58.9375 L 60.15625 58.996094 L 60.058594 59.050781 L 59.449219 59.378906 L 59.347656 59.429688 L 59.242188 59.480469 L 59.140625 59.535156 L 59.039062 59.585938 L 58.933594 59.632812 L 58.828125 59.683594 L 58.726562 59.734375 L 58.621094 59.78125 L 58.515625 59.832031 L 58.199219 59.972656 L 58.089844 60.015625 L 57.984375 60.0625 L 57.878906 60.105469 L 57.769531 60.148438 L 57.664062 60.195312 L 57.554688 60.234375 L 57.445312 60.277344 L 57.339844 60.320312 L 57.230469 60.359375 L 57.121094 60.402344 L 56.792969 60.519531 L 56.679688 60.558594 L 56.570312 60.59375 L 56.460938 60.632812 L 56.347656 60.667969 L 56.238281 60.703125 L 56.125 60.738281 L 56.015625 60.773438 L 55.902344 60.804688 L 55.789062 60.839844 L 55.675781 60.871094 L 55.566406 60.90625 L 55.453125 60.9375 L 55.339844 60.964844 L 55.222656 60.996094 L 55.109375 61.027344 L 54.882812 61.082031 L 54.765625 61.109375 L 54.652344 61.136719 L 54.535156 61.164062 L 54.421875 61.1875 L 54.304688 61.214844 L 54.191406 61.238281 L 53.957031 61.285156 L 53.839844 61.304688 L 53.722656 61.328125 L 53.605469 61.347656 L 53.488281 61.371094 L 53.371094 61.390625 L 53.253906 61.40625 L 53.019531 61.445312 L 52.898438 61.460938 L 52.664062 61.492188 L 52.542969 61.507812 L 52.425781 61.523438 L 52.304688 61.535156 L 52.1875 61.550781 L 51.945312 61.574219 L 51.824219 61.582031 L 51.707031 61.59375 L 51.585938 61.605469 L 51.222656 61.628906 L 51.101562 61.632812 L 50.980469 61.640625 L 50.855469 61.644531 L 50.734375 61.652344 L 50.613281 61.65625 L 50.492188 61.65625 L 50.367188 61.660156 L 50.246094 61.660156 L 50.121094 61.664062 L 49.878906 61.664062 L 49.753906 61.660156 L 49.632812 61.660156 L 49.507812 61.65625 L 49.386719 61.65625 L 49.265625 61.652344 L 49.144531 61.644531 L 49.019531 61.640625 L 48.898438 61.632812 L 48.777344 61.628906 L 48.414062 61.605469 L 48.292969 61.59375 L 48.175781 61.582031 L 48.054688 61.574219 L 47.8125 61.550781 L 47.695312 61.535156 L 47.574219 61.523438 L 47.457031 61.507812 L 47.335938 61.492188 L 47.101562 61.460938 L 46.980469 61.445312 L 46.746094 61.40625 L 46.628906 61.390625 L 46.511719 61.371094 L 46.394531 61.347656 L 46.277344 61.328125 L 46.160156 61.304688 L 46.042969 61.285156 L 45.808594 61.238281 L 45.695312 61.214844 L 45.578125 61.1875 L 45.464844 61.164062 L 45.347656 61.136719 L 45.234375 61.109375 L 45.117188 61.082031 L 44.890625 61.027344 L 44.777344 60.996094 L 44.660156 60.964844 L 44.546875 60.9375 L 44.433594 60.90625 L 44.324219 60.871094 L 44.210938 60.839844 L 44.097656 60.804688 L 43.984375 60.773438 L 43.875 60.738281 L 43.761719 60.703125 L 43.652344 60.667969 L 43.539062 60.632812 L 43.429688 60.59375 L 43.320312 60.558594 L 43.207031 60.519531 L 42.878906 60.402344 L 42.769531 60.359375 L 42.660156 60.320312 L 42.554688 60.277344 L 42.445312 60.234375 L 42.335938 60.195312 L 42.230469 60.148438 L 42.121094 60.105469 L 42.015625 60.0625 L 41.910156 60.015625 L 41.800781 59.972656 L 41.484375 59.832031 L 41.378906 59.78125 L 41.273438 59.734375 L 41.171875 59.683594 L 41.066406 59.632812 L 40.960938 59.585938 L 40.859375 59.535156 L 40.757812 59.480469 L 40.652344 59.429688 L 40.550781 59.378906 L 39.941406 59.050781 L 39.84375 58.996094 L 39.742188 58.9375 L 39.644531 58.878906 L 39.542969 58.824219 L 39.445312 58.761719 L 39.152344 58.585938 L 39.054688 58.523438 L 38.957031 58.464844 L 38.761719 58.339844 L 38.667969 58.277344 L 38.570312 58.214844 L 38.476562 58.148438 L 38.382812 58.085938 L 38.289062 58.019531 L 38.195312 57.957031 L 37.914062 57.757812 L 37.820312 57.6875 L 37.730469 57.621094 L 37.636719 57.554688 L 37.546875 57.484375 L 37.453125 57.414062 L 37.09375 57.132812 L 37.007812 57.0625 L 36.917969 56.988281 L 36.828125 56.917969 L 36.65625 56.769531 L 36.566406 56.695312 L 36.308594 56.472656 L 36.222656 56.394531 L 36.140625 56.320312 L 35.96875 56.164062 L 35.640625 55.851562 L 35.558594 55.769531 L 35.476562 55.691406 L 35.234375 55.449219 L 35.15625 55.367188 L 35.074219 55.285156 L 34.996094 55.203125 L 34.917969 55.117188 L 34.839844 55.035156 L 34.761719 54.949219 L 34.6875 54.867188 L 34.609375 54.78125 L 34.460938 54.609375 L 34.382812 54.523438 L 34.160156 54.265625 L 34.089844 54.175781 L 34.015625 54.089844 L 33.945312 54 L 33.871094 53.910156 L 33.519531 53.460938 L 33.453125 53.367188 L 33.382812 53.277344 L 33.316406 53.183594 L 33.25 53.09375 L 32.917969 52.625 L 32.855469 52.53125 L 32.792969 52.433594 L 32.726562 52.339844 L 32.601562 52.144531 L 32.542969 52.050781 L 32.480469 51.953125 L 32.421875 51.855469 L 32.359375 51.757812 L 32.242188 51.5625 L 32.183594 51.460938 L 32.066406 51.265625 L 32.011719 51.164062 L 31.953125 51.0625 L 31.898438 50.964844 L 31.679688 50.558594 L 31.628906 50.457031 L 31.574219 50.351562 L 31.472656 50.148438 L 31.421875 50.042969 L 31.371094 49.941406 L 31.269531 49.730469 L 31.128906 49.414062 L 31.078125 49.308594 L 31.035156 49.203125 L 30.941406 48.992188 L 30.898438 48.882812 L 30.855469 48.777344 L 30.8125 48.667969 L 30.769531 48.5625 L 30.683594 48.34375 L 30.644531 48.234375 L 30.601562 48.128906 L 30.5625 48.019531 L 30.523438 47.90625 L 30.445312 47.6875 L 30.410156 47.578125 L 30.371094 47.464844 L 30.300781 47.246094 L 30.230469 47.019531 L 30.199219 46.910156 L 30.164062 46.796875 L 30.007812 46.230469 L 29.980469 46.117188 L 29.949219 46.003906 L 29.921875 45.886719 L 29.867188 45.660156 L 29.839844 45.542969 L 29.816406 45.429688 L 29.789062 45.3125 L 29.765625 45.195312 L 29.742188 45.082031 L 29.71875 44.964844 L 29.699219 44.847656 L 29.675781 44.730469 L 29.65625 44.613281 L 29.632812 44.496094 L 29.59375 44.261719 L 29.578125 44.144531 L 29.558594 44.027344 L 29.542969 43.90625 L 29.511719 43.671875 L 19.621094 43.671875 L 19.621094 38.335938 L 80.378906 38.335938 Z M 34.902344 43.671875 L 34.90625 43.6875 L 34.953125 43.945312 L 34.972656 44.03125 L 34.988281 44.117188 L 35.027344 44.289062 L 35.042969 44.375 L 35.0625 44.460938 L 35.085938 44.546875 L 35.105469 44.628906 L 35.144531 44.800781 L 35.167969 44.882812 L 35.191406 44.96875 L 35.214844 45.050781 L 35.238281 45.136719 L 35.285156 45.300781 L 35.308594 45.386719 L 35.332031 45.46875 L 35.359375 45.550781 L 35.382812 45.632812 L 35.519531 46.042969 L 35.550781 46.125 L 35.578125 46.203125 L 35.609375 46.285156 L 35.636719 46.367188 L 35.667969 46.445312 L 35.699219 46.527344 L 35.730469 46.605469 L 35.761719 46.6875 L 35.792969 46.765625 L 35.828125 46.847656 L 35.859375 46.925781 L 35.894531 47.003906 L 35.925781 47.082031 L 36.101562 47.472656 L 36.140625 47.550781 L 36.175781 47.628906 L 36.214844 47.703125 L 36.25 47.78125 L 36.289062 47.859375 L 36.328125 47.933594 L 36.367188 48.011719 L 36.445312 48.160156 L 36.484375 48.238281 L 36.527344 48.3125 L 36.566406 48.386719 L 36.652344 48.535156 L 36.691406 48.609375 L 36.777344 48.757812 L 36.820312 48.828125 L 36.867188 48.902344 L 36.910156 48.976562 L 36.953125 49.046875 L 37 49.121094 L 37.046875 49.191406 L 37.089844 49.265625 L 37.324219 49.617188 L 37.375 49.6875 L 37.421875 49.757812 L 37.472656 49.828125 L 37.519531 49.898438 L 37.570312 49.964844 L 37.671875 50.105469 L 37.773438 50.238281 L 37.824219 50.308594 L 37.925781 50.441406 L 38.035156 50.574219 L 38.085938 50.640625 L 38.195312 50.773438 L 38.25 50.835938 L 38.359375 50.96875 L 38.46875 51.09375 L 38.527344 51.160156 L 38.582031 51.222656 L 38.640625 51.285156 L 38.695312 51.347656 L 38.929688 51.597656 L 38.988281 51.65625 L 39.046875 51.71875 L 39.105469 51.777344 L 39.164062 51.839844 L 39.226562 51.898438 L 39.347656 52.019531 L 39.410156 52.078125 L 39.46875 52.136719 L 39.53125 52.191406 L 39.71875 52.367188 L 39.78125 52.421875 L 39.84375 52.480469 L 39.910156 52.535156 L 39.972656 52.589844 L 40.039062 52.644531 L 40.101562 52.703125 L 40.234375 52.8125 L 40.296875 52.863281 L 40.429688 52.972656 L 40.496094 53.023438 L 40.5625 53.078125 L 40.628906 53.128906 L 40.699219 53.179688 L 40.765625 53.230469 L 40.832031 53.285156 L 40.902344 53.335938 L 40.96875 53.382812 L 41.109375 53.484375 L 41.175781 53.535156 L 41.316406 53.628906 L 41.386719 53.679688 L 41.667969 53.867188 L 41.742188 53.914062 L 41.8125 53.960938 L 41.886719 54.003906 L 41.957031 54.050781 L 42.03125 54.09375 L 42.101562 54.136719 L 42.175781 54.183594 L 42.324219 54.269531 L 42.394531 54.3125 L 42.46875 54.355469 L 42.542969 54.394531 L 42.617188 54.4375 L 42.695312 54.476562 L 42.769531 54.519531 L 42.917969 54.597656 L 42.996094 54.636719 L 43.070312 54.675781 L 43.148438 54.714844 L 43.222656 54.753906 L 43.300781 54.789062 L 43.378906 54.828125 L 43.453125 54.863281 L 43.53125 54.902344 L 43.921875 55.078125 L 44 55.109375 L 44.082031 55.144531 L 44.160156 55.175781 L 44.238281 55.210938 L 44.316406 55.242188 L 44.398438 55.273438 L 44.476562 55.304688 L 44.640625 55.367188 L 44.71875 55.394531 L 44.800781 55.425781 L 44.882812 55.453125 L 44.964844 55.484375 L 45.042969 55.511719 L 45.371094 55.621094 L 45.453125 55.644531 L 45.539062 55.671875 L 45.703125 55.71875 L 45.789062 55.742188 L 45.871094 55.769531 L 45.953125 55.789062 L 46.039062 55.8125 L 46.121094 55.835938 L 46.207031 55.855469 L 46.289062 55.878906 L 46.460938 55.917969 L 46.546875 55.941406 L 46.632812 55.957031 L 46.714844 55.976562 L 46.886719 56.015625 L 47.058594 56.046875 L 47.144531 56.066406 L 47.234375 56.082031 L 47.40625 56.113281 L 47.492188 56.125 L 47.582031 56.140625 L 47.667969 56.152344 L 47.753906 56.167969 L 47.84375 56.179688 L 47.929688 56.191406 L 48.019531 56.203125 L 48.105469 56.214844 L 48.195312 56.226562 L 48.285156 56.234375 L 48.371094 56.246094 L 48.910156 56.292969 L 49 56.296875 L 49.089844 56.304688 L 49.359375 56.316406 L 49.453125 56.320312 L 49.542969 56.324219 L 49.632812 56.324219 L 49.726562 56.328125 L 49.90625 56.328125 L 50 56.332031 L 50.09375 56.328125 L 50.273438 56.328125 L 50.367188 56.324219 L 50.457031 56.324219 L 50.546875 56.320312 L 50.640625 56.316406 L 50.910156 56.304688 L 51 56.296875 L 51.089844 56.292969 L 51.628906 56.246094 L 51.714844 56.234375 L 51.804688 56.226562 L 51.894531 56.214844 L 51.980469 56.203125 L 52.070312 56.191406 L 52.15625 56.179688 L 52.246094 56.167969 L 52.332031 56.152344 L 52.417969 56.140625 L 52.507812 56.125 L 52.59375 56.113281 L 52.765625 56.082031 L 52.855469 56.066406 L 52.941406 56.046875 L 53.113281 56.015625 L 53.285156 55.976562 L 53.367188 55.957031 L 53.453125 55.941406 L 53.539062 55.917969 L 53.710938 55.878906 L 53.792969 55.855469 L 53.878906 55.835938 L 53.960938 55.8125 L 54.046875 55.789062 L 54.128906 55.769531 L 54.210938 55.742188 L 54.296875 55.71875 L 54.460938 55.671875 L 54.546875 55.644531 L 54.628906 55.621094 L 54.957031 55.511719 L 55.035156 55.484375 L 55.117188 55.453125 L 55.199219 55.425781 L 55.28125 55.394531 L 55.359375 55.367188 L 55.523438 55.304688 L 55.679688 55.242188 L 55.761719 55.210938 L 55.839844 55.175781 L 55.917969 55.144531 L 56 55.109375 L 56.078125 55.078125 L 56.46875 54.902344 L 56.546875 54.863281 L 56.621094 54.828125 L 56.699219 54.789062 L 56.777344 54.753906 L 56.851562 54.714844 L 56.929688 54.675781 L 57.003906 54.636719 L 57.082031 54.597656 L 57.230469 54.519531 L 57.304688 54.476562 L 57.382812 54.4375 L 57.457031 54.394531 L 57.53125 54.355469 L 57.679688 54.269531 L 57.75 54.226562 L 57.824219 54.183594 L 57.898438 54.136719 L 57.96875 54.09375 L 58.042969 54.050781 L 58.113281 54.003906 L 58.1875 53.960938 L 58.257812 53.914062 L 58.332031 53.867188 L 58.613281 53.679688 L 58.683594 53.628906 L 58.824219 53.535156 L 58.890625 53.484375 L 59.03125 53.382812 L 59.097656 53.335938 L 59.167969 53.285156 L 59.234375 53.230469 L 59.300781 53.179688 L 59.371094 53.128906 L 59.4375 53.078125 L 59.503906 53.023438 L 59.570312 52.972656 L 59.703125 52.863281 L 59.765625 52.8125 L 59.898438 52.703125 L 59.960938 52.644531 L 60.027344 52.589844 L 60.089844 52.535156 L 60.15625 52.480469 L 60.21875 52.421875 L 60.28125 52.367188 L 60.46875 52.191406 L 60.53125 52.136719 L 60.589844 52.078125 L 60.652344 52.019531 L 60.773438 51.898438 L 60.835938 51.839844 L 60.894531 51.777344 L 60.953125 51.71875 L 61.011719 51.65625 L 61.070312 51.597656 L 61.304688 51.347656 L 61.359375 51.285156 L 61.417969 51.222656 L 61.472656 51.160156 L 61.53125 51.09375 L 61.640625 50.96875 L 61.75 50.835938 L 61.804688 50.773438 L 61.914062 50.640625 L 61.964844 50.574219 L 62.074219 50.441406 L 62.175781 50.308594 L 62.226562 50.238281 L 62.328125 50.105469 L 62.378906 50.035156 L 62.429688 49.96875 L 62.480469 49.898438 L 62.527344 49.828125 L 62.578125 49.757812 L 62.625 49.6875 L 62.675781 49.617188 L 62.910156 49.265625 L 62.953125 49.191406 L 63 49.121094 L 63.046875 49.046875 L 63.089844 48.976562 L 63.175781 48.828125 L 63.222656 48.757812 L 63.308594 48.609375 L 63.347656 48.535156 L 63.433594 48.386719 L 63.472656 48.3125 L 63.515625 48.238281 L 63.554688 48.160156 L 63.632812 48.011719 L 63.671875 47.933594 L 63.710938 47.859375 L 63.75 47.78125 L 63.785156 47.703125 L 63.824219 47.628906 L 63.859375 47.550781 L 63.898438 47.472656 L 64.074219 47.082031 L 64.105469 47.003906 L 64.140625 46.925781 L 64.171875 46.847656 L 64.207031 46.765625 L 64.238281 46.6875 L 64.269531 46.605469 L 64.300781 46.527344 L 64.332031 46.445312 L 64.363281 46.367188 L 64.390625 46.285156 L 64.421875 46.203125 L 64.449219 46.125 L 64.480469 46.042969 L 64.617188 45.632812 L 64.640625 45.550781 L 64.667969 45.46875 L 64.691406 45.386719 L 64.714844 45.300781 L 64.761719 45.136719 L 64.785156 45.050781 L 64.808594 44.96875 L 64.832031 44.882812 L 64.851562 44.800781 L 64.875 44.714844 L 64.894531 44.628906 L 64.914062 44.546875 L 64.9375 44.460938 L 64.957031 44.375 L 64.972656 44.289062 L 65.011719 44.117188 L 65.027344 44.03125 L 65.046875 43.945312 L 65.09375 43.6875 L 65.097656 43.671875 Z M 34.902344 43.671875 "/>
</g>
</svg>
