<?xml version="1.0" encoding="UTF-8"?>
<svg xmlns="http://www.w3.org/2000/svg" xmlns:xlink="http://www.w3.org/1999/xlink" width="100" height="100" viewBox="0 0 100 100" version="1.1">
<g id="surface1">
<path style=" stroke:none;fill-rule:evenodd;fill:rgb(100%,99.607843%,99.607843%);fill-opacity:1;" d="M 100 10.089844 C 100 4.519531 95.480469 0 89.910156 0 L 10.089844 0 C 4.519531 0 0 4.519531 0 10.089844 L 0 89.910156 C 0 95.480469 4.519531 100 10.089844 100 L 89.910156 100 C 95.480469 100 100 95.480469 100 89.910156 Z M 100 10.089844 "/>
<path style=" stroke:none;fill-rule:evenodd;fill:rgb(30.19608%,30.19608%,30.19608%);fill-opacity:1;" d="M 100 10.089844 C 100 4.519531 95.480469 0 89.910156 0 L 10.089844 0 C 4.519531 0 0 4.519531 0 10.089844 L 0 89.910156 C 0 95.480469 4.519531 100 10.089844 100 L 89.910156 100 C 95.480469 100 100 95.480469 100 89.910156 Z M 94.667969 10.089844 L 94.667969 89.910156 C 94.667969 92.535156 92.535156 94.667969 89.910156 94.667969 C 89.910156 94.667969 10.089844 94.667969 10.089844 94.667969 C 7.464844 94.667969 5.332031 92.535156 5.332031 89.910156 L 5.332031 10.089844 C 5.332031 7.464844 7.464844 5.332031 10.089844 5.332031 L 89.910156 5.332031 C 92.535156 5.332031 94.667969 7.464844 94.667969 10.089844 Z M 94.667969 10.089844 "/>
<path style=" stroke:none;fill-rule:evenodd;fill:rgb(30.19608%,30.19608%,30.19608%);fill-opacity:1;" d="M 65.972656 72.34375 L 65.972656 72.820312 C 65.972656 77.460938 64.832031 83.09375 55.460938 83.09375 L 42.203125 83.09375 C 32.820312 83.09375 31.675781 77.460938 31.675781 72.820312 L 31.675781 50.792969 C 31.675781 50.695312 31.757812 50.617188 31.855469 50.617188 L 48.835938 50.6875 L 65.796875 50.617188 C 65.894531 50.617188 65.972656 50.695312 65.972656 50.792969 L 65.972656 54.222656 C 70.972656 54.222656 75.03125 58.28125 75.03125 63.28125 C 75.03125 68.28125 70.972656 72.34375 65.972656 72.34375 Z M 65.972656 57.519531 L 65.972656 69.046875 C 69.152344 69.046875 71.738281 66.464844 71.738281 63.28125 C 71.738281 60.101562 69.152344 57.519531 65.972656 57.519531 Z M 40.164062 23.519531 C 40.164062 23.519531 43.140625 28.476562 41 33.949219 C 36.820312 44.640625 45.074219 45.878906 45.074219 45.878906 C 45.074219 45.878906 41.046875 43.625 44.511719 35.394531 C 48.015625 27.070312 40.164062 23.519531 40.164062 23.519531 Z M 50.003906 16.90625 C 50.003906 16.90625 54.183594 21.4375 51.152344 31.464844 C 47.09375 44.898438 56.308594 45.945312 57.203125 45.875 C 58.097656 45.804688 51.664062 44.757812 56.523438 31.046875 C 60.101562 20.953125 50.003906 16.90625 50.003906 16.90625 Z M 50.003906 16.90625 "/>
</g>
</svg>
