<?xml version="1.0" encoding="UTF-8"?>
<svg xmlns="http://www.w3.org/2000/svg" xmlns:xlink="http://www.w3.org/1999/xlink" width="100" height="100" viewBox="0 0 100 100" version="1.1">
<g id="surface1">
<path style=" stroke:none;fill-rule:evenodd;fill:rgb(100%,99.607843%,99.607843%);fill-opacity:1;" d="M 100 10.089844 C 100 4.519531 95.480469 0 89.910156 0 L 10.089844 0 C 4.519531 0 0 4.519531 0 10.089844 L 0 89.910156 C 0 95.480469 4.519531 100 10.089844 100 L 89.910156 100 C 95.480469 100 100 95.480469 100 89.910156 Z M 100 10.089844 "/>
<path style=" stroke:none;fill-rule:evenodd;fill:rgb(30.19608%,30.19608%,30.19608%);fill-opacity:1;" d="M 100 10.089844 C 100 4.519531 95.480469 0 89.910156 0 L 10.089844 0 C 4.519531 0 0 4.519531 0 10.089844 L 0 89.910156 C 0 95.480469 4.519531 100 10.089844 100 L 89.910156 100 C 95.480469 100 100 95.480469 100 89.910156 Z M 94.667969 10.089844 L 94.667969 89.910156 C 94.667969 92.535156 92.535156 94.667969 89.910156 94.667969 C 89.910156 94.667969 10.089844 94.667969 10.089844 94.667969 C 7.464844 94.667969 5.332031 92.535156 5.332031 89.910156 L 5.332031 10.089844 C 5.332031 7.464844 7.464844 5.332031 10.089844 5.332031 L 89.910156 5.332031 C 92.535156 5.332031 94.667969 7.464844 94.667969 10.089844 Z M 94.667969 10.089844 "/>
<path style=" stroke:none;fill-rule:evenodd;fill:rgb(30.19608%,30.19608%,30.19608%);fill-opacity:1;" d="M 60.890625 68.890625 L 71.917969 68.890625 L 71.917969 71.992188 L 65.371094 71.992188 L 65.371094 74.511719 L 70.960938 74.511719 L 70.960938 77.425781 L 65.371094 77.425781 L 65.371094 83.320312 L 60.890625 83.320312 Z M 45.25 83.320312 L 45.25 68.890625 L 52.683594 68.890625 C 54.0625 68.890625 55.113281 69.007812 55.84375 69.246094 C 56.570312 69.480469 57.15625 69.917969 57.605469 70.558594 C 58.050781 71.199219 58.273438 71.976562 58.273438 72.894531 C 58.273438 73.695312 58.101562 74.386719 57.761719 74.96875 C 57.421875 75.550781 56.953125 76.019531 56.355469 76.382812 C 55.972656 76.609375 55.453125 76.800781 54.789062 76.953125 C 55.320312 77.128906 55.707031 77.304688 55.949219 77.484375 C 56.113281 77.601562 56.351562 77.855469 56.664062 78.242188 C 56.976562 78.628906 57.183594 78.925781 57.289062 79.136719 L 59.445312 83.320312 L 54.40625 83.320312 L 52.023438 78.910156 C 51.722656 78.339844 51.453125 77.96875 51.214844 77.796875 C 50.894531 77.574219 50.53125 77.464844 50.125 77.464844 L 49.730469 77.464844 L 49.730469 83.320312 Z M 28.082031 68.890625 L 32.75 68.890625 L 35.996094 79.273438 L 39.195312 68.890625 L 43.722656 68.890625 L 38.371094 83.320312 L 33.535156 83.320312 Z M 49.730469 74.738281 L 51.609375 74.738281 C 51.8125 74.738281 52.207031 74.671875 52.789062 74.539062 C 53.085938 74.480469 53.328125 74.332031 53.515625 74.085938 C 53.703125 73.84375 53.792969 73.566406 53.792969 73.25 C 53.792969 72.785156 53.648438 72.425781 53.351562 72.179688 C 53.054688 71.929688 52.503906 71.804688 51.6875 71.804688 L 49.730469 71.804688 Z M 64.34375 50.523438 L 73.488281 59.667969 L 69.476562 63.734375 L 60.308594 54.566406 L 60.308594 62.066406 L 54.570312 56.304688 L 54.570312 44.75 L 66.097656 44.75 L 71.871094 50.523438 Z M 47.496094 46.820312 L 38.328125 55.988281 L 45.832031 55.988281 L 40.066406 61.726562 L 28.515625 61.726562 L 28.515625 50.199219 L 34.285156 44.425781 L 34.285156 51.953125 L 43.429688 42.804688 Z M 52.585938 33.628906 L 61.753906 24.460938 L 54.25 24.460938 L 60.015625 18.722656 L 71.566406 18.722656 L 71.566406 30.25 L 65.796875 36.023438 L 65.796875 28.496094 L 56.652344 37.644531 Z M 33.902344 35.660156 L 28.128906 29.890625 L 35.65625 29.890625 L 26.511719 20.746094 L 30.523438 16.679688 L 39.691406 25.847656 L 39.691406 18.34375 L 45.429688 24.109375 L 45.429688 35.660156 Z M 33.902344 35.660156 "/>
</g>
</svg>
