<?xml version="1.0" encoding="UTF-8"?>
<svg xmlns="http://www.w3.org/2000/svg" xmlns:xlink="http://www.w3.org/1999/xlink" width="100" height="100" viewBox="0 0 100 100" version="1.1">
<g id="surface1">
<path style=" stroke:none;fill-rule:evenodd;fill:rgb(100%,99.607843%,99.607843%);fill-opacity:1;" d="M 100 10.089844 C 100 4.519531 95.480469 0 89.910156 0 L 10.089844 0 C 4.519531 0 0 4.519531 0 10.089844 L 0 89.910156 C 0 95.480469 4.519531 100 10.089844 100 L 89.910156 100 C 95.480469 100 100 95.480469 100 89.910156 Z M 100 10.089844 "/>
<path style=" stroke:none;fill-rule:evenodd;fill:rgb(30.19608%,30.19608%,30.19608%);fill-opacity:1;" d="M 89.976562 0 L 90.039062 0 L 90.105469 0.00390625 L 90.234375 0.00390625 L 90.300781 0.0078125 L 90.363281 0.0117188 L 90.429688 0.0117188 L 90.492188 0.015625 L 90.558594 0.0195312 L 90.621094 0.0234375 L 90.6875 0.03125 L 90.8125 0.0390625 L 90.878906 0.046875 L 90.941406 0.0507812 L 91.066406 0.0664062 L 91.132812 0.0742188 L 91.382812 0.105469 L 91.445312 0.117188 L 91.507812 0.125 L 91.632812 0.148438 L 91.695312 0.15625 L 91.820312 0.179688 L 91.878906 0.191406 L 91.941406 0.203125 L 92.003906 0.21875 L 92.066406 0.230469 L 92.125 0.246094 L 92.1875 0.257812 L 92.25 0.273438 L 92.308594 0.289062 L 92.371094 0.300781 L 92.429688 0.316406 L 92.492188 0.332031 L 92.550781 0.351562 L 92.609375 0.367188 L 92.671875 0.382812 L 92.730469 0.398438 L 92.789062 0.417969 L 92.851562 0.4375 L 92.910156 0.453125 L 93.320312 0.589844 L 93.378906 0.613281 L 93.4375 0.632812 L 93.492188 0.65625 L 93.550781 0.679688 L 93.609375 0.699219 L 93.664062 0.722656 L 93.722656 0.746094 L 93.777344 0.769531 L 93.835938 0.792969 L 93.890625 0.816406 L 93.949219 0.84375 L 94.003906 0.867188 L 94.0625 0.890625 L 94.117188 0.917969 L 94.171875 0.941406 L 94.335938 1.023438 L 94.394531 1.050781 L 94.449219 1.078125 L 94.5 1.105469 L 94.609375 1.160156 L 94.664062 1.191406 L 94.71875 1.21875 L 94.769531 1.246094 L 94.878906 1.308594 L 94.929688 1.335938 L 94.984375 1.367188 L 95.035156 1.398438 L 95.089844 1.429688 L 95.242188 1.523438 L 95.296875 1.558594 L 95.347656 1.589844 L 95.398438 1.625 L 95.449219 1.65625 L 95.5 1.691406 L 95.550781 1.722656 L 95.601562 1.757812 L 95.648438 1.792969 L 95.75 1.863281 L 95.796875 1.898438 L 95.898438 1.96875 L 95.945312 2.003906 L 95.992188 2.042969 L 96.042969 2.078125 L 96.089844 2.117188 L 96.136719 2.152344 L 96.183594 2.191406 L 96.234375 2.230469 L 96.28125 2.265625 L 96.328125 2.304688 L 96.371094 2.34375 L 96.558594 2.5 L 96.601562 2.542969 L 96.648438 2.582031 L 96.691406 2.621094 L 96.738281 2.664062 L 96.78125 2.703125 L 96.824219 2.746094 L 96.871094 2.789062 L 96.914062 2.828125 L 97.171875 3.085938 L 97.210938 3.128906 L 97.253906 3.175781 L 97.296875 3.21875 L 97.335938 3.261719 L 97.378906 3.308594 L 97.417969 3.351562 L 97.457031 3.398438 L 97.5 3.441406 L 97.65625 3.628906 L 97.695312 3.671875 L 97.734375 3.71875 L 97.769531 3.765625 L 97.808594 3.816406 L 97.847656 3.863281 L 97.882812 3.910156 L 97.921875 3.957031 L 97.957031 4.007812 L 97.996094 4.054688 L 98.03125 4.101562 L 98.101562 4.203125 L 98.136719 4.25 L 98.207031 4.351562 L 98.242188 4.398438 L 98.277344 4.449219 L 98.308594 4.5 L 98.34375 4.550781 L 98.375 4.601562 L 98.410156 4.652344 L 98.441406 4.703125 L 98.476562 4.757812 L 98.570312 4.910156 L 98.601562 4.964844 L 98.632812 5.015625 L 98.664062 5.070312 L 98.691406 5.121094 L 98.753906 5.230469 L 98.78125 5.28125 L 98.808594 5.335938 L 98.839844 5.390625 L 98.894531 5.5 L 98.921875 5.550781 L 98.949219 5.605469 L 98.976562 5.664062 L 99.058594 5.828125 L 99.082031 5.882812 L 99.109375 5.9375 L 99.132812 5.996094 L 99.15625 6.050781 L 99.183594 6.109375 L 99.207031 6.164062 L 99.230469 6.222656 L 99.253906 6.277344 L 99.277344 6.335938 L 99.300781 6.390625 L 99.320312 6.449219 L 99.34375 6.507812 L 99.367188 6.5625 L 99.386719 6.621094 L 99.410156 6.679688 L 99.546875 7.089844 L 99.5625 7.148438 L 99.582031 7.210938 L 99.601562 7.269531 L 99.617188 7.328125 L 99.632812 7.390625 L 99.648438 7.449219 L 99.667969 7.507812 L 99.683594 7.570312 L 99.699219 7.628906 L 99.710938 7.691406 L 99.726562 7.75 L 99.742188 7.8125 L 99.753906 7.875 L 99.769531 7.933594 L 99.78125 7.996094 L 99.796875 8.058594 L 99.808594 8.121094 L 99.820312 8.179688 L 99.84375 8.304688 L 99.851562 8.367188 L 99.875 8.492188 L 99.882812 8.554688 L 99.894531 8.617188 L 99.925781 8.867188 L 99.933594 8.933594 L 99.949219 9.058594 L 99.953125 9.121094 L 99.960938 9.1875 L 99.96875 9.3125 L 99.976562 9.378906 L 99.980469 9.441406 L 99.984375 9.507812 L 99.988281 9.570312 L 99.988281 9.636719 L 99.992188 9.699219 L 99.996094 9.765625 L 99.996094 9.894531 L 100 9.960938 L 100 90.039062 L 99.996094 90.105469 L 99.996094 90.234375 L 99.992188 90.300781 L 99.988281 90.363281 L 99.988281 90.429688 L 99.984375 90.492188 L 99.980469 90.558594 L 99.976562 90.621094 L 99.96875 90.6875 L 99.960938 90.8125 L 99.953125 90.878906 L 99.949219 90.941406 L 99.933594 91.066406 L 99.925781 91.132812 L 99.894531 91.382812 L 99.882812 91.445312 L 99.875 91.507812 L 99.851562 91.632812 L 99.84375 91.695312 L 99.820312 91.820312 L 99.808594 91.878906 L 99.796875 91.941406 L 99.78125 92.003906 L 99.769531 92.066406 L 99.753906 92.125 L 99.742188 92.1875 L 99.726562 92.25 L 99.710938 92.308594 L 99.699219 92.371094 L 99.683594 92.429688 L 99.667969 92.492188 L 99.648438 92.550781 L 99.632812 92.609375 L 99.617188 92.671875 L 99.601562 92.730469 L 99.582031 92.789062 L 99.5625 92.851562 L 99.546875 92.910156 L 99.410156 93.320312 L 99.386719 93.378906 L 99.367188 93.4375 L 99.34375 93.492188 L 99.320312 93.550781 L 99.300781 93.609375 L 99.277344 93.664062 L 99.253906 93.722656 L 99.230469 93.777344 L 99.207031 93.835938 L 99.183594 93.890625 L 99.15625 93.949219 L 99.132812 94.003906 L 99.109375 94.0625 L 99.082031 94.117188 L 99.058594 94.171875 L 98.976562 94.335938 L 98.949219 94.394531 L 98.921875 94.449219 L 98.894531 94.5 L 98.839844 94.609375 L 98.808594 94.664062 L 98.78125 94.71875 L 98.753906 94.769531 L 98.691406 94.878906 L 98.664062 94.929688 L 98.632812 94.984375 L 98.601562 95.035156 L 98.570312 95.089844 L 98.476562 95.242188 L 98.441406 95.296875 L 98.410156 95.347656 L 98.375 95.398438 L 98.34375 95.449219 L 98.308594 95.5 L 98.277344 95.550781 L 98.242188 95.601562 L 98.207031 95.648438 L 98.136719 95.75 L 98.101562 95.796875 L 98.03125 95.898438 L 97.996094 95.945312 L 97.957031 95.992188 L 97.921875 96.042969 L 97.882812 96.089844 L 97.847656 96.136719 L 97.808594 96.183594 L 97.769531 96.234375 L 97.734375 96.28125 L 97.695312 96.328125 L 97.65625 96.371094 L 97.5 96.558594 L 97.457031 96.601562 L 97.417969 96.648438 L 97.378906 96.691406 L 97.335938 96.738281 L 97.296875 96.78125 L 97.253906 96.824219 L 97.210938 96.871094 L 97.171875 96.914062 L 96.914062 97.171875 L 96.871094 97.210938 L 96.824219 97.253906 L 96.78125 97.296875 L 96.738281 97.335938 L 96.691406 97.378906 L 96.648438 97.417969 L 96.601562 97.457031 L 96.558594 97.5 L 96.371094 97.65625 L 96.328125 97.695312 L 96.28125 97.734375 L 96.234375 97.769531 L 96.183594 97.808594 L 96.136719 97.847656 L 96.089844 97.882812 L 96.042969 97.921875 L 95.992188 97.957031 L 95.945312 97.996094 L 95.898438 98.03125 L 95.796875 98.101562 L 95.75 98.136719 L 95.648438 98.207031 L 95.601562 98.242188 L 95.550781 98.277344 L 95.5 98.308594 L 95.449219 98.34375 L 95.398438 98.375 L 95.347656 98.410156 L 95.296875 98.441406 L 95.242188 98.476562 L 95.089844 98.570312 L 95.035156 98.601562 L 94.984375 98.632812 L 94.929688 98.664062 L 94.878906 98.691406 L 94.769531 98.753906 L 94.71875 98.78125 L 94.664062 98.808594 L 94.609375 98.839844 L 94.5 98.894531 L 94.449219 98.921875 L 94.394531 98.949219 L 94.335938 98.976562 L 94.171875 99.058594 L 94.117188 99.082031 L 94.0625 99.109375 L 94.003906 99.132812 L 93.949219 99.15625 L 93.890625 99.183594 L 93.835938 99.207031 L 93.777344 99.230469 L 93.722656 99.253906 L 93.664062 99.277344 L 93.609375 99.300781 L 93.550781 99.320312 L 93.492188 99.34375 L 93.4375 99.367188 L 93.378906 99.386719 L 93.320312 99.410156 L 92.910156 99.546875 L 92.851562 99.5625 L 92.789062 99.582031 L 92.730469 99.601562 L 92.671875 99.617188 L 92.609375 99.632812 L 92.550781 99.648438 L 92.492188 99.667969 L 92.429688 99.683594 L 92.371094 99.699219 L 92.308594 99.710938 L 92.25 99.726562 L 92.1875 99.742188 L 92.125 99.753906 L 92.066406 99.769531 L 92.003906 99.78125 L 91.941406 99.796875 L 91.878906 99.808594 L 91.820312 99.820312 L 91.695312 99.84375 L 91.632812 99.851562 L 91.507812 99.875 L 91.445312 99.882812 L 91.382812 99.894531 L 91.132812 99.925781 L 91.066406 99.933594 L 90.941406 99.949219 L 90.878906 99.953125 L 90.8125 99.960938 L 90.6875 99.96875 L 90.621094 99.976562 L 90.558594 99.980469 L 90.492188 99.984375 L 90.429688 99.988281 L 90.363281 99.988281 L 90.300781 99.992188 L 90.234375 99.996094 L 90.105469 99.996094 L 90.039062 100 L 9.960938 100 L 9.894531 99.996094 L 9.765625 99.996094 L 9.699219 99.992188 L 9.636719 99.988281 L 9.570312 99.988281 L 9.507812 99.984375 L 9.441406 99.980469 L 9.378906 99.976562 L 9.3125 99.96875 L 9.1875 99.960938 L 9.121094 99.953125 L 9.058594 99.949219 L 8.933594 99.933594 L 8.867188 99.925781 L 8.617188 99.894531 L 8.554688 99.882812 L 8.492188 99.875 L 8.367188 99.851562 L 8.304688 99.84375 L 8.179688 99.820312 L 8.121094 99.808594 L 8.058594 99.796875 L 7.996094 99.78125 L 7.933594 99.769531 L 7.875 99.753906 L 7.8125 99.742188 L 7.75 99.726562 L 7.691406 99.710938 L 7.628906 99.699219 L 7.570312 99.683594 L 7.507812 99.667969 L 7.449219 99.648438 L 7.390625 99.632812 L 7.328125 99.617188 L 7.269531 99.601562 L 7.210938 99.582031 L 7.148438 99.5625 L 7.089844 99.546875 L 6.679688 99.410156 L 6.621094 99.386719 L 6.5625 99.367188 L 6.507812 99.34375 L 6.449219 99.320312 L 6.390625 99.300781 L 6.335938 99.277344 L 6.277344 99.253906 L 6.222656 99.230469 L 6.164062 99.207031 L 6.109375 99.183594 L 6.050781 99.15625 L 5.996094 99.132812 L 5.9375 99.109375 L 5.882812 99.082031 L 5.828125 99.058594 L 5.664062 98.976562 L 5.605469 98.949219 L 5.550781 98.921875 L 5.5 98.894531 L 5.390625 98.839844 L 5.335938 98.808594 L 5.28125 98.78125 L 5.230469 98.753906 L 5.121094 98.691406 L 5.070312 98.664062 L 5.015625 98.632812 L 4.964844 98.601562 L 4.910156 98.570312 L 4.757812 98.476562 L 4.703125 98.441406 L 4.652344 98.410156 L 4.601562 98.375 L 4.550781 98.34375 L 4.5 98.308594 L 4.449219 98.277344 L 4.398438 98.242188 L 4.351562 98.207031 L 4.25 98.136719 L 4.203125 98.101562 L 4.101562 98.03125 L 4.054688 97.996094 L 4.007812 97.957031 L 3.957031 97.921875 L 3.910156 97.882812 L 3.863281 97.847656 L 3.816406 97.808594 L 3.765625 97.769531 L 3.71875 97.734375 L 3.671875 97.695312 L 3.628906 97.65625 L 3.441406 97.5 L 3.398438 97.457031 L 3.351562 97.417969 L 3.308594 97.378906 L 3.261719 97.335938 L 3.21875 97.296875 L 3.175781 97.253906 L 3.128906 97.210938 L 3.085938 97.171875 L 2.828125 96.914062 L 2.789062 96.871094 L 2.746094 96.824219 L 2.703125 96.78125 L 2.664062 96.738281 L 2.621094 96.691406 L 2.582031 96.648438 L 2.542969 96.601562 L 2.5 96.558594 L 2.34375 96.371094 L 2.304688 96.328125 L 2.265625 96.28125 L 2.230469 96.234375 L 2.191406 96.183594 L 2.152344 96.136719 L 2.117188 96.089844 L 2.078125 96.042969 L 2.042969 95.992188 L 2.003906 95.945312 L 1.96875 95.898438 L 1.898438 95.796875 L 1.863281 95.75 L 1.792969 95.648438 L 1.757812 95.601562 L 1.722656 95.550781 L 1.691406 95.5 L 1.65625 95.449219 L 1.625 95.398438 L 1.589844 95.347656 L 1.558594 95.296875 L 1.523438 95.242188 L 1.429688 95.089844 L 1.398438 95.035156 L 1.367188 94.984375 L 1.335938 94.929688 L 1.308594 94.878906 L 1.246094 94.769531 L 1.21875 94.71875 L 1.191406 94.664062 L 1.160156 94.609375 L 1.105469 94.5 L 1.078125 94.449219 L 1.050781 94.394531 L 1.023438 94.335938 L 0.941406 94.171875 L 0.917969 94.117188 L 0.890625 94.0625 L 0.867188 94.003906 L 0.84375 93.949219 L 0.816406 93.890625 L 0.792969 93.835938 L 0.769531 93.777344 L 0.746094 93.722656 L 0.722656 93.664062 L 0.699219 93.609375 L 0.679688 93.550781 L 0.65625 93.492188 L 0.632812 93.4375 L 0.613281 93.378906 L 0.589844 93.320312 L 0.453125 92.910156 L 0.4375 92.851562 L 0.417969 92.789062 L 0.398438 92.730469 L 0.382812 92.671875 L 0.367188 92.609375 L 0.351562 92.550781 L 0.332031 92.492188 L 0.316406 92.429688 L 0.300781 92.371094 L 0.289062 92.308594 L 0.273438 92.25 L 0.257812 92.1875 L 0.246094 92.125 L 0.230469 92.066406 L 0.21875 92.003906 L 0.203125 91.941406 L 0.191406 91.878906 L 0.179688 91.820312 L 0.15625 91.695312 L 0.148438 91.632812 L 0.125 91.507812 L 0.117188 91.445312 L 0.105469 91.382812 L 0.0742188 91.132812 L 0.0664062 91.066406 L 0.0507812 90.941406 L 0.046875 90.878906 L 0.0390625 90.8125 L 0.03125 90.6875 L 0.0234375 90.621094 L 0.0195312 90.558594 L 0.015625 90.492188 L 0.0117188 90.429688 L 0.0117188 90.363281 L 0.0078125 90.300781 L 0.00390625 90.234375 L 0.00390625 90.105469 L 0 90.039062 L 0 9.960938 L 0.00390625 9.894531 L 0.00390625 9.765625 L 0.0078125 9.699219 L 0.0117188 9.636719 L 0.0117188 9.570312 L 0.015625 9.507812 L 0.0195312 9.441406 L 0.0234375 9.378906 L 0.03125 9.3125 L 0.0390625 9.1875 L 0.046875 9.121094 L 0.0507812 9.058594 L 0.0664062 8.933594 L 0.0742188 8.867188 L 0.105469 8.617188 L 0.117188 8.554688 L 0.125 8.492188 L 0.148438 8.367188 L 0.15625 8.304688 L 0.179688 8.179688 L 0.191406 8.121094 L 0.203125 8.058594 L 0.21875 7.996094 L 0.230469 7.933594 L 0.246094 7.875 L 0.257812 7.8125 L 0.273438 7.75 L 0.289062 7.691406 L 0.300781 7.628906 L 0.316406 7.570312 L 0.332031 7.507812 L 0.351562 7.449219 L 0.367188 7.390625 L 0.382812 7.328125 L 0.398438 7.269531 L 0.417969 7.210938 L 0.4375 7.148438 L 0.453125 7.089844 L 0.589844 6.679688 L 0.613281 6.621094 L 0.632812 6.5625 L 0.65625 6.507812 L 0.679688 6.449219 L 0.699219 6.390625 L 0.722656 6.335938 L 0.746094 6.277344 L 0.769531 6.222656 L 0.792969 6.164062 L 0.816406 6.109375 L 0.84375 6.050781 L 0.867188 5.996094 L 0.890625 5.9375 L 0.917969 5.882812 L 0.941406 5.828125 L 1.023438 5.664062 L 1.050781 5.605469 L 1.078125 5.550781 L 1.105469 5.5 L 1.160156 5.390625 L 1.191406 5.335938 L 1.21875 5.28125 L 1.246094 5.230469 L 1.308594 5.121094 L 1.335938 5.070312 L 1.367188 5.015625 L 1.398438 4.964844 L 1.429688 4.910156 L 1.523438 4.757812 L 1.558594 4.703125 L 1.589844 4.652344 L 1.625 4.601562 L 1.65625 4.550781 L 1.691406 4.5 L 1.722656 4.449219 L 1.757812 4.398438 L 1.792969 4.351562 L 1.863281 4.25 L 1.898438 4.203125 L 1.96875 4.101562 L 2.003906 4.054688 L 2.042969 4.007812 L 2.078125 3.957031 L 2.117188 3.910156 L 2.152344 3.863281 L 2.191406 3.816406 L 2.230469 3.765625 L 2.265625 3.71875 L 2.304688 3.671875 L 2.34375 3.628906 L 2.5 3.441406 L 2.542969 3.398438 L 2.582031 3.351562 L 2.621094 3.308594 L 2.664062 3.261719 L 2.703125 3.21875 L 2.746094 3.175781 L 2.789062 3.128906 L 2.828125 3.085938 L 3.085938 2.828125 L 3.128906 2.789062 L 3.175781 2.746094 L 3.21875 2.703125 L 3.261719 2.664062 L 3.308594 2.621094 L 3.351562 2.582031 L 3.398438 2.542969 L 3.441406 2.5 L 3.628906 2.34375 L 3.671875 2.304688 L 3.71875 2.265625 L 3.765625 2.230469 L 3.816406 2.191406 L 3.863281 2.152344 L 3.910156 2.117188 L 3.957031 2.078125 L 4.007812 2.042969 L 4.054688 2.003906 L 4.101562 1.96875 L 4.203125 1.898438 L 4.25 1.863281 L 4.351562 1.792969 L 4.398438 1.757812 L 4.449219 1.722656 L 4.5 1.691406 L 4.550781 1.65625 L 4.601562 1.625 L 4.652344 1.589844 L 4.703125 1.558594 L 4.757812 1.523438 L 4.910156 1.429688 L 4.964844 1.398438 L 5.015625 1.367188 L 5.070312 1.335938 L 5.121094 1.308594 L 5.230469 1.246094 L 5.28125 1.21875 L 5.335938 1.191406 L 5.390625 1.160156 L 5.5 1.105469 L 5.550781 1.078125 L 5.605469 1.050781 L 5.664062 1.023438 L 5.828125 0.941406 L 5.882812 0.917969 L 5.9375 0.890625 L 5.996094 0.867188 L 6.050781 0.84375 L 6.109375 0.816406 L 6.164062 0.792969 L 6.222656 0.769531 L 6.277344 0.746094 L 6.335938 0.722656 L 6.390625 0.699219 L 6.449219 0.679688 L 6.507812 0.65625 L 6.5625 0.632812 L 6.621094 0.613281 L 6.679688 0.589844 L 7.089844 0.453125 L 7.148438 0.4375 L 7.210938 0.417969 L 7.269531 0.398438 L 7.328125 0.382812 L 7.390625 0.367188 L 7.449219 0.351562 L 7.507812 0.332031 L 7.570312 0.316406 L 7.628906 0.300781 L 7.691406 0.289062 L 7.75 0.273438 L 7.8125 0.257812 L 7.875 0.246094 L 7.933594 0.230469 L 7.996094 0.21875 L 8.058594 0.203125 L 8.121094 0.191406 L 8.179688 0.179688 L 8.304688 0.15625 L 8.367188 0.148438 L 8.492188 0.125 L 8.554688 0.117188 L 8.617188 0.105469 L 8.867188 0.0742188 L 8.933594 0.0664062 L 9.058594 0.0507812 L 9.121094 0.046875 L 9.1875 0.0390625 L 9.3125 0.03125 L 9.378906 0.0234375 L 9.441406 0.0195312 L 9.507812 0.015625 L 9.570312 0.0117188 L 9.636719 0.0117188 L 9.699219 0.0078125 L 9.765625 0.00390625 L 9.894531 0.00390625 L 9.960938 0 Z M 10.097656 5.332031 L 10.027344 5.332031 L 9.996094 5.335938 L 9.902344 5.335938 L 9.871094 5.339844 L 9.8125 5.339844 L 9.78125 5.34375 L 9.75 5.34375 L 9.6875 5.351562 L 9.660156 5.351562 L 9.597656 5.359375 L 9.570312 5.363281 L 9.539062 5.363281 L 9.507812 5.367188 L 9.480469 5.371094 L 9.449219 5.375 L 9.421875 5.378906 L 9.359375 5.386719 L 9.332031 5.394531 L 9.300781 5.398438 L 9.273438 5.402344 L 9.242188 5.40625 L 9.214844 5.414062 L 9.1875 5.417969 L 9.15625 5.425781 L 9.128906 5.429688 L 9.097656 5.4375 L 9.070312 5.441406 L 9.042969 5.449219 L 9.011719 5.453125 L 8.929688 5.476562 L 8.898438 5.484375 L 8.871094 5.488281 L 8.789062 5.511719 L 8.757812 5.519531 L 8.730469 5.53125 L 8.621094 5.5625 L 8.59375 5.574219 L 8.539062 5.589844 L 8.511719 5.601562 L 8.484375 5.609375 L 8.457031 5.621094 L 8.429688 5.628906 L 8.375 5.652344 L 8.351562 5.660156 L 8.269531 5.695312 L 8.242188 5.703125 L 8.214844 5.714844 L 8.191406 5.726562 L 8.136719 5.75 L 8.113281 5.761719 L 8.085938 5.773438 L 8.058594 5.789062 L 8.035156 5.800781 L 7.980469 5.824219 L 7.957031 5.839844 L 7.929688 5.851562 L 7.90625 5.863281 L 7.878906 5.878906 L 7.855469 5.890625 L 7.828125 5.90625 L 7.804688 5.917969 L 7.777344 5.933594 L 7.753906 5.945312 L 7.730469 5.960938 L 7.703125 5.976562 L 7.679688 5.988281 L 7.65625 6.003906 L 7.628906 6.019531 L 7.582031 6.050781 L 7.558594 6.0625 L 7.53125 6.078125 L 7.507812 6.09375 L 7.484375 6.113281 L 7.34375 6.207031 L 7.320312 6.226562 L 7.273438 6.257812 L 7.25 6.277344 L 7.226562 6.292969 L 7.203125 6.3125 L 7.179688 6.328125 L 7.15625 6.347656 L 7.136719 6.363281 L 7.113281 6.382812 L 7.089844 6.398438 L 7.070312 6.417969 L 7.023438 6.457031 L 7.003906 6.472656 L 6.980469 6.492188 L 6.960938 6.511719 L 6.914062 6.550781 L 6.875 6.589844 L 6.851562 6.609375 L 6.832031 6.628906 L 6.808594 6.648438 L 6.75 6.707031 L 6.726562 6.726562 L 6.707031 6.75 L 6.648438 6.808594 L 6.628906 6.832031 L 6.609375 6.851562 L 6.589844 6.875 L 6.550781 6.914062 L 6.511719 6.960938 L 6.492188 6.980469 L 6.472656 7.003906 L 6.457031 7.023438 L 6.417969 7.070312 L 6.398438 7.089844 L 6.382812 7.113281 L 6.363281 7.136719 L 6.347656 7.15625 L 6.328125 7.179688 L 6.3125 7.203125 L 6.292969 7.226562 L 6.277344 7.25 L 6.257812 7.273438 L 6.226562 7.320312 L 6.207031 7.34375 L 6.113281 7.484375 L 6.09375 7.507812 L 6.078125 7.53125 L 6.0625 7.558594 L 6.050781 7.582031 L 6.019531 7.628906 L 6.003906 7.65625 L 5.988281 7.679688 L 5.976562 7.703125 L 5.960938 7.730469 L 5.945312 7.753906 L 5.933594 7.777344 L 5.917969 7.804688 L 5.90625 7.828125 L 5.890625 7.855469 L 5.878906 7.878906 L 5.863281 7.90625 L 5.851562 7.929688 L 5.839844 7.957031 L 5.824219 7.980469 L 5.800781 8.035156 L 5.789062 8.058594 L 5.773438 8.085938 L 5.761719 8.113281 L 5.75 8.136719 L 5.726562 8.191406 L 5.714844 8.214844 L 5.703125 8.242188 L 5.695312 8.269531 L 5.660156 8.351562 L 5.652344 8.375 L 5.628906 8.429688 L 5.621094 8.457031 L 5.609375 8.484375 L 5.601562 8.511719 L 5.589844 8.539062 L 5.574219 8.59375 L 5.5625 8.621094 L 5.53125 8.730469 L 5.519531 8.757812 L 5.511719 8.789062 L 5.488281 8.871094 L 5.484375 8.898438 L 5.476562 8.929688 L 5.453125 9.011719 L 5.449219 9.042969 L 5.441406 9.070312 L 5.4375 9.097656 L 5.429688 9.128906 L 5.425781 9.15625 L 5.417969 9.1875 L 5.414062 9.214844 L 5.40625 9.242188 L 5.402344 9.273438 L 5.398438 9.300781 L 5.394531 9.332031 L 5.386719 9.359375 L 5.378906 9.421875 L 5.375 9.449219 L 5.371094 9.480469 L 5.367188 9.507812 L 5.363281 9.539062 L 5.363281 9.570312 L 5.359375 9.597656 L 5.351562 9.660156 L 5.351562 9.6875 L 5.34375 9.75 L 5.34375 9.78125 L 5.339844 9.8125 L 5.339844 9.871094 L 5.335938 9.902344 L 5.335938 9.996094 L 5.332031 10.027344 L 5.332031 89.972656 L 5.335938 90.003906 L 5.335938 90.097656 L 5.339844 90.128906 L 5.339844 90.1875 L 5.34375 90.21875 L 5.34375 90.25 L 5.351562 90.3125 L 5.351562 90.339844 L 5.359375 90.402344 L 5.363281 90.429688 L 5.363281 90.460938 L 5.367188 90.492188 L 5.371094 90.519531 L 5.375 90.550781 L 5.378906 90.578125 L 5.386719 90.640625 L 5.394531 90.667969 L 5.398438 90.699219 L 5.402344 90.726562 L 5.40625 90.757812 L 5.414062 90.785156 L 5.417969 90.8125 L 5.425781 90.84375 L 5.429688 90.871094 L 5.4375 90.902344 L 5.441406 90.929688 L 5.449219 90.957031 L 5.453125 90.988281 L 5.476562 91.070312 L 5.484375 91.101562 L 5.488281 91.128906 L 5.511719 91.210938 L 5.519531 91.242188 L 5.53125 91.269531 L 5.5625 91.378906 L 5.574219 91.40625 L 5.589844 91.460938 L 5.601562 91.488281 L 5.609375 91.515625 L 5.621094 91.542969 L 5.628906 91.570312 L 5.652344 91.625 L 5.660156 91.648438 L 5.695312 91.730469 L 5.703125 91.757812 L 5.714844 91.785156 L 5.726562 91.808594 L 5.75 91.863281 L 5.761719 91.886719 L 5.773438 91.914062 L 5.789062 91.941406 L 5.800781 91.964844 L 5.824219 92.019531 L 5.839844 92.042969 L 5.851562 92.070312 L 5.863281 92.09375 L 5.878906 92.121094 L 5.890625 92.144531 L 5.90625 92.171875 L 5.917969 92.195312 L 5.933594 92.222656 L 5.945312 92.246094 L 5.960938 92.269531 L 5.976562 92.296875 L 5.988281 92.320312 L 6.003906 92.34375 L 6.019531 92.371094 L 6.066406 92.441406 L 6.078125 92.46875 L 6.09375 92.492188 L 6.113281 92.515625 L 6.207031 92.65625 L 6.226562 92.679688 L 6.257812 92.726562 L 6.277344 92.75 L 6.292969 92.773438 L 6.3125 92.796875 L 6.328125 92.820312 L 6.347656 92.84375 L 6.363281 92.863281 L 6.382812 92.886719 L 6.398438 92.910156 L 6.417969 92.933594 L 6.4375 92.953125 L 6.457031 92.976562 L 6.472656 92.996094 L 6.492188 93.019531 L 6.511719 93.039062 L 6.550781 93.085938 L 6.589844 93.125 L 6.609375 93.148438 L 6.648438 93.1875 L 6.667969 93.210938 L 6.707031 93.25 L 6.726562 93.273438 L 6.75 93.292969 L 6.808594 93.351562 L 6.832031 93.371094 L 6.851562 93.390625 L 6.875 93.410156 L 6.914062 93.449219 L 6.960938 93.488281 L 6.980469 93.507812 L 7.003906 93.527344 L 7.023438 93.542969 L 7.070312 93.582031 L 7.089844 93.601562 L 7.113281 93.617188 L 7.136719 93.636719 L 7.15625 93.652344 L 7.179688 93.671875 L 7.203125 93.6875 L 7.226562 93.707031 L 7.25 93.722656 L 7.273438 93.742188 L 7.320312 93.773438 L 7.34375 93.792969 L 7.484375 93.886719 L 7.507812 93.90625 L 7.53125 93.921875 L 7.558594 93.933594 L 7.628906 93.980469 L 7.65625 93.996094 L 7.679688 94.011719 L 7.703125 94.023438 L 7.730469 94.039062 L 7.753906 94.054688 L 7.777344 94.066406 L 7.804688 94.082031 L 7.828125 94.09375 L 7.855469 94.109375 L 7.878906 94.121094 L 7.90625 94.136719 L 7.929688 94.148438 L 7.957031 94.164062 L 7.980469 94.175781 L 8.035156 94.199219 L 8.058594 94.210938 L 8.085938 94.226562 L 8.113281 94.238281 L 8.136719 94.25 L 8.191406 94.273438 L 8.214844 94.285156 L 8.242188 94.296875 L 8.269531 94.304688 L 8.351562 94.339844 L 8.375 94.347656 L 8.429688 94.371094 L 8.457031 94.378906 L 8.484375 94.390625 L 8.511719 94.398438 L 8.539062 94.410156 L 8.59375 94.425781 L 8.621094 94.4375 L 8.730469 94.46875 L 8.757812 94.480469 L 8.789062 94.488281 L 8.871094 94.511719 L 8.898438 94.515625 L 8.929688 94.523438 L 9.011719 94.546875 L 9.042969 94.550781 L 9.070312 94.558594 L 9.097656 94.5625 L 9.128906 94.570312 L 9.15625 94.574219 L 9.1875 94.582031 L 9.214844 94.585938 L 9.242188 94.59375 L 9.273438 94.597656 L 9.300781 94.601562 L 9.332031 94.605469 L 9.359375 94.613281 L 9.390625 94.617188 L 9.417969 94.621094 L 9.480469 94.628906 L 9.507812 94.632812 L 9.539062 94.636719 L 9.570312 94.636719 L 9.597656 94.640625 L 9.660156 94.648438 L 9.6875 94.648438 L 9.75 94.65625 L 9.78125 94.65625 L 9.8125 94.660156 L 9.871094 94.660156 L 9.902344 94.664062 L 9.996094 94.664062 L 10.027344 94.667969 L 89.972656 94.667969 L 90.003906 94.664062 L 90.097656 94.664062 L 90.128906 94.660156 L 90.1875 94.660156 L 90.21875 94.65625 L 90.25 94.65625 L 90.3125 94.648438 L 90.339844 94.648438 L 90.402344 94.640625 L 90.429688 94.636719 L 90.460938 94.636719 L 90.492188 94.632812 L 90.519531 94.628906 L 90.582031 94.621094 L 90.609375 94.617188 L 90.640625 94.613281 L 90.667969 94.605469 L 90.699219 94.601562 L 90.726562 94.597656 L 90.757812 94.59375 L 90.785156 94.585938 L 90.8125 94.582031 L 90.84375 94.574219 L 90.871094 94.570312 L 90.902344 94.5625 L 90.929688 94.558594 L 90.957031 94.550781 L 90.988281 94.546875 L 91.070312 94.523438 L 91.101562 94.515625 L 91.128906 94.511719 L 91.210938 94.488281 L 91.242188 94.480469 L 91.269531 94.46875 L 91.378906 94.4375 L 91.40625 94.425781 L 91.460938 94.410156 L 91.488281 94.398438 L 91.515625 94.390625 L 91.542969 94.378906 L 91.570312 94.371094 L 91.625 94.347656 L 91.648438 94.339844 L 91.730469 94.304688 L 91.757812 94.296875 L 91.785156 94.285156 L 91.808594 94.273438 L 91.863281 94.25 L 91.886719 94.238281 L 91.914062 94.226562 L 91.941406 94.210938 L 91.964844 94.199219 L 92.019531 94.175781 L 92.042969 94.160156 L 92.070312 94.148438 L 92.09375 94.136719 L 92.121094 94.121094 L 92.144531 94.109375 L 92.171875 94.09375 L 92.195312 94.082031 L 92.222656 94.066406 L 92.246094 94.054688 L 92.269531 94.039062 L 92.296875 94.023438 L 92.320312 94.011719 L 92.34375 93.996094 L 92.371094 93.980469 L 92.441406 93.933594 L 92.46875 93.921875 L 92.492188 93.90625 L 92.515625 93.886719 L 92.65625 93.792969 L 92.679688 93.773438 L 92.726562 93.742188 L 92.75 93.722656 L 92.773438 93.707031 L 92.796875 93.6875 L 92.820312 93.671875 L 92.84375 93.652344 L 92.863281 93.636719 L 92.886719 93.617188 L 92.910156 93.601562 L 92.933594 93.582031 L 92.953125 93.5625 L 92.976562 93.542969 L 92.996094 93.527344 L 93.019531 93.507812 L 93.039062 93.488281 L 93.085938 93.449219 L 93.125 93.410156 L 93.148438 93.390625 L 93.167969 93.371094 L 93.191406 93.351562 L 93.25 93.292969 L 93.273438 93.273438 L 93.292969 93.25 L 93.351562 93.191406 L 93.371094 93.167969 L 93.390625 93.148438 L 93.410156 93.125 L 93.449219 93.085938 L 93.488281 93.039062 L 93.507812 93.019531 L 93.527344 92.996094 L 93.542969 92.976562 L 93.5625 92.953125 L 93.582031 92.933594 L 93.601562 92.910156 L 93.617188 92.886719 L 93.636719 92.863281 L 93.652344 92.84375 L 93.671875 92.820312 L 93.6875 92.796875 L 93.707031 92.773438 L 93.722656 92.75 L 93.742188 92.726562 L 93.773438 92.679688 L 93.792969 92.65625 L 93.886719 92.515625 L 93.90625 92.492188 L 93.921875 92.46875 L 93.933594 92.441406 L 93.980469 92.371094 L 93.996094 92.34375 L 94.011719 92.320312 L 94.023438 92.296875 L 94.039062 92.269531 L 94.054688 92.246094 L 94.066406 92.222656 L 94.082031 92.195312 L 94.09375 92.171875 L 94.109375 92.144531 L 94.121094 92.121094 L 94.136719 92.09375 L 94.148438 92.070312 L 94.160156 92.042969 L 94.175781 92.019531 L 94.199219 91.964844 L 94.210938 91.941406 L 94.226562 91.914062 L 94.238281 91.886719 L 94.25 91.863281 L 94.273438 91.808594 L 94.285156 91.785156 L 94.296875 91.757812 L 94.304688 91.730469 L 94.339844 91.648438 L 94.347656 91.625 L 94.371094 91.570312 L 94.378906 91.542969 L 94.390625 91.515625 L 94.398438 91.488281 L 94.410156 91.460938 L 94.425781 91.40625 L 94.4375 91.378906 L 94.46875 91.269531 L 94.480469 91.242188 L 94.488281 91.210938 L 94.511719 91.128906 L 94.515625 91.101562 L 94.523438 91.070312 L 94.546875 90.988281 L 94.550781 90.957031 L 94.558594 90.929688 L 94.5625 90.902344 L 94.570312 90.871094 L 94.574219 90.84375 L 94.582031 90.8125 L 94.585938 90.785156 L 94.59375 90.757812 L 94.597656 90.726562 L 94.601562 90.699219 L 94.605469 90.667969 L 94.613281 90.640625 L 94.617188 90.609375 L 94.621094 90.582031 L 94.628906 90.519531 L 94.632812 90.492188 L 94.636719 90.460938 L 94.636719 90.429688 L 94.640625 90.402344 L 94.648438 90.339844 L 94.648438 90.3125 L 94.65625 90.25 L 94.65625 90.21875 L 94.660156 90.1875 L 94.660156 90.128906 L 94.664062 90.097656 L 94.664062 90.003906 L 94.667969 89.972656 L 94.667969 10.027344 L 94.664062 9.996094 L 94.664062 9.902344 L 94.660156 9.871094 L 94.660156 9.8125 L 94.65625 9.78125 L 94.65625 9.75 L 94.648438 9.6875 L 94.648438 9.660156 L 94.640625 9.597656 L 94.636719 9.570312 L 94.636719 9.539062 L 94.632812 9.507812 L 94.628906 9.480469 L 94.621094 9.417969 L 94.617188 9.390625 L 94.613281 9.359375 L 94.605469 9.332031 L 94.601562 9.300781 L 94.597656 9.273438 L 94.59375 9.242188 L 94.585938 9.214844 L 94.582031 9.1875 L 94.574219 9.15625 L 94.570312 9.128906 L 94.5625 9.097656 L 94.558594 9.070312 L 94.550781 9.042969 L 94.546875 9.011719 L 94.523438 8.929688 L 94.515625 8.898438 L 94.511719 8.871094 L 94.488281 8.789062 L 94.480469 8.757812 L 94.46875 8.730469 L 94.4375 8.621094 L 94.425781 8.59375 L 94.410156 8.539062 L 94.398438 8.511719 L 94.390625 8.484375 L 94.378906 8.457031 L 94.371094 8.429688 L 94.347656 8.375 L 94.339844 8.351562 L 94.304688 8.269531 L 94.296875 8.242188 L 94.285156 8.214844 L 94.273438 8.191406 L 94.25 8.136719 L 94.238281 8.113281 L 94.226562 8.085938 L 94.210938 8.058594 L 94.199219 8.035156 L 94.175781 7.980469 L 94.164062 7.957031 L 94.148438 7.929688 L 94.136719 7.90625 L 94.121094 7.878906 L 94.109375 7.855469 L 94.09375 7.828125 L 94.082031 7.804688 L 94.066406 7.777344 L 94.054688 7.753906 L 94.039062 7.730469 L 94.023438 7.703125 L 94.011719 7.679688 L 93.996094 7.65625 L 93.980469 7.628906 L 93.933594 7.558594 L 93.921875 7.53125 L 93.90625 7.507812 L 93.886719 7.484375 L 93.792969 7.34375 L 93.773438 7.320312 L 93.742188 7.273438 L 93.722656 7.25 L 93.707031 7.226562 L 93.6875 7.203125 L 93.671875 7.179688 L 93.652344 7.15625 L 93.636719 7.136719 L 93.617188 7.113281 L 93.601562 7.089844 L 93.582031 7.070312 L 93.542969 7.023438 L 93.527344 7.003906 L 93.507812 6.980469 L 93.488281 6.960938 L 93.449219 6.914062 L 93.410156 6.875 L 93.390625 6.851562 L 93.371094 6.832031 L 93.351562 6.808594 L 93.292969 6.75 L 93.273438 6.726562 L 93.25 6.707031 L 93.210938 6.667969 L 93.1875 6.648438 L 93.148438 6.609375 L 93.125 6.589844 L 93.085938 6.550781 L 93.039062 6.511719 L 93.019531 6.492188 L 92.996094 6.472656 L 92.976562 6.457031 L 92.953125 6.4375 L 92.933594 6.417969 L 92.910156 6.398438 L 92.886719 6.382812 L 92.863281 6.363281 L 92.84375 6.347656 L 92.820312 6.328125 L 92.796875 6.3125 L 92.773438 6.292969 L 92.75 6.277344 L 92.726562 6.257812 L 92.679688 6.226562 L 92.65625 6.207031 L 92.515625 6.113281 L 92.492188 6.09375 L 92.46875 6.078125 L 92.441406 6.066406 L 92.371094 6.019531 L 92.34375 6.003906 L 92.320312 5.988281 L 92.296875 5.976562 L 92.269531 5.960938 L 92.246094 5.945312 L 92.222656 5.933594 L 92.195312 5.917969 L 92.171875 5.90625 L 92.144531 5.890625 L 92.121094 5.878906 L 92.09375 5.863281 L 92.070312 5.851562 L 92.042969 5.839844 L 92.019531 5.824219 L 91.964844 5.800781 L 91.941406 5.789062 L 91.914062 5.773438 L 91.886719 5.761719 L 91.863281 5.75 L 91.808594 5.726562 L 91.785156 5.714844 L 91.757812 5.703125 L 91.730469 5.695312 L 91.648438 5.660156 L 91.625 5.652344 L 91.570312 5.628906 L 91.542969 5.621094 L 91.515625 5.609375 L 91.488281 5.601562 L 91.460938 5.589844 L 91.40625 5.574219 L 91.378906 5.5625 L 91.269531 5.53125 L 91.242188 5.519531 L 91.210938 5.511719 L 91.128906 5.488281 L 91.101562 5.484375 L 91.070312 5.476562 L 90.988281 5.453125 L 90.957031 5.449219 L 90.929688 5.441406 L 90.902344 5.4375 L 90.871094 5.429688 L 90.84375 5.425781 L 90.8125 5.417969 L 90.785156 5.414062 L 90.757812 5.40625 L 90.726562 5.402344 L 90.699219 5.398438 L 90.667969 5.394531 L 90.640625 5.386719 L 90.578125 5.378906 L 90.550781 5.375 L 90.519531 5.371094 L 90.492188 5.367188 L 90.460938 5.363281 L 90.429688 5.363281 L 90.402344 5.359375 L 90.339844 5.351562 L 90.3125 5.351562 L 90.25 5.34375 L 90.21875 5.34375 L 90.1875 5.339844 L 90.128906 5.339844 L 90.097656 5.335938 L 90.003906 5.335938 L 89.972656 5.332031 Z M 10.097656 5.332031 "/>
<path style=" stroke:none;fill-rule:evenodd;fill:rgb(100%,99.607843%,99.607843%);fill-opacity:1;" d="M 83.339844 58.164062 C 83.339844 53.65625 79.679688 50 75.175781 50 L 24.824219 50 C 20.320312 50 16.660156 53.65625 16.660156 58.164062 L 16.660156 74.488281 C 16.660156 78.996094 20.320312 82.652344 24.824219 82.652344 L 75.175781 82.652344 C 79.679688 82.652344 83.339844 78.996094 83.339844 74.488281 Z M 83.339844 58.164062 "/>
<path style=" stroke:none;fill-rule:evenodd;fill:rgb(30.19608%,30.19608%,30.19608%);fill-opacity:1;" d="M 75.226562 50 L 75.332031 50 L 75.386719 50.003906 L 75.488281 50.003906 L 75.542969 50.007812 L 75.59375 50.011719 L 75.648438 50.011719 L 75.800781 50.023438 L 75.855469 50.027344 L 75.957031 50.035156 L 76.007812 50.042969 L 76.058594 50.046875 L 76.113281 50.054688 L 76.164062 50.058594 L 76.214844 50.066406 L 76.265625 50.070312 L 76.570312 50.117188 L 76.617188 50.128906 L 76.71875 50.144531 L 76.820312 50.167969 L 76.867188 50.175781 L 76.96875 50.199219 L 77.015625 50.210938 L 77.117188 50.234375 L 77.164062 50.246094 L 77.214844 50.257812 L 77.261719 50.269531 L 77.3125 50.28125 L 77.359375 50.296875 L 77.410156 50.308594 L 77.457031 50.324219 L 77.503906 50.335938 L 77.554688 50.351562 L 77.695312 50.398438 L 77.746094 50.414062 L 77.886719 50.460938 L 77.933594 50.480469 L 78.027344 50.511719 L 78.074219 50.53125 L 78.121094 50.546875 L 78.214844 50.585938 L 78.257812 50.605469 L 78.304688 50.621094 L 78.398438 50.660156 L 78.441406 50.679688 L 78.488281 50.703125 L 78.53125 50.722656 L 78.625 50.761719 L 78.667969 50.785156 L 78.710938 50.804688 L 78.757812 50.828125 L 78.800781 50.847656 L 78.847656 50.871094 L 78.976562 50.941406 L 79.019531 50.960938 L 79.066406 50.984375 L 79.109375 51.007812 L 79.152344 51.035156 L 79.28125 51.105469 L 79.320312 51.132812 L 79.363281 51.15625 L 79.40625 51.183594 L 79.449219 51.207031 L 79.492188 51.234375 L 79.53125 51.261719 L 79.574219 51.285156 L 79.613281 51.3125 L 79.65625 51.339844 L 79.695312 51.367188 L 79.738281 51.394531 L 79.777344 51.421875 L 79.820312 51.449219 L 79.859375 51.476562 L 79.898438 51.507812 L 79.9375 51.535156 L 79.980469 51.566406 L 80.058594 51.621094 L 80.136719 51.683594 L 80.175781 51.710938 L 80.214844 51.742188 L 80.25 51.773438 L 80.328125 51.835938 L 80.367188 51.863281 L 80.402344 51.898438 L 80.480469 51.960938 L 80.515625 51.992188 L 80.554688 52.023438 L 80.589844 52.054688 L 80.625 52.089844 L 80.664062 52.121094 L 80.699219 52.15625 L 80.734375 52.1875 L 80.769531 52.222656 L 80.804688 52.253906 L 80.910156 52.359375 L 80.945312 52.390625 L 81.050781 52.496094 L 81.082031 52.53125 L 81.117188 52.566406 L 81.148438 52.605469 L 81.183594 52.640625 L 81.214844 52.675781 L 81.25 52.710938 L 81.28125 52.75 L 81.3125 52.785156 L 81.347656 52.820312 L 81.410156 52.898438 L 81.441406 52.933594 L 81.503906 53.011719 L 81.535156 53.046875 L 81.597656 53.125 L 81.625 53.164062 L 81.6875 53.242188 L 81.714844 53.28125 L 81.746094 53.320312 L 81.800781 53.398438 L 81.832031 53.4375 L 81.859375 53.480469 L 81.914062 53.558594 L 81.941406 53.601562 L 81.96875 53.640625 L 81.996094 53.683594 L 82.023438 53.722656 L 82.050781 53.765625 L 82.078125 53.804688 L 82.105469 53.847656 L 82.128906 53.890625 L 82.15625 53.933594 L 82.179688 53.972656 L 82.207031 54.015625 L 82.253906 54.101562 L 82.28125 54.144531 L 82.398438 54.359375 L 82.421875 54.40625 L 82.46875 54.492188 L 82.488281 54.535156 L 82.511719 54.582031 L 82.53125 54.625 L 82.554688 54.671875 L 82.574219 54.714844 L 82.597656 54.761719 L 82.617188 54.804688 L 82.636719 54.851562 L 82.65625 54.894531 L 82.695312 54.988281 L 82.714844 55.03125 L 82.773438 55.171875 L 82.789062 55.21875 L 82.808594 55.265625 L 82.824219 55.3125 L 82.84375 55.359375 L 82.875 55.453125 L 82.894531 55.5 L 82.957031 55.6875 L 82.972656 55.738281 L 82.984375 55.785156 L 83 55.832031 L 83.015625 55.882812 L 83.027344 55.929688 L 83.042969 55.976562 L 83.054688 56.027344 L 83.066406 56.074219 L 83.082031 56.125 L 83.09375 56.171875 L 83.105469 56.222656 L 83.117188 56.269531 L 83.140625 56.371094 L 83.152344 56.417969 L 83.160156 56.46875 L 83.183594 56.570312 L 83.191406 56.617188 L 83.203125 56.667969 L 83.234375 56.871094 L 83.246094 56.921875 L 83.25 56.972656 L 83.273438 57.125 L 83.277344 57.175781 L 83.285156 57.226562 L 83.289062 57.277344 L 83.296875 57.328125 L 83.300781 57.378906 L 83.304688 57.433594 L 83.316406 57.585938 L 83.320312 57.640625 L 83.328125 57.742188 L 83.332031 57.796875 L 83.332031 57.847656 L 83.335938 57.898438 L 83.335938 58.058594 L 83.339844 58.109375 L 83.339844 74.542969 L 83.335938 74.59375 L 83.335938 74.753906 L 83.332031 74.804688 L 83.332031 74.859375 L 83.324219 74.960938 L 83.320312 75.015625 L 83.308594 75.167969 L 83.304688 75.222656 L 83.296875 75.324219 L 83.289062 75.375 L 83.285156 75.425781 L 83.277344 75.476562 L 83.273438 75.527344 L 83.265625 75.582031 L 83.25 75.683594 L 83.246094 75.734375 L 83.234375 75.785156 L 83.226562 75.832031 L 83.203125 75.984375 L 83.191406 76.035156 L 83.183594 76.085938 L 83.171875 76.132812 L 83.160156 76.183594 L 83.152344 76.234375 L 83.140625 76.285156 L 83.128906 76.332031 L 83.117188 76.382812 L 83.105469 76.429688 L 83.09375 76.480469 L 83.082031 76.527344 L 83.066406 76.578125 L 83.054688 76.625 L 83.042969 76.675781 L 83.027344 76.722656 L 83.015625 76.773438 L 82.984375 76.867188 L 82.972656 76.917969 L 82.910156 77.105469 L 82.894531 77.15625 L 82.875 77.203125 L 82.84375 77.296875 L 82.824219 77.34375 L 82.808594 77.390625 L 82.789062 77.4375 L 82.773438 77.480469 L 82.695312 77.667969 L 82.675781 77.710938 L 82.636719 77.804688 L 82.617188 77.847656 L 82.597656 77.894531 L 82.574219 77.9375 L 82.554688 77.984375 L 82.53125 78.027344 L 82.511719 78.074219 L 82.488281 78.117188 L 82.46875 78.160156 L 82.445312 78.207031 L 82.28125 78.507812 L 82.253906 78.550781 L 82.207031 78.636719 L 82.179688 78.679688 L 82.15625 78.722656 L 82.128906 78.761719 L 82.105469 78.804688 L 82.050781 78.890625 L 82.023438 78.929688 L 81.996094 78.972656 L 81.96875 79.011719 L 81.941406 79.054688 L 81.886719 79.132812 L 81.859375 79.175781 L 81.832031 79.214844 L 81.800781 79.253906 L 81.746094 79.332031 L 81.714844 79.371094 L 81.6875 79.414062 L 81.625 79.492188 L 81.597656 79.527344 L 81.503906 79.644531 L 81.472656 79.679688 L 81.410156 79.757812 L 81.378906 79.792969 L 81.347656 79.832031 L 81.3125 79.867188 L 81.28125 79.90625 L 81.25 79.941406 L 81.214844 79.976562 L 81.183594 80.015625 L 81.148438 80.050781 L 81.117188 80.085938 L 81.082031 80.121094 L 81.050781 80.15625 L 80.875 80.332031 L 80.839844 80.363281 L 80.769531 80.433594 L 80.734375 80.464844 L 80.699219 80.5 L 80.664062 80.53125 L 80.625 80.566406 L 80.554688 80.628906 L 80.515625 80.660156 L 80.480469 80.695312 L 80.402344 80.757812 L 80.367188 80.789062 L 80.25 80.882812 L 80.214844 80.910156 L 80.136719 80.972656 L 80.097656 81 L 80.058594 81.03125 L 80.019531 81.058594 L 79.980469 81.089844 L 79.9375 81.117188 L 79.898438 81.148438 L 79.820312 81.203125 L 79.777344 81.230469 L 79.738281 81.257812 L 79.695312 81.285156 L 79.65625 81.3125 L 79.613281 81.339844 L 79.574219 81.367188 L 79.53125 81.394531 L 79.492188 81.417969 L 79.40625 81.472656 L 79.363281 81.496094 L 79.320312 81.523438 L 79.28125 81.546875 L 79.238281 81.570312 L 79.195312 81.597656 L 79.066406 81.667969 L 79.019531 81.691406 L 78.890625 81.761719 L 78.847656 81.78125 L 78.800781 81.804688 L 78.757812 81.828125 L 78.710938 81.847656 L 78.667969 81.871094 L 78.625 81.890625 L 78.578125 81.910156 L 78.53125 81.933594 L 78.488281 81.953125 L 78.441406 81.972656 L 78.398438 81.992188 L 78.257812 82.050781 L 78.214844 82.070312 L 78.167969 82.085938 L 78.121094 82.105469 L 78.074219 82.121094 L 78.027344 82.140625 L 77.980469 82.15625 L 77.933594 82.175781 L 77.792969 82.222656 L 77.746094 82.242188 L 77.695312 82.257812 L 77.648438 82.269531 L 77.554688 82.300781 L 77.503906 82.316406 L 77.457031 82.328125 L 77.410156 82.34375 L 77.359375 82.355469 L 77.3125 82.371094 L 77.261719 82.382812 L 77.214844 82.394531 L 77.164062 82.410156 L 77.117188 82.421875 L 77.015625 82.445312 L 76.96875 82.457031 L 76.917969 82.464844 L 76.867188 82.476562 L 76.820312 82.488281 L 76.769531 82.496094 L 76.71875 82.507812 L 76.667969 82.515625 L 76.617188 82.527344 L 76.570312 82.535156 L 76.265625 82.582031 L 76.214844 82.585938 L 76.113281 82.601562 L 76.058594 82.605469 L 76.007812 82.609375 L 75.957031 82.617188 L 75.855469 82.625 L 75.800781 82.628906 L 75.648438 82.640625 L 75.59375 82.644531 L 75.542969 82.644531 L 75.488281 82.648438 L 75.4375 82.648438 L 75.386719 82.652344 L 24.613281 82.652344 L 24.5625 82.648438 L 24.511719 82.648438 L 24.457031 82.644531 L 24.40625 82.644531 L 24.351562 82.640625 L 24.199219 82.628906 L 24.144531 82.625 L 24.042969 82.617188 L 23.992188 82.609375 L 23.941406 82.605469 L 23.886719 82.601562 L 23.785156 82.585938 L 23.734375 82.582031 L 23.429688 82.535156 L 23.382812 82.527344 L 23.332031 82.515625 L 23.28125 82.507812 L 23.230469 82.496094 L 23.179688 82.488281 L 23.132812 82.476562 L 23.082031 82.464844 L 23.03125 82.457031 L 22.980469 82.445312 L 22.933594 82.433594 L 22.882812 82.421875 L 22.835938 82.410156 L 22.785156 82.394531 L 22.738281 82.382812 L 22.6875 82.371094 L 22.640625 82.355469 L 22.589844 82.34375 L 22.542969 82.328125 L 22.496094 82.316406 L 22.445312 82.300781 L 22.351562 82.269531 L 22.304688 82.257812 L 22.253906 82.242188 L 22.207031 82.222656 L 22.066406 82.175781 L 22.019531 82.15625 L 21.972656 82.140625 L 21.925781 82.121094 L 21.878906 82.105469 L 21.832031 82.085938 L 21.785156 82.070312 L 21.742188 82.050781 L 21.601562 81.992188 L 21.558594 81.972656 L 21.511719 81.953125 L 21.46875 81.933594 L 21.421875 81.910156 L 21.375 81.890625 L 21.332031 81.871094 L 21.289062 81.847656 L 21.242188 81.828125 L 21.199219 81.804688 L 21.152344 81.78125 L 21.109375 81.761719 L 20.980469 81.691406 L 20.933594 81.667969 L 20.804688 81.597656 L 20.761719 81.570312 L 20.71875 81.546875 L 20.679688 81.523438 L 20.636719 81.496094 L 20.59375 81.472656 L 20.507812 81.417969 L 20.46875 81.394531 L 20.425781 81.367188 L 20.386719 81.339844 L 20.34375 81.3125 L 20.304688 81.285156 L 20.261719 81.257812 L 20.222656 81.230469 L 20.179688 81.203125 L 20.101562 81.148438 L 20.0625 81.117188 L 20.019531 81.089844 L 19.980469 81.058594 L 19.941406 81.03125 L 19.902344 81 L 19.863281 80.972656 L 19.785156 80.910156 L 19.75 80.882812 L 19.632812 80.789062 L 19.597656 80.757812 L 19.519531 80.695312 L 19.484375 80.660156 L 19.445312 80.628906 L 19.375 80.566406 L 19.335938 80.53125 L 19.300781 80.5 L 19.265625 80.464844 L 19.230469 80.433594 L 19.160156 80.363281 L 19.125 80.332031 L 18.949219 80.15625 L 18.917969 80.121094 L 18.882812 80.085938 L 18.851562 80.050781 L 18.816406 80.015625 L 18.785156 79.976562 L 18.75 79.941406 L 18.71875 79.90625 L 18.6875 79.867188 L 18.652344 79.832031 L 18.621094 79.792969 L 18.589844 79.757812 L 18.527344 79.679688 L 18.496094 79.644531 L 18.402344 79.527344 L 18.375 79.492188 L 18.3125 79.414062 L 18.285156 79.371094 L 18.253906 79.332031 L 18.226562 79.292969 L 18.195312 79.253906 L 18.140625 79.175781 L 18.113281 79.132812 L 18.058594 79.054688 L 18.03125 79.011719 L 18.003906 78.972656 L 17.976562 78.929688 L 17.949219 78.890625 L 17.894531 78.804688 L 17.871094 78.761719 L 17.84375 78.722656 L 17.820312 78.679688 L 17.792969 78.636719 L 17.769531 78.59375 L 17.742188 78.550781 L 17.554688 78.207031 L 17.53125 78.160156 L 17.511719 78.117188 L 17.488281 78.074219 L 17.46875 78.027344 L 17.445312 77.984375 L 17.425781 77.9375 L 17.402344 77.894531 L 17.382812 77.847656 L 17.363281 77.804688 L 17.324219 77.710938 L 17.304688 77.667969 L 17.226562 77.480469 L 17.210938 77.4375 L 17.191406 77.390625 L 17.175781 77.34375 L 17.15625 77.296875 L 17.125 77.203125 L 17.105469 77.15625 L 17.089844 77.105469 L 17.027344 76.917969 L 17.015625 76.867188 L 16.984375 76.773438 L 16.972656 76.722656 L 16.957031 76.675781 L 16.945312 76.625 L 16.929688 76.578125 L 16.917969 76.527344 L 16.90625 76.480469 L 16.894531 76.429688 L 16.882812 76.382812 L 16.871094 76.332031 L 16.859375 76.285156 L 16.847656 76.234375 L 16.839844 76.183594 L 16.828125 76.132812 L 16.816406 76.085938 L 16.808594 76.035156 L 16.796875 75.984375 L 16.773438 75.832031 L 16.765625 75.785156 L 16.753906 75.734375 L 16.75 75.683594 L 16.734375 75.582031 L 16.726562 75.527344 L 16.722656 75.476562 L 16.714844 75.425781 L 16.710938 75.375 L 16.703125 75.324219 L 16.695312 75.222656 L 16.691406 75.167969 L 16.679688 75.015625 L 16.675781 74.960938 L 16.667969 74.859375 L 16.667969 74.804688 L 16.664062 74.753906 L 16.664062 74.59375 L 16.660156 74.542969 L 16.660156 58.109375 L 16.664062 58.058594 L 16.664062 57.898438 L 16.667969 57.847656 L 16.667969 57.796875 L 16.671875 57.742188 L 16.679688 57.640625 L 16.683594 57.585938 L 16.695312 57.433594 L 16.699219 57.378906 L 16.703125 57.328125 L 16.710938 57.277344 L 16.714844 57.226562 L 16.722656 57.175781 L 16.726562 57.125 L 16.75 56.972656 L 16.753906 56.921875 L 16.765625 56.871094 L 16.796875 56.667969 L 16.808594 56.617188 L 16.816406 56.570312 L 16.839844 56.46875 L 16.847656 56.417969 L 16.859375 56.371094 L 16.882812 56.269531 L 16.894531 56.222656 L 16.90625 56.171875 L 16.917969 56.125 L 16.929688 56.074219 L 16.945312 56.027344 L 16.957031 55.976562 L 16.972656 55.929688 L 16.984375 55.882812 L 17 55.832031 L 17.015625 55.785156 L 17.027344 55.738281 L 17.042969 55.6875 L 17.105469 55.5 L 17.125 55.453125 L 17.15625 55.359375 L 17.175781 55.3125 L 17.191406 55.265625 L 17.210938 55.21875 L 17.226562 55.171875 L 17.285156 55.03125 L 17.304688 54.988281 L 17.34375 54.894531 L 17.363281 54.851562 L 17.382812 54.804688 L 17.402344 54.761719 L 17.425781 54.714844 L 17.445312 54.671875 L 17.46875 54.625 L 17.488281 54.582031 L 17.511719 54.535156 L 17.53125 54.492188 L 17.578125 54.40625 L 17.601562 54.359375 L 17.742188 54.101562 L 17.769531 54.058594 L 17.792969 54.015625 L 17.820312 53.972656 L 17.84375 53.933594 L 17.871094 53.890625 L 17.894531 53.847656 L 17.921875 53.804688 L 17.949219 53.765625 L 17.976562 53.722656 L 18.003906 53.683594 L 18.03125 53.640625 L 18.058594 53.601562 L 18.085938 53.558594 L 18.140625 53.480469 L 18.167969 53.4375 L 18.195312 53.398438 L 18.226562 53.359375 L 18.253906 53.320312 L 18.285156 53.28125 L 18.3125 53.242188 L 18.375 53.164062 L 18.402344 53.125 L 18.464844 53.046875 L 18.496094 53.011719 L 18.558594 52.933594 L 18.589844 52.898438 L 18.652344 52.820312 L 18.6875 52.785156 L 18.71875 52.75 L 18.75 52.710938 L 18.785156 52.675781 L 18.816406 52.640625 L 18.851562 52.605469 L 18.882812 52.566406 L 18.917969 52.53125 L 18.949219 52.496094 L 19.054688 52.390625 L 19.089844 52.359375 L 19.195312 52.253906 L 19.230469 52.222656 L 19.265625 52.1875 L 19.300781 52.15625 L 19.335938 52.121094 L 19.375 52.089844 L 19.410156 52.054688 L 19.445312 52.023438 L 19.484375 51.992188 L 19.519531 51.960938 L 19.597656 51.898438 L 19.632812 51.863281 L 19.671875 51.835938 L 19.75 51.773438 L 19.785156 51.742188 L 19.824219 51.710938 L 19.863281 51.683594 L 19.941406 51.621094 L 20.019531 51.566406 L 20.0625 51.535156 L 20.101562 51.507812 L 20.140625 51.476562 L 20.179688 51.449219 L 20.222656 51.421875 L 20.261719 51.394531 L 20.304688 51.367188 L 20.34375 51.339844 L 20.386719 51.3125 L 20.425781 51.285156 L 20.46875 51.261719 L 20.507812 51.234375 L 20.550781 51.207031 L 20.59375 51.183594 L 20.636719 51.15625 L 20.679688 51.132812 L 20.71875 51.105469 L 20.847656 51.035156 L 20.890625 51.007812 L 20.933594 50.984375 L 20.980469 50.960938 L 21.023438 50.941406 L 21.152344 50.871094 L 21.199219 50.847656 L 21.242188 50.828125 L 21.289062 50.804688 L 21.332031 50.785156 L 21.375 50.761719 L 21.46875 50.722656 L 21.511719 50.703125 L 21.558594 50.679688 L 21.601562 50.660156 L 21.695312 50.621094 L 21.742188 50.605469 L 21.785156 50.585938 L 21.878906 50.546875 L 21.925781 50.53125 L 21.972656 50.511719 L 22.066406 50.480469 L 22.113281 50.460938 L 22.253906 50.414062 L 22.304688 50.398438 L 22.445312 50.351562 L 22.496094 50.335938 L 22.542969 50.324219 L 22.589844 50.308594 L 22.640625 50.296875 L 22.6875 50.28125 L 22.738281 50.269531 L 22.785156 50.257812 L 22.835938 50.246094 L 22.882812 50.234375 L 22.933594 50.222656 L 22.980469 50.210938 L 23.132812 50.175781 L 23.179688 50.167969 L 23.28125 50.144531 L 23.382812 50.128906 L 23.429688 50.117188 L 23.734375 50.070312 L 23.785156 50.066406 L 23.835938 50.058594 L 23.886719 50.054688 L 23.941406 50.046875 L 23.992188 50.042969 L 24.042969 50.035156 L 24.144531 50.027344 L 24.199219 50.023438 L 24.351562 50.011719 L 24.40625 50.011719 L 24.457031 50.007812 L 24.511719 50.003906 L 24.613281 50.003906 L 24.667969 50 Z M 24.832031 54 L 24.714844 54 L 24.6875 54.003906 L 24.609375 54.003906 L 24.582031 54.007812 L 24.554688 54.007812 L 24.527344 54.011719 L 24.5 54.011719 L 24.476562 54.015625 L 24.449219 54.015625 L 24.394531 54.023438 L 24.371094 54.023438 L 24.289062 54.035156 L 24.265625 54.039062 L 24.238281 54.039062 L 24.214844 54.042969 L 24.160156 54.050781 L 24.136719 54.054688 L 24.109375 54.0625 L 24.085938 54.066406 L 24.058594 54.070312 L 24.035156 54.074219 L 24.007812 54.078125 L 23.984375 54.085938 L 23.957031 54.089844 L 23.933594 54.09375 L 23.910156 54.101562 L 23.882812 54.105469 L 23.859375 54.113281 L 23.832031 54.117188 L 23.808594 54.125 L 23.785156 54.128906 L 23.757812 54.136719 L 23.734375 54.144531 L 23.710938 54.148438 L 23.683594 54.15625 L 23.613281 54.179688 L 23.585938 54.1875 L 23.445312 54.234375 L 23.417969 54.242188 L 23.394531 54.25 L 23.371094 54.261719 L 23.324219 54.277344 L 23.300781 54.289062 L 23.253906 54.304688 L 23.230469 54.316406 L 23.207031 54.324219 L 23.160156 54.347656 L 23.140625 54.355469 L 23.117188 54.367188 L 23.09375 54.375 L 23.023438 54.410156 L 23 54.417969 L 22.980469 54.429688 L 22.910156 54.464844 L 22.890625 54.476562 L 22.84375 54.5 L 22.824219 54.511719 L 22.800781 54.523438 L 22.78125 54.535156 L 22.757812 54.550781 L 22.734375 54.5625 L 22.714844 54.574219 L 22.691406 54.585938 L 22.671875 54.601562 L 22.648438 54.613281 L 22.628906 54.625 L 22.605469 54.640625 L 22.585938 54.652344 L 22.566406 54.667969 L 22.542969 54.679688 L 22.503906 54.710938 L 22.480469 54.722656 L 22.460938 54.738281 L 22.441406 54.75 L 22.417969 54.765625 L 22.359375 54.8125 L 22.339844 54.824219 L 22.316406 54.839844 L 22.160156 54.964844 L 22.140625 54.984375 L 22.101562 55.015625 L 22.085938 55.03125 L 22.066406 55.046875 L 22.046875 55.066406 L 22.007812 55.097656 L 21.992188 55.117188 L 21.972656 55.132812 L 21.9375 55.167969 L 21.917969 55.183594 L 21.863281 55.238281 L 21.847656 55.257812 L 21.828125 55.273438 L 21.8125 55.292969 L 21.777344 55.328125 L 21.761719 55.347656 L 21.742188 55.367188 L 21.726562 55.386719 L 21.691406 55.421875 L 21.597656 55.539062 L 21.578125 55.558594 L 21.546875 55.597656 L 21.535156 55.617188 L 21.472656 55.695312 L 21.457031 55.71875 L 21.441406 55.738281 L 21.429688 55.757812 L 21.398438 55.796875 L 21.386719 55.820312 L 21.355469 55.859375 L 21.34375 55.882812 L 21.328125 55.902344 L 21.316406 55.925781 L 21.300781 55.945312 L 21.289062 55.964844 L 21.277344 55.988281 L 21.261719 56.007812 L 21.238281 56.054688 L 21.222656 56.074219 L 21.210938 56.097656 L 21.199219 56.117188 L 21.1875 56.140625 L 21.175781 56.160156 L 21.164062 56.183594 L 21.148438 56.207031 L 21.136719 56.226562 L 21.113281 56.273438 L 21.105469 56.296875 L 21.09375 56.316406 L 21.046875 56.410156 L 21.039062 56.429688 L 21.015625 56.476562 L 21.007812 56.5 L 20.996094 56.523438 L 20.988281 56.546875 L 20.976562 56.570312 L 20.96875 56.59375 L 20.957031 56.617188 L 20.941406 56.664062 L 20.929688 56.6875 L 20.90625 56.757812 L 20.894531 56.78125 L 20.878906 56.828125 L 20.871094 56.855469 L 20.832031 56.972656 L 20.828125 57 L 20.8125 57.046875 L 20.804688 57.074219 L 20.800781 57.097656 L 20.792969 57.121094 L 20.785156 57.148438 L 20.78125 57.171875 L 20.773438 57.195312 L 20.769531 57.222656 L 20.761719 57.246094 L 20.757812 57.269531 L 20.75 57.296875 L 20.746094 57.320312 L 20.742188 57.347656 L 20.738281 57.371094 L 20.730469 57.398438 L 20.726562 57.421875 L 20.722656 57.449219 L 20.71875 57.472656 L 20.710938 57.527344 L 20.707031 57.550781 L 20.703125 57.578125 L 20.699219 57.601562 L 20.691406 57.65625 L 20.6875 57.679688 L 20.6875 57.707031 L 20.679688 57.761719 L 20.679688 57.785156 L 20.675781 57.8125 L 20.675781 57.839844 L 20.671875 57.867188 L 20.671875 57.894531 L 20.667969 57.917969 L 20.667969 57.945312 L 20.664062 57.972656 L 20.664062 58.082031 L 20.660156 58.109375 L 20.660156 74.546875 L 20.664062 74.574219 L 20.664062 74.679688 L 20.667969 74.707031 L 20.667969 74.734375 L 20.671875 74.761719 L 20.671875 74.789062 L 20.675781 74.8125 L 20.675781 74.839844 L 20.679688 74.867188 L 20.679688 74.894531 L 20.683594 74.917969 L 20.6875 74.945312 L 20.6875 74.972656 L 20.691406 75 L 20.695312 75.023438 L 20.703125 75.078125 L 20.707031 75.101562 L 20.710938 75.128906 L 20.714844 75.152344 L 20.71875 75.179688 L 20.722656 75.203125 L 20.726562 75.230469 L 20.730469 75.253906 L 20.738281 75.28125 L 20.742188 75.304688 L 20.746094 75.332031 L 20.75 75.355469 L 20.757812 75.382812 L 20.761719 75.40625 L 20.769531 75.433594 L 20.773438 75.457031 L 20.78125 75.480469 L 20.785156 75.507812 L 20.800781 75.554688 L 20.804688 75.582031 L 20.820312 75.628906 L 20.828125 75.65625 L 20.832031 75.679688 L 20.847656 75.726562 L 20.855469 75.753906 L 20.894531 75.871094 L 20.90625 75.894531 L 20.914062 75.917969 L 20.921875 75.945312 L 20.929688 75.964844 L 20.941406 75.988281 L 20.949219 76.015625 L 20.957031 76.039062 L 20.96875 76.0625 L 20.976562 76.085938 L 20.988281 76.105469 L 20.996094 76.128906 L 21.007812 76.152344 L 21.015625 76.175781 L 21.039062 76.222656 L 21.046875 76.246094 L 21.058594 76.269531 L 21.070312 76.289062 L 21.105469 76.359375 L 21.113281 76.382812 L 21.125 76.402344 L 21.148438 76.449219 L 21.164062 76.46875 L 21.1875 76.515625 L 21.199219 76.535156 L 21.210938 76.558594 L 21.222656 76.578125 L 21.238281 76.601562 L 21.25 76.621094 L 21.261719 76.644531 L 21.277344 76.664062 L 21.289062 76.6875 L 21.300781 76.707031 L 21.316406 76.730469 L 21.328125 76.75 L 21.34375 76.769531 L 21.355469 76.792969 L 21.371094 76.8125 L 21.386719 76.835938 L 21.398438 76.855469 L 21.429688 76.894531 L 21.441406 76.917969 L 21.519531 77.015625 L 21.535156 77.039062 L 21.546875 77.058594 L 21.578125 77.097656 L 21.597656 77.117188 L 21.644531 77.175781 L 21.660156 77.191406 L 21.691406 77.230469 L 21.710938 77.25 L 21.742188 77.289062 L 21.761719 77.304688 L 21.792969 77.34375 L 21.8125 77.359375 L 21.828125 77.378906 L 21.917969 77.46875 L 21.9375 77.484375 L 21.953125 77.503906 L 21.972656 77.519531 L 22.007812 77.554688 L 22.027344 77.570312 L 22.046875 77.589844 L 22.085938 77.621094 L 22.121094 77.65625 L 22.316406 77.8125 L 22.339844 77.828125 L 22.378906 77.859375 L 22.398438 77.871094 L 22.417969 77.886719 L 22.441406 77.902344 L 22.460938 77.917969 L 22.480469 77.929688 L 22.503906 77.945312 L 22.523438 77.957031 L 22.542969 77.972656 L 22.566406 77.984375 L 22.585938 78 L 22.605469 78.011719 L 22.628906 78.027344 L 22.648438 78.039062 L 22.671875 78.054688 L 22.691406 78.066406 L 22.714844 78.078125 L 22.734375 78.09375 L 22.78125 78.117188 L 22.800781 78.128906 L 22.824219 78.140625 L 22.84375 78.152344 L 22.890625 78.175781 L 22.910156 78.1875 L 22.980469 78.222656 L 23 78.234375 L 23.046875 78.257812 L 23.070312 78.265625 L 23.117188 78.289062 L 23.140625 78.296875 L 23.160156 78.308594 L 23.183594 78.316406 L 23.207031 78.328125 L 23.230469 78.335938 L 23.253906 78.347656 L 23.277344 78.355469 L 23.300781 78.367188 L 23.347656 78.382812 L 23.371094 78.394531 L 23.441406 78.417969 L 23.46875 78.429688 L 23.492188 78.433594 L 23.515625 78.445312 L 23.585938 78.46875 L 23.613281 78.472656 L 23.683594 78.496094 L 23.710938 78.503906 L 23.734375 78.507812 L 23.757812 78.515625 L 23.785156 78.523438 L 23.808594 78.527344 L 23.832031 78.535156 L 23.859375 78.542969 L 23.882812 78.546875 L 23.910156 78.554688 L 23.957031 78.5625 L 23.984375 78.570312 L 24.007812 78.574219 L 24.035156 78.578125 L 24.058594 78.582031 L 24.085938 78.589844 L 24.109375 78.59375 L 24.136719 78.597656 L 24.160156 78.601562 L 24.214844 78.609375 L 24.238281 78.613281 L 24.292969 78.621094 L 24.316406 78.625 L 24.34375 78.625 L 24.371094 78.628906 L 24.394531 78.632812 L 24.421875 78.632812 L 24.476562 78.640625 L 24.5 78.640625 L 24.527344 78.644531 L 24.554688 78.644531 L 24.582031 78.648438 L 24.636719 78.648438 L 24.660156 78.652344 L 75.339844 78.652344 L 75.363281 78.648438 L 75.417969 78.648438 L 75.445312 78.644531 L 75.472656 78.644531 L 75.5 78.640625 L 75.523438 78.640625 L 75.578125 78.632812 L 75.605469 78.632812 L 75.628906 78.628906 L 75.65625 78.625 L 75.683594 78.625 L 75.707031 78.621094 L 75.761719 78.613281 L 75.785156 78.609375 L 75.839844 78.601562 L 75.863281 78.597656 L 75.890625 78.59375 L 75.914062 78.589844 L 75.941406 78.582031 L 75.964844 78.578125 L 75.992188 78.574219 L 76.015625 78.570312 L 76.042969 78.5625 L 76.066406 78.558594 L 76.09375 78.554688 L 76.117188 78.546875 L 76.140625 78.542969 L 76.167969 78.535156 L 76.191406 78.527344 L 76.214844 78.523438 L 76.242188 78.515625 L 76.265625 78.507812 L 76.289062 78.503906 L 76.316406 78.496094 L 76.386719 78.472656 L 76.414062 78.46875 L 76.53125 78.429688 L 76.558594 78.417969 L 76.628906 78.394531 L 76.652344 78.382812 L 76.699219 78.367188 L 76.722656 78.355469 L 76.746094 78.347656 L 76.769531 78.335938 L 76.792969 78.328125 L 76.816406 78.316406 L 76.839844 78.308594 L 76.859375 78.296875 L 76.882812 78.289062 L 76.929688 78.265625 L 76.953125 78.257812 L 76.976562 78.246094 L 76.996094 78.234375 L 77.089844 78.1875 L 77.109375 78.175781 L 77.15625 78.152344 L 77.175781 78.140625 L 77.199219 78.128906 L 77.21875 78.117188 L 77.265625 78.09375 L 77.285156 78.078125 L 77.308594 78.066406 L 77.328125 78.054688 L 77.351562 78.039062 L 77.371094 78.027344 L 77.394531 78.011719 L 77.414062 78 L 77.433594 77.984375 L 77.457031 77.972656 L 77.476562 77.957031 L 77.5 77.945312 L 77.519531 77.929688 L 77.539062 77.917969 L 77.558594 77.902344 L 77.582031 77.886719 L 77.601562 77.871094 L 77.621094 77.859375 L 77.660156 77.828125 L 77.683594 77.8125 L 77.878906 77.65625 L 77.914062 77.621094 L 77.953125 77.589844 L 77.972656 77.570312 L 77.992188 77.554688 L 78.027344 77.519531 L 78.046875 77.503906 L 78.0625 77.484375 L 78.082031 77.46875 L 78.171875 77.378906 L 78.1875 77.359375 L 78.207031 77.34375 L 78.238281 77.304688 L 78.257812 77.289062 L 78.289062 77.25 L 78.308594 77.230469 L 78.339844 77.191406 L 78.355469 77.175781 L 78.402344 77.117188 L 78.421875 77.097656 L 78.453125 77.058594 L 78.464844 77.039062 L 78.480469 77.015625 L 78.558594 76.917969 L 78.570312 76.894531 L 78.601562 76.855469 L 78.613281 76.835938 L 78.628906 76.8125 L 78.644531 76.792969 L 78.65625 76.773438 L 78.671875 76.75 L 78.683594 76.730469 L 78.699219 76.707031 L 78.710938 76.6875 L 78.722656 76.664062 L 78.738281 76.644531 L 78.75 76.621094 L 78.761719 76.601562 L 78.777344 76.578125 L 78.789062 76.558594 L 78.800781 76.535156 L 78.8125 76.515625 L 78.835938 76.46875 L 78.851562 76.449219 L 78.875 76.402344 L 78.882812 76.382812 L 78.929688 76.289062 L 78.941406 76.269531 L 78.949219 76.246094 L 78.984375 76.175781 L 78.992188 76.152344 L 79.003906 76.128906 L 79.011719 76.105469 L 79.023438 76.085938 L 79.03125 76.0625 L 79.042969 76.039062 L 79.058594 75.992188 L 79.070312 75.96875 L 79.078125 75.941406 L 79.09375 75.894531 L 79.105469 75.871094 L 79.144531 75.753906 L 79.152344 75.726562 L 79.167969 75.679688 L 79.171875 75.65625 L 79.179688 75.628906 L 79.195312 75.582031 L 79.199219 75.554688 L 79.214844 75.507812 L 79.21875 75.480469 L 79.226562 75.457031 L 79.230469 75.433594 L 79.238281 75.40625 L 79.242188 75.382812 L 79.25 75.355469 L 79.257812 75.308594 L 79.261719 75.28125 L 79.269531 75.253906 L 79.273438 75.230469 L 79.277344 75.203125 L 79.28125 75.179688 L 79.285156 75.152344 L 79.289062 75.128906 L 79.292969 75.101562 L 79.296875 75.078125 L 79.304688 75.023438 L 79.308594 75 L 79.3125 74.972656 L 79.3125 74.945312 L 79.316406 74.917969 L 79.320312 74.894531 L 79.320312 74.867188 L 79.324219 74.839844 L 79.324219 74.8125 L 79.328125 74.789062 L 79.328125 74.761719 L 79.332031 74.734375 L 79.332031 74.679688 L 79.335938 74.652344 L 79.335938 74.546875 L 79.339844 74.515625 L 79.339844 58.136719 L 79.335938 58.109375 L 79.335938 58 L 79.332031 57.972656 L 79.332031 57.917969 L 79.328125 57.894531 L 79.328125 57.867188 L 79.324219 57.839844 L 79.324219 57.8125 L 79.320312 57.785156 L 79.320312 57.761719 L 79.3125 57.707031 L 79.3125 57.679688 L 79.308594 57.65625 L 79.300781 57.601562 L 79.296875 57.578125 L 79.292969 57.550781 L 79.289062 57.527344 L 79.28125 57.472656 L 79.277344 57.449219 L 79.273438 57.421875 L 79.269531 57.398438 L 79.261719 57.371094 L 79.257812 57.347656 L 79.253906 57.320312 L 79.25 57.296875 L 79.242188 57.269531 L 79.238281 57.246094 L 79.230469 57.222656 L 79.226562 57.195312 L 79.21875 57.171875 L 79.214844 57.148438 L 79.207031 57.121094 L 79.199219 57.097656 L 79.195312 57.074219 L 79.1875 57.046875 L 79.171875 57 L 79.167969 56.976562 L 79.160156 56.949219 L 79.128906 56.855469 L 79.121094 56.828125 L 79.105469 56.78125 L 79.09375 56.757812 L 79.070312 56.6875 L 79.058594 56.664062 L 79.042969 56.617188 L 79.03125 56.59375 L 79.023438 56.570312 L 79.011719 56.546875 L 79.003906 56.523438 L 78.992188 56.5 L 78.984375 56.476562 L 78.960938 56.429688 L 78.949219 56.410156 L 78.941406 56.386719 L 78.90625 56.316406 L 78.894531 56.296875 L 78.882812 56.273438 L 78.875 56.25 L 78.863281 56.226562 L 78.851562 56.207031 L 78.835938 56.183594 L 78.824219 56.160156 L 78.8125 56.140625 L 78.800781 56.117188 L 78.789062 56.097656 L 78.777344 56.074219 L 78.761719 56.054688 L 78.738281 56.007812 L 78.722656 55.988281 L 78.710938 55.964844 L 78.699219 55.945312 L 78.683594 55.925781 L 78.671875 55.902344 L 78.65625 55.882812 L 78.644531 55.859375 L 78.613281 55.820312 L 78.601562 55.800781 L 78.585938 55.777344 L 78.570312 55.757812 L 78.558594 55.738281 L 78.542969 55.71875 L 78.527344 55.695312 L 78.464844 55.617188 L 78.453125 55.597656 L 78.433594 55.578125 L 78.421875 55.558594 L 78.402344 55.539062 L 78.308594 55.421875 L 78.273438 55.386719 L 78.257812 55.367188 L 78.238281 55.347656 L 78.222656 55.328125 L 78.1875 55.292969 L 78.171875 55.273438 L 78.152344 55.257812 L 78.136719 55.238281 L 78.082031 55.183594 L 78.0625 55.167969 L 78.027344 55.132812 L 78.007812 55.117188 L 77.992188 55.097656 L 77.953125 55.066406 L 77.933594 55.046875 L 77.894531 55.015625 L 77.878906 55 L 77.859375 54.984375 L 77.839844 54.964844 L 77.683594 54.839844 L 77.660156 54.824219 L 77.640625 54.8125 L 77.582031 54.765625 L 77.558594 54.75 L 77.539062 54.738281 L 77.519531 54.722656 L 77.496094 54.710938 L 77.457031 54.679688 L 77.433594 54.667969 L 77.414062 54.652344 L 77.394531 54.640625 L 77.371094 54.625 L 77.351562 54.613281 L 77.328125 54.601562 L 77.308594 54.585938 L 77.285156 54.574219 L 77.265625 54.5625 L 77.242188 54.550781 L 77.21875 54.535156 L 77.199219 54.523438 L 77.175781 54.511719 L 77.15625 54.5 L 77.109375 54.476562 L 77.089844 54.464844 L 76.996094 54.417969 L 76.976562 54.410156 L 76.90625 54.375 L 76.882812 54.367188 L 76.859375 54.355469 L 76.839844 54.347656 L 76.792969 54.324219 L 76.769531 54.316406 L 76.746094 54.304688 L 76.699219 54.289062 L 76.675781 54.277344 L 76.628906 54.261719 L 76.605469 54.25 L 76.582031 54.242188 L 76.554688 54.234375 L 76.414062 54.1875 L 76.386719 54.179688 L 76.316406 54.15625 L 76.289062 54.148438 L 76.265625 54.144531 L 76.242188 54.136719 L 76.214844 54.128906 L 76.191406 54.125 L 76.167969 54.117188 L 76.140625 54.113281 L 76.117188 54.105469 L 76.09375 54.101562 L 76.066406 54.09375 L 76.042969 54.089844 L 76.015625 54.085938 L 75.992188 54.078125 L 75.964844 54.074219 L 75.941406 54.070312 L 75.914062 54.066406 L 75.890625 54.0625 L 75.863281 54.054688 L 75.839844 54.050781 L 75.785156 54.042969 L 75.761719 54.039062 L 75.734375 54.039062 L 75.707031 54.035156 L 75.683594 54.03125 L 75.628906 54.023438 L 75.605469 54.023438 L 75.550781 54.015625 L 75.523438 54.015625 L 75.5 54.011719 L 75.472656 54.011719 L 75.445312 54.007812 L 75.417969 54.007812 L 75.390625 54.003906 L 75.3125 54.003906 L 75.285156 54 Z M 24.832031 54 "/>
<path style=" stroke:none;fill-rule:evenodd;fill:rgb(100%,99.607843%,99.607843%);fill-opacity:1;" d="M 74.773438 70.183594 C 74.773438 69.15625 73.941406 68.328125 72.917969 68.328125 L 27.082031 68.328125 C 26.058594 68.328125 25.226562 69.15625 25.226562 70.183594 L 25.226562 73.894531 C 25.226562 74.917969 26.058594 75.75 27.082031 75.75 L 72.917969 75.75 C 73.941406 75.75 74.773438 74.917969 74.773438 73.894531 Z M 74.773438 70.183594 "/>
<path style=" stroke:none;fill-rule:evenodd;fill:rgb(30.19608%,30.19608%,30.19608%);fill-opacity:1;" d="M 72.941406 68.328125 L 73.011719 68.328125 L 73.035156 68.332031 L 73.082031 68.332031 L 73.128906 68.339844 L 73.152344 68.339844 L 73.269531 68.359375 L 73.289062 68.363281 L 73.3125 68.367188 L 73.335938 68.375 L 73.359375 68.378906 L 73.378906 68.386719 L 73.402344 68.390625 L 73.425781 68.398438 L 73.445312 68.402344 L 73.46875 68.410156 L 73.488281 68.417969 L 73.511719 68.425781 L 73.535156 68.429688 L 73.574219 68.445312 L 73.597656 68.457031 L 73.617188 68.464844 L 73.640625 68.472656 L 73.660156 68.480469 L 73.679688 68.492188 L 73.699219 68.5 L 73.722656 68.507812 L 73.761719 68.53125 L 73.78125 68.539062 L 73.839844 68.574219 L 73.859375 68.582031 L 73.917969 68.617188 L 73.933594 68.632812 L 73.992188 68.667969 L 74.007812 68.683594 L 74.027344 68.695312 L 74.042969 68.707031 L 74.0625 68.722656 L 74.078125 68.738281 L 74.097656 68.75 L 74.113281 68.765625 L 74.132812 68.78125 L 74.148438 68.792969 L 74.226562 68.871094 L 74.246094 68.886719 L 74.257812 68.902344 L 74.289062 68.933594 L 74.304688 68.953125 L 74.335938 68.984375 L 74.347656 69.003906 L 74.363281 69.019531 L 74.375 69.035156 L 74.390625 69.054688 L 74.402344 69.070312 L 74.417969 69.089844 L 74.429688 69.109375 L 74.441406 69.125 L 74.457031 69.144531 L 74.492188 69.203125 L 74.503906 69.21875 L 74.539062 69.277344 L 74.546875 69.296875 L 74.570312 69.335938 L 74.578125 69.359375 L 74.589844 69.378906 L 74.597656 69.398438 L 74.609375 69.417969 L 74.617188 69.4375 L 74.625 69.460938 L 74.636719 69.480469 L 74.644531 69.503906 L 74.660156 69.542969 L 74.667969 69.566406 L 74.675781 69.585938 L 74.683594 69.609375 L 74.6875 69.628906 L 74.703125 69.675781 L 74.707031 69.695312 L 74.714844 69.71875 L 74.71875 69.742188 L 74.726562 69.761719 L 74.742188 69.855469 L 74.746094 69.875 L 74.761719 69.96875 L 74.761719 69.992188 L 74.765625 70.015625 L 74.765625 70.039062 L 74.769531 70.0625 L 74.769531 70.109375 L 74.773438 70.132812 L 74.773438 73.941406 L 74.769531 73.964844 L 74.769531 74.011719 L 74.765625 74.035156 L 74.765625 74.058594 L 74.761719 74.082031 L 74.761719 74.105469 L 74.742188 74.222656 L 74.738281 74.242188 L 74.726562 74.3125 L 74.71875 74.335938 L 74.714844 74.355469 L 74.707031 74.378906 L 74.703125 74.402344 L 74.695312 74.421875 L 74.6875 74.445312 L 74.683594 74.464844 L 74.675781 74.488281 L 74.667969 74.507812 L 74.660156 74.53125 L 74.652344 74.550781 L 74.644531 74.574219 L 74.636719 74.59375 L 74.625 74.613281 L 74.617188 74.636719 L 74.609375 74.65625 L 74.597656 74.675781 L 74.589844 74.695312 L 74.578125 74.71875 L 74.570312 74.738281 L 74.546875 74.777344 L 74.539062 74.796875 L 74.492188 74.875 L 74.480469 74.890625 L 74.457031 74.929688 L 74.441406 74.949219 L 74.429688 74.964844 L 74.417969 74.984375 L 74.402344 75.003906 L 74.390625 75.019531 L 74.375 75.039062 L 74.363281 75.054688 L 74.347656 75.074219 L 74.335938 75.089844 L 74.320312 75.105469 L 74.304688 75.125 L 74.257812 75.171875 L 74.246094 75.1875 L 74.226562 75.203125 L 74.132812 75.296875 L 74.113281 75.308594 L 74.097656 75.324219 L 74.078125 75.339844 L 74.0625 75.351562 L 74.042969 75.367188 L 74.027344 75.378906 L 74.007812 75.394531 L 73.992188 75.40625 L 73.953125 75.429688 L 73.933594 75.445312 L 73.917969 75.457031 L 73.839844 75.503906 L 73.820312 75.511719 L 73.761719 75.546875 L 73.742188 75.554688 L 73.722656 75.566406 L 73.699219 75.574219 L 73.679688 75.585938 L 73.640625 75.601562 L 73.617188 75.609375 L 73.597656 75.621094 L 73.574219 75.628906 L 73.535156 75.644531 L 73.511719 75.652344 L 73.488281 75.65625 L 73.46875 75.664062 L 73.445312 75.671875 L 73.425781 75.675781 L 73.378906 75.691406 L 73.359375 75.695312 L 73.335938 75.699219 L 73.3125 75.707031 L 73.289062 75.710938 L 73.269531 75.714844 L 73.152344 75.734375 L 73.128906 75.734375 L 73.082031 75.742188 L 73.058594 75.742188 L 73.035156 75.746094 L 72.964844 75.746094 L 72.941406 75.75 L 27.058594 75.75 L 27.035156 75.746094 L 26.964844 75.746094 L 26.941406 75.742188 L 26.917969 75.742188 L 26.871094 75.734375 L 26.847656 75.734375 L 26.730469 75.714844 L 26.710938 75.710938 L 26.6875 75.707031 L 26.664062 75.699219 L 26.640625 75.695312 L 26.621094 75.691406 L 26.574219 75.675781 L 26.554688 75.671875 L 26.53125 75.664062 L 26.511719 75.65625 L 26.488281 75.652344 L 26.464844 75.644531 L 26.425781 75.628906 L 26.402344 75.621094 L 26.382812 75.609375 L 26.359375 75.601562 L 26.320312 75.585938 L 26.300781 75.574219 L 26.277344 75.566406 L 26.257812 75.554688 L 26.238281 75.546875 L 26.179688 75.511719 L 26.160156 75.503906 L 26.082031 75.457031 L 26.066406 75.445312 L 26.046875 75.429688 L 26.007812 75.40625 L 25.992188 75.394531 L 25.972656 75.378906 L 25.957031 75.367188 L 25.9375 75.351562 L 25.921875 75.339844 L 25.902344 75.324219 L 25.886719 75.308594 L 25.867188 75.296875 L 25.773438 75.203125 L 25.753906 75.1875 L 25.742188 75.171875 L 25.695312 75.125 L 25.679688 75.105469 L 25.664062 75.089844 L 25.652344 75.074219 L 25.636719 75.054688 L 25.625 75.039062 L 25.609375 75.019531 L 25.597656 75.003906 L 25.582031 74.984375 L 25.570312 74.964844 L 25.558594 74.949219 L 25.542969 74.929688 L 25.519531 74.890625 L 25.507812 74.875 L 25.460938 74.796875 L 25.453125 74.777344 L 25.429688 74.738281 L 25.421875 74.71875 L 25.410156 74.695312 L 25.402344 74.675781 L 25.390625 74.65625 L 25.382812 74.636719 L 25.375 74.613281 L 25.363281 74.59375 L 25.355469 74.574219 L 25.347656 74.550781 L 25.339844 74.53125 L 25.332031 74.507812 L 25.324219 74.488281 L 25.316406 74.464844 L 25.3125 74.445312 L 25.304688 74.421875 L 25.296875 74.402344 L 25.292969 74.378906 L 25.285156 74.355469 L 25.28125 74.335938 L 25.273438 74.3125 L 25.261719 74.242188 L 25.257812 74.222656 L 25.238281 74.105469 L 25.238281 74.082031 L 25.234375 74.058594 L 25.234375 74.035156 L 25.230469 74.011719 L 25.230469 73.964844 L 25.226562 73.941406 L 25.226562 70.132812 L 25.230469 70.109375 L 25.230469 70.0625 L 25.234375 70.039062 L 25.234375 70.015625 L 25.238281 69.992188 L 25.238281 69.96875 L 25.253906 69.875 L 25.257812 69.855469 L 25.273438 69.761719 L 25.28125 69.742188 L 25.285156 69.71875 L 25.292969 69.695312 L 25.296875 69.675781 L 25.3125 69.628906 L 25.316406 69.609375 L 25.324219 69.585938 L 25.332031 69.566406 L 25.339844 69.542969 L 25.355469 69.503906 L 25.363281 69.480469 L 25.375 69.460938 L 25.382812 69.4375 L 25.390625 69.417969 L 25.402344 69.398438 L 25.410156 69.378906 L 25.421875 69.359375 L 25.429688 69.335938 L 25.453125 69.296875 L 25.460938 69.277344 L 25.496094 69.21875 L 25.507812 69.203125 L 25.542969 69.144531 L 25.558594 69.125 L 25.570312 69.109375 L 25.582031 69.089844 L 25.597656 69.070312 L 25.609375 69.054688 L 25.625 69.035156 L 25.636719 69.019531 L 25.652344 69.003906 L 25.664062 68.984375 L 25.695312 68.953125 L 25.710938 68.933594 L 25.742188 68.902344 L 25.753906 68.886719 L 25.773438 68.871094 L 25.851562 68.792969 L 25.867188 68.78125 L 25.886719 68.765625 L 25.902344 68.75 L 25.921875 68.738281 L 25.9375 68.722656 L 25.957031 68.707031 L 25.972656 68.695312 L 25.992188 68.683594 L 26.007812 68.667969 L 26.066406 68.632812 L 26.082031 68.617188 L 26.140625 68.582031 L 26.160156 68.574219 L 26.21875 68.539062 L 26.238281 68.53125 L 26.277344 68.507812 L 26.300781 68.5 L 26.320312 68.492188 L 26.339844 68.480469 L 26.359375 68.472656 L 26.382812 68.464844 L 26.402344 68.457031 L 26.425781 68.445312 L 26.464844 68.429688 L 26.488281 68.425781 L 26.511719 68.417969 L 26.53125 68.410156 L 26.554688 68.402344 L 26.574219 68.398438 L 26.597656 68.390625 L 26.621094 68.386719 L 26.640625 68.378906 L 26.664062 68.375 L 26.6875 68.367188 L 26.710938 68.363281 L 26.730469 68.359375 L 26.847656 68.339844 L 26.871094 68.339844 L 26.917969 68.332031 L 26.964844 68.332031 L 26.988281 68.328125 Z M 27.089844 69.992188 L 27.066406 69.992188 L 27.0625 69.996094 L 27.042969 69.996094 L 27.039062 70 L 27.027344 70 L 27.023438 70.003906 L 27.015625 70.003906 L 27.011719 70.007812 L 27.007812 70.007812 L 27.003906 70.011719 L 27 70.011719 L 26.996094 70.015625 L 26.992188 70.015625 L 26.988281 70.019531 L 26.984375 70.019531 L 26.984375 70.023438 L 26.980469 70.023438 L 26.976562 70.027344 L 26.972656 70.027344 L 26.972656 70.03125 L 26.96875 70.03125 L 26.960938 70.039062 L 26.957031 70.039062 L 26.957031 70.042969 L 26.949219 70.050781 L 26.945312 70.050781 L 26.945312 70.054688 L 26.941406 70.054688 L 26.941406 70.058594 L 26.933594 70.066406 L 26.933594 70.070312 L 26.929688 70.070312 L 26.929688 70.074219 L 26.925781 70.078125 L 26.925781 70.082031 L 26.921875 70.082031 L 26.921875 70.085938 L 26.917969 70.089844 L 26.917969 70.09375 L 26.914062 70.097656 L 26.914062 70.101562 L 26.910156 70.101562 L 26.910156 70.109375 L 26.90625 70.113281 L 26.90625 70.121094 L 26.902344 70.121094 L 26.902344 70.132812 L 26.898438 70.132812 L 26.898438 70.152344 L 26.894531 70.152344 L 26.894531 73.921875 L 26.898438 73.921875 L 26.898438 73.941406 L 26.902344 73.941406 L 26.902344 73.953125 L 26.90625 73.953125 L 26.90625 73.964844 L 26.910156 73.964844 L 26.910156 73.972656 L 26.914062 73.976562 L 26.914062 73.980469 L 26.917969 73.980469 L 26.917969 73.988281 L 26.921875 73.988281 L 26.921875 73.992188 L 26.925781 73.996094 L 26.925781 74 L 26.929688 74 L 26.929688 74.003906 L 26.933594 74.007812 L 26.933594 74.011719 L 26.9375 74.011719 L 26.941406 74.015625 L 26.941406 74.019531 L 26.945312 74.019531 L 26.945312 74.023438 L 26.949219 74.023438 L 26.949219 74.027344 L 26.953125 74.027344 L 26.953125 74.03125 L 26.957031 74.03125 L 26.957031 74.035156 L 26.960938 74.035156 L 26.960938 74.039062 L 26.964844 74.039062 L 26.96875 74.042969 L 26.972656 74.042969 L 26.972656 74.046875 L 26.976562 74.046875 L 26.976562 74.050781 L 26.980469 74.050781 L 26.984375 74.054688 L 26.988281 74.054688 L 26.992188 74.058594 L 26.996094 74.058594 L 26.996094 74.0625 L 27.003906 74.0625 L 27.003906 74.066406 L 27.011719 74.066406 L 27.015625 74.070312 L 27.023438 74.070312 L 27.023438 74.074219 L 27.035156 74.074219 L 27.039062 74.078125 L 27.058594 74.078125 L 27.058594 74.082031 L 72.941406 74.082031 L 72.941406 74.078125 L 72.960938 74.078125 L 72.964844 74.074219 L 72.976562 74.074219 L 72.976562 74.070312 L 72.984375 74.070312 L 72.988281 74.066406 L 72.996094 74.066406 L 72.996094 74.0625 L 73.003906 74.0625 L 73.003906 74.058594 L 73.007812 74.058594 L 73.011719 74.054688 L 73.015625 74.054688 L 73.019531 74.050781 L 73.023438 74.050781 L 73.023438 74.046875 L 73.027344 74.046875 L 73.027344 74.042969 L 73.03125 74.042969 L 73.035156 74.039062 L 73.039062 74.039062 L 73.039062 74.035156 L 73.042969 74.035156 L 73.042969 74.03125 L 73.046875 74.03125 L 73.046875 74.027344 L 73.050781 74.027344 L 73.050781 74.023438 L 73.054688 74.023438 L 73.054688 74.019531 L 73.0625 74.011719 L 73.066406 74.011719 L 73.066406 74.007812 L 73.070312 74.003906 L 73.070312 74 L 73.074219 74 L 73.074219 73.996094 L 73.078125 73.992188 L 73.078125 73.988281 L 73.082031 73.988281 L 73.082031 73.980469 L 73.085938 73.980469 L 73.085938 73.972656 L 73.089844 73.972656 L 73.089844 73.964844 L 73.09375 73.964844 L 73.09375 73.953125 L 73.097656 73.953125 L 73.097656 73.941406 L 73.101562 73.941406 L 73.101562 73.921875 L 73.105469 73.921875 L 73.105469 70.152344 L 73.101562 70.152344 L 73.101562 70.132812 L 73.097656 70.132812 L 73.097656 70.121094 L 73.09375 70.121094 L 73.09375 70.113281 L 73.089844 70.109375 L 73.089844 70.105469 L 73.085938 70.101562 L 73.085938 70.097656 L 73.082031 70.09375 L 73.082031 70.089844 L 73.078125 70.085938 L 73.078125 70.082031 L 73.074219 70.082031 L 73.074219 70.078125 L 73.070312 70.074219 L 73.070312 70.070312 L 73.066406 70.070312 L 73.066406 70.066406 L 73.054688 70.054688 L 73.054688 70.050781 L 73.050781 70.050781 L 73.042969 70.042969 L 73.042969 70.039062 L 73.039062 70.039062 L 73.03125 70.03125 L 73.027344 70.03125 L 73.027344 70.027344 L 73.023438 70.027344 L 73.019531 70.023438 L 73.015625 70.023438 L 73.015625 70.019531 L 73.011719 70.019531 L 73.007812 70.015625 L 73.003906 70.015625 L 73 70.011719 L 72.996094 70.011719 L 72.992188 70.007812 L 72.988281 70.007812 L 72.984375 70.003906 L 72.976562 70.003906 L 72.972656 70 L 72.960938 70 L 72.957031 69.996094 L 72.9375 69.996094 L 72.933594 69.992188 Z M 27.089844 69.992188 "/>
<path style=" stroke:none;fill-rule:evenodd;fill:rgb(29.411766%,29.411766%,29.411766%);fill-opacity:1;" d="M 30.714844 60.363281 C 30.714844 61.835938 29.523438 63.03125 28.046875 63.03125 C 26.574219 63.03125 25.382812 61.835938 25.382812 60.363281 C 25.382812 58.890625 26.574219 57.699219 28.046875 57.699219 C 29.523438 57.699219 30.714844 58.890625 30.714844 60.363281 Z M 30.714844 60.363281 "/>
<path style=" stroke:none;fill-rule:evenodd;fill:rgb(29.411766%,29.411766%,29.411766%);fill-opacity:1;" d="M 38.671875 60.363281 C 38.671875 61.835938 37.480469 63.03125 36.003906 63.03125 C 34.53125 63.03125 33.339844 61.835938 33.339844 60.363281 C 33.339844 58.890625 34.53125 57.699219 36.003906 57.699219 C 37.480469 57.699219 38.671875 58.890625 38.671875 60.363281 Z M 38.671875 60.363281 "/>
<path style=" stroke:none;fill-rule:evenodd;fill:rgb(29.411766%,29.411766%,29.411766%);fill-opacity:1;" d="M 26.753906 68.863281 L 73.394531 68.863281 L 73.394531 72.039062 L 26.753906 72.039062 Z M 26.753906 68.863281 "/>
<path style=" stroke:none;fill-rule:evenodd;fill:rgb(30.19608%,30.19608%,30.19608%);fill-opacity:1;" d="M 26.753906 68.863281 L 73.394531 68.863281 L 73.394531 72.039062 L 26.753906 72.039062 Z M 26.753906 68.863281 "/>
<path style=" stroke:none;fill-rule:evenodd;fill:rgb(29.411766%,29.411766%,29.411766%);fill-opacity:1;" d="M 74.773438 58.785156 C 74.773438 58.359375 74.425781 58.007812 73.996094 58.007812 L 68.832031 58.007812 C 68.402344 58.007812 68.054688 58.359375 68.054688 58.785156 C 68.054688 59.214844 68.402344 59.5625 68.832031 59.5625 L 73.996094 59.5625 C 74.425781 59.5625 74.773438 59.214844 74.773438 58.785156 Z M 74.773438 58.785156 "/>
<path style=" stroke:none;fill-rule:evenodd;fill:rgb(30.19608%,30.19608%,30.19608%);fill-opacity:1;" d="M 70.855469 58.0625 L 70.835938 58.140625 L 70.824219 58.21875 L 70.808594 58.300781 L 70.796875 58.378906 L 70.78125 58.542969 L 70.773438 58.707031 L 70.773438 58.867188 L 70.78125 59.03125 L 70.789062 59.113281 L 70.796875 59.191406 L 70.808594 59.273438 L 70.824219 59.351562 L 70.835938 59.433594 L 70.855469 59.511719 L 70.867188 59.5625 L 68.773438 59.5625 L 68.753906 59.558594 L 68.734375 59.558594 L 68.636719 59.539062 L 68.621094 59.535156 L 68.601562 59.527344 L 68.582031 59.523438 L 68.566406 59.515625 L 68.546875 59.511719 L 68.53125 59.503906 L 68.511719 59.496094 L 68.480469 59.480469 L 68.460938 59.46875 L 68.429688 59.453125 L 68.398438 59.429688 L 68.382812 59.421875 L 68.351562 59.398438 L 68.339844 59.386719 L 68.308594 59.363281 L 68.296875 59.347656 L 68.28125 59.335938 L 68.269531 59.324219 L 68.257812 59.308594 L 68.246094 59.296875 L 68.222656 59.265625 L 68.210938 59.253906 L 68.175781 59.207031 L 68.167969 59.191406 L 68.15625 59.171875 L 68.132812 59.125 L 68.125 59.105469 L 68.117188 59.089844 L 68.109375 59.070312 L 68.101562 59.054688 L 68.097656 59.035156 L 68.089844 59.019531 L 68.085938 59 L 68.078125 58.980469 L 68.070312 58.941406 L 68.066406 58.925781 L 68.0625 58.90625 L 68.0625 58.886719 L 68.058594 58.867188 L 68.058594 58.847656 L 68.054688 58.828125 L 68.054688 58.746094 L 68.058594 58.726562 L 68.058594 58.707031 L 68.0625 58.6875 L 68.0625 58.667969 L 68.074219 58.609375 L 68.078125 58.59375 L 68.085938 58.574219 L 68.089844 58.554688 L 68.097656 58.539062 L 68.101562 58.519531 L 68.109375 58.503906 L 68.117188 58.484375 L 68.125 58.46875 L 68.132812 58.449219 L 68.148438 58.417969 L 68.15625 58.398438 L 68.167969 58.382812 L 68.175781 58.367188 L 68.210938 58.320312 L 68.222656 58.308594 L 68.246094 58.277344 L 68.257812 58.265625 L 68.269531 58.25 L 68.308594 58.210938 L 68.339844 58.1875 L 68.351562 58.175781 L 68.398438 58.140625 L 68.414062 58.132812 L 68.429688 58.121094 L 68.445312 58.113281 L 68.460938 58.101562 L 68.480469 58.09375 L 68.511719 58.078125 L 68.53125 58.070312 L 68.546875 58.0625 L 68.566406 58.054688 L 68.582031 58.050781 L 68.601562 58.042969 L 68.621094 58.039062 L 68.636719 58.035156 L 68.65625 58.027344 L 68.675781 58.023438 L 68.695312 58.023438 L 68.753906 58.011719 L 68.792969 58.011719 L 68.8125 58.007812 L 70.867188 58.007812 Z M 74.015625 58.007812 L 74.035156 58.011719 L 74.074219 58.011719 L 74.132812 58.023438 L 74.152344 58.023438 L 74.171875 58.027344 L 74.1875 58.035156 L 74.226562 58.042969 L 74.246094 58.050781 L 74.261719 58.054688 L 74.28125 58.0625 L 74.296875 58.070312 L 74.316406 58.078125 L 74.347656 58.09375 L 74.367188 58.101562 L 74.382812 58.113281 L 74.398438 58.121094 L 74.414062 58.132812 L 74.429688 58.140625 L 74.476562 58.175781 L 74.488281 58.1875 L 74.519531 58.210938 L 74.53125 58.222656 L 74.542969 58.238281 L 74.558594 58.25 L 74.570312 58.265625 L 74.582031 58.277344 L 74.605469 58.308594 L 74.617188 58.320312 L 74.640625 58.351562 L 74.648438 58.367188 L 74.660156 58.382812 L 74.667969 58.398438 L 74.679688 58.417969 L 74.695312 58.449219 L 74.703125 58.46875 L 74.710938 58.484375 L 74.71875 58.503906 L 74.726562 58.519531 L 74.730469 58.539062 L 74.738281 58.554688 L 74.746094 58.59375 L 74.753906 58.609375 L 74.761719 58.648438 L 74.761719 58.667969 L 74.769531 58.707031 L 74.769531 58.746094 L 74.773438 58.765625 L 74.773438 58.808594 L 74.769531 58.828125 L 74.769531 58.867188 L 74.761719 58.90625 L 74.761719 58.925781 L 74.757812 58.941406 L 74.753906 58.960938 L 74.746094 58.980469 L 74.738281 59.019531 L 74.730469 59.035156 L 74.726562 59.054688 L 74.71875 59.070312 L 74.710938 59.089844 L 74.703125 59.105469 L 74.695312 59.125 L 74.679688 59.15625 L 74.667969 59.171875 L 74.660156 59.191406 L 74.648438 59.207031 L 74.640625 59.222656 L 74.617188 59.253906 L 74.605469 59.265625 L 74.582031 59.296875 L 74.570312 59.308594 L 74.558594 59.324219 L 74.542969 59.335938 L 74.53125 59.347656 L 74.519531 59.363281 L 74.488281 59.386719 L 74.476562 59.398438 L 74.445312 59.421875 L 74.429688 59.429688 L 74.398438 59.453125 L 74.367188 59.46875 L 74.347656 59.480469 L 74.316406 59.496094 L 74.296875 59.503906 L 74.28125 59.511719 L 74.261719 59.515625 L 74.246094 59.523438 L 74.226562 59.527344 L 74.207031 59.535156 L 74.1875 59.539062 L 74.171875 59.542969 L 74.09375 59.558594 L 74.074219 59.558594 L 74.054688 59.5625 L 71.960938 59.5625 L 71.972656 59.511719 L 71.988281 59.433594 L 72.003906 59.351562 L 72.019531 59.273438 L 72.03125 59.191406 L 72.039062 59.113281 L 72.046875 59.03125 L 72.054688 58.867188 L 72.054688 58.707031 L 72.046875 58.542969 L 72.03125 58.378906 L 72.019531 58.300781 L 72.003906 58.21875 L 71.972656 58.0625 L 71.960938 58.007812 Z M 74.015625 58.007812 "/>
<path style=" stroke:none;fill-rule:evenodd;fill:rgb(100%,99.607843%,99.607843%);fill-opacity:1;" d="M 59.558594 40.179688 L 59.558594 42.363281 L 36.960938 42.363281 L 36.960938 40.179688 Z M 59.558594 33.988281 L 59.558594 36.171875 L 36.960938 36.171875 L 36.960938 33.988281 Z M 59.558594 27.796875 L 59.558594 29.984375 L 36.960938 29.984375 L 36.960938 27.796875 Z M 59.558594 27.796875 "/>
<path style=" stroke:none;fill-rule:evenodd;fill:rgb(30.19608%,30.19608%,30.19608%);fill-opacity:1;" d="M 59.558594 42.363281 L 36.960938 42.363281 L 36.960938 40.179688 L 59.558594 40.179688 Z M 59.558594 36.171875 L 36.960938 36.171875 L 36.960938 33.988281 L 59.558594 33.988281 Z M 59.558594 29.984375 L 36.960938 29.984375 L 36.960938 27.796875 L 59.558594 27.796875 Z M 59.558594 29.984375 "/>
<path style="fill:none;stroke-width:12;stroke-linecap:butt;stroke-linejoin:miter;stroke:rgb(30.19608%,30.19608%,30.19608%);stroke-opacity:1;stroke-miterlimit:1.5;" d="M 93.874708 138.679368 L 93.874708 56.390305 L 205.460646 56.390305 L 205.460646 138.679368 " transform="matrix(0.333333,0,0,0.333333,0.110774,0.812607)"/>
</g>
</svg>
