<?xml version="1.0" encoding="UTF-8"?>
<svg xmlns="http://www.w3.org/2000/svg" xmlns:xlink="http://www.w3.org/1999/xlink" width="100" height="100" viewBox="0 0 100 100" version="1.1">
<g id="surface1">
<path style=" stroke:none;fill-rule:evenodd;fill:rgb(100%,99.607843%,99.607843%);fill-opacity:1;" d="M 100 10.089844 C 100 4.519531 95.480469 0 89.910156 0 L 10.089844 0 C 4.519531 0 0 4.519531 0 10.089844 L 0 89.910156 C 0 95.480469 4.519531 100 10.089844 100 L 89.910156 100 C 95.480469 100 100 95.480469 100 89.910156 Z M 100 10.089844 "/>
<path style=" stroke:none;fill-rule:evenodd;fill:rgb(30.19608%,30.19608%,30.19608%);fill-opacity:1;" d="M 100 10.089844 C 100 4.519531 95.480469 0 89.910156 0 L 10.089844 0 C 4.519531 0 0 4.519531 0 10.089844 L 0 89.910156 C 0 95.480469 4.519531 100 10.089844 100 L 89.910156 100 C 95.480469 100 100 95.480469 100 89.910156 Z M 94.667969 10.089844 L 94.667969 89.910156 C 94.667969 92.535156 92.535156 94.667969 89.910156 94.667969 C 89.910156 94.667969 10.089844 94.667969 10.089844 94.667969 C 7.464844 94.667969 5.332031 92.535156 5.332031 89.910156 L 5.332031 10.089844 C 5.332031 7.464844 7.464844 5.332031 10.089844 5.332031 L 89.910156 5.332031 C 92.535156 5.332031 94.667969 7.464844 94.667969 10.089844 Z M 94.667969 10.089844 "/>
<path style=" stroke:none;fill-rule:evenodd;fill:rgb(30.19608%,30.19608%,30.19608%);fill-opacity:1;" d="M 50.011719 16.679688 C 68.410156 16.679688 83.34375 31.613281 83.34375 50.011719 C 83.34375 68.410156 68.410156 83.34375 50.011719 83.34375 C 31.613281 83.34375 16.679688 68.410156 16.679688 50.011719 C 16.679688 31.613281 31.613281 16.679688 50.011719 16.679688 Z M 51.730469 78.292969 C 54.492188 74.871094 56.765625 71.039062 58.4375 66.902344 C 55.667969 66.679688 52.855469 66.566406 50.011719 66.566406 C 47.160156 66.566406 44.339844 66.679688 41.554688 66.902344 C 43.230469 71.039062 45.507812 74.871094 48.269531 78.292969 C 48.847656 78.328125 49.425781 78.34375 50.011719 78.34375 C 50.589844 78.34375 51.164062 78.328125 51.730469 78.292969 Z M 71.261719 68.742188 C 68.71875 68.210938 66.128906 67.773438 63.5 67.429688 C 62.246094 70.800781 60.640625 73.996094 58.722656 76.980469 C 63.621094 75.394531 67.9375 72.515625 71.261719 68.742188 Z M 41.265625 76.96875 C 39.351562 73.992188 37.746094 70.796875 36.492188 67.433594 C 33.875 67.777344 31.296875 68.214844 28.761719 68.742188 C 32.082031 72.507812 36.382812 75.382812 41.265625 76.96875 Z M 21.785156 52.480469 C 22.164062 56.847656 23.535156 60.933594 25.671875 64.511719 C 28.730469 63.820312 31.851562 63.253906 35.023438 62.824219 C 34.140625 59.496094 33.59375 56.039062 33.417969 52.480469 Z M 78.238281 52.480469 L 66.5625 52.480469 C 66.390625 56.035156 65.84375 59.492188 64.964844 62.816406 C 68.152344 63.25 71.28125 63.816406 74.351562 64.511719 C 76.492188 60.9375 77.863281 56.847656 78.238281 52.480469 Z M 61.648438 52.480469 L 38.335938 52.480469 C 38.519531 55.851562 39.074219 59.128906 39.960938 62.265625 C 43.261719 61.96875 46.617188 61.816406 50.011719 61.816406 C 53.394531 61.816406 56.734375 61.964844 60.027344 62.261719 C 60.910156 59.125 61.464844 55.851562 61.648438 52.480469 Z M 74.316406 35.445312 C 71.25 36.140625 68.125 36.707031 64.945312 37.136719 C 65.835938 40.46875 66.386719 43.933594 66.5625 47.496094 L 78.234375 47.496094 C 77.847656 43.117188 76.464844 39.027344 74.316406 35.445312 Z M 25.710938 35.445312 C 23.558594 39.027344 22.175781 43.117188 21.789062 47.496094 L 33.417969 47.496094 C 33.59375 43.929688 34.144531 40.460938 35.03125 37.128906 C 31.867188 36.699219 28.757812 36.136719 25.710938 35.445312 Z M 61.644531 47.496094 C 61.460938 44.113281 60.898438 40.832031 60.007812 37.691406 C 56.722656 37.984375 53.386719 38.136719 50.011719 38.136719 C 46.621094 38.136719 43.269531 37.984375 39.96875 37.6875 C 39.078125 40.828125 38.519531 44.113281 38.335938 47.496094 Z M 51.730469 21.730469 C 51.164062 21.695312 50.589844 21.679688 50.011719 21.679688 C 49.414062 21.679688 48.820312 21.699219 48.230469 21.734375 C 45.488281 25.132812 43.230469 28.941406 41.5625 33.050781 C 44.347656 33.273438 47.164062 33.386719 50.011719 33.386719 C 52.84375 33.386719 55.648438 33.273438 58.410156 33.054688 C 56.738281 28.941406 54.476562 25.132812 51.730469 21.730469 Z M 58.722656 23.046875 C 60.625 26.003906 62.222656 29.179688 63.476562 32.523438 C 66.09375 32.183594 68.671875 31.75 71.210938 31.21875 C 67.890625 27.476562 63.59375 24.621094 58.722656 23.046875 Z M 41.226562 23.070312 C 36.386719 24.648438 32.117188 27.496094 28.816406 31.21875 C 31.335938 31.746094 33.898438 32.179688 36.5 32.515625 C 37.746094 29.183594 39.335938 26.023438 41.226562 23.070312 Z M 41.226562 23.070312 "/>
</g>
</svg>
