<?xml version="1.0" encoding="UTF-8"?>
<svg xmlns="http://www.w3.org/2000/svg" xmlns:xlink="http://www.w3.org/1999/xlink" width="100" height="100" viewBox="0 0 100 100" version="1.1">
<g id="surface1">
<path style=" stroke:none;fill-rule:evenodd;fill:rgb(100%,99.607843%,99.607843%);fill-opacity:1;" d="M 100 10.089844 C 100 4.519531 95.480469 0 89.910156 0 L 10.089844 0 C 4.519531 0 0 4.519531 0 10.089844 L 0 89.910156 C 0 95.480469 4.519531 100 10.089844 100 L 89.910156 100 C 95.480469 100 100 95.480469 100 89.910156 Z M 100 10.089844 "/>
<path style=" stroke:none;fill-rule:evenodd;fill:rgb(30.19608%,30.19608%,30.19608%);fill-opacity:1;" d="M 100 10.089844 C 100 4.519531 95.480469 0 89.910156 0 L 10.089844 0 C 4.519531 0 0 4.519531 0 10.089844 L 0 89.910156 C 0 95.480469 4.519531 100 10.089844 100 L 89.910156 100 C 95.480469 100 100 95.480469 100 89.910156 Z M 94.667969 10.089844 L 94.667969 89.910156 C 94.667969 92.535156 92.535156 94.667969 89.910156 94.667969 C 89.910156 94.667969 10.089844 94.667969 10.089844 94.667969 C 7.464844 94.667969 5.332031 92.535156 5.332031 89.910156 L 5.332031 10.089844 C 5.332031 7.464844 7.464844 5.332031 10.089844 5.332031 L 89.910156 5.332031 C 92.535156 5.332031 94.667969 7.464844 94.667969 10.089844 Z M 94.667969 10.089844 "/>
<path style=" stroke:none;fill-rule:evenodd;fill:rgb(30.19608%,30.19608%,30.19608%);fill-opacity:1;" d="M 33.632812 53.988281 L 45.613281 28.457031 C 46.363281 26.855469 48.121094 25.992188 49.847656 26.378906 C 51.570312 26.761719 52.796875 28.292969 52.796875 30.058594 L 52.796875 63.101562 L 58.535156 55.488281 C 59.25 54.542969 60.363281 53.988281 61.546875 53.988281 C 64.207031 53.988281 80.308594 53.988281 80.308594 53.988281 C 81.980469 53.988281 83.339844 55.34375 83.339844 57.019531 C 83.339844 58.691406 81.980469 60.046875 80.308594 60.046875 L 62.691406 60.046875 L 53.519531 72.210938 C 52.542969 73.507812 50.847656 74.03125 49.3125 73.519531 C 47.773438 73.003906 46.738281 71.5625 46.738281 69.941406 L 46.738281 40.328125 L 38.5 57.878906 C 37.878906 59.203125 36.550781 60.046875 35.085938 60.046875 L 19.691406 60.046875 C 18.019531 60.046875 16.660156 58.691406 16.660156 57.019531 C 16.660156 55.34375 18.019531 53.988281 19.691406 53.988281 Z M 33.632812 53.988281 "/>
</g>
</svg>
