<?xml version="1.0" encoding="UTF-8"?>
<svg xmlns="http://www.w3.org/2000/svg" xmlns:xlink="http://www.w3.org/1999/xlink" width="100" height="100" viewBox="0 0 100 100" version="1.1">
<g id="surface1">
<path style=" stroke:none;fill-rule:evenodd;fill:rgb(100%,99.607843%,99.607843%);fill-opacity:1;" d="M 100 10.089844 C 100 4.519531 95.480469 0 89.910156 0 L 10.089844 0 C 4.519531 0 0 4.519531 0 10.089844 L 0 89.910156 C 0 95.480469 4.519531 100 10.089844 100 L 89.910156 100 C 95.480469 100 100 95.480469 100 89.910156 Z M 100 10.089844 "/>
<path style=" stroke:none;fill-rule:evenodd;fill:rgb(30.19608%,30.19608%,30.19608%);fill-opacity:1;" d="M 100 10.089844 C 100 4.519531 95.480469 0 89.910156 0 L 10.089844 0 C 4.519531 0 0 4.519531 0 10.089844 L 0 89.910156 C 0 95.480469 4.519531 100 10.089844 100 L 89.910156 100 C 95.480469 100 100 95.480469 100 89.910156 Z M 94.667969 10.089844 L 94.667969 89.910156 C 94.667969 92.535156 92.535156 94.667969 89.910156 94.667969 C 89.910156 94.667969 10.089844 94.667969 10.089844 94.667969 C 7.464844 94.667969 5.332031 92.535156 5.332031 89.910156 L 5.332031 10.089844 C 5.332031 7.464844 7.464844 5.332031 10.089844 5.332031 L 89.910156 5.332031 C 92.535156 5.332031 94.667969 7.464844 94.667969 10.089844 Z M 94.667969 10.089844 "/>
<path style=" stroke:none;fill-rule:evenodd;fill:rgb(30.19608%,30.19608%,30.19608%);fill-opacity:1;" d="M 23.332031 78.320312 L 23.332031 40.578125 L 23.476562 40.578125 L 36.667969 33.324219 L 36.691406 40.578125 L 36.785156 40.578125 L 49.976562 33.324219 L 50 40.578125 L 61.714844 40.578125 L 64.179688 18.566406 L 69.175781 18.566406 L 71.636719 40.578125 L 76.664062 40.578125 L 76.664062 78.320312 L 79.445312 78.320312 L 79.445312 83.320312 L 20.589844 83.320312 L 20.589844 78.320312 Z M 40.023438 61.792969 L 33.355469 61.792969 L 33.355469 68.460938 L 40.023438 68.460938 Z M 53.351562 61.792969 L 46.683594 61.792969 L 46.683594 68.460938 L 53.351562 68.460938 Z M 66.675781 61.792969 L 60.011719 61.792969 L 60.011719 68.460938 L 66.675781 68.460938 Z M 40.023438 50 L 33.355469 50 L 33.355469 56.667969 L 40.023438 56.667969 Z M 53.351562 50 L 46.683594 50 L 46.683594 56.667969 L 53.351562 56.667969 Z M 66.675781 50 L 60.011719 50 L 60.011719 56.667969 L 66.675781 56.667969 Z M 66.675781 50 "/>
</g>
</svg>
