<?xml version="1.0" encoding="UTF-8"?>
<svg xmlns="http://www.w3.org/2000/svg" xmlns:xlink="http://www.w3.org/1999/xlink" width="100" height="100" viewBox="0 0 100 100" version="1.1">
<g id="surface1">
<path style=" stroke:none;fill-rule:evenodd;fill:rgb(100%,99.607843%,99.607843%);fill-opacity:1;" d="M 100 10.089844 C 100 4.519531 95.480469 0 89.910156 0 L 10.089844 0 C 4.519531 0 0 4.519531 0 10.089844 L 0 89.910156 C 0 95.480469 4.519531 100 10.089844 100 L 89.910156 100 C 95.480469 100 100 95.480469 100 89.910156 Z M 100 10.089844 "/>
<path style=" stroke:none;fill-rule:evenodd;fill:rgb(30.19608%,30.19608%,30.19608%);fill-opacity:1;" d="M 100 10.089844 C 100 4.519531 95.480469 0 89.910156 0 L 10.089844 0 C 4.519531 0 0 4.519531 0 10.089844 L 0 89.910156 C 0 95.480469 4.519531 100 10.089844 100 L 89.910156 100 C 95.480469 100 100 95.480469 100 89.910156 Z M 94.667969 10.089844 L 94.667969 89.910156 C 94.667969 92.535156 92.535156 94.667969 89.910156 94.667969 C 89.910156 94.667969 10.089844 94.667969 10.089844 94.667969 C 7.464844 94.667969 5.332031 92.535156 5.332031 89.910156 L 5.332031 10.089844 C 5.332031 7.464844 7.464844 5.332031 10.089844 5.332031 L 89.910156 5.332031 C 92.535156 5.332031 94.667969 7.464844 94.667969 10.089844 Z M 94.667969 10.089844 "/>
<path style=" stroke:none;fill-rule:evenodd;fill:rgb(30.19608%,30.19608%,30.19608%);fill-opacity:1;" d="M 25 32.070312 C 25.558594 27.449219 31.992188 20.875 35.371094 21.25 C 38.753906 21.625 45.570312 31.816406 45.292969 35.226562 C 44.953125 39.441406 41.53125 40.105469 38.980469 41.089844 C 38.148438 41.414062 36.722656 42.316406 38.53125 46.953125 C 40.996094 53.273438 49.007812 62.238281 52.507812 63.1875 C 57.78125 64.613281 56.011719 62.988281 58.371094 60.480469 C 60.410156 58.308594 62.003906 57.546875 63.78125 58.226562 C 66.9375 59.429688 75.355469 67.921875 75.054688 71.304688 C 74.753906 74.683594 66.738281 79.972656 61.976562 78.519531 C 55.589844 76.5625 42.890625 67.320312 36.726562 59.578125 C 30.5625 51.835938 24.226562 38.5 25 32.070312 Z M 25 32.070312 "/>
</g>
</svg>
