<?xml version="1.0" encoding="UTF-8"?>
<svg xmlns="http://www.w3.org/2000/svg" xmlns:xlink="http://www.w3.org/1999/xlink" width="100" height="100" viewBox="0 0 100 100" version="1.1">
<g id="surface1">
<path style=" stroke:none;fill-rule:evenodd;fill:rgb(100%,99.607843%,99.607843%);fill-opacity:1;" d="M 100 10.089844 C 100 4.519531 95.480469 0 89.910156 0 L 10.089844 0 C 4.519531 0 0 4.519531 0 10.089844 L 0 89.910156 C 0 95.480469 4.519531 100 10.089844 100 L 89.910156 100 C 95.480469 100 100 95.480469 100 89.910156 Z M 100 10.089844 "/>
<path style=" stroke:none;fill-rule:evenodd;fill:rgb(30.19608%,30.19608%,30.19608%);fill-opacity:1;" d="M 100 10.089844 C 100 4.519531 95.480469 0 89.910156 0 L 10.089844 0 C 4.519531 0 0 4.519531 0 10.089844 L 0 89.910156 C 0 95.480469 4.519531 100 10.089844 100 L 89.910156 100 C 95.480469 100 100 95.480469 100 89.910156 Z M 94.667969 10.089844 L 94.667969 89.910156 C 94.667969 92.535156 92.535156 94.667969 89.910156 94.667969 C 89.910156 94.667969 10.089844 94.667969 10.089844 94.667969 C 7.464844 94.667969 5.332031 92.535156 5.332031 89.910156 L 5.332031 10.089844 C 5.332031 7.464844 7.464844 5.332031 10.089844 5.332031 L 89.910156 5.332031 C 92.535156 5.332031 94.667969 7.464844 94.667969 10.089844 Z M 94.667969 10.089844 "/>
<path style=" stroke:none;fill-rule:evenodd;fill:rgb(30.19608%,30.19608%,30.19608%);fill-opacity:1;" d="M 43.6875 78.914062 L 24.890625 78.914062 L 24.890625 55.261719 L 50 30.152344 L 75.109375 55.261719 L 75.109375 78.914062 L 56.3125 78.914062 L 56.3125 60.105469 L 43.6875 60.105469 Z M 50 21.085938 C 50.570312 21.085938 51.136719 21.300781 51.570312 21.734375 C 51.597656 21.761719 51.621094 21.785156 51.644531 21.8125 L 82.6875 52.855469 C 83.554688 53.722656 83.554688 55.128906 82.6875 55.996094 C 81.820312 56.863281 80.414062 56.863281 79.550781 55.996094 L 50 26.445312 L 20.449219 55.996094 C 19.582031 56.863281 18.175781 56.863281 17.3125 55.996094 C 16.445312 55.128906 16.445312 53.722656 17.3125 52.855469 L 48.355469 21.8125 C 48.378906 21.785156 48.402344 21.761719 48.429688 21.734375 C 48.863281 21.300781 49.429688 21.085938 50 21.085938 Z M 65.980469 32.351562 L 65.980469 28.816406 C 65.980469 27.734375 66.734375 26.855469 67.664062 26.855469 L 71.03125 26.855469 C 71.957031 26.855469 72.710938 27.734375 72.710938 28.816406 L 72.710938 39.085938 Z M 65.980469 32.351562 "/>
<path style=" stroke:none;fill-rule:evenodd;fill:rgb(30.19608%,30.19608%,30.19608%);fill-opacity:1;" d="M 43.6875 78.914062 L 24.890625 78.914062 L 24.890625 55.261719 L 50 30.152344 L 75.109375 55.261719 L 75.109375 78.914062 L 56.3125 78.914062 L 56.3125 60.105469 L 43.6875 60.105469 Z M 60.3125 74.914062 L 71.109375 74.914062 L 71.109375 56.917969 L 50 35.808594 L 28.890625 56.917969 L 28.890625 74.914062 L 39.6875 74.914062 L 39.6875 60.105469 C 39.6875 57.894531 41.476562 56.105469 43.6875 56.105469 L 56.3125 56.105469 C 58.523438 56.105469 60.3125 57.894531 60.3125 60.105469 Z M 50 21.085938 C 50.570312 21.085938 51.136719 21.300781 51.570312 21.734375 C 51.597656 21.761719 51.621094 21.785156 51.644531 21.8125 L 82.6875 52.855469 C 83.554688 53.722656 83.554688 55.128906 82.6875 55.996094 C 81.820312 56.863281 80.414062 56.863281 79.550781 55.996094 L 50 26.445312 L 20.449219 55.996094 C 19.582031 56.863281 18.175781 56.863281 17.3125 55.996094 C 16.445312 55.128906 16.445312 53.722656 17.3125 52.855469 L 48.355469 21.8125 C 48.378906 21.785156 48.402344 21.761719 48.429688 21.734375 C 48.863281 21.300781 49.429688 21.085938 50 21.085938 Z M 65.980469 32.351562 L 65.980469 28.816406 C 65.980469 27.734375 66.734375 26.855469 67.664062 26.855469 L 71.03125 26.855469 C 71.957031 26.855469 72.710938 27.734375 72.710938 28.816406 L 72.710938 39.085938 Z M 65.980469 32.351562 "/>
</g>
</svg>
