<?xml version="1.0" encoding="UTF-8"?>
<svg xmlns="http://www.w3.org/2000/svg" xmlns:xlink="http://www.w3.org/1999/xlink" width="100" height="100" viewBox="0 0 100 100" version="1.1">
<g id="surface1">
<path style=" stroke:none;fill-rule:evenodd;fill:rgb(100%,99.607843%,99.607843%);fill-opacity:1;" d="M 100 10.089844 C 100 4.519531 95.480469 0 89.910156 0 L 10.089844 0 C 4.519531 0 0 4.519531 0 10.089844 L 0 89.910156 C 0 95.480469 4.519531 100 10.089844 100 L 89.910156 100 C 95.480469 100 100 95.480469 100 89.910156 Z M 100 10.089844 "/>
<path style=" stroke:none;fill-rule:evenodd;fill:rgb(30.19608%,30.19608%,30.19608%);fill-opacity:1;" d="M 100 10.089844 C 100 4.519531 95.480469 0 89.910156 0 L 10.089844 0 C 4.519531 0 0 4.519531 0 10.089844 L 0 89.910156 C 0 95.480469 4.519531 100 10.089844 100 L 89.910156 100 C 95.480469 100 100 95.480469 100 89.910156 Z M 94.667969 10.089844 L 94.667969 89.910156 C 94.667969 92.535156 92.535156 94.667969 89.910156 94.667969 C 89.910156 94.667969 10.089844 94.667969 10.089844 94.667969 C 7.464844 94.667969 5.332031 92.535156 5.332031 89.910156 L 5.332031 10.089844 C 5.332031 7.464844 7.464844 5.332031 10.089844 5.332031 L 89.910156 5.332031 C 92.535156 5.332031 94.667969 7.464844 94.667969 10.089844 Z M 94.667969 10.089844 "/>
<path style=" stroke:none;fill-rule:evenodd;fill:rgb(30.19608%,30.19608%,30.19608%);fill-opacity:1;" d="M 50 83.300781 C 49.972656 83.289062 39.863281 78.535156 32.21875 64.769531 C 22.34375 46.972656 22.871094 25.488281 22.871094 25.488281 C 41.136719 25.746094 49.980469 16.707031 50 16.6875 C 50.019531 16.707031 58.863281 25.746094 77.128906 25.488281 C 77.128906 25.488281 77.65625 46.972656 67.78125 64.769531 C 60.125 78.554688 50 83.300781 50 83.300781 Z M 50 78 C 49.976562 77.988281 41.351562 73.964844 34.828125 62.296875 C 26.402344 47.21875 26.851562 29.019531 26.851562 29.019531 C 42.4375 29.238281 49.984375 21.582031 50 21.5625 C 50.015625 21.582031 57.5625 29.238281 73.148438 29.019531 C 73.148438 29.019531 73.597656 47.21875 65.171875 62.296875 C 58.640625 73.980469 50 78 50 78 Z M 50 25.652344 C 46.816406 27.941406 40.234375 31.585938 30.078125 32.121094 C 30.339844 37.710938 31.617188 50.058594 37.59375 60.753906 C 42.039062 68.707031 47.515625 72.800781 50 74.363281 C 52.484375 72.800781 57.960938 68.707031 62.40625 60.753906 C 68.382812 50.058594 69.660156 37.710938 69.921875 32.121094 C 59.765625 31.585938 53.183594 27.941406 50 25.652344 Z M 50 25.652344 "/>
</g>
</svg>
