<?xml version="1.0" encoding="UTF-8"?>
<svg xmlns="http://www.w3.org/2000/svg" xmlns:xlink="http://www.w3.org/1999/xlink" width="100" height="100" viewBox="0 0 100 100" version="1.1">
<g id="surface1">
<path style=" stroke:none;fill-rule:evenodd;fill:rgb(100%,99.607843%,99.607843%);fill-opacity:1;" d="M 100 10.089844 C 100 4.519531 95.480469 0 89.910156 0 L 10.089844 0 C 4.519531 0 0 4.519531 0 10.089844 L 0 89.910156 C 0 95.480469 4.519531 100 10.089844 100 L 89.910156 100 C 95.480469 100 100 95.480469 100 89.910156 Z M 100 10.089844 "/>
<path style=" stroke:none;fill-rule:evenodd;fill:rgb(30.19608%,30.19608%,30.19608%);fill-opacity:1;" d="M 100 10.089844 C 100 4.519531 95.480469 0 89.910156 0 L 10.089844 0 C 4.519531 0 0 4.519531 0 10.089844 L 0 89.910156 C 0 95.480469 4.519531 100 10.089844 100 L 89.910156 100 C 95.480469 100 100 95.480469 100 89.910156 Z M 94.667969 10.089844 L 94.667969 89.910156 C 94.667969 92.535156 92.535156 94.667969 89.910156 94.667969 C 89.910156 94.667969 10.089844 94.667969 10.089844 94.667969 C 7.464844 94.667969 5.332031 92.535156 5.332031 89.910156 L 5.332031 10.089844 C 5.332031 7.464844 7.464844 5.332031 10.089844 5.332031 L 89.910156 5.332031 C 92.535156 5.332031 94.667969 7.464844 94.667969 10.089844 Z M 94.667969 10.089844 "/>
<path style=" stroke:none;fill-rule:evenodd;fill:rgb(30.19608%,30.19608%,30.19608%);fill-opacity:1;" d="M 22.816406 42.949219 C 23.226562 39.53125 27.980469 34.671875 30.480469 34.949219 C 32.980469 35.226562 38.019531 42.761719 37.816406 45.285156 C 37.5625 48.398438 35.035156 48.886719 33.148438 49.617188 C 32.535156 49.855469 31.480469 50.523438 32.816406 53.949219 C 34.636719 58.625 40.5625 65.25 43.148438 65.949219 C 47.046875 67.003906 45.738281 65.804688 47.480469 63.949219 C 48.992188 62.34375 50.167969 61.78125 51.480469 62.285156 C 53.816406 63.171875 60.039062 69.449219 59.816406 71.949219 C 59.59375 74.449219 53.667969 78.359375 50.148438 77.285156 C 45.425781 75.839844 36.039062 69.003906 31.480469 63.285156 C 26.925781 57.5625 22.242188 47.703125 22.816406 42.949219 Z M 22.816406 42.949219 "/>
<path style=" stroke:none;fill-rule:evenodd;fill:rgb(30.19608%,30.19608%,30.19608%);fill-opacity:1;" d="M 72.898438 52.492188 C 72.875 38.34375 61.382812 26.867188 47.230469 26.867188 L 47.21875 26.867188 C 46.027344 26.859375 45.066406 25.890625 45.066406 24.699219 C 45.066406 23.503906 46.035156 22.535156 47.230469 22.535156 C 63.789062 22.535156 77.230469 35.976562 77.230469 52.535156 C 77.230469 53.730469 76.261719 54.699219 75.066406 54.699219 C 73.871094 54.699219 72.898438 53.730469 72.898438 52.535156 Z M 72.898438 52.492188 "/>
<path style=" stroke:none;fill-rule:evenodd;fill:rgb(30.19608%,30.19608%,30.19608%);fill-opacity:1;" d="M 47.300781 31.199219 C 59.042969 31.238281 68.566406 40.78125 68.566406 52.535156 C 68.566406 53.730469 67.59375 54.699219 66.398438 54.699219 C 65.203125 54.699219 64.230469 53.730469 64.230469 52.535156 C 64.230469 43.167969 56.644531 35.5625 47.289062 35.535156 L 47.230469 35.535156 C 46.035156 35.535156 45.066406 34.5625 45.066406 33.367188 C 45.066406 32.171875 46.035156 31.199219 47.230469 31.199219 Z M 47.300781 31.199219 "/>
<path style=" stroke:none;fill-rule:evenodd;fill:rgb(30.19608%,30.19608%,30.19608%);fill-opacity:1;" d="M 47.21875 44.199219 C 46.027344 44.191406 45.066406 43.222656 45.066406 42.035156 C 45.066406 40.835938 46.035156 39.867188 47.230469 39.867188 C 54.222656 39.867188 59.898438 45.542969 59.898438 52.535156 C 59.898438 53.730469 58.929688 54.699219 57.730469 54.699219 C 56.535156 54.699219 55.566406 53.730469 55.566406 52.535156 C 55.566406 47.933594 51.832031 44.199219 47.230469 44.199219 Z M 47.21875 44.199219 "/>
</g>
</svg>
