<?xml version="1.0" encoding="UTF-8"?>
<svg xmlns="http://www.w3.org/2000/svg" xmlns:xlink="http://www.w3.org/1999/xlink" width="100" height="100" viewBox="0 0 100 100" version="1.1">
<g id="surface1">
<path style=" stroke:none;fill-rule:evenodd;fill:rgb(100%,99.607843%,99.607843%);fill-opacity:1;" d="M 100 10.089844 C 100 4.519531 95.480469 0 89.910156 0 L 10.089844 0 C 4.519531 0 0 4.519531 0 10.089844 L 0 89.910156 C 0 95.480469 4.519531 100 10.089844 100 L 89.910156 100 C 95.480469 100 100 95.480469 100 89.910156 Z M 100 10.089844 "/>
<path style=" stroke:none;fill-rule:evenodd;fill:rgb(30.19608%,30.19608%,30.19608%);fill-opacity:1;" d="M 100 10.089844 C 100 4.519531 95.480469 0 89.910156 0 L 10.089844 0 C 4.519531 0 0 4.519531 0 10.089844 L 0 89.910156 C 0 95.480469 4.519531 100 10.089844 100 L 89.910156 100 C 95.480469 100 100 95.480469 100 89.910156 Z M 94.667969 10.089844 L 94.667969 89.910156 C 94.667969 92.535156 92.535156 94.667969 89.910156 94.667969 C 89.910156 94.667969 10.089844 94.667969 10.089844 94.667969 C 7.464844 94.667969 5.332031 92.535156 5.332031 89.910156 L 5.332031 10.089844 C 5.332031 7.464844 7.464844 5.332031 10.089844 5.332031 L 89.910156 5.332031 C 92.535156 5.332031 94.667969 7.464844 94.667969 10.089844 Z M 94.667969 10.089844 "/>
<path style=" stroke:none;fill-rule:evenodd;fill:rgb(30.19608%,30.19608%,30.19608%);fill-opacity:1;" d="M 31.175781 70.785156 C 31.117188 70.785156 31.058594 70.785156 31 70.785156 C 23.746094 70.785156 17.855469 64.894531 17.855469 57.640625 C 17.855469 51.132812 22.597656 45.71875 28.8125 44.675781 C 28.972656 33.117188 38.40625 23.785156 50 23.785156 C 61.59375 23.785156 71.027344 33.117188 71.1875 44.675781 C 77.402344 45.71875 82.144531 51.132812 82.144531 57.640625 C 82.144531 64.894531 76.253906 70.785156 69 70.785156 C 68.910156 70.785156 68.816406 70.785156 68.726562 70.78125 L 68.726562 70.785156 Z M 31 66.308594 L 69 66.308594 C 73.679688 66.308594 77.476562 62.507812 77.476562 57.828125 C 77.476562 53.722656 74.550781 50.292969 70.671875 49.515625 L 70.597656 49.503906 L 70.570312 49.496094 L 70.492188 49.484375 L 70.464844 49.476562 L 70.390625 49.464844 L 70.359375 49.460938 L 70.285156 49.449219 L 70.253906 49.445312 L 70.179688 49.433594 L 70.144531 49.429688 L 70.074219 49.417969 L 69.96875 49.40625 L 69.929688 49.402344 L 69.863281 49.394531 L 69.820312 49.390625 L 69.757812 49.386719 L 69.710938 49.382812 L 69.648438 49.375 L 69.597656 49.375 L 69.542969 49.367188 L 69.488281 49.367188 L 69.433594 49.363281 L 69.375 49.359375 L 69.328125 49.359375 L 69.261719 49.355469 L 69.21875 49.355469 L 69.144531 49.351562 L 68.859375 49.351562 L 68.789062 49.355469 L 68.746094 49.355469 L 68.683594 49.359375 L 68.636719 49.359375 L 68.578125 49.363281 L 68.53125 49.363281 L 68.472656 49.367188 L 68.425781 49.371094 L 68.367188 49.375 L 68.320312 49.378906 L 68.265625 49.382812 L 68.214844 49.386719 L 68.160156 49.394531 L 68.113281 49.398438 L 68.054688 49.402344 L 68.007812 49.410156 L 67.953125 49.417969 L 67.90625 49.421875 L 67.851562 49.429688 L 67.804688 49.4375 L 67.746094 49.445312 L 67.699219 49.449219 L 67.644531 49.460938 L 67.597656 49.46875 L 67.539062 49.476562 L 67.496094 49.484375 L 67.398438 49.503906 L 67.351562 49.511719 L 67.300781 49.523438 L 67.246094 49.535156 L 67.199219 49.542969 L 67.148438 49.554688 L 67.101562 49.566406 L 67.046875 49.578125 L 67 49.589844 L 66.949219 49.601562 L 66.902344 49.613281 L 66.851562 49.628906 L 66.804688 49.640625 L 66.753906 49.652344 L 66.707031 49.667969 L 66.65625 49.679688 L 66.613281 49.695312 L 66.558594 49.710938 L 66.515625 49.722656 L 66.460938 49.738281 L 66.417969 49.753906 L 66.367188 49.769531 L 66.324219 49.785156 L 66.269531 49.800781 L 66.230469 49.816406 L 66.175781 49.835938 L 66.136719 49.847656 L 66.082031 49.867188 L 65.988281 49.902344 L 65.941406 49.921875 L 65.914062 49.933594 C 66.402344 48.367188 66.667969 46.699219 66.667969 44.972656 C 66.667969 35.773438 59.199219 28.308594 50 28.308594 C 40.800781 28.308594 33.332031 35.773438 33.332031 44.972656 C 33.332031 46.699219 33.597656 48.367188 34.085938 49.933594 L 34.058594 49.921875 L 34.011719 49.902344 L 33.917969 49.867188 L 33.863281 49.847656 L 33.824219 49.835938 L 33.769531 49.816406 L 33.730469 49.800781 L 33.675781 49.785156 L 33.632812 49.769531 L 33.582031 49.753906 L 33.539062 49.738281 L 33.484375 49.722656 L 33.441406 49.710938 L 33.386719 49.695312 L 33.34375 49.679688 L 33.292969 49.667969 L 33.246094 49.652344 L 33.195312 49.640625 L 33.148438 49.628906 L 33.097656 49.613281 L 33.050781 49.601562 L 33 49.589844 L 32.953125 49.578125 L 32.898438 49.566406 L 32.851562 49.554688 L 32.800781 49.542969 L 32.753906 49.535156 L 32.699219 49.523438 L 32.648438 49.511719 L 32.601562 49.503906 L 32.503906 49.484375 L 32.460938 49.476562 L 32.402344 49.46875 L 32.355469 49.460938 L 32.300781 49.449219 L 32.253906 49.445312 L 32.195312 49.4375 L 32.148438 49.429688 L 32.09375 49.421875 L 32.046875 49.417969 L 31.992188 49.410156 L 31.945312 49.402344 L 31.886719 49.398438 L 31.839844 49.394531 L 31.785156 49.386719 L 31.734375 49.382812 L 31.679688 49.378906 L 31.632812 49.375 L 31.574219 49.371094 L 31.527344 49.367188 L 31.46875 49.363281 L 31.421875 49.363281 L 31.363281 49.359375 L 31.316406 49.359375 L 31.253906 49.355469 L 31.210938 49.355469 L 31.140625 49.351562 L 30.855469 49.351562 L 30.78125 49.355469 L 30.738281 49.355469 L 30.671875 49.359375 L 30.625 49.359375 L 30.566406 49.363281 L 30.511719 49.367188 L 30.457031 49.367188 L 30.402344 49.375 L 30.351562 49.375 L 30.289062 49.382812 L 30.242188 49.386719 L 30.179688 49.390625 L 30.136719 49.394531 L 30.070312 49.402344 L 30.03125 49.40625 L 29.925781 49.417969 L 29.855469 49.429688 L 29.820312 49.433594 L 29.746094 49.445312 L 29.714844 49.449219 L 29.640625 49.460938 L 29.609375 49.464844 L 29.535156 49.476562 L 29.507812 49.484375 L 29.429688 49.496094 L 29.402344 49.503906 L 29.328125 49.515625 C 25.449219 50.292969 22.523438 53.722656 22.523438 57.828125 C 22.523438 62.507812 26.320312 66.308594 31 66.308594 Z M 31 66.308594 "/>
<path style="fill-rule:evenodd;fill:rgb(30.19608%,30.19608%,30.19608%);fill-opacity:1;stroke-width:4.36;stroke-linecap:round;stroke-linejoin:round;stroke:rgb(100%,100%,100%);stroke-opacity:1;stroke-miterlimit:1.5;" d="M 80.99435 108.998539 C 82.233571 98.74433 96.505034 84.173275 103.994828 85.003961 C 111.49824 85.834648 126.614007 108.440209 126.001205 115.998092 C 125.238608 125.353526 117.653489 126.810632 112.002099 129.003099 C 110.150077 129.711225 106.990746 131.72666 110.994381 141.994487 C 116.46874 156.02083 134.239979 175.902829 142.00213 177.999971 C 153.699827 181.159303 149.76428 177.564202 154.993518 171.994518 C 159.528248 167.187432 163.055261 165.498824 167.004425 166.996783 C 174.003978 169.665873 192.660375 188.499301 192.00672 196.002713 C 191.339448 203.506126 173.554591 215.231058 163.000789 212.003638 C 148.838269 207.673175 120.663025 187.164756 107.004363 170.006318 C 93.332084 152.834263 79.278507 123.256384 80.99435 108.998539 Z M 80.99435 108.998539 " transform="matrix(0.286849,0,0,0.286849,18.196566,15.245633)"/>
</g>
</svg>
