<?xml version="1.0" encoding="UTF-8"?>
<svg xmlns="http://www.w3.org/2000/svg" xmlns:xlink="http://www.w3.org/1999/xlink" width="100" height="100" viewBox="0 0 100 100" version="1.1">
<g id="surface1">
<path style=" stroke:none;fill-rule:evenodd;fill:rgb(100%,99.607843%,99.607843%);fill-opacity:1;" d="M 100 10.089844 C 100 4.519531 95.480469 0 89.910156 0 L 10.089844 0 C 4.519531 0 0 4.519531 0 10.089844 L 0 89.910156 C 0 95.480469 4.519531 100 10.089844 100 L 89.910156 100 C 95.480469 100 100 95.480469 100 89.910156 Z M 100 10.089844 "/>
<path style=" stroke:none;fill-rule:evenodd;fill:rgb(30.19608%,30.19608%,30.19608%);fill-opacity:1;" d="M 100 10.089844 C 100 4.519531 95.480469 0 89.910156 0 L 10.089844 0 C 4.519531 0 0 4.519531 0 10.089844 L 0 89.910156 C 0 95.480469 4.519531 100 10.089844 100 L 89.910156 100 C 95.480469 100 100 95.480469 100 89.910156 Z M 94.667969 10.089844 L 94.667969 89.910156 C 94.667969 92.535156 92.535156 94.667969 89.910156 94.667969 C 89.910156 94.667969 10.089844 94.667969 10.089844 94.667969 C 7.464844 94.667969 5.332031 92.535156 5.332031 89.910156 L 5.332031 10.089844 C 5.332031 7.464844 7.464844 5.332031 10.089844 5.332031 L 89.910156 5.332031 C 92.535156 5.332031 94.667969 7.464844 94.667969 10.089844 Z M 94.667969 10.089844 "/>
<path style="fill-rule:evenodd;fill:rgb(30.19608%,30.19608%,30.19608%);fill-opacity:1;stroke-width:0.21;stroke-linecap:round;stroke-linejoin:round;stroke:rgb(0%,0%,0%);stroke-opacity:1;stroke-miterlimit:1.5;" d="M 260.003139 53.010878 C 260.003139 45.837713 255.099812 39.998188 249.065785 39.998188 L 130.929321 39.998188 C 124.895294 39.998188 120.00284 45.837713 120.00284 53.010878 L 120.00284 226.979542 C 120.00284 234.165654 124.895294 240.00518 130.929321 240.00518 L 249.065785 240.00518 C 255.099812 240.00518 260.003139 234.165654 260.003139 226.979542 Z M 260.003139 53.010878 " transform="matrix(0.359291,0,0,0.301689,-15.397134,4.6205)"/>
<path style="fill-rule:evenodd;fill:rgb(100%,100%,100%);fill-opacity:1;stroke-width:0.2;stroke-linecap:round;stroke-linejoin:round;stroke:rgb(0%,0%,0%);stroke-opacity:1;stroke-miterlimit:1.5;" d="M 139.997069 60.002227 L 240.005238 60.002227 L 240.005238 119.996704 L 139.997069 119.996704 Z M 139.997069 60.002227 " transform="matrix(0.294156,0,0,0.402251,1.53782,-1.413273)"/>
<path style="fill-rule:evenodd;fill:rgb(100%,100%,100%);fill-opacity:1;stroke-width:0.23;stroke-linecap:round;stroke-linejoin:round;stroke:rgb(0%,0%,0%);stroke-opacity:1;stroke-miterlimit:1.5;" d="M 159.996047 142.498748 C 159.996047 141.126265 158.854007 139.999793 157.433097 139.999793 L 142.560019 139.999793 C 141.152388 139.999793 139.997069 141.126265 139.997069 142.498748 L 139.997069 147.496657 C 139.997069 148.882088 141.152388 149.995611 142.560019 149.995611 L 157.433097 149.995611 C 158.854007 149.995611 159.996047 148.882088 159.996047 147.496657 Z M 159.996047 142.498748 " transform="matrix(0.294156,0,0,0.301689,1.53782,10.654273)"/>
<path style="fill-rule:evenodd;fill:rgb(100%,100%,100%);fill-opacity:1;stroke-width:0.23;stroke-linecap:round;stroke-linejoin:round;stroke:rgb(0%,0%,0%);stroke-opacity:1;stroke-miterlimit:1.5;" d="M 159.994002 142.498748 C 159.994002 141.126265 158.851963 139.999793 157.431052 139.999793 L 142.557975 139.999793 C 141.150344 139.999793 139.995024 141.126265 139.995024 142.498748 L 139.995024 147.496657 C 139.995024 148.882088 141.150344 149.995611 142.557975 149.995611 L 157.431052 149.995611 C 158.851963 149.995611 159.994002 148.882088 159.994002 147.496657 Z M 159.994002 142.498748 " transform="matrix(0.294156,0,0,0.301689,13.304047,10.654273)"/>
<path style="fill-rule:evenodd;fill:rgb(100%,100%,100%);fill-opacity:1;stroke-width:0.23;stroke-linecap:round;stroke-linejoin:round;stroke:rgb(0%,0%,0%);stroke-opacity:1;stroke-miterlimit:1.5;" d="M 160.005238 142.498748 C 160.005238 141.126265 158.849918 139.999793 157.442288 139.999793 L 142.56921 139.999793 C 141.1483 139.999793 140.00626 141.126265 140.00626 142.498748 L 140.00626 147.496657 C 140.00626 148.882088 141.1483 149.995611 142.56921 149.995611 L 157.442288 149.995611 C 158.849918 149.995611 160.005238 148.882088 160.005238 147.496657 Z M 160.005238 142.498748 " transform="matrix(0.294156,0,0,0.301689,25.070273,10.654273)"/>
<path style="fill-rule:evenodd;fill:rgb(100%,100%,100%);fill-opacity:1;stroke-width:0.23;stroke-linecap:round;stroke-linejoin:round;stroke:rgb(0%,0%,0%);stroke-opacity:1;stroke-miterlimit:1.5;" d="M 159.996047 142.503332 C 159.996047 141.117901 158.854007 140.004377 157.433097 140.004377 L 142.560019 140.004377 C 141.152388 140.004377 139.997069 141.117901 139.997069 142.503332 L 139.997069 147.50124 C 139.997069 148.873723 141.152388 150.000195 142.560019 150.000195 L 157.433097 150.000195 C 158.854007 150.000195 159.996047 148.873723 159.996047 147.50124 Z M 159.996047 142.503332 " transform="matrix(0.294156,0,0,0.301689,1.53782,16.688047)"/>
<path style="fill-rule:evenodd;fill:rgb(100%,100%,100%);fill-opacity:1;stroke-width:0.23;stroke-linecap:round;stroke-linejoin:round;stroke:rgb(0%,0%,0%);stroke-opacity:1;stroke-miterlimit:1.5;" d="M 159.994002 142.503332 C 159.994002 141.117901 158.851963 140.004377 157.431052 140.004377 L 142.557975 140.004377 C 141.150344 140.004377 139.995024 141.117901 139.995024 142.503332 L 139.995024 147.50124 C 139.995024 148.873723 141.150344 150.000195 142.557975 150.000195 L 157.431052 150.000195 C 158.851963 150.000195 159.994002 148.873723 159.994002 147.50124 Z M 159.994002 142.503332 " transform="matrix(0.294156,0,0,0.301689,13.304047,16.688047)"/>
<path style="fill-rule:evenodd;fill:rgb(100%,100%,100%);fill-opacity:1;stroke-width:0.23;stroke-linecap:round;stroke-linejoin:round;stroke:rgb(0%,0%,0%);stroke-opacity:1;stroke-miterlimit:1.5;" d="M 160.005238 142.503332 C 160.005238 141.117901 158.849918 140.004377 157.442288 140.004377 L 142.56921 140.004377 C 141.1483 140.004377 140.00626 141.117901 140.00626 142.503332 L 140.00626 147.50124 C 140.00626 148.873723 141.1483 150.000195 142.56921 150.000195 L 157.442288 150.000195 C 158.849918 150.000195 160.005238 148.873723 160.005238 147.50124 Z M 160.005238 142.503332 " transform="matrix(0.294156,0,0,0.301689,25.070273,16.688047)"/>
<path style="fill-rule:evenodd;fill:rgb(100%,100%,100%);fill-opacity:1;stroke-width:0.23;stroke-linecap:round;stroke-linejoin:round;stroke:rgb(0%,0%,0%);stroke-opacity:1;stroke-miterlimit:1.5;" d="M 159.996047 142.494967 C 159.996047 141.122484 158.854007 139.996013 157.433097 139.996013 L 142.560019 139.996013 C 141.152388 139.996013 139.997069 141.122484 139.997069 142.494967 L 139.997069 147.505824 C 139.997069 148.878307 141.152388 150.004779 142.560019 150.004779 L 157.433097 150.004779 C 158.854007 150.004779 159.996047 148.878307 159.996047 147.505824 Z M 159.996047 142.494967 " transform="matrix(0.294156,0,0,0.301689,1.53782,22.72182)"/>
<path style="fill-rule:evenodd;fill:rgb(100%,100%,100%);fill-opacity:1;stroke-width:0.23;stroke-linecap:round;stroke-linejoin:round;stroke:rgb(0%,0%,0%);stroke-opacity:1;stroke-miterlimit:1.5;" d="M 159.994002 142.494967 C 159.994002 141.122484 158.851963 139.996013 157.431052 139.996013 L 142.557975 139.996013 C 141.150344 139.996013 139.995024 141.122484 139.995024 142.494967 L 139.995024 147.505824 C 139.995024 148.878307 141.150344 150.004779 142.557975 150.004779 L 157.431052 150.004779 C 158.851963 150.004779 159.994002 148.878307 159.994002 147.505824 Z M 159.994002 142.494967 " transform="matrix(0.294156,0,0,0.301689,13.304047,22.72182)"/>
<path style="fill-rule:evenodd;fill:rgb(100%,100%,100%);fill-opacity:1;stroke-width:0.23;stroke-linecap:round;stroke-linejoin:round;stroke:rgb(0%,0%,0%);stroke-opacity:1;stroke-miterlimit:1.5;" d="M 160.005238 142.494967 C 160.005238 141.122484 158.849918 139.996013 157.442288 139.996013 L 142.56921 139.996013 C 141.1483 139.996013 140.00626 141.122484 140.00626 142.494967 L 140.00626 147.505824 C 140.00626 148.878307 141.1483 150.004779 142.56921 150.004779 L 157.442288 150.004779 C 158.849918 150.004779 160.005238 148.878307 160.005238 147.505824 Z M 160.005238 142.494967 " transform="matrix(0.294156,0,0,0.301689,25.070273,22.72182)"/>
<path style="fill-rule:evenodd;fill:rgb(30.19608%,30.19608%,30.19608%);fill-opacity:1;stroke-width:2.56;stroke-linecap:round;stroke-linejoin:round;stroke:rgb(100%,100%,100%);stroke-opacity:1;stroke-miterlimit:1.5;" d="M 59.506595 40.011136 C 74.167201 40.270095 85.999265 52.259897 85.999265 66.994665 C 85.999265 69.532463 85.653997 71.992573 84.990021 74.310257 C 83.064488 88.824909 79.000951 121.466693 79.000951 139.99521 C 79.000951 158.523727 83.064488 191.16551 84.990021 205.680163 C 85.653997 208.010794 85.999265 210.470905 85.999265 212.995755 C 85.999265 227.730523 74.167201 239.733273 59.506595 239.992232 L 59.506595 240.00518 C 59.413639 240.00518 59.333961 240.00518 59.254284 240.00518 C 59.161327 240.00518 59.08165 240.00518 59.001973 240.00518 L 59.001973 239.992232 C 44.328088 239.733273 32.496024 227.730523 32.496024 212.995755 C 32.496024 210.470905 32.854571 208.010794 33.505268 205.680163 C 35.44408 191.16551 39.494338 158.523727 39.494338 139.99521 C 39.494338 121.466693 35.44408 88.824909 33.505268 74.310257 C 32.854571 71.992573 32.496024 69.532463 32.496024 66.994665 C 32.496024 52.259897 44.328088 40.270095 59.001973 40.011136 L 59.001973 39.998188 C 59.08165 39.998188 59.161327 39.998188 59.254284 39.998188 C 59.333961 39.998188 59.413639 39.998188 59.506595 39.998188 Z M 59.506595 40.011136 " transform="matrix(0.294156,0,0,0.301689,12.42158,4.6205)"/>
<path style=" stroke:none;fill-rule:evenodd;fill:rgb(30.19608%,30.19608%,30.19608%);fill-opacity:1;" d="M 41.585938 76.0625 L 41.585938 81.328125 C 41.585938 84.921875 38.742188 87.839844 35.234375 87.839844 C 31.730469 87.839844 28.886719 84.921875 28.886719 81.328125 L 28.886719 76.0625 L 30.113281 76.0625 L 30.113281 81.328125 C 30.113281 84.230469 32.410156 86.582031 35.234375 86.582031 C 38.0625 86.582031 40.359375 84.230469 40.359375 81.328125 L 40.359375 76.0625 Z M 41.585938 76.0625 "/>
</g>
</svg>
