<?xml version="1.0" encoding="UTF-8"?>
<svg xmlns="http://www.w3.org/2000/svg" xmlns:xlink="http://www.w3.org/1999/xlink" width="100" height="100" viewBox="0 0 100 100" version="1.1">
<g id="surface1">
<path style=" stroke:none;fill-rule:evenodd;fill:rgb(100%,99.607843%,99.607843%);fill-opacity:1;" d="M 100 10.089844 C 100 4.519531 95.480469 0 89.910156 0 L 10.089844 0 C 4.519531 0 0 4.519531 0 10.089844 L 0 89.910156 C 0 95.480469 4.519531 100 10.089844 100 L 89.910156 100 C 95.480469 100 100 95.480469 100 89.910156 Z M 100 10.089844 "/>
<path style=" stroke:none;fill-rule:evenodd;fill:rgb(30.19608%,30.19608%,30.19608%);fill-opacity:1;" d="M 100 10.089844 C 100 4.519531 95.480469 0 89.910156 0 L 10.089844 0 C 4.519531 0 0 4.519531 0 10.089844 L 0 89.910156 C 0 95.480469 4.519531 100 10.089844 100 L 89.910156 100 C 95.480469 100 100 95.480469 100 89.910156 Z M 94.667969 10.089844 L 94.667969 89.910156 C 94.667969 92.535156 92.535156 94.667969 89.910156 94.667969 C 89.910156 94.667969 10.089844 94.667969 10.089844 94.667969 C 7.464844 94.667969 5.332031 92.535156 5.332031 89.910156 L 5.332031 10.089844 C 5.332031 7.464844 7.464844 5.332031 10.089844 5.332031 L 89.910156 5.332031 C 92.535156 5.332031 94.667969 7.464844 94.667969 10.089844 Z M 94.667969 10.089844 "/>
<path style=" stroke:none;fill-rule:evenodd;fill:rgb(30.19608%,30.19608%,30.19608%);fill-opacity:1;" d="M 59.386719 53.5625 L 72.371094 66.550781 L 72.371094 55.921875 L 80.503906 64.085938 L 80.503906 80.453125 L 64.171875 80.453125 L 55.996094 72.277344 L 66.65625 72.277344 L 53.699219 59.320312 Z M 64.628906 29.695312 L 77.585938 16.738281 L 83.34375 22.425781 L 70.355469 35.414062 L 80.984375 35.414062 L 72.820312 43.542969 L 56.453125 43.542969 L 56.453125 27.210938 L 64.628906 19.035156 Z M 43.578125 72.820312 L 35.402344 80.996094 L 35.402344 70.335938 L 22.445312 83.292969 L 16.6875 77.605469 L 29.675781 64.617188 L 19.046875 64.617188 L 27.210938 56.488281 L 43.578125 56.488281 Z M 40.699219 46.351562 L 27.710938 33.367188 L 27.710938 43.992188 L 19.582031 35.828125 L 19.582031 19.460938 L 35.914062 19.460938 L 44.089844 27.636719 L 33.429688 27.636719 L 46.386719 40.59375 Z M 40.699219 46.351562 "/>
</g>
</svg>
