<?xml version="1.0" encoding="UTF-8"?>
<svg xmlns="http://www.w3.org/2000/svg" xmlns:xlink="http://www.w3.org/1999/xlink" width="100" height="100" viewBox="0 0 100 100" version="1.1">
<g id="surface1">
<path style=" stroke:none;fill-rule:evenodd;fill:rgb(100%,99.607843%,99.607843%);fill-opacity:1;" d="M 100 10.089844 C 100 4.519531 95.480469 0 89.910156 0 L 10.089844 0 C 4.519531 0 0 4.519531 0 10.089844 L 0 89.910156 C 0 95.480469 4.519531 100 10.089844 100 L 89.910156 100 C 95.480469 100 100 95.480469 100 89.910156 Z M 100 10.089844 "/>
<path style=" stroke:none;fill-rule:evenodd;fill:rgb(30.19608%,30.19608%,30.19608%);fill-opacity:1;" d="M 89.976562 0 L 90.039062 0 L 90.171875 0.00390625 L 90.234375 0.00390625 L 90.300781 0.0078125 L 90.363281 0.0117188 L 90.429688 0.0117188 L 90.558594 0.0195312 L 90.621094 0.0234375 L 90.6875 0.03125 L 90.8125 0.0390625 L 90.878906 0.046875 L 90.941406 0.0507812 L 91.003906 0.0585938 L 91.132812 0.0742188 L 91.382812 0.105469 L 91.445312 0.117188 L 91.507812 0.125 L 91.632812 0.148438 L 91.695312 0.15625 L 91.820312 0.179688 L 91.878906 0.191406 L 91.941406 0.203125 L 92.066406 0.230469 L 92.125 0.246094 L 92.1875 0.257812 L 92.25 0.273438 L 92.308594 0.289062 L 92.429688 0.316406 L 92.492188 0.332031 L 92.550781 0.351562 L 92.609375 0.367188 L 92.671875 0.382812 L 92.730469 0.398438 L 92.789062 0.417969 L 92.851562 0.4375 L 92.910156 0.453125 L 93.320312 0.589844 L 93.378906 0.613281 L 93.4375 0.632812 L 93.492188 0.65625 L 93.550781 0.679688 L 93.609375 0.699219 L 93.664062 0.722656 L 93.722656 0.746094 L 93.777344 0.769531 L 93.835938 0.792969 L 93.890625 0.816406 L 93.949219 0.84375 L 94.003906 0.867188 L 94.0625 0.890625 L 94.117188 0.917969 L 94.171875 0.941406 L 94.335938 1.023438 L 94.394531 1.050781 L 94.449219 1.078125 L 94.5 1.105469 L 94.609375 1.160156 L 94.664062 1.191406 L 94.71875 1.21875 L 94.769531 1.246094 L 94.878906 1.308594 L 94.929688 1.335938 L 95.035156 1.398438 L 95.089844 1.429688 L 95.242188 1.523438 L 95.347656 1.589844 L 95.449219 1.65625 L 95.5 1.691406 L 95.601562 1.757812 L 95.648438 1.792969 L 95.75 1.863281 L 95.796875 1.898438 L 95.898438 1.96875 L 95.945312 2.003906 L 95.992188 2.042969 L 96.042969 2.078125 L 96.089844 2.117188 L 96.136719 2.152344 L 96.183594 2.191406 L 96.234375 2.230469 L 96.328125 2.304688 L 96.371094 2.34375 L 96.558594 2.5 L 96.601562 2.542969 L 96.648438 2.582031 L 96.691406 2.621094 L 96.738281 2.664062 L 96.78125 2.703125 L 96.824219 2.746094 L 96.871094 2.789062 L 96.914062 2.828125 L 97.171875 3.085938 L 97.210938 3.128906 L 97.253906 3.175781 L 97.296875 3.21875 L 97.335938 3.261719 L 97.378906 3.308594 L 97.417969 3.351562 L 97.457031 3.398438 L 97.5 3.441406 L 97.65625 3.628906 L 97.695312 3.671875 L 97.769531 3.765625 L 97.808594 3.816406 L 97.847656 3.863281 L 97.882812 3.910156 L 97.921875 3.957031 L 97.957031 4.007812 L 97.996094 4.054688 L 98.03125 4.101562 L 98.101562 4.203125 L 98.136719 4.25 L 98.207031 4.351562 L 98.242188 4.398438 L 98.308594 4.5 L 98.34375 4.550781 L 98.410156 4.652344 L 98.476562 4.757812 L 98.570312 4.910156 L 98.601562 4.964844 L 98.664062 5.070312 L 98.691406 5.121094 L 98.753906 5.230469 L 98.78125 5.28125 L 98.808594 5.335938 L 98.839844 5.390625 L 98.894531 5.5 L 98.921875 5.550781 L 98.949219 5.605469 L 98.976562 5.664062 L 99.058594 5.828125 L 99.082031 5.882812 L 99.109375 5.9375 L 99.132812 5.996094 L 99.15625 6.050781 L 99.183594 6.109375 L 99.207031 6.164062 L 99.230469 6.222656 L 99.253906 6.277344 L 99.277344 6.335938 L 99.300781 6.390625 L 99.320312 6.449219 L 99.34375 6.507812 L 99.367188 6.5625 L 99.386719 6.621094 L 99.410156 6.679688 L 99.546875 7.089844 L 99.5625 7.148438 L 99.582031 7.210938 L 99.601562 7.269531 L 99.617188 7.328125 L 99.632812 7.390625 L 99.648438 7.449219 L 99.667969 7.507812 L 99.683594 7.570312 L 99.710938 7.691406 L 99.726562 7.75 L 99.742188 7.8125 L 99.753906 7.875 L 99.769531 7.933594 L 99.796875 8.058594 L 99.808594 8.121094 L 99.820312 8.179688 L 99.84375 8.304688 L 99.851562 8.367188 L 99.875 8.492188 L 99.882812 8.554688 L 99.894531 8.617188 L 99.925781 8.867188 L 99.941406 8.996094 L 99.949219 9.058594 L 99.953125 9.121094 L 99.960938 9.1875 L 99.96875 9.3125 L 99.976562 9.378906 L 99.980469 9.441406 L 99.988281 9.570312 L 99.988281 9.636719 L 99.992188 9.699219 L 99.996094 9.765625 L 99.996094 9.828125 L 100 9.960938 L 100 90.039062 L 99.996094 90.105469 L 99.996094 90.234375 L 99.992188 90.300781 L 99.988281 90.363281 L 99.988281 90.429688 L 99.984375 90.492188 L 99.980469 90.558594 L 99.976562 90.621094 L 99.96875 90.6875 L 99.960938 90.8125 L 99.953125 90.878906 L 99.949219 90.941406 L 99.933594 91.066406 L 99.925781 91.132812 L 99.894531 91.382812 L 99.882812 91.445312 L 99.875 91.507812 L 99.851562 91.632812 L 99.84375 91.695312 L 99.820312 91.820312 L 99.808594 91.878906 L 99.796875 91.941406 L 99.78125 92.003906 L 99.769531 92.066406 L 99.753906 92.125 L 99.742188 92.1875 L 99.726562 92.25 L 99.710938 92.308594 L 99.699219 92.371094 L 99.683594 92.429688 L 99.667969 92.492188 L 99.648438 92.550781 L 99.632812 92.609375 L 99.617188 92.671875 L 99.601562 92.730469 L 99.582031 92.789062 L 99.5625 92.851562 L 99.546875 92.910156 L 99.410156 93.320312 L 99.386719 93.378906 L 99.367188 93.4375 L 99.34375 93.492188 L 99.320312 93.550781 L 99.300781 93.609375 L 99.277344 93.664062 L 99.253906 93.722656 L 99.230469 93.777344 L 99.207031 93.835938 L 99.183594 93.890625 L 99.15625 93.949219 L 99.132812 94.003906 L 99.109375 94.0625 L 99.082031 94.117188 L 99.058594 94.171875 L 98.976562 94.335938 L 98.949219 94.394531 L 98.921875 94.449219 L 98.894531 94.5 L 98.839844 94.609375 L 98.808594 94.664062 L 98.78125 94.71875 L 98.753906 94.769531 L 98.691406 94.878906 L 98.664062 94.929688 L 98.632812 94.984375 L 98.601562 95.035156 L 98.570312 95.089844 L 98.476562 95.242188 L 98.441406 95.296875 L 98.410156 95.347656 L 98.375 95.398438 L 98.34375 95.449219 L 98.308594 95.5 L 98.277344 95.550781 L 98.242188 95.601562 L 98.207031 95.648438 L 98.136719 95.75 L 98.101562 95.796875 L 98.03125 95.898438 L 97.996094 95.945312 L 97.957031 95.992188 L 97.921875 96.042969 L 97.882812 96.089844 L 97.847656 96.136719 L 97.808594 96.183594 L 97.769531 96.234375 L 97.734375 96.28125 L 97.695312 96.328125 L 97.65625 96.371094 L 97.5 96.558594 L 97.457031 96.601562 L 97.417969 96.648438 L 97.378906 96.691406 L 97.335938 96.738281 L 97.296875 96.78125 L 97.253906 96.824219 L 97.210938 96.871094 L 97.171875 96.914062 L 96.914062 97.171875 L 96.871094 97.210938 L 96.824219 97.253906 L 96.78125 97.296875 L 96.738281 97.335938 L 96.691406 97.378906 L 96.648438 97.417969 L 96.601562 97.457031 L 96.558594 97.5 L 96.371094 97.65625 L 96.328125 97.695312 L 96.28125 97.734375 L 96.234375 97.769531 L 96.183594 97.808594 L 96.136719 97.847656 L 96.089844 97.882812 L 96.042969 97.921875 L 95.992188 97.957031 L 95.945312 97.996094 L 95.898438 98.03125 L 95.796875 98.101562 L 95.75 98.136719 L 95.648438 98.207031 L 95.601562 98.242188 L 95.550781 98.277344 L 95.5 98.308594 L 95.449219 98.34375 L 95.398438 98.375 L 95.347656 98.410156 L 95.296875 98.441406 L 95.242188 98.476562 L 95.089844 98.570312 L 95.035156 98.601562 L 94.984375 98.632812 L 94.929688 98.664062 L 94.878906 98.691406 L 94.769531 98.753906 L 94.71875 98.78125 L 94.664062 98.808594 L 94.609375 98.839844 L 94.5 98.894531 L 94.449219 98.921875 L 94.394531 98.949219 L 94.335938 98.976562 L 94.171875 99.058594 L 94.117188 99.082031 L 94.0625 99.109375 L 94.003906 99.132812 L 93.949219 99.15625 L 93.890625 99.183594 L 93.835938 99.207031 L 93.777344 99.230469 L 93.722656 99.253906 L 93.664062 99.277344 L 93.609375 99.300781 L 93.550781 99.320312 L 93.492188 99.34375 L 93.4375 99.367188 L 93.378906 99.386719 L 93.320312 99.410156 L 92.910156 99.546875 L 92.851562 99.5625 L 92.789062 99.582031 L 92.730469 99.601562 L 92.671875 99.617188 L 92.609375 99.632812 L 92.550781 99.648438 L 92.492188 99.667969 L 92.429688 99.683594 L 92.371094 99.699219 L 92.308594 99.710938 L 92.25 99.726562 L 92.1875 99.742188 L 92.125 99.753906 L 92.066406 99.769531 L 92.003906 99.78125 L 91.941406 99.796875 L 91.878906 99.808594 L 91.820312 99.820312 L 91.695312 99.84375 L 91.632812 99.851562 L 91.507812 99.875 L 91.445312 99.882812 L 91.382812 99.894531 L 91.132812 99.925781 L 91.066406 99.933594 L 90.941406 99.949219 L 90.878906 99.953125 L 90.8125 99.960938 L 90.6875 99.96875 L 90.621094 99.976562 L 90.558594 99.980469 L 90.492188 99.984375 L 90.429688 99.988281 L 90.363281 99.988281 L 90.300781 99.992188 L 90.234375 99.996094 L 90.105469 99.996094 L 90.039062 100 L 9.960938 100 L 9.894531 99.996094 L 9.765625 99.996094 L 9.699219 99.992188 L 9.636719 99.988281 L 9.570312 99.988281 L 9.507812 99.984375 L 9.441406 99.980469 L 9.378906 99.976562 L 9.3125 99.96875 L 9.1875 99.960938 L 9.121094 99.953125 L 9.058594 99.949219 L 8.933594 99.933594 L 8.867188 99.925781 L 8.617188 99.894531 L 8.554688 99.882812 L 8.492188 99.875 L 8.367188 99.851562 L 8.304688 99.84375 L 8.179688 99.820312 L 8.121094 99.808594 L 8.058594 99.796875 L 7.996094 99.78125 L 7.933594 99.769531 L 7.875 99.753906 L 7.8125 99.742188 L 7.75 99.726562 L 7.691406 99.710938 L 7.628906 99.699219 L 7.570312 99.683594 L 7.507812 99.667969 L 7.449219 99.648438 L 7.390625 99.632812 L 7.328125 99.617188 L 7.269531 99.601562 L 7.210938 99.582031 L 7.148438 99.5625 L 7.089844 99.546875 L 6.679688 99.410156 L 6.621094 99.386719 L 6.5625 99.367188 L 6.507812 99.34375 L 6.449219 99.320312 L 6.390625 99.300781 L 6.335938 99.277344 L 6.277344 99.253906 L 6.222656 99.230469 L 6.164062 99.207031 L 6.109375 99.183594 L 6.050781 99.15625 L 5.996094 99.132812 L 5.9375 99.109375 L 5.882812 99.082031 L 5.828125 99.058594 L 5.664062 98.976562 L 5.605469 98.949219 L 5.550781 98.921875 L 5.5 98.894531 L 5.390625 98.839844 L 5.335938 98.808594 L 5.28125 98.78125 L 5.230469 98.753906 L 5.121094 98.691406 L 5.070312 98.664062 L 5.015625 98.632812 L 4.964844 98.601562 L 4.910156 98.570312 L 4.757812 98.476562 L 4.703125 98.441406 L 4.652344 98.410156 L 4.601562 98.375 L 4.550781 98.34375 L 4.5 98.308594 L 4.449219 98.277344 L 4.398438 98.242188 L 4.351562 98.207031 L 4.25 98.136719 L 4.203125 98.101562 L 4.101562 98.03125 L 4.054688 97.996094 L 4.007812 97.957031 L 3.957031 97.921875 L 3.910156 97.882812 L 3.863281 97.847656 L 3.816406 97.808594 L 3.765625 97.769531 L 3.71875 97.734375 L 3.671875 97.695312 L 3.628906 97.65625 L 3.441406 97.5 L 3.398438 97.457031 L 3.351562 97.417969 L 3.308594 97.378906 L 3.261719 97.335938 L 3.21875 97.296875 L 3.175781 97.253906 L 3.128906 97.210938 L 3.085938 97.171875 L 2.828125 96.914062 L 2.789062 96.871094 L 2.746094 96.824219 L 2.703125 96.78125 L 2.664062 96.738281 L 2.621094 96.691406 L 2.582031 96.648438 L 2.542969 96.601562 L 2.5 96.558594 L 2.34375 96.371094 L 2.304688 96.328125 L 2.265625 96.28125 L 2.230469 96.234375 L 2.191406 96.183594 L 2.152344 96.136719 L 2.117188 96.089844 L 2.078125 96.042969 L 2.042969 95.992188 L 2.003906 95.945312 L 1.96875 95.898438 L 1.898438 95.796875 L 1.863281 95.75 L 1.792969 95.648438 L 1.757812 95.601562 L 1.722656 95.550781 L 1.691406 95.5 L 1.65625 95.449219 L 1.625 95.398438 L 1.589844 95.347656 L 1.558594 95.296875 L 1.523438 95.242188 L 1.429688 95.089844 L 1.398438 95.035156 L 1.367188 94.984375 L 1.335938 94.929688 L 1.308594 94.878906 L 1.246094 94.769531 L 1.21875 94.71875 L 1.191406 94.664062 L 1.160156 94.609375 L 1.105469 94.5 L 1.078125 94.449219 L 1.050781 94.394531 L 1.023438 94.335938 L 0.941406 94.171875 L 0.917969 94.117188 L 0.890625 94.0625 L 0.867188 94.003906 L 0.84375 93.949219 L 0.816406 93.890625 L 0.792969 93.835938 L 0.769531 93.777344 L 0.746094 93.722656 L 0.722656 93.664062 L 0.699219 93.609375 L 0.679688 93.550781 L 0.65625 93.492188 L 0.632812 93.4375 L 0.613281 93.378906 L 0.589844 93.320312 L 0.453125 92.910156 L 0.4375 92.851562 L 0.417969 92.789062 L 0.398438 92.730469 L 0.382812 92.671875 L 0.367188 92.609375 L 0.351562 92.550781 L 0.332031 92.492188 L 0.316406 92.429688 L 0.300781 92.371094 L 0.289062 92.308594 L 0.273438 92.25 L 0.257812 92.1875 L 0.246094 92.125 L 0.230469 92.066406 L 0.21875 92.003906 L 0.203125 91.941406 L 0.191406 91.878906 L 0.179688 91.820312 L 0.15625 91.695312 L 0.148438 91.632812 L 0.125 91.507812 L 0.117188 91.445312 L 0.105469 91.382812 L 0.0742188 91.132812 L 0.0664062 91.066406 L 0.0507812 90.941406 L 0.046875 90.878906 L 0.0390625 90.8125 L 0.03125 90.6875 L 0.0234375 90.621094 L 0.0195312 90.558594 L 0.015625 90.492188 L 0.0117188 90.429688 L 0.0117188 90.363281 L 0.0078125 90.300781 L 0.00390625 90.234375 L 0.00390625 90.105469 L 0 90.039062 L 0 9.960938 L 0.00390625 9.894531 L 0.00390625 9.765625 L 0.0078125 9.699219 L 0.0117188 9.636719 L 0.0117188 9.570312 L 0.015625 9.507812 L 0.0195312 9.441406 L 0.0234375 9.378906 L 0.03125 9.3125 L 0.0390625 9.1875 L 0.046875 9.121094 L 0.0507812 9.058594 L 0.0664062 8.933594 L 0.0742188 8.867188 L 0.105469 8.617188 L 0.117188 8.554688 L 0.125 8.492188 L 0.148438 8.367188 L 0.15625 8.304688 L 0.179688 8.179688 L 0.191406 8.121094 L 0.203125 8.058594 L 0.21875 7.996094 L 0.230469 7.933594 L 0.246094 7.875 L 0.257812 7.8125 L 0.273438 7.75 L 0.289062 7.691406 L 0.300781 7.628906 L 0.316406 7.570312 L 0.332031 7.507812 L 0.351562 7.449219 L 0.367188 7.390625 L 0.382812 7.328125 L 0.398438 7.269531 L 0.417969 7.210938 L 0.4375 7.148438 L 0.453125 7.089844 L 0.589844 6.679688 L 0.613281 6.621094 L 0.632812 6.5625 L 0.65625 6.507812 L 0.679688 6.449219 L 0.699219 6.390625 L 0.722656 6.335938 L 0.746094 6.277344 L 0.769531 6.222656 L 0.792969 6.164062 L 0.816406 6.109375 L 0.84375 6.050781 L 0.867188 5.996094 L 0.890625 5.9375 L 0.917969 5.882812 L 0.941406 5.828125 L 1.023438 5.664062 L 1.050781 5.605469 L 1.078125 5.550781 L 1.105469 5.5 L 1.160156 5.390625 L 1.191406 5.335938 L 1.21875 5.28125 L 1.246094 5.230469 L 1.308594 5.121094 L 1.335938 5.070312 L 1.367188 5.015625 L 1.398438 4.964844 L 1.429688 4.910156 L 1.523438 4.757812 L 1.558594 4.703125 L 1.589844 4.652344 L 1.625 4.601562 L 1.65625 4.550781 L 1.691406 4.5 L 1.722656 4.449219 L 1.757812 4.398438 L 1.792969 4.351562 L 1.863281 4.25 L 1.898438 4.203125 L 1.96875 4.101562 L 2.003906 4.054688 L 2.042969 4.007812 L 2.078125 3.957031 L 2.117188 3.910156 L 2.152344 3.863281 L 2.191406 3.816406 L 2.230469 3.765625 L 2.265625 3.71875 L 2.304688 3.671875 L 2.34375 3.628906 L 2.5 3.441406 L 2.542969 3.398438 L 2.582031 3.351562 L 2.621094 3.308594 L 2.664062 3.261719 L 2.703125 3.21875 L 2.746094 3.175781 L 2.789062 3.128906 L 2.828125 3.085938 L 3.085938 2.828125 L 3.128906 2.789062 L 3.175781 2.746094 L 3.21875 2.703125 L 3.261719 2.664062 L 3.308594 2.621094 L 3.351562 2.582031 L 3.398438 2.542969 L 3.441406 2.5 L 3.628906 2.34375 L 3.671875 2.304688 L 3.71875 2.265625 L 3.765625 2.230469 L 3.816406 2.191406 L 3.863281 2.152344 L 3.910156 2.117188 L 3.957031 2.078125 L 4.007812 2.042969 L 4.054688 2.003906 L 4.101562 1.96875 L 4.203125 1.898438 L 4.25 1.863281 L 4.351562 1.792969 L 4.398438 1.757812 L 4.449219 1.722656 L 4.5 1.691406 L 4.550781 1.65625 L 4.601562 1.625 L 4.652344 1.589844 L 4.703125 1.558594 L 4.757812 1.523438 L 4.910156 1.429688 L 4.964844 1.398438 L 5.015625 1.367188 L 5.070312 1.335938 L 5.121094 1.308594 L 5.230469 1.246094 L 5.28125 1.21875 L 5.335938 1.191406 L 5.390625 1.160156 L 5.5 1.105469 L 5.550781 1.078125 L 5.605469 1.050781 L 5.664062 1.023438 L 5.828125 0.941406 L 5.882812 0.917969 L 5.9375 0.890625 L 5.996094 0.867188 L 6.050781 0.84375 L 6.109375 0.816406 L 6.164062 0.792969 L 6.222656 0.769531 L 6.277344 0.746094 L 6.335938 0.722656 L 6.390625 0.699219 L 6.449219 0.679688 L 6.507812 0.65625 L 6.5625 0.632812 L 6.621094 0.613281 L 6.679688 0.589844 L 7.089844 0.453125 L 7.148438 0.4375 L 7.210938 0.417969 L 7.269531 0.398438 L 7.328125 0.382812 L 7.390625 0.367188 L 7.449219 0.351562 L 7.507812 0.332031 L 7.570312 0.316406 L 7.628906 0.300781 L 7.691406 0.289062 L 7.75 0.273438 L 7.8125 0.257812 L 7.875 0.246094 L 7.933594 0.230469 L 7.996094 0.21875 L 8.058594 0.203125 L 8.121094 0.191406 L 8.179688 0.179688 L 8.304688 0.15625 L 8.367188 0.148438 L 8.492188 0.125 L 8.554688 0.117188 L 8.617188 0.105469 L 8.867188 0.0742188 L 8.933594 0.0664062 L 9.058594 0.0507812 L 9.121094 0.046875 L 9.1875 0.0390625 L 9.3125 0.03125 L 9.378906 0.0234375 L 9.441406 0.0195312 L 9.507812 0.015625 L 9.570312 0.0117188 L 9.636719 0.0117188 L 9.699219 0.0078125 L 9.765625 0.00390625 L 9.894531 0.00390625 L 9.960938 0 Z M 10.097656 5.332031 L 10.027344 5.332031 L 9.996094 5.335938 L 9.902344 5.335938 L 9.871094 5.339844 L 9.8125 5.339844 L 9.78125 5.34375 L 9.75 5.34375 L 9.6875 5.351562 L 9.660156 5.351562 L 9.597656 5.359375 L 9.570312 5.363281 L 9.539062 5.363281 L 9.507812 5.367188 L 9.480469 5.371094 L 9.449219 5.375 L 9.421875 5.378906 L 9.359375 5.386719 L 9.332031 5.394531 L 9.300781 5.398438 L 9.273438 5.402344 L 9.242188 5.40625 L 9.214844 5.414062 L 9.1875 5.417969 L 9.15625 5.425781 L 9.128906 5.429688 L 9.097656 5.4375 L 9.070312 5.441406 L 9.042969 5.449219 L 9.011719 5.453125 L 8.929688 5.476562 L 8.898438 5.484375 L 8.871094 5.488281 L 8.789062 5.511719 L 8.757812 5.519531 L 8.730469 5.53125 L 8.621094 5.5625 L 8.59375 5.574219 L 8.539062 5.589844 L 8.511719 5.601562 L 8.484375 5.609375 L 8.457031 5.621094 L 8.429688 5.628906 L 8.375 5.652344 L 8.351562 5.660156 L 8.269531 5.695312 L 8.242188 5.703125 L 8.214844 5.714844 L 8.191406 5.726562 L 8.136719 5.75 L 8.113281 5.761719 L 8.085938 5.773438 L 8.058594 5.789062 L 8.035156 5.800781 L 7.980469 5.824219 L 7.957031 5.839844 L 7.929688 5.851562 L 7.90625 5.863281 L 7.878906 5.878906 L 7.855469 5.890625 L 7.828125 5.90625 L 7.804688 5.917969 L 7.777344 5.933594 L 7.753906 5.945312 L 7.730469 5.960938 L 7.703125 5.976562 L 7.679688 5.988281 L 7.65625 6.003906 L 7.628906 6.019531 L 7.582031 6.050781 L 7.558594 6.0625 L 7.53125 6.078125 L 7.507812 6.09375 L 7.484375 6.113281 L 7.34375 6.207031 L 7.320312 6.226562 L 7.273438 6.257812 L 7.25 6.277344 L 7.226562 6.292969 L 7.203125 6.3125 L 7.179688 6.328125 L 7.15625 6.347656 L 7.136719 6.363281 L 7.113281 6.382812 L 7.089844 6.398438 L 7.070312 6.417969 L 7.023438 6.457031 L 7.003906 6.472656 L 6.980469 6.492188 L 6.960938 6.511719 L 6.914062 6.550781 L 6.875 6.589844 L 6.851562 6.609375 L 6.832031 6.628906 L 6.808594 6.648438 L 6.75 6.707031 L 6.726562 6.726562 L 6.707031 6.75 L 6.648438 6.808594 L 6.628906 6.832031 L 6.609375 6.851562 L 6.589844 6.875 L 6.550781 6.914062 L 6.511719 6.960938 L 6.492188 6.980469 L 6.472656 7.003906 L 6.457031 7.023438 L 6.417969 7.070312 L 6.398438 7.089844 L 6.382812 7.113281 L 6.363281 7.136719 L 6.347656 7.15625 L 6.328125 7.179688 L 6.3125 7.203125 L 6.292969 7.226562 L 6.277344 7.25 L 6.257812 7.273438 L 6.226562 7.320312 L 6.207031 7.34375 L 6.113281 7.484375 L 6.09375 7.507812 L 6.078125 7.53125 L 6.0625 7.558594 L 6.050781 7.582031 L 6.019531 7.628906 L 6.003906 7.65625 L 5.988281 7.679688 L 5.976562 7.703125 L 5.960938 7.730469 L 5.945312 7.753906 L 5.933594 7.777344 L 5.917969 7.804688 L 5.90625 7.828125 L 5.890625 7.855469 L 5.878906 7.878906 L 5.863281 7.90625 L 5.851562 7.929688 L 5.839844 7.957031 L 5.824219 7.980469 L 5.800781 8.035156 L 5.789062 8.058594 L 5.773438 8.085938 L 5.761719 8.113281 L 5.75 8.136719 L 5.726562 8.191406 L 5.714844 8.214844 L 5.703125 8.242188 L 5.695312 8.269531 L 5.660156 8.351562 L 5.652344 8.375 L 5.628906 8.429688 L 5.621094 8.457031 L 5.609375 8.484375 L 5.601562 8.511719 L 5.589844 8.539062 L 5.574219 8.59375 L 5.5625 8.621094 L 5.53125 8.730469 L 5.519531 8.757812 L 5.511719 8.789062 L 5.488281 8.871094 L 5.484375 8.898438 L 5.476562 8.929688 L 5.453125 9.011719 L 5.449219 9.042969 L 5.441406 9.070312 L 5.4375 9.097656 L 5.429688 9.128906 L 5.425781 9.15625 L 5.417969 9.1875 L 5.414062 9.214844 L 5.40625 9.242188 L 5.402344 9.273438 L 5.398438 9.300781 L 5.394531 9.332031 L 5.386719 9.359375 L 5.378906 9.421875 L 5.375 9.449219 L 5.371094 9.480469 L 5.367188 9.507812 L 5.363281 9.539062 L 5.363281 9.570312 L 5.359375 9.597656 L 5.351562 9.660156 L 5.351562 9.6875 L 5.34375 9.75 L 5.34375 9.78125 L 5.339844 9.8125 L 5.339844 9.871094 L 5.335938 9.902344 L 5.335938 9.996094 L 5.332031 10.027344 L 5.332031 89.972656 L 5.335938 90.035156 L 5.335938 90.066406 L 5.339844 90.128906 L 5.339844 90.160156 L 5.34375 90.21875 L 5.34375 90.25 L 5.351562 90.3125 L 5.351562 90.339844 L 5.359375 90.402344 L 5.363281 90.460938 L 5.367188 90.492188 L 5.371094 90.519531 L 5.375 90.550781 L 5.378906 90.578125 L 5.386719 90.640625 L 5.398438 90.699219 L 5.402344 90.726562 L 5.40625 90.757812 L 5.414062 90.785156 L 5.429688 90.871094 L 5.4375 90.902344 L 5.441406 90.929688 L 5.449219 90.957031 L 5.453125 90.988281 L 5.476562 91.070312 L 5.484375 91.101562 L 5.488281 91.128906 L 5.511719 91.210938 L 5.519531 91.242188 L 5.53125 91.269531 L 5.5625 91.378906 L 5.574219 91.40625 L 5.589844 91.460938 L 5.601562 91.488281 L 5.609375 91.515625 L 5.621094 91.542969 L 5.628906 91.570312 L 5.652344 91.625 L 5.660156 91.648438 L 5.671875 91.675781 L 5.703125 91.757812 L 5.714844 91.785156 L 5.726562 91.808594 L 5.75 91.863281 L 5.773438 91.914062 L 5.800781 91.964844 L 5.824219 92.019531 L 5.863281 92.09375 L 5.878906 92.121094 L 5.890625 92.144531 L 5.90625 92.171875 L 5.917969 92.195312 L 5.933594 92.222656 L 5.945312 92.246094 L 5.960938 92.269531 L 5.976562 92.296875 L 5.988281 92.320312 L 6.019531 92.371094 L 6.066406 92.441406 L 6.09375 92.492188 L 6.113281 92.515625 L 6.207031 92.65625 L 6.226562 92.679688 L 6.257812 92.726562 L 6.277344 92.75 L 6.292969 92.773438 L 6.3125 92.796875 L 6.328125 92.820312 L 6.347656 92.84375 L 6.363281 92.863281 L 6.382812 92.886719 L 6.398438 92.910156 L 6.417969 92.933594 L 6.4375 92.953125 L 6.457031 92.976562 L 6.472656 92.996094 L 6.492188 93.019531 L 6.53125 93.0625 L 6.550781 93.085938 L 6.570312 93.105469 L 6.609375 93.148438 L 6.648438 93.1875 L 6.667969 93.210938 L 6.789062 93.332031 L 6.832031 93.371094 L 6.851562 93.390625 L 6.875 93.410156 L 6.914062 93.449219 L 6.9375 93.46875 L 6.980469 93.507812 L 7.003906 93.527344 L 7.023438 93.542969 L 7.070312 93.582031 L 7.089844 93.601562 L 7.113281 93.617188 L 7.136719 93.636719 L 7.15625 93.652344 L 7.203125 93.6875 L 7.226562 93.707031 L 7.25 93.722656 L 7.273438 93.742188 L 7.320312 93.773438 L 7.367188 93.808594 L 7.484375 93.886719 L 7.507812 93.90625 L 7.53125 93.921875 L 7.558594 93.933594 L 7.628906 93.980469 L 7.65625 93.996094 L 7.679688 94.011719 L 7.730469 94.039062 L 7.753906 94.054688 L 7.777344 94.066406 L 7.804688 94.082031 L 7.855469 94.109375 L 7.878906 94.121094 L 7.90625 94.136719 L 7.929688 94.148438 L 7.957031 94.164062 L 8.035156 94.199219 L 8.058594 94.210938 L 8.085938 94.226562 L 8.113281 94.238281 L 8.136719 94.25 L 8.191406 94.273438 L 8.214844 94.285156 L 8.242188 94.296875 L 8.269531 94.304688 L 8.351562 94.339844 L 8.375 94.347656 L 8.429688 94.371094 L 8.457031 94.378906 L 8.484375 94.390625 L 8.511719 94.398438 L 8.539062 94.410156 L 8.59375 94.425781 L 8.621094 94.4375 L 8.730469 94.46875 L 8.757812 94.480469 L 8.789062 94.488281 L 8.871094 94.511719 L 8.898438 94.515625 L 8.929688 94.523438 L 9.011719 94.546875 L 9.042969 94.550781 L 9.070312 94.558594 L 9.128906 94.570312 L 9.15625 94.574219 L 9.1875 94.582031 L 9.214844 94.585938 L 9.242188 94.59375 L 9.300781 94.601562 L 9.332031 94.605469 L 9.359375 94.613281 L 9.417969 94.621094 L 9.480469 94.628906 L 9.507812 94.632812 L 9.539062 94.636719 L 9.597656 94.640625 L 9.660156 94.648438 L 9.6875 94.648438 L 9.75 94.65625 L 9.78125 94.65625 L 9.8125 94.660156 L 9.871094 94.660156 L 9.902344 94.664062 L 9.964844 94.664062 L 10.027344 94.667969 L 89.972656 94.667969 L 90.003906 94.664062 L 90.097656 94.664062 L 90.128906 94.660156 L 90.1875 94.660156 L 90.21875 94.65625 L 90.25 94.65625 L 90.3125 94.648438 L 90.339844 94.648438 L 90.402344 94.640625 L 90.429688 94.636719 L 90.460938 94.636719 L 90.492188 94.632812 L 90.519531 94.628906 L 90.582031 94.621094 L 90.609375 94.617188 L 90.640625 94.613281 L 90.667969 94.605469 L 90.699219 94.601562 L 90.726562 94.597656 L 90.757812 94.59375 L 90.785156 94.585938 L 90.8125 94.582031 L 90.84375 94.574219 L 90.871094 94.570312 L 90.902344 94.5625 L 90.929688 94.558594 L 90.957031 94.550781 L 90.988281 94.546875 L 91.070312 94.523438 L 91.101562 94.515625 L 91.128906 94.511719 L 91.210938 94.488281 L 91.242188 94.480469 L 91.269531 94.46875 L 91.378906 94.4375 L 91.40625 94.425781 L 91.460938 94.410156 L 91.488281 94.398438 L 91.515625 94.390625 L 91.542969 94.378906 L 91.570312 94.371094 L 91.625 94.347656 L 91.648438 94.339844 L 91.730469 94.304688 L 91.757812 94.296875 L 91.785156 94.285156 L 91.808594 94.273438 L 91.863281 94.25 L 91.886719 94.238281 L 91.914062 94.226562 L 91.941406 94.210938 L 91.964844 94.199219 L 92.019531 94.175781 L 92.042969 94.160156 L 92.070312 94.148438 L 92.09375 94.136719 L 92.121094 94.121094 L 92.144531 94.109375 L 92.171875 94.09375 L 92.195312 94.082031 L 92.222656 94.066406 L 92.246094 94.054688 L 92.269531 94.039062 L 92.296875 94.023438 L 92.320312 94.011719 L 92.34375 93.996094 L 92.371094 93.980469 L 92.441406 93.933594 L 92.46875 93.921875 L 92.492188 93.90625 L 92.515625 93.886719 L 92.65625 93.792969 L 92.679688 93.773438 L 92.726562 93.742188 L 92.75 93.722656 L 92.773438 93.707031 L 92.796875 93.6875 L 92.820312 93.671875 L 92.84375 93.652344 L 92.863281 93.636719 L 92.886719 93.617188 L 92.910156 93.601562 L 92.933594 93.582031 L 92.953125 93.5625 L 92.976562 93.542969 L 92.996094 93.527344 L 93.019531 93.507812 L 93.039062 93.488281 L 93.085938 93.449219 L 93.125 93.410156 L 93.148438 93.390625 L 93.167969 93.371094 L 93.191406 93.351562 L 93.25 93.292969 L 93.273438 93.273438 L 93.292969 93.25 L 93.351562 93.191406 L 93.371094 93.167969 L 93.390625 93.148438 L 93.410156 93.125 L 93.449219 93.085938 L 93.488281 93.039062 L 93.507812 93.019531 L 93.527344 92.996094 L 93.542969 92.976562 L 93.5625 92.953125 L 93.582031 92.933594 L 93.601562 92.910156 L 93.617188 92.886719 L 93.636719 92.863281 L 93.652344 92.84375 L 93.671875 92.820312 L 93.6875 92.796875 L 93.707031 92.773438 L 93.722656 92.75 L 93.742188 92.726562 L 93.773438 92.679688 L 93.792969 92.65625 L 93.886719 92.515625 L 93.90625 92.492188 L 93.921875 92.46875 L 93.933594 92.441406 L 93.980469 92.371094 L 93.996094 92.34375 L 94.011719 92.320312 L 94.023438 92.296875 L 94.039062 92.269531 L 94.054688 92.246094 L 94.066406 92.222656 L 94.082031 92.195312 L 94.09375 92.171875 L 94.109375 92.144531 L 94.121094 92.121094 L 94.136719 92.09375 L 94.148438 92.070312 L 94.160156 92.042969 L 94.175781 92.019531 L 94.199219 91.964844 L 94.210938 91.941406 L 94.226562 91.914062 L 94.238281 91.886719 L 94.25 91.863281 L 94.273438 91.808594 L 94.285156 91.785156 L 94.296875 91.757812 L 94.304688 91.730469 L 94.339844 91.648438 L 94.347656 91.625 L 94.371094 91.570312 L 94.378906 91.542969 L 94.390625 91.515625 L 94.398438 91.488281 L 94.410156 91.460938 L 94.425781 91.40625 L 94.4375 91.378906 L 94.46875 91.269531 L 94.480469 91.242188 L 94.488281 91.210938 L 94.511719 91.128906 L 94.515625 91.101562 L 94.523438 91.070312 L 94.546875 90.988281 L 94.550781 90.957031 L 94.558594 90.929688 L 94.5625 90.902344 L 94.570312 90.871094 L 94.574219 90.84375 L 94.582031 90.8125 L 94.585938 90.785156 L 94.59375 90.757812 L 94.597656 90.726562 L 94.601562 90.699219 L 94.605469 90.667969 L 94.613281 90.640625 L 94.617188 90.609375 L 94.621094 90.582031 L 94.628906 90.519531 L 94.632812 90.492188 L 94.636719 90.460938 L 94.636719 90.429688 L 94.640625 90.402344 L 94.648438 90.339844 L 94.648438 90.3125 L 94.65625 90.25 L 94.65625 90.21875 L 94.660156 90.1875 L 94.660156 90.128906 L 94.664062 90.097656 L 94.664062 90.003906 L 94.667969 89.972656 L 94.667969 10.027344 L 94.664062 9.996094 L 94.664062 9.902344 L 94.660156 9.871094 L 94.660156 9.8125 L 94.65625 9.78125 L 94.65625 9.75 L 94.648438 9.6875 L 94.648438 9.660156 L 94.640625 9.597656 L 94.636719 9.570312 L 94.636719 9.539062 L 94.632812 9.507812 L 94.628906 9.480469 L 94.621094 9.417969 L 94.617188 9.390625 L 94.613281 9.359375 L 94.605469 9.332031 L 94.601562 9.300781 L 94.597656 9.273438 L 94.59375 9.242188 L 94.585938 9.214844 L 94.582031 9.1875 L 94.574219 9.15625 L 94.570312 9.128906 L 94.5625 9.097656 L 94.558594 9.070312 L 94.550781 9.042969 L 94.546875 9.011719 L 94.523438 8.929688 L 94.515625 8.898438 L 94.511719 8.871094 L 94.488281 8.789062 L 94.480469 8.757812 L 94.46875 8.730469 L 94.4375 8.621094 L 94.425781 8.59375 L 94.410156 8.539062 L 94.398438 8.511719 L 94.390625 8.484375 L 94.378906 8.457031 L 94.371094 8.429688 L 94.347656 8.375 L 94.339844 8.351562 L 94.304688 8.269531 L 94.296875 8.242188 L 94.285156 8.214844 L 94.273438 8.191406 L 94.25 8.136719 L 94.238281 8.113281 L 94.226562 8.085938 L 94.210938 8.058594 L 94.199219 8.035156 L 94.175781 7.980469 L 94.164062 7.957031 L 94.148438 7.929688 L 94.136719 7.90625 L 94.121094 7.878906 L 94.109375 7.855469 L 94.09375 7.828125 L 94.082031 7.804688 L 94.066406 7.777344 L 94.054688 7.753906 L 94.039062 7.730469 L 94.023438 7.703125 L 94.011719 7.679688 L 93.996094 7.65625 L 93.980469 7.628906 L 93.933594 7.558594 L 93.921875 7.53125 L 93.90625 7.507812 L 93.886719 7.484375 L 93.792969 7.34375 L 93.773438 7.320312 L 93.742188 7.273438 L 93.722656 7.25 L 93.707031 7.226562 L 93.6875 7.203125 L 93.671875 7.179688 L 93.652344 7.15625 L 93.636719 7.136719 L 93.617188 7.113281 L 93.601562 7.089844 L 93.582031 7.070312 L 93.542969 7.023438 L 93.527344 7.003906 L 93.507812 6.980469 L 93.488281 6.960938 L 93.449219 6.914062 L 93.410156 6.875 L 93.390625 6.851562 L 93.371094 6.832031 L 93.351562 6.808594 L 93.292969 6.75 L 93.273438 6.726562 L 93.25 6.707031 L 93.210938 6.667969 L 93.1875 6.648438 L 93.148438 6.609375 L 93.125 6.589844 L 93.085938 6.550781 L 93.039062 6.511719 L 93.019531 6.492188 L 92.996094 6.472656 L 92.976562 6.457031 L 92.953125 6.4375 L 92.933594 6.417969 L 92.910156 6.398438 L 92.886719 6.382812 L 92.863281 6.363281 L 92.84375 6.347656 L 92.820312 6.328125 L 92.796875 6.3125 L 92.773438 6.292969 L 92.75 6.277344 L 92.726562 6.257812 L 92.679688 6.226562 L 92.65625 6.207031 L 92.515625 6.113281 L 92.492188 6.09375 L 92.46875 6.078125 L 92.441406 6.066406 L 92.371094 6.019531 L 92.34375 6.003906 L 92.320312 5.988281 L 92.296875 5.976562 L 92.269531 5.960938 L 92.246094 5.945312 L 92.222656 5.933594 L 92.195312 5.917969 L 92.171875 5.90625 L 92.144531 5.890625 L 92.121094 5.878906 L 92.09375 5.863281 L 92.070312 5.851562 L 92.042969 5.839844 L 92.019531 5.824219 L 91.964844 5.800781 L 91.941406 5.789062 L 91.914062 5.773438 L 91.886719 5.761719 L 91.863281 5.75 L 91.808594 5.726562 L 91.785156 5.714844 L 91.757812 5.703125 L 91.730469 5.695312 L 91.648438 5.660156 L 91.625 5.652344 L 91.570312 5.628906 L 91.542969 5.621094 L 91.515625 5.609375 L 91.488281 5.601562 L 91.460938 5.589844 L 91.40625 5.574219 L 91.378906 5.5625 L 91.269531 5.53125 L 91.242188 5.519531 L 91.210938 5.511719 L 91.128906 5.488281 L 91.101562 5.484375 L 91.070312 5.476562 L 90.988281 5.453125 L 90.957031 5.449219 L 90.929688 5.441406 L 90.902344 5.4375 L 90.871094 5.429688 L 90.84375 5.425781 L 90.8125 5.417969 L 90.785156 5.414062 L 90.757812 5.40625 L 90.726562 5.402344 L 90.699219 5.398438 L 90.667969 5.394531 L 90.640625 5.386719 L 90.578125 5.378906 L 90.550781 5.375 L 90.519531 5.371094 L 90.492188 5.367188 L 90.460938 5.363281 L 90.429688 5.363281 L 90.402344 5.359375 L 90.339844 5.351562 L 90.3125 5.351562 L 90.25 5.34375 L 90.21875 5.34375 L 90.1875 5.339844 L 90.128906 5.339844 L 90.097656 5.335938 L 90.003906 5.335938 L 89.972656 5.332031 Z M 10.097656 5.332031 "/>
<path style=" stroke:none;fill-rule:evenodd;fill:rgb(29.411766%,29.411766%,29.411766%);fill-opacity:1;" d="M 66.90625 85.695312 L 33.636719 85.695312 C 27.515625 85.691406 22.542969 80.71875 22.542969 74.59375 C 22.542969 69.164062 26.453125 64.636719 31.609375 63.683594 C 31.660156 53.570312 39.878906 45.378906 50 45.378906 C 60.121094 45.378906 68.339844 53.570312 68.390625 63.683594 C 73.546875 64.636719 77.457031 69.164062 77.457031 74.59375 C 77.457031 80.539062 72.777344 85.394531 66.90625 85.679688 Z M 66.117188 81.207031 C 66.199219 81.207031 66.28125 81.210938 66.363281 81.210938 C 70.011719 81.210938 72.972656 78.246094 72.972656 74.59375 C 72.972656 71.464844 70.792969 68.835938 67.867188 68.152344 L 67.867188 68.160156 C 67.617188 68.101562 67.363281 68.054688 67.105469 68.023438 C 66.859375 67.996094 66.613281 67.980469 66.363281 67.980469 C 65.226562 67.980469 64.160156 68.265625 63.226562 68.769531 C 63.785156 67.253906 64.09375 65.613281 64.09375 63.902344 C 64.09375 59.277344 61.863281 55.171875 58.421875 52.601562 C 56.078125 50.832031 53.160156 49.78125 50 49.78125 C 46.839844 49.78125 43.921875 50.832031 41.578125 52.601562 C 38.136719 55.171875 35.90625 59.277344 35.90625 63.902344 C 35.90625 65.613281 36.214844 67.253906 36.773438 68.769531 C 35.839844 68.265625 34.773438 67.980469 33.636719 67.980469 C 33.40625 67.980469 33.175781 67.992188 32.949219 68.015625 C 32.671875 68.050781 32.398438 68.097656 32.132812 68.164062 L 32.132812 68.152344 C 29.207031 68.835938 27.027344 71.464844 27.027344 74.59375 C 27.027344 78.246094 29.988281 81.210938 33.636719 81.210938 C 33.71875 81.210938 33.800781 81.207031 33.882812 81.207031 C 33.953125 81.210938 34.023438 81.214844 34.09375 81.214844 L 42.539062 81.214844 L 42.535156 81.222656 L 57.464844 81.222656 L 57.460938 81.214844 L 65.90625 81.214844 C 65.976562 81.214844 66.046875 81.210938 66.117188 81.207031 Z M 66.117188 81.207031 "/>
<path style=" stroke:none;fill-rule:evenodd;fill:rgb(29.803923%,29.803923%,29.803923%);fill-opacity:1;" d="M 47.273438 46.09375 L 37.582031 55.785156 L 45.371094 55.644531 L 39.277344 61.710938 L 27.285156 61.929688 L 27.503906 49.960938 L 33.605469 43.859375 L 33.464844 51.671875 L 43.132812 42.003906 Z M 64.695312 49.617188 L 74.015625 58.9375 L 69.769531 63.234375 L 60.429688 53.890625 L 60.285156 61.679688 L 54.4375 55.804688 L 54.65625 43.8125 L 66.625 43.59375 L 72.507812 49.472656 Z M 33.375 34.769531 L 27.492188 28.886719 L 35.304688 28.746094 L 25.984375 19.425781 L 30.230469 15.128906 L 39.570312 24.46875 L 39.714844 16.683594 L 45.5625 22.558594 L 45.34375 34.550781 Z M 52.808594 32.304688 L 62.5 22.613281 L 54.710938 22.753906 L 60.804688 16.6875 L 72.796875 16.46875 L 72.578125 28.4375 L 66.476562 34.539062 L 66.621094 26.726562 L 56.953125 36.394531 Z M 52.808594 32.304688 "/>
<path style=" stroke:none;fill-rule:evenodd;fill:rgb(100%,100%,100%);fill-opacity:1;" d="M 66.738281 42.429688 L 66.867188 42.453125 L 66.996094 42.488281 L 67.121094 42.535156 L 67.238281 42.601562 L 67.347656 42.679688 L 67.449219 42.765625 L 73.332031 48.648438 L 73.425781 48.757812 L 73.507812 48.875 L 73.574219 49.003906 L 73.621094 49.136719 L 73.65625 49.277344 L 73.671875 49.417969 L 73.667969 49.5625 L 73.648438 49.703125 L 73.613281 49.84375 L 73.558594 49.976562 L 73.488281 50.101562 L 73.40625 50.21875 L 73.308594 50.324219 L 73.195312 50.414062 L 73.078125 50.492188 L 72.945312 50.554688 L 72.8125 50.601562 L 72.671875 50.628906 L 72.527344 50.640625 L 67.460938 50.734375 L 74.839844 58.113281 L 74.933594 58.21875 L 75.011719 58.332031 L 75.078125 58.457031 L 75.128906 58.585938 L 75.160156 58.722656 L 75.179688 58.863281 L 75.179688 59.003906 L 75.164062 59.144531 L 75.128906 59.277344 L 75.082031 59.410156 L 75.015625 59.535156 L 74.9375 59.652344 L 74.84375 59.757812 L 70.601562 64.054688 L 70.496094 64.148438 L 70.378906 64.230469 L 70.253906 64.292969 L 70.121094 64.347656 L 69.984375 64.378906 L 69.84375 64.398438 L 69.703125 64.398438 L 69.5625 64.382812 L 69.425781 64.347656 L 69.292969 64.296875 L 69.167969 64.230469 L 69.050781 64.152344 L 68.945312 64.058594 L 61.542969 56.65625 L 61.449219 61.699219 L 61.441406 61.84375 L 61.410156 61.984375 L 61.363281 62.121094 L 61.300781 62.25 L 61.222656 62.371094 L 61.132812 62.480469 L 61.027344 62.578125 L 60.910156 62.664062 L 60.785156 62.730469 L 60.652344 62.785156 L 60.515625 62.824219 L 60.371094 62.84375 L 60.226562 62.84375 L 60.085938 62.828125 L 59.945312 62.792969 L 59.8125 62.746094 L 59.683594 62.679688 L 59.566406 62.597656 L 59.457031 62.5 L 53.609375 56.625 L 53.519531 56.527344 L 53.445312 56.417969 L 53.382812 56.300781 L 53.332031 56.175781 L 53.296875 56.046875 L 53.277344 55.914062 L 53.269531 55.78125 L 53.488281 43.789062 L 53.503906 43.640625 L 53.535156 43.496094 L 53.582031 43.355469 L 53.648438 43.222656 L 53.734375 43.097656 L 53.832031 42.984375 L 53.945312 42.886719 L 54.066406 42.804688 L 54.199219 42.738281 L 54.339844 42.6875 L 54.488281 42.65625 L 54.636719 42.644531 L 66.601562 42.425781 Z M 54.65625 43.8125 L 54.4375 55.804688 L 60.285156 61.679688 L 60.429688 53.890625 L 69.769531 63.234375 L 74.015625 58.9375 L 64.695312 49.617188 L 72.507812 49.472656 L 66.625 43.59375 Z M 43.335938 40.855469 L 43.472656 40.890625 L 43.605469 40.9375 L 43.730469 41.003906 L 43.84375 41.082031 L 43.949219 41.175781 L 48.09375 45.261719 L 48.1875 45.367188 L 48.269531 45.484375 L 48.335938 45.609375 L 48.386719 45.742188 L 48.421875 45.878906 L 48.441406 46.019531 L 48.441406 46.160156 L 48.421875 46.300781 L 48.390625 46.4375 L 48.339844 46.570312 L 48.273438 46.695312 L 48.195312 46.8125 L 48.101562 46.917969 L 40.453125 54.566406 L 45.351562 54.476562 L 45.496094 54.484375 L 45.640625 54.507812 L 45.78125 54.550781 L 45.914062 54.609375 L 46.039062 54.683594 L 46.152344 54.777344 L 46.253906 54.878906 L 46.34375 54.996094 L 46.414062 55.121094 L 46.472656 55.257812 L 46.511719 55.398438 L 46.535156 55.539062 L 46.539062 55.6875 L 46.523438 55.832031 L 46.492188 55.972656 L 46.441406 56.109375 L 46.375 56.242188 L 46.292969 56.359375 L 46.195312 56.46875 L 40.101562 62.539062 L 39.988281 62.636719 L 39.867188 62.71875 L 39.734375 62.785156 L 39.59375 62.832031 L 39.449219 62.863281 L 39.300781 62.878906 L 27.308594 63.097656 L 27.164062 63.089844 L 27.019531 63.066406 L 26.882812 63.023438 L 26.75 62.96875 L 26.628906 62.894531 L 26.511719 62.804688 L 26.410156 62.703125 L 26.324219 62.589844 L 26.25 62.464844 L 26.191406 62.332031 L 26.148438 62.195312 L 26.125 62.054688 L 26.121094 61.910156 L 26.339844 49.941406 L 26.351562 49.792969 L 26.382812 49.648438 L 26.433594 49.507812 L 26.5 49.371094 L 26.582031 49.25 L 26.679688 49.136719 L 32.78125 43.035156 L 32.890625 42.941406 L 33.011719 42.859375 L 33.140625 42.792969 L 33.277344 42.742188 L 33.421875 42.710938 L 33.566406 42.695312 L 33.710938 42.699219 L 33.855469 42.722656 L 33.996094 42.761719 L 34.128906 42.816406 L 34.253906 42.890625 L 34.371094 42.980469 L 34.476562 43.082031 L 34.566406 43.195312 L 34.640625 43.320312 L 34.699219 43.453125 L 34.742188 43.59375 L 34.765625 43.738281 L 34.773438 43.882812 L 34.683594 48.804688 L 42.304688 41.179688 L 42.410156 41.085938 L 42.527344 41.007812 L 42.652344 40.941406 L 42.78125 40.890625 L 42.917969 40.859375 L 43.058594 40.839844 L 43.199219 40.839844 Z M 33.464844 51.671875 L 33.605469 43.859375 L 27.503906 49.960938 L 27.285156 61.929688 L 39.277344 61.710938 L 45.371094 55.644531 L 37.582031 55.785156 L 47.273438 46.09375 L 43.132812 42.003906 Z M 72.921875 15.308594 L 73.0625 15.332031 L 73.199219 15.375 L 73.332031 15.433594 L 73.457031 15.507812 L 73.570312 15.59375 L 73.671875 15.695312 L 73.761719 15.808594 L 73.835938 15.933594 L 73.894531 16.066406 L 73.933594 16.203125 L 73.957031 16.347656 L 73.964844 16.488281 L 73.746094 28.457031 L 73.734375 28.605469 L 73.703125 28.753906 L 73.652344 28.894531 L 73.585938 29.027344 L 73.503906 29.148438 L 73.402344 29.261719 L 67.300781 35.363281 L 67.191406 35.460938 L 67.070312 35.542969 L 66.941406 35.609375 L 66.804688 35.65625 L 66.664062 35.691406 L 66.519531 35.703125 L 66.371094 35.699219 L 66.230469 35.679688 L 66.089844 35.636719 L 65.953125 35.582031 L 65.828125 35.507812 L 65.710938 35.417969 L 65.609375 35.316406 L 65.519531 35.203125 L 65.441406 35.078125 L 65.382812 34.945312 L 65.339844 34.804688 L 65.316406 34.660156 L 65.3125 34.515625 L 65.402344 29.597656 L 57.777344 37.21875 L 57.671875 37.3125 L 57.558594 37.390625 L 57.433594 37.457031 L 57.300781 37.507812 L 57.164062 37.542969 L 57.027344 37.558594 L 56.886719 37.558594 L 56.746094 37.542969 L 56.609375 37.507812 L 56.480469 37.460938 L 56.355469 37.394531 L 56.238281 37.316406 L 56.132812 37.222656 L 51.988281 33.136719 L 51.894531 33.03125 L 51.8125 32.914062 L 51.746094 32.789062 L 51.695312 32.65625 L 51.660156 32.519531 L 51.644531 32.378906 L 51.644531 32.238281 L 51.660156 32.097656 L 51.695312 31.960938 L 51.742188 31.828125 L 51.808594 31.703125 L 51.890625 31.585938 L 51.984375 31.480469 L 59.632812 23.832031 L 54.734375 23.921875 L 54.585938 23.914062 L 54.445312 23.890625 L 54.304688 23.847656 L 54.171875 23.789062 L 54.046875 23.714844 L 53.933594 23.625 L 53.832031 23.519531 L 53.742188 23.402344 L 53.667969 23.277344 L 53.613281 23.144531 L 53.570312 23.003906 L 53.550781 22.859375 L 53.546875 22.710938 L 53.5625 22.566406 L 53.59375 22.425781 L 53.644531 22.289062 L 53.710938 22.160156 L 53.792969 22.039062 L 53.890625 21.929688 L 59.980469 15.863281 L 60.09375 15.761719 L 60.21875 15.679688 L 60.351562 15.613281 L 60.492188 15.566406 L 60.636719 15.535156 L 60.785156 15.523438 L 72.777344 15.300781 Z M 60.804688 16.6875 L 54.710938 22.753906 L 62.5 22.613281 L 52.808594 32.304688 L 56.953125 36.394531 L 66.621094 26.726562 L 66.476562 34.539062 L 72.578125 28.4375 L 72.796875 16.46875 Z M 30.4375 13.980469 L 30.574219 14.011719 L 30.707031 14.0625 L 30.832031 14.128906 L 30.949219 14.210938 L 31.054688 14.300781 L 38.457031 21.703125 L 38.546875 16.660156 L 38.558594 16.519531 L 38.589844 16.378906 L 38.636719 16.242188 L 38.699219 16.113281 L 38.773438 15.992188 L 38.867188 15.882812 L 38.972656 15.78125 L 39.089844 15.699219 L 39.214844 15.628906 L 39.347656 15.574219 L 39.484375 15.539062 L 39.628906 15.519531 L 39.773438 15.515625 L 39.914062 15.53125 L 40.054688 15.566406 L 40.1875 15.617188 L 40.316406 15.683594 L 40.433594 15.765625 L 40.542969 15.859375 L 46.390625 21.734375 L 46.476562 21.835938 L 46.554688 21.945312 L 46.617188 22.0625 L 46.667969 22.183594 L 46.703125 22.3125 L 46.722656 22.445312 L 46.730469 22.578125 L 46.507812 34.570312 L 46.496094 34.71875 L 46.464844 34.867188 L 46.417969 35.007812 L 46.351562 35.140625 L 46.265625 35.261719 L 46.167969 35.375 L 46.054688 35.472656 L 45.933594 35.558594 L 45.800781 35.625 L 45.660156 35.671875 L 45.511719 35.703125 L 45.363281 35.714844 L 33.398438 35.9375 L 33.261719 35.929688 L 33.132812 35.910156 L 33 35.875 L 32.878906 35.824219 L 32.761719 35.761719 L 32.652344 35.683594 L 32.550781 35.59375 L 26.667969 29.710938 L 26.574219 29.605469 L 26.492188 29.484375 L 26.425781 29.359375 L 26.375 29.222656 L 26.34375 29.085938 L 26.328125 28.941406 L 26.332031 28.796875 L 26.351562 28.65625 L 26.386719 28.519531 L 26.441406 28.386719 L 26.511719 28.257812 L 26.59375 28.144531 L 26.691406 28.039062 L 26.800781 27.945312 L 26.921875 27.871094 L 27.050781 27.808594 L 27.1875 27.761719 L 27.328125 27.730469 L 27.472656 27.71875 L 32.539062 27.628906 L 25.160156 20.25 L 25.066406 20.144531 L 24.988281 20.027344 L 24.921875 19.90625 L 24.871094 19.773438 L 24.839844 19.636719 L 24.820312 19.5 L 24.820312 19.359375 L 24.835938 19.21875 L 24.871094 19.082031 L 24.917969 18.949219 L 24.984375 18.824219 L 25.0625 18.710938 L 25.15625 18.605469 L 29.398438 14.308594 L 29.503906 14.214844 L 29.621094 14.132812 L 29.746094 14.066406 L 29.875 14.015625 L 30.015625 13.980469 L 30.15625 13.964844 L 30.296875 13.964844 Z M 25.984375 19.425781 L 35.304688 28.746094 L 27.492188 28.886719 L 33.375 34.769531 L 45.34375 34.550781 L 45.5625 22.558594 L 39.714844 16.683594 L 39.570312 24.46875 L 30.230469 15.128906 Z M 25.984375 19.425781 "/>
</g>
</svg>
