<svg width="40" height="40" xmlns="http://www.w3.org/2000/svg"><defs><linearGradient x1="0%" y1="100%" x2="100%" y2="0%" id="a"><stop stop-color="#2E27AD" offset="0%"/><stop stop-color="#527FFF" offset="100%"/></linearGradient></defs><g fill="none" fill-rule="evenodd"><path d="M0 0h40v40H0z" fill="url(#a)"/><path d="m12.004 27.608 4.267-3.491.632.773-4.864 3.982-3.129-2.283.59-.808 2.504 1.827ZM9.5 10.474C9.5 8.558 11.07 7 13 7s3.5 1.558 3.5 3.474c0 1.916-1.57 3.474-3.5 3.474s-3.5-1.558-3.5-3.474Zm3.522 4.505c.016.001 1.695-.039 3.302.955l.526-.851a7.057 7.057 0 0 0-1.641-.735c1.361-.77 2.291-2.209 2.291-3.874C17.5 8.007 15.482 6 13 6c-2.481 0-4.5 2.007-4.5 4.474 0 1.65.913 3.077 2.253 3.853-3.44 1.049-4.417 4.395-4.65 5.553l.98.198c.308-1.527 1.5-5.098 5.939-5.099Zm5.978 15V22.61c1.507-1.078 3.186-1.631 5-1.631 1.638 0 3.286.458 4.643 1.289 2.474 1.516 4.178 4.569 4.343 7.711H19Zm-1 .191-5.5 2.809L7 30.17v-7.382l5.5-2.809 5.5 2.809v7.382Zm1.25-14.941a4.756 4.756 0 0 1 4.75-4.75 4.756 4.756 0 0 1 4.75 4.75 4.756 4.756 0 0 1-4.75 4.75 4.756 4.756 0 0 1-4.75-4.75ZM34 30.479c0-3.706-1.898-7.265-4.836-9.064a9.725 9.725 0 0 0-2.533-1.079 5.752 5.752 0 0 0 3.119-5.107c0-3.17-2.579-5.75-5.75-5.75a5.757 5.757 0 0 0-5.75 5.75 5.75 5.75 0 0 0 3.141 5.117 9.654 9.654 0 0 0-3.04 1.499L12.5 18.979 6 22.17v8.618l6.5 3.191 6.118-3H34v-.5Z" fill="#FFF"/></g></svg>