<svg width="40" height="40" xmlns="http://www.w3.org/2000/svg"><defs><linearGradient x1="0%" y1="100%" x2="100%" y2="0%" id="a"><stop stop-color="#4D27A8" offset="0%"/><stop stop-color="#A166FF" offset="100%"/></linearGradient></defs><g fill="none" fill-rule="evenodd"><path d="M0 0h40v40H0z" fill="url(#a)"/><path d="M32.888 19.913C11.234 19.913 8 23.801 8 26.119H7c0-3.532 4.767-5.773 14.172-6.706C11.767 18.48 7 16.238 7 12.706h1c0 2.318 3.234 6.207 24.888 6.207v1Zm-16.98 2.879v1.062c-4.398 1.637-5.034 3.982-5.034 6.098h-1c0-2.377.718-5.299 6.034-7.16Zm0 3.046v1.24c-2.154 1.742-2.16 3.853-2.16 5.748h-1c0-2.08.004-4.875 3.16-6.988Zm16.023 4.937c0 .604-.491 1.096-1.096 1.096H20.028a1.098 1.098 0 0 1-1.097-1.096v-6.808c0-.604.492-1.096 1.097-1.096h10.807c.605 0 1.096.492 1.096 1.096v6.808Zm-1.096-8.904H20.028c-1.157 0-2.097.94-2.097 2.096v6.808c0 1.156.94 2.096 2.097 2.096h10.807c1.156 0 2.096-.94 2.096-2.096v-6.808c0-1.156-.94-2.096-2.096-2.096ZM9.874 8.874h1c0 4.017 2.616 8.123 22.014 8.123v1c-20.279 0-23.014-4.611-23.014-9.123ZM12.748 6h1c0 3.617 0 9.081 19.14 9.081v1c-18.585 0-20.14-4.98-20.14-10.081Zm11.657 22.588v-2.411l2.392 1.205-2.392 1.206Zm3.728-1.653-4.004-2.017a.5.5 0 0 0-.724.447V29.4a.497.497 0 0 0 .724.447l4.004-2.019a.5.5 0 0 0 0-.893Z" fill="#FFF"/></g></svg>