<svg width="40" height="40" xmlns="http://www.w3.org/2000/svg"><defs><linearGradient x1="0%" y1="100%" x2="100%" y2="0%" id="a"><stop stop-color="#C8511B" offset="0%"/><stop stop-color="#F90" offset="100%"/></linearGradient></defs><g fill="none" fill-rule="evenodd"><path d="M0 0h40v40H0z" fill="url(#a)"/><path d="M23.869 22.534V20.5c0-.212-.043-.368-.129-.468-.086-.1-.221-.15-.405-.15-.316 0-.626.102-.93.306v2.346h-.594v-3.042h.498l.06.336c.38-.284.78-.426 1.2-.426.292 0 .514.077.666.231.152.154.228.377.228.669v2.232h-.594Zm-5.527-.63c.443.144.824.216 1.139.216.304 0 .537-.069.7-.207.162-.138.243-.337.243-.597 0-.284-.076-.49-.229-.618-.151-.128-.399-.192-.744-.192-.248 0-.558.02-.93.06v-.396l.115-1.794h2.189v.492H19.14l-.079 1.218c.22-.04.418-.06.594-.06.433 0 .771.114 1.015.342.243.228.365.542.365.942 0 .392-.142.709-.426.951-.284.242-.658.363-1.122.363-.407 0-.79-.08-1.145-.24v-.48Zm-3.16-1.53h.847c.256 0 .45-.064.585-.192.134-.128.201-.318.201-.57 0-.248-.064-.435-.192-.561-.128-.126-.318-.189-.57-.189h-.871v1.512Zm-.593 2.16v-4.158h1.518c.404 0 .726.111.966.333.239.222.359.521.359.897 0 .276-.074.515-.224.717a1.273 1.273 0 0 1-.633.441l1.104 1.77h-.666l-1.02-1.674h-.811v1.674h-.593ZM26.052 27 26 13.948 13 14v13.052L26.052 27ZM27 14h2v1h-2v2h2v1h-2v2h2v1h-2v2h2v1h-2v2h2v1h-2v.052a.95.95 0 0 1-.948.948H26v2h-1v-2h-2v2h-1v-2h-2v2h-1v-2h-2v2h-1v-2h-2v2h-1v-2h-.052a.95.95 0 0 1-.948-.948V27h-2v-1h2v-2h-2v-1h2v-2h-2v-1h2v-2h-2v-1h2v-2h-2v-1h2v-.052a.95.95 0 0 1 .948-.948H13v-2h1v2h2v-2h1v2h2v-2h1v2h2v-2h1v2h2v-2h1v2h.052a.95.95 0 0 1 .948.948V14Zm-6 19H7V19h2v-1H7.061C6.476 18 6 18.476 6 19.062v13.876C6 33.523 6.476 34 7.061 34h13.877c.585 0 1.062-.477 1.062-1.062V31h-1v2ZM32.938 6H19.061C18.476 6 18 6.476 18 7.062V10h1V7h14v14h-3v1h2.938c.585 0 1.062-.477 1.062-1.062V7.062C34 6.476 33.523 6 32.938 6Z" fill="#FFF"/></g></svg>