<svg width="48" height="48" xmlns="http://www.w3.org/2000/svg"><defs><linearGradient x1="0%" y1="100%" x2="100%" y2="0%" id="a"><stop stop-color="#B0084D" offset="0%"/><stop stop-color="#FF4F8B" offset="100%"/></linearGradient></defs><g fill="none" fill-rule="evenodd"><path fill="url(#a)" d="M4 4h40v40H4z"/><path stroke="#879196" stroke-width="2" d="M1 1h46v46H1z"/><path d="M37 23h-4.308c.206-.415.315-.873.315-1.349a3.05 3.05 0 0 0-1.421-2.585c-.913-.579-2.029-.632-3.069-.145a2.698 2.698 0 0 0-1.273 1.245c-.465.946-.465 1.977-.042 2.834H23v-5.192a.5.5 0 0 0-.861-.345c-.513.535-1.445.919-2.533.386a1.723 1.723 0 0 1-.781-.799c-.338-.721-.307-1.489.085-2.108.684-1.076 2.34-1.249 3.228-.316a.501.501 0 0 0 .862-.345V11h12.5c.827 0 1.5.673 1.5 1.5V23Zm0 12.5c0 .827-.673 1.5-1.5 1.5H23v-5.033c.856.424 1.887.423 2.835-.042a2.694 2.694 0 0 0 1.244-1.272c.487-1.037.435-2.155-.145-3.068a3.048 3.048 0 0 0-2.585-1.422c-.477 0-.935.108-1.349.314V24h5.184a.499.499 0 0 0 .344-.862c-.536-.512-.92-1.446-.385-2.532.164-.334.455-.618.799-.78.72-.339 1.488-.309 2.108.085a2.055 2.055 0 0 1 .314 3.227.502.502 0 0 0 .346.862H37v11.5Zm-26 0V24h3.023c-.422.857-.421 1.888.043 2.834.266.542.717.985 1.272 1.245.471.221.958.331 1.434.331.576 0 1.136-.16 1.635-.476a3.05 3.05 0 0 0 1.421-2.585c0-.476-.108-.934-.314-1.349H22v3.46a.499.499 0 0 0 .862.345c.892-.933 2.544-.762 3.228.316.392.618.423 1.386.085 2.107a1.719 1.719 0 0 1-.781.799c-1.089.534-2.021.151-2.532-.386a.5.5 0 0 0-.862.345V37h-9.5c-.827 0-1.5-.673-1.5-1.5Zm0-23c0-.827.673-1.5 1.5-1.5H22v2.299a3.015 3.015 0 0 0-1.349-.314 3.05 3.05 0 0 0-2.585 1.421c-.58.913-.632 2.032-.145 3.069.26.553.701 1.004 1.244 1.271.947.465 1.979.466 2.835.043V23h-3.469a.5.5 0 0 0-.345.862 2.053 2.053 0 0 1-.315 3.227c-.62.393-1.387.423-2.107.085a1.715 1.715 0 0 1-.8-.78c-.533-1.086-.151-2.02.386-2.532a.5.5 0 0 0-.345-.862H11V12.5ZM35.5 10h-23a2.503 2.503 0 0 0-2.5 2.5v23c0 1.378 1.121 2.5 2.5 2.5h23c1.379 0 2.5-1.122 2.5-2.5v-23c0-1.378-1.121-2.5-2.5-2.5Z" fill="#FFF"/></g></svg>