<svg width="40" height="40" xmlns="http://www.w3.org/2000/svg"><defs><linearGradient x1="0%" y1="100%" x2="100%" y2="0%" id="a"><stop stop-color="#2E27AD" offset="0%"/><stop stop-color="#527FFF" offset="100%"/></linearGradient></defs><g fill="none" fill-rule="evenodd"><path d="M0 0h40v40H0z" fill="url(#a)"/><path d="M22.957 26.925h-1.972v-4.05H20v4.05h-1.972v-3.038h-.986v3.038h-.986v1.012h7.887V20.85h-.986v6.075ZM26.9 24.9c0-3.908-3.096-7.088-6.9-7.088-3.805 0-6.901 3.18-6.901 7.088s3.096 7.087 6.9 7.087c3.805 0 6.901-3.179 6.901-7.087Zm.986 0c0 4.466-3.538 8.1-7.886 8.1-4.349 0-7.887-3.634-7.887-8.1 0-4.466 3.538-8.1 7.887-8.1 4.348 0 7.886 3.634 7.886 8.1ZM33 19.097c0 2.777-1.485 4.582-4.072 4.954l-.137-1.002c1.47-.212 3.223-1.07 3.223-3.952 0-2.708-1.995-3.687-3.669-4.032a.503.503 0 0 1-.395-.467c-.109-1.978-1.236-2.863-2.306-2.863-.672 0-1.3.325-1.72.891a.486.486 0 0 1-.854-.13c-.38-1.056-.944-1.978-1.632-2.665-1.806-1.81-4.278-2.302-6.608-1.313-1.936.816-3.452 3.163-3.452 5.344 0 .246.015.487.043.723a.507.507 0 0 1-.37.555c-1.145.291-3.066 1.188-3.066 3.919 0 .103.005.195.01.293.085 1.601 1.431 3.071 3.272 3.576l-.254.978c-2.247-.616-3.893-2.465-4.002-4.498a5.746 5.746 0 0 1-.011-.35c0-3.172 2.133-4.357 3.404-4.78a7.25 7.25 0 0 1-.012-.416c0-2.605 1.746-5.305 4.063-6.281 2.703-1.145 5.574-.577 7.67 1.524.629.629 1.166 1.42 1.576 2.317 1.672-1.371 4.792-.795 5.2 2.733C31.548 14.82 33 16.563 33 19.097Z" fill="#FFF"/></g></svg>