<svg width="40" height="40" xmlns="http://www.w3.org/2000/svg"><defs><linearGradient x1="0%" y1="100%" x2="100%" y2="0%" id="a"><stop stop-color="#C8511B" offset="0%"/><stop stop-color="#F90" offset="100%"/></linearGradient></defs><g fill="none" fill-rule="evenodd"><path d="M0 0h40v40H0z" fill="url(#a)"/><path d="M23.992 27.994h1v-1h-1v1Zm-.5 1h2a.5.5 0 0 0 .5-.5v-2c0-.277-.223-.5-.5-.5h-2a.5.5 0 0 0-.5.5v2a.5.5 0 0 0 .5.5Zm5.5-1h1v-1h-1v1Zm-.5 1h2a.5.5 0 0 0 .5-.5v-2c0-.277-.223-.5-.5-.5h-2a.5.5 0 0 0-.5.5v2a.5.5 0 0 0 .5.5Zm-4.5-6h1v-1h-1v1Zm-.5 1h2a.5.5 0 0 0 .5-.5v-2c0-.277-.223-.5-.5-.5h-2a.5.5 0 0 0-.5.5v2a.5.5 0 0 0 .5.5Zm5.5-1h1v-1h-1v1Zm-.5 1h2a.5.5 0 0 0 .5-.5v-2c0-.277-.223-.5-.5-.5h-2a.5.5 0 0 0-.5.5v2a.5.5 0 0 0 .5.5Zm-7.5 9h12v-14h-12v14Zm-2.997-.577L7 26.68V12.28l9-4.935v4.52l-4.746 2.684a.499.499 0 0 0-.254.435v9c0 .182.1.35.259.438l6.5 3.578c.15.083.333.083.481 0l1.752-.961v4.288l-1.997 1.09Zm7.718-17.885L20 11.84V7.309l10 4.984v5.7h-4v-3.01a.498.498 0 0 0-.287-.451Zm7.779 3.462H31v-6.01a.498.498 0 0 0-.277-.447l-11-5.484A.5.5 0 0 0 19 6.5v5.656a.5.5 0 0 0 .287.452L25 15.3v2.693h-4.508a.5.5 0 0 0-.5.5v2.81l-1.528-1.92 3.253-4.077h-1.445l-2.869 3.37v-3.37h-1.286v8.36h1.286V19.81l2.589 3.28v2.808L18 26.99l-6-3.302v-8.414l4.746-2.683a.5.5 0 0 0 .254-.435V6.5a.5.5 0 0 0-.74-.44l-10 5.484a.501.501 0 0 0-.26.439v15a.5.5 0 0 0 .269.443l11.5 6a.496.496 0 0 0 .47-.004l1.753-.957v1.028a.5.5 0 0 0 .5.5h13a.5.5 0 0 0 .5-.5v-15c0-.277-.223-.5-.5-.5Z" fill="#FFF"/></g></svg>