<svg width="40" height="40" xmlns="http://www.w3.org/2000/svg"><defs><linearGradient x1="0%" y1="100%" x2="100%" y2="0%" id="a"><stop stop-color="#B0084D" offset="0%"/><stop stop-color="#FF4F8B" offset="100%"/></linearGradient></defs><g fill="none" fill-rule="evenodd"><path d="M0 0h40v40H0z" fill="url(#a)"/><path d="m14.342 22.35 1.505-1.444a.501.501 0 0 0 .013-.708l-1.505-1.555-.72.695.676.7h-2.32v.999h2.274l-.617.592.694.72Zm12.016.003 1.55-1.453a.5.5 0 0 0 .011-.717l-1.55-1.546-.708.707.694.694H24.01v.999H26.3l-.627.588.686.728Zm-8.77 1.008a6.458 6.458 0 0 1 2.417-.467c.842 0 1.665.163 2.416.467-.669-1.771-.669-3.971 0-5.742-1.502.607-3.331.607-4.833 0 .669 1.77.669 3.97 0 5.742Zm-1.944 1.98a.494.494 0 0 1 0-.707c1.94-1.936 1.94-6.352 0-8.289a.494.494 0 0 1 0-.706.502.502 0 0 1 .709 0c.921.92 2.252 1.447 3.652 1.447 1.4 0 2.731-.528 3.653-1.447a.502.502 0 0 1 .854.354c0 .128-.05.255-.146.352-1.942 1.937-1.942 6.353 0 8.29a.501.501 0 0 1-.708.706c-.922-.92-2.253-1.447-3.653-1.447s-2.731.527-3.652 1.447a.502.502 0 0 1-.709 0Zm16.898-5.905a1.562 1.562 0 0 0-1.106-.456 1.558 1.558 0 0 0-1.105 2.662c.61.608 1.601.608 2.211 0a1.56 1.56 0 0 0 0-2.206Zm.708 2.913a2.56 2.56 0 0 1-1.814.749 2.56 2.56 0 0 1-1.813-4.369c1-.997 2.628-.997 3.627 0 1 .999 1 2.622 0 3.62ZM9.67 19.447a1.562 1.562 0 0 0-1.106-.456 1.56 1.56 0 0 0-1.105 2.662 1.56 1.56 0 1 0 2.21-2.206Zm.708 2.912a2.56 2.56 0 0 1-1.814.749A2.559 2.559 0 0 1 6.75 18.74c1-.997 2.627-.997 3.627 0 1 .999 1 2.622 0 3.62Zm17.057 6.551A10.514 10.514 0 0 1 19.957 32a10.51 10.51 0 0 1-7.475-3.09c-1.316-1.312-2.074-2.44-2.537-3.774l-.947.327c.51 1.466 1.365 2.747 2.776 4.154A11.506 11.506 0 0 0 19.957 33c3.093 0 6-1.201 8.185-3.383 1.14-1.139 2.279-2.43 2.87-4.156l-.948-.323c-.525 1.532-1.575 2.719-2.63 3.772ZM9.945 15.86l-.947-.328c.512-1.467 1.368-2.749 2.778-4.156 4.51-4.5 11.85-4.502 16.362 0 1.08 1.077 2.266 2.414 2.874 4.156l-.948.328c-.54-1.55-1.635-2.78-2.634-3.777a10.508 10.508 0 0 0-7.473-3.087 10.508 10.508 0 0 0-7.472 3.087c-1.298 1.295-2.081 2.46-2.54 3.777Z" fill="#FFF"/></g></svg>