<svg width="40" height="40" xmlns="http://www.w3.org/2000/svg"><defs><linearGradient x1="0%" y1="100%" x2="100%" y2="0%" id="a"><stop stop-color="#055F4E" offset="0%"/><stop stop-color="#56C0A7" offset="100%"/></linearGradient></defs><g fill="none" fill-rule="evenodd"><path d="M0 0h40v40H0z" fill="url(#a)"/><path d="M17.943 31.294a.5.5 0 0 0-.389-.516 10.957 10.957 0 0 1-3.444-1.43.503.503 0 0 0-.641.09l-1.138 1.277-3.047-3.045 1.277-1.139a.498.498 0 0 0 .09-.639 10.938 10.938 0 0 1-1.425-3.447.481.481 0 0 0-.516-.389L7 22.154v-4.308l1.714.098a.476.476 0 0 0 .515-.388 10.98 10.98 0 0 1 1.429-3.44.499.499 0 0 0-.09-.64l-1.284-1.145 3.047-3.046 1.144 1.282a.5.5 0 0 0 .64.09 10.977 10.977 0 0 1 3.439-1.424.5.5 0 0 0 .389-.516L17.846 7h4.307l-.097 1.719a.501.501 0 0 0 .389.516 10.95 10.95 0 0 1 3.437 1.425.5.5 0 0 0 .64-.09l1.147-1.285 3.046 3.046-1.282 1.143a.5.5 0 0 0-.09.64 10.917 10.917 0 0 1 1.428 3.441.482.482 0 0 0 .516.389L33 17.846v4.308l-1.711-.098a.517.517 0 0 0-.516.389 10.978 10.978 0 0 1-1.427 3.444.5.5 0 0 0 .09.64l1.279 1.14-3.046 3.046-1.137-1.275a.502.502 0 0 0-.641-.089 10.919 10.919 0 0 1-3.446 1.428.501.501 0 0 0-.389.516L22.153 33h-4.307l.097-1.706Zm5.103 2.549a.5.5 0 0 0 .135-.371l-.103-1.819c1.049-.276 2.05-.69 2.985-1.236l1.212 1.359a.497.497 0 0 0 .727.021l3.795-3.795a.5.5 0 0 0-.021-.726l-1.363-1.216c.545-.936.959-1.935 1.234-2.982l1.824.104a.498.498 0 0 0 .529-.499v-5.366a.498.498 0 0 0-.529-.499l-1.826.104a11.877 11.877 0 0 0-1.235-2.979l1.366-1.219a.497.497 0 0 0 .021-.726l-3.795-3.794a.513.513 0 0 0-.369-.147.504.504 0 0 0-.358.167l-1.223 1.37a11.924 11.924 0 0 0-2.974-1.234l.103-1.832A.498.498 0 0 0 22.682 6h-5.365a.498.498 0 0 0-.499.528l.104 1.831a11.945 11.945 0 0 0-2.977 1.232l-1.221-1.367a.503.503 0 0 0-.358-.167.546.546 0 0 0-.368.147l-3.795 3.794a.496.496 0 0 0 .02.726l1.368 1.221c-.544.934-.96 1.932-1.236 2.977l-1.827-.104a.497.497 0 0 0-.528.499v5.366a.497.497 0 0 0 .528.499l1.823-.104a11.939 11.939 0 0 0 1.234 2.984l-1.362 1.214a.501.501 0 0 0-.02.726l3.795 3.795a.52.52 0 0 0 .368.146.495.495 0 0 0 .358-.167l1.214-1.361c.937.546 1.937.961 2.984 1.237l-.104 1.82a.498.498 0 0 0 .499.528h5.365a.502.502 0 0 0 .364-.157Zm-4.054-10.949 5.08-5.081-.707-.707-4.727 4.728-2.004-2.005-.707.707 2.358 2.358a.498.498 0 0 0 .707 0Zm11.058-3.313-1.869.997c.306-4.305-2.801-8.166-7.134-8.723a8.2 8.2 0 0 0-8.439 4.562l.9.436a7.197 7.197 0 0 1 7.412-4.006c3.76.484 6.47 3.8 6.275 7.526l-1.339-1.322-.703.712 2.346 2.313 3.022-1.614-.471-.881Zm-2.658 4.002a8.204 8.204 0 0 1-8.439 4.563c-4.334-.558-7.441-4.419-7.135-8.724l-1.869.997-.471-.881 3.023-1.614 2.345 2.313-.703.712-1.339-1.322a7.209 7.209 0 0 0 13.688 3.52l.9.436Z" fill="#FFF"/></g></svg>