<svg width="40" height="40" xmlns="http://www.w3.org/2000/svg"><defs><linearGradient x1="0%" y1="100%" x2="100%" y2="0%" id="a"><stop stop-color="#055F4E" offset="0%"/><stop stop-color="#56C0A7" offset="100%"/></linearGradient></defs><g fill="none" fill-rule="evenodd"><path d="M0 0h40v40H0z" fill="url(#a)"/><path d="m13.339 11.665-1.896-1.882-.711.706 1.895 1.882.712-.706Zm16.1-1.216-.7-.718-1.98 1.905.698.717 1.981-1.904Zm-8.377 4.148-.996-.142-1.263 8.781.996.142 1.263-8.78Zm3.695 4.619a.5.5 0 0 0 0-.6L22.86 16.11l-.806.598 1.67 2.21-1.67 2.209.806.6 1.896-2.51Zm-6.95 1.91-1.668-2.21 1.669-2.21-.805-.597-1.896 2.508a.498.498 0 0 0 0 .599l1.896 2.51.805-.6Zm-.45 10.833h5.262l-.738 1.042h-3.88l-.644-1.042Zm5.198 1.828 1.443-2.04a.495.495 0 0 0 .035-.517.503.503 0 0 0-.446-.27h-7.13a.497.497 0 0 0-.429.761l1.265 2.041a.503.503 0 0 0 .427.238h4.423a.503.503 0 0 0 .412-.213Zm-6.542-8.766c0-.16-.078-.31-.21-.405a7.028 7.028 0 0 1-2.948-5.7c0-3.874 3.175-7.026 7.078-7.026 3.902 0 7.077 3.152 7.077 7.026 0 2.376-1 4.453-2.743 5.7a.499.499 0 0 0-.21.405v2.986h-8.044V25.02Zm9.05 3.485v-3.235c1.88-1.45 2.953-3.75 2.953-6.355 0-4.425-3.627-8.024-8.083-8.024-4.459 0-8.085 3.6-8.085 8.024a8.028 8.028 0 0 0 3.159 6.356v3.234a.5.5 0 0 0 .503.5h9.05a.5.5 0 0 0 .504-.5Zm5.1-9.478H33v-.999h-2.837v1ZM7 19.028h2.804v-.999H7v1Zm11.996-9.191h1.006V7h-1.006v2.837Z" fill="#FFF"/></g></svg>