<svg width="40" height="40" xmlns="http://www.w3.org/2000/svg"><defs><linearGradient x1="0%" y1="100%" x2="100%" y2="0%" id="a"><stop stop-color="#C8511B" offset="0%"/><stop stop-color="#F90" offset="100%"/></linearGradient></defs><g fill="none" fill-rule="evenodd"><path d="M0 0h40v40H0z" fill="url(#a)"/><path d="M24 17.962v-1.524a.505.505 0 0 0-.5-.508h-7c-.275 0-.5.227-.5.508v7.113c0 .28.225.508.5.508h7c.275 0 .5-.227.5-.508v-5.589Zm1-3.049h1v1.017h-1.092c.056.16.092.329.092.508v1.524h1v1.016h-1v2.033h1v1.016h-1v1.524c0 .179-.036.349-.092.508H26v1.017h-1v1.016h-1v-1.11a1.462 1.462 0 0 1-.5.094H22v1.016h-1v-1.016h-2v1.016h-1v-1.016h-1.5c-.176 0-.343-.037-.5-.094v1.11h-1v-1.016h-1v-1.017h1.092a1.529 1.529 0 0 1-.092-.508v-1.524h-1V21.01h1v-2.033h-1v-1.016h1v-1.524c0-.18.036-.349.092-.508H14v-1.017h1v-1.016h1v1.11c.157-.057.324-.094.5-.094H18v-1.016h1v1.016h2v-1.016h1v1.016h1.5c.176 0 .343.037.5.094v-1.11h1v1.016Zm-4 16.923v-4.728h-1v4.728l-2.119-2.529-.762.66L20.5 34l3.381-4.033-.762-.66L21 31.837ZM9.176 17.841l2.489 2.153H6v1.017h5.665l-2.489 2.153.648.774 3.971-3.435-3.971-3.436-.648.774ZM34 19.994h-5.665l2.489-2.153-.648-.774-3.971 3.436 3.971 3.435.648-.774-2.489-2.153H34v-1.017Zm-16.119-9.3-.762-.66L20.5 6l3.381 4.034-.762.66L21 8.164v4.717h-1V8.165l-2.119 2.529Z" fill="#FFF"/></g></svg>