<svg width="48" height="48" xmlns="http://www.w3.org/2000/svg"><defs><linearGradient x1="0%" y1="100%" x2="100%" y2="0%" id="a"><stop stop-color="#B0084D" offset="0%"/><stop stop-color="#FF4F8B" offset="100%"/></linearGradient></defs><g fill="none" fill-rule="evenodd"><path fill="url(#a)" d="M4 4h40v40H4z"/><path stroke="#879196" stroke-width="2" d="M1 1h46v46H1z"/><path d="M23 13h7v-2h-7v2Zm12.5-2H31v-.5a.5.5 0 0 0-.5-.5h-8a.5.5 0 0 0-.5.5v.5h-3.5a2.503 2.503 0 0 0-2.5 2.5V16h1v-2.5c0-.827.673-1.5 1.5-1.5H22v1.5a.5.5 0 0 0 .5.5h8a.5.5 0 0 0 .5-.5V12h4.5c.827 0 1.5.673 1.5 1.5v22c0 .827-.673 1.5-1.5 1.5h-17c-.827 0-1.5-.673-1.5-1.5V34h-1v1.5c0 1.378 1.121 2.5 2.5 2.5h17c1.379 0 2.5-1.122 2.5-2.5v-22c0-1.378-1.121-2.5-2.5-2.5ZM24 28H14v-1h10v-1h1v1h2v1h-2v1h-1v-1Zm-7-5h-3v-1h3v-1h1v1h9v1h-9v1h-1v-1Zm-6 9h19V18H11v14Zm20 .5v-15a.5.5 0 0 0-.5-.5h-20a.5.5 0 0 0-.5.5v15a.5.5 0 0 0 .5.5h20a.5.5 0 0 0 .5-.5Z" fill="#FFF"/></g></svg>