<svg width="40" height="40" xmlns="http://www.w3.org/2000/svg"><defs><linearGradient x1="0%" y1="100%" x2="100%" y2="0%" id="a"><stop stop-color="#C8511B" offset="0%"/><stop stop-color="#F90" offset="100%"/></linearGradient></defs><g fill="none" fill-rule="evenodd"><path d="M0 0h40v40H0z" fill="url(#a)"/><path d="M20 31.058c-.945 0-1.86-.121-2.743-.33L20 21.564l2.743 9.164c-.883.209-1.798.33-2.743.33Zm-7.584-11.236h3.186c.102 2.633.794 5.014 1.875 6.442-2.821-.936-4.796-3.46-5.061-6.442Zm5.058-7.786c-.543.715-.994 1.668-1.318 2.792a11.218 11.218 0 0 1-1.913-.617 7.607 7.607 0 0 1 3.231-2.175Zm7.997 2.13a10.94 10.94 0 0 1-1.887.628c-.326-1.114-.775-2.06-1.315-2.767a7.571 7.571 0 0 1 3.202 2.14Zm-3.039 12.037-.035-.115c1.021-1.447 1.656-3.727 1.752-6.266h3.185c-.262 2.899-2.178 5.4-4.902 6.38Zm.717-6.381c-.079 1.917-.491 3.692-1.14 4.97l-1.488-4.97h2.628Zm1.013-1.002a16.17 16.17 0 0 0-.334-3.055c.834-.204 1.602-.47 2.275-.794a7.464 7.464 0 0 1 1.27 3.849h-3.211Zm-4.42-7.193c.044-.006.081-.005.128-.005a.793.793 0 0 1 .146.008c.963.106 1.968 1.371 2.578 3.37-.884.15-1.825.231-2.791.231-.916 0-1.811-.07-2.655-.205.609-2.014 1.619-3.29 2.594-3.399ZM16.9 15.998a17.827 17.827 0 0 0 5.943-.026c.184.857.299 1.813.319 2.848h-6.574a15.1 15.1 0 0 1 .312-2.822Zm-4.523 2.822a7.458 7.458 0 0 1 1.232-3.795c.685.318 1.463.578 2.304.775a16.34 16.34 0 0 0-.325 3.02h-3.211Zm5.522 6.278c-.744-1.29-1.213-3.183-1.297-5.276h2.877l-1.58 5.276Zm13.335-10.307c.508 1.354.766 2.78.766 4.24 0 5.334-3.486 9.863-8.293 11.433l-.982-3.282C26.083 26 28.39 22.77 28.39 19.15c0-4.591-3.727-8.413-8.247-8.514a1.696 1.696 0 0 0-.485-.005l-.04.003h-.005c-4.554.13-8.253 3.94-8.253 8.516 0 3.742 2.399 7.004 5.89 8.115l-.957 3.199C11.486 28.894 8 24.365 8 19.03c0-6.632 5.383-12.028 12-12.028 2.85 0 5.54.986 7.693 2.797H25.5V10.8h4v-4.01h-1v2.391A12.864 12.864 0 0 0 20 6C12.832 6 7 11.846 7 19.03c0 5.787 3.787 10.7 9.006 12.395l-.985 3.287.958.288.991-3.312c.973.235 1.985.372 3.03.372 1.045 0 2.057-.137 3.03-.372L24.021 35l.958-.288-.985-3.287C29.213 29.73 33 24.817 33 19.03c0-1.58-.279-3.125-.83-4.592l-.936.353Z" fill="#FFF"/></g></svg>