<svg width="40" height="40" xmlns="http://www.w3.org/2000/svg"><defs><linearGradient x1="0%" y1="100%" x2="100%" y2="0%" id="a"><stop stop-color="#4D27A8" offset="0%"/><stop stop-color="#A166FF" offset="100%"/></linearGradient></defs><g fill="none" fill-rule="evenodd"><path d="M0 0h40v40H0z" fill="url(#a)"/><path d="m15.244 9.811-4.478-3.403.606-.796 4.477 3.403-.605.796Zm8.944-.012-.605-.796L28.06 5.6l.606.796-4.478 3.403Zm3.872 7.672-4.477-3.404.605-.796 4.478 3.404-.606.796ZM25 11.985h7v-1h-7v1Zm-9.756 1.299.605.796-4.477 3.403-.606-.796 4.478-3.403ZM8 11.985h7v-1H8v1Zm16 20.806v-8.806h-8v8.792c-4.373-.279-7.085-.967-7.498-1.398.2-6.115 5.178-10.894 11.366-10.894 5.939 0 11.015 4.964 11.355 11.083-.429.431-3.056.991-7.223 1.223Zm-1 .048c-.945.038-1.953.061-3.029.061-1.056 0-2.042-.026-2.971-.069v-7.846h6v7.854Zm-5-20.485c0-1.103.897-2 2-2 1.102 0 2 .897 2 2s-.898 2-2 2c-1.103 0-2-.897-2-2Zm2.5 7.164v-4.215a2.997 2.997 0 0 0 2.5-2.949c0-1.654-1.346-3-3-3s-3 1.346-3 3a2.997 2.997 0 0 0 2.5 2.949v4.2c-6.589.188-11.83 5.354-12 11.944 0 2.012 9.002 2.453 12.471 2.453 2.046 0 12.256-.109 12.256-2.266l-.001-.024c-.309-6.466-5.509-11.751-11.726-12.092Z" fill="#FFF"/></g></svg>