<svg width="40" height="40" xmlns="http://www.w3.org/2000/svg"><defs><linearGradient x1="0%" y1="100%" x2="100%" y2="0%" id="a"><stop stop-color="#C8511B" offset="0%"/><stop stop-color="#F90" offset="100%"/></linearGradient></defs><g fill="none" fill-rule="evenodd"><path d="M0 0h40v40H0z" fill="url(#a)"/><path d="M25 23.815v-5.92l2 2.273v5.617l-2-1.97Zm-2.5 4.664c1.379 0 2.5-1.12 2.5-2.5v-.76l2.149 2.117A.502.502 0 0 0 28 26.98v-7a.497.497 0 0 0-.125-.33L25 16.381V14.48h-1v11.5c0 .827-.673 1.5-1.5 1.5h-1.048c-.276 0-.452.224-.452.5v2.5h1v-2h.5ZM13 25.785v-5.617l2-2.274v5.921l-2 1.97Zm5 2.694v2h1v-2.5c0-.276-.176-.5-.452-.5H17.5c-.827 0-1.5-.673-1.5-1.5v-11.5h-1v1.902l-2.875 3.268a.497.497 0 0 0-.125.33v7a.5.5 0 0 0 .851.357L15 25.218v.761c0 1.38 1.121 2.5 2.5 2.5h.5Zm1-8h2v-2h-2v2Zm-.5-3a.5.5 0 0 0-.5.5v3a.5.5 0 0 0 .5.5h3a.5.5 0 0 0 .5-.5v-3a.5.5 0 0 0-.5-.5h-3ZM20.031 7l4.552 5.542A20.162 20.162 0 0 0 20 12.025c-1.872 0-3.477.27-4.58.527L20.031 7ZM14 13.98a.53.53 0 0 0 .175-.032c.025-.01 2.512-.923 5.825-.923 3.447 0 5.793.91 5.816.92a.5.5 0 0 0 .571-.783l-5.576-6.789c-.393-.5-1.235-.493-1.616-.008l-5.582 6.797a.498.498 0 0 0-.019.607c.095.135.249.21.406.21Zm5 19.5h2v-1h-2v1Zm-2-1h1v1.5a.5.5 0 0 0 .5.5h3a.5.5 0 0 0 .5-.5v-1.5h1v-1h-6v1Z" fill="#FFF"/></g></svg>