<svg width="40" height="40" xmlns="http://www.w3.org/2000/svg"><defs><linearGradient x1="0%" y1="100%" x2="100%" y2="0%" id="a"><stop stop-color="#C8511B" offset="0%"/><stop stop-color="#F90" offset="100%"/></linearGradient></defs><g fill="none" fill-rule="evenodd"><path d="M0 0h40v40H0z" fill="url(#a)"/><path d="m30.999 23.79-3.387-1.857a7.973 7.973 0 0 0 .387-2.45c0-3.719-2.555-6.845-5.999-7.737V7.388l8.999 5.456V23.79Zm-11.156 8.203L9 25.703V12.814l8.999-5.429v4.36c-3.445.892-6 4.017-6 7.737 0 4.411 3.589 8 8 8a7.963 7.963 0 0 0 5.405-2.119l3.185 1.818-8.746 4.811Zm.94-19.463c.992 1.14 1.6 3.731 1.693 6.466h-4.947c.108-2.578.687-5.085 1.721-6.472.246-.026.496-.04.749-.04.265 0 .526.017.784.046Zm2.697 6.466c-.061-2.348-.493-4.627-1.291-6.157a7.007 7.007 0 0 1 4.785 6.157H23.48Zm.002 1h3.491a7.007 7.007 0 0 1-4.683 6.095c.754-1.585 1.148-3.817 1.192-6.095Zm-4.469 6.41c-.993-1.323-1.488-3.817-1.503-6.41h4.976c-.031 2.523-.51 4.998-1.531 6.414a7.018 7.018 0 0 1-.956.073c-.336 0-.663-.032-.986-.077Zm-2.515-6.41c.016 2.285.396 4.507 1.152 6.073a7.004 7.004 0 0 1-4.625-6.073h3.473Zm-3.474-1a7.012 7.012 0 0 1 4.883-6.193c-.832 1.608-1.299 3.876-1.392 6.193h-3.491Zm18.734-6.862-9.999-6.062A.5.5 0 0 0 21 6.5v5.052a8.063 8.063 0 0 0-1.001-.069c-.339 0-.672.028-1 .07V6.5a.5.5 0 0 0-.758-.428l-9.999 6.032a.501.501 0 0 0-.242.43V25.99c0 .178.095.343.249.433L19.585 33a.498.498 0 0 0 .492.006l9.776-5.378a.499.499 0 0 0 .006-.872l-3.738-2.132a7.976 7.976 0 0 0 1.116-1.755l4.022 2.204a.498.498 0 0 0 .495-.009.498.498 0 0 0 .245-.43v-12.07a.5.5 0 0 0-.241-.429Z" fill="#FFF"/></g></svg>