<svg width="40" height="40" xmlns="http://www.w3.org/2000/svg"><defs><linearGradient x1="0%" y1="100%" x2="100%" y2="0%" id="a"><stop stop-color="#C8511B" offset="0%"/><stop stop-color="#F90" offset="100%"/></linearGradient></defs><g fill="none" fill-rule="evenodd"><path d="M0 0h40v40H0z" fill="url(#a)"/><path d="M30 20.741h1v-.98h-1v.98Zm-1 .98h3v-2.94h-3v2.94Zm-7-.98h1v-.98h-1v.98Zm-1 .98h3v-2.94h-3v2.94Zm-7-.98h1v-.98h-1v.98Zm-1 .98h3v-2.94h-3v2.94Zm20 .98h-5v-1.96h-3v1.96h-5v-1.96h-3v1.96h-5v-4.9h5v1.96h3v-1.96h5v1.96h3v-1.96h5v4.9Zm.201-5.88h-5.402a.792.792 0 0 0-.799.783v1.177h-1v-1.177a.792.792 0 0 0-.799-.783h-5.402a.792.792 0 0 0-.799.783v1.177h-1v-1.177a.792.792 0 0 0-.799-.783h-5.402a.792.792 0 0 0-.799.783v5.294c0 .432.358.784.799.784h5.402a.792.792 0 0 0 .799-.784v-1.176h1v1.176c0 .432.358.784.799.784h5.402a.792.792 0 0 0 .799-.784v-1.176h1v1.176c0 .432.358.784.799.784h5.402a.792.792 0 0 0 .799-.784v-5.294a.792.792 0 0 0-.799-.783ZM15.5 8.981c4.293 0 7.5 1.293 7.5 2.45 0 1.156-3.207 2.45-7.5 2.45S8 12.587 8 11.43c0-1.157 3.207-2.45 7.5-2.45ZM23 28.453c0 1.213-3.08 2.566-7.5 2.566S8 29.667 8 28.454v-3.88c1.318 1.153 3.693 2.119 6.902 2.119 3.842 0 5.854-.886 5.938-.925l-.417-.89c-.019.008-1.921.835-5.521.835-3.596 0-6.164-1.327-6.902-2.662v-4.204c.407.389.947.744 1.712 1.027l.353-.916C8.813 18.494 8.331 17.81 8 17.19v-4.088c1.526 1.15 4.574 1.759 7.5 1.759s5.974-.609 7.5-1.759v2.739h1v-4.9h-.082C23.325 9.027 19.306 8 15.5 8c-3.806 0-7.825 1.028-8.418 2.94H7v17.514C7 30.756 11.38 32 15.5 32s8.5-1.244 8.5-3.546v-3.792h-1v3.792Z" fill="#FFF"/></g></svg>