<svg width="40" height="40" xmlns="http://www.w3.org/2000/svg"><defs><linearGradient x1="0%" y1="100%" x2="100%" y2="0%" id="a"><stop stop-color="#B0084D" offset="0%"/><stop stop-color="#FF4F8B" offset="100%"/></linearGradient></defs><g fill="none" fill-rule="evenodd"><path d="M0 0h40v40H0z" fill="url(#a)"/><path d="M28.986 32.001h3.016v-3.039h-3.016v3.039Zm-10.025 0h3.077v-3.039h-3.077v3.039Zm-9.963 0h3.037v-3.039H8.998v3.039Zm23.503-4.038h-1.498v-2.497a.5.5 0 0 0-.499-.5H21.02V22.97h-.998v1.997h-9.484c-.277 0-.5.224-.5.5v2.497H8.5c-.276 0-.499.224-.499.5V32.5c0 .275.223.499.5.499h4.034a.5.5 0 0 0 .5-.5v-4.037a.5.5 0 0 0-.5-.5h-1.497v-1.998h8.985v1.998h-1.56a.5.5 0 0 0-.5.5V32.5a.5.5 0 0 0 .5.499h4.076c.276 0 .499-.224.499-.5v-4.037c0-.276-.223-.5-.5-.5H21.02v-1.998h8.985v1.998h-1.518a.5.5 0 0 0-.5.5V32.5a.5.5 0 0 0 .5.499H32.5a.5.5 0 0 0 .499-.5v-4.037a.5.5 0 0 0-.5-.5ZM20.537 9.04l4.788 1.983-4.803 2.397-4.775-2.396 4.79-1.984Zm.497 11.6-.013-6.353 5.007-2.499v5.882l-4.994 2.97Zm-5.988-8.85 4.977 2.497.013 6.351-4.99-2.968v-5.88Zm5.235 10.157a.51.51 0 0 0 .512 0l5.99-3.563a.501.501 0 0 0 .243-.43v-6.973a.5.5 0 0 0-.307-.461l-5.99-2.482a.497.497 0 0 0-.383 0l-5.99 2.482a.5.5 0 0 0-.308.461v6.974c0 .176.093.34.243.43l5.99 3.562Z" fill="#FFF"/></g></svg>