<svg width="48" height="48" xmlns="http://www.w3.org/2000/svg"><defs><linearGradient x1="0%" y1="100%" x2="100%" y2="0%" id="a"><stop stop-color="#C8511B" offset="0%"/><stop stop-color="#F90" offset="100%"/></linearGradient></defs><g fill="none" fill-rule="evenodd"><path fill="url(#a)" d="M4 4h40v40H4z"/><path stroke="#879196" stroke-width="2" d="M1 1h46v46H1z"/><path d="M18 30h12V18H18v12Zm12.5-13h-13a.5.5 0 0 0-.5.5v13a.5.5 0 0 0 .5.5h13a.5.5 0 0 0 .5-.5v-13a.5.5 0 0 0-.5-.5Zm3.5 2v15H14V14h20v5Zm1-5.5a.5.5 0 0 0-.5-.5H32v-3h-1v3h-2v-3h-1v3h-2v-3h-1v3h-2v-3h-1v3h-2v-3h-1v3h-2v-3h-1v3h-2.5a.5.5 0 0 0-.5.5V16h-3v1h3v2h-3v1h3v2h-3v1h3v2h-3v1h3v2h-3v1h3v2h-3v1h3v2.5a.5.5 0 0 0 .5.5H16v3h1v-3h2v3h1v-3h2v3h1v-3h2v3h1v-3h2v3h1v-3h2v3h1v-3h2.5a.5.5 0 0 0 .5-.5V32h3v-1h-3v-2h3v-1h-3v-2h3v-1h-3v-2h3v-1h-3v-2h3v-1h-3v-2h3v-1h-3v-2.5Z" fill="#FFF"/></g></svg>