<svg width="40" height="40" xmlns="http://www.w3.org/2000/svg"><defs><linearGradient x1="0%" y1="100%" x2="100%" y2="0%" id="a"><stop stop-color="#2E27AD" offset="0%"/><stop stop-color="#527FFF" offset="100%"/></linearGradient></defs><g fill="none" fill-rule="evenodd"><path d="M0 0h40v40H0z" fill="url(#a)"/><path d="M28 28.848c-.827 0-1.5-.673-1.5-1.5s.673-1.5 1.5-1.5 1.5.673 1.5 1.5-.673 1.5-1.5 1.5Zm0-4a2.503 2.503 0 0 0-2.5 2.5c0 1.378 1.121 2.5 2.5 2.5s2.5-1.122 2.5-2.5-1.121-2.5-2.5-2.5Zm5 3.064-.384-.022a.504.504 0 0 0-.515.389 4.203 4.203 0 0 1-.543 1.31.5.5 0 0 0 .089.64l.288.256-.798.797-.254-.285a.499.499 0 0 0-.64-.09 4.217 4.217 0 0 1-1.312.544.5.5 0 0 0-.389.516l.021.381h-1.126l.021-.382a.499.499 0 0 0-.389-.516 4.183 4.183 0 0 1-1.311-.544.502.502 0 0 0-.64.09l-.255.286-.798-.797.287-.255a.5.5 0 0 0 .089-.639 4.246 4.246 0 0 1-.542-1.312.504.504 0 0 0-.515-.389l-.384.022v-1.128l.385.022a.498.498 0 0 0 .515-.388c.107-.465.289-.905.544-1.309a.5.5 0 0 0-.09-.64l-.289-.258.798-.798.258.289c.162.182.434.22.64.09a4.145 4.145 0 0 1 1.308-.541.5.5 0 0 0 .389-.516l-.021-.387h1.126l-.021.387a.5.5 0 0 0 .389.516 4.17 4.17 0 0 1 1.308.542.5.5 0 0 0 .64-.09l.258-.289.798.797-.289.257a.5.5 0 0 0-.089.64c.255.404.437.844.543 1.309a.498.498 0 0 0 .515.389l.385-.022v1.128Zm.844-2.021a.529.529 0 0 0-.372-.135l-.508.029a5.194 5.194 0 0 0-.349-.841l.38-.339a.5.5 0 0 0 .021-.727l-1.546-1.546a.538.538 0 0 0-.368-.146.5.5 0 0 0-.359.167l-.341.382a5.046 5.046 0 0 0-.839-.348l.029-.511a.501.501 0 0 0-.499-.528h-2.186a.501.501 0 0 0-.499.528l.029.51a5.18 5.18 0 0 0-.84.348l-.34-.381a.501.501 0 0 0-.36-.167c-.097.009-.269.049-.367.146l-1.546 1.546a.5.5 0 0 0 .021.727l.381.34c-.141.269-.257.55-.349.84l-.509-.029a.532.532 0 0 0-.372.135.505.505 0 0 0-.156.364v2.186c0 .138.057.269.156.364a.49.49 0 0 0 .372.135l.507-.029c.091.291.207.572.349.842l-.379.338a.5.5 0 0 0-.021.727l1.546 1.546a.5.5 0 0 0 .727-.021l.338-.378c.27.141.551.258.842.349l-.029.506a.501.501 0 0 0 .499.528h2.186a.501.501 0 0 0 .499-.528l-.029-.505c.291-.092.573-.208.843-.35l.337.378a.497.497 0 0 0 .359.167.465.465 0 0 0 .368-.146l1.546-1.546a.5.5 0 0 0-.021-.727l-.379-.338c.141-.27.257-.551.349-.842l.507.029a.488.488 0 0 0 .372-.135.505.505 0 0 0 .156-.364v-2.186a.505.505 0 0 0-.156-.364ZM15 15.848c0-1.93 1.57-3.5 3.5-3.5s3.5 1.57 3.5 3.5-1.57 3.5-3.5 3.5-3.5-1.57-3.5-3.5Zm3.003 4.798c1.05 0 2.458.641 3.674 1.674l.646-.763a9.048 9.048 0 0 0-2.371-1.47C21.719 19.479 23 17.819 23 15.848c0-2.481-2.019-4.5-4.5-4.5a4.505 4.505 0 0 0-4.5 4.5c0 1.76 1.025 3.271 2.501 4.01-2.927.82-5.13 3.989-5.414 7.973L7 25.625v-12.68l11-5.814 11 5.814v6.403h1v-7.005L18 6 6 12.343v13.879l11.986 6.47 3.23-1.55-.432-.901-2.77 1.329-5.953-3.214c.132-4.338 2.711-7.71 5.942-7.71Z" fill="#FFF"/></g></svg>