<svg width="40" height="40" xmlns="http://www.w3.org/2000/svg"><defs><linearGradient x1="0%" y1="100%" x2="100%" y2="0%" id="a"><stop stop-color="#BD0816" offset="0%"/><stop stop-color="#FF5252" offset="100%"/></linearGradient></defs><g fill="none" fill-rule="evenodd"><path d="M0 0h40v40H0z" fill="url(#a)"/><path d="M21.08 22.12a.58.58 0 1 0-1.16 0 .58.58 0 0 0 1.16 0Zm1 0c0 .695-.455 1.281-1.08 1.491V25h-1v-1.389a1.577 1.577 0 0 1-1.08-1.491c0-.871.709-1.58 1.58-1.58.871 0 1.58.709 1.58 1.58Zm2.829 3.864v-.986H23v-1h1.909v-2.012H23v-1h1.909v-.974h-8.818v5.972h8.818Zm-7.938-6.972h7.018V17c0-1.272-1.327-3.046-3.487-3.046-2.188 0-3.531 1.774-3.531 3.046v2.012ZM24.989 17v2.012h.42a.5.5 0 0 1 .5.5v6.972a.5.5 0 0 1-.5.5h-9.818a.499.499 0 0 1-.5-.5v-6.972c0-.277.223-.5.5-.5h.38V17c0-1.914 1.861-4.046 4.531-4.046 2.644 0 4.487 2.132 4.487 4.046ZM10.461 27.766l.81-.586A11.27 11.27 0 0 1 9.138 21H11v-1H9.139a11.28 11.28 0 0 1 2.132-6.145l-.81-.586A12.267 12.267 0 0 0 8.139 20H7v1h1.138c.093 2.449.885 4.78 2.323 6.766Zm16.7 1.98A11.26 11.26 0 0 1 21 31.878V30h-1v1.879a11.275 11.275 0 0 1-6.163-2.133l-.586.811A12.272 12.272 0 0 0 20 32.879V34h1v-1.122a12.255 12.255 0 0 0 6.747-2.322l-.586-.81ZM13.837 11.289A11.273 11.273 0 0 1 20 9.157V11h1V9.157c2.23.096 4.352.823 6.161 2.132l.586-.81A12.263 12.263 0 0 0 21 8.157V7h-1v1.157a12.264 12.264 0 0 0-6.749 2.322l.586.81ZM32.859 20a12.26 12.26 0 0 0-2.321-6.731l-.811.586A11.274 11.274 0 0 1 31.859 20H30v1h1.86a11.26 11.26 0 0 1-2.133 6.18l.811.586A12.252 12.252 0 0 0 32.86 21H34v-1h-1.141Zm-4.446-6.689 3.779-3.78-.707-.707-3.779 3.78.707.707ZM12.586 27.724l-3.78 3.78.707.707 3.78-3.78-.707-.707Zm2.462-13.383L7.892 7.186l-.707.707 7.156 7.155.707-.707Zm12.307 12.308 6.457 6.457-.707.707-6.457-6.457.707-.707Z" fill="#FFF"/></g></svg>