<svg width="40" height="40" xmlns="http://www.w3.org/2000/svg"><defs><linearGradient x1="0%" y1="100%" x2="100%" y2="0%" id="a"><stop stop-color="#055F4E" offset="0%"/><stop stop-color="#56C0A7" offset="100%"/></linearGradient></defs><g fill="none" fill-rule="evenodd"><path d="M0 0h40v40H0z" fill="url(#a)"/><path d="M16.002 23.997h7.99v-8.014h-7.99v8.014Zm-1.005.353v-8.72c0-.359.292-.651.651-.651h8.696c.36 0 .652.292.652.65v8.721c0 .359-.293.651-.652.651h-8.696a.652.652 0 0 1-.65-.65ZM33.936 15h-5.9v1.004h4.96v16.993H16.003v-4.96h-1.005v5.397l.063.567h18.372l.567-.064V15.564L33.936 15ZM7.004 23.997h4.96V25H6.068L6 24.431V6.069L6.57 6h18.363l.069.572v5.392h-1.005v-4.96H7.004v16.993Z" fill="#FFF"/></g></svg>