<svg width="40" height="40" xmlns="http://www.w3.org/2000/svg"><defs><linearGradient x1="0%" y1="100%" x2="100%" y2="0%" id="a"><stop stop-color="#4D27A8" offset="0%"/><stop stop-color="#A166FF" offset="100%"/></linearGradient></defs><g fill="none" fill-rule="evenodd"><path d="M0 0h40v40H0z" fill="url(#a)"/><path d="m16.298 27.242-2.035-2.035 2.035-2.035-.707-.707-2.389 2.388a.5.5 0 0 0 0 .707l2.389 2.389.707-.707ZM26.354 14.56a.5.5 0 0 0 0-.707l-2.389-2.388-.707.707 2.035 2.035-2.035 2.035.707.707 2.389-2.389ZM25 26.02h6v-1h-6v1Zm-6 4h15v-1H19v1Zm-10-15h6v-1H9v1Zm-3-4h15v-1H6v1ZM24.265 7a7.59 7.59 0 0 0-3.682.952l.486.874A6.593 6.593 0 0 1 24.265 8a6.592 6.592 0 0 1 6.585 6.585 6.592 6.592 0 0 1-6.585 6.585c-.439 0-.871-.06-1.298-.149l-.345.951a7.495 7.495 0 0 0 1.643.198c4.182 0 7.585-3.403 7.585-7.585S28.447 7 24.265 7Zm-6.36 9.304a6.675 6.675 0 0 1-.225-1.719c0-.874.168-1.721.499-2.518l-.924-.384a7.613 7.613 0 0 0-.314 4.88l.964-.259ZM21.5 32.02h-12a.5.5 0 0 1-.5-.5v-12a.5.5 0 0 1 .5-.5h12a.5.5 0 0 1 .5.5v8.5h-1v-8H10v11h12v.5c0 .277-.223.5-.5.5Z" fill="#FFF"/></g></svg>