<svg width="40" height="40" xmlns="http://www.w3.org/2000/svg"><defs><linearGradient x1="0%" y1="100%" x2="100%" y2="0%" id="a"><stop stop-color="#C8511B" offset="0%"/><stop stop-color="#F90" offset="100%"/></linearGradient></defs><g fill="none" fill-rule="evenodd"><path d="M0 0h40v40H0z" fill="url(#a)"/><path d="M32 18.127c-.541-1.768-1.303-3.585-2.291-5.47L32 13.802v4.325Zm-11.641 4.52a.514.514 0 0 0-.718 0c-.142.145-3.465 3.622-3.465 7.26 0 .49.09 1.03.251 1.555C15.521 30.46 15 29.073 15 27.493c0-5.05 3.779-10.187 5-11.715 1.221 1.528 5 6.665 5 11.715 0 1.58-.521 2.966-1.427 3.97a5.423 5.423 0 0 0 .251-1.557c0-3.637-3.323-7.114-3.465-7.26ZM20 7.231c1.602 1.786 8 9.393 8 16.94a8.336 8.336 0 0 1-2.441 5.875c.282-.782.441-1.64.441-2.554 0-6.374-5.396-12.57-5.625-12.83a.515.515 0 0 0-.75 0c-.229.26-5.625 6.456-5.625 12.83 0 .915.159 1.772.441 2.554A8.336 8.336 0 0 1 12 24.171c0-7.546 6.398-15.153 8-16.939Zm-12 6.57 2.291-1.145c-.988 1.885-1.75 3.702-2.291 5.47v-4.325Zm13.716 20.141c.008-.003.014-.009.022-.013l.001.002 11-6a.499.499 0 0 0 .261-.439v-14a.5.5 0 0 0-.276-.447l-4-2a.5.5 0 0 0-.658.696C30.713 16.357 32 20.528 32 24.493v2.703l-4.995 2.725A9.348 9.348 0 0 0 29 24.171c0-8.99-8.288-17.66-8.641-18.025a.514.514 0 0 0-.718 0C19.288 6.51 11 15.181 11 24.171c0 2.127.738 4.143 1.996 5.75L8 27.196v-2.703c0-3.965 1.287-8.136 3.934-12.75a.5.5 0 0 0-.658-.697l-4 2a.5.5 0 0 0-.276.447v14c0 .183.1.352.261.44l11 6 .001-.003.022.014.455-.89-.034-.018c-.944-.463-1.529-1.98-1.529-3.13 0-2.567 1.991-5.18 2.824-6.16.833.98 2.824 3.593 2.824 6.16 0 1.151-.587 2.672-1.534 3.132l-.029.016.455.89Z" fill="#FFF"/></g></svg>