<svg width="40" height="40" xmlns="http://www.w3.org/2000/svg"><defs><linearGradient x1="0%" y1="100%" x2="100%" y2="0%" id="a"><stop stop-color="#B0084D" offset="0%"/><stop stop-color="#FF4F8B" offset="100%"/></linearGradient></defs><g fill="none" fill-rule="evenodd"><path d="M0 0h40v40H0z" fill="url(#a)"/><path d="m17.133 13.812-2.476-3.095.782-.625L17.764 13h8.529l-1.146-1.147.707-.707 2 2a.5.5 0 0 1 0 .707l-2 2-.707-.707 1.146-1.147h-8.769a.498.498 0 0 1-.391-.187Zm10.721 12.334a.5.5 0 0 1 0 .707l-2 2-.707-.707L26.293 27h-8.529l-2.325 2.907-.782-.625 2.476-3.095a.498.498 0 0 1 .391-.187h8.769l-1.146-1.147.707-.707 2 2Zm6-5.793-2 2-.707-.707 1.146-1.147H21v-1h11.293l-1.146-1.146.707-.707 2 2a.5.5 0 0 1 0 .707ZM9 32.999c-1.102 0-2-.896-2-2a2.001 2.001 0 0 1 4 0c0 1.104-.897 2-2 2Zm7-15c1.103 0 2 .897 2 2A2.002 2.002 0 0 1 16 22c-1.102 0-2-.897-2-2.001 0-1.103.898-2 2-2ZM7 9c0-1.104.898-2 2-2 1.103 0 2 .896 2 2a2.001 2.001 0 0 1-4 0Zm3.947 19.737 4.392-5.817c.214.049.434.08.661.08 1.654 0 3-1.346 3-3.001A3.003 3.003 0 0 0 16 17c-.227 0-.447.03-.661.079l-4.392-5.817A2.979 2.979 0 0 0 12 9c0-1.655-1.346-3-3-3S6 7.345 6 9c0 1.654 1.346 3 3 3a2.98 2.98 0 0 0 1.139-.228l-.038.029 4.286 5.677A2.996 2.996 0 0 0 13 19.999c0 1.06.556 1.988 1.387 2.522l-4.286 5.677.038.029A2.979 2.979 0 0 0 9 28c-1.654 0-3 1.345-3 2.999 0 1.655 1.346 3 3 3s3-1.345 3-3c0-.907-.414-1.712-1.053-2.262Z" fill="#FFF"/></g></svg>