<svg width="48" height="48" xmlns="http://www.w3.org/2000/svg"><defs><linearGradient x1="0%" y1="100%" x2="100%" y2="0%" id="a"><stop stop-color="#055F4E" offset="0%"/><stop stop-color="#56C0A7" offset="100%"/></linearGradient></defs><g fill="none" fill-rule="evenodd"><path fill="url(#a)" d="M4 4h40v40H4z"/><path stroke="#879196" stroke-width="2" d="M1 1h46v46H1z"/><path d="M29.012 23.697a5.082 5.082 0 0 0-3.389-4.788l.332-.943a6.083 6.083 0 0 1 4.057 5.73 6.084 6.084 0 0 1-4.049 5.729l-.334-.943a5.083 5.083 0 0 0 3.383-4.785Zm8.394 2.749-1.967 4.779a.499.499 0 0 1-.679.26l-1.568-.753a11.527 11.527 0 0 1-2.178 2.185l.761 1.568a.502.502 0 0 1-.258.679l-4.77 1.989a.51.51 0 0 1-.395-.005.5.5 0 0 1-.269-.291l-.715-2.035.944-.332.539 1.536 3.793-1.581-.712-1.465a.5.5 0 0 1 .161-.626 10.527 10.527 0 0 0 2.531-2.54.501.501 0 0 1 .626-.163l1.466.704 1.564-3.8-1.536-.531a.501.501 0 0 1-.33-.557c.202-1.19.201-2.397-.007-3.587a.5.5 0 0 1 .326-.558l1.534-.54-1.581-3.791-1.467.712a.499.499 0 0 1-.626-.16 10.55 10.55 0 0 0-2.54-2.528.5.5 0 0 1-.164-.626l.707-1.47-3.801-1.564-.534 1.542-.945-.327.708-2.042a.5.5 0 0 1 .663-.3l4.779 1.968a.502.502 0 0 1 .261.678l-.756 1.573a11.54 11.54 0 0 1 2.185 2.175l1.569-.762a.503.503 0 0 1 .681.257l1.988 4.77a.5.5 0 0 1-.296.664l-1.642.577c.142 1.025.144 2.06.008 3.087l1.643.568a.501.501 0 0 1 .299.663ZM20.749 28.75l.001-2.858c0-.183-.1-.352-.26-.44L18 24.099v-2.592l2.758-1.657a.5.5 0 0 0 .242-.428V14.71h-1v4.429l-2.512 1.51L14 18.97v-3.417l3-2.174v4.33h1v-5h-.075l2.225-1.613L23 12.71l-.001 10.712-2.427-1.41-.502.867 2.929 1.699v2.876l-2.25 1.296Zm2.25 6.195-2.883 1.687-2.452-1.408 3.064-1.837-.514-.857-3.544 2.124L14 33.12V29.91l3.011-1.734-.5-.866-2.894 1.667-2.616-1.758L11 24.677l2.88-1.66-.5-.865-2.38 1.37.001-2.015 2.652-1.594L17 21.523v2.378l-3.723 1.86.447.896 3.588-1.794 2.438 1.326-.001 3.137-3.364 1.938.5.867 6.114-3.523v6.337Zm-2.626-24.876a.5.5 0 0 0-.547.027l-6.619 4.799A.499.499 0 0 0 13 15.3v3.839l-2.757 1.657a.5.5 0 0 0-.242.428v.282l-.001.03v5.638l.001.03v.282c0 .167.083.322.222.415L13 29.767v3.644c0 .179.096.345.251.433l6.619 3.799a.495.495 0 0 0 .502-.002l3.38-1.978a.499.499 0 0 0 .247-.432L24 12.479a.496.496 0 0 0-.247-.431l-3.38-1.98Z" fill="#FFF"/></g></svg>