<svg width="40" height="40" xmlns="http://www.w3.org/2000/svg"><defs><linearGradient x1="0%" y1="100%" x2="100%" y2="0%" id="a"><stop stop-color="#055F4E" offset="0%"/><stop stop-color="#56C0A7" offset="100%"/></linearGradient></defs><g fill="none" fill-rule="evenodd"><path d="M0 0h40v40H0z" fill="url(#a)"/><path d="m31.743 29.309-6.51-6.32a10.182 10.182 0 0 1-2.108 2.072l6.321 6.538c.203.2.45.258.77.178.344-.088.736-.336 1.103-.7.412-.408 1.017-1.181.424-1.768Zm-14.722-3.245c5.092 0 9.235-4.06 9.235-9.05 0-4.973-4.143-9.019-9.235-9.019-5.056 0-9.016 3.962-9.016 9.019 0 5.075 3.96 9.05 9.016 9.05Zm15.009 5.717c-.499.494-1.04.827-1.564.96a2.03 2.03 0 0 1-.504.066c-.466 0-.893-.175-1.234-.513l-6.454-6.673a10.315 10.315 0 0 1-5.253 1.439C11.401 27.06 7 22.648 7 17.014 7 11.399 11.402 7 17.021 7c5.646 0 10.24 4.492 10.24 10.014 0 1.878-.538 3.63-1.454 5.135l6.644 6.453c.863.853.699 2.07-.421 3.179Zm-8.863-14.767c0-3.342-2.7-5.96-6.146-5.96-3.38 0-5.927 2.562-5.927 5.96 0 3.416 2.547 5.992 5.927 5.992 3.446 0 6.146-2.631 6.146-5.992Zm1.005 0c0 3.853-3.209 6.987-7.151 6.987-3.887 0-6.932-3.069-6.932-6.987 0-3.965 2.98-6.956 6.932-6.956 4.01 0 7.151 3.056 7.151 6.956Zm-3.574-3.994h-6.593v.995h6.09V20H21.1v-6.482a.5.5 0 0 0-.502-.498Zm-6.593 7.011h5.026v-.995h-5.026v.995ZM13 18.1h6.031v-.996h-6.03v.996Zm6.001 13.906H10.96v-5.039H9.954v5.536a.5.5 0 0 0 .503.498h9.047a.5.5 0 0 0 .502-.498v-4.54h-1.005v4.043Zm-6-15.955h6.03v-.995h-6.03v.995Z" fill="#FFF"/></g></svg>