<svg width="40" height="40" xmlns="http://www.w3.org/2000/svg"><defs><linearGradient x1="0%" y1="100%" x2="100%" y2="0%" id="a"><stop stop-color="#B0084D" offset="0%"/><stop stop-color="#FF4F8B" offset="100%"/></linearGradient></defs><g fill="none" fill-rule="evenodd"><path d="M0 0h40v40H0z" fill="url(#a)"/><path d="M33 9.028c0-1.11-.887-2.01-1.977-2.01A2.018 2.018 0 0 0 29 9.027c0 1.116.927 2.059 2.023 2.059 1.09 0 1.977-.924 1.977-2.06Zm1 0c0 1.696-1.335 3.076-2.977 3.076-1.638 0-3.023-1.409-3.023-3.076A3.029 3.029 0 0 1 31.023 6C32.665 6 34 7.358 34 9.028Zm-5 21.47c0-1.147-.916-2.115-2-2.115s-2 .968-2 2.114c0 1.097.879 1.956 2 1.956s2-.86 2-1.956Zm1 0c0 1.666-1.317 2.972-3 2.972s-3-1.306-3-2.973c0-1.698 1.374-3.131 3-3.131s3 1.433 3 3.131ZM9.977 16.173c1.078 0 2.023-.985 2.023-2.107 0-1.083-.907-1.963-2.023-1.963A1.948 1.948 0 0 0 8 14.067c0 1.142.905 2.107 1.977 2.107Zm0 1.017C8.363 17.191 7 15.761 7 14.067c0-1.67 1.308-2.98 2.977-2.98 1.667 0 3.023 1.337 3.023 2.98 0 1.694-1.385 3.124-3.023 3.124Zm7.348 4.355-2.538 1.627.533.86 2.538-1.626-.533-.861Zm9.45 1.353-3.381-2.173-.534.86 3.382 2.173.533-.86ZM20.5 17.15h1v-3.052h-1v3.052Zm11.756-2.939a.512.512 0 0 1 .244.438v12.209c0 .17-.083.328-.222.422l-1.496 1.017-.556-.845.856-.582-2.303-1.48.533-.861 2.188 1.406V15.468l-10 5.048v12.07l1.74-1.077.52.87-2.5 1.547a.49.49 0 0 1-.515.003L9.722 27.294a.51.51 0 0 1-.245-.437V17.7h1v8.235l1.771-1.135.533.86-1.845 1.183 9.564 5.756v-12.09l-7.084-3.77.463-.902 7.127 3.793 9.949-5.023-9.455-5.72v2.157h-1v-2.25l-6.786 3.262-.428-.92 7.5-3.604a.49.49 0 0 1 .47.024l11 6.654Z" fill="#FFF"/></g></svg>