<svg width="40" height="40" xmlns="http://www.w3.org/2000/svg"><defs><linearGradient x1="0%" y1="100%" x2="100%" y2="0%" id="a"><stop stop-color="#055F4E" offset="0%"/><stop stop-color="#56C0A7" offset="100%"/></linearGradient></defs><g fill="none" fill-rule="evenodd"><path d="M0 0h40v40H0z" fill="url(#a)"/><path d="m27.815 11.274-.971-.237.564-2.311.97.237-.563 2.311Zm2.412 1.733 1.644-2 .773.635-1.643 2-.774-.635Zm-7.585-1.217-.98-2.167.913-.412.98 2.167-.913.412Zm3.371 9.71a.5.5 0 1 1-1 0 .5.5 0 0 1 1 0Zm-1-1.5h1v-4h-1v4Zm7.712 6.794c-.23.23-.58.378-.79.168l-2.662-2.724c.343-.252.66-.536.946-.849l2.678 2.605a.354.354 0 0 1 .098.313.899.899 0 0 1-.27.487Zm-12.797-7.789c0-3.033 2.47-5.5 5.504-5.5a5.508 5.508 0 0 1 5.503 5.5c0 3.033-2.47 5.5-5.503 5.5a5.508 5.508 0 0 1-5.504-5.5ZM17.508 27a1.502 1.502 0 0 1-1.502-1.5c0-.827.674-1.5 1.501-1.5.828 0 1.501.673 1.501 1.5s-.673 1.5-1.5 1.5Zm-7.472 2.54 2.733-5.854 2.332 1.17a2.45 2.45 0 0 0-.095.644c0 .343.07.67.196.967l-4.767 3.465a2.552 2.552 0 0 0-.4-.392ZM8.502 33A1.502 1.502 0 0 1 7 31.5c0-.827.673-1.5 1.5-1.5.828 0 1.502.673 1.502 1.5S9.329 33 8.502 33Zm2.258-11.442c.151-.323.243-.679.243-1.058 0-.555-.187-1.063-.495-1.479l1.687-1.57 1.354 2.2-1.25 2.679-1.539-.772ZM8.502 22A1.502 1.502 0 0 1 7 20.5c0-.827.673-1.5 1.5-1.5.828 0 1.502.673 1.502 1.5S9.329 22 8.502 22Zm.806-11.145a2.5 2.5 0 0 0 1.213-.891l3.642 1.687c-.096.266-.158.55-.158.849 0 .545.18 1.045.477 1.457l-2.075 1.93-3.099-5.032ZM7.001 8.5C7 7.673 7.674 7 8.5 7c.828 0 1.502.673 1.502 1.5S9.329 10 8.502 10A1.502 1.502 0 0 1 7 8.5Zm9.506 2.5c.827 0 1.5.673 1.5 1.5s-.673 1.5-1.5 1.5a1.502 1.502 0 0 1-1.501-1.5c0-.827.673-1.5 1.5-1.5Zm-1.284 3.634c.173.104.358.185.555.245l-1.722 3.687-1.114-1.81 2.281-2.122Zm.327 9.328-2.356-1.183.983-2.108 1.776 2.885c-.149.12-.285.256-.403.406Zm5.074-9.321a6.471 6.471 0 0 0-1.697 4.364 6.46 6.46 0 0 0 1.265 3.835l-1.062.772c-.438-.376-1.001-.612-1.623-.612-.229 0-.448.041-.659.1l-2.163-3.514 2.156-4.62a2.488 2.488 0 0 0 1.827-1.231l1.956.906ZM33.6 25.282l-2.756-2.68a6.455 6.455 0 0 0 1.092-3.597c0-3.584-2.918-6.5-6.504-6.5-1.517 0-2.911.526-4.019 1.399l-2.433-1.126c.011-.092.028-.183.028-.278 0-1.378-1.121-2.5-2.501-2.5a2.49 2.49 0 0 0-1.817.793l-3.753-1.738c.04-.179.066-.364.066-.555 0-1.378-1.121-2.5-2.501-2.5A2.504 2.504 0 0 0 6 8.5c0 1.276.966 2.32 2.203 2.47l3.457 5.613-1.902 1.768A2.467 2.467 0 0 0 8.502 18 2.504 2.504 0 0 0 6 20.5C6 21.878 7.122 23 8.502 23c.632 0 1.203-.243 1.645-.631l1.728.868-2.734 5.856a2.457 2.457 0 0 0-.64-.093A2.504 2.504 0 0 0 6 31.5C6 32.878 7.122 34 8.502 34a2.504 2.504 0 0 0 2.501-2.5 2.48 2.48 0 0 0-.103-.671l4.868-3.538a2.492 2.492 0 0 0 1.74.709 2.504 2.504 0 0 0 2.501-2.5c0-.395-.1-.765-.265-1.098l1.097-.797a6.489 6.489 0 0 0 7.563 1.175l2.82 2.885c.265.264.605.394.959.394.43 0 .88-.189 1.25-.558.306-.306.503-.683.553-1.062a1.339 1.339 0 0 0-.386-1.157Z" fill="#FFF"/></g></svg>