<svg width="40" height="40" xmlns="http://www.w3.org/2000/svg"><defs><linearGradient x1="0%" y1="100%" x2="100%" y2="0%" id="a"><stop stop-color="#4D27A8" offset="0%"/><stop stop-color="#A166FF" offset="100%"/></linearGradient></defs><g fill="none" fill-rule="evenodd"><path d="M0 0h40v40H0z" fill="url(#a)"/><path d="M25.485 28.053a1.001 1.001 0 0 1 0-2 1.001 1.001 0 0 1 0 2Zm-4.481-1c0 .551-.449 1-.999 1a1 1 0 0 1 0-2c.55 0 .999.449.999 1Zm-5.498 0a1.001 1.001 0 1 1-1-1c.551 0 1 .449 1 1Zm2.5-9c0-1.103.897-2 2-2 1.102 0 2 .897 2 2s-.898 2-2 2c-1.103 0-2-.897-2-2Zm7.979 7.071v-2.571a.5.5 0 0 0-.5-.5h-4.979v-1.051a2.997 2.997 0 0 0 2.5-2.949c0-1.654-1.346-3-3-3-1.655 0-3 1.346-3 3a2.996 2.996 0 0 0 2.5 2.949v1.051h-5a.5.5 0 0 0-.5.5v2.571c-.861.223-1.5 1-1.5 1.929 0 1.103.897 2 2 2 1.102 0 2-.897 2-2 0-.929-.64-1.706-1.5-1.929v-2.071h4.5v2.071a1.996 1.996 0 0 0 .499 3.929 2.002 2.002 0 0 0 1.999-2c0-.929-.639-1.705-1.498-1.929v-2.071h4.479v2.071c-.86.223-1.5 1-1.5 1.929 0 1.103.897 2 2 2s2-.897 2-2c0-.929-.64-1.706-1.5-1.929Zm-5.979 6.929c-5.073 0-9.006-1.609-9.006-2.993V10.607c2.031 1.341 6.693 1.523 9.006 1.523 2.31 0 6.965-.181 9-1.519V29.06c0 1.384-3.932 2.993-9 2.993Zm0-25.053c5.843 0 8.997 1.065 8.997 2.067 0 1-3.154 2.063-8.997 2.063-5.844 0-8.998-1.063-8.998-2.063C11.008 8.065 14.162 7 20.006 7Zm10 2.053c-.025-2.754-7-3.053-10-3.053S10.025 6.299 10 9.053V29.06c0 2.466 5.193 3.993 10.006 3.993 4.809 0 10-1.527 10-3.993V9.053Z" fill="#FFF"/></g></svg>