<svg width="48" height="48" xmlns="http://www.w3.org/2000/svg"><defs><linearGradient x1="0%" y1="100%" x2="100%" y2="0%" id="a"><stop stop-color="#2E27AD" offset="0%"/><stop stop-color="#527FFF" offset="100%"/></linearGradient></defs><g fill="none" fill-rule="evenodd"><path fill="url(#a)" d="M4 4h40v40H4z"/><path stroke="#879196" stroke-width="2" d="M1 1h46v46H1z"/><path d="m36 29.936-4.609 2.713c-.496-3.934-2.636-6.979-5.409-7.974a4.499 4.499 0 0 0 2.642-4.087c0-2.482-2.019-4.5-4.5-4.5a4.505 4.505 0 0 0-4.5 4.5c0 1.784 1.052 3.315 2.56 4.042-2.854.945-5.087 4.057-5.577 8.018L12 29.936V17.225l12-7.064 12 7.064v12.711Zm-15.376-9.348c0-1.93 1.57-3.5 3.5-3.5s3.5 1.57 3.5 3.5-1.57 3.5-3.5 3.5-3.5-1.57-3.5-3.5ZM24 37l-6.562-3.862.113.01c.408-4.46 3.18-7.822 6.449-7.822 3.165 0 5.925 3.263 6.42 7.591l.641-.073L24 37Zm0-28-13 7.654v13.853l13 7.654 13-7.654V16.654L24 9Z" fill="#FFF"/></g></svg>