<svg width="40" height="40" xmlns="http://www.w3.org/2000/svg"><defs><linearGradient x1="0%" y1="100%" x2="100%" y2="0%" id="a"><stop stop-color="#055F4E" offset="0%"/><stop stop-color="#56C0A7" offset="100%"/></linearGradient></defs><g fill="none" fill-rule="evenodd"><path d="M0 0h40v40H0z" fill="url(#a)"/><path d="M9 10.5c0-.827.673-1.5 1.5-1.5s1.5.673 1.5 1.5-.673 1.5-1.5 1.5S9 11.327 9 10.5Zm4 0C13 9.122 11.879 8 10.5 8A2.503 2.503 0 0 0 8 10.5c0 1.378 1.121 2.5 2.5 2.5s2.5-1.122 2.5-2.5ZM28.5 32a2.503 2.503 0 0 1-2.5-2.5c0-1.378 1.121-2.5 2.5-2.5s2.5 1.122 2.5 2.5-1.121 2.5-2.5 2.5ZM21 18.5c.827 0 1.5.673 1.5 1.5s-.673 1.5-1.5 1.5-1.5-.673-1.5-1.5.673-1.5 1.5-1.5Zm-2.091.137A2.48 2.48 0 0 0 18.5 20c0 1.378 1.121 2.5 2.5 2.5s2.5-1.122 2.5-2.5-1.121-2.5-2.5-2.5c-.514 0-.991.156-1.389.423l-1.853-1.698c.876-.753 2-1.225 3.242-1.225 2.757 0 5 2.243 5 5s-2.243 5-5 5-5-2.243-5-5c0-1.154.408-2.204 1.067-3.051l1.842 1.688ZM21 32c-6.617 0-12-5.383-12-12 0-1.764.384-3.456 1.119-5.039.127.012.25.039.381.039a4.476 4.476 0 0 0 3.087-1.242l2.729 2.502A5.965 5.965 0 0 0 15 20c0 3.309 2.691 6 6 6s6-2.691 6-6-2.691-6-6-6a5.968 5.968 0 0 0-3.994 1.535l-2.768-2.536A4.466 4.466 0 0 0 15 10.5a4.49 4.49 0 0 0-.084-.833c3.402-2.002 7.783-2.15 11.33-.434A3.468 3.468 0 0 0 26 10.5c0 1.93 1.57 3.5 3.5 3.5.592 0 1.141-.161 1.63-.421A11.929 11.929 0 0 1 33 20c0 2.495-.761 4.867-2.188 6.894A3.465 3.465 0 0 0 28.5 26c-1.93 0-3.5 1.57-3.5 3.5 0 .596.163 1.148.427 1.64-1.406.56-2.887.86-4.427.86ZM7 10.5C7 8.57 8.57 7 10.5 7S14 8.57 14 10.5 12.43 14 10.5 14 7 12.43 7 10.5ZM29.5 8c1.379 0 2.5 1.122 2.5 2.5S30.879 13 29.5 13a2.503 2.503 0 0 1-2.5-2.5C27 9.122 28.121 8 29.5 8ZM34 20c0-2.5-.714-4.912-2.055-7.002A3.49 3.49 0 0 0 33 10.5C33 8.57 31.43 7 29.5 7a3.484 3.484 0 0 0-2.754 1.366c-3.782-1.859-8.45-1.738-12.129.332A4.501 4.501 0 0 0 10.5 6 4.505 4.505 0 0 0 6 10.5c0 1.997 1.315 3.674 3.119 4.261A12.874 12.874 0 0 0 8 20c0 7.168 5.832 13 13 13 1.751 0 3.434-.359 5.024-1.029A3.49 3.49 0 0 0 28.5 33c1.93 0 3.5-1.57 3.5-3.5 0-.666-.197-1.283-.521-1.813A12.89 12.89 0 0 0 34 20Z" fill="#FFF"/></g></svg>