<svg width="40" height="40" xmlns="http://www.w3.org/2000/svg"><defs><linearGradient x1="0%" y1="100%" x2="100%" y2="0%" id="a"><stop stop-color="#C8511B" offset="0%"/><stop stop-color="#F90" offset="100%"/></linearGradient></defs><g fill="none" fill-rule="evenodd"><path d="M0 0h40v40H0z" fill="url(#a)"/><path d="M28 10h2V9h-2v1Zm-1-2h4V7h-4v1Zm1 12h2v-1h-2v1Zm-1 2h4v-1h-4v1Zm-9.175.879A.494.494 0 0 0 18 22.5a.494.494 0 0 0-.175-.379l-7-6-.65.758 6.556 5.621-6.556 5.621.65.758 7-6ZM17 28h10v-1H17v1Zm17 4.5V27h-1v5.5a.5.5 0 0 1-.5.5h-25a.5.5 0 0 1-.5-.5v-25a.5.5 0 0 1 .5-.5H20V6H7.5C6.673 6 6 6.673 6 7.5v25c0 .827.673 1.5 1.5 1.5h25c.827 0 1.5-.673 1.5-1.5Zm-9-11.387c0-1.144.43-2.235 1.21-3.071l6.311-6.759A5.482 5.482 0 0 0 34 7.53V6h-1v1.53c0 1.144-.43 2.235-1.21 3.071l-6.311 6.759A5.48 5.48 0 0 0 24 21.113V23h1v-1.887Zm6.052-5.326-.684.732 1.422 1.523A4.488 4.488 0 0 1 33 21.113V23h1v-1.887a5.48 5.48 0 0 0-1.479-3.753l-1.469-1.573Zm-5.573-4.504A5.482 5.482 0 0 1 24 7.53V6h1v1.53c0 1.144.43 2.235 1.21 3.071l1.422 1.523-.684.732-1.469-1.573Z" fill="#FFF"/></g></svg>