<svg width="40" height="40" xmlns="http://www.w3.org/2000/svg"><defs><linearGradient x1="0%" y1="100%" x2="100%" y2="0%" id="a"><stop stop-color="#4D27A8" offset="0%"/><stop stop-color="#A166FF" offset="100%"/></linearGradient></defs><g fill="none" fill-rule="evenodd"><path d="M0 0h40v40H0z" fill="url(#a)"/><path d="M29.756 25.498a.75.75 0 1 1 1.5 0 .75.75 0 0 1-1.5 0Zm2.931 7.218c-.187.191-.456.284-.822.284-.982 0-2.141-2.77-2.764-4.259l-.022-.052c.436.196.917.311 1.425.311.98 0 1.864-.408 2.5-1.059v3.9c0 .005.007.544-.317.875ZM20.144 33c-.366 0-.636-.093-.822-.284-.325-.331-.318-.87-.318-.889v-3.886a3.488 3.488 0 0 0 2.5 1.059c.509 0 .989-.115 1.426-.311a1.154 1.154 0 0 0-.022.052C22.285 30.23 21.125 33 20.144 33Zm1.36-10c1.379 0 2.5 1.121 2.5 2.5 0 1.378-1.121 2.5-2.5 2.5a2.503 2.503 0 0 1-2.5-2.5c0-1.379 1.121-2.5 2.5-2.5Zm5.851 4h-2.702c.219-.457.351-.961.351-1.5a3.45 3.45 0 0 0-.351-1.5h2.702a3.464 3.464 0 0 0-.351 1.5c0 .539.133 1.043.351 1.5Zm3.149-4c1.379 0 2.5 1.121 2.5 2.5 0 1.378-1.121 2.5-2.5 2.5a2.503 2.503 0 0 1-2.5-2.5c0-1.379 1.121-2.5 2.5-2.5Zm3.5 8.827V25.5c0-1.93-1.57-3.5-3.5-3.5-.95 0-1.81.383-2.441 1h-4.117a3.484 3.484 0 0 0-2.442-1c-1.929 0-3.5 1.57-3.5 3.5v6.31c-.003.097-.014.967.594 1.596.381.394.9.594 1.546.594 1.647 0 2.778-2.702 3.686-4.872.178-.426.34-.814.487-1.128h3.375c.146.314.308.702.486 1.128.908 2.17 2.039 4.872 3.687 4.872.645 0 1.165-.2 1.546-.594.608-.629.596-1.499.593-1.579Zm-13-5.827h-1v-1h1v-1h1v1h1v1h-1v1h-1v-1Zm1.232-17.789c.25.391.582.723.972.973-.39.25-.722.583-.972.973a3.214 3.214 0 0 0-.973-.973c.391-.25.723-.582.973-.973Zm-2.685 1.473c1.204 0 2.185.98 2.185 2.184a.499.499 0 1 0 1 0c0-1.204.98-2.184 2.184-2.184a.499.499 0 1 0 0-1A2.187 2.187 0 0 1 22.736 6.5a.5.5 0 1 0-1 0 2.188 2.188 0 0 1-2.185 2.184.5.5 0 0 0 0 1Zm-6.405 13.02c-.75-2.031-2.282-3.671-4.167-4.454 1.885-.784 3.417-2.423 4.167-4.454.75 2.031 2.282 3.67 4.167 4.454-1.885.783-3.417 2.423-4.167 4.454Zm7.145-4.454c0-.277-.223-.5-.5-.5-3.331 0-6.145-3.092-6.145-6.75a.5.5 0 1 0-1 0c0 3.658-2.815 6.75-6.146 6.75a.5.5 0 1 0 0 1c3.331 0 6.146 3.091 6.146 6.75a.5.5 0 0 0 1 0c0-3.659 2.814-6.75 6.145-6.75a.5.5 0 0 0 .5-.5Zm9.718-3.802a4.02 4.02 0 0 0 1.562 1.561 4.02 4.02 0 0 0-1.562 1.561 4.022 4.022 0 0 0-1.56-1.561 4.022 4.022 0 0 0 1.56-1.561Zm-3.494 2.061a2.998 2.998 0 0 1 2.994 2.995.5.5 0 0 0 1 0 2.999 2.999 0 0 1 2.995-2.995.5.5 0 1 0 0-1 2.998 2.998 0 0 1-2.995-2.995.5.5 0 1 0-1 0 2.997 2.997 0 0 1-2.994 2.995.5.5 0 0 0 0 1Z" fill="#FFF"/></g></svg>