<svg width="40" height="40" xmlns="http://www.w3.org/2000/svg"><defs><linearGradient x1="0%" y1="100%" x2="100%" y2="0%" id="a"><stop stop-color="#1B660F" offset="0%"/><stop stop-color="#6CAE3E" offset="100%"/></linearGradient></defs><g fill="none" fill-rule="evenodd"><path d="M0 0h40v40H0z" fill="url(#a)"/><path d="M11.501 28.001c-.827 0-1.5-.673-1.5-1.5s.673-1.5 1.5-1.5 1.5.673 1.5 1.5-.673 1.5-1.5 1.5Zm5.499-6.5h-1v4.5h-2.05a2.502 2.502 0 0 0-2.449-2 2.503 2.503 0 0 0-2.5 2.5c0 1.378 1.121 2.5 2.5 2.5 1.208 0 2.217-.86 2.449-2h2.55a.5.5 0 0 0 .5-.5v-5Zm2.5 11.5c-.827 0-1.5-.673-1.5-1.5s.673-1.5 1.5-1.5 1.5.673 1.5 1.5-.673 1.5-1.5 1.5Zm.5-3.949v-7.039h-1v7.039c-1.14.232-2 1.242-2 2.449 0 1.378 1.121 2.5 2.5 2.5s2.5-1.122 2.5-2.5c0-1.207-.86-2.217-2-2.449Zm7.499-1.051c-.827 0-1.5-.673-1.5-1.5s.673-1.5 1.5-1.5 1.5.673 1.5 1.5-.673 1.5-1.5 1.5Zm0-4c-1.208 0-2.217.86-2.449 2H23v-4.5h-1v5a.5.5 0 0 0 .5.5h2.55c.232 1.14 1.241 2 2.449 2 1.379 0 2.5-1.122 2.5-2.5s-1.121-2.5-2.5-2.5Zm-7.999-9.03L8.028 11 19.5 7.029 30.972 11 19.5 14.971Zm8.993 1.29C28.323 18.092 24.753 20 19.5 20s-8.823-1.908-8.993-3.739l1.752-2.738 7.078 2.45a.502.502 0 0 0 .326 0l7.078-2.45 1.752 2.738Zm4.17-5.734-13-4.5a.506.506 0 0 0-.326 0l-13 4.5a.5.5 0 0 0 0 .946l4.95 1.713-1.708 2.669a.498.498 0 0 0-.079.27c0 2.733 4.393 4.875 10 4.875s10-2.142 10-4.875a.498.498 0 0 0-.079-.27l-1.708-2.669 4.95-1.713a.5.5 0 0 0 0-.946Z" fill="#FFF"/></g></svg>