<svg width="40" height="40" xmlns="http://www.w3.org/2000/svg"><defs><linearGradient x1="0%" y1="100%" x2="100%" y2="0%" id="a"><stop stop-color="#1B660F" offset="0%"/><stop stop-color="#6CAE3E" offset="100%"/></linearGradient></defs><g fill="none" fill-rule="evenodd"><path d="M0 0h40v40H0z" fill="url(#a)"/><path d="M30.5 31.962c-.827 0-1.5-.685-1.5-1.528s.673-1.528 1.5-1.528 1.5.685 1.5 1.528-.673 1.528-1.5 1.528ZM13.994 24.83c-1.593 0-2.906-1.182-2.99-2.69a3.562 3.562 0 0 1-.006-.21c0-1.957 1.395-2.6 2.226-2.809a.509.509 0 0 0 .376-.556 4.389 4.389 0 0 1-.033-.529c0-1.585 1.115-3.293 2.537-3.886a4.596 4.596 0 0 1 1.783-.377c1.535 0 2.618.865 3.092 1.333.519.514.925 1.17 1.206 1.953a.496.496 0 0 0 .867.134c.392-.524 1.027-.744 1.619-.56.706.22 1.146.935 1.207 1.963a.508.508 0 0 0 .4.47c1.778.364 2.679 1.338 2.679 2.893 0 2.592-2.137 2.871-3.055 2.871H13.994ZM9 10.057c0-.843.673-1.529 1.5-1.529s1.5.686 1.5 1.529c0 .842-.673 1.528-1.5 1.528S9 10.899 9 10.057Zm12 21.396c0 .842-.673 1.528-1.5 1.528s-1.5-.686-1.5-1.528c0-.843.673-1.528 1.5-1.528s1.5.685 1.5 1.528Zm-11.5-.51c-.827 0-1.5-.685-1.5-1.528s.673-1.528 1.5-1.528 1.5.685 1.5 1.528-.673 1.528-1.5 1.528ZM28.479 8.02c.827 0 1.5.686 1.5 1.528 0 .843-.673 1.528-1.5 1.528-.828 0-1.5-.685-1.5-1.528 0-.842.672-1.528 1.5-1.528ZM30.5 27.887c-.174 0-.343.018-.507.053l-1.782-2.67c1.006-.576 1.746-1.614 1.746-3.311 0-1.936-1.103-3.278-3.119-3.809-.144-1.004-.618-1.776-1.316-2.214l2.568-3.881c.127.02.256.04.389.04 1.378 0 2.5-1.144 2.5-2.548 0-1.404-1.122-2.547-2.5-2.547-1.379 0-2.5 1.143-2.5 2.547 0 .897.459 1.683 1.149 2.138l-2.577 3.896a2.413 2.413 0 0 0-1.72.429 5.918 5.918 0 0 0-1.156-1.635c-1.627-1.608-3.852-2.042-5.949-1.168-.551.23-1.051.593-1.494 1.031l-1.9-2.462a2.557 2.557 0 0 0 .668-1.72c0-1.403-1.121-2.547-2.5-2.547S8 8.653 8 10.057c0 1.404 1.121 2.547 2.5 2.547.365 0 .711-.085 1.023-.23l2.045 2.65c-.619.891-1.001 1.959-1.001 3.012 0 .074.002.146.005.218-1.621.567-2.574 1.914-2.574 3.676 0 .093.002.185.008.27.081 1.457 1.001 2.678 2.288 3.267l-1.449 1.807a2.446 2.446 0 0 0-1.345-.406c-1.379 0-2.5 1.143-2.5 2.547 0 1.404 1.121 2.547 2.5 2.547S12 30.82 12 29.415c0-.53-.16-1.022-.433-1.43l1.763-2.2c.217.037.437.064.663.064h6.094l-.732 3.072c-1.31.077-2.355 1.178-2.355 2.532C17 32.857 18.121 34 19.5 34s2.5-1.143 2.5-2.547c0-1.1-.69-2.029-1.649-2.385l.765-3.219h4.786c.457 0 .921-.062 1.366-.184l1.795 2.691A2.555 2.555 0 0 0 28 30.434c0 1.404 1.121 2.547 2.5 2.547s2.5-1.143 2.5-2.547c0-1.404-1.121-2.547-2.5-2.547Z" fill="#FFF"/></g></svg>