<svg width="40" height="40" xmlns="http://www.w3.org/2000/svg"><defs><linearGradient x1="0%" y1="100%" x2="100%" y2="0%" id="a"><stop stop-color="#B0084D" offset="0%"/><stop stop-color="#FF4F8B" offset="100%"/></linearGradient></defs><g fill="none" fill-rule="evenodd"><path d="M0 0h40v40H0z" fill="url(#a)"/><path d="M26.5 15c-.827 0-1.5-.673-1.5-1.5s.673-1.5 1.5-1.5 1.5.673 1.5 1.5-.673 1.5-1.5 1.5Zm-5-5c-.827 0-1.5-.673-1.5-1.5S20.673 7 21.5 7s1.5.673 1.5 1.5-.673 1.5-1.5 1.5Zm-3 9c-.827 0-1.5-.673-1.5-1.5s.673-1.5 1.5-1.5 1.5.673 1.5 1.5-.673 1.5-1.5 1.5Zm-6-5c-.827 0-1.5-.673-1.5-1.5s.673-1.5 1.5-1.5 1.5.673 1.5 1.5-.673 1.5-1.5 1.5Zm14-3c-.509 0-.981.154-1.377.417l-1.539-1.541A2.48 2.48 0 0 0 24 8.5C24 7.122 22.879 6 21.5 6A2.503 2.503 0 0 0 19 8.5c0 .923.508 1.722 1.254 2.155l-1.458 4.375c-.099-.012-.194-.03-.296-.03-.764 0-1.44.352-1.899.894l-2.017-2.018A2.48 2.48 0 0 0 15 12.5c0-1.378-1.121-2.5-2.5-2.5a2.503 2.503 0 0 0-2.5 2.5c0 1.378 1.121 2.5 2.5 2.5.509 0 .981-.154 1.377-.417l2.23 2.231c-.062.22-.107.447-.107.686 0 1.378 1.121 2.5 2.5 2.5s2.5-1.122 2.5-2.5c0-.923-.508-1.722-1.254-2.155l1.458-4.375c.099.012.194.03.296.03.509 0 .981-.154 1.377-.417l1.539 1.541A2.48 2.48 0 0 0 24 13.5c0 1.378 1.121 2.5 2.5 2.5s2.5-1.122 2.5-2.5-1.121-2.5-2.5-2.5Zm-3.25 14h-6.5l-2.25-3h11l-2.25 3Zm-2.141 8h-2.218l-1.75-7h5.718l-1.75 7ZM26.5 21h-13a.5.5 0 0 0-.4.8l2.939 3.919 1.976 7.902A.5.5 0 0 0 18.5 34h3a.5.5 0 0 0 .485-.379l1.976-7.902L26.9 21.8a.5.5 0 0 0-.4-.8Z" fill="#FFF"/></g></svg>