<svg width="40" height="40" xmlns="http://www.w3.org/2000/svg"><defs><linearGradient x1="0%" y1="100%" x2="100%" y2="0%" id="a"><stop stop-color="#C8511B" offset="0%"/><stop stop-color="#F90" offset="100%"/></linearGradient></defs><g fill="none" fill-rule="evenodd"><path d="M0 0h40v40H0z" fill="url(#a)"/><path d="M24.427 22.534V20.5c0-.212-.043-.368-.129-.468-.086-.1-.221-.15-.405-.15-.316 0-.626.102-.93.306v2.346h-.594v-3.042h.498l.06.336c.38-.284.78-.426 1.2-.426.292 0 .514.077.666.231.152.154.228.377.228.669v2.232h-.594Zm-5.466-.63c.444.144.824.216 1.14.216.304 0 .537-.069.699-.207.162-.138.243-.337.243-.597 0-.284-.076-.49-.228-.618-.152-.128-.4-.192-.744-.192-.248 0-.558.02-.93.06v-.396l.114-1.794h2.19v.492h-1.686l-.078 1.218c.22-.04.418-.06.594-.06.432 0 .77.114 1.014.342.243.228.366.542.366.942 0 .392-.142.709-.426.951-.284.242-.658.363-1.122.363-.408 0-.79-.08-1.146-.24v-.48Zm-1.325.63v-3.27l-1.17 2.208h-.558l-1.175-2.214v3.276h-.565v-4.158h.685l1.344 2.55 1.337-2.55h.666v4.158h-.564ZM26.052 27 26 13.948 13 14v13.052L26.052 27ZM27 14h2v1h-2v2h2v1h-2v2h2v1h-2v2h2v1h-2v2h2v1h-2v.052a.95.95 0 0 1-.948.948H26v2h-1v-2h-2v2h-1v-2h-2v2h-1v-2h-2v2h-1v-2h-2v2h-1v-2h-.052a.95.95 0 0 1-.948-.948V27h-2v-1h2v-2h-2v-1h2v-2h-2v-1h2v-2h-2v-1h2v-2h-2v-1h2v-.052a.95.95 0 0 1 .948-.948H13v-2h1v2h2v-2h1v2h2v-2h1v2h2v-2h1v2h2v-2h1v2h.052a.95.95 0 0 1 .948.948V14Zm-6 19H7V19h2v-1H7.062C6.477 18 6 18.476 6 19.062v13.876C6 33.523 6.477 34 7.062 34h13.877c.585 0 1.061-.477 1.061-1.062V31h-1v2ZM32.939 6H19.062C18.477 6 18 6.476 18 7.062V10h1V7h14v14h-3v1h2.939c.585 0 1.061-.477 1.061-1.062V7.062C34 6.476 33.524 6 32.939 6Z" fill="#FFF"/></g></svg>