<svg width="40" height="40" xmlns="http://www.w3.org/2000/svg"><defs><linearGradient x1="0%" y1="100%" x2="100%" y2="0%" id="a"><stop stop-color="#4D27A8" offset="0%"/><stop stop-color="#A166FF" offset="100%"/></linearGradient></defs><g fill="none" fill-rule="evenodd"><path d="M0 0h40v40H0z" fill="url(#a)"/><path d="M29.752 25.498a.75.75 0 1 1 1.5 0 .75.75 0 0 1-1.5 0Zm2.931 7.218c-.187.191-.456.284-.822.284-.982 0-2.141-2.77-2.764-4.259l-.022-.052c.436.196.917.311 1.425.311.98 0 1.864-.408 2.5-1.059v3.9c0 .005.007.544-.317.875ZM20.14 33c-.366 0-.636-.093-.822-.284-.325-.331-.318-.87-.318-.889v-3.886A3.488 3.488 0 0 0 21.5 29c.509 0 .989-.115 1.426-.311a1.154 1.154 0 0 0-.022.052C22.281 30.23 21.121 33 20.14 33Zm1.36-10c1.379 0 2.5 1.121 2.5 2.5 0 1.378-1.121 2.5-2.5 2.5a2.503 2.503 0 0 1-2.5-2.5c0-1.379 1.121-2.5 2.5-2.5Zm5.851 4h-2.702c.219-.457.351-.961.351-1.5a3.45 3.45 0 0 0-.351-1.5h2.702A3.464 3.464 0 0 0 27 25.5c0 .539.133 1.043.351 1.5Zm3.149-4c1.379 0 2.5 1.121 2.5 2.5 0 1.378-1.121 2.5-2.5 2.5a2.503 2.503 0 0 1-2.5-2.5c0-1.379 1.121-2.5 2.5-2.5Zm3.5 8.827V25.5c0-1.93-1.57-3.5-3.5-3.5-.95 0-1.81.383-2.441 1h-4.117a3.484 3.484 0 0 0-2.442-1c-1.929 0-3.5 1.57-3.5 3.5v6.31c-.003.097-.014.967.594 1.596.381.394.9.594 1.546.594 1.647 0 2.778-2.702 3.686-4.872.178-.426.34-.814.487-1.128h3.375c.146.314.308.702.486 1.128.908 2.17 2.039 4.872 3.687 4.872.645 0 1.165-.2 1.546-.594.608-.629.596-1.499.593-1.579ZM21 26h-1v-1h1v-1h1v1h1v1h-1v1h-1v-1ZM7 16v-1.27L10.185 12h19.631L33 14.73V16h-5v-1.5c0-.277-.223-.5-.5-.5h-3a.5.5 0 0 0-.5.5V16h-8v-1.5c0-.277-.223-.5-.5-.5h-3a.5.5 0 0 0-.5.5V16H7Zm8-5h10V8H15v3Zm10 8h2v-4h-2v4Zm-12 0h2v-4h-2v4Zm-5 6.5V17h4v2.5a.5.5 0 0 0 .5.5h3a.5.5 0 0 0 .5-.5V17h8v2.5a.5.5 0 0 0 .5.5h3a.5.5 0 0 0 .5-.5V17h4v3.999h1V17h.5a.5.5 0 0 0 .5-.5v-2a.497.497 0 0 0-.175-.38l-3.5-3A.496.496 0 0 0 30 11h-4V7.5c0-.277-.223-.5-.5-.5h-11a.5.5 0 0 0-.5.5V11h-4a.498.498 0 0 0-.325.12l-3.5 3A.5.5 0 0 0 6 14.5v2a.5.5 0 0 0 .5.5H7v8.5c0 .939.561 1.5 1.5 1.5h8.501v-1H8.5c-.383 0-.5-.117-.5-.5Z" fill="#FFF"/></g></svg>