<svg width="40" height="40" xmlns="http://www.w3.org/2000/svg"><defs><linearGradient x1="0%" y1="100%" x2="100%" y2="0%" id="a"><stop stop-color="#1B660F" offset="0%"/><stop stop-color="#6CAE3E" offset="100%"/></linearGradient></defs><g fill="none" fill-rule="evenodd"><path d="M0 0h40v40H0z" fill="url(#a)"/><path d="M29.92 29.641a.499.499 0 0 0 .354-.478v-5.254h-1v3.615l-2.211-3.288a.5.5 0 0 0-.915.28v5.021h1v-3.383l2.211 3.288a.5.5 0 0 0 .561.199Zm-9.457-9.418.484.683-1.792 2.618H18.08l2.383-3.301Zm1.523-.706.849 1.207a4.739 4.739 0 0 0-.37 1.072l-1.543-2.209.542-.752 2.028-2.894h1.059l-2.565 3.576Zm-1.536-.572-2.131-3.004h1.118l1.578 2.252-.565.752Zm-3.254.746c.293.36.44.812.44 1.354 0 .792-.291 1.433-.874 1.922-.582.489-1.35.734-2.302.734-.987 0-1.868-.187-2.642-.561v-.68c.934.338 1.793.507 2.576.507.738 0 1.327-.173 1.768-.52.44-.347.66-.819.66-1.415 0-.365-.12-.676-.36-.934s-.627-.489-1.161-.694l-1.548-.6c-.685-.267-1.187-.585-1.508-.954-.32-.369-.48-.825-.48-1.368 0-.738.265-1.337.794-1.795.529-.458 1.225-.687 2.088-.687.392 0 .803.047 1.234.14.432.093.839.225 1.221.394v.68c-.907-.32-1.712-.48-2.415-.48-.685 0-1.21.149-1.574.447-.365.298-.547.723-.547 1.274 0 .312.055.563.166.754.111.192.294.365.547.521.254.155.616.322 1.088.5l1.428.547c.64.249 1.107.554 1.401.914ZM6 23.474h.787v-4.297h3.723v-.707H6.787v-3.536h4.404v-.707H6v9.247Zm25.698 3.671-.082-.997c.145-.013 1.431-.174 1.431-1.558 0-1.148-.892-1.473-1.423-1.564a.5.5 0 0 1-.411-.555c-.035-.455-.26-.83-.601-.93-.266-.078-.544.025-.723.269a.5.5 0 0 1-.874-.129 2.957 2.957 0 0 0-.676-1.115c-.353-.352-1.316-1.113-2.681-.535-.769.326-1.395 1.304-1.395 2.181 0 .102.007.201.018.3a.5.5 0 0 1-.373.542c-.538.137-1.178.512-1.178 1.518 0 .07.003.137.008.203.073.762.767 1.363 1.581 1.364v1c-1.325-.002-2.457-1-2.577-2.274a3.533 3.533 0 0 1-.012-.293c0-1.105.565-1.96 1.533-2.356v-.004c0-1.284.862-2.618 2.005-3.102 1.333-.566 2.747-.284 3.779.751.243.244.453.527.626.845a1.633 1.633 0 0 1 1.22-.125c.665.195 1.126.762 1.274 1.546.966.286 1.88 1.05 1.88 2.463 0 1.869-1.536 2.488-2.349 2.555Z" fill="#FFF"/></g></svg>