<svg width="40" height="40" xmlns="http://www.w3.org/2000/svg"><defs><linearGradient x1="0%" y1="100%" x2="100%" y2="0%" id="a"><stop stop-color="#C8511B" offset="0%"/><stop stop-color="#F90" offset="100%"/></linearGradient></defs><g fill="none" fill-rule="evenodd"><path d="M0 0h40v40H0z" fill="url(#a)"/><path d="m15.077 16.374-3.825 3.802 3.825 3.797.702-.697-3.123-3.1 3.123-3.104-.702-.698Zm-8.085 15.64h11.91V8.339H6.992v23.675ZM6 33h13.894V7.352H6V33Zm1.63-13.317c0 5.609 4.59 10.172 10.235 10.172v-.986c-5.096 0-9.243-4.122-9.243-9.186 0-5.066 4.147-9.186 9.243-9.186v-.986C12.22 9.51 7.63 14.073 7.63 19.683Zm13.831 5.194v.986c3.39 0 6.148-2.741 6.148-6.11 0-3.37-2.757-6.111-6.148-6.111v.986c2.843 0 5.155 2.3 5.155 5.125s-2.312 5.124-5.155 5.124ZM34 17.71v4.087c0 .553-.453 1.003-1.01 1.003h-1.758a10.4 10.4 0 0 1-.78 1.87l1.245 1.236a1 1 0 0 1 0 1.42l-2.908 2.89c-.393.39-1.035.39-1.428 0l-1.246-1.238c-.6.32-1.23.58-1.879.777v1.747c0 .554-.453 1.005-1.01 1.005h-2.055v-.987h2.055l.018-2.517.369-.098a9.525 9.525 0 0 0 2.338-.965l.33-.19 1.781 1.769 2.933-2.89-1.78-1.794.19-.328a9.386 9.386 0 0 0 .974-2.326l.098-.367h2.514l.017-4.104-2.531-.019-.098-.366A9.386 9.386 0 0 0 29.406 15l-.192-.327 1.78-1.77-2.907-2.915-1.805 1.77-.33-.192a9.49 9.49 0 0 0-2.339-.965l-.37-.097v-2.5l-2.03-.017V7h2.013c.557 0 1.01.45 1.01 1.003v1.748c.648.197 1.279.457 1.88.776l1.245-1.237a1.016 1.016 0 0 1 1.428 0l2.908 2.89a1 1 0 0 1 0 1.42l-1.245 1.236c.32.598.583 1.225.78 1.869h1.759c.556 0 1.009.45 1.009 1.005Z" fill="#FFF"/></g></svg>