<svg width="40" height="40" xmlns="http://www.w3.org/2000/svg"><defs><linearGradient x1="0%" y1="100%" x2="100%" y2="0%" id="a"><stop stop-color="#2E27AD" offset="0%"/><stop stop-color="#527FFF" offset="100%"/></linearGradient></defs><g fill="none" fill-rule="evenodd"><path d="M0 0h40v40H0z" fill="url(#a)"/><path d="M15.26 13.09c-4.867 0-8.26-1.341-8.26-2.545S10.393 8 15.26 8c4.817 0 7.8 1.321 7.8 2.545s-2.983 2.545-7.8 2.545Zm7.683 7.501c.949 0 1.895.106 2.812.315l.223-.975A13.497 13.497 0 0 0 24 19.65v-8.659c.036-.145.06-.293.06-.446 0-2.12-3.536-3.545-8.8-3.545C10.658 7 6 8.218 6 10.545v19.618c0 1.414 1.534 2.555 4.321 3.214l.23-.974C8.361 31.886 7 31.027 7 30.163v-4.139c.649.415 1.477.78 2.499 1.064l.268-.964c-1.269-.353-2.223-.83-2.767-1.353v-5.753c1.589 1.037 4.351 1.736 7.627 1.872l.041-.999C11.12 19.744 8.161 18.91 7 17.757v-5.525c1.612 1.223 4.946 1.858 8.26 1.858 3.556 0 6.319-.652 7.74-1.728v7.232l-.057-.003a13.644 13.644 0 0 0-12.076 7.283l.883.467a12.647 12.647 0 0 1 11.193-6.75Zm6.468 1.781a12.628 12.628 0 0 0-2.532-1.154l.313-.95c.951.312 1.87.731 2.731 1.245l-.512.859Zm-4.797 10.702a3.1 3.1 0 0 0-.658-1.61l5.46-5.163c1.814 1.72 2.942 4.202 3.072 6.773h-7.874Zm-3.109-1.811a2.14 2.14 0 0 1 2.109 1.811h-4.218a2.14 2.14 0 0 1 2.109-1.811Zm8.636-5.647 1.882-1.779-.688-.726-8.112 7.669a3.125 3.125 0 0 0-1.718-.517c-1.619 0-2.94 1.236-3.109 2.811h-5.495c.256-5.256 4.551-9.452 9.794-9.452a9.73 9.73 0 0 1 4.044.87l.414-.911a10.723 10.723 0 0 0-4.458-.959c-5.959 0-10.807 4.913-10.807 10.952v.5H33.5v-.5c0-2.998-1.256-5.942-3.359-7.958Z" fill="#FFF"/></g></svg>