<svg width="40" height="40" xmlns="http://www.w3.org/2000/svg"><defs><linearGradient x1="0%" y1="100%" x2="100%" y2="0%" id="a"><stop stop-color="#1B660F" offset="0%"/><stop stop-color="#6CAE3E" offset="100%"/></linearGradient></defs><g fill="none" fill-rule="evenodd"><path d="M0 0h40v40H0z" fill="url(#a)"/><path d="M13.5 11c.827 0 1.5.673 1.5 1.5s-.673 1.5-1.5 1.5-1.5-.673-1.5-1.5.673-1.5 1.5-1.5Zm0 4c.72 0 1.366-.311 1.823-.801l2.145 1.716c-.243.455-.46.929-.624 1.433l.95.31a7.792 7.792 0 0 1 6.961-5.393l-.063-.998a8.777 8.777 0 0 0-6.706 3.782l-2.14-1.713A2.5 2.5 0 0 0 16 12.5c0-1.378-1.121-2.5-2.5-2.5a2.503 2.503 0 0 0-2.5 2.5c0 1.378 1.12 2.5 2.5 2.5Zm-4 7c-.827 0-1.5-.673-1.5-1.5S8.673 19 9.5 19s1.5.673 1.5 1.5-.673 1.5-1.5 1.5Zm2.449-1h8.938c.227 2.167 1.987 3.921 4.231 4.047a4.528 4.528 0 0 0 3.827-1.74l-.789-.614a3.566 3.566 0 0 1-2.98 1.356 3.53 3.53 0 0 1-3.323-3.718 3.498 3.498 0 0 1 1.17-2.431 3.549 3.549 0 0 1 2.547-.891c.992.055 1.92.532 2.546 1.305l.778-.628a4.534 4.534 0 0 0-3.267-1.675 4.473 4.473 0 0 0-3.27 1.143A4.478 4.478 0 0 0 20.897 20H11.95a2.502 2.502 0 0 0-2.45-2A2.503 2.503 0 0 0 7 20.5C7 21.878 8.121 23 9.5 23c1.208 0 2.217-.86 2.449-2Zm21.059-1.936a7.72 7.72 0 0 0-.502-1.917l.928-.375c.28.694.47 1.422.566 2.164l-.992.128Zm-.142 2.821.973.23a8.782 8.782 0 0 1-1.32 2.972l-.825-.567a7.755 7.755 0 0 0 1.172-2.635ZM26.999 21h7v-1h-7v1Zm-1.375 4.803.063.998a6.22 6.22 0 0 1-.408.013c-2.939 0-5.566-1.983-6.341-4.846l.965-.261c.687 2.538 3.113 4.261 5.721 4.096Zm-.684-12.112a6.552 6.552 0 0 1 5.96 3.041l-.843.536a5.582 5.582 0 0 0-5.054-2.579 5.581 5.581 0 0 0-5.168 4.791l-.99-.136a6.585 6.585 0 0 1 6.095-5.653ZM13.5 30c-.827 0-1.5-.673-1.5-1.5s.673-1.5 1.5-1.5 1.5.673 1.5 1.5-.673 1.5-1.5 1.5Zm12.231-2.104a7.839 7.839 0 0 1-7.461-4.252l-.891.455c.092.179.205.34.308.51l-2.654 1.931A2.476 2.476 0 0 0 13.5 26a2.503 2.503 0 0 0-2.5 2.5c0 1.378 1.12 2.5 2.5 2.5 1.379 0 2.5-1.122 2.5-2.5 0-.436-.122-.839-.318-1.196l2.564-1.865a8.816 8.816 0 0 0 7.548 3.455 8.786 8.786 0 0 0 4.834-1.813l-.609-.792a7.81 7.81 0 0 1-4.288 1.607Z" fill="#FFF"/></g></svg>