<svg width="40" height="40" xmlns="http://www.w3.org/2000/svg"><defs><linearGradient x1="0%" y1="100%" x2="100%" y2="0%" id="a"><stop stop-color="#055F4E" offset="0%"/><stop stop-color="#56C0A7" offset="100%"/></linearGradient></defs><g fill="none" fill-rule="evenodd"><path d="M0 0h40v40H0z" fill="url(#a)"/><path d="M7.004 16.02h24.033v-1.002H7.004v1.002ZM18.02 8.007h13.018V7.005H18.02v1.002Zm-5.007 0h2.003V7.005h-2.003v1.002Zm-3.004 0h2.003V7.005h-2.003v1.002Zm-3.004 0h2.003V7.005H7.004v1.002Zm21.53 17.027a3.474 3.474 0 0 1-3.511 3.512 3.474 3.474 0 0 1-3.51-3.512 3.474 3.474 0 0 1 3.51-3.512 3.474 3.474 0 0 1 3.51 3.512Zm1.001 0c0-2.53-1.982-4.513-4.512-4.513-2.53 0-4.512 1.982-4.512 4.513 0 2.531 1.982 4.514 4.512 4.514 2.53 0 4.512-1.983 4.512-4.514Zm5.295 8.338-3.86-3.758c-.391.505-.843.958-1.348 1.35l3.763 3.861a.59.59 0 0 0 .52.167c.237-.03.488-.166.703-.383.364-.362.555-.904.222-1.237Zm-9.801-1.827a6.517 6.517 0 0 0 6.509-6.51c0-3.59-2.92-6.511-6.51-6.511a6.517 6.517 0 0 0-6.508 6.51c0 3.59 2.92 6.51 6.509 6.51Zm10.287 3.773c-.372.372-.83.609-1.286.668-.075.009-.149.014-.222.014-.432 0-.828-.163-1.135-.47l-3.9-3.993a7.45 7.45 0 0 1-3.744 1.01c-4.142 0-7.51-3.37-7.51-7.513s3.368-7.512 7.51-7.512c4.142 0 7.51 3.37 7.51 7.512 0 1.36-.368 2.632-1.002 3.734l3.996 3.89c.698.699.603 1.84-.217 2.66ZM5.001 10.01H33.04V5.502c0-.276-.225-.5-.5-.5H5.501c-.275 0-.5.224-.5.5v4.507ZM19.92 33.047H4.5a.5.5 0 0 1-.501-.5V5.501C4 4.674 4.674 4 5.502 4H32.54c.828 0 1.502.674 1.502 1.502v16.509a9.454 9.454 0 0 0-1.001-2.088V11.01H5v21.035h13.62c.403.37.836.705 1.298 1.001ZM7.004 20.026h9.952a9.44 9.44 0 0 1 .706-1.002H7.004v1.002Zm8.728 3.005a9.71 9.71 0 0 0-.162 1.002H7.004V23.03h8.728Z" fill="#FFF"/></g></svg>