<svg width="40" height="40" xmlns="http://www.w3.org/2000/svg"><defs><linearGradient x1="0%" y1="100%" x2="100%" y2="0%" id="a"><stop stop-color="#BD0816" offset="0%"/><stop stop-color="#FF5252" offset="100%"/></linearGradient></defs><g fill="none" fill-rule="evenodd"><path d="M0 0h40v40H0z" fill="url(#a)"/><path d="M15 21.002h5v-1.005h-5v1.005Zm0-2.011h11v-1.006H15v1.006Zm0-2.012h9v-1.006h-9v1.006Zm5-6.955c-4.411 0-8 3.61-8 8.047 0 3.234 1.885 6.13 4.802 7.379l.196.061c.226.073.489.16.729.248l1.972.724c.197.072.328.26.328.472v2.55C24.825 27.286 28 22.775 28 18.072c0-4.437-3.589-8.047-8-8.047Zm-.473 20.748a.502.502 0 0 1-.5-.503v-2.962l-1.643-.604a18.818 18.818 0 0 0-.694-.234l-.238-.079C13.124 24.97 11 21.71 11 18.071c0-4.992 4.037-9.053 9-9.053s9 4.06 9 9.053c0 5.33-3.731 10.42-9.286 12.665a.503.503 0 0 1-.187.036ZM20 7.006c-6.065 0-11 4.963-11 11.065 0 4.448 2.636 8.449 6.715 10.19.067.03.203.072.365.124.191.061.416.135.619.208a.504.504 0 0 1 .328.473v4.712l1.142-.42C25.623 31.421 31 24.998 31 18.071c0-6.102-4.935-11.065-11-11.065ZM16.527 35a.5.5 0 0 1-.5-.503v-5.072a14.25 14.25 0 0 0-.253-.082 7.401 7.401 0 0 1-.45-.155A12.064 12.064 0 0 1 8 18.07C8 11.415 13.383 6 20 6s12 5.415 12 12.071c0 7.379-5.692 14.211-13.534 16.247l-1.767.652a.504.504 0 0 1-.172.03Z" fill="#FFF"/></g></svg>