<svg width="40" height="40" xmlns="http://www.w3.org/2000/svg"><defs><linearGradient x1="0%" y1="100%" x2="100%" y2="0%" id="a"><stop stop-color="#055F4E" offset="0%"/><stop stop-color="#56C0A7" offset="100%"/></linearGradient></defs><g fill="none" fill-rule="evenodd"><path d="M0 0h40v40H0z" fill="url(#a)"/><path d="M32.482 13.191a.5.5 0 0 1-.462.31h-3.023v4H30.5a.5.5 0 0 1 .5.5v14a.5.5 0 0 1-.5.5h-21c-.828 0-1.5-.674-1.5-1.5V14c0-.278.223-.5.5-.5h6.121c.162 0 .313.077.407.21l1.271 1.79H19v1h-2.958a.5.5 0 0 1-.408-.212L14.363 14.5H9V31a.5.5 0 0 0 1 0V18c0-.277.223-.5.5-.5H19v1h-8V31c0 .176-.037.342-.092.5H30v-13h-3v-1h.997V13c0-.277.223-.5.5-.5h2.316L26.52 8.207 22.227 12.5h2.275a.5.5 0 0 1 .5.5v6.5h3.018a.5.5 0 0 1 .354.853l-5.5 5.5a.5.5 0 0 1-.707 0l-5.5-5.5a.501.501 0 0 1 .353-.853H20v-4h1V20a.5.5 0 0 1-.5.5h-2.273l4.293 4.293 4.293-4.293h-2.311a.5.5 0 0 1-.5-.5v-6.5H21.02a.5.5 0 0 1-.353-.854l5.5-5.5a.5.5 0 0 1 .707 0l5.5 5.5a.503.503 0 0 1 .108.545" fill="#FFF"/></g></svg>