<svg width="40" height="40" xmlns="http://www.w3.org/2000/svg"><defs><linearGradient x1="0%" y1="100%" x2="100%" y2="0%" id="a"><stop stop-color="#C8511B" offset="0%"/><stop stop-color="#F90" offset="100%"/></linearGradient></defs><g fill="none" fill-rule="evenodd"><path d="M0 0h40v40H0z" fill="url(#a)"/><path d="M9.001 17.186H8v-3.954c0-.175.094-.337.246-.426L13.94 9.5l.508.852-5.447 3.163v3.67Zm23.999 0h-1.001v-3.671L26.55 10.35l.509-.852 5.694 3.307a.495.495 0 0 1 .246.426v3.954Zm-8.726 14.263-.508-.852 8.233-4.798v-4.66H33v4.942a.495.495 0 0 1-.246.426l-8.48 4.942Zm-7.517 0-8.51-4.942A.495.495 0 0 1 8 26.081V21.14h1.001v4.66l8.264 4.798-.508.852Zm1.255-18.825 2.504 1.236 2.503-1.236V9.282l-2.503-1.236-2.504 1.236v3.342Zm-5.737 4.432 8.239 4.073 7.956-4.076-5.53-3.285-1.924.95v2.468h-1.001v-2.468l-1.92-.948-5.82 3.286Zm-.045 5.604 8.282 4.138 7.927-4.104-4.265-2.327-3.158 1.617.001 1.132h-1.001l-.001-1.128-3.733-1.845-4.052 2.517ZM20.016 33l-.001-5.342-9.026-4.511a.492.492 0 0 1-.041-.86l4.288-2.662-4.245-2.098a.493.493 0 0 1-.277-.428.494.494 0 0 1 .253-.443l6.124-3.457a.487.487 0 0 1-.08-.27V8.977c0-.187.107-.358.277-.442l3.003-1.482a.51.51 0 0 1 .449 0l3.004 1.482c.169.084.276.255.276.442v3.954c0 .1-.03.196-.085.276l5.819 3.456a.492.492 0 0 1-.028.862l-4.484 2.297 4.496 2.452c.161.088.26.257.258.438a.495.495 0 0 1-.268.433l-8.712 4.509.001 5.347h-1.001Z" fill="#FFF"/></g></svg>