<svg width="40" height="40" xmlns="http://www.w3.org/2000/svg"><defs><linearGradient x1="0%" y1="100%" x2="100%" y2="0%" id="a"><stop stop-color="#B0084D" offset="0%"/><stop stop-color="#FF4F8B" offset="100%"/></linearGradient></defs><g fill="none" fill-rule="evenodd"><path d="M0 0h40v40H0z" fill="url(#a)"/><path d="M27.63 24.124c0-1.903-1.58-3.452-3.522-3.452-1.943 0-3.523 1.549-3.523 3.452 0 1.904 1.58 3.452 3.523 3.452 1.942 0 3.522-1.548 3.522-3.452Zm1.006 0c0 2.447-2.032 4.439-4.528 4.439-2.497 0-4.53-1.992-4.53-4.439s2.033-4.438 4.53-4.438c2.496 0 4.528 1.991 4.528 4.438Zm4.276 6.579-3.387-2.99c-.289.418-.63.793-1.008 1.133l3.367 2.976a.781.781 0 0 0 1.085-.056.745.745 0 0 0-.057-1.063Zm-8.804-1.154c3.051 0 5.535-2.433 5.535-5.425 0-2.991-2.484-5.424-5.535-5.424-3.052 0-5.536 2.433-5.536 5.424 0 2.992 2.484 5.425 5.536 5.425Zm9.478.422a1.72 1.72 0 0 1 .13 2.455 1.79 1.79 0 0 1-1.32.574c-.423 0-.847-.147-1.185-.445l-3.494-3.089a6.592 6.592 0 0 1-3.61 1.07c-3.606 0-6.541-2.877-6.541-6.412s2.935-6.41 6.542-6.41c3.607 0 6.541 2.875 6.541 6.41 0 .968-.226 1.883-.62 2.707l3.557 3.14Zm-22.994-5.354h4.96v.987h-4.966c-.557-.006-1.156-.206-1.786-.596-1.044-.634-2.8-2.127-2.8-4.973 0-3.442 2.41-4.706 3.812-5.15a7.265 7.265 0 0 1-.016-.492c0-2.804 1.942-5.714 4.515-6.765 3.013-1.237 6.203-.623 8.531 1.638a8.456 8.456 0 0 1 1.786 2.563 3.404 3.404 0 0 1 2.177-.787c1.56 0 3.319 1.165 3.626 3.713C31.887 15.08 35 16.23 35 20.075c0 1.653-.567 2.99-1.687 3.972l-.672-.733c.898-.788 1.353-1.878 1.353-3.238 0-3.382-2.888-4.223-4.13-4.427a.5.5 0 0 1-.33-.207.486.486 0 0 1-.08-.378c-.147-2.074-1.438-3.036-2.65-3.036-.756 0-1.466.361-1.947.99a.513.513 0 0 1-.477.194.5.5 0 0 1-.398-.32c-.433-1.172-1.054-2.156-1.847-2.925-2.032-1.973-4.812-2.508-7.437-1.43-2.184.894-3.895 3.465-3.895 5.856 0 .268.016.536.048.794a.486.486 0 0 1-.122.387.51.51 0 0 1-.29.16c-1.297.327-3.433 1.32-3.433 4.301 0 2.25 1.266 3.492 2.327 4.138.473.292.896.44 1.26.444Z" fill="#FFF"/></g></svg>