<svg width="40" height="40" xmlns="http://www.w3.org/2000/svg"><g fill="none" fill-rule="evenodd"><path fill="#FFF" d="M0 0h40v40H0z"/><path d="M23.49 31.56a1.001 1.001 0 0 1 0-2 1.001 1.001 0 0 1 0 2Zm4.995-16.483a.5.5 0 0 0-.49.401l-2.15 10.599H10.9l-1.42-7.098-.98.196 1.5 7.5a.5.5 0 0 0 .49.402h13.613l-.914 1.513a1.998 1.998 0 0 0-1.699 1.97c0 1.103.897 2 2 2s2-.897 2-2c0-.823-.5-1.531-1.212-1.837l.994-1.646h.983a.5.5 0 0 0 .49-.401l2.149-10.599h4.096v-1h-4.505ZM14.489 31.56a1.001 1.001 0 0 1 0-2 1.001 1.001 0 0 1 0 2Zm0-3c-1.103 0-2 .897-2 2s.897 2 2 2 2-.897 2-2-.897-2-2-2Zm.001-19.482 2.993 1.728-2.993 1.696-2.993-1.696 2.993-1.728Zm8.018-.002 2.969 1.686-2.991 1.778-2.994-1.729 3.016-1.735Zm.482 7.608v-3.28l2.982-1.773v3.509l-2.982 1.544Zm-4 6.937V20.07l3-1.705v3.414l-3 1.842Zm-4-5.066 3 1.53v3.536l-3-1.842v-3.224Zm3-3.415-3 1.732v-3.504l3-1.7v3.472Zm4 1.543-3-1.558v-3.449l3 1.732v3.275Zm-3.513 2.528-2.94-1.5 2.966-1.712 2.94 1.527-2.966 1.685Zm-7.487-7.543 3 1.7v3.504l-3-1.732v-3.472Zm3 6.359v4.032a.5.5 0 0 0 .238.426l4 2.456a.502.502 0 0 0 .524 0l4-2.456a.5.5 0 0 0 .238-.426V17.81l3.712-1.922a.5.5 0 0 0 .27-.444v-4.692a.5.5 0 0 0-.253-.435l-3.966-2.252a.499.499 0 0 0-.496.002l-3.767 2.166-3.75-2.166a.502.502 0 0 0-.5 0l-4 2.31a.5.5 0 0 0-.25.433v4.619c0 .178.096.343.25.433l3.75 2.165Z" fill="#232F3D"/></g></svg>