<svg width="40" height="40" xmlns="http://www.w3.org/2000/svg"><defs><linearGradient x1="0%" y1="100%" x2="100%" y2="0%" id="a"><stop stop-color="#055F4E" offset="0%"/><stop stop-color="#56C0A7" offset="100%"/></linearGradient></defs><g fill="none" fill-rule="evenodd"><path d="M0 0h40v40H0z" fill="url(#a)"/><path d="M26.484 24.702v-7.824l-6.017 3.401v7.935l6.017-3.512Zm-13 0 5.983 3.51v-7.934l-5.983-3.398v7.822Zm.51-8.683 5.974 3.393 6.001-3.393-6.001-3.412-5.974 3.412Zm13.242 9.402-7.017 4.096a.504.504 0 0 1-.505-.001l-6.983-4.096a.5.5 0 0 1-.247-.431V16.02c0-.179.097-.345.252-.434l6.983-3.988a.5.5 0 0 1 .495-.001l7.017 3.99a.501.501 0 0 1 .253.433v8.969a.502.502 0 0 1-.248.432ZM20 8.001c4.037 0 7.803 2.155 10.077 5.768l.845-.534C28.465 9.331 24.382 7 20 7c-4.385 0-8.468 2.33-10.923 6.236l.845.533C12.194 10.156 15.961 8 20 8Zm12 12.491c-.136 5.578-4.174 10.425-9.6 11.527l.199.981C28.478 31.807 32.852 26.557 33 20.517l-1-.025ZM17.599 32.02 17.4 33C11.521 31.807 7.147 26.557 7 20.517l1-.025c.135 5.578 4.173 10.425 9.599 11.527Z" fill="#FFF"/></g></svg>