<svg width="40" height="40" xmlns="http://www.w3.org/2000/svg"><defs><linearGradient x1="0%" y1="100%" x2="100%" y2="0%" id="a"><stop stop-color="#1B660F" offset="0%"/><stop stop-color="#6CAE3E" offset="100%"/></linearGradient></defs><g fill="none" fill-rule="evenodd"><path d="M0 0h40v40H0z" fill="url(#a)"/><path d="M30.945 22.722c-1.123 0-2.036-.882-2.036-1.966 0-1.083.913-1.965 2.036-1.965 1.124 0 2.037.882 2.037 1.965 0 1.084-.913 1.966-2.037 1.966Zm-4.958 7.153c-2.1 2.026-4.89 3.142-7.853 3.142A11.33 11.33 0 0 1 12.45 31.5c.1-.29.167-.595.167-.917 0-.082-.018-.16-.024-.24l15.899-7.846c.183.24.402.45.65.628-.34 2.582-1.557 5.205-3.156 6.75ZM9.564 32.548c-1.123 0-2.037-.882-2.037-1.965 0-1.084.914-1.966 2.037-1.966 1.123 0 2.036.882 2.036 1.966 0 1.083-.913 1.965-2.036 1.965ZM7.018 22.29c0-2.861 1.157-5.552 3.256-7.58 1.595-1.538 4.317-2.71 7.004-3.04.187.247.41.463.664.643l-8.16 15.341a1.005 1.005 0 0 0-.218-.02c-.333 0-.649.065-.95.16a10.357 10.357 0 0 1-1.596-5.504ZM19.745 7.983c1.124 0 2.037.881 2.037 1.965s-.913 1.965-2.037 1.965c-1.123 0-2.036-.881-2.036-1.965s.913-1.965 2.036-1.965Zm-8.43 20.192a2.991 2.991 0 0 0-.515-.283l8.053-15.14c.284.085.58.144.892.144a3.09 3.09 0 0 0 1.991-.73 11.174 11.174 0 0 1 3.899 2.245l-14.32 13.764ZM29.442 8.91c1.123 0 2.036.882 2.036 1.965 0 1.084-.913 1.966-2.036 1.966-1.122 0-2.037-.882-2.037-1.966 0-1.083.915-1.965 2.037-1.965ZM12.038 28.868 26.325 15.08a10.618 10.618 0 0 1 2.311 3.767 2.864 2.864 0 0 0-.745 1.908c0 .302.061.587.149.86l-15.702 7.75a2.924 2.924 0 0 0-.3-.498Zm18.907-11.06c-.537 0-1.036.147-1.475.384a11.635 11.635 0 0 0-2.418-3.799l.988-.915c.422.213.893.344 1.4.344 1.686 0 3.055-1.322 3.055-2.948 0-1.625-1.37-2.947-3.054-2.947-1.684 0-3.055 1.322-3.055 2.947 0 .78.322 1.485.835 2.012l-.866.832a12.19 12.19 0 0 0-3.946-2.357 2.82 2.82 0 0 0 .391-1.413C22.8 8.323 21.43 7 19.745 7c-1.684 0-3.054 1.323-3.054 2.948 0 .278.053.541.127.797-2.79.41-5.586 1.652-7.264 3.272C7.263 16.23 6 19.167 6 22.29c0 2.114.593 4.168 1.706 5.968-.722.54-1.197 1.375-1.197 2.324 0 1.625 1.37 2.947 3.055 2.947.984 0 1.853-.46 2.412-1.16A12.37 12.37 0 0 0 18.134 34c3.236 0 6.28-1.218 8.573-3.43 1.71-1.648 2.972-4.284 3.396-6.993.27.074.548.127.842.127 1.685 0 3.055-1.322 3.055-2.948 0-1.625-1.37-2.947-3.055-2.947Z" fill="#FFF"/></g></svg>