<svg width="40" height="40" xmlns="http://www.w3.org/2000/svg"><defs><linearGradient x1="0%" y1="100%" x2="100%" y2="0%" id="a"><stop stop-color="#2E27AD" offset="0%"/><stop stop-color="#527FFF" offset="100%"/></linearGradient></defs><g fill="none" fill-rule="evenodd"><path d="M0 0h40v40H0z" fill="url(#a)"/><path d="M34 19.836c0 3.382-2.368 4.624-3.78 5.063l-.302-.94c1.404-.437 3.08-1.506 3.08-4.123 0-3.308-2.777-4.134-3.97-4.336a.494.494 0 0 1-.41-.564c-.102-1.477-.823-2.582-1.927-2.898-.91-.262-1.88.084-2.476.879a.51.51 0 0 1-.477.195.503.503 0 0 1-.4-.323c-.41-1.147-1.007-2.11-1.773-2.864-.94-.926-3.52-2.915-7.153-1.403-2.103.876-3.75 3.396-3.75 5.74 0 .264.016.525.046.78a.492.492 0 0 1-.373.537c-1.244.311-3.332 1.274-3.332 4.216 0 .096.003.191.007.284.094 1.891 1.513 3.519 3.45 3.956l-.224.96c-2.374-.534-4.113-2.538-4.227-4.869A5.978 5.978 0 0 1 6 19.795c0-3.369 2.316-4.614 3.674-5.053a6.938 6.938 0 0 1-.015-.48c0-2.755 1.875-5.612 4.36-6.648 2.914-1.211 6.002-.61 8.258 1.615a8.267 8.267 0 0 1 1.71 2.496 3.264 3.264 0 0 1 2.986-.634c1.44.414 2.404 1.718 2.618 3.517 1.412.324 4.409 1.46 4.409 5.228Zm-5.503 11.352-3.508 1.555.01-4.83 3.498-1.524v4.799Zm-8.998-.046-3.496 1.593V27.93l3.496-1.545v4.757Zm-4-4.07-3.301-1.438L15.5 24.15l3.284 1.469-3.285 1.452Zm-4.021-.674L15 27.932v4.811l-3.522-1.565v-4.78Zm8.507-10.106 3.276 1.435L20 19.175l-3.283-1.45 3.268-1.433Zm1.234 9.338 3.268-1.48 3.29 1.475-3.278 1.428-3.28-1.423Zm-.718.767 3.495 1.516-.01 4.821-3.485-1.592v-4.745Zm3.483-3.107-3.483 1.58v-4.837l3.483-1.545v4.802Zm-7.983.002-.01-4.805 3.508 1.547v4.823L16 23.292Zm13.201 1.903.005-.012-4.22-1.894v-5.565a.49.49 0 0 0-.23-.414c-.021-.014-.05-.014-.073-.024l.005-.012-4.5-1.971a.51.51 0 0 0-.409 0l-4.496 1.971.006.012c-.026.01-.053.01-.075.025a.491.491 0 0 0-.228.414l.01 5.568-4.23 1.899.006.012c-.023.01-.05.01-.07.024a.49.49 0 0 0-.228.413v5.855c0 .193.115.369.295.449l4.525 2.01.006-.012c.065.027.13.057.2.057a.495.495 0 0 0 .21-.046L20 32l4.275 1.954.007-.013c.065.03.133.059.205.059a.51.51 0 0 0 .206-.044l4.513-2.002a.492.492 0 0 0 .295-.448v-5.874a.49.49 0 0 0-.229-.413c-.02-.014-.047-.014-.069-.024Z" fill="#FFF"/></g></svg>