<svg width="40" height="40" xmlns="http://www.w3.org/2000/svg"><defs><linearGradient x1="0%" y1="100%" x2="100%" y2="0%" id="a"><stop stop-color="#2E27AD" offset="0%"/><stop stop-color="#527FFF" offset="100%"/></linearGradient></defs><g fill="none" fill-rule="evenodd"><path d="M0 0h40v40H0z" fill="url(#a)"/><path d="M29.654 28.335a.502.502 0 0 0-.145.442l.656 3.82-3.431-1.803a.487.487 0 0 0-.465 0l-3.43 1.803.655-3.82a.502.502 0 0 0-.145-.442l-2.775-2.706 3.836-.557a.5.5 0 0 0 .376-.274l1.716-3.475 1.715 3.475c.072.148.213.25.375.274l3.837.557-2.775 2.706Zm4.325-3.209a.499.499 0 0 0-.403-.34l-4.579-.666-2.047-4.148a.5.5 0 0 0-.897 0l-2.047 4.148-4.579.666a.499.499 0 0 0-.276.852l3.313 3.23-.783 4.559a.5.5 0 0 0 .726.527l4.095-2.153 4.094 2.153a.507.507 0 0 0 .527-.038.5.5 0 0 0 .199-.489l-.782-4.559 3.312-3.23a.498.498 0 0 0 .127-.512ZM12.828 12.367A5.373 5.373 0 0 1 18.196 7a5.372 5.372 0 0 1 5.366 5.367 5.373 5.373 0 0 1-5.366 5.367 5.374 5.374 0 0 1-5.368-5.367Zm5.08 6.601c1.795 0 3.575.471 5.147 1.361l.493-.87a11.441 11.441 0 0 0-3.028-1.17c2.363-.932 4.042-3.232 4.042-5.922A6.373 6.373 0 0 0 18.196 6a6.374 6.374 0 0 0-6.368 6.367 6.374 6.374 0 0 0 3.824 5.833C10.162 19.313 6 24.415 6 30.511c0 .277.223.5.5.5H20v-1H7.009c.249-6.125 5.042-11.043 10.899-11.043Z" fill="#FFF"/></g></svg>