<svg width="40" height="40" xmlns="http://www.w3.org/2000/svg"><defs><linearGradient x1="0%" y1="100%" x2="100%" y2="0%" id="a"><stop stop-color="#1B660F" offset="0%"/><stop stop-color="#6CAE3E" offset="100%"/></linearGradient></defs><g fill="none" fill-rule="evenodd"><path d="M0 0h40v40H0z" fill="url(#a)"/><path d="m31 27.197-11 5.739-11-5.74V13.803l11-5.739 11 5.74v13.394Zm.731-14.14-11.5-6a.502.502 0 0 0-.462 0l-11.5 6a.5.5 0 0 0-.269.442v14c0 .188.104.358.269.445l11.5 6a.508.508 0 0 0 .462 0l11.5-6A.502.502 0 0 0 32 27.5v-14a.5.5 0 0 0-.269-.444Zm-11.728-.894c2.43 0 4.469 1.778 4.9 4.163a6.024 6.024 0 0 0-2.375-.494c-.387 0-.87.068-1.251.141A1.981 1.981 0 0 0 20 15.5a1.98 1.98 0 0 0-1.228.433c-.556-.074-1.462-.1-1.766-.1-.649 0-1.286.116-1.897.32.475-2.269 2.498-3.989 4.894-3.989Zm7.934 9.692c0 1.178-.356 5.022-4.937 5.022-.701 0-1.45-.22-2.063-.477.926-.875 1.515-2.161 1.802-2.926.086.01.171.026.261.026 1.103 0 2-.897 2-2 0-.288-.064-.561-.175-.81a5.905 5.905 0 0 0 1.088-2.595c1.338 1.024 2.024 2.283 2.024 3.76Zm-15.953 0c0-1.611.787-3.118 2.075-4.057a5.934 5.934 0 0 0 1.118 2.889A1.975 1.975 0 0 0 15 21.5c0 1.103.897 2 2 2 .057 0 .11-.012.166-.016.379.988 1.031 2.139 1.893 2.924-.696.292-1.446.469-2.053.469a5.028 5.028 0 0 1-5.022-5.022Zm6.138-3.691c-.442.34-.842.76-1.113 1.337L17 19.5c-.441 0-.846.148-1.177.39-.501-.764-.778-1.662-.807-2.641a5.009 5.009 0 0 1 1.99-.416c.259 0 .707.015 1.104.042-.066.197-.11.405-.11.625 0 .234.048.455.122.664ZM20 18.5a1.001 1.001 0 0 1 0-2 1.001 1.001 0 0 1 0 2Zm4.181 1.395A1.982 1.982 0 0 0 23 19.5c-.068 0-.132.013-.198.02a3.224 3.224 0 0 0-.933-1.326A2 2 0 0 0 22 17.5c0-.216-.043-.42-.107-.616.226-.03.451-.051.635-.051.857 0 1.698.223 2.444.639a4.958 4.958 0 0 1-.791 2.423ZM22 21.5a1.001 1.001 0 0 1 2 0 1.001 1.001 0 0 1-2 0Zm-3.318-2.508c.352.312.811.508 1.318.508a1.98 1.98 0 0 0 1.293-.487c.259.242.436.497.572.844A1.998 1.998 0 0 0 21 21.5c0 .182.032.356.078.523-.339.086-.717.17-1.078.17-.389 0-.751-.082-1.079-.167.046-.17.079-.343.079-.526 0-.746-.416-1.391-1.023-1.734.169-.297.409-.54.705-.774ZM17 20.5a1.001 1.001 0 0 1 0 2 1.001 1.001 0 0 1 0-2Zm2.998 5.392c-.809-.597-1.489-1.71-1.885-2.731.102-.07.198-.15.285-.235.415.115.979.268 1.602.268.584 0 1.187-.158 1.601-.27.065.065.137.12.211.176-.386 1.044-1.02 2.192-1.814 2.792Zm-5.969-9.27c-.01.007-.023.012-.034.018a6.044 6.044 0 0 0-3.011 5.215 6.029 6.029 0 0 0 6.022 6.022c1.078 0 2.202-.403 2.994-.818.792.415 1.918.818 3 .818 4.378 0 5.937-3.111 5.937-6.022 0-1.972-1.023-3.661-2.946-4.923-.124-3.193-2.78-5.769-5.988-5.769-3.107 0-5.694 2.412-5.974 5.46Z" fill="#FFF"/></g></svg>