<svg width="40" height="40" xmlns="http://www.w3.org/2000/svg"><defs><linearGradient x1="0%" y1="100%" x2="100%" y2="0%" id="a"><stop stop-color="#C8511B" offset="0%"/><stop stop-color="#F90" offset="100%"/></linearGradient></defs><g fill="none" fill-rule="evenodd"><path d="M0 0h40v40H0z" fill="url(#a)"/><path d="M13.955 24.394v-2.882l2.503-1.25 2.503 1.25v2.882l-2.503 1.25-2.503-1.25Zm13.038-2.882v2.882l-2.503 1.25-2.503-1.25v-2.882l2.503-1.25 2.503 1.25ZM31 25.933l-3.004-1.536v-3.194a.502.502 0 0 0-.278-.447l-3.004-1.5a.503.503 0 0 0-.447 0l-3.004 1.5a.5.5 0 0 0-.277.447v3.5a.5.5 0 0 0 .277.447l3.004 1.5a.497.497 0 0 0 .447 0l2.778-1.386 2.986 1.526-9.492 5.817V27.5h-1.001v5.105l-9.468-5.817 2.942-1.524 2.776 1.386a.496.496 0 0 0 .448 0l3.004-1.5a.5.5 0 0 0 .277-.447v-3.5a.5.5 0 0 0-.277-.447l-3.004-1.5a.505.505 0 0 0-.448 0l-3.004 1.5a.5.5 0 0 0-.277.447v3.196l-2.952 1.529v-11.49l3.695 2.477.558-.83-3.79-2.541 9.52-5.2v3.808l-2.728 1.362a.5.5 0 0 0-.276.447v3.5a.5.5 0 0 0 .275.447l3.004 1.511a.495.495 0 0 0 .45 0l3.004-1.511a.5.5 0 0 0 .276-.447v-3.5a.502.502 0 0 0-.277-.447l-2.727-1.362V8.343l9.469 5.157-4.702 2.561.48.878 4.767-2.596v11.59ZM20.484 13.02l2.504 1.25v2.883l-2.504 1.26-2.503-1.26V14.27l2.503-1.25Zm11.255.041-11.015-6a.5.5 0 0 0-.48.001l-10.984 6A.498.498 0 0 0 9 13.5v13.25a.5.5 0 0 0 .238.426l10.984 6.75a.501.501 0 0 0 .524.001l11.015-6.75A.5.5 0 0 0 32 26.75V13.5a.5.5 0 0 0-.261-.439Z" fill="#FFF"/></g></svg>