<svg width="40" height="40" xmlns="http://www.w3.org/2000/svg"><defs><linearGradient x1="0%" y1="100%" x2="100%" y2="0%" id="a"><stop stop-color="#1B660F" offset="0%"/><stop stop-color="#6CAE3E" offset="100%"/></linearGradient></defs><g fill="none" fill-rule="evenodd"><path d="M0 0h40v40H0z" fill="url(#a)"/><path d="M8.369 17h1v-3h-1v3Zm4 0h1v-3h-1v3Zm0-6h1V8h-1v3Zm6 3h1v-3h-1v3Zm4 0h1v-3h-1v3Zm-14.5 4h2a.5.5 0 0 0 .5-.5V16h1v1.5a.5.5 0 0 0 .5.5h2a.5.5 0 0 0 .5-.5V16h1.5a.5.5 0 0 0 .5-.5V13h1v1.5a.5.5 0 0 0 .5.5h2a.5.5 0 0 0 .5-.5V13h1v1.5a.5.5 0 0 0 .5.5h2a.5.5 0 0 0 .5-.5v-4a.5.5 0 0 0-.5-.5h-2a.5.5 0 0 0-.5.5V12h-1v-1.5a.5.5 0 0 0-.5-.5h-2a.5.5 0 0 0-.5.5V12h-1v-1.5a.5.5 0 0 0-.5-.5h-1.5V7.5a.5.5 0 0 0-.5-.5h-2a.5.5 0 0 0-.5.5v4a.5.5 0 0 0 .5.5h2a.5.5 0 0 0 .5-.5V11h1v4h-1v-1.5a.5.5 0 0 0-.5-.5h-2a.5.5 0 0 0-.5.5V15h-1v-1.5a.5.5 0 0 0-.5-.5h-2a.5.5 0 0 0-.5.5v4a.5.5 0 0 0 .5.5Zm8.642-9.495-.25-.968a12.295 12.295 0 0 1 3.599-.383 12.401 12.401 0 0 1 10.491 6.675l-.889.46a11.397 11.397 0 0 0-9.641-6.136 11.49 11.49 0 0 0-3.31.352Zm12.403 17.169.84.543a12.372 12.372 0 0 1-5.199 4.517l-.42-.907a11.377 11.377 0 0 0 4.779-4.153ZM8 19.534c.002 1.471.284 2.905.836 4.261l-.926.377A12.28 12.28 0 0 1 7 19.535l1-.001Zm8.36 9.47a1.983 1.983 0 0 1-1.981-1.98c0-1.092.889-1.98 1.981-1.98s1.98.888 1.98 1.98-.888 1.98-1.98 1.98Zm0-4.96a2.983 2.983 0 0 0-2.981 2.98 2.984 2.984 0 0 0 2.981 2.98 2.984 2.984 0 0 0 2.98-2.98 2.983 2.983 0 0 0-2.98-2.98Zm5.701 3.683-.501-.029a.525.525 0 0 0-.517.39 4.726 4.726 0 0 1-.619 1.496.498.498 0 0 0 .09.64l.374.334-.994.994-.332-.372a.5.5 0 0 0-.641-.09 4.736 4.736 0 0 1-1.498.621.5.5 0 0 0-.388.516l.028.498h-1.406l.028-.498a.5.5 0 0 0-.389-.516 4.766 4.766 0 0 1-1.497-.622.5.5 0 0 0-.64.09l-.333.373-.995-.994.373-.333a.498.498 0 0 0 .09-.64 4.742 4.742 0 0 1-.62-1.498.51.51 0 0 0-.515-.389l-.5.029v-1.406l.501.028a.494.494 0 0 0 .516-.388 4.762 4.762 0 0 1 .621-1.495.499.499 0 0 0-.09-.64l-.376-.336.995-.995.335.376a.502.502 0 0 0 .64.09c.461-.29.964-.498 1.495-.619a.499.499 0 0 0 .389-.516l-.028-.503h1.406l-.028.504a.5.5 0 0 0 .388.516c.531.12 1.034.329 1.494.62a.5.5 0 0 0 .64-.09l.337-.378.994.995-.375.334a.5.5 0 0 0-.09.64c.291.461.5.965.621 1.498a.49.49 0 0 0 .516.387l.501-.028v1.406Zm.472-2.434-.623.035c-.11-.356-.252-.7-.427-1.029l.466-.415a.501.501 0 0 0 .02-.727l-1.742-1.743a.593.593 0 0 0-.367-.146.501.501 0 0 0-.36.167l-.418.467a5.854 5.854 0 0 0-1.026-.425l.035-.626a.498.498 0 0 0-.499-.528h-2.465a.501.501 0 0 0-.499.528l.035.625a5.864 5.864 0 0 0-1.027.425l-.417-.466a.5.5 0 0 0-.359-.167.582.582 0 0 0-.367.146l-1.743 1.743a.503.503 0 0 0 .021.727l.467.416a5.66 5.66 0 0 0-.427 1.028l-.624-.035a.5.5 0 0 0-.528.499v2.464a.499.499 0 0 0 .528.499l.621-.035a5.7 5.7 0 0 0 .427 1.031l-.464.413a.5.5 0 0 0-.021.727l1.743 1.742a.55.55 0 0 0 .367.147.505.505 0 0 0 .359-.167l.414-.464c.329.176.674.319 1.03.428l-.035.619a.501.501 0 0 0 .499.529h2.465a.498.498 0 0 0 .499-.529l-.035-.619a5.73 5.73 0 0 0 1.031-.427l.413.463a.505.505 0 0 0 .359.167.51.51 0 0 0 .368-.147l1.742-1.742a.502.502 0 0 0-.02-.727l-.465-.414c.176-.329.318-.674.426-1.03l.623.035a.517.517 0 0 0 .372-.135.503.503 0 0 0 .156-.364v-2.464a.505.505 0 0 0-.156-.364.51.51 0 0 0-.372-.135Zm6.335-4.456a.991.991 0 0 1-1.474-1.082.98.98 0 0 1 .448-.61.991.991 0 0 1 1.359.333.993.993 0 0 1-.333 1.359Zm1.188-1.877a1.99 1.99 0 1 0-.671 2.732 1.992 1.992 0 0 0 .671-2.731v-.001Zm1.617 2.807-1.113-.162a.497.497 0 0 0-.384.104l-.542.432a.497.497 0 0 0-.187.36l-.071 1.128-1.675.089-.194-1.126a.502.502 0 0 0-.221-.335l-.565-.367a.502.502 0 0 0-.397-.065l-1.105.284-.602-1.565 1.002-.528a.498.498 0 0 0 .251-.317l.174-.67a.506.506 0 0 0-.062-.394l-.602-.948 1.303-1.057.813.792c.1.096.227.155.373.141l.68-.033a.493.493 0 0 0 .361-.181l.725-.877 1.408.912-.504 1.023a.5.5 0 0 0-.017.403l.248.635a.5.5 0 0 0 .282.283l1.054.418-.433 1.621Zm1.214-2.387-1.265-.501-.088-.228.603-1.223a.5.5 0 0 0-.177-.641l-2.155-1.396a.499.499 0 0 0-.657.101l-.868 1.05-.242.012-.976-.951a.5.5 0 0 0-.664-.03l-1.994 1.618a.499.499 0 0 0-.107.656l.725 1.141-.065.246-1.199.632a.5.5 0 0 0-.234.622l.922 2.396c.09.237.34.367.591.305l1.324-.34.197.128.231 1.348a.5.5 0 0 0 .494.416l.026-.001 2.564-.136a.5.5 0 0 0 .473-.468l.085-1.352.199-.158 1.339.194a.496.496 0 0 0 .556-.366l.662-2.481a.5.5 0 0 0-.3-.593Z" fill="#FFF"/></g></svg>