<svg width="40" height="40" xmlns="http://www.w3.org/2000/svg"><defs><linearGradient x1="0%" y1="100%" x2="100%" y2="0%" id="a"><stop stop-color="#B0084D" offset="0%"/><stop stop-color="#FF4F8B" offset="100%"/></linearGradient></defs><g fill="none" fill-rule="evenodd"><path d="M0 0h40v40H0z" fill="url(#a)"/><path d="M14 26.001h1v-5h-1v5Zm9 0h1v-5h-1v5Zm-3 0h1v-12h-1v12Zm-3 0h1v-8h-1v8Zm16 2.884L14.726 32.94 7.062 21.442l5.751-14.376L23.05 8.927l.954 7.636a.493.493 0 0 0 .552.435L33 16.06v12.825Zm.833-13.757a.498.498 0 0 0-.388-.124l-8.51.946-.939-7.51a.499.499 0 0 0-.406-.43l-11-2a.493.493 0 0 0-.554.305l-6 15a.498.498 0 0 0 .048.463l8 12a.5.5 0 0 0 .525.211l19-4.214a.5.5 0 0 0 .391-.488V15.501a.498.498 0 0 0-.167-.373Z" fill="#FFF"/></g></svg>