<svg width="48" height="48" xmlns="http://www.w3.org/2000/svg"><defs><linearGradient x1="0%" y1="100%" x2="100%" y2="0%" id="a"><stop stop-color="#2E27AD" offset="0%"/><stop stop-color="#527FFF" offset="100%"/></linearGradient></defs><g fill="none" fill-rule="evenodd"><path fill="url(#a)" d="M4 4h40v40H4z"/><path stroke="#879196" stroke-width="2" d="M1 1h46v46H1z"/><path d="m35.948 32.71-8.404-8.404a1.155 1.155 0 0 0-.824-.342c-.31 0-.604.121-.824.342l-1.59 1.591a1.162 1.162 0 0 0 0 1.647l8.404 8.405c.85.85 2.234.852 3.087 0l.151-.152a2.185 2.185 0 0 0 0-3.087Zm-18.55-13.946 6.325 6.3 1.341-1.34-5.954-5.978a2.06 2.06 0 0 1-.497-.816l-.868-2.706a1.035 1.035 0 0 0-.559-.628l-2.97-1.346a1.046 1.046 0 0 0-1.163.21l-.593.594a1.042 1.042 0 0 0-.21 1.162l1.345 2.97c.122.267.351.47.628.56l3.174 1.018Zm19.257 13.24a3.186 3.186 0 0 1 0 4.5l-.15.151a3.166 3.166 0 0 1-2.252.933c-.85 0-1.649-.33-2.25-.932l-8.405-8.404a2.153 2.153 0 0 1-.634-1.53c0-.293.057-.575.167-.836l-6.269-6.243-2.943-.945a2.044 2.044 0 0 1-1.234-1.098l-1.346-2.97a2.045 2.045 0 0 1 .414-2.283l.593-.594a2.044 2.044 0 0 1 2.283-.414l2.97 1.346c.522.237.922.686 1.098 1.233l.87 2.707c.048.155.136.3.252.416l6.076 6.1c.785-.309 1.742-.157 2.356.458l8.404 8.404Zm.483-18.4a.501.501 0 0 0-.438.14l-3.04 3.04a1.047 1.047 0 0 1-1.446 0 1.025 1.025 0 0 1 0-1.446l3.041-3.04a.503.503 0 0 0-.138-.805 5.07 5.07 0 0 0-5.762.987 5.028 5.028 0 0 0-1.465 3.974l-3.546 3.547.708.707 3.713-3.715a.499.499 0 0 0 .143-.416 4.042 4.042 0 0 1 1.154-3.39 4.064 4.064 0 0 1 3.936-1.046l-2.49 2.491a2.024 2.024 0 0 0 0 2.86c.762.762 2.094.761 2.858 0L36.857 15a4.073 4.073 0 0 1-1.046 3.936 4.05 4.05 0 0 1-3.389 1.153.506.506 0 0 0-.417.143l-2.96 2.96.707.706 2.792-2.79a5.028 5.028 0 0 0 3.974-1.465 5.073 5.073 0 0 0 .987-5.762.499.499 0 0 0-.367-.277Zm-13.11 16.067-2.92 2.875a5.029 5.029 0 0 1-1.466 3.973 5.065 5.065 0 0 1-5.76.986.502.502 0 0 1-.138-.805l3.04-3.04a1.027 1.027 0 0 0 0-1.446 1.048 1.048 0 0 0-1.445 0l-3.04 3.041a.5.5 0 0 1-.806-.138 5.073 5.073 0 0 1 .986-5.762 5.034 5.034 0 0 1 3.972-1.464l3.191-3.243.713.702-3.359 3.413a.5.5 0 0 1-.42.146 4.032 4.032 0 0 0-3.39 1.153 4.073 4.073 0 0 0-1.046 3.936l2.492-2.49c.762-.764 2.094-.766 2.86 0a2.026 2.026 0 0 1 0 2.858L15 36.857a4.062 4.062 0 0 0 3.935-1.045 4.042 4.042 0 0 0 1.155-3.39.5.5 0 0 1 .145-.42l3.092-3.043.701.712Z" fill="#FFF"/></g></svg>