<svg width="40" height="40" xmlns="http://www.w3.org/2000/svg"><defs><linearGradient x1="0%" y1="100%" x2="100%" y2="0%" id="a"><stop stop-color="#B0084D" offset="0%"/><stop stop-color="#FF4F8B" offset="100%"/></linearGradient></defs><g fill="none" fill-rule="evenodd"><path d="M0 0h40v40H0z" fill="url(#a)"/><path d="M30.5 30a2.503 2.503 0 0 1-2.5-2.5c0-1.378 1.121-2.5 2.5-2.5s2.5 1.122 2.5 2.5-1.121 2.5-2.5 2.5Zm0-6c-1.93 0-3.5 1.57-3.5 3.5s1.57 3.5 3.5 3.5 3.5-1.57 3.5-3.5-1.57-3.5-3.5-3.5Zm0-2a2.503 2.503 0 0 1-2.5-2.5c0-1.378 1.121-2.5 2.5-2.5s2.5 1.122 2.5 2.5-1.121 2.5-2.5 2.5Zm0-6c-1.93 0-3.5 1.57-3.5 3.5s1.57 3.5 3.5 3.5 3.5-1.57 3.5-3.5-1.57-3.5-3.5-3.5Zm0-2a2.503 2.503 0 0 1-2.5-2.5c0-1.378 1.121-2.5 2.5-2.5s2.5 1.122 2.5 2.5-1.121 2.5-2.5 2.5Zm0-6C28.57 8 27 9.57 27 11.5s1.57 3.5 3.5 3.5 3.5-1.57 3.5-3.5S32.43 8 30.5 8ZM34 6v1h-9v26h9v1h-9.5a.5.5 0 0 1-.5-.5V20h-7v-1h7V6.5a.5.5 0 0 1 .5-.5H34ZM7 22.691v-6.382l6.382 3.191L7 22.691Zm7.724-3.638-8-4A.5.5 0 0 0 6 15.5v8a.5.5 0 0 0 .724.447l8-4a.5.5 0 0 0 0-.894ZM10.5 33C8.57 33 7 31.43 7 29.5S8.57 26 10.5 26s3.5 1.57 3.5 3.5-1.57 3.5-3.5 3.5Zm0-8A4.505 4.505 0 0 0 6 29.5c0 2.481 2.019 4.5 4.5 4.5s4.5-2.019 4.5-4.5-2.019-4.5-4.5-4.5ZM7 13h6V7H7v6Zm-.5 1h7a.5.5 0 0 0 .5-.5v-7a.5.5 0 0 0-.5-.5h-7a.5.5 0 0 0-.5.5v7a.5.5 0 0 0 .5.5Z" fill="#FFF"/></g></svg>