<svg width="40" height="40" xmlns="http://www.w3.org/2000/svg"><defs><linearGradient x1="0%" y1="100%" x2="100%" y2="0%" id="a"><stop stop-color="#055F4E" offset="0%"/><stop stop-color="#56C0A7" offset="100%"/></linearGradient></defs><g fill="none" fill-rule="evenodd"><path d="M0 0h40v40H0z" fill="url(#a)"/><path d="M20.047 19.042h4.014V18.04h-4.014v1.003Zm1.004 6.019h1.003v-2.007h-1.003v2.007Zm-7.024-9.028h2.007V15.03h-2.007v1.003Zm-6.02 6.018h8.027v-1.003H8.007v1.003Zm0-3.009h11.037V18.04H8.007v1.003Zm11.037 7.022h1.003V22.05h-1.003v4.013Zm10.034 0h1.003V22.05h-1.003v4.013ZM27.07 28.07h1.004v-7.022H27.07v7.022Zm-2.007-1.003h1.004v-6.019h-1.004v6.019Zm-2.006-1.003h1.003V22.05h-1.003v4.013Zm10.87 6.994-2.312-4.52a8.519 8.519 0 0 0 1.227-4.428c0-4.772-3.88-8.653-8.65-8.653-.772 0-1.536.1-2.27.3l.263.968a7.68 7.68 0 0 1 2.006-.265c4.217 0 7.647 3.432 7.647 7.65a7.513 7.513 0 0 1-1.219 4.127.5.5 0 0 0-.026.503l1.949 3.812-3.876-1.94a.499.499 0 0 0-.486.02 7.685 7.685 0 0 1-3.989 1.122c-3.806 0-7.065-2.837-7.58-6.6l-.994.136c.582 4.257 4.269 7.467 8.574 7.467a8.671 8.671 0 0 0 4.269-1.126l4.605 2.305a.652.652 0 0 0 .752-.136c.194-.2.237-.5.11-.742ZM8.007 16.033h4.013V15.03H8.007v1.003Zm7.023-5.016h4.133L15.03 7.573v3.444Zm-8.027 9.028H6V6.504c0-.277.225-.502.502-.502L14.529 6c.115 0 .23.04.32.116l6.021 5.018c.117.097.18.24.18.385v2.508h-1.003V12.02H14.53a.501.501 0 0 1-.502-.501V7.003l-7.024.002v13.04Zm0 7.022h8.027v1.003H6.502A.501.501 0 0 1 6 27.568v-4.514h1.003v4.013Z" fill="#FFF"/></g></svg>