<svg width="40" height="40" xmlns="http://www.w3.org/2000/svg"><defs><linearGradient x1="0%" y1="100%" x2="100%" y2="0%" id="a"><stop stop-color="#BD0816" offset="0%"/><stop stop-color="#FF5252" offset="100%"/></linearGradient></defs><g fill="none" fill-rule="evenodd"><path d="M0 0h40v40H0z" fill="url(#a)"/><path d="m25.132 25.696.507.864-2.053 1.203-.507-.865 2.053-1.202Zm-9.419-.016 2.071 1.17-.492.872-2.071-1.17.492-.872Zm9.42-11.605-2.054-1.201.507-.866 2.053 1.203-.507.864Zm-9.42.017-.492-.873 2.07-1.17.493.873-2.07 1.17Zm12.334 6.883h1.001v-1.977h-1.001v1.977Zm-16.046 0h1.001V19.01h-1.001v1.965Zm19.998 5.482-11.457 6.467-11.54-6.468V13.543l11.54-6.468 11.457 6.467v12.915Zm.748-13.643-11.958-6.75a.503.503 0 0 0-.49 0l-12.044 6.75A.5.5 0 0 0 8 13.25v13.5a.5.5 0 0 0 .255.436l12.043 6.75a.503.503 0 0 0 .49-.001l11.959-6.75a.5.5 0 0 0 .253-.436V13.25a.5.5 0 0 0-.253-.436ZM12.634 25.405a.947.947 0 0 1 0-1.89.947.947 0 0 1 0 1.89Zm0-2.892a1.949 1.949 0 0 0-1.947 1.947c0 1.073.873 1.947 1.947 1.947a1.949 1.949 0 0 0 1.947-1.947 1.949 1.949 0 0 0-1.947-1.947Zm15.704 2.892a.947.947 0 1 1 .946-.945c0 .52-.424.945-.946.945Zm0-2.892a1.949 1.949 0 0 0-1.947 1.947c0 1.073.874 1.947 1.947 1.947a1.95 1.95 0 0 0 1.948-1.947 1.95 1.95 0 0 0-1.948-1.947Zm-6.906-11.655a.947.947 0 0 1-1.89 0 .947.947 0 0 1 1.89 0Zm-2.892 0c0 1.073.873 1.946 1.945 1.946a1.949 1.949 0 0 0 1.948-1.946 1.95 1.95 0 0 0-1.948-1.947 1.949 1.949 0 0 0-1.945 1.947Zm9.798 3.589c.522 0 .947.423.947.945a.947.947 0 0 1-1.892 0c0-.522.424-.945.945-.945Zm-7.853 6.441a.946.946 0 0 1 0-1.89c.522 0 .947.423.947.945 0 .52-.425.945-.947.945Zm.947 8.105a.946.946 0 1 1-.946-.945c.521 0 .946.423.946.945Zm-8.798-12.655a.947.947 0 0 1 0-1.891.947.947 0 0 1 0 1.89Zm9.155 2.169a1.934 1.934 0 0 0-1.304-.51c-.527 0-1.007.212-1.358.556l-4.614-2.678c.04-.155.068-.315.068-.483a1.949 1.949 0 0 0-1.947-1.947 1.949 1.949 0 0 0-1.947 1.947c0 1.074.873 1.947 1.947 1.947.545 0 1.037-.226 1.39-.589l4.597 2.667a1.942 1.942 0 0 0-.081.526c0 .92.644 1.689 1.502 1.892V27.1a1.949 1.949 0 0 0-1.502 1.892c0 1.073.873 1.946 1.945 1.946a1.95 1.95 0 0 0 1.948-1.946c0-.879-.589-1.615-1.39-1.857v-5.337a1.943 1.943 0 0 0 1.39-1.856c0-.208-.04-.405-.102-.593l4.575-2.648c.358.389.864.637 1.432.637a1.95 1.95 0 0 0 1.948-1.947 1.95 1.95 0 0 0-1.948-1.947 1.949 1.949 0 0 0-1.947 1.947c0 .145.018.287.05.424l-4.652 2.69Z" fill="#FFF"/></g></svg>