<svg width="40" height="40" xmlns="http://www.w3.org/2000/svg"><defs><linearGradient x1="0%" y1="100%" x2="100%" y2="0%" id="a"><stop stop-color="#2E27AD" offset="0%"/><stop stop-color="#527FFF" offset="100%"/></linearGradient></defs><g fill="none" fill-rule="evenodd"><path d="M0 0h40v40H0z" fill="url(#a)"/><path d="M32.733 14a2 2 0 1 0-3.463 2.003A2 2 0 0 0 32.733 14Zm-.231 3.598a2.97 2.97 0 0 1-.674.278l.262 1.354 1.261-.727.5.866-2.475 1.429-.547-2.821c-.973-.059-1.903-.571-2.425-1.477a3.002 3.002 0 0 1 1.098-4.097 3.004 3.004 0 0 1 4.097 1.097 3.005 3.005 0 0 1-1.097 4.098Zm-1.586 9.256a2.479 2.479 0 0 0-1.164-1.518 2.48 2.48 0 0 0-1.898-.25 2.486 2.486 0 0 0-1.518 1.165 2.489 2.489 0 0 0-.25 1.896 2.48 2.48 0 0 0 1.165 1.518 2.48 2.48 0 0 0 1.897.25 2.485 2.485 0 0 0 1.519-1.165 2.489 2.489 0 0 0 .249-1.896Zm.965-.259a3.468 3.468 0 0 1-.35 2.655 3.475 3.475 0 0 1-2.124 1.631 3.48 3.48 0 0 1-2.655-.35 3.54 3.54 0 0 1-.57-.408l-.888.77.994.698-.575.819-2.041-1.435 1.875-1.625a3.46 3.46 0 0 1-.426-.944 3.472 3.472 0 0 1 .35-2.655 3.475 3.475 0 0 1 2.124-1.631 3.489 3.489 0 0 1 2.657.35 3.472 3.472 0 0 1 1.629 2.125ZM20.001 32c0-1.103-.899-2-2-2-1.104 0-2.001.897-2.001 2a2.001 2.001 0 0 0 4 0Zm1 0c0 1.655-1.347 3-3 3C16.344 35 15 33.655 15 32c0-.505.137-.976.36-1.394L14 30.134V32h-1v-3.27l3.009 1.042A2.983 2.983 0 0 1 18 29c1.654 0 3 1.346 3 3Zm-10.27-9a2 2 0 1 0-3.464 2.003A2 2 0 0 0 10.73 23Zm.865-.5a3.004 3.004 0 0 1-1.097 4.098 3 3 0 0 1-3-5.195c.262-.152.541-.244.822-.31l-.3-1.547-1.255.726-.502-.865 2.472-1.43.592 3.053a2.984 2.984 0 0 1 2.268 1.47ZM10 14.732c.953.551 2.18.224 2.733-.732a2.002 2.002 0 0 0-1.73-2.999c-.692 0-1.366.359-1.736.999A2.002 2.002 0 0 0 10 14.732ZM8.4 11.501a3.007 3.007 0 0 1 4.1-1.098c.112.065.208.145.308.222l1.529-1.329-1.257-.728.502-.865 2.468 1.429-2.558 2.223c.603.918.69 2.13.106 3.145a3.004 3.004 0 0 1-4.099 1.098A3.004 3.004 0 0 1 8.4 11.501ZM20 9c0 1.104.898 2 2 2 .769 0 1.429-.44 1.764-1.077l-.012-.005.22-.64c.013-.091.029-.182.029-.278 0-1.103-.898-2-2-2-1.103 0-2 .897-2 2Zm-1 0c0-1.654 1.346-3 3-3 1.655 0 3.001 1.346 3.001 3 0 .097-.02.188-.029.282l1.03.355V8h1v3.039l-2.284-.787A2.996 2.996 0 0 1 22.001 12c-1.655 0-3-1.345-3-3Zm-1.29 15.011.916.403 3.614-8.23-.916-.403-3.614 8.23Zm5.47-6.779-.698.716 2.115 2.065-2.364 1.775.6.799 3.297-2.474-2.95-2.881Zm-9.311 2.084 3.298-2.475.6.8-2.365 1.775 2.115 2.065-.699.716-2.95-2.881Z" fill="#FFF"/></g></svg>