<svg width="40" height="40" xmlns="http://www.w3.org/2000/svg"><defs><linearGradient x1="0%" y1="100%" x2="100%" y2="0%" id="a"><stop stop-color="#1B660F" offset="0%"/><stop stop-color="#6CAE3E" offset="100%"/></linearGradient></defs><g fill="none" fill-rule="evenodd"><path d="M0 0h40v40H0z" fill="url(#a)"/><path d="M30.012 24.361a1.01 1.01 0 0 0-1.002-1.014 1.01 1.01 0 0 0-1.001 1.014c0 .56.448 1.015 1.001 1.015a1.01 1.01 0 0 0 1.002-1.015m-1.6 1.926a2.013 2.013 0 0 1-1.334-1.419h-1.573v5.445a5.575 5.575 0 0 0 2.906-4.026m-3.908 4.43V24.36c0-.28.224-.507.5-.507h2.075c.118-.462.39-.86.761-1.131a5.568 5.568 0 0 0-3.013-2.607 2.014 2.014 0 0 1-1.325 1.13v9.661a5.465 5.465 0 0 0 1.002-.19m-2.003.19v-9.662a2.014 2.014 0 0 1-1.324-1.129 5.568 5.568 0 0 0-3.014 2.607c.37.271.643.67.761 1.13h2.074c.277 0 .501.228.501.508v6.356c.325.094.657.157 1.002.19m-2.003-.594v-5.445h-1.574a2.013 2.013 0 0 1-1.333 1.419 5.575 5.575 0 0 0 2.907 4.026m-3.506-4.937a1.01 1.01 0 0 0 1.002-1.015 1.01 1.01 0 0 0-1.002-1.014 1.01 1.01 0 0 0-1.002 1.014c0 .56.45 1.015 1.002 1.015m5.008-6.088c0 .56.449 1.015 1.002 1.015a1.01 1.01 0 0 0 1.001-1.015 1.01 1.01 0 0 0-1.001-1.015 1.01 1.01 0 0 0-1.002 1.015m9.014 5.073c0 .972-.678 1.784-1.578 1.982a6.62 6.62 0 0 1-3.93 5.108V34h-1.002v-2.217a6.31 6.31 0 0 1-1.002.163V34H22.5v-2.054a6.31 6.31 0 0 1-1.002-.163V34h-1.001v-2.549a6.62 6.62 0 0 1-3.93-5.108 2.025 2.025 0 0 1-1.58-1.982c0-1.119.9-2.03 2.004-2.03.08 0 .155.016.232.024a6.582 6.582 0 0 1 3.793-3.25c.093-1.032.942-1.846 1.985-1.846 1.042 0 1.892.814 1.984 1.845a6.582 6.582 0 0 1 3.793 3.251c.077-.008.153-.023.232-.023 1.105 0 2.003.91 2.003 2.03M34 19.215c.025 1.481-.555 2.92-1.551 3.869l-.687-.739c.795-.758 1.258-1.912 1.237-3.087 0-2.271-1.646-4.107-3.83-4.313a.508.508 0 0 1-.452-.541l.01-.175c0-1.464-1.168-2.655-2.604-2.655-.672 0-1.31.262-1.797.737a.496.496 0 0 1-.817-.19c-.905-2.457-3.242-4.107-5.812-4.107-3.426 0-6.214 2.84-6.214 6.33a.51.51 0 0 1-.345.486c-1.875.622-3.135 2.388-3.135 4.396 0 2.552 2.037 4.627 4.54 4.627v1.014c-3.056 0-5.542-2.53-5.542-5.64 0-2.327 1.388-4.388 3.49-5.238.183-3.887 3.346-6.99 7.206-6.99 2.76 0 5.288 1.638 6.486 4.139a3.532 3.532 0 0 1 1.94-.579c1.912 0 3.482 1.523 3.6 3.44 2.468.454 4.277 2.62 4.277 5.216" fill="#FFF"/></g></svg>