<svg width="40" height="40" xmlns="http://www.w3.org/2000/svg"><defs><linearGradient x1="0%" y1="100%" x2="100%" y2="0%" id="a"><stop stop-color="#C8511B" offset="0%"/><stop stop-color="#F90" offset="100%"/></linearGradient></defs><g fill="none" fill-rule="evenodd"><path d="M0 0h40v40H0z" fill="url(#a)"/><path d="m26.999 15.29-6.5-3.715-6.5 3.715v7.937l6.5 4.18 6.5-4.18V15.29ZM32 13v3.5h-1v-2.69l-3.001 1.499V23.5a.5.5 0 0 1-.229.42L21 28.273v3.377l2.757-1.533.486.874-3.5 1.946a.5.5 0 0 1-.486 0l-3.5-1.947.486-.874L20 31.65v-3.376l-6.772-4.354a.5.5 0 0 1-.229-.42V15.31L10 13.809V16.5H9V13a.5.5 0 0 1 .252-.435l3.5-2.002.496.87-2.688 1.537 2.923 1.462 6.768-3.868a.499.499 0 0 1 .496 0l6.768 3.868 2.926-1.461-2.689-1.539.496-.869 3.5 2.002a.5.5 0 0 1 .252.435Zm-14.006 4.37v3.35l2.51 1.224 2.525-1.224v-3.35l-2.525-1.305-2.51 1.305Zm2.278-2.312a.501.501 0 0 1 .46-.001l2.801 1.448 1.773-.886.447.894-1.724.862v3.658a.498.498 0 0 1-.282.45L21 22.814V25.5h-1v-2.689l-2.725-1.329a.5.5 0 0 1-.281-.449v-3.658l-1.724-.862.448-.894 1.771.886 2.783-1.447Zm.227-7.985 3.258 1.811.486-.874-3.501-1.947a.5.5 0 0 0-.486 0l-3.5 1.947.486.874 3.257-1.81ZM10 22.5H9V26a.5.5 0 0 0 .252.434l3.5 2.002.496-.868L10 25.709V22.5Zm21 0h1v3.501a.5.5 0 0 1-.252.435l-3.5 2-.496-.868L31 25.71v-3.21Z" fill="#FFF"/></g></svg>