<svg width="40" height="40" xmlns="http://www.w3.org/2000/svg"><defs><linearGradient x1="0%" y1="100%" x2="100%" y2="0%" id="a"><stop stop-color="#C8511B" offset="0%"/><stop stop-color="#F90" offset="100%"/></linearGradient></defs><g fill="none" fill-rule="evenodd"><path d="M0 0h40v40H0z" fill="url(#a)"/><path d="M20.568 29.523c.607 0 1.098.489 1.098 1.092 0 .603-.491 1.093-1.098 1.093-.606 0-1.098-.49-1.098-1.093s.492-1.092 1.098-1.092m-9.004-9.047c0 .604-.493 1.093-1.1 1.093a1.095 1.095 0 0 1-1.097-1.093c0-.602.491-1.092 1.098-1.092.606 0 1.099.49 1.099 1.092M30.748 32.93c-1.255 0-2.239-.943-2.239-2.146a2.236 2.236 0 0 1 2.24-2.228c1.235 0 2.24 1 2.24 2.228 0 1.203-.984 2.146-2.24 2.146m-2.24-12.398a2.236 2.236 0 0 1 2.24-2.228c1.235 0 2.24 1 2.24 2.228a2.236 2.236 0 0 1-2.24 2.227c-1.235 0-2.24-1-2.24-2.227m-7.94 2.23c-1.236 0-2.241-1-2.241-2.228a2.237 2.237 0 0 1 2.24-2.228c1.236 0 2.24 1 2.24 2.228a2.237 2.237 0 0 1-2.24 2.228m2.454 7.792c0 1.391-1.054 2.44-2.454 2.44-1.399 0-2.454-1.049-2.454-2.44 0-1.392 1.055-2.44 2.454-2.44 1.4 0 2.454 1.048 2.454 2.44m-5.401-19.619c0-1.533 1.405-2.93 2.947-2.93s2.947 1.397 2.947 2.93c0 1.534-1.405 2.93-2.947 2.93s-2.947-1.396-2.947-2.93m-7.156 12.041c-1.4 0-2.454-1.048-2.454-2.44 0-1.412 1.101-2.561 2.454-2.561 1.354 0 2.455 1.149 2.455 2.561 0 1.392-1.056 2.44-2.455 2.44m2.233 7.795c0 1.213-.985 2.164-2.24 2.164-1.257 0-2.242-.95-2.242-2.164a2.237 2.237 0 0 1 2.242-2.228c1.235 0 2.24 1 2.24 2.228m18.556-3.17v-3.887C32.806 23.471 34 22.144 34 20.533c0-1.783-1.458-3.233-3.252-3.233a3.243 3.243 0 0 0-3.2 2.733h-3.78a3.231 3.231 0 0 0-2.694-2.68v-2.535c1.888-.266 3.452-1.956 3.452-3.882C24.526 8.84 22.677 7 20.568 7s-3.958 1.84-3.958 3.936c0 1.926 1.564 3.616 3.453 3.882v2.535a3.231 3.231 0 0 0-2.695 2.68h-3.487c-.241-1.727-1.674-3.063-3.416-3.063C8.554 16.97 7 18.57 7 20.537c0 1.76 1.267 3.158 2.96 3.396v3.656c-1.556.24-2.755 1.57-2.755 3.183 0 1.777 1.429 3.17 3.253 3.17s3.251-1.393 3.251-3.17c0-1.609-1.19-2.935-2.739-3.181v-3.658a3.384 3.384 0 0 0 2.911-2.895h3.487a3.231 3.231 0 0 0 2.695 2.68v3.44c-1.693.239-2.96 1.637-2.96 3.397 0 1.932 1.522 3.445 3.465 3.445 1.943 0 3.465-1.513 3.465-3.445 0-1.76-1.267-3.158-2.96-3.397v-3.44a3.231 3.231 0 0 0 2.695-2.68h3.78a3.234 3.234 0 0 0 2.695 2.677v3.887c-1.552.244-2.745 1.572-2.745 3.183 0 1.767 1.428 3.152 3.25 3.152 1.824 0 3.252-1.385 3.252-3.152 0-1.61-1.194-2.939-2.746-3.183" fill="#FFF"/></g></svg>