<svg width="40" height="40" xmlns="http://www.w3.org/2000/svg"><defs><linearGradient x1="0%" y1="100%" x2="100%" y2="0%" id="a"><stop stop-color="#4D27A8" offset="0%"/><stop stop-color="#A166FF" offset="100%"/></linearGradient></defs><g fill="none" fill-rule="evenodd"><path d="M0 0h40v40H0z" fill="url(#a)"/><path d="M27.163 15.543c-1.839.412-4.673.495-6.663.495-1.977 0-4.785-.082-6.625-.486l5.539 8.197a.504.504 0 0 1 .086.281v1.068c.701.202 1.349.205 2 .007V24.03c0-.1.03-.2.087-.282l5.576-8.205Zm1.69-.771.03.02-6.383 9.392v1.276a.5.5 0 0 1-.314.464 4.382 4.382 0 0 1-1.653.329 4.909 4.909 0 0 1-1.706-.324.501.501 0 0 1-.327-.47v-1.275l-6.395-9.465A.572.572 0 0 1 12 14.41c0-1.425 4.692-1.689 7.488-1.72l.012 1.002c-3.343.036-5.421.41-6.212.7.943.309 3.533.644 7.212.644 3.45 0 5.943-.295 7.017-.587-.5-.133-1.416-.315-3.078-.519l.121-.994c4.122.503 4.44.928 4.44 1.474 0 .131-.06.25-.147.362ZM16.5 11.008h1v-1.001h-1v1.001Zm-1 .501V9.506a.5.5 0 0 1 .5-.501h2a.5.5 0 0 1 .5.5v2.004a.5.5 0 0 1-.5.501h-2a.5.5 0 0 1-.5-.5Zm5-3.506h1V7.002h-1v1.001Zm-1 .501V6.501A.5.5 0 0 1 20 6h2a.5.5 0 0 1 .5.5v2.004a.5.5 0 0 1-.5.501h-2a.5.5 0 0 1-.5-.5Zm2 4.508h1V12.01h-1v1.002Zm-.5-2.004h2a.5.5 0 0 1 .5.501v2.004a.5.5 0 0 1-.5.5h-2a.5.5 0 0 1-.5-.5v-2.004a.5.5 0 0 1 .5-.5Zm3.424 18.325a.5.5 0 0 1-.079.536l-3.469 3.96a.5.5 0 0 1-.752 0l-3.469-3.96a.5.5 0 0 1 .376-.83h1.453v-1.002h1v1.503a.5.5 0 0 1-.5.5h-.849L20.5 32.74l2.365-2.699H22a.5.5 0 0 1-.5-.5v-1.503h1v1.002h1.469c.196 0 .374.114.455.294Z" fill="#FFF"/></g></svg>