<svg width="48" height="48" xmlns="http://www.w3.org/2000/svg"><defs><linearGradient x1="0%" y1="100%" x2="100%" y2="0%" id="a"><stop stop-color="#B0084D" offset="0%"/><stop stop-color="#FF4F8B" offset="100%"/></linearGradient></defs><g fill="none" fill-rule="evenodd"><path fill="url(#a)" d="M4 4h40v40H4z"/><path stroke="#879196" stroke-width="2" d="M1 1h46v46H1z"/><path d="M34.985 32h-5.814c-.968 0-1.612-.909-1.844-1.299l-1.704-2.873A1.874 1.874 0 0 0 24 26.904a1.87 1.87 0 0 0-1.623.924l-1.705 2.873C20.253 31.407 19.27 32 18.481 32h-5.813C11.81 32 11 31.132 11 30.234v-9.245h26v9.245C37 31.059 35.926 32 34.985 32ZM14.226 17h19.547l2.623 3H11.603l2.623-3Zm23.65 3.159-3.5-3.989A.502.502 0 0 0 34 16H14a.5.5 0 0 0-.376.17l-3.5 3.989a.484.484 0 0 0-.107.341H10v9.734c0 1.438 1.271 2.748 2.668 2.748h5.813c1.141 0 2.452-.761 3.051-1.771l1.704-2.873a.88.88 0 0 1 .764-.434.88.88 0 0 1 .763.434l1.704 2.873C27.142 32.348 28.128 33 29.171 33h5.814C36.342 33 38 31.724 38 30.234V20.5h-.018a.484.484 0 0 0-.106-.341Z" fill="#FFF"/></g></svg>