<svg width="40" height="40" xmlns="http://www.w3.org/2000/svg"><defs><linearGradient x1="0%" y1="100%" x2="100%" y2="0%" id="a"><stop stop-color="#B0084D" offset="0%"/><stop stop-color="#FF4F8B" offset="100%"/></linearGradient></defs><g fill="none" fill-rule="evenodd"><path d="M0 0h40v40H0z" fill="url(#a)"/><path d="M33 9h-1.5c-1.325 0-1.484 1.352-1.5 1.53V16h-1v-5h-2v7h2.5a.5.5 0 0 1 .499.464c.013.156.163 1.536 1.501 1.536H33V9ZM7 16h8v-3H7v3Zm27-7.5v12a.5.5 0 0 1-.5.5h-2c-1.539 0-2.211-1.132-2.424-2H25v-1h1v-7h-8.5c-.827 0-1.5.673-1.5 1.5v4c0 .827.673 1.5 1.5 1.5H19v1h-1.5a2.502 2.502 0 0 1-2.449-2H7v2H6v-9h1v2h8.051c.232-1.14 1.241-2 2.449-2h11.576c.213-.868.885-2 2.424-2h2a.5.5 0 0 1 .5.5ZM29.5 26H33v1h-3.161l-1.875 4.686A.499.499 0 0 1 27.5 32h-.011a.5.5 0 0 1-.461-.333l-5.514-15.626-4.539 13.617a.501.501 0 0 1-.935.039l-2.533-5.911-2.04 4.906a.502.502 0 0 1-.462.308H7v-1h3.671l2.367-5.692a.5.5 0 0 1 .459-.308h.003a.5.5 0 0 1 .46.303l2.481 5.791 4.584-13.752a.501.501 0 0 1 .471-.342c.222-.016.405.133.476.333l5.557 15.748 1.507-3.767A.5.5 0 0 1 29.5 26Z" fill="#FFF"/></g></svg>