<svg width="40" height="40" xmlns="http://www.w3.org/2000/svg"><defs><linearGradient x1="0%" y1="100%" x2="100%" y2="0%" id="a"><stop stop-color="#B0084D" offset="0%"/><stop stop-color="#FF4F8B" offset="100%"/></linearGradient></defs><g fill="none" fill-rule="evenodd"><path d="M0 0h40v40H0z" fill="url(#a)"/><path d="M7.01 20.078a1.1 1.1 0 0 1 1.105-1.093 1.1 1.1 0 0 1 1.104 1.093 1.1 1.1 0 0 1-1.104 1.093 1.1 1.1 0 0 1-1.105-1.093ZM20.776 33C14.813 33 9.645 28.375 8.47 22.136a2.1 2.1 0 0 0 1.69-1.558h2.949v-1h-2.95a2.104 2.104 0 0 0-1.653-1.554C9.72 12.252 14.838 8 20.776 8c2.933 0 5.354.643 7.194 1.911l.575-.821C26.534 7.703 23.92 7 20.776 7c-6.51 0-12.104 4.726-13.308 11.096C6.62 18.368 6 19.149 6 20.078c0 .916.602 1.688 1.431 1.971C8.591 28.894 14.24 34 20.776 34c3.285 0 6.788-1.667 8.786-3.094l-.59-.811C26.947 31.541 23.627 33 20.777 33ZM14.79 18.242c1.111.274 2.523.321 3.343.321.833 0 2.271-.047 3.402-.32l-2.401 5.014a.507.507 0 0 0-.048.215v2.324l-1.957.915v-3.239a.514.514 0 0 0-.044-.206l-2.295-5.024Zm3.343-1.757c2.314 0 3.554.311 3.951.52-.417.234-1.745.558-3.95.558-2.184 0-3.483-.327-3.873-.558.37-.206 1.582-.52 3.872-.52Zm-1.78 11.438a.511.511 0 0 0 .486.03l2.968-1.388a.5.5 0 0 0 .288-.452v-2.529l2.909-6.074a.806.806 0 0 0 .189-.51c0-1.252-2.751-1.515-5.06-1.515-2.266 0-4.969.263-4.969 1.515 0 .19.067.355.18.502l2.775 6.077V27.5c0 .172.088.331.235.423ZM30.877 27a1.1 1.1 0 0 1 1.104 1.093 1.1 1.1 0 0 1-1.104 1.093 1.1 1.1 0 0 1-1.104-1.093A1.1 1.1 0 0 1 30.876 27Zm0-16.03a1.1 1.1 0 0 1 1.104 1.093 1.1 1.1 0 0 1-1.104 1.093 1.1 1.1 0 0 1-1.104-1.093 1.1 1.1 0 0 1 1.104-1.093Zm1.01 8.015a1.1 1.1 0 0 1 1.104 1.093 1.1 1.1 0 0 1-1.104 1.093 1.1 1.1 0 0 1-1.104-1.093 1.1 1.1 0 0 1 1.104-1.093Zm-4.607 1.593h2.561a2.108 2.108 0 0 0 2.046 1.593A2.106 2.106 0 0 0 34 20.078a2.106 2.106 0 0 0-2.114-2.093c-.992 0-1.818.681-2.046 1.593H27.28v-7.015h1.551a2.108 2.108 0 0 0 2.046 1.593 2.106 2.106 0 0 0 2.114-2.093 2.106 2.106 0 0 0-2.114-2.093c-.991 0-1.818.681-2.046 1.593h-2.056a.502.502 0 0 0-.505.5v7.515h-3.061v1h3.061v7.515c0 .277.226.5.505.5h2.056a2.108 2.108 0 0 0 2.046 1.593 2.106 2.106 0 0 0 2.114-2.093A2.106 2.106 0 0 0 30.876 26c-.991 0-1.818.681-2.046 1.593H27.28v-7.015Z" fill="#FFF"/></g></svg>