<svg width="40" height="40" xmlns="http://www.w3.org/2000/svg"><defs><linearGradient x1="0%" y1="100%" x2="100%" y2="0%" id="a"><stop stop-color="#C8511B" offset="0%"/><stop stop-color="#F90" offset="100%"/></linearGradient></defs><g fill="none" fill-rule="evenodd"><path d="M0 0h40v40H0z" fill="url(#a)"/><path d="M21.024 23.032v-1.004c1.778-.246 3.131-1.77 3.131-3.638 0-1.867-1.353-3.392-3.131-3.637v-1.005c2.337.25 4.131 2.22 4.131 4.642 0 2.42-1.794 4.39-4.131 4.642Zm1.002-15.426h-1.002v-1h1.53c.138 0 .269.057.364.156a.503.503 0 0 1 .135.372l-.081 1.46c.836.226 1.637.556 2.389.986l.972-1.092a.497.497 0 0 1 .726-.021l3.175 3.167a.5.5 0 0 1-.021.727l-1.088.973c.431.749.764 1.549.992 2.387l1.457-.084a.535.535 0 0 1 .372.135.5.5 0 0 1 .157.364l.006 4.483a.505.505 0 0 1-.156.364.492.492 0 0 1-.372.136l-1.453-.081a10.04 10.04 0 0 1-1.208 2.757l-.845-.533a9.079 9.079 0 0 0 1.178-2.856c.054-.238.236-.408.517-.39l1.338.075-.004-3.425-1.343.077a.494.494 0 0 1-.516-.388 9.063 9.063 0 0 0-1.185-2.85.499.499 0 0 1 .089-.64l1.004-.897-2.426-2.42-.895 1.006a.497.497 0 0 1-.64.09A9.07 9.07 0 0 0 22.34 9.47a.5.5 0 0 1-.389-.516l.075-1.347Zm-6.418 23.747-1.576-.946 3.3-2.475-.6-.8-3.626 2.72-3.08-1.848v-3.672l2.265-1.372-.518-.855-2.293 1.389-2.479-.992L7 19.492l2.76-1.67-.517-.856L7 18.324l.001-1.838 2.502-1.371 2.549 1.687v1.46l-1.295.853.549.835 1.279-.84 1.428.729v1.693h1v-2a.5.5 0 0 0-.272-.445l-1.689-.861v-1.424l2.801-1.853a.497.497 0 0 0 .225-.417v-3h-1v2.73l-2.526 1.67-2.526-1.668V10.4l1.985-1.324v2.456h1V8.409l2.02-1.346 3.97 1.592v9.499l-2.205-1.49-.56.83 2.765 1.867v1.452l-4.276 3.325.613.789 3.663-2.848v7.704l-3.393 1.57Zm4.079-23.5-4.528-1.816a.497.497 0 0 0-.464.048l-5.446 3.63a.501.501 0 0 0-.223.417v4.104L6.26 15.75a.5.5 0 0 0-.259.439L6 19.063l.001 3.778c0 .204.125.388.314.464l2.711 1.084v3.898a.5.5 0 0 0 .243.429l6.052 3.63a.492.492 0 0 0 .467.025l3.923-1.815a.502.502 0 0 0 .29-.454V8.317a.499.499 0 0 0-.314-.464ZM30.153 30.52H23.11a.559.559 0 0 1-.291-.063c-.323-.204-.708-.597-.708-1.313 0-.887.563-1.218 1.037-1.34a.5.5 0 0 0 .374-.513l-.018-.297c0-.782.556-1.655 1.239-1.944a2.2 2.2 0 0 1 .869-.187c.752 0 1.283.43 1.515.665.255.256.464.6.603.997a.501.501 0 0 0 .874.13.603.603 0 0 1 .671-.224c.285.093.448.397.45.787a.501.501 0 0 0 .41.562c.479.082 1.282.37 1.282 1.38 0 1.176-1.074 1.34-1.264 1.36Zm.543-3.632c-.123-.802-.63-1.25-1.109-1.407a1.592 1.592 0 0 0-1.195.084 3.419 3.419 0 0 0-.556-.742c-.951-.957-2.252-1.215-3.484-.694-1.037.44-1.823 1.642-1.847 2.839-.88.373-1.394 1.16-1.394 2.176 0 1.233.736 1.882 1.175 2.159.229.144.507.217.824.217h7.066a.411.411 0 0 0 .036-.002c.763-.055 2.205-.62 2.205-2.358 0-1.29-.831-1.996-1.721-2.272Z" fill="#FFF"/></g></svg>