<svg width="40" height="40" xmlns="http://www.w3.org/2000/svg"><defs><linearGradient x1="0%" y1="100%" x2="100%" y2="0%" id="a"><stop stop-color="#1B660F" offset="0%"/><stop stop-color="#6CAE3E" offset="100%"/></linearGradient></defs><g fill="none" fill-rule="evenodd"><path d="M0 0h40v40H0z" fill="url(#a)"/><path d="M10 31.5c0-.827-.673-1.5-1.5-1.5S7 30.673 7 31.5 7.673 33 8.5 33s1.5-.673 1.5-1.5Zm.949-.5H18v1h-7.051A2.502 2.502 0 0 1 8.5 34 2.503 2.503 0 0 1 6 31.5C6 30.122 7.121 29 8.5 29c1.208 0 2.217.86 2.449 2ZM33 31.5c0-.827-.673-1.5-1.5-1.5s-1.5.673-1.5 1.5.673 1.5 1.5 1.5 1.5-.673 1.5-1.5ZM20.25 25A4.756 4.756 0 0 0 25 20.25a4.756 4.756 0 0 0-4.75-4.75 4.756 4.756 0 0 0-4.75 4.75A4.756 4.756 0 0 0 20.25 25ZM10 8.5C10 7.673 9.327 7 8.5 7S7 7.673 7 8.5 7.673 10 8.5 10 10 9.327 10 8.5Zm24 23c0 1.378-1.121 2.5-2.5 2.5a2.502 2.502 0 0 1-2.449-2H20.5a.5.5 0 0 1-.5-.5v-5.513c-3.054-.132-5.5-2.651-5.5-5.737 0-3.086 2.446-5.605 5.5-5.737V9h-9.051A2.502 2.502 0 0 1 8.5 11 2.503 2.503 0 0 1 6 8.5C6 7.122 7.121 6 8.5 6c1.208 0 2.217.86 2.449 2H20.5a.5.5 0 0 1 .5.5v6.055c2.817.369 5 2.779 5 5.695 0 2.916-2.183 5.326-5 5.695V31h8.051c.232-1.14 1.241-2 2.449-2 1.379 0 2.5 1.122 2.5 2.5Zm-4-23c0 .827.673 1.5 1.5 1.5S33 9.327 33 8.5 32.327 7 31.5 7 30 7.673 30 8.5Zm-.949.5H23V8h6.051c.232-1.14 1.241-2 2.449-2C32.879 6 34 7.122 34 8.5S32.879 11 31.5 11a2.502 2.502 0 0 1-2.449-2Zm-2.03 18.02c3.871-3.871 3.871-10.169 0-14.04l-.708.707c3.422 3.422 3.422 9.204 0 12.626l.708.707ZM13.687 13.687c-3.422 3.422-3.422 9.204 0 12.626l-.708.707c-3.871-3.871-3.871-10.169 0-14.04l.708.707Z" fill="#FFF"/></g></svg>