<svg width="40" height="40" xmlns="http://www.w3.org/2000/svg"><defs><linearGradient x1="0%" y1="100%" x2="100%" y2="0%" id="a"><stop stop-color="#BD0816" offset="0%"/><stop stop-color="#FF5252" offset="100%"/></linearGradient></defs><g fill="none" fill-rule="evenodd"><path d="M0 0h40v40H0z" fill="url(#a)"/><path d="M29.023 30 19.018 11h2.872l10.003 19h-2.87Zm-6.389-19.733a.5.5 0 0 0-.442-.267H18.19a.5.5 0 0 0-.442.733l10.531 20a.501.501 0 0 0 .442.267h4a.5.5 0 0 0 .443-.733l-10.53-20ZM22.808 30l-7.237-14.472 1.37-2.451L25.678 30h-2.87Zm-5.405-18.208a.5.5 0 0 0-.437-.271h-.007a.502.502 0 0 0-.437.256l-1.953 3.494a.5.5 0 0 0-.01.468l7.493 14.985A.501.501 0 0 0 22.5 31h4a.5.5 0 0 0 .444-.729l-9.54-18.479ZM7.354 30l6.504-11.574 1.075 2.069L11.25 27.3a.5.5 0 0 0 .439.739h7L19.683 30H7.354Zm12.085-2.688a.498.498 0 0 0-.445-.273h-6.466l3.411-6.301a.497.497 0 0 0 .004-.468l-1.625-3.125a.498.498 0 0 0-.436-.27h-.007a.498.498 0 0 0-.436.255L6.064 30.255A.498.498 0 0 0 6.5 31h14c.173 0 .335-.09.425-.239a.497.497 0 0 0 .02-.488l-1.506-2.961Z" fill="#FFF"/></g></svg>