<svg width="48" height="48" xmlns="http://www.w3.org/2000/svg"><defs><linearGradient x1="0%" y1="100%" x2="100%" y2="0%" id="a"><stop stop-color="#C8511B" offset="0%"/><stop stop-color="#F90" offset="100%"/></linearGradient></defs><g fill="none" fill-rule="evenodd"><path fill="url(#a)" d="M4 4h40v40H4z"/><path stroke="#879196" stroke-width="2" d="M1 1h46v46H1z"/><path d="m24.592 24.094-7.265 4.369a.204.204 0 0 1-.215.011.204.204 0 0 1-.112-.186v-8.713c0-.11.071-.164.112-.186a.2.2 0 0 1 .094-.024.26.26 0 0 1 .141.047l7.225 4.344a.204.204 0 0 1 .094.175c0 .042-.012.121-.074.163Zm.516-1.183-7.226-4.343A1.21 1.21 0 0 0 16 19.575v8.713a1.208 1.208 0 0 0 1.216 1.212c.23 0 .456-.065.647-.192l7.264-4.369c.338-.225.539-.602.539-1.008 0-.405-.201-.782-.558-1.02ZM37 29.789a.211.211 0 0 1-.211.211H35V18h1.789a.21.21 0 0 1 .211.21v11.579ZM31.768 26H29v7.079a.922.922 0 0 1-.921.921H11.921a.922.922 0 0 1-.921-.921V14.921c0-.508.413-.921.921-.921h16.158c.508 0 .921.413.921.921V22h2.768L34 18.652v10.696L31.768 26Zm5.021-9H33.9l-2.667 4H30v-6.079A1.923 1.923 0 0 0 28.079 13H11.921A1.923 1.923 0 0 0 10 14.921v18.158c0 1.059.862 1.921 1.921 1.921h16.158c1.06 0 1.921-.862 1.921-1.921V27h1.233l2.667 4h2.889c.668 0 1.211-.543 1.211-1.211V18.21c0-.667-.543-1.21-1.211-1.21Z" fill="#FFF"/></g></svg>