<svg width="40" height="40" xmlns="http://www.w3.org/2000/svg"><defs><linearGradient x1="0%" y1="100%" x2="100%" y2="0%" id="a"><stop stop-color="#C8511B" offset="0%"/><stop stop-color="#F90" offset="100%"/></linearGradient></defs><g fill="none" fill-rule="evenodd"><path d="M0 0h40v40H0z" fill="url(#a)"/><path d="M22.941 26.044 20.5 27.441l-2.442-1.397v-2.787L20.5 21.86l2.441 1.397v2.787Zm1-3.077a.501.501 0 0 0-.252-.434l-2.941-1.683a.499.499 0 0 0-.496 0l-2.942 1.683a.501.501 0 0 0-.252.434v1.079H8v1h9.058v1.288a.5.5 0 0 0 .252.434L20 28.307v3.677h1v-3.677l2.689-1.539a.5.5 0 0 0 .252-.434v-1.288H33v-1h-9.059v-1.079ZM10 14h3v-1h-3v1Zm13 0h8v-1h-8v1ZM8 17h25V9H8v8Zm25.5-9h-26c-.277 0-.5.223-.5.5v9a.5.5 0 0 0 .5.5h26a.5.5 0 0 0 .5-.5v-9a.5.5 0 0 0-.5-.5Z" fill="#FFF"/></g></svg>