<svg width="40" height="40" xmlns="http://www.w3.org/2000/svg"><defs><linearGradient x1="0%" y1="100%" x2="100%" y2="0%" id="a"><stop stop-color="#4D27A8" offset="0%"/><stop stop-color="#A166FF" offset="100%"/></linearGradient></defs><g fill="none" fill-rule="evenodd"><path d="M0 0h40v40H0z" fill="url(#a)"/><path d="M27 29V15.782l-2-1.33V29h2Zm-3 0V13.787l-2-1.33V29h2Zm-3 0V11.792l-1-.665-1 .665V29h2Zm-3 0V12.457l-2 1.33V29h2Zm-3 0V14.452l-2 1.33V29h2Zm16 1H9v-1h3V16.447L9.754 17.94l-.554-.833 10.523-6.997a.502.502 0 0 1 .554 0L30.8 17.107l-.554.833L28 16.447V29h3v1ZM8 32h5v-1H8v1Zm7 0h10v-1H15v1Zm12 0h5v-1h-5v1ZM6 34h13v-1H6v1Zm15 0h13v-1H21v1ZM7.277 16.083l-.554-.833 13-8.666a.499.499 0 0 1 .554 0l13 8.666-.554.833L20 7.601 7.277 16.083Z" fill="#FFF"/></g></svg>