<svg width="40" height="40" xmlns="http://www.w3.org/2000/svg"><defs><linearGradient x1="0%" y1="100%" x2="100%" y2="0%" id="a"><stop stop-color="#C8511B" offset="0%"/><stop stop-color="#F90" offset="100%"/></linearGradient></defs><g fill="none" fill-rule="evenodd"><path d="M0 0h40v40H0z" fill="url(#a)"/><path d="m15.78 21.45.988.628-.537.844-1.178-.75a21.602 21.602 0 0 1-2.15 1.802L20 28.41l7.096-4.436a21.602 21.602 0 0 1-2.15-1.802l-1.178.75-.537-.844.988-.629a18.12 18.12 0 0 1-1.434-1.706l-2.508 1.673a.5.5 0 0 1-.555 0l-2.507-1.673a18.132 18.132 0 0 1-1.435 1.706Zm2.004-2.528L20 20.4l2.216-1.477A16.254 16.254 0 0 1 20 13.82a16.3 16.3 0 0 1-2.216 5.102Zm-7.119-.294C12.451 17.02 14.5 14.814 14.5 12h1c0 1.571.546 2.787 1.427 4.241l-.855.518c-.456-.75-.821-1.45-1.09-2.165-.679 1.73-1.93 3.168-3.165 4.333l3.107 1.977C17.96 17.77 19.5 13.94 19.5 9.465a.499.499 0 1 1 1 0c0 4.474 1.54 8.305 4.576 11.44l3.106-1.978c-1.235-1.165-2.486-2.604-3.165-4.333-.268.715-.633 1.413-1.09 2.165l-.855-.518c.882-1.454 1.428-2.67 1.428-4.24h1c0 2.813 2.049 5.02 3.835 6.627a.5.5 0 0 1-.067.794l-3.458 2.2a21.467 21.467 0 0 0 2.472 1.965.501.501 0 0 1-.018.837l-8 5a.502.502 0 0 1-.529 0l-8-5a.501.501 0 0 1-.017-.837 21.455 21.455 0 0 0 2.471-1.965l-3.458-2.2a.497.497 0 0 1-.229-.38.498.498 0 0 1 .163-.414ZM20 7.574l2.039 1.153.492-.87-2.285-1.292a.496.496 0 0 0-.492 0l-2.286 1.292.493.87L20 7.574Zm11.746 5.491-2.237-1.264-.492.87L31 13.791v12.417l-11 6.218-11-6.218V13.791l1.982-1.12-.492-.87-2.236 1.264A.497.497 0 0 0 8 13.5v13c0 .18.096.346.254.435l11.5 6.5a.5.5 0 0 0 .492 0l11.5-6.5A.5.5 0 0 0 32 26.5v-13a.499.499 0 0 0-.254-.435Zm-4.501-2.545-2.489-1.406-.493.87 2.49 1.406.492-.87Zm-11.509-.536-.492-.87-2.489 1.406.492.87 2.489-1.406Zm3.986 14.932-1.5-1 .555-.832L20 23.9l1.222-.815.555.832-1.5 1a.5.5 0 0 1-.555 0Z" fill="#FFF"/></g></svg>