<svg width="40" height="40" xmlns="http://www.w3.org/2000/svg"><defs><linearGradient x1="0%" y1="100%" x2="100%" y2="0%" id="a"><stop stop-color="#1B660F" offset="0%"/><stop stop-color="#6CAE3E" offset="100%"/></linearGradient></defs><g fill="none" fill-rule="evenodd"><path d="M0 0h40v40H0z" fill="url(#a)"/><path d="M18 12h4v-1h-4v1Zm-4 11h12v-5H14v5Zm12.5-6h-13a.5.5 0 0 0-.5.5v6a.5.5 0 0 0 .5.5h13a.5.5 0 0 0 .5-.5v-6a.5.5 0 0 0-.5-.5ZM33 27.923C33 29.068 32.119 30 31.036 30H8.964C7.881 30 7 29.068 7 27.923V12.077C7 10.932 7.881 10 8.964 10h22.072c1.083 0 1.964.932 1.964 2.077v15.846ZM31.036 9H8.964C7.33 9 6 10.38 6 12.077v15.846C6 29.62 7.33 31 8.964 31h22.072C32.67 31 34 29.62 34 27.923V12.077C34 10.38 32.67 9 31.036 9ZM30 26.373a.634.634 0 0 1-.64.627H10.64a.634.634 0 0 1-.64-.627V13.627c0-.346.287-.627.64-.627h4.551l.862 1.724A.5.5 0 0 0 16.5 15h7a.5.5 0 0 0 .447-.276L24.809 13h4.551c.353 0 .64.281.64.627v12.746ZM29.36 12H24.5a.5.5 0 0 0-.447.276L23.191 14h-6.382l-.862-1.724A.5.5 0 0 0 15.5 12h-4.86C9.735 12 9 12.73 9 13.627v12.746C9 27.27 9.735 28 10.64 28h18.72c.905 0 1.64-.73 1.64-1.627V13.627C31 12.73 30.265 12 29.36 12Z" fill="#FFF"/></g></svg>