<svg width="40" height="40" xmlns="http://www.w3.org/2000/svg"><defs><linearGradient x1="0%" y1="100%" x2="100%" y2="0%" id="a"><stop stop-color="#055F4E" offset="0%"/><stop stop-color="#56C0A7" offset="100%"/></linearGradient></defs><g fill="none" fill-rule="evenodd"><path d="M0 0h40v40H0z" fill="url(#a)"/><path d="m11.477 12.487 5.126-2.941-3.063-1.482-5.006 2.84 2.943 1.583Zm-.492.87L8 11.755v7.075l2.985 2.189v-7.66Zm1-.01v8.658a.498.498 0 0 1-.5.5.502.502 0 0 1-.296-.097l-3.984-2.922A.502.502 0 0 1 7 19.083v-8.165c0-.176.093-.34.244-.43.003-.001.007-.001.01-.003l-.001-.002 6.021-3.418a.506.506 0 0 1 .465-.016l4.152 2.009a.502.502 0 0 1 .031.884l-5.937 3.406Zm11 17.243V20.102l-2.406-1.538-2.178 1.379-.535-.845 1.782-1.128-4.725-3.02v6.009l1.362-.861.535.845-1.897 1.199v3.11l8.062 5.338ZM15.4 14.068l4.615 2.949V15.52h1v2.136l2.483 1.587 8.949-5.132-8.951-4.525-2.481 1.373v2.56h-1v-2.006L15.4 14.068ZM33 24.66v-9.715l-8.507 4.88 1.847 1.05-.494.869-1.861-1.058v9.95l8.523-5.106-.576-.327.494-.87.574.327Zm.998-10.578H34V25.52a.497.497 0 0 1-.243.429l-10.015 6-.003-.005c-.007.004-.01.013-.018.017a.505.505 0 0 1-.513-.024l-9.061-6a.5.5 0 0 1-.224-.417V14.037h.004c0-.005-.004-.01-.004-.015a.5.5 0 0 1 .258-.422l9.062-5.017a.498.498 0 0 1 .467-.01l10.016 5.063a.5.5 0 0 1 .274.434l-.002.013Zm-5.919 7.78 2.608 1.483-.494.87-2.609-1.483.495-.87Z" fill="#FFF"/></g></svg>