<svg width="40" height="40" xmlns="http://www.w3.org/2000/svg"><defs><linearGradient x1="0%" y1="100%" x2="100%" y2="0%" id="a"><stop stop-color="#B0084D" offset="0%"/><stop stop-color="#FF4F8B" offset="100%"/></linearGradient></defs><g fill="none" fill-rule="evenodd"><path d="M0 0h40v40H0z" fill="url(#a)"/><path d="M7 22.736h1.99v-.982H7v.982Zm18.397-7.04a.496.496 0 0 0-.444-.356.49.49 0 0 0-.49.29l-3.553 7.88-2.515-4.956a.499.499 0 0 0-.42-.271.485.485 0 0 0-.447.229l-2.073 3.242H9.986v.982h5.744a.5.5 0 0 0 .42-.229l1.75-2.736 2.59 5.109a.5.5 0 0 0 .445.27h.012a.497.497 0 0 0 .443-.291l3.423-7.59 1.463 5.11c.06.21.256.357.479.357h7.12v-.982h-6.744l-1.734-6.057Zm-4.004 16.04-7.12-8.372-.763.63 7.511 8.831c.095.111.235.175.381.175h.005a.499.499 0 0 0 .384-.183l7.19-8.831-.776-.615-6.812 8.365ZM10.81 20.986l-1.64-2.731c-.542-.986-.811-1.985-.811-2.99 0-3.359 2.93-7.265 6.71-7.265 2.784 0 5.176 1.644 6.174 3.972C22.24 9.644 24.632 8 27.416 8 31.184 8 34 11.836 34 15.266c0 1.157-.214 2.116-.654 2.933a6.667 6.667 0 0 1-.56.864l-.421.49-1.206 1.488-.777-.612 1.625-1.976c.174-.233.33-.474.46-.714.362-.672.538-1.481.538-2.473 0-2.907-2.441-6.285-5.589-6.285-3.129 0-5.676 2.429-5.676 5.414 0 .271-.223.491-.498.491a.494.494 0 0 1-.498-.49c0-2.986-2.547-5.415-5.676-5.415-3.22 0-5.715 3.378-5.715 6.285 0 .839.229 1.682.682 2.504l1.631 2.715-.857.5Z" fill="#FFF"/></g></svg>