<svg width="40" height="40" xmlns="http://www.w3.org/2000/svg"><defs><linearGradient x1="0%" y1="100%" x2="100%" y2="0%" id="a"><stop stop-color="#BD0816" offset="0%"/><stop stop-color="#FF5252" offset="100%"/></linearGradient></defs><g fill="none" fill-rule="evenodd"><path d="M0 0h40v40H0z" fill="url(#a)"/><path d="m20 24.809-1.724-.86a.5.5 0 0 1-.276-.447v-.012h-2v-1h2v-.704l-2.962-1.709L14 20.76v2.488l2.343 1.861-.623.783-2.532-2.011a.5.5 0 0 1-.188-.392v-2.757l-.948-.653L9 21.794v1.386l1.475.737 1.248-.832.554.832-1.277.851v1.207a.501.501 0 0 1-.223.416l-1.5 1-.554-.832L10 25.707v-.909l-1.503-.751L7 24.824v3.361l1.722.853a.498.498 0 0 1 .278.448v1.716l.349.2 2.206-2.11.691.723-1.993 1.906 1.742 1L13 32.236v-4.489l-1.13-.862.606-.795 1.327 1.012a.5.5 0 0 1 .197.397V29h2v1h-2v2.241l1.032.674L18 31.211v-1.715a.5.5 0 0 1 .275-.447l.404-.202-1.529-1.495.7-.714 1.772 1.733.378-.19v-3.372Zm1-.309v3.989a.5.5 0 0 1-.275.447L19 29.804v1.697a.498.498 0 0 1-.251.433l-3.484 2a.493.493 0 0 1-.523-.015l-1.244-.812-1.199.816a.498.498 0 0 1-.53.021l-3.518-2.019A.501.501 0 0 1 8 31.491v-1.695l-1.722-.852A.5.5 0 0 1 6 28.496V24.52a.5.5 0 0 1 .27-.444L8 23.178v-1.676c0-.181.098-.347.255-.436l3.578-2.012a.498.498 0 0 1 .528.025l1.16.799 1.226-.806a.5.5 0 0 1 .524-.015l3.479 2.007a.5.5 0 0 1 .25.433v1.696l1.724.86A.499.499 0 0 1 21 24.5ZM17 16h1V9h-1v7Zm3 1h1v-6h-1v6Zm3 2h1V9h-1v10Zm6-5h1v-3h-1v3Zm-15 1h1v-4h-1v4Zm12 1h1v-5h-1v5Zm.5 11.797a.5.5 0 0 1-.5-.5V23h-4v-1h4.5a.5.5 0 0 1 .5.5v3.49l2.532-2.824a.5.5 0 0 1 .372-.166h1.731c.689 0 1.365-.688 1.365-1.389V8.281C33 7.575 32.473 7 31.824 7H12.219C11.547 7 11 7.575 11 8.281V18h-1V8.281C10 7.023 10.995 6 12.219 6h19.605C33.024 6 34 7.023 34 8.281v13.33C34 22.861 32.873 24 31.635 24h-1.507l-3.256 3.631a.498.498 0 0 1-.372.166Z" fill="#FFF"/></g></svg>