<svg width="40" height="40" xmlns="http://www.w3.org/2000/svg"><defs><linearGradient x1="0%" y1="100%" x2="100%" y2="0%" id="a"><stop stop-color="#1B660F" offset="0%"/><stop stop-color="#6CAE3E" offset="100%"/></linearGradient></defs><g fill="none" fill-rule="evenodd"><path d="M0 0h40v40H0z" fill="url(#a)"/><path d="M26.32 20.662a5.405 5.405 0 0 1-1.024 4.043 5.452 5.452 0 0 1-4.38 2.19 5.42 5.42 0 0 1-3.251-1.078c-1.339-.996-2.072-2.26-2.182-3.757l1.016-.074c.086 1.19.683 2.204 1.775 3.016a4.44 4.44 0 0 0 6.205-.905 4.394 4.394 0 0 0 .834-3.287 4.405 4.405 0 0 0-1.738-2.914c-1.075-.8-2.673-1.053-4.064-.64a3.912 3.912 0 0 0-2.27 1.73l1.741-.002.002 1.018-2.568.003h-.001a.51.51 0 0 1-.51-.509v-2.561h1.02v.766a4.995 4.995 0 0 1 2.297-1.42c1.692-.5 3.639-.186 4.96.8a5.413 5.413 0 0 1 2.139 3.581m.592 8.687c-.201 0-.39.02-.569.052L25 27.311l-.858.55 1.256 1.95c-.408.31-.678.766-.772 1.355h-8.227c-.094-.59-.366-1.045-.773-1.355l1.25-1.95-.857-.549-1.34 2.09a3.143 3.143 0 0 0-.569-.053c-.108 0-.204.014-.305.023l-3.273-9.845c.247-.124.455-.29.624-.497l2.486 1.401.5-.886-2.556-1.44c.042-.2.072-.408.072-.637 0-.39-.069-.736-.189-1.037l7.607-5.052c.265.178.574.303.927.362v2.141h1.018v-2.141a2.33 2.33 0 0 0 .927-.362l7.596 5.045a2.702 2.702 0 0 0-.198 1.044c0 .218.023.417.059.607l-2.53 1.473.514.88 2.43-1.415c.27.347.656.583 1.146.696l-3.73 9.667c-.105-.012-.209-.027-.32-.027m0 3.633c-.858 0-1.31-.451-1.31-1.307 0-.893.415-1.309 1.31-1.309.856 0 1.308.452 1.308 1.309 0 .856-.452 1.307-1.309 1.307m-12.804 0c-.881 0-1.309-.427-1.309-1.307 0-.893.416-1.309 1.309-1.309.894 0 1.31.416 1.31 1.309 0 .892-.416 1.307-1.31 1.307m-6.09-15.514c0-.892.415-1.308 1.31-1.308.892 0 1.309.416 1.309 1.308 0 .905-.404 1.309-1.31 1.309-.917 0-1.31-.391-1.31-1.309m12.493-9.45c.9 0 1.376.476 1.376 1.375s-.475 1.373-1.376 1.373c-.887 0-1.377-.487-1.377-1.373 0-.9.477-1.375 1.377-1.375m11.162 8.142c.893 0 1.309.416 1.309 1.308 0 .892-.416 1.309-1.31 1.309-.917 0-1.309-.391-1.309-1.309 0-.88.429-1.308 1.31-1.308M34 17.468c0-1.456-.87-2.325-2.327-2.325-.615 0-1.123.172-1.512.471l-7.538-5.008a2.61 2.61 0 0 0 .283-1.213C22.906 7.94 21.966 7 20.51 7s-2.395.94-2.395 2.393c0 .464.106.868.284 1.213l-7.543 5.01c-.387-.302-.898-.473-1.529-.473-1.457 0-2.328.869-2.328 2.325 0 1.479.848 2.326 2.328 2.326.076 0 .142-.012.213-.016l3.284 9.878c-.665.371-1.043 1.066-1.043 2.019 0 1.434.892 2.325 2.327 2.325 1.28 0 2.105-.67 2.289-1.816h8.228c.19 1.133 1.03 1.816 2.287 1.816 1.435 0 2.328-.891 2.328-2.325 0-.911-.384-1.609-1.032-1.994l3.823-9.914C33.268 19.63 34 18.798 34 17.468" fill="#FFF"/></g></svg>