<svg width="40" height="40" xmlns="http://www.w3.org/2000/svg"><defs><linearGradient x1="0%" y1="100%" x2="100%" y2="0%" id="a"><stop stop-color="#C8511B" offset="0%"/><stop stop-color="#F90" offset="100%"/></linearGradient></defs><g fill="none" fill-rule="evenodd"><path d="M0 0h40v40H0z" fill="url(#a)"/><path d="M20.965 23.463c0 .827.673 1.5 1.5 1.5s1.5-.673 1.5-1.5-.673-1.5-1.5-1.5-1.5.673-1.5 1.5Zm.29 2.175c-4.854 4.474-10.314 8.29-13.245 8.29-.613 0-1.116-.167-1.48-.53-1.24-1.238-.106-3.976 1.36-6.435h1.182c-2.12 3.4-2.346 5.216-1.835 5.728 1.137 1.137 6.499-1.503 13.254-7.711a2.476 2.476 0 0 1-.526-1.517c0-1.378 1.12-2.5 2.5-2.5.59 0 1.125.213 1.553.556 6.62-6.938 9.89-13.067 8.675-14.284-.51-.505-2.321-.29-5.728 1.835V7.888c2.428-1.447 5.189-2.603 6.435-1.36 2.143 2.143-2.742 9.5-8.74 15.766.189.35.305.745.305 1.169 0 1.378-1.121 2.5-2.5 2.5-.44 0-.85-.125-1.21-.325Zm7.71-5.9v9.225H19.74c-.597.5-1.19.983-1.776 1.437v2.563h1v-3h2v3h1v-3h2v3h1v-3h2v3h1v-3h1.5a.5.5 0 0 0 .5-.5v-1.5h3v-1h-3v-2h3v-1h-3v-2h3v-1h-3v-2h3v-1h-2.563a63.408 63.408 0 0 1-1.437 1.776Zm-19 5.225h-3v-1h3v-2h-3v-1h3v-2h-3v-1h3v-2h-3v-1h3v-2h-3v-1h3v-1.5a.5.5 0 0 1 .5-.5h1.5v-3h1v3h2v-3h1v3h2v-3h1v3h2v-3h1v3h2v-3h1v3h4.5a.5.5 0 0 1 .5.5v1.098a31.818 31.818 0 0 1-1 1.578v-2.176h-18v18h2.177c-.564.379-1.091.712-1.578 1h-1.1a.5.5 0 0 1-.5-.5v-4.5Z" fill="#FFF"/></g></svg>