<svg width="40" height="40" xmlns="http://www.w3.org/2000/svg"><defs><linearGradient x1="0%" y1="100%" x2="100%" y2="0%" id="a"><stop stop-color="#B0084D" offset="0%"/><stop stop-color="#FF4F8B" offset="100%"/></linearGradient></defs><g fill="none" fill-rule="evenodd"><path d="M0 0h40v40H0z" fill="url(#a)"/><path d="M24 27h5v1h-5v1h-1v-1h-2v-1h2v-1h1v1Zm4-5.001h1v1h-1v1h-1v-1h-6v-1h6v-1h1v1Zm-17.643 1H15v1h-4.643c-.531 0-1.081 0-1.647-.353C7.698 23.019 6 21.55 6 18.764c0-3.376 2.33-4.615 3.689-5.05l-.026-.437c-.001-2.783 1.875-5.633 4.363-6.661 2.908-1.213 5.988-.611 8.243 1.606a8.21 8.21 0 0 1 1.718 2.498 3.409 3.409 0 0 1 3.245-.602c1.398.466 2.27 1.744 2.38 3.455 1.631.274 4.388.86 4.388 4.425h-1c0-2.64-1.691-3.132-3.734-3.47l-.238-.038a.499.499 0 0 1-.402-.608c-.002-1.404-.625-2.453-1.71-2.816a2.422 2.422 0 0 0-2.703.853.498.498 0 0 1-.869-.13c-.416-1.146-1.013-2.105-1.776-2.854-1.959-1.926-4.634-2.447-7.158-1.396-2.102.869-3.748 3.375-3.748 5.708l.05.808a.501.501 0 0 1-.378.516C9.089 14.88 7 15.837 7 18.764c0 2.186 1.217 3.4 2.238 4.033.309.192.626.202 1.119.202ZM33 26.159l-.882-.05a.515.515 0 0 0-.516.39 6.684 6.684 0 0 1-.873 2.11.5.5 0 0 0 .089.64l.66.587-1.642 1.64-.585-.655a.501.501 0 0 0-.641-.091 6.671 6.671 0 0 1-2.112.876.5.5 0 0 0-.389.517l.051.877h-2.32l.051-.878a.502.502 0 0 0-.389-.517 6.686 6.686 0 0 1-2.112-.876.502.502 0 0 0-.64.09l-.586.658-1.642-1.64.659-.588a.5.5 0 0 0 .09-.64 6.683 6.683 0 0 1-.875-2.11c-.053-.239-.245-.396-.515-.39l-.881.05v-2.32l.884.05c.271.006.462-.151.515-.39a6.72 6.72 0 0 1 .875-2.106.5.5 0 0 0-.089-.64l-.663-.59 1.642-1.642.59.662a.503.503 0 0 0 .64.09 6.702 6.702 0 0 1 2.108-.873.502.502 0 0 0 .389-.517l-.051-.885h2.32l-.051.886a.502.502 0 0 0 .389.517 6.713 6.713 0 0 1 2.107.873.5.5 0 0 0 .64-.09l.591-.663 1.642 1.641-.662.59a.501.501 0 0 0-.089.64 6.68 6.68 0 0 1 .875 2.108.479.479 0 0 0 .515.389l.883-.05v2.32Zm.472-3.348-1 .057a7.68 7.68 0 0 0-.682-1.645l.748-.668a.497.497 0 0 0 .021-.726l-2.39-2.39a.5.5 0 0 0-.727.021l-.67.751a7.617 7.617 0 0 0-1.641-.68l.057-1.004a.5.5 0 0 0-.499-.53h-3.378a.5.5 0 0 0-.499.53l.057 1.002a7.697 7.697 0 0 0-1.642.68l-.669-.749a.5.5 0 0 0-.359-.167.532.532 0 0 0-.368.146l-2.39 2.39a.5.5 0 0 0 .021.726l.749.67a7.71 7.71 0 0 0-.681 1.643l-1.002-.057a.529.529 0 0 0-.372.135.505.505 0 0 0-.156.364v3.378a.5.5 0 0 0 .528.5l.998-.058c.163.576.392 1.127.681 1.647l-.745.665a.497.497 0 0 0-.021.727l2.39 2.39a.527.527 0 0 0 .368.146.5.5 0 0 0 .359-.167l.664-.746a7.72 7.72 0 0 0 1.647.684l-.057.995a.502.502 0 0 0 .499.529h3.378a.5.5 0 0 0 .499-.53l-.057-.993a7.716 7.716 0 0 0 1.648-.684l.663.745a.5.5 0 0 0 .727.02l2.39-2.39a.5.5 0 0 0-.021-.726l-.747-.666a7.686 7.686 0 0 0 .682-1.646l.999.057a.5.5 0 0 0 .528-.499V23.31a.505.505 0 0 0-.156-.364.529.529 0 0 0-.372-.135Z" fill="#FFF"/></g></svg>