<svg width="40" height="40" xmlns="http://www.w3.org/2000/svg"><defs><linearGradient x1="0%" y1="100%" x2="100%" y2="0%" id="a"><stop stop-color="#055F4E" offset="0%"/><stop stop-color="#56C0A7" offset="100%"/></linearGradient></defs><g fill="none" fill-rule="evenodd"><path d="M0 0h40v40H0z" fill="url(#a)"/><path d="M27 34h3v-1h-3v1ZM9 25h8v-1H9v1Zm8-3h4v-1h-4v1Zm-8 0h7v-1H9v1Zm0-9h6v-1H9v1Zm21.28 15.051a.502.502 0 0 0-.28.449V31h-1.068v-4H30v-1h-3v1h1v4h-1.068v-2.5a.5.5 0 0 0-.28-.448c-.025-.013-2.69-1.372-2.652-4.693-.017-.928.462-1.962 1.314-2.835.924-.947 2.117-1.517 3.189-1.524h.018c1.023 0 2.189.563 3.124 1.509.864.875 1.371 1.941 1.354 2.866.038 3.282-2.605 4.62-2.72 4.676Zm2.075-8.245C31.237 18.674 29.805 18 28.521 18h-.024c-1.334.009-2.792.691-3.898 1.826-1.038 1.063-1.62 2.358-1.6 3.537-.037 3.285 2.142 4.936 2.933 5.427v2.71a.5.5 0 0 0 .5.5H30.5a.5.5 0 0 0 .5-.5v-2.707c.807-.488 3.037-2.137 3-5.415.02-1.191-.579-2.494-1.645-3.572ZM9 19h12v-1H9v1Zm4-3h8v-1h-8v1Zm-4 0h3v-1H9v1Zm9-8.293L22.293 12H18V7.707ZM23 31H7V7h10v5.5a.5.5 0 0 0 .5.5H23v6h1l-.002-6.548c-.002-.128-.051-.212-.144-.306L18 6l-11.5.002a.5.5 0 0 0-.5.5V31.5a.5.5 0 0 0 .5.5h17a.5.5 0 0 0 .5-.5V28h-1v3Z" fill="#FFF"/></g></svg>