<svg width="48" height="48" xmlns="http://www.w3.org/2000/svg"><defs><linearGradient x1="0%" y1="100%" x2="100%" y2="0%" id="a"><stop stop-color="#C8511B" offset="0%"/><stop stop-color="#F90" offset="100%"/></linearGradient></defs><g fill="none" fill-rule="evenodd"><path fill="url(#a)" d="M4 4h40v40H4z"/><path stroke="#879196" stroke-width="2" d="M1 1h46v46H1z"/><path d="M11 37h25v-2H11v2Zm1-3h23v-9H12v9Zm24-9v9h.5a.5.5 0 0 1 .5.5v3a.5.5 0 0 1-.5.5h-26a.5.5 0 0 1-.5-.5v-3a.5.5 0 0 1 .5-.5h.5v-9h-.5a.5.5 0 0 1-.5-.5v-3a.5.5 0 0 1 .5-.5h.07l9.171-5.74.531.847L12.455 21H28v1H11v2h25v-2h-7v-1h5.545l-7.817-4.893.531-.847L36.43 21h.07a.5.5 0 0 1 .5.5v3a.5.5 0 0 1-.5.5H36Zm-12.5-9c1.103 0 2-.897 2-2h-1a1.001 1.001 0 0 1-2 0c0-.551.448-1 1-1a.5.5 0 0 0 .5-.5V10h-1v2.063A2.005 2.005 0 0 0 21.5 14c0 1.103.897 2 2 2ZM14 32h1v-5h-1v5Zm3 0h1v-5h-1v5Zm3 0h1v-5h-1v5Zm12 0h1v-5h-1v5Zm-3 0h1v-5h-1v5Zm-3 0h1v-5h-1v5Zm-3 0h1v-5h-1v5Z" fill="#FFF"/></g></svg>