<svg width="40" height="40" xmlns="http://www.w3.org/2000/svg"><defs><linearGradient x1="0%" y1="100%" x2="100%" y2="0%" id="a"><stop stop-color="#BD0816" offset="0%"/><stop stop-color="#FF5252" offset="100%"/></linearGradient></defs><g fill="none" fill-rule="evenodd"><path d="M0 0h40v40H0z" fill="url(#a)"/><path d="m33.131 31.955-6.998-6.998a.501.501 0 0 1-.092-.58c.945-1.85.63-4.273-.732-5.635a4.629 4.629 0 0 0-3.855-1.33c-1.432.173-2.696 1.001-3.466 2.27a4.583 4.583 0 0 0 .103 4.868c1.354 2.06 3.977 2.781 6.094 1.681a.5.5 0 0 1 .584.091l1.194 1.194a.504.504 0 0 1 .146.39l-.089 1.258 1.38-.003h.001a.5.5 0 0 1 .353.147l.598.597a.502.502 0 0 1 .146.347l.017 1.406 1.231-.106a.502.502 0 0 1 .397.144l1.097 1.097 1.761.45.13-1.288Zm1.019-.135-.213 2.101a.5.5 0 0 1-.621.434l-2.456-.627a.499.499 0 0 1-.23-.13l-1.029-1.03-1.537.133a.499.499 0 0 1-.543-.493l-.021-1.74-.306-.306-1.709.004h-.001a.502.502 0 0 1-.499-.535l.11-1.569-.783-.783c-2.515 1.1-5.491.202-7.057-2.179a5.587 5.587 0 0 1-.122-5.937c.931-1.533 2.462-2.534 4.201-2.744a5.63 5.63 0 0 1 4.682 1.616c1.8 1.8 1.898 4.535 1.072 6.463l6.918 6.918a.5.5 0 0 1 .144.404ZM22.737 21.208a1.087 1.087 0 0 0-.774-.32c-.292 0-.567.113-.774.32a1.098 1.098 0 0 0 0 1.55 1.12 1.12 0 0 0 1.548 0 1.098 1.098 0 0 0 0-1.55Zm.707-.707a2.099 2.099 0 0 1 0 2.964 2.09 2.09 0 0 1-1.481.613 2.09 2.09 0 0 1-1.481-.613 2.099 2.099 0 0 1 0-2.964 2.097 2.097 0 0 1 2.962 0ZM9.662 13.312c0 .263.016.52.047.778a.504.504 0 0 1-.423.56C8.035 14.981 6 15.968 6 18.882c0 .107.006.213.011.315.135 2.461 2.487 3.794 4.633 3.8H15v1h-4.357c-3.063-.008-5.483-2.048-5.63-4.746A6.369 6.369 0 0 1 5 18.882c0-3.389 2.318-4.647 3.677-5.094a7.265 7.265 0 0 1-.015-.476c0-2.777 1.876-5.653 4.364-6.69 2.91-1.226 5.992-.618 8.245 1.625.591.581 1.348 1.451 1.88 2.511.566-.515 1.207-.768 1.941-.768 1.455 0 3.086 1.217 3.376 3.88 3.008.715 4.532 2.43 4.532 5.1 0 2.927-1.281 4.57-3.916 5.02l-.168-.987C30.352 22.758 32 22.08 32 18.97c0-3.018-2.34-3.843-4.099-4.2a.5.5 0 0 1-.4-.462c-.113-1.953-1.103-3.317-2.409-3.317-.664 0-1.186.302-1.691.981a.501.501 0 0 1-.872-.13c-.437-1.22-1.308-2.24-1.961-2.883-1.958-1.95-4.634-2.476-7.157-1.414-2.102.877-3.749 3.41-3.749 5.768Z" fill="#FFF"/></g></svg>