<svg width="40" height="40" xmlns="http://www.w3.org/2000/svg"><defs><linearGradient x1="0%" y1="100%" x2="100%" y2="0%" id="a"><stop stop-color="#2E27AD" offset="0%"/><stop stop-color="#527FFF" offset="100%"/></linearGradient></defs><g fill="none" fill-rule="evenodd"><path d="M0 0h40v40H0z" fill="url(#a)"/><path d="M21 32.49V29.5h-1v2.99L9 26.14V13.85l3.757 2.088.486-.874-3.703-2.058L20.5 7.07l10.96 5.937-3.703 2.057.486.874L32 13.85V26.14l-11 6.35Zm11.737-19.93-11.999-6.5a.497.497 0 0 0-.476 0l-12 6.5A.501.501 0 0 0 8 13V26.43a.5.5 0 0 0 .25.433l12 6.928a.506.506 0 0 0 .5 0l11.999-6.928a.5.5 0 0 0 .25-.433V13a.501.501 0 0 0-.262-.44ZM21 26.665v-6.871l5-2.89v7.074l-5 2.687Zm-6-9.761 5 2.89v6.87l-5-2.686v-7.074Zm5.5-3.284 4.758 2.558-4.758 2.75-4.758-2.75 4.758-2.558Zm6.236 2.217-6-3.224a.5.5 0 0 0-.472 0l-6 3.224a.5.5 0 0 0-.264.44v8c0 .184.102.354.264.44l6 3.225a.493.493 0 0 0 .472 0l6-3.224a.502.502 0 0 0 .264-.441v-8a.5.5 0 0 0-.264-.44Z" fill="#FFF"/></g></svg>