<svg width="40" height="40" xmlns="http://www.w3.org/2000/svg"><defs><linearGradient x1="0%" y1="100%" x2="100%" y2="0%" id="a"><stop stop-color="#4D27A8" offset="0%"/><stop stop-color="#A166FF" offset="100%"/></linearGradient></defs><g fill="none" fill-rule="evenodd"><path d="M0 0h40v40H0z" fill="url(#a)"/><path d="M24.024 20.314c.343.317.514.74.514 1.272 0 .58-.208 1.042-.624 1.388-.416.345-.977.518-1.68.518a4.112 4.112 0 0 1-1.647-.354v-.71c.643.214 1.193.32 1.648.32.448 0 .794-.101 1.036-.302.242-.2.363-.488.363-.86 0-.715-.452-1.072-1.355-1.072a8.13 8.13 0 0 0-.842.044v-.585l1.86-2.03h-2.622v-.726h3.607v.7l-1.826 1.932a.447.447 0 0 1 .089-.009h.088c.584 0 1.048.159 1.391.474m-5.147-.154c.359.336.54.8.54 1.39 0 .58-.21 1.049-.63 1.405-.42.358-.972.537-1.656.537a4.09 4.09 0 0 1-1.692-.354v-.71c.655.214 1.216.32 1.683.32.448 0 .793-.102 1.032-.306.239-.204.36-.498.36-.882 0-.42-.113-.725-.338-.913-.224-.189-.59-.284-1.099-.284-.366 0-.823.03-1.373.09v-.587l.169-2.65h3.233v.727h-2.489l-.116 1.8c.326-.06.618-.09.878-.09.638 0 1.138.17 1.498.507m6.653 6.462c-2.242.403-4.207 1.313-5.53 2.059-1.323-.746-3.288-1.656-5.53-2.06-.627-.112-3.755-.764-3.755-2.558 0-.836.301-1.392.877-2.385.696-1.2 1.562-2.693 1.562-4.848 0-1.528-.399-2.996-1.187-4.368l.25-.306c2.61 1.293 5.533 1.118 7.783-.304 2.25 1.421 5.173 1.597 7.783.304l.25.306c-.788 1.372-1.188 2.84-1.188 4.368 0 2.155.866 3.648 1.563 4.848.576.993.876 1.549.876 2.385 0 1.794-3.127 2.446-3.754 2.559m2.312-9.792c0-1.454.41-2.849 1.22-4.146a.502.502 0 0 0-.036-.58l-.726-.893a.497.497 0 0 0-.63-.123c-1.134.627-2.319.945-3.518.945-1.448 0-2.714-.39-3.868-1.19a.502.502 0 0 0-.568 0c-1.155.8-2.42 1.19-3.868 1.19-1.2 0-2.384-.318-3.52-.945a.495.495 0 0 0-.628.123l-.726.893a.5.5 0 0 0-.036.58c.809 1.297 1.219 2.692 1.219 4.146 0 1.887-.791 3.25-1.428 4.347-.626 1.08-1.011 1.798-1.011 2.886 0 2.524 3.502 3.348 4.575 3.54 2.246.404 4.207 1.356 5.456 2.084a.493.493 0 0 0 .502 0c1.25-.728 3.21-1.68 5.455-2.083 1.074-.193 4.575-1.017 4.575-3.541 0-1.088-.384-1.806-1.01-2.886-.637-1.096-1.429-2.46-1.429-4.347M26.01 29.297c-2.822.507-5.19 2.016-6.01 2.588-.82-.572-3.188-2.08-6.01-2.588-1.406-.252-5.992-1.376-5.992-5.234 0-1.606.631-2.696 1.244-3.75.587-1.013 1.195-2.06 1.195-3.483 0-2.217-1.265-3.791-1.913-4.452.676-.821 2.314-2.818 3.147-3.89 1.263 1.18 2.728 1.824 4.177 1.824 1.61 0 2.942-.65 4.152-2.036 1.21 1.387 2.543 2.036 4.152 2.036 1.449 0 2.914-.643 4.176-1.824.833 1.072 2.472 3.069 3.148 3.89-.649.66-1.913 2.235-1.913 4.452 0 1.423.608 2.47 1.195 3.483.612 1.054 1.244 2.144 1.244 3.75 0 3.858-4.587 4.982-5.992 5.234m5.611-9.485c-.57-.98-1.06-1.828-1.06-2.982 0-2.43 1.892-4.004 1.912-4.02a.503.503 0 0 0 .07-.705c-.03-.037-3.066-3.716-3.759-4.668a.497.497 0 0 0-.768-.047c-1.16 1.24-2.532 1.924-3.864 1.924-1.471 0-2.63-.656-3.756-2.128a.516.516 0 0 0-.793 0c-1.126 1.472-2.285 2.128-3.755 2.128-1.332 0-2.704-.683-3.864-1.924a.497.497 0 0 0-.768.047c-.693.952-3.728 4.63-3.76 4.668a.502.502 0 0 0 .072.705c.019.016 1.911 1.575 1.911 4.02 0 1.154-.49 2.001-1.061 2.982C7.732 20.926 7 22.188 7 24.062c0 3.127 2.546 5.451 6.813 6.217 3.19.574 5.857 2.597 5.883 2.617a.499.499 0 0 0 .608 0c.026-.02 2.694-2.043 5.883-2.617C30.453 29.513 33 27.19 33 24.063c0-1.875-.732-3.137-1.379-4.25" fill="#FFF"/></g></svg>