<svg width="40" height="40" xmlns="http://www.w3.org/2000/svg"><defs><linearGradient x1="0%" y1="100%" x2="100%" y2="0%" id="a"><stop stop-color="#C8511B" offset="0%"/><stop stop-color="#F90" offset="100%"/></linearGradient></defs><g fill="none" fill-rule="evenodd"><path d="M0 0h40v40H0z" fill="url(#a)"/><path d="m30.828 29.691-10.411-.01c-1.133-.003-2.124-.74-2.358-1.754a3.101 3.101 0 0 1-.072-.67c0-1.64 1.143-2.175 1.823-2.349a.498.498 0 0 0 .373-.546 3.853 3.853 0 0 1-.026-.445c0-1.339.923-2.778 2.101-3.277a3.736 3.736 0 0 1 1.467-.314c1.268 0 2.163.725 2.553 1.117.433.434.772.99 1.005 1.652a.5.5 0 0 0 .874.131c.303-.41.79-.59 1.249-.457.569.166.943.766.999 1.527a.499.499 0 0 0 .409.567c.658.114 2.186.576 2.186 2.418 0 2.151-1.988 2.391-2.172 2.41Zm-12.833 2.725L7 26.68v-14.4l9-4.936v4.521l-4.746 2.683a.499.499 0 0 0-.254.435v9a.5.5 0 0 0 .259.438l5.765 3.174c.016.187.021.378.061.555.337 1.464 1.737 2.528 3.33 2.53l.763.001-3.183 1.735Zm7.718-17.885L20 11.84V7.31l10 4.984v9.665c-.105-.05-.199-.116-.314-.149a2.097 2.097 0 0 0-1.75.267 5.113 5.113 0 0 0-.949-1.339 4.934 4.934 0 0 0-.987-.762v-4.992a.497.497 0 0 0-.287-.452Zm5.652 9.43A3.079 3.079 0 0 0 31 22.924v-10.94a.5.5 0 0 0-.277-.448l-11-5.483A.5.5 0 0 0 19 6.5v5.656c0 .194.111.37.287.452L25 15.3v4.232c-1-.304-2.083-.258-3.133.187-.738.313-1.386.893-1.864 1.598l-1.538-1.933 3.252-4.077h-1.444l-2.87 3.37v-3.37h-1.286v8.36h1.286V19.81l2.046 2.592a4.383 4.383 0 0 0-.292 1.516l.002.147c-1.123.414-1.857 1.28-2.087 2.416L12 23.688v-8.414l4.746-2.683a.498.498 0 0 0 .254-.435V6.5a.499.499 0 0 0-.74-.438l-10 5.483a.497.497 0 0 0-.26.438v15c0 .187.103.357.268.443l11.5 6a.503.503 0 0 0 .471-.004l5.024-2.739 7.604.007c1.084-.089 3.133-.915 3.133-3.409 0-1.942-1.299-2.965-2.635-3.32Z" fill="#FFF"/></g></svg>