<svg width="40" height="40" xmlns="http://www.w3.org/2000/svg"><defs><linearGradient x1="0%" y1="100%" x2="100%" y2="0%" id="a"><stop stop-color="#B0084D" offset="0%"/><stop stop-color="#FF4F8B" offset="100%"/></linearGradient></defs><g fill="none" fill-rule="evenodd"><path d="M0 0h40v40H0z" fill="url(#a)"/><path d="M25.869 18.833c0 2.481-2.019 4.5-4.5 4.5a4.505 4.505 0 0 1-4.5-4.5c0-2.481 2.019-4.5 4.5-4.5s4.5 2.019 4.5 4.5Zm1 0c0-3.033-2.468-5.5-5.5-5.5a5.506 5.506 0 0 0-5.5 5.5c0 3.033 2.468 5.5 5.5 5.5s5.5-2.467 5.5-5.5Zm-2.701 12.676a.5.5 0 0 0 .136-.371l-.093-1.626a10.93 10.93 0 0 0 2.673-1.108l1.085 1.217a.5.5 0 0 0 .726.02l3.466-3.467a.495.495 0 0 0 .146-.367.494.494 0 0 0-.167-.359l-1.219-1.088a10.92 10.92 0 0 0 1.106-2.67l1.631.094a.5.5 0 0 0 .528-.499v-4.903a.498.498 0 0 0-.528-.499l-1.633.093c-.25-.936-.621-1.83-1.106-2.668l1.221-1.09a.494.494 0 0 0 .167-.359.495.495 0 0 0-.146-.367l-3.466-3.466a.534.534 0 0 0-.367-.147.501.501 0 0 0-.359.167l-1.094 1.225a10.97 10.97 0 0 0-2.664-1.105l.093-1.638A.499.499 0 0 0 23.805 6h-4.903a.501.501 0 0 0-.499.528l.094 1.638c-.934.248-1.828.618-2.667 1.103l-1.091-1.223a.504.504 0 0 0-.358-.167.544.544 0 0 0-.368.147l-3.467 3.466a.496.496 0 0 0 .02.726l1.224 1.093a10.904 10.904 0 0 0-1.107 2.665l-1.634-.093a.5.5 0 0 0-.529.499v4.903c0 .137.057.269.158.363a.497.497 0 0 0 .372.136l2-.118-.059-.998-1.471.086v-3.842l1.521.086a.49.49 0 0 0 .515-.389 9.992 9.992 0 0 1 1.299-3.128.498.498 0 0 0-.09-.64l-1.138-1.016 2.719-2.718 1.014 1.138a.5.5 0 0 0 .64.089 9.982 9.982 0 0 1 3.13-1.294.5.5 0 0 0 .388-.517L19.432 7h3.843l-.086 1.524a.502.502 0 0 0 .389.517c1.11.25 2.162.687 3.127 1.296.207.13.477.092.64-.09l1.017-1.14 2.718 2.718-1.137 1.013a.502.502 0 0 0-.09.641 9.958 9.958 0 0 1 1.299 3.13c.054.238.244.413.516.389l1.518-.086v3.843l-1.517-.087a.514.514 0 0 0-.516.39 9.936 9.936 0 0 1-1.298 3.132.5.5 0 0 0 .09.64l1.135 1.012-2.718 2.718-1.009-1.131a.499.499 0 0 0-.639-.09 9.977 9.977 0 0 1-3.136 1.299.502.502 0 0 0-.389.516l.086 1.512h-3.827l.07-.789-.996-.088-.118 1.333a.5.5 0 0 0 .498.544h4.903a.501.501 0 0 0 .363-.157Zm-5.471-3.98-.687-.726-6.333 6 .687.726 6.333-6Zm-6.001-3.999-.685-.728-5.667 5.333.685.729 5.667-5.334ZM6.707 34.187 6 33.479l10-10 .707.708-10 10Z" fill="#FFF"/></g></svg>