<svg width="40" height="40" xmlns="http://www.w3.org/2000/svg"><defs><linearGradient x1="0%" y1="100%" x2="100%" y2="0%" id="a"><stop stop-color="#055F4E" offset="0%"/><stop stop-color="#56C0A7" offset="100%"/></linearGradient></defs><g fill="none" fill-rule="evenodd"><path d="M0 0h40v40H0z" fill="url(#a)"/><path d="m32.687 30.298-6.457-6.287a10.706 10.706 0 0 1-2.225 2.227l6.3 6.45c.31.31.682.338.928.304.389-.05.792-.267 1.137-.612.595-.596.895-1.503.317-2.082Zm-15.019-2.95c5.332 0 9.671-4.34 9.671-9.676 0-5.334-4.339-9.675-9.671-9.675-5.333 0-9.671 4.34-9.671 9.675 0 5.336 4.338 9.676 9.671 9.676Zm15.407 5.737c-.5.501-1.11.82-1.716.896a2.217 2.217 0 0 1-.29.019 2.05 2.05 0 0 1-1.473-.61l-6.433-6.588a10.583 10.583 0 0 1-5.495 1.543C11.786 28.345 7 23.557 7 17.672S11.786 7 17.668 7s10.668 4.787 10.668 10.672a10.6 10.6 0 0 1-1.541 5.497l6.592 6.419c.924.924.79 2.393-.312 3.497Zm-8.622-15.413c0-3.807-2.98-6.788-6.785-6.788s-6.785 2.981-6.785 6.788c0 3.807 2.98 6.789 6.785 6.789s6.785-2.982 6.785-6.789Zm.997 0c0 4.366-3.418 7.786-7.782 7.786s-7.782-3.42-7.782-7.786 3.418-7.786 7.782-7.786 7.782 3.42 7.782 7.786ZM15.22 19.614h-.997v1.995h1.994v-.998h-.997v-.997Zm-.997-3.99h.997v-.997h.997v-.997h-1.994v1.995Zm4.984-.997h.997v.998h.997V13.63h-1.994v.997Zm.997 4.987h.997v1.995h-1.994v-.998h.997v-.997Z" fill="#FFF"/></g></svg>