<svg width="40" height="40" xmlns="http://www.w3.org/2000/svg"><defs><linearGradient x1="0%" y1="100%" x2="100%" y2="0%" id="a"><stop stop-color="#BD0816" offset="0%"/><stop stop-color="#FF5252" offset="100%"/></linearGradient></defs><g fill="none" fill-rule="evenodd"><path d="M0 0h40v40H0z" fill="url(#a)"/><path d="M18.957 29.49h1.001v-3h-1v3Zm-7.454-9.553h3.001v-1h-3.001v1Zm7.454 4.551h1.001v-3.001h-1v3.001ZM19.958 33v-1.507h-1v1.507H7V19.937h2.5v-1h-2.5V7h11.956v11.935h-2.452v1.001H33v13.062H19.958Zm0-25.358 12.261 11.295H19.958V7.641ZM34 19.437a.504.504 0 0 0-.161-.367L19.797 6.132a.5.5 0 0 0-.34-.132H6.5a.5.5 0 0 0-.5.5v27a.5.5 0 0 0 .5.5h27a.5.5 0 0 0 .5-.5V19.437Z" fill="#FFF"/></g></svg>