<svg width="40" height="40" xmlns="http://www.w3.org/2000/svg"><defs><linearGradient x1="0%" y1="100%" x2="100%" y2="0%" id="a"><stop stop-color="#C8511B" offset="0%"/><stop stop-color="#F90" offset="100%"/></linearGradient></defs><g fill="none" fill-rule="evenodd"><path d="M0 0h40v40H0z" fill="url(#a)"/><path d="m14.163 26.544-.707-.707L7 32.293V29H6v4.5a.5.5 0 0 0 .5.5H11v-1H7.707l6.456-6.456ZM33.5 6H29v1h3.293l-6.147 6.147.707.707L33 7.707V11h1V6.5a.5.5 0 0 0-.5-.5ZM22 30h8v-8h-8v8Zm9-8.5v9a.5.5 0 0 1-.5.5h-9a.5.5 0 0 1-.5-.5v-9a.5.5 0 0 1 .5-.5h9a.5.5 0 0 1 .5.5ZM10 18h8v-8h-8v8Zm9-8.5v9a.5.5 0 0 1-.5.5h-9a.5.5 0 0 1-.5-.5v-9a.5.5 0 0 1 .5-.5h9a.5.5 0 0 1 .5.5ZM18.5 21h-9a.5.5 0 0 0-.5.5v6.672l1-1V22h8v8h-5.172l-1 1H18.5a.5.5 0 0 0 .5-.5v-9a.5.5 0 0 0-.5-.5ZM30 12.828l1-1V18.5a.5.5 0 0 1-.5.5h-9a.5.5 0 0 1-.5-.5v-9a.5.5 0 0 1 .5-.5h6.672l-1 1H22v8h8v-5.172Z" fill="#FFF"/></g></svg>