<svg width="40" height="40" xmlns="http://www.w3.org/2000/svg"><defs><linearGradient x1="0%" y1="100%" x2="100%" y2="0%" id="a"><stop stop-color="#055F4E" offset="0%"/><stop stop-color="#56C0A7" offset="100%"/></linearGradient></defs><g fill="none" fill-rule="evenodd"><path d="M0 0h40v40H0z" fill="url(#a)"/><path d="M29.592 17.74c-.216-1.83-1.179-3.156-2.618-3.577-1.05-.307-2.153-.052-2.986.646a8.402 8.402 0 0 0-1.712-2.541c-2.255-2.262-5.342-2.876-8.256-1.642-2.486 1.053-4.361 3.96-4.361 6.76 0 .166.005.329.016.49C8.317 18.324 6 19.59 6 23.018c0 .183.008.36.022.532.209 2.672 1.487 4.432 3.508 4.828l.191-.982c-2.116-.414-2.602-2.636-2.703-3.925A5.532 5.532 0 0 1 7 23.018c0-2.995 2.089-3.975 3.333-4.292a.5.5 0 0 0 .373-.544 6.915 6.915 0 0 1-.047-.795c0-2.384 1.648-4.95 3.751-5.84 3.638-1.541 6.218.485 7.157 1.427.765.768 1.363 1.748 1.774 2.914a.501.501 0 0 0 .874.13c.599-.81 1.572-1.161 2.479-.895 1.103.323 1.825 1.448 1.926 2.959a.501.501 0 0 0 .41.564c1.194.205 3.97 1.046 3.97 4.413 0 4.014-3.884 4.489-4.008 4.5h-6.354v.902l6.394.004c.05-.005 4.968-.461 4.968-5.406 0-3.834-2.999-4.988-4.408-5.32Zm-11.954 7.82h1v-4h-4v1h2.293l-6.647 6.647.707.707 6.647-6.647v2.293Zm8-4.293-8.647 8.647-.707-.707 8.647-8.647h-4.293v-1h6v6h-1v-4.293Z" fill="#FFF"/></g></svg>