<svg width="48" height="48" xmlns="http://www.w3.org/2000/svg"><defs><linearGradient x1="0%" y1="100%" x2="100%" y2="0%" id="a"><stop stop-color="#2E27AD" offset="0%"/><stop stop-color="#527FFF" offset="100%"/></linearGradient></defs><g fill="none" fill-rule="evenodd"><path fill="url(#a)" d="M4 4h40v40H4z"/><path stroke="#879196" stroke-width="2" d="M1 1h46v46H1z"/><path d="M24 23.991c-5.304 0-9-1.58-9-2.998V15.81c1.729 1.429 5.442 2.186 9 2.186s7.271-.757 9-2.186v5.183c0 1.418-3.696 2.998-9 2.998m0 6.873c-5.304 0-9-1.58-9-2.998v-5.06c1.729 1.428 5.442 2.185 9 2.185s7.271-.757 9-2.185v5.06c0 1.418-3.696 2.998-9 2.998M24 37c-5.304 0-9-1.579-9-2.997v-4.325c1.729 1.429 5.442 2.186 9 2.186s7.271-.757 9-2.186v4.325C33 35.421 29.304 37 24 37m0-26c5.304 0 9 1.58 9 2.998 0 1.418-3.696 2.998-9 2.998s-9-1.58-9-2.998C15 12.58 18.696 11 24 11m0-1c-4.848 0-10 1.401-10 3.998v20.005C14 36.599 19.152 38 24 38s10-1.401 10-3.997V13.998C34 11.401 28.848 10 24 10" fill="#FFF"/></g></svg>