<svg width="40" height="40" xmlns="http://www.w3.org/2000/svg"><defs><linearGradient x1="0%" y1="100%" x2="100%" y2="0%" id="a"><stop stop-color="#C8511B" offset="0%"/><stop stop-color="#F90" offset="100%"/></linearGradient></defs><g fill="none" fill-rule="evenodd"><path d="M0 0h40v40H0z" fill="url(#a)"/><path d="m25.715 20.58-2.157 1.271 6.199 3.72c.15.09.242.252.243.427v2.617l2-1.377v-2.952l-6.285-3.706Zm-5.961 2.652L29 28.689l.001-2.405-6.572-3.944a.495.495 0 0 1-.298-.228.521.521 0 0 1 .069-.625.54.54 0 0 1 .247-.142l9.113-5.371-2.074-1.383L9.757 26.429a.503.503 0 0 1-.534-.013L7 24.934v2.304l2.507 1.736 9.739-5.742a.502.502 0 0 1 .508 0Zm-6.469-3.813 2.157-1.271-6.199-3.719A.501.501 0 0 1 9 14.002l-.011-2.617L7 12.762v2.952l6.285 3.705Zm5.961-2.652L9.989 11.31l.01 2.406 6.678 4.008a.498.498 0 0 1-.003.859l-9.233 5.443 2.073 1.383 19.729-11.838a.496.496 0 0 1 .534.013L32 15.066v-2.304l-2.507-1.736-9.739 5.741a.497.497 0 0 1-.508 0Zm13.508-.336L26.699 20l6.055 3.569c.152.09.246.254.246.431v3.5c0 .164-.08.318-.216.411l-2.985 2.067a.5.5 0 0 1-.538.019L19.5 24.244l-9.761 5.753a.497.497 0 0 1-.538-.019l-2.985-2.067A.497.497 0 0 1 6 27.5V24c0-.177.094-.341.246-.431L12.301 20l-6.055-3.569A.502.502 0 0 1 6 16v-3.5c0-.164.08-.318.216-.411l2.985-2.067a.5.5 0 0 1 .538-.02l9.761 5.754 9.761-5.754a.5.5 0 0 1 .538.02l2.985 2.067A.497.497 0 0 1 33 12.5V16a.502.502 0 0 1-.246.431ZM22 31.232l-2.5 1.667-2.098-1.399 2.376-1.584A.503.503 0 0 0 20 29.5V26h-1v3.232l-2 1.334V28h-1v3.5c0 .167.084.323.223.416l3 2a.498.498 0 0 0 .555 0l2.999-2A.501.501 0 0 0 23 31.5V28h-1v3.232ZM17 12h-1V8.5c0-.167.084-.323.223-.416l3-2a.5.5 0 0 1 .555 0l2.999 2A.501.501 0 0 1 23 8.5V12h-1V9.434l-2 1.333V14h-1v-3.5c0-.167.084-.323.223-.416L21.599 8.5 19.5 7.101 17 8.767V12Z" fill="#FFF"/></g></svg>