<svg width="40" height="40" xmlns="http://www.w3.org/2000/svg"><defs><linearGradient x1="0%" y1="100%" x2="100%" y2="0%" id="a"><stop stop-color="#4D27A8" offset="0%"/><stop stop-color="#A166FF" offset="100%"/></linearGradient></defs><g fill="none" fill-rule="evenodd"><path d="M0 0h40v40H0z" fill="url(#a)"/><path d="M32.011 25.364a2.01 2.01 0 0 0-.584-1.423 1.984 1.984 0 0 0-2.82 0 2.025 2.025 0 0 0 0 2.844c.753.76 2.067.761 2.82 0 .376-.38.584-.884.584-1.421Zm-4.777-1.07c.14-.372.353-.722.646-1.026l-1.058-2.03-1.316 2.507 1.728.55Zm-3.159.043-6.866-2.189a5.531 5.531 0 0 1-1.405 1.654l3.386 4.737a2.949 2.949 0 0 1 2.832-.29l2.053-3.912Zm-1.226 6.668a1.993 1.993 0 0 0-1.981-1.996c-.508 0-1.015.194-1.401.584-.374.378-.58.879-.58 1.412 0 .534.206 1.035.58 1.413.772.778 2.03.778 2.801 0 .375-.378.58-.88.58-1.413Zm-10.401-7.027c2.458 0 4.457-2.015 4.457-4.495 0-2.478-2-4.495-4.457-4.495-2.458 0-4.457 2.017-4.457 4.495 0 2.48 2 4.495 4.457 4.495Zm6.439-14.983c0 .534.206 1.035.58 1.413.772.779 2.03.779 2.801 0 .375-.378.58-.88.58-1.413a1.993 1.993 0 0 0-1.98-1.997 1.993 1.993 0 0 0-1.981 1.997Zm3.016 2.801a2.981 2.981 0 0 1-1.035.195 2.947 2.947 0 0 1-1.563-.455l-2.974 4.1a5.511 5.511 0 0 1 1.321 2.222l6.374-1.985-2.123-4.077Zm-4.007 7.687c0 .612-.103 1.197-.286 1.746l6.936 2.21 1.717-3.272-1.768-3.395-6.64 2.068c.024.212.041.426.041.643Zm7.562-3.01 1.368 2.625 1.292-2.463c-.07-.06-.145-.108-.212-.175a2.985 2.985 0 0 1-.453-.609l-1.995.622Zm3.149-.72c.753.76 2.067.762 2.82 0 .376-.379.584-.883.584-1.42a2.01 2.01 0 0 0-.584-1.423 1.984 1.984 0 0 0-2.82 0 2.025 2.025 0 0 0 0 2.844Zm3.52 7.482a3.03 3.03 0 0 1 0 4.256 2.957 2.957 0 0 1-2.11.88 2.96 2.96 0 0 1-2.11-.88 3.01 3.01 0 0 1-.865-2.21l-2.007-.638-2.18 4.15c.037.034.079.058.114.094.56.565.87 1.318.87 2.118 0 .8-.31 1.554-.87 2.119-.58.584-1.34.876-2.101.876a2.947 2.947 0 0 1-2.101-.876 2.987 2.987 0 0 1-.871-2.119c0-.643.208-1.25.577-1.76l-3.5-4.898c-.756.4-1.614.63-2.525.63C9.445 24.977 7 22.513 7 19.483c0-3.028 2.445-5.493 5.448-5.493 1.163 0 2.24.372 3.125 1l2.992-4.124a2.98 2.98 0 0 1-.669-1.87c0-.801.309-1.553.87-2.12a2.956 2.956 0 0 1 4.203 0c.56.567.87 1.319.87 2.12a2.99 2.99 0 0 1-.87 2.118c-.066.067-.142.117-.213.176l2.232 4.284 2.103-.656a3.028 3.028 0 0 1 .815-2.714 2.97 2.97 0 0 1 4.221 0 3.03 3.03 0 0 1 0 4.256 2.957 2.957 0 0 1-2.11.88c-.355 0-.709-.07-1.046-.196l-1.588 3.025 1.309 2.513a2.96 2.96 0 0 1 3.435.553Zm-19.184-4.251h1.981v.999h-1.98v1.998h-.991v-1.998H9.972v-1h1.98v-1.997h.991v1.998Z" fill="#FFF"/></g></svg>