<svg width="40" height="40" xmlns="http://www.w3.org/2000/svg"><defs><linearGradient x1="0%" y1="100%" x2="100%" y2="0%" id="a"><stop stop-color="#BD0816" offset="0%"/><stop stop-color="#FF5252" offset="100%"/></linearGradient></defs><g fill="none" fill-rule="evenodd"><path d="M0 0h40v40H0z" fill="url(#a)"/><path d="M27.882 10.507c0 .898.731 1.629 1.628 1.629a1.63 1.63 0 0 0 0-3.258 1.63 1.63 0 0 0-1.628 1.629Zm-8.237 9.14 2.849-2.85a4.035 4.035 0 0 0-2.492-.874 4.08 4.08 0 0 0-4.076 4.075 4.081 4.081 0 0 0 4.076 4.076 4.08 4.08 0 0 0 4.075-4.076c0-.943-.335-1.801-.875-2.493l-2.848 2.85-.709-.709Zm6.402-4.986-2.136 2.137c.72.876 1.168 1.981 1.168 3.2 0 2.8-2.277 5.078-5.077 5.078a5.084 5.084 0 0 1-5.078-5.078c0-2.8 2.278-5.077 5.078-5.077 1.22 0 2.324.45 3.2 1.168l2.137-2.136a8.032 8.032 0 0 0-5.337-2.03c-4.454 0-8.077 3.622-8.077 8.075 0 4.454 3.623 8.077 8.077 8.077 4.453 0 8.076-3.623 8.076-8.077 0-2.047-.77-3.912-2.03-5.337Zm1.277-2.694a2.618 2.618 0 0 1-.444-1.46c0-1.45 1.18-2.63 2.63-2.63s2.63 1.18 2.63 2.63-1.18 2.63-2.63 2.63c-.55 0-1.058-.17-1.48-.458l-1.274 1.274a9.036 9.036 0 0 1 2.324 6.045c0 5.006-4.072 9.08-9.078 9.08-5.006 0-9.08-4.074-9.08-9.08s4.074-9.078 9.08-9.078c2.323 0 4.438.884 6.045 2.324l1.277-1.277ZM34 20c0 7.72-6.28 14-14 14S6 27.72 6 20 12.28 6 20 6c1.96 0 3.857.399 5.64 1.186l-.406.917A12.878 12.878 0 0 0 20 7.003c-7.168 0-12.998 5.83-12.998 12.997S12.832 32.998 20 32.998c7.167 0 12.998-5.831 12.998-12.998a12.75 12.75 0 0 0-1.094-5.209l.916-.406C33.603 16.145 34 18.035 34 20Z" fill="#FFF"/></g></svg>