<svg width="40" height="40" xmlns="http://www.w3.org/2000/svg"><defs><linearGradient x1="0%" y1="100%" x2="100%" y2="0%" id="a"><stop stop-color="#C8511B" offset="0%"/><stop stop-color="#F90" offset="100%"/></linearGradient></defs><g fill="none" fill-rule="evenodd"><path d="M0 0h40v40H0z" fill="url(#a)"/><path d="m10.29 16.7-.916-.4a10.502 10.502 0 0 1 19.252 0l-.916.4a9.504 9.504 0 0 0-17.42 0Zm16.939 8.549.866.501A10.54 10.54 0 0 1 19 31a10.54 10.54 0 0 1-9.095-5.25l.865-.501A9.54 9.54 0 0 0 19 30a9.537 9.537 0 0 0 8.229-4.751ZM26 22.5h-3v-3h3v3Zm-10 0h3v-3h-3v3Zm-7 0h3v-3H9v3Zm23.175-1.8L30.4 18.325l-.8.599 1.177 1.576H27V19a.5.5 0 0 0-.5-.5h-4a.5.5 0 0 0-.5.5v1.5h-2V19a.5.5 0 0 0-.5-.5h-4a.5.5 0 0 0-.5.5v1.5h-2V19a.5.5 0 0 0-.5-.5h-4a.5.5 0 0 0-.5.5v4a.5.5 0 0 0 .5.5h4a.5.5 0 0 0 .5-.5v-1.5h2V23a.5.5 0 0 0 .5.5h4a.5.5 0 0 0 .5-.5v-1.5h2V23a.5.5 0 0 0 .5.5h4a.5.5 0 0 0 .5-.5v-1.5h3.777L29.6 23.075l.8.599 1.775-2.375a.5.5 0 0 0 0-.599Z" fill="#FFF"/></g></svg>