<svg width="40" height="40" xmlns="http://www.w3.org/2000/svg"><defs><linearGradient x1="0%" y1="100%" x2="100%" y2="0%" id="a"><stop stop-color="#C8511B" offset="0%"/><stop stop-color="#F90" offset="100%"/></linearGradient></defs><g fill="none" fill-rule="evenodd"><path d="M0 0h40v40H0z" fill="url(#a)"/><path d="M28.82 27.993H12.7c-2.062 0-4.268-1.97-4.641-4.03h5.38a.5.5 0 0 0 .464-.316.506.506 0 0 0-.119-.552 1.162 1.162 0 0 1-.363-.848 1.171 1.171 0 0 1 1.503-1.128c.357.099.659.389.767.74.142.456.029.917-.303 1.236a.508.508 0 0 0-.118.552c.076.19.26.316.464.316h5.38a2.182 2.182 0 0 0-.117.708 2.173 2.173 0 0 0 2.766 2.1 2.133 2.133 0 0 0 1.458-1.41 2.24 2.24 0 0 0-.012-1.398h7.757c-.304 2.942-2.581 4.03-4.146 4.03Zm-17.628-8.739a.503.503 0 0 0 .376-.548 6.497 6.497 0 0 1-.043-.743c0-2.218 1.579-4.61 3.595-5.443 1.124-.465 2.277-.607 3.38-.443v5.453a.5.5 0 0 0 .862.348c.478-.506 1.34-.457 1.761.085.227.292.301.659.21 1.031-.09.364-.374.678-.725.8a1.154 1.154 0 0 1-1.246-.297.498.498 0 0 0-.862.347v3.112h-1.868c.15-.44.16-.927.014-1.398a2.136 2.136 0 0 0-1.459-1.411 2.173 2.173 0 0 0-2.766 2.1c0 .245.04.484.117.709h-4.53c.132-2.557 2.034-3.416 3.184-3.702Zm8.308-6.942c.909.299 1.76.817 2.504 1.545.715.699 1.302 1.639 1.698 2.717a.501.501 0 0 0 .394.324.51.51 0 0 0 .472-.192 2.25 2.25 0 0 1 1.797-.917c1.034 0 2.287.766 2.413 2.921.014.229.178.42.4.465 1.672.338 3.652 1.271 3.811 3.78H24.31a.502.502 0 0 0-.464.317.507.507 0 0 0 .119.552c.332.318.445.78.302 1.235-.109.352-.41.643-.767.74a1.171 1.171 0 0 1-1.503-1.128c0-.321.129-.622.363-.847a.506.506 0 0 0 .119-.552.5.5 0 0 0-.464-.316H19.5v-2.204c.452.159.953.162 1.434-.006a2.154 2.154 0 0 0 1.369-1.509 2.21 2.21 0 0 0-.392-1.895 2.182 2.182 0 0 0-2.411-.719v-4.31Zm10.243 5.957c-.427-3.59-3.665-4.175-5.401-2.765a7.878 7.878 0 0 0-1.642-2.37c-2.172-2.128-5.149-2.706-7.96-1.547-2.402.994-4.215 3.735-4.215 6.376 0 .146.004.29.013.432C9.221 18.821 7 20.02 7 23.244c0 .126.005.24.011.355C7.162 26.324 9.98 29 12.7 29h16.12c2.003 0 5.18-1.551 5.18-5.714 0-2.573-1.508-4.342-4.257-5.017Z" fill="#FFF"/></g></svg>