<svg width="40" height="40" xmlns="http://www.w3.org/2000/svg"><defs><linearGradient x1="0%" y1="100%" x2="100%" y2="0%" id="a"><stop stop-color="#B0084D" offset="0%"/><stop stop-color="#FF4F8B" offset="100%"/></linearGradient></defs><g fill="none" fill-rule="evenodd"><path d="M0 0h40v40H0z" fill="url(#a)"/><path d="M31.5 28v-4c.827 0 1.5.897 1.5 2s-.673 2-1.5 2Zm-22 0c-.827 0-1.5-.897-1.5-2s.673-2 1.5-2v4Zm22-5v-.056c0-1.623-1.271-2.944-2.833-2.944H20.5v1h8.167c1.011 0 1.833.872 1.833 1.944v6.112c0 1.072-.822 1.944-1.833 1.944H12.333c-1.011 0-1.833-.872-1.833-1.944v-6.112c0-1.072.822-1.944 1.833-1.944H15.5v-1h-3.167C10.771 20 9.5 21.321 9.5 22.944V23C8.121 23 7 24.346 7 26s1.121 3 2.5 3v.056C9.5 30.679 10.771 32 12.333 32H17.5v2h1v-2h4v2h1v-2h5.167c1.562 0 2.833-1.321 2.833-2.944V29c1.379 0 2.5-1.346 2.5-3s-1.121-3-2.5-3Zm-11-12h2v-1h-2v1Zm-4 0h2v-1h-2v1Zm-4 0h2v-1h-2v1ZM16 27c-.827 0-1.5-.673-1.5-1.5S15.173 24 16 24s1.5.673 1.5 1.5S16.827 27 16 27Zm0-4a2.503 2.503 0 0 0-2.5 2.5c0 1.378 1.121 2.5 2.5 2.5s2.5-1.122 2.5-2.5S17.379 23 16 23Zm7.5 2.5c0-.827.673-1.5 1.5-1.5s1.5.673 1.5 1.5S25.827 27 25 27s-1.5-.673-1.5-1.5Zm4 0c0-1.378-1.121-2.5-2.5-2.5a2.503 2.503 0 0 0-2.5 2.5c0 1.378 1.121 2.5 2.5 2.5s2.5-1.122 2.5-2.5Zm-17-18.045c0-.251.204-.455.455-.455h13.112c.239 0 .433.194.433.432v7.097c0 .26-.211.471-.471.471H18a.5.5 0 0 0-.5.5v2.761l-2.202-3.053a.497.497 0 0 0-.405-.208h-3.938a.455.455 0 0 1-.455-.455v-7.09ZM10.955 16h3.682l2.958 4.102a.499.499 0 0 0 .905-.292V16h5.529c.811 0 1.471-.66 1.471-1.471V7.432C25.5 6.643 24.857 6 24.067 6H10.955C10.152 6 9.5 6.652 9.5 7.455v7.09c0 .803.652 1.455 1.455 1.455Z" fill="#FFF"/></g></svg>