<svg width="40" height="40" xmlns="http://www.w3.org/2000/svg"><defs><linearGradient x1="0%" y1="100%" x2="100%" y2="0%" id="a"><stop stop-color="#C8511B" offset="0%"/><stop stop-color="#F90" offset="100%"/></linearGradient></defs><g fill="none" fill-rule="evenodd"><path d="M0 0h40v40H0z" fill="url(#a)"/><path d="m31 26.198-10 5.455V26.52l4.51-2.46 1.939.97.447-.895L26 23.186V17.18l5-2.828v11.846Zm-16 2.455V23.52l3-1.636v.612a.502.502 0 0 0 .777.416L20 22.096v3.83l-5 2.727Zm-6-3v-11.86l10-5.456v5.134l-4.51 2.46-2.043-1.022-.447.895 2 1v6.122l-5 2.727Zm12.777-4.742a.501.501 0 0 0 .223-.416v-1.053l3-1.697v5.453l-4 2.182v-3.885h-.099l.876-.584ZM19 19.762l2-1.333v1.798l-2 1.334v-1.799Zm-.777-.683a.501.501 0 0 0-.223.416v1.248l-3 1.637v-5.588l4-2.182v3.951l-.777.518ZM25 11.337v5.26l-3 1.696v-.798a.5.5 0 0 0-.777-.416L20 17.894v-3.83l5-2.727Zm6.752 1.726c-.01-.006-.023-.004-.033-.009l.004-.007-2.422-1.202-.446.895 1.579.784L26 16.031v-5.536a.5.5 0 0 0-.739-.439L20 12.926V8.304l1.725.862.447-.894-2.448-1.224-.004.007a.5.5 0 0 0-.459.001l-11 6a.499.499 0 0 0-.261.44v13a.5.5 0 0 0 .245.43c.011.005.025.003.035.01l-.004.006 2.56 1.28.447-.895-1.704-.852L14 24.065v5.43a.5.5 0 0 0 .739.44L20 27.064v4.621l-2.016-1.008-.447.895 2.739 1.37.004-.008a.51.51 0 0 0 .22.06.505.505 0 0 0 .239-.06l11-6a.5.5 0 0 0 .261-.44v-13a.502.502 0 0 0-.248-.432Z" fill="#FFF"/></g></svg>