<svg width="40" height="40" xmlns="http://www.w3.org/2000/svg"><defs><linearGradient x1="0%" y1="100%" x2="100%" y2="0%" id="a"><stop stop-color="#C8511B" offset="0%"/><stop stop-color="#F90" offset="100%"/></linearGradient></defs><g fill="none" fill-rule="evenodd"><path d="M0 0h40v40H0z" fill="url(#a)"/><path d="M26.873 29.343v-3.429l1.968-.666v3.386l-1.968.709Zm-2.944-1.335v-2.76l1.962.665v3.43l-1.962-.71v-.625Zm-.982 4.079-1.968.707v-3.427l1.968-.666V32.086Zm-4.912-3.1V28.7l1.962.665v3.428l-1.962-.707v-3.1Zm-2.95.356v-3.429l1.968-.666V28.634l-1.968.709Zm-2.944-4.095 1.962.665v3.43l-1.962-.71v-3.385Zm2.453-1.175 1.404.48-1.404.476-1.4-.476 1.4-.48Zm5.894 3.452 1.404.48-1.404.475-1.4-.475 1.4-.48Zm5.894-3.452 1.404.48-1.404.476-1.4-.476 1.4-.48Zm3.106.01-2.95-1.01a.482.482 0 0 0-.313 0l-2.944 1.01a.5.5 0 0 0-.334.473v2.757l-2.303-.787a.482.482 0 0 0-.313 0l-2.296.787v-2.757a.499.499 0 0 0-.335-.473l-2.95-1.01a.482.482 0 0 0-.313 0l-2.944 1.01a.5.5 0 0 0-.334.473v4.43c0 .21.13.4.327.47l2.944 1.063a.486.486 0 0 0 .328 0l2.295-.826v2.746c0 .21.13.4.327.47l2.944 1.062a.486.486 0 0 0 .328 0l2.95-1.062a.5.5 0 0 0 .327-.47v-2.746l2.29.826a.486.486 0 0 0 .327 0l2.95-1.063a.5.5 0 0 0 .327-.47v-4.43a.499.499 0 0 0-.335-.473ZM33 17.606c0 3.077-6.697 4.737-13 4.737s-13-1.66-13-4.737c0-1.463 1.604-2.754 4.52-3.634l.28.956c-2.355.712-3.818 1.738-3.818 2.678 0 1.77 4.935 3.738 12.018 3.738 7.083 0 12.018-1.969 12.018-3.738 0-.722-.864-1.509-2.37-2.156l.384-.919C32.485 15.586 33 16.786 33 17.606ZM20.491 8.03l5.448 2.014-5.448 2.039-5.448-2.039 5.448-2.014Zm5.618 10.14c-1.008.458-2.701.992-5.127 1.06v-6.267l5.894-2.206v6.219c0 .512-.301.98-.767 1.193Zm-12.003-1.194v-6.219L20 12.963v6.266c-2.425-.067-4.119-.6-5.126-1.06a1.316 1.316 0 0 1-.768-1.193Zm.366 2.104c1.163.53 3.15 1.16 6.02 1.16 2.869 0 4.856-.63 6.019-1.16a2.316 2.316 0 0 0 1.348-2.104V10.04c0-.21-.13-.397-.324-.469L20.66 7.03a.486.486 0 0 0-.336 0l-6.876 2.542a.499.499 0 0 0-.323.468v6.936c0 .904.53 1.73 1.348 2.104Z" fill="#FFF"/></g></svg>