<svg width="40" height="40" xmlns="http://www.w3.org/2000/svg"><defs><linearGradient x1="0%" y1="100%" x2="100%" y2="0%" id="a"><stop stop-color="#B0084D" offset="0%"/><stop stop-color="#FF4F8B" offset="100%"/></linearGradient></defs><g fill="none" fill-rule="evenodd"><path d="M0 0h40v40H0z" fill="url(#a)"/><path d="m33.579 14.527-1.765-.802c2.537 4.681 1.846 10.686-1.897 14.86C27.344 31.452 23.62 33 19.834 33a13.66 13.66 0 0 1-5.562-1.176l.414-.898c4.96 2.21 10.914.98 14.48-2.994 3.515-3.92 4.129-9.583 1.661-13.934l-.305 2.123-.993-.138.496-3.458a.495.495 0 0 1 .257-.364.51.51 0 0 1 .45-.015L34 13.632l-.421.895Zm-22.704-2.465c-3.528 3.935-4.122 8.814-1.687 13.013l.284-2.182.995.125-.46 3.535a.492.492 0 0 1-.258.371.509.509 0 0 1-.457.011L6 25.373l.435-.888 1.74.825c-2.49-4.516-1.813-9.707 1.948-13.9C13.97 7.122 20.388 5.792 25.72 8.17l-.414.898c-4.941-2.204-10.874-.97-14.432 2.994Zm3.534 11.428c0-.68.561-1.233 1.253-1.233.691 0 1.254.553 1.254 1.233s-.563 1.233-1.254 1.233a1.244 1.244 0 0 1-1.253-1.233Zm5.28-5.987c.203.058.413.1.632.1.207 0 .404-.037.593-.088l2.079 4.2a2.21 2.21 0 0 0-.855 1.282h-4.28a2.212 2.212 0 0 0-.827-1.259l2.659-4.235Zm.632-3.354c.692 0 1.255.554 1.255 1.233 0 .68-.563 1.234-1.255 1.234-.69 0-1.253-.553-1.253-1.234 0-.68.562-1.233 1.253-1.233Zm5.265 9.34c0 .681-.561 1.234-1.253 1.234-.691 0-1.254-.553-1.254-1.233s.563-1.233 1.254-1.233c.692 0 1.253.553 1.253 1.233Zm-7.729.494h4.28a2.25 2.25 0 0 0 2.196 1.726c1.244 0 2.256-.995 2.256-2.22 0-1.222-1.012-2.218-2.256-2.218-.146 0-.287.016-.424.042l-2.11-4.265c.474-.407.78-.999.78-1.666 0-1.224-1.013-2.219-2.258-2.219-1.243 0-2.256.995-2.256 2.22 0 .65.292 1.231.747 1.638l-2.695 4.295a2.303 2.303 0 0 0-.455-.045c-1.243 0-2.256.996-2.256 2.219 0 1.224 1.013 2.22 2.256 2.22a2.25 2.25 0 0 0 2.195-1.727Z" fill="#FFF"/></g></svg>