<svg width="40" height="40" xmlns="http://www.w3.org/2000/svg"><defs><linearGradient x1="0%" y1="100%" x2="100%" y2="0%" id="a"><stop stop-color="#C8511B" offset="0%"/><stop stop-color="#F90" offset="100%"/></linearGradient></defs><g fill="none" fill-rule="evenodd"><path d="M0 0h40v40H0z" fill="url(#a)"/><path d="m15 26.682-2.5 1.311-2.5-1.311v-3.39l2.5-1.25 2.5 1.25v3.39Zm1 .302v-4.002a.501.501 0 0 0-.276-.447l-3-1.5a.504.504 0 0 0-.448 0l-3 1.5a.501.501 0 0 0-.276.447v4.002c0 .186.104.357.268.443l3 1.573a.5.5 0 0 0 .464 0l3-1.573a.501.501 0 0 0 .268-.443Zm10 2.295v-5.508l5-2.918v5.62l-5 2.806Zm-6-2.336 4.662 3.087L20 32.646v-5.703Zm-5-10.419v-5.702l3.959 2.16-.001 3.999h1l.001-3.455L25 16.277v6.232l-1.542-1.105-.582.812L25 23.74v5.314l-5-3.312v-5.76a.5.5 0 0 0-.231-.423L15 16.524Zm-1-6.204v5.567l-4.543-2.89L14 10.32Zm5.511-3.246 5.133 2.771-4.891 2.43-4.709-2.57 4.467-2.63ZM26 16.29l5-2.5v5.905l-5 2.918V16.29Zm-.49-.873-4.686-2.556 4.897-2.433 4.695 2.535-4.906 2.454Zm6.227-2.877-12-6.479a.497.497 0 0 0-.491.01l-11 6.48a.5.5 0 0 0-.246.42l.002.01H8v7.001h1v-6.09l10 6.366v12.305l-3.722-2.498-.556.83 4.5 3.021.004-.005c.008.005.012.016.021.022a.508.508 0 0 0 .497.004l12-6.733a.5.5 0 0 0 .256-.436V12.979a.502.502 0 0 0-.263-.44Z" fill="#FFF"/></g></svg>