<svg width="40" height="40" xmlns="http://www.w3.org/2000/svg"><defs><linearGradient x1="0%" y1="100%" x2="100%" y2="0%" id="a"><stop stop-color="#1B660F" offset="0%"/><stop stop-color="#6CAE3E" offset="100%"/></linearGradient></defs><g fill="none" fill-rule="evenodd"><path d="M0 0h40v40H0z" fill="url(#a)"/><path d="M28 21.993v-1h-5v1h3.747l-3.747 5v1h5v-1h-3.75l3.75-5Zm-10.001.185h1.308l1.821-2.66.038-.054-.598-.844-2.569 3.558Zm-2.07-4.931-1.429-.548c-.462-.175-.823-.34-1.073-.493-.238-.146-.411-.31-.515-.488-.103-.177-.154-.414-.154-.707 0-.527.168-.92.514-1.202.345-.283.855-.426 1.516-.426.688 0 1.491.159 2.384.475l.126.044v-.875l-.056-.025a6.444 6.444 0 0 0-1.24-.4 5.97 5.97 0 0 0-1.255-.142c-.882 0-1.606.239-2.151.711-.549.475-.828 1.103-.828 1.866 0 .564.17 1.046.504 1.431.329.379.849.709 1.547.981l1.548.6c.52.2.898.426 1.127.671.223.239.335.532.335.871 0 .571-.204 1.01-.625 1.341-.421.332-.996.501-1.71.501-.77 0-1.626-.169-2.546-.501l-.126-.046v.873l.054.026c.784.379 1.687.571 2.684.571.97 0 1.767-.255 2.364-.757.603-.506.909-1.177.909-1.995 0-.562-.156-1.038-.462-1.415-.303-.371-.788-.688-1.442-.942ZM6 22.129h.976v-4.3h3.725v-.896H6.976v-3.35h4.407v-.896H6v9.442Zm16.202-2.136h1.352l-1.348-1.917 2.635-3.674h-1.293l-2.055 2.935-.581.807 1.29 1.849Zm-.967-3.241-1.646-2.35h-1.35l2.312 3.26.684-.91ZM29 21.993h3v-1h-3v1Zm0 6h3v-1h-3v1Zm0-3h5v-1h-5v1Z" fill="#FFF"/></g></svg>