<svg width="40" height="40" xmlns="http://www.w3.org/2000/svg"><defs><linearGradient x1="0%" y1="100%" x2="100%" y2="0%" id="a"><stop stop-color="#055F4E" offset="0%"/><stop stop-color="#56C0A7" offset="100%"/></linearGradient></defs><g fill="none" fill-rule="evenodd"><path d="M0 0h40v40H0z" fill="url(#a)"/><path d="M29.5 27.013H24v.998h5.5a2.5 2.5 0 0 1 2.5 2.495 2.5 2.5 0 0 1-2.5 2.496h-20A2.5 2.5 0 0 1 7 30.506a2.5 2.5 0 0 1 2.5-2.495h5.492v-.998H9.5A3.5 3.5 0 0 0 6 30.506 3.5 3.5 0 0 0 9.5 34h20a3.5 3.5 0 0 0 3.5-3.494 3.5 3.5 0 0 0-3.5-3.493Zm-18-13.975a1.5 1.5 0 0 0 1.5-1.497 1.5 1.5 0 0 0-3 0 1.5 1.5 0 0 0 1.5 1.497Zm5.5 5.49v12.477h-1V18.937l-4.598-.918A.5.5 0 0 1 11 17.53v-3.545a2.5 2.5 0 0 1-2-2.444 2.5 2.5 0 0 1 5 0 2.5 2.5 0 0 1-2 2.444v3.136l4.598.918a.5.5 0 0 1 .402.49Zm4.1-10.033a1.5 1.5 0 0 0-3 0 1.5 1.5 0 0 0 3 0ZM20 10.95v17.06h-1v-17.1a2.493 2.493 0 0 1-1.9-2.415 2.5 2.5 0 0 1 5 0A2.495 2.495 0 0 1 20 10.95Zm9 5.582a1.5 1.5 0 0 0-3 0 1.5 1.5 0 0 0 3 0Zm1 0a2.5 2.5 0 0 1-4.949.499H23v13.974h-1V16.532a.5.5 0 0 1 .5-.5h2.551a2.501 2.501 0 0 1 4.949.5Zm-5 14.473h2v-.998h-2v.998Zm3 0h2v-.998h-2v.998Z" fill="#FFF"/></g></svg>