<svg width="40" height="40" xmlns="http://www.w3.org/2000/svg"><defs><linearGradient x1="0%" y1="100%" x2="100%" y2="0%" id="a"><stop stop-color="#BD0816" offset="0%"/><stop stop-color="#FF5252" offset="100%"/></linearGradient></defs><g fill="none" fill-rule="evenodd"><path d="M0 0h40v40H0z" fill="url(#a)"/><path d="M18.005 29.476V11.631l-6 2.217v10.649c.011.174.344 4.727 6 4.979Zm6.958-6.77v-8.858l-5.958-2.215v17.848c.912-.064 1.447-.3 2.048-.662.052.347.134.685.247 1.009-.734.406-1.508.672-2.816.672-7.103 0-7.475-5.919-7.478-5.979V13.5a.5.5 0 0 1 .326-.469l7-2.587a.5.5 0 0 1 .347.001l6.958 2.586a.5.5 0 0 1 .326.469v9.008a5.415 5.415 0 0 0-1 .198Zm2.042 2.791h-1v2h-2v1h2v2h1v-2h2v-1h-2v-2Zm3.047 2.515a3.537 3.537 0 0 0-3.532-3.533 3.537 3.537 0 0 0-3.533 3.533 3.537 3.537 0 0 0 3.533 3.532 3.537 3.537 0 0 0 3.532-3.532Zm1 0a4.537 4.537 0 0 1-4.532 4.532 4.538 4.538 0 0 1-4.533-4.532 4.539 4.539 0 0 1 4.533-4.533 4.538 4.538 0 0 1 4.532 4.533Zm-8.533 3.81c.26.272.544.519.853.734-1.398.651-3.025.988-4.867.988-3.238 0-5.803-.968-7.62-2.878-3.086-3.242-2.89-7.99-2.879-8.19V11.5c0-.205.123-.388.313-.464l10-4a.499.499 0 0 1 .372 0l10 4c.19.076.314.259.314.464v11s.008.223-.002.575a5.537 5.537 0 0 0-.994-.387 24.125 24.125 0 0 1-.003-.165V11.838l-9.5-3.799-9.5 3.799V22.5c-.004.069-.183 4.556 2.608 7.482 1.621 1.7 3.94 2.562 6.891 2.562 1.508 0 2.843-.254 4.014-.722Z" fill="#FFF"/></g></svg>