<svg width="40" height="40" xmlns="http://www.w3.org/2000/svg"><defs><linearGradient x1="0%" y1="100%" x2="100%" y2="0%" id="a"><stop stop-color="#2E27AD" offset="0%"/><stop stop-color="#527FFF" offset="100%"/></linearGradient></defs><g fill="none" fill-rule="evenodd"><path d="M0 0h40v40H0z" fill="url(#a)"/><path d="M19.263 23h7v-1h-7v1Zm0-8h6v-1h-6v1Zm0-3h9v-1h-9v1ZM25.8 33c.223-1.635 1.525-2.894 3.093-2.894.56 0 1.11.163 1.589.47C31.3 31.099 31.85 32 31.989 33H25.8Zm3.093-7.588c.868 0 1.574.706 1.574 1.573 0 .868-.706 1.574-1.574 1.574a1.575 1.575 0 0 1-1.573-1.574c0-.867.706-1.573 1.573-1.573ZM22.763 26a.5.5 0 0 0-.5.5v1.7l-1.526-2.003A.498.498 0 0 0 20.34 26h-1.714c-.953 0-1.86-.464-2.427-1.243-.572-.786-.723-1.785-.414-2.742.383-1.186 1.592-2.015 2.94-2.015h10.648c1.297 0 2.446.751 2.862 1.869.596 1.603-.134 2.998-1.211 3.674a2.572 2.572 0 0 0-2.13-1.131A2.577 2.577 0 0 0 26.519 26h-3.756ZM7.052 14.332a6.424 6.424 0 0 1 1.574-5.121A6.507 6.507 0 0 1 13.499 7H25.32a6.98 6.98 0 0 1 5.243 2.372c1.235 1.404 1.787 3.165 1.556 4.958-.256 1.983-1.207 3.721-2.548 4.685-.066-.003-.131-.015-.2-.015H18.727c-1.026 0-1.986.38-2.72 1H13.81c-3.447 0-6.352-2.437-6.758-5.668Zm23.97 15.402a4.004 4.004 0 0 0-.985-.455 2.568 2.568 0 0 0 1.43-2.294c0-.179-.018-.354-.054-.524 1.52-.882 2.543-2.83 1.76-4.94-.395-1.061-1.272-1.867-2.351-2.258 1.204-1.166 2.042-2.888 2.29-4.805.269-2.083-.37-4.124-1.797-5.747A7.984 7.984 0 0 0 25.32 6H13.499a7.504 7.504 0 0 0-5.622 2.549 7.514 7.514 0 0 0-1.818 5.908c.469 3.73 3.8 6.543 7.75 6.543h1.352a3.585 3.585 0 0 0-.327.708c-.408 1.264-.205 2.59.557 3.638A4.015 4.015 0 0 0 18.626 27h1.466l2.273 2.984a.498.498 0 0 0 .898-.302V27h3.06a2.568 2.568 0 0 0 1.45 2.291c-1.73.524-3.006 2.202-3.006 4.209a.5.5 0 0 0 .5.5h7.256a.5.5 0 0 0 .5-.5c0-1.555-.747-2.962-2-3.766ZM10.705 17c.22-1.47 1.397-2.595 2.813-2.595.509 0 1.009.148 1.445.428.732.47 1.229 1.272 1.366 2.167h-5.624Zm2.813-6.722c.779 0 1.414.634 1.414 1.414 0 .78-.635 1.414-1.414 1.414-.78 0-1.415-.634-1.415-1.414 0-.78.635-1.414 1.415-1.414Zm3.849 7.222c0-1.448-.696-2.76-1.864-3.509a3.788 3.788 0 0 0-.62-.312 2.41 2.41 0 0 0-1.365-4.401 2.413 2.413 0 0 0-1.362 4.405c-1.45.587-2.488 2.071-2.488 3.817a.5.5 0 0 0 .5.5h6.699a.5.5 0 0 0 .5-.5Z" fill="#FFF"/></g></svg>