<svg width="40" height="40" xmlns="http://www.w3.org/2000/svg"><defs><linearGradient x1="0%" y1="100%" x2="100%" y2="0%" id="a"><stop stop-color="#055F4E" offset="0%"/><stop stop-color="#56C0A7" offset="100%"/></linearGradient></defs><g fill="none" fill-rule="evenodd"><path d="M0 0h40v40H0z" fill="url(#a)"/><path d="M26.032 9v2.965L24.434 9.71l-.82.578 2.51 3.542a.505.505 0 0 0 .41.212c.163 0 .315-.08.41-.212l2.51-3.542-.82-.578-1.598 2.255V9c0-1.848-1.154-2.996-3.012-2.996h-2.008v1h2.008c1.295 0 2.008.71 2.008 1.996ZM13.985 30.98v-2.945l1.598 2.255.82-.578-2.51-3.542c-.188-.265-.632-.265-.82 0l-2.51 3.542.82.578 1.598-2.255v2.945c0 1.862 1.154 3.019 3.012 3.019h2.008v-1h-2.008c-1.295 0-2.008-.717-2.008-2.02Zm12.977-4.096c.608-.654 1.084-1.43 1.443-2.363h-2.941c.367.91.87 1.702 1.498 2.363Zm3.976 2.253a.252.252 0 0 1-.064.248 2.346 2.346 0 0 0-.336.469.253.253 0 0 1-.287.126c-1.305-.334-2.394-.872-3.323-1.64-.875.69-1.95 1.225-3.273 1.629a.251.251 0 0 1-.307-.145 2.37 2.37 0 0 0-.272-.42.25.25 0 0 1-.045-.233.25.25 0 0 1 .171-.166c1.194-.341 2.163-.8 2.953-1.4-.76-.836-1.37-1.872-1.819-3.084h-.993a.252.252 0 0 1-.252-.25v-.523c0-.139.113-.25.252-.25h3.076v-1.134c0-.07.028-.136.079-.183a.264.264 0 0 1 .189-.068l.705.048a.253.253 0 0 1 .234.286.358.358 0 0 1-.155.246v.804h3.13c.138 0 .252.112.252.251v.522a.252.252 0 0 1-.252.251h-.902a.367.367 0 0 1-.223.166c-.43 1.161-.998 2.116-1.734 2.906.849.648 1.86 1.109 3.01 1.369.089.02.16.088.186.175ZM15.32 16.609l-1.326-3.84-1.316 3.84h2.642Zm-.68-4.88 2.903 7.828h-1.202l-.725-2.078h-3.232l-.703 2.078h-1.19l2.902-7.829h1.247Zm18.356 21.27V20.058h-4.413a.501.501 0 0 1-.502-.5v-3.578h-7.11v17.02h12.025Zm-3.911-13.942h3.029l-3.03-2.515v2.515Zm4.915.5V33.5a.5.5 0 0 1-.502.5h-13.03a.501.501 0 0 1-.502-.5V15.479c0-.276.225-.5.502-.5h8.115c.115 0 .23.035.321.11l4.916 4.084c.116.097.18.239.18.384ZM17.026 9.958h2.237l-2.237-2.245v2.245ZM8.004 18H7V6.502c0-.276.225-.5.502-.5L16.524 6c.13 0 .259.051.356.148l3.945 3.958a.501.501 0 0 1 .145.352V13h-1.004v-2.04h-3.442a.501.501 0 0 1-.502-.5V7l-8.018.002V18Zm0 6.021H18v1H7.502a.501.501 0 0 1-.502-.5v-3.52h1.004v3.02Z" fill="#FFF"/></g></svg>