<svg width="40" height="40" xmlns="http://www.w3.org/2000/svg"><defs><linearGradient x1="0%" y1="100%" x2="100%" y2="0%" id="a"><stop stop-color="#BD0816" offset="0%"/><stop stop-color="#FF5252" offset="100%"/></linearGradient></defs><g fill="none" fill-rule="evenodd"><path d="M0 0h40v40H0z" fill="url(#a)"/><path d="M22.034 20.429c0 .086-.034 1.908-1.507 2.258v-5.498l1.507.653v2.587Zm-4.014-.008v-2.579l1.507-.653v5.5c-1.435-.335-1.506-2.052-1.507-2.268Zm4.713-3.367-2.507-1.085a.5.5 0 0 0-.398 0l-2.507 1.085a.501.501 0 0 0-.301.459v2.908c0 1.155.629 3.339 3.007 3.339s3.007-2.179 3.007-3.331v-2.916a.501.501 0 0 0-.301-.459Zm6.657 9.792c-.882 0-1.6-.718-1.6-1.601s.718-1.601 1.6-1.601c.883 0 1.601.718 1.601 1.601s-.718 1.601-1.601 1.601Zm-9.315-2.101a4.988 4.988 0 0 1-4.983-4.983 4.988 4.988 0 0 1 4.983-4.984 4.99 4.99 0 0 1 4.984 4.984 4.989 4.989 0 0 1-4.984 4.983Zm1.553 6.058c0 .882-.718 1.601-1.601 1.601s-1.6-.719-1.6-1.601a1.602 1.602 0 0 1 3.201 0ZM18.427 8.601c0-.882.717-1.601 1.6-1.601.883 0 1.601.719 1.601 1.601a1.602 1.602 0 0 1-3.201 0ZM10.6 26.24c-.882 0-1.6-.718-1.6-1.601 0-.882.718-1.601 1.6-1.601.883 0 1.601.719 1.601 1.601 0 .883-.718 1.601-1.601 1.601Zm.408-10.629a1.603 1.603 0 0 1-1.601-1.601c0-.883.718-1.601 1.601-1.601.882 0 1.601.718 1.601 1.601s-.719 1.601-1.601 1.601Zm18.446-3.457a1.602 1.602 0 0 1 0 3.201 1.602 1.602 0 0 1 0-3.201Zm-.064 10.49c-.718 0-1.37.294-1.841.767l-1.969-1.305c.308-.72.479-1.512.479-2.344a5.942 5.942 0 0 0-.806-2.988l2.253-1.315c.477.545 1.17.896 1.948.896a2.604 2.604 0 0 0 2.601-2.601c0-1.434-1.167-2.6-2.601-2.6a2.603 2.603 0 0 0-2.601 2.6c0 .296.061.575.152.841l-2.322 1.354a5.97 5.97 0 0 0-4.156-2.148v-2.65a2.604 2.604 0 0 0 2.101-2.55A2.604 2.604 0 0 0 20.027 6a2.604 2.604 0 0 0-2.6 2.601c0 1.263.905 2.316 2.1 2.55v2.654a5.978 5.978 0 0 0-4.26 2.41l-1.857-1.211c.127-.307.199-.642.199-.994a2.604 2.604 0 0 0-2.601-2.601 2.604 2.604 0 0 0-2.601 2.601 2.604 2.604 0 0 0 2.601 2.601 2.59 2.59 0 0 0 1.847-.774l1.886 1.229a5.933 5.933 0 0 0-.649 2.696c0 .739.14 1.444.386 2.098l-1.917 1.09a2.584 2.584 0 0 0-1.961-.912A2.604 2.604 0 0 0 8 24.639a2.603 2.603 0 0 0 2.6 2.601 2.604 2.604 0 0 0 2.601-2.601c0-.288-.059-.56-.145-.819l1.853-1.055a5.984 5.984 0 0 0 4.618 2.952v2.536a2.603 2.603 0 0 0-2.1 2.55 2.604 2.604 0 0 0 2.6 2.601 2.604 2.604 0 0 0 2.601-2.601 2.604 2.604 0 0 0-2.101-2.55v-2.531a5.979 5.979 0 0 0 4.577-2.73l1.888 1.25a2.604 2.604 0 0 0 2.398 3.604 2.604 2.604 0 0 0 2.601-2.601 2.604 2.604 0 0 0-2.601-2.601Z" fill="#FFF"/></g></svg>