<svg width="40" height="40" xmlns="http://www.w3.org/2000/svg"><defs><linearGradient x1="0%" y1="100%" x2="100%" y2="0%" id="a"><stop stop-color="#2E27AD" offset="0%"/><stop stop-color="#527FFF" offset="100%"/></linearGradient></defs><g fill="none" fill-rule="evenodd"><path d="M0 0h40v40H0z" fill="url(#a)"/><path d="M22.156 21.931c-.255.141-.535.25-.841.328a3.628 3.628 0 0 1-.911.119c-.524 0-.922-.143-1.192-.43-.27-.285-.405-.702-.405-1.25 0-.518.141-.931.423-1.24.281-.31.657-.464 1.126-.464 1.176 0 1.776.924 1.8 2.772v.165ZM20.38 18.03c-.548 0-1.033.12-1.453.36a2.473 2.473 0 0 0-.972.974c-.227.412-.34.88-.34 1.405 0 .791.225 1.414.674 1.868.448.455 1.058.681 1.829.681.365 0 .723-.052 1.072-.158a3.62 3.62 0 0 0 .953-.441c-.055.971-.279 1.688-.673 2.15-.393.463-.971.694-1.734.694-.548 0-1.147-.145-1.799-.435v.893c.525.336 1.18.505 1.966.505 1.097 0 1.942-.395 2.538-1.186.597-.792.895-1.924.895-3.396 0-1.277-.253-2.248-.757-2.915-.505-.665-1.237-.999-2.199-.999Zm8.245 9.985H12.294c-2.284-.002-4.166-1.645-4.286-3.738A5.612 5.612 0 0 1 8 23.982c0-2.722 2-3.615 3.192-3.906a.493.493 0 0 0 .376-.539 5.944 5.944 0 0 1-.045-.723c0-2.173 1.579-4.513 3.595-5.327a6.66 6.66 0 0 1 2.495-.497c1.605 0 3.147.616 4.389 1.803.733.701 1.304 1.597 1.699 2.66.062.17.214.292.394.319.18.03.362-.043.473-.187.588-.758 1.539-1.074 2.423-.809 1.032.31 1.7 1.347 1.787 2.77.014.224.178.41.4.454 2.536.504 3.822 1.857 3.822 4.02 0 3.605-3.06 3.994-4.375 3.994Zm1.117-8.9c-.209-1.662-1.109-2.874-2.459-3.282a3.216 3.216 0 0 0-2.939.574 7.687 7.687 0 0 0-1.647-2.32c-2.174-2.082-5.149-2.643-7.958-1.512-2.403.97-4.216 3.654-4.216 6.24 0 .141.004.282.013.421C9.22 19.653 7 20.828 7 23.982c0 .12.003.235.01.35.15 2.614 2.47 4.666 5.283 4.668h16.332C31.223 29 34 27.693 34 24.02c0-2.514-1.508-4.245-4.258-4.906Z" fill="#FFF"/></g></svg>