<svg width="40" height="40" xmlns="http://www.w3.org/2000/svg"><defs><linearGradient x1="0%" y1="100%" x2="100%" y2="0%" id="a"><stop stop-color="#C8511B" offset="0%"/><stop stop-color="#F90" offset="100%"/></linearGradient></defs><g fill="none" fill-rule="evenodd"><path d="M0 0h40v40H0z" fill="url(#a)"/><path d="M15.909 18.167h2v-1h-2v1Zm13.71 6.152.94-.342-.946-2.59a.5.5 0 0 0-.641-.298l-2.65.967.344.939 1.469-.536c-.663 1.308-1.403 2.522-2.177 3.553a15.33 15.33 0 0 1-.418.535c-1.689 2.088-3.343 3.121-4.319 2.693-.326-.141-.586-.447-.773-.909l-.927.374c.284.704.734 1.206 1.3 1.452.271.118.561.176.867.176 1.331 0 2.966-1.102 4.628-3.156.149-.182.296-.37.443-.567.825-1.099 1.611-2.397 2.312-3.792l.548 1.501Zm-.002-7.35c-.177-1.464-.843-2.586-1.897-3.182l-.492.87c.838.475 1.345 1.452 1.425 2.753a.5.5 0 0 0 .401.459c1.821.365 3.992 1.4 3.992 4.257 0 3.589-2.865 4.125-4.573 4.125h-.552v1h.552c1.307 0 5.573-.37 5.573-5.125 0-2.647-1.568-4.467-4.429-5.157Zm-14.708 7.198h4v-10h-4v10Zm4.5-11a.5.5 0 0 1 .5.5v11c0 .277-.223.5-.5.5h-5a.5.5 0 0 1-.5-.5v-11a.5.5 0 0 1 .5-.5h5Zm3.454 13.084H11.484c-2.389 0-4.355-1.693-4.476-3.895A5.864 5.864 0 0 1 7 22.087c0-2.885 2.089-3.832 3.335-4.14a.5.5 0 0 0 .376-.546 6.436 6.436 0 0 1-.046-.767c0-2.3 1.649-4.776 3.752-5.637 3.649-1.495 6.239.469 7.184 1.381.755.735 1.368 1.71 1.772 2.816l.94-.343c-.457-1.247-1.153-2.349-2.016-3.191-2.264-2.188-5.352-2.78-8.259-1.588-2.493 1.019-4.373 3.84-4.373 6.562 0 .155.005.309.014.46C8.317 17.529 6 18.759 6 22.087c0 .108.005.211.012.364.148 2.692 2.553 4.8 5.472 4.8h11.379v-1Zm1.423-16.158c.751.331 1.155 1.542 1.112 3.382l-.002.121c-.066 1.735-.541 3.831-1.319 5.998l-.548-1.347-.925.377 1.038 2.553a.496.496 0 0 0 .651.275l2.613-1.063-.377-.927-1.575.641c.849-2.324 1.37-4.598 1.443-6.538.001-.064.002-.125-.001-.125.056-2.238-.549-3.751-1.709-4.264-.573-.247-1.539-.356-2.893.519l.543.84c.543-.351 1.325-.713 1.949-.442Zm-8.377 6.074h2v-1h-2v1Z" fill="#FFF"/></g></svg>