<svg width="40" height="40" xmlns="http://www.w3.org/2000/svg"><defs><linearGradient x1="0%" y1="100%" x2="100%" y2="0%" id="a"><stop stop-color="#B0084D" offset="0%"/><stop stop-color="#FF4F8B" offset="100%"/></linearGradient></defs><g fill="none" fill-rule="evenodd"><path d="M0 0h40v40H0z" fill="url(#a)"/><path d="m9.726 25.282-.863.504a12.434 12.434 0 0 1-1.009-2.173l.943-.33c.244.693.557 1.366.929 1.999Zm-.902-8.645-.942-.337a12.76 12.76 0 0 1 .948-2.036l.866.499a11.598 11.598 0 0 0-.872 1.874ZM14.99 10l-.41-.91a12.699 12.699 0 0 1 10.292 0l-.41.91a11.694 11.694 0 0 0-9.472 0Zm14.766 4.764.866-.499c.376.652.696 1.337.947 2.037l-.942.336a11.535 11.535 0 0 0-.871-1.874Zm.899 8.52.943.33c-.257.73-.585 1.441-.976 2.116l-.866-.498c.36-.621.662-1.277.899-1.948Zm-6.193 6.713.41.91A12.514 12.514 0 0 1 19.726 32c-1.791 0-3.522-.368-5.146-1.095l.41-.909a11.694 11.694 0 0 0 9.472 0ZM11.5 29.43a1.5 1.5 0 0 1-1.5-1.496 1.5 1.5 0 0 1 3 0c0 .825-.672 1.496-1.5 1.496Zm0-3.988A2.5 2.5 0 0 0 9 27.933a2.499 2.499 0 0 0 2.5 2.493c1.379 0 2.5-1.118 2.5-2.493a2.499 2.499 0 0 0-2.5-2.492Zm16 3.988a1.5 1.5 0 0 1-1.5-1.496 1.5 1.5 0 0 1 3 0c0 .825-.672 1.496-1.5 1.496Zm0-3.988a2.5 2.5 0 0 0-2.5 2.492 2.499 2.499 0 0 0 2.5 2.493c1.379 0 2.5-1.118 2.5-2.493a2.499 2.499 0 0 0-2.5-2.492Zm4-3.988a1.5 1.5 0 0 1-1.5-1.495 1.5 1.5 0 0 1 3 0c0 .824-.672 1.495-1.5 1.495Zm0-3.987a2.5 2.5 0 0 0-2.5 2.492 2.499 2.499 0 0 0 2.5 2.492c1.379 0 2.5-1.117 2.5-2.492a2.499 2.499 0 0 0-2.5-2.492Zm-20-6.9c.828 0 1.5.67 1.5 1.495a1.5 1.5 0 0 1-3 0 1.5 1.5 0 0 1 1.5-1.495Zm0 3.988c1.379 0 2.5-1.119 2.5-2.493a2.498 2.498 0 0 0-2.5-2.492A2.499 2.499 0 0 0 9 12.06a2.5 2.5 0 0 0 2.5 2.493Zm16-3.988c.828 0 1.5.67 1.5 1.495a1.5 1.5 0 0 1-3 0 1.5 1.5 0 0 1 1.5-1.495Zm0 3.988c1.379 0 2.5-1.119 2.5-2.493a2.498 2.498 0 0 0-2.5-2.492A2.499 2.499 0 0 0 25 12.06a2.5 2.5 0 0 0 2.5 2.493Zm-19 6.9A1.5 1.5 0 0 1 7 19.957a1.5 1.5 0 0 1 3 0c0 .824-.672 1.495-1.5 1.495Zm7.502-1.431a.494.494 0 0 0-.14-.355l-1.502-1.551-.719.692.675.697h-3.361A2.499 2.499 0 0 0 6 19.958a2.499 2.499 0 0 0 4.936.545h3.334l-.616.592.693.718 1.502-1.44a.498.498 0 0 0 .153-.35Zm9.656 1.068.626-.588H24v-.997h2.34l-.693-.69.707-.705 1.547 1.54a.497.497 0 0 1-.011.717l-1.547 1.448-.685-.725Zm-3.244 1.731A6.458 6.458 0 0 0 20 22.357c-.84 0-1.663.162-2.413.465.668-1.766.668-3.96 0-5.727 1.5.606 3.327.606 4.827 0-.668 1.766-.668 3.96 0 5.727Zm1.94-6.997a.496.496 0 0 0 0-.705.5.5 0 0 0-.707 0c-.92.917-2.249 1.442-3.647 1.442-1.397 0-2.726-.525-3.646-1.442a.5.5 0 0 0-.707.705c1.937 1.93 1.937 6.335 0 8.267a.493.493 0 0 0 0 .705.501.501 0 0 0 .707 0c.92-.917 2.249-1.443 3.646-1.443 1.398 0 2.727.526 3.647 1.443a.5.5 0 0 0 .853-.353.492.492 0 0 0-.146-.352c-1.938-1.932-1.938-6.336 0-8.267Z" fill="#FFF"/></g></svg>