<svg width="40" height="40" xmlns="http://www.w3.org/2000/svg"><defs><linearGradient x1="0%" y1="100%" x2="100%" y2="0%" id="a"><stop stop-color="#055F4E" offset="0%"/><stop stop-color="#56C0A7" offset="100%"/></linearGradient></defs><g fill="none" fill-rule="evenodd"><path d="M0 0h40v40H0z" fill="url(#a)"/><path d="M26.193 32.763c-.153-1.879-1.161-3.6-2.707-4.575a5.325 5.325 0 0 0-2.843-.825c-2.912 0-5.31 2.38-5.551 5.4h11.101Zm-5.54-6.4a3.023 3.023 0 0 0 3.019-3.02 3.023 3.023 0 0 0-3.019-3.02 3.025 3.025 0 0 0-3.021 3.02 3.025 3.025 0 0 0 3.021 3.02Zm6.561 6.9a.5.5 0 0 1-.5.5H14.573a.5.5 0 0 1-.5-.5c0-3.025 1.865-5.595 4.45-6.524a4.01 4.01 0 0 1-1.891-3.396 4.025 4.025 0 0 1 4.021-4.02 4.023 4.023 0 0 1 4.019 4.02c0 1.44-.766 2.695-1.907 3.405.435.156.858.345 1.254.595 1.971 1.241 3.195 3.51 3.195 5.92Zm-13.665-9.812-.513-.857-2.779 1.667L7 22.614v-2.24l3.352-2.044-.519-.854L7 19.202v-2.854l3.5-1.12 3.5 1.594v1.457l-3.063 1.837.514.857 2.993-1.795 1.714 1.143.555-.832L15 18.347v-1.76l2.749-1.576a.501.501 0 0 0 .251-.434V10.88h-1v3.407l-2.724 1.561L11 14.358v-3.756l2-1.193v3.057h1V8.812l2.856-1.703L20 8.62v9.26h1V8.306a.503.503 0 0 0-.284-.45L17.047 6.09a.497.497 0 0 0-.472.022l-6.331 3.775a.498.498 0 0 0-.244.43v4.02l-3.653 1.17a.5.5 0 0 0-.347.475v6.94a.5.5 0 0 0 .274.445L10 25.251v3.532a.5.5 0 0 0 .2.4l2.559 1.92.6-.8L11 28.533v-3.55l2.549-1.532Zm12.142-2.2a5.795 5.795 0 0 0 .252-1.682c0-2.57-1.722-4.85-4.186-5.544l-.271.963a4.769 4.769 0 0 1 3.457 4.581c0 .465-.07.933-.209 1.391l.957.29Zm7.911.647-1.837 4.806a.5.5 0 0 1-.673.277l-1.564-.706-.192.31c-.433.706-.807 1.316-1.66 1.96l-.601-.799c.701-.529.998-1.014 1.409-1.684.133-.216.274-.447.44-.696a.5.5 0 0 1 .623-.179l1.474.665 1.458-3.817-1.549-.492a.5.5 0 0 1-.343-.549 10.465 10.465 0 0 0-.098-3.567.501.501 0 0 1 .313-.566l1.514-.573-1.673-3.73-1.437.747a.5.5 0 0 1-.63-.142 10.588 10.588 0 0 0-2.597-2.45.501.501 0 0 1-.18-.623l.666-1.48-3.861-1.472-.56 1.312-.92-.393.749-1.753a.498.498 0 0 1 .637-.27l4.807 1.83a.5.5 0 0 1 .278.671l-.713 1.586c.832.598 1.58 1.304 2.231 2.105l1.539-.8a.5.5 0 0 1 .687.24l2.106 4.697a.496.496 0 0 1-.279.672l-1.62.614c.166 1.023.194 2.051.084 3.067l1.657.526a.503.503 0 0 1 .315.656Z" fill="#FFF"/></g></svg>