<svg width="40" height="40" xmlns="http://www.w3.org/2000/svg"><defs><linearGradient x1="0%" y1="100%" x2="100%" y2="0%" id="a"><stop stop-color="#4D27A8" offset="0%"/><stop stop-color="#A166FF" offset="100%"/></linearGradient></defs><g fill="none" fill-rule="evenodd"><path d="M0 0h40v40H0z" fill="url(#a)"/><path d="M18.027 25.5c0 .827.673 1.5 1.5 1.5s1.5-.673 1.5-1.5-.673-1.5-1.5-1.5-1.5.673-1.5 1.5Zm-1 0c0-1.378 1.121-2.5 2.5-2.5s2.5 1.122 2.5 2.5c0 1.207-.86 2.217-2 2.449V30h-1v-2.051a2.503 2.503 0 0 1-2-2.449ZM29.381 9.646l-.708.708L31.32 13H7.734l2.647-2.646-.708-.708L5.82 13.5l3.853 3.854.708-.708L7.734 14H31.32l-2.647 2.646.708.708 3.853-3.854-3.853-3.854ZM11.027 33h17V20h-17v13Zm14-14h4v15h-19V19h4v-3.917h1V19h9v-4h1v4Zm-10-7h-1v-.5c0-3.033 2.468-5.5 5.5-5.5s5.5 2.467 5.5 5.5v.5h-1v-.5c0-2.481-2.019-4.5-4.5-4.5a4.505 4.505 0 0 0-4.5 4.5v.5Z" fill="#FFF"/></g></svg>