<svg width="40" height="40" xmlns="http://www.w3.org/2000/svg"><defs><linearGradient x1="0%" y1="100%" x2="100%" y2="0%" id="a"><stop stop-color="#2E27AD" offset="0%"/><stop stop-color="#527FFF" offset="100%"/></linearGradient></defs><g fill="none" fill-rule="evenodd"><path d="M0 0h40v40H0z" fill="url(#a)"/><path d="m34.086 15.905-1.955.459 1.53 1.717a1.526 1.526 0 0 1-.459.553 1.415 1.415 0 0 1-.645.263l-1.191-2.057-1.19 2.057a1.427 1.427 0 0 1-.647-.263 1.536 1.536 0 0 1-.459-.553l1.532-1.717-1.955-.459a1.382 1.382 0 0 1-.036-.272c0-.385.149-.725.444-1.02l1.836.901-.239-2.193c.227-.102.465-.153.714-.153.261 0 .499.051.714.153l-.238 2.193 1.836-.901c.295.295.442.635.442 1.02 0 .068-.012.159-.034.272m-8.684 12.171c.807 0 1.702-.162 2.684-.484v1.034c-.91.41-1.826.616-2.75.616-1.701 0-2.992-.488-3.872-1.463-.88-.976-1.319-2.409-1.319-4.301 0-1.878.447-3.311 1.341-4.302.895-.989 2.192-1.484 3.894-1.484.909 0 1.768.176 2.574.528v1.034a8.012 8.012 0 0 0-2.509-.396c-1.392 0-2.4.356-3.024 1.067-.624.711-.935 1.852-.935 3.421v.264c0 1.525.315 2.651.946 3.377s1.621 1.089 2.97 1.089M16 7c5.304 0 9 1.581 9 3s-3.696 3-9 3-9-1.581-9-3 3.696-3 9-3m-.352 26.102C10.552 33.102 7 31.487 7 30.037v-4.155c1.895 1.186 5.444 1.968 9.231 1.968.944 0 1.892-.048 2.82-.143l-.102-.995c-4.842.494-10.236-.496-11.949-2.074V18.88c1.899 1.187 5.45 1.97 9.231 1.97.892 0 1.815-.05 2.82-.153l-.102-.995c-.97.099-1.86.148-2.718.148-4.01 0-7.825-.922-9.231-2.209v-5.828C8.729 13.242 12.442 14 16 14s7.272-.758 9-2.187V14h1v-4c0-2.598-5.152-4-10-4S6 7.402 6 10v20.037c0 2.318 4.148 4.065 9.648 4.065 3.653 0 6.931-.815 8.556-2.127l-.629-.778c-1.432 1.157-4.545 1.905-7.927 1.905" fill="#FFF"/></g></svg>