<svg width="40" height="40" xmlns="http://www.w3.org/2000/svg"><defs><linearGradient x1="0%" y1="100%" x2="100%" y2="0%" id="a"><stop stop-color="#B0084D" offset="0%"/><stop stop-color="#FF4F8B" offset="100%"/></linearGradient></defs><g fill="none" fill-rule="evenodd"><path d="M0 0h40v40H0z" fill="url(#a)"/><path d="M29.293 9H20.64l-7.531 12.661-.516-1.929-.967.259.77 2.87-.062.104.106.063.139.519.506-.136.108.065.066-.111 2.876-.771-.258-.966-1.886.505L21.208 10h7.507l3.754 6.5-3.754 6.5h-3.911v1h4.489l4.33-7.5-4.33-7.5Zm-3.183 9.38L18.991 31H10.33L6 23.5l4.33-7.5h3.474v1h-2.896l-3.754 6.5 3.754 6.5h7.499l6.851-12.145-1.927.517-.258-.966 2.872-.77.058-.102.104.059.522-.14.138.511.107.061-.062.11.771 2.874-.967.259-.506-1.888Z" fill="#FFF"/></g></svg>