<svg width="40" height="40" xmlns="http://www.w3.org/2000/svg"><defs><linearGradient x1="0%" y1="100%" x2="100%" y2="0%" id="a"><stop stop-color="#4D27A8" offset="0%"/><stop stop-color="#A166FF" offset="100%"/></linearGradient></defs><g fill="none" fill-rule="evenodd"><path d="M0 0h40v40H0z" fill="url(#a)"/><path d="M26.39 30.125a1.001 1.001 0 0 0-2 0 1.001 1.001 0 0 0 2 0Zm-6 0a1.001 1.001 0 0 0 0 2 1.001 1.001 0 0 0 0-2Zm-5.006-1a1.001 1.001 0 0 0 0 2 1.001 1.001 0 0 0 0-2Zm2.665-4.362c-.544-.691-1.002-1.614-1.345-2.703-.69.173-1.326.393-1.884.658a7.797 7.797 0 0 0 3.23 2.045ZM14.95 11.842a10.5 10.5 0 0 0 1.813.608c.335-1.007.773-1.858 1.286-2.509a7.822 7.822 0 0 0-3.099 1.901Zm7.925-1.901c.513.651.951 1.502 1.286 2.509a10.5 10.5 0 0 0 1.813-.608 7.809 7.809 0 0 0-3.099-1.901Zm3.23 12.778a10.256 10.256 0 0 0-1.886-.658c-.342 1.089-.8 2.011-1.344 2.702a7.8 7.8 0 0 0 3.23-2.044Zm-8.43-.865c.543 1.687 1.366 2.812 2.215 3.169v-3.394c-.766.026-1.51.101-2.215.225Zm5.572 0a16.015 16.015 0 0 0-2.357-.228v3.447c.898-.284 1.784-1.437 2.357-3.219Zm-5.832-.967a17.136 17.136 0 0 1 6.093 0c.223-.962.36-2.057.377-3.262h-6.847c.018 1.205.155 2.3.377 3.262Zm-4.737-3.262a7.748 7.748 0 0 0 1.485 4.304c.667-.34 1.438-.619 2.281-.832a16.606 16.606 0 0 1-.406-3.472h-3.36Zm3.813-4.214a11.227 11.227 0 0 1-2.214-.787 7.729 7.729 0 0 0-1.575 4.001h3.347c.046-1.154.2-2.237.442-3.214Zm11.731 3.214a7.737 7.737 0 0 0-1.575-4.001c-.653.32-1.4.584-2.214.787.242.977.395 2.06.441 3.214h3.348Zm-3.337 1a16.544 16.544 0 0 1-.405 3.473c.843.212 1.613.492 2.28.832a7.743 7.743 0 0 0 1.485-4.305h-3.36Zm-7.424-4.007c-.22.888-.367 1.898-.412 3.007h6.825a15.028 15.028 0 0 0-.412-3.007 17.12 17.12 0 0 1-3 .263c-1.037 0-2.05-.093-3-.263Zm.283-.963c.861.146 1.777.226 2.718.226.942 0 1.857-.08 2.717-.226-.669-1.944-1.713-3.1-2.717-3.1s-2.049 1.155-2.718 3.1Zm9.646 17.47c0 1.103-.897 2-2 2s-2-.897-2-2c0-.929.64-1.706 1.5-1.929v-.571h-4v1.571c.86.223 1.5 1 1.5 1.929 0 1.103-.897 2-2 2s-2-.897-2-2c0-.929.64-1.706 1.5-1.929v-1.571h-4.006v.571c.86.223 1.5 1 1.5 1.929 0 1.103-.897 2-2 2-1.102 0-2-.897-2-2 0-.929.64-1.706 1.5-1.929v-1.571h5.006v-.504c-4.584-.298-8.226-4.111-8.226-8.769 0-4.851 3.947-8.797 8.798-8.797s8.797 3.946 8.797 8.797c0 4.707-3.718 8.55-8.369 8.776v.497h5v1.571c.86.223 1.5 1 1.5 1.929Zm1.058-4.677-.707-.707c4.052-4.054 4.052-10.648 0-14.701-4.053-4.053-10.649-4.053-14.702 0-4.052 4.053-4.052 10.647 0 14.701l-.707.707c-4.443-4.443-4.443-11.673 0-16.115 4.444-4.444 11.672-4.444 16.116 0 4.443 4.442 4.443 11.672 0 16.115Z" fill="#FFF"/></g></svg>