<svg width="40" height="40" xmlns="http://www.w3.org/2000/svg"><defs><linearGradient x1="0%" y1="100%" x2="100%" y2="0%" id="a"><stop stop-color="#4D27A8" offset="0%"/><stop stop-color="#A166FF" offset="100%"/></linearGradient></defs><g fill="none" fill-rule="evenodd"><path d="M0 0h40v40H0z" fill="url(#a)"/><path d="M14.556 14.18c-1.656 0-2.813-.08-3.63-.209l2.475 3.77a.507.507 0 0 1 .082.275v1.598c.565.106 1.408.109 1.95.005l.004-1.62a.49.49 0 0 1 .09-.284l2.567-3.695c-.885.12-2.055.16-3.538.16Zm-5.49-1.365c0-.791.976-1.17 3.366-1.31l.058 1c-1.243.072-1.87.207-2.18.31.448.147 1.562.362 4.246.362 2.955 0 4.007-.195 4.367-.358-.186-.08-.594-.197-1.467-.275l.087-.998c1.237.11 2.501.346 2.501 1.269 0 .305-.14.542-.4.73l-3.205 4.613L16.435 20a.502.502 0 0 1-.314.464c-.396.159-1.006.23-1.617.23-.653 0-1.307-.082-1.696-.225a.502.502 0 0 1-.328-.47v-1.834l-3.085-4.702a.767.767 0 0 1-.328-.648Zm19.345 9.795c.383.446.95.73 1.582.73v-1.002c-.595 0-1.08-.485-1.08-1.08H27.91a1.082 1.082 0 0 1-2.161 0h-1.003a1.082 1.082 0 0 1-2.162 0H21.58c0 .595-.485 1.08-1.08 1.08v1.002a2.08 2.08 0 0 0 1.581-.73 2.08 2.08 0 0 0 3.165 0 2.079 2.079 0 0 0 3.164 0Zm-.22-6.818H27.19a1.083 1.083 0 0 1-2.163 0h-1.003a1.082 1.082 0 0 1-2.161 0h-1.003c0 .596-.485 1.081-1.081 1.081v1.002c.632 0 1.2-.283 1.583-.73a2.079 2.079 0 0 0 3.164 0 2.082 2.082 0 0 0 3.166 0c.38.447.949.73 1.582.73v-1.002c-.597 0-1.081-.485-1.081-1.081ZM19.1 29.483c.633 0 1.2-.283 1.582-.73a2.082 2.082 0 0 0 3.166 0c.38.447.95.73 1.582.73v-1.002c-.597 0-1.08-.485-1.08-1.081h-1.003a1.083 1.083 0 0 1-2.163 0H20.18a1.082 1.082 0 0 1-2.162 0h-1.002c0 .596-.486 1.081-1.082 1.081v1.002c.633 0 1.2-.283 1.583-.73.382.447.95.73 1.582.73ZM10.434 9.005h1.003V8.002h-1.003v1.003Zm-1.002.5V7.502a.5.5 0 0 1 .5-.501h2.006c.277 0 .501.225.501.501v2.005a.501.501 0 0 1-.501.501H9.933a.5.5 0 0 1-.501-.501Zm5.053 1.504h1.003v-1.002h-1.003v1.002Zm-1.002.502V9.506a.5.5 0 0 1 .501-.501h2.005c.277 0 .501.224.501.5v2.006a.501.501 0 0 1-.5.5h-2.006a.5.5 0 0 1-.501-.5Zm-.035 11.95V21h-1.003v1.958h-.967a.5.5 0 0 0-.362.848l3.007 3.126a.504.504 0 0 0 .723 0l3.008-3.126a.5.5 0 0 0-.361-.848h-1.02v-1.957H15.47v2.458c0 .277.224.502.501.502h.344l-1.83 1.9-1.83-1.9h.291a.501.501 0 0 0 .502-.502ZM33 21.502C33 28.393 27.393 34 20.5 34 13.609 34 8 28.394 8 21.503c0-1.904.417-3.732 1.24-5.435l.903.436a11.392 11.392 0 0 0-1.14 4.999c0 6.338 5.157 11.495 11.498 11.495 6.34 0 11.496-5.157 11.496-11.495 0-6.339-5.157-11.496-11.496-11.496-.67 0-1.344.058-2.002.173l-.172-.988a12.72 12.72 0 0 1 2.174-.187C27.393 9.005 33 14.61 33 21.503Z" fill="#FFF"/></g></svg>