<svg width="40" height="40" xmlns="http://www.w3.org/2000/svg"><defs><linearGradient x1="0%" y1="100%" x2="100%" y2="0%" id="a"><stop stop-color="#1B660F" offset="0%"/><stop stop-color="#6CAE3E" offset="100%"/></linearGradient></defs><g fill="none" fill-rule="evenodd"><path d="M0 0h40v40H0z" fill="url(#a)"/><path d="m34 20.792-2.86 1.972a.502.502 0 0 1-.708-.149l-1.805-2.924.85-.523 1.22 1.978c.146-.746.244-1.501.244-2.267 0-6.552-5.37-11.882-11.971-11.882-6.602 0-11.972 5.33-11.972 11.882 0 1.302.21 2.581.625 3.801l-.945.32A12.799 12.799 0 0 1 6 18.879C6 11.778 11.818 6 18.97 6c7.151 0 12.969 5.778 12.969 12.879 0 .762-.074 1.519-.207 2.266l1.701-1.173.567.82Zm-13.024-3.561c1.488 1.008 5.441 3.685 5.441 8.295 0 4.611-3.05 7.475-7.959 7.475-4.908 0-7.958-2.864-7.958-7.475 0-4.61 3.953-7.287 5.441-8.295.134-.09.247-.167.335-.231h4.365c.088.064.201.141.335.231Zm-4.43-3.492a.498.498 0 0 0 .37-.051c.069-.04.112-.065 1.586-1.562l1.477 1.481a.498.498 0 0 0 .475.132l2.281-.572L20.57 16h-4.354l-2.025-2.851 2.355.59Zm12.665 2.335c-.317-.147-.574-.413-.764-.791-.372-.742-.885-.93-1.252-.957-1.022-.072-2.127 1.125-2.553 1.678h-2.815l2.57-3.365a.498.498 0 0 0-.518-.789l-3.393.85-1.632-1.637a.5.5 0 0 0-.354-.147h-.002a.5.5 0 0 0-.354.149c-.638.649-1.345 1.363-1.615 1.639l-3.408-.854a.5.5 0 0 0-.528.775l2.718 3.827C13.795 17.479 9.5 20.46 9.5 25.526 9.5 30.674 13.017 34 18.458 34c5.442 0 8.959-3.326 8.959-8.474 0-4.357-3.176-7.169-5.03-8.526h2.508a.502.502 0 0 0 .409-.211c.434-.615 1.273-1.493 1.818-1.469.058.004.234.017.431.409.289.576.717 1.008 1.236 1.248l.422-.903ZM20.5 27.437c0 .938-.64 1.721-1.5 1.946V25.57c.779.283 1.5.877 1.5 1.867Zm-4-5.037c0-.937.64-1.72 1.5-1.946v3.813c-.779-.283-1.5-.877-1.5-1.867Zm-1 0c0 1.383.991 2.506 2.5 2.911v4.072a2.012 2.012 0 0 1-1.5-1.946h-1a3.01 3.01 0 0 0 2.5 2.967v.484h1v-.484a3.01 3.01 0 0 0 2.5-2.967c0-1.383-.991-2.506-2.5-2.911v-4.072c.86.226 1.5 1.009 1.5 1.946h1a3.011 3.011 0 0 0-2.5-2.967v-.545h-1v.545a3.011 3.011 0 0 0-2.5 2.967Z" fill="#FFF"/></g></svg>