<svg width="40" height="40" xmlns="http://www.w3.org/2000/svg"><defs><linearGradient x1="0%" y1="100%" x2="100%" y2="0%" id="a"><stop stop-color="#055F4E" offset="0%"/><stop stop-color="#56C0A7" offset="100%"/></linearGradient></defs><g fill="none" fill-rule="evenodd"><path d="M0 0h40v40H0z" fill="url(#a)"/><path d="M29 24h1v-3h-1v3Zm3 5h-1.5a.5.5 0 0 1-.5-.5V27h-2v1.5a.5.5 0 0 1-.5.5H26v2h1.5a.5.5 0 0 1 .5.5V33h2v-1.5a.5.5 0 0 1 .5-.5H32v-2Zm1-.5v3a.5.5 0 0 1-.5.5H31v1.5a.5.5 0 0 1-.5.5h-3a.5.5 0 0 1-.5-.5V32h-1.5a.5.5 0 0 1-.5-.5v-3a.5.5 0 0 1 .5-.5H27v-1.5a.5.5 0 0 1 .5-.5h3a.5.5 0 0 1 .5.5V28h1.5a.5.5 0 0 1 .5.5ZM17 10h6V7h-6v3Zm-1 .5v-4a.5.5 0 0 1 .5-.5h7a.5.5 0 0 1 .5.5v4a.5.5 0 0 1-.5.5h-7a.5.5 0 0 1-.5-.5Zm-5-1.762c0-.407.331-.738.738-.738H15V7h-3.262A1.74 1.74 0 0 0 10 8.738V16h1V8.738Zm18 0V16h1V8.738A1.74 1.74 0 0 0 28.262 7H25v1h3.262c.407 0 .738.331.738.738ZM11 32.262V21h-1v11.262c0 .958.78 1.738 1.738 1.738H25v-1H11.738a.739.739 0 0 1-.738-.738ZM25.299 18l-1.736-4.627a.5.5 0 0 0-.915-.049l-2.724 5.448-2.612-3.658a.502.502 0 0 0-.836.033L14.765 18H6v1h9.048a.499.499 0 0 0 .429-.243l1.463-2.441 2.653 3.713a.5.5 0 0 0 .407.209l.039-.001a.5.5 0 0 0 .408-.275l2.583-5.165 1.454 3.878a.5.5 0 0 0 .468.325H34v-1h-8.701ZM13 27h8v-1h-8v1Zm0 3h8v-1h-8v1Z" fill="#FFF"/></g></svg>