<svg width="40" height="40" xmlns="http://www.w3.org/2000/svg"><defs><linearGradient x1="0%" y1="100%" x2="100%" y2="0%" id="a"><stop stop-color="#055F4E" offset="0%"/><stop stop-color="#56C0A7" offset="100%"/></linearGradient></defs><g fill="none" fill-rule="evenodd"><path d="M0 0h40v40H0z" fill="url(#a)"/><path d="m18.998 23.769-6.35 3.72-.506-.857 3.857-2.26v-2.169l-3.49-2.268-3.257 2.245-.57-.818L12 19.075v-2.431L9.346 15.03l-2.345 1.58v2.005l1.971-1.196.521.849L7 19.782v3.058l2.515 1.843 3.208-2.128.553.828L10 25.557v3.439l2.718 1.71 2.824-1.882.557.827-2.457 1.635 2.577 1.62L18.999 31v-7.23Zm9.998-2.292a.5.5 0 0 0-1 0 .5.5 0 0 0 1 0Zm-2-8.954a.5.5 0 0 0-1 0 .5.5 0 0 0 1 0Zm-2.999 5.97a.5.5 0 0 0 1 0 .5.5 0 0 0-1 0Zm-3.999 6.984v5.783a.496.496 0 0 1-.216.41l-3.267 2.241a.504.504 0 0 1-.552.012l-6.73-4.232a.5.5 0 0 1-.233-.42v-3.73l-2.797-2.05a.494.494 0 0 1-.203-.4l.001-6.746c0-.165.082-.319.22-.411l2.78-1.87V10.14c0-.185.103-.356.268-.441l7-3.641a.498.498 0 0 1 .527.038l2.736 1.978 3.594-2.01a.507.507 0 0 1 .472-.01l7.125 3.603a.497.497 0 0 1 .273.444v3.692l2.831 2.504a.5.5 0 0 1 .168.372v8.289a.498.498 0 0 1-.777.414l-3.948-2.618a1.498 1.498 0 0 1-2.274-1.277c0-.823.673-1.492 1.5-1.492a1.498 1.498 0 0 1 1.412 1.996l3.087 2.048v-7.137l-2.831-2.504a.5.5 0 0 1-.168-.372v-.995H27.91a1.501 1.501 0 0 1-2.913-.498 1.501 1.501 0 0 1 2.913-.497h2.086v-1.62l-6.613-3.343-3.385 1.892v5.473l3.756 2.77a1.498 1.498 0 0 1 2.243 1.295c0 .822-.673 1.492-1.5 1.492s-1.5-.67-1.5-1.493c0-.19.036-.372.102-.54L19.2 15.08a.5.5 0 0 1-.202-.4V8.917l-2.54-1.835L13 8.882v3.144h-1V9.4l-2 1.04v3.822l2.503 1.521 3.496-2.068v-2.685h1v2.968a.496.496 0 0 1-.244.426L13 16.648v2.418l3.772 2.452a.494.494 0 0 1 .227.416v1.852l2-1.171v-2.39l-3.146-2.505.625-.777 3.332 2.654a.495.495 0 0 1 .188.388v4.497h2v.995h-2Zm12.31 1.504-.363-.34-4.143 3.78a1.357 1.357 0 0 0-.35-.05c-.747 0-1.356.606-1.356 1.35a1.356 1.356 0 0 0 2.714 0 1.33 1.33 0 0 0-.069-.405l3.567-4.335Zm-3.396.215.301-.949a5.904 5.904 0 0 0-1.76-.27c-3.488 0-6.547 3.243-6.547 6.94h1c0-3.167 2.592-5.946 5.546-5.946.493 0 .984.076 1.46.225ZM34 32.918h-1c0-1.138-.339-2.27-.982-3.273l.844-.535A7.067 7.067 0 0 1 34 32.918Z" fill="#FFF"/></g></svg>