<svg width="40" height="40" xmlns="http://www.w3.org/2000/svg"><defs><linearGradient x1="0%" y1="100%" x2="100%" y2="0%" id="a"><stop stop-color="#055F4E" offset="0%"/><stop stop-color="#56C0A7" offset="100%"/></linearGradient></defs><g fill="none" fill-rule="evenodd"><path d="M0 0h40v40H0z" fill="url(#a)"/><path d="M9.948 16h5.897v-1H9.948v1Zm0-2h5.897v-1H9.948v1Zm0-2h5.897v-1H9.948v1Zm12.776 21h.983v-5h-.983v5Zm-2.948 1h.982v-6h-.982v6Zm-2.949-1h.983v-5h-.983v5Zm-8.844-7h9.827V8H7.983v18Zm10.81-18.5v19c0 .276-.22.5-.491.5H7.492A.496.496 0 0 1 7 26.5v-19c0-.276.22-.5.491-.5h10.81c.272 0 .492.224.492.5Zm15.206 14.625c.029 1.542-.583 2.766-1.867 3.734-1.402 1.063-3.127 1.138-3.201 1.141h-6.207v-1h6.19c-.004 0 1.481-.07 2.632-.943 1.04-.785 1.493-1.685 1.47-2.923 0-2.097-1.336-3.797-3.106-3.962a.498.498 0 0 1-.445-.54c.005-.056.012-.113.022-.174.033-.208.069-.445-.228-1.094a1.827 1.827 0 0 0-.789-.854c-1.021-.546-2.085-.433-2.842.305a.489.489 0 0 1-.799-.186c-.8-2.171-2.864-3.629-5.136-3.629h-.003a.497.497 0 0 1-.49-.5c0-.276.219-.5.49-.5l.003.032V11c2.46 0 4.711 1.449 5.794 3.666 1.003-.64 2.267-.666 3.44-.041.53.282.964.75 1.224 1.317.275.601.344.997.34 1.311 2.031.45 3.508 2.455 3.508 4.872Z" fill="#FFF"/></g></svg>