<svg width="40" height="40" xmlns="http://www.w3.org/2000/svg"><defs><linearGradient x1="0%" y1="100%" x2="100%" y2="0%" id="a"><stop stop-color="#BD0816" offset="0%"/><stop stop-color="#FF5252" offset="100%"/></linearGradient></defs><g fill="none" fill-rule="evenodd"><path d="M0 0h40v40H0z" fill="url(#a)"/><path d="m17 22.811 2.996 1.737L27 20.602l-.007 3.376L20 28.033l-3-1.739v-3.483Zm-.903-8.753 2.963 1.764L16 17.597v8.117l-3-1.739v-8.122l3.097-1.795ZM17 18.173l3.043-1.765L23 18.169v3.539l-2.996 1.689L17 21.655v-3.482Zm10 1.281-3 1.691v-3.544l-6.913-4.117L20 11.795l7 4.058v3.601Zm4 6.84-3.007 1.744L28 15.277l-8-4.638-8 4.638v9.274l8 4.638 6.993-4.054v3.482L20 32.672 9 26.294v-12.76l11-6.378 11 6.378v12.76ZM20 6 8 12.958V26.87l12 6.958 12-6.958V12.958L20 6Z" fill="#FFF"/></g></svg>