<svg width="40" height="40" xmlns="http://www.w3.org/2000/svg"><defs><linearGradient x1="0%" y1="100%" x2="100%" y2="0%" id="a"><stop stop-color="#055F4E" offset="0%"/><stop stop-color="#56C0A7" offset="100%"/></linearGradient></defs><g fill="none" fill-rule="evenodd"><path d="M0 0h40v40H0z" fill="url(#a)"/><path d="M23.772 10.785a1.001 1.001 0 0 0 2 0 1.001 1.001 0 0 0-2 0m-1 0c0-1.103.897-2 2-2s2 .897 2 2-.897 2-2 2-2-.897-2-2m8.772 11.151c0 6.492-5.281 11.772-11.772 11.772C13.281 33.708 8 28.428 8 21.936c0-3.223 1.277-6.231 3.596-8.47L19.398 6l.691.723-7.799 7.464A10.678 10.678 0 0 0 9 21.936c0 5.94 4.832 10.772 10.772 10.772s10.772-4.832 10.772-10.772c0-2.979-1.189-5.751-3.348-7.805l.689-.725a11.668 11.668 0 0 1 3.659 8.53" fill="#FFF"/></g></svg>