<svg width="40" height="40" xmlns="http://www.w3.org/2000/svg"><defs><linearGradient x1="0%" y1="100%" x2="100%" y2="0%" id="a"><stop stop-color="#2E27AD" offset="0%"/><stop stop-color="#527FFF" offset="100%"/></linearGradient></defs><g fill="none" fill-rule="evenodd"><path d="M0 0h40v40H0z" fill="url(#a)"/><path d="M33 15.996v3.014h-1v-1.388l-3.816 3.452h-2.972l-1.497 1.633-.736-.677 1.794-1.957H27.8l3.402-3.076H29.99v-1.001H33Zm-1 4.015h1v1.99h-2.01V21h.31l-1.152-1.165.707-.705 1.146 1.156v-.275Zm-3.853 3.993h2.905l-.478-.711.83-.559 1.185 1.769-1.183 1.789-.834-.552.487-.735h-3.223l-1.342-.924-1.517 1.061-4.288-3.34.612-.79 3.707 2.886 1.482-1.035 1.657 1.141Zm-2.38-7.111h2.946l.855.912-.728.685-.56-.597h-2.063l-1.225 1.382-1.223-1.382h-2.775v-1h3.224l.774.874.776-.874ZM16.625 7c5.173 0 8.374 1.558 8.374 3.002 0 1.438-3.132 2.927-8.374 2.927-5.327 0-8.625-1.52-8.625-2.927 0-1.45 3.467-3.002 8.625-3.002Zm3.434 9.007h-1V27.46a.5.5 0 0 0 .5.5h5.44v2.059c0 1.433-3.201 2.98-8.374 2.98-5.158 0-8.625-1.541-8.625-2.98v-4.4c1.732 1.36 5.295 2.341 8.998 2.341v-1c-4.534 0-8.327-1.464-8.998-2.804v-5.483c1.748 1.339 5.288 2.284 8.998 2.284v-1.001c-4.404 0-8.21-1.41-8.998-2.707v-5.41c1.66 1.378 5.154 2.092 8.625 2.092 3.853 0 6.89-.79 8.374-2.05v3.126h1v-5.004c0-2.32-3.942-4.003-9.374-4.003C11.84 6 7 7.375 7 10.003V30.02C7 32.605 11.958 34 16.624 34c5.432 0 9.374-1.674 9.374-3.981V27.96h6.99v-1h-12.93V16.007Z" fill="#FFF"/></g></svg>