<svg width="40" height="40" xmlns="http://www.w3.org/2000/svg"><defs><linearGradient x1="0%" y1="100%" x2="100%" y2="0%" id="a"><stop stop-color="#B0084D" offset="0%"/><stop stop-color="#FF4F8B" offset="100%"/></linearGradient></defs><g fill="none" fill-rule="evenodd"><path d="M0 0h40v40H0z" fill="url(#a)"/><path d="M11.056 28.594a2.09 2.09 0 0 1-2.08-2.096 2.09 2.09 0 0 1 2.08-2.095c1.146 0 2.08.94 2.08 2.095a2.09 2.09 0 0 1-2.08 2.096Zm1.857.363a3.093 3.093 0 0 0 1.223-2.459c0-1.711-1.382-3.103-3.08-3.103-.42 0-.817.086-1.181.24l-1.799-3.139 2.362-4.122-.865-.504-2.506 4.375a.504.504 0 0 0 0 .503l1.966 3.43a3.09 3.09 0 0 0-1.056 2.32c0 1.712 1.38 3.104 3.079 3.104.342 0 .665-.07.973-.174l1.531 2.844a.5.5 0 0 0 .44.263h5.5v-1.008h-5.203l-1.385-2.57ZM29.944 16.56a2.09 2.09 0 0 1-2.08-2.096 2.09 2.09 0 0 1 2.08-2.096 2.09 2.09 0 0 1 2.078 2.096 2.09 2.09 0 0 1-2.079 2.096Zm2.023.224a3.095 3.095 0 0 0 1.055-2.32c0-1.711-1.38-3.104-3.079-3.104-.34 0-.662.07-.97.173L27.442 8.62A.497.497 0 0 0 27 8.351h-5.5V9.36h5.2l1.39 2.644a3.1 3.1 0 0 0-1.226 2.462c0 1.71 1.381 3.103 3.08 3.103.42 0 .818-.086 1.18-.24l1.799 3.14-2.362 4.12.866.504 2.505-4.373a.504.504 0 0 0 0-.504l-1.965-3.43Zm-4.573 16.207a2.09 2.09 0 0 1-2.08-2.095 2.09 2.09 0 0 1 2.08-2.095 2.09 2.09 0 0 1 2.079 2.095 2.09 2.09 0 0 1-2.08 2.095Zm-9.19-8.491-2.293-4.002 2.292-4h4.584l2.294 4-2.294 4.002h-4.584Zm-4.568-12.303a2.09 2.09 0 0 1-2.08-2.095 2.09 2.09 0 0 1 2.08-2.095c1.146 0 2.08.94 2.08 2.095a2.09 2.09 0 0 1-2.08 2.095Zm13.758 15.596c-.625 0-1.206.191-1.692.515l-2.07-3.267 2.46-4.29a.504.504 0 0 0 0-.504l-2.582-4.505a.498.498 0 0 0-.433-.252h-4.752l-2.279-3.481a3.088 3.088 0 0 0 .67-1.907c0-1.711-1.382-3.103-3.08-3.103-1.699 0-3.08 1.392-3.08 3.103 0 1.712 1.381 3.103 3.08 3.103a3.04 3.04 0 0 0 1.668-.502l2.09 3.194-2.492 4.35a.504.504 0 0 0 0 .503l2.58 4.506a.497.497 0 0 0 .433.252h4.828l2.218 3.505A3.092 3.092 0 0 0 27.395 34c1.698 0 3.079-1.393 3.079-3.103 0-1.712-1.381-3.103-3.08-3.103Z" fill="#FFF"/></g></svg>