<svg width="40" height="40" xmlns="http://www.w3.org/2000/svg"><defs><linearGradient x1="0%" y1="100%" x2="100%" y2="0%" id="a"><stop stop-color="#BD0816" offset="0%"/><stop stop-color="#FF5252" offset="100%"/></linearGradient></defs><g fill="none" fill-rule="evenodd"><path d="M0 0h40v40H0z" fill="url(#a)"/><path d="M33.007 29.006h-7v-3h7v3Zm-6 4h-6v-3h6v3Zm-10.257-1.74a6.062 6.062 0 0 1-5.137-2.823c-.896-1.41-.912-3.23-.01-4.802 1.049-1.593.672-3.807.336-5.027.964.493 1.838 1.755 2.147 2.311a.486.486 0 0 0 .478.256.497.497 0 0 0 .429-.327c.967-2.655.31-4.611-.4-5.776 2.07.699 5.66 2.6 5.66 7.379 0 .136.056.266.154.361a.484.484 0 0 0 .368.138c.59-.025 1.651-.473 2.16-1.886.044.133.072.279.072.436v3.5h-5.5a.5.5 0 0 0-.5.5v4a.5.5 0 0 0 .5.5h2.5v.384c-.855.561-1.999.876-3.257.876Zm-7.691-8.609c-.976-.646-2.139-1.874-2.139-4.059 0-2.988 2.079-3.968 3.318-4.287a.498.498 0 0 0 .375-.514l-.049-.821c0-2.33 1.735-6.026 6.391-6.026 1.896 0 3.399.545 4.466 1.619.763.766 1.356 1.745 1.767 2.909a.5.5 0 0 0 .874.131c.62-.842 1.69-1.194 2.659-.875 1.098.36 1.726 1.437 1.723 2.936a.5.5 0 0 0 .411.563c2.794.481 4.152 1.827 4.152 4.113 0 1.322-.341 2.333-1.016 3.084a.493.493 0 0 0-.484-.424h-7.559c-.206-.937-.921-1.499-.956-1.526a.496.496 0 0 0-.502-.062.496.496 0 0 0-.298.407c-.124 1.181-.589 1.708-.962 1.944-.465-6.83-7.828-8.036-7.906-8.048a.5.5 0 0 0-.388.884c.093.076 2.086 1.74 1.409 4.904-.67-.891-1.824-2.098-3.16-2.098a.5.5 0 0 0-.464.686c.013.032 1.201 3.068.093 4.909h-.564c-.434 0-.847-.121-1.191-.349Zm16.448 2.349h-1.5v-3h7v3h-5.5Zm-.5 4h-7v-3h7v3Zm8.5-4h-1.5v-2.241c1.324-.963 2-2.446 2-4.419 0-1.868-.806-4.221-4.57-5.019-.105-1.766-.987-3.077-2.404-3.543a3.354 3.354 0 0 0-3.197.618 8.365 8.365 0 0 0-1.706-2.539c-1.262-1.269-3.003-1.913-5.175-1.913-5.098 0-7.391 4.109-7.39 7.056l.027.453c-1.352.444-3.672 1.708-3.672 5.139 0 2.768 1.62 4.254 2.587 4.893a3.145 3.145 0 0 0 1.743.515h.075c-.641 1.656-.496 3.495.445 4.974a7.059 7.059 0 0 0 5.98 3.286c1.203 0 2.325-.26 3.257-.726v1.966a.5.5 0 0 0 .5.5h7a.5.5 0 0 0 .5-.5v-3.5h5.5a.5.5 0 0 0 .5-.5v-4a.5.5 0 0 0-.5-.5Z" fill="#FFF"/></g></svg>