<svg width="64" height="64" xmlns="http://www.w3.org/2000/svg"><defs><linearGradient x1="0%" y1="100%" x2="100%" y2="0%" id="a"><stop stop-color="#2E27AD" offset="0%"/><stop stop-color="#527FFF" offset="100%"/></linearGradient></defs><g fill="none" fill-rule="evenodd"><path d="M0 0h64v64H0z" fill="url(#a)"/><path d="M28 12.981c7.44 0 13 2.354 13 4.459 0 2.104-5.56 4.458-13 4.458s-13-2.354-13-4.458c0-2.105 5.56-4.459 13-4.459Zm-.279 39.038C20.44 52.019 15 49.745 15 47.712v-6c2.71 1.962 7.769 2.996 12.621 2.996 1.339 0 2.687-.073 4.005-.219l-.221-1.97a34.566 34.566 0 0 1-3.784.208C20.397 42.727 15 40.453 15 38.42v-7.116c2.71 1.962 7.769 2.997 12.621 2.997 1.367 0 2.716-.076 4.01-.224l-.231-1.968c-1.217.139-2.489.21-3.779.21C20.397 32.32 15 30.046 15 28.012v-7.238c2.768 2.033 7.991 3.105 13 3.105s10.232-1.072 13-3.105v2.115h2v-5.45C43 13.258 35.271 11 28 11s-15 2.257-15 6.44v30.272C13 51.797 20.584 54 27.721 54c5.534 0 10.512-1.231 12.991-3.216l-1.256-1.54c-2.108 1.686-6.714 2.775-11.735 2.775Zm21.118-14.12a.983.983 0 0 1-.737.932c-.056.02-.803.302-.803 1.743.024 1.216-.642 2.1-1.62 2.129H45V40.72h.29c.006-.051.01-.1.009-.127 0-1.31.402-2.166.871-2.722-.469-.553-.871-1.405-.871-2.705 0-.06.006-.121.016-.182.011-.061.017-.137.018-.208H45v-1.981h.649c.499 0 .942.2 1.246.561.521.623.461 1.505.405 1.887.025 1.373.748 1.646.831 1.673.424.137.723.541.708.982Zm-6.693-5.103H43v1.981h-.467c-.006.052-.01.101-.009.129 0 1.308-.402 2.165-.871 2.72.469.553.871 1.405.871 2.705 0 .062-.005.122-.016.182a1.344 1.344 0 0 0-.018.208H43v1.982h-.825c-.499 0-.942-.2-1.246-.563-.522-.621-.462-1.504-.406-1.885-.025-1.373-.747-1.647-.83-1.673a1.016 1.016 0 0 1-.708-.982.983.983 0 0 1 .738-.933c.055-.02.801-.302.801-1.742-.023-1.217.643-2.1 1.622-2.13ZM38 44.684V26.851h7v3.963c0 .547.447.991 1 .991h4v12.88H38Zm12-15.139v.279h-3V26.85h.375L50 29.545Zm1.72-1.088-3.2-3.284a1.005 1.005 0 0 0-.72-.303H37c-.553 0-1 .444-1 .99v19.815c0 .547.447.99 1 .99h14c.553 0 1-.443 1-.99v-16.53a.988.988 0 0 0-.28-.688Z" fill="#FFF"/></g></svg>