<svg width="40" height="40" xmlns="http://www.w3.org/2000/svg"><defs><linearGradient x1="0%" y1="100%" x2="100%" y2="0%" id="a"><stop stop-color="#055F4E" offset="0%"/><stop stop-color="#56C0A7" offset="100%"/></linearGradient></defs><g fill="none" fill-rule="evenodd"><path d="M0 0h40v40H0z" fill="url(#a)"/><path d="m15.259 16.785 4-4a.5.5 0 0 1 .707 0l4 4-.707.707-3.646-3.646-3.647 3.646-.707-.707Zm4.707 2 4 4-.707.707-3.646-3.646-3.647 3.646-.707-.707 4-4a.5.5 0 0 1 .707 0Zm4 1-.707.707-3.646-3.646-3.647 3.646-.707-.707 4-4a.5.5 0 0 1 .707 0l4 4Zm2.762 8.025a1.26 1.26 0 1 1-1.782-1.782 1.26 1.26 0 0 1 1.782 1.782Zm-6.224 4.022a1.263 1.263 0 0 1-1.783 0 1.253 1.253 0 0 1-.369-.891 1.256 1.256 0 0 1 1.261-1.26c.323 0 .645.123.891.369.238.237.369.554.369.891 0 .336-.131.653-.369.891Zm-8.072-4.019a1.262 1.262 0 0 1 .891-2.151 1.262 1.262 0 0 1 .891 2.151 1.26 1.26 0 0 1-1.782 0Zm11.806-2.492a2.258 2.258 0 0 0-.332 2.76l-2.566 1.418c-.044-.051-.08-.108-.129-.156a2.262 2.262 0 0 0-3.197 0c-.039.039-.068.085-.105.127l-2.573-1.543a2.257 2.257 0 0 0-.415-2.603 2.264 2.264 0 0 0-3.196 0 2.263 2.263 0 0 0 0 3.196 2.25 2.25 0 0 0 1.597.661c.486 0 .967-.165 1.371-.475l2.746 1.647a2.26 2.26 0 0 0-.087.588c0 .603.235 1.171.662 1.598a2.25 2.25 0 0 0 1.599.661 2.25 2.25 0 0 0 1.598-.661c.427-.427.662-.995.662-1.598 0-.19-.031-.373-.076-.552l2.831-1.564a2.255 2.255 0 0 0 2.807-.308 2.26 2.26 0 0 0-3.197-3.196Zm5.434-1.665a1.262 1.262 0 0 1-1.261-1.26c0-.695.566-1.261 1.261-1.261.694 0 1.26.566 1.26 1.261s-.566 1.26-1.26 1.26Zm-.968-9.81c0-.696.566-1.261 1.26-1.261.695 0 1.261.565 1.261 1.261 0 .694-.566 1.26-1.261 1.26-.694 0-1.26-.566-1.26-1.26Zm-5.897-3.249a1.263 1.263 0 0 1-1.261-1.261c0-.695.566-1.26 1.261-1.26.694 0 1.26.565 1.26 1.26 0 .695-.566 1.261-1.26 1.261Zm7.806 9.75V16a2.258 2.258 0 0 0 1.612-2.154 2.264 2.264 0 0 0-2.261-2.261c-.582 0-1.107.227-1.508.589l-3.509-2.149c.072-.218.12-.447.12-.689a2.263 2.263 0 0 0-2.26-2.26 2.264 2.264 0 0 0-2.261 2.26 2.264 2.264 0 0 0 2.261 2.261c.644 0 1.223-.275 1.636-.709l3.431 2.102a2.28 2.28 0 0 0-.17.856c0 1.125.83 2.054 1.909 2.224v4.071a2.262 2.262 0 0 0-2.202 2.255 2.264 2.264 0 0 0 2.261 2.26 2.263 2.263 0 0 0 2.26-2.26c0-.91-.543-1.691-1.319-2.049Zm-21.06 3.309c-.694 0-1.26-.565-1.26-1.26 0-.695.566-1.261 1.26-1.261.695 0 1.261.566 1.261 1.261s-.566 1.26-1.261 1.26ZM8 13.846c0-.696.566-1.261 1.261-1.261.694 0 1.26.565 1.26 1.261 0 .694-.566 1.26-1.26 1.26A1.263 1.263 0 0 1 8 13.846ZM16.397 8c.695 0 1.26.566 1.26 1.261 0 .694-.565 1.26-1.26 1.26-.695 0-1.26-.566-1.26-1.26 0-.695.565-1.261 1.26-1.261Zm-4.583 14.396a2.262 2.262 0 0 0-2.201-2.255V16.07a2.257 2.257 0 0 0 1.908-2.224c0-.303-.063-.592-.17-.856l3.455-2.126c.409.405.971.657 1.591.657a2.263 2.263 0 0 0 2.26-2.26A2.263 2.263 0 0 0 16.397 7a2.263 2.263 0 0 0-2.26 2.261c0 .266.055.518.14.755l-3.508 2.158a2.243 2.243 0 0 0-1.508-.589A2.264 2.264 0 0 0 7 13.846c0 1.019.684 1.873 1.613 2.154v4.347a2.258 2.258 0 0 0-1.32 2.049 2.263 2.263 0 0 0 2.26 2.26 2.264 2.264 0 0 0 2.261-2.26Z" fill="#FFF"/></g></svg>