<svg width="40" height="40" xmlns="http://www.w3.org/2000/svg"><defs><linearGradient x1="0%" y1="100%" x2="100%" y2="0%" id="a"><stop stop-color="#055F4E" offset="0%"/><stop stop-color="#56C0A7" offset="100%"/></linearGradient></defs><g fill="none" fill-rule="evenodd"><path d="M0 0h40v40H0z" fill="url(#a)"/><path d="M18.917 24.546c-.238.793-.132 1.462.09 1.69l-.735.681c-.52-.536-.649-1.576-.326-2.65.392-1.301 1.281-2.176 2.173-2.086l-.11.984c-.226-.028-.801.414-1.092 1.38Zm-10 .11c-.253.783-.141 1.445.093 1.67l-.712.704c-.56-.541-.696-1.59-.347-2.67.414-1.296 1.368-2.162 2.275-2.078l-.105.985c-.291-.027-.902.446-1.204 1.389Zm6.516-3.8-.881-.487c2.924-5.05 7.698-3.048 7.748-3.027l-.409.904c-.162-.069-3.992-1.644-6.458 2.61Zm17.254 6.022c-.349.696-1.174 1.053-2.452 1.06-.102.002-.203 0-.297.002l.052-.114c.332-.081.617-.223.836-.441.333-.331.503-.804.492-1.385l-.013-.242a.501.501 0 0 0 .202-.227l.528-1.257.31-.842c.701 1.144.851 2.427.342 3.446Zm.034-4.643c.14-.52.257-1.048.328-1.586l.438-3.8c.163-1.243-.146-2.416-.87-3.302-.753-.924-1.855-1.47-2.945-1.49a.488.488 0 0 0-.113-.014l-1.412-.023a.5.5 0 0 0-.406-.471c-2.687-.53-4.893-.638-6.722-.486v-.01H10.708v.99h6.185c-1.352.598-2.29 1.369-2.936 2.101v-.08H7.65v.989h5.635l-.81 1.416c-.54.632-1.308.935-2.36.91-1.724.104-2.979.975-3.632 2.536-.078.211-.25.69-.302.989a.53.53 0 0 0-.02.068 7.09 7.09 0 0 0-.133 1.867.492.492 0 0 0 .455.45c-.024.067-.045.135-.068.202-.134.421-.238.85-.306 1.303 0 0-.075.789-.077.789v-.002c-.207 2.175.672 2.984 1.448 3.28.25.097.504.139.753.139.833 0 1.621-.477 2.149-1.015.042-.043.079-.097.12-.141h4.205v-.99h-3.462c.335-.543.621-1.15.83-1.8.554-1.727.51-3.457-.115-4.516l-.875.495c.479.813.489 2.275.023 3.725-.324 1.014-.842 1.916-1.455 2.541-.439.446-1.169.882-1.805.64-.655-.25-.927-1.013-.807-2.268l.072-.755c.058-.376.148-.755.268-1.129.203-.631.49-1.238.83-1.755a.487.487 0 0 0-.09-.636.514.514 0 0 0-.658-.014 46.76 46.76 0 0 0-.393.319c.016-.15.04-.31.072-.474a.582.582 0 0 0 .036-.15c.01-.098.13-.482.249-.805.497-1.183 1.423-1.825 2.705-1.905 1.613.034 2.602-.66 3.172-1.336l.948-1.641c1.128-1.663 4.054-4.144 11.273-3.204-.739.537-1.075 1.273-1.084 1.673a.496.496 0 0 0 .337.478.513.513 0 0 0 .57-.163c1.004-1.265 2.33-1.179 2.42-1.172l1.714.03c.03.006.06.009.09.01a3.004 3.004 0 0 1 2.256 1.122c.55.675.783 1.585.654 2.568l-.437 3.799c-.109.82-.307 1.628-.593 2.402l-.752 1.915h-.434a1.03 1.03 0 0 0-1.035-1.092h-2.412a1.95 1.95 0 0 0-1.705.987.54.54 0 0 0-.042.103l-1.322-.001c-.038-.15-.08-.327-.126-.524-.102-.43-.224-.945-.38-1.484l-.974.27c.15.521.268 1.022.367 1.439.1.416.182.755.254.958a.511.511 0 0 0 .605.33l1.963.001c.228 0 .429-.15.488-.365l.082-.297a.937.937 0 0 1 .79-.427l2.434.036a.499.499 0 0 0-.046.113l-.086.322a.486.486 0 0 0 .09.427c.096.121.242.192.4.192l.686.001.01.195c.006.3-.062.52-.202.659-.15.148-.398.224-.742.224h-6.514c-.323 0-.606-.103-.757-.275-.112-.125-.152-.288-.122-.485.277-1.814.29-3.298.04-4.408a.512.512 0 0 0-.588-.379.496.496 0 0 0-.408.562c.13.826.037 1.834-.264 2.836-.307 1.018-.71 1.809-1.196 2.348-.456.505-1.2.946-1.653.818-.815-.234-1.242-1.959-.583-4.152.32-1.06.826-1.987 1.43-2.613.512-.53 1.028-.77 1.419-.657a.724.724 0 0 1 .184.082l.546-.832a1.757 1.757 0 0 0-.444-.2c-.78-.223-1.646.105-2.442.928-.71.738-1.301 1.807-1.664 3.012-.792 2.632-.246 4.946 1.268 5.381.153.045.308.065.46.065.914 0 1.808-.7 2.239-1.177.258-.287.495-.625.708-1.014.063.195.163.375.302.533.347.392.902.617 1.525.617h6l-.146.322a.482.482 0 0 0 .035.465c.092.14.248.226.417.23 0 0 .38.008.854.008l.233-.001c2.111-.013 2.99-.886 3.355-1.617.77-1.54.417-3.506-.875-5.077Zm-5.182-2.09a1.006 1.006 0 0 1-.26-.812l.141-1.097a.824.824 0 0 0 1.553-.366.818.818 0 0 0-.827-.808.822.822 0 0 0-.607.273l.153-1.181c.066-.504.49-.88 1.011-.891l.025-.001c.296 0 .577.122.775.336.204.222.299.518.26.813v.001l-.414 3.18c-.067.503-.491.878-1.036.891-.295 0-.577-.123-.774-.337Zm.824 1.327c1.024-.025 1.861-.762 1.99-1.756l.415-3.18a1.973 1.973 0 0 0-.514-1.6 2.08 2.08 0 0 0-1.575-.663c-1.024.024-1.861.762-1.991 1.756l-.414 3.178c-.077.582.11 1.166.512 1.602.389.422.945.663 1.575.663h.002Z" fill="#FFF"/></g></svg>