<svg width="40" height="40" xmlns="http://www.w3.org/2000/svg"><defs><linearGradient x1="0%" y1="100%" x2="100%" y2="0%" id="a"><stop stop-color="#C8511B" offset="0%"/><stop stop-color="#F90" offset="100%"/></linearGradient></defs><g fill="none" fill-rule="evenodd"><path d="M0 0h40v40H0z" fill="url(#a)"/><path d="M24.296 31h4.001v-4h-4v4Zm5.001-4.5v5a.5.5 0 0 1-.5.5h-5a.5.5 0 0 1-.5-.5v-5a.5.5 0 0 1 .5-.5h5a.5.5 0 0 1 .5.5Zm2.5-3.5h-5a.5.5 0 0 0-.5.5v1a.5.5 0 1 0 1 0V24h4v4h-.5a.5.5 0 1 0 0 1h1a.5.5 0 0 0 .5-.5v-5a.5.5 0 0 0-.5-.5Zm-19.5-10h4V9h-4v4Zm-1 .5v-5a.5.5 0 0 1 .5-.5h5a.5.5 0 0 1 .5.5v5a.5.5 0 0 1-.5.5h-5a.5.5 0 0 1-.5-.5Zm-3.5 3.5h5a.5.5 0 0 0 .5-.5v-1a.5.5 0 0 0-1 0v.5h-4v-4h.5a.5.5 0 0 0 0-1h-1a.5.5 0 0 0-.5.5v5a.5.5 0 0 0 .5.5Zm25.576 4.982a.5.5 0 0 1-.963-.272c.39-1.369.138-2.871-.655-3.92-.742-.981-1.876-1.499-3.28-1.499-3.623 0-5.606 2.02-7.566 4.291 1.23 1.404 2.525 2.782 4.143 3.558a.5.5 0 0 1-.434.902c-1.75-.841-3.1-2.251-4.369-3.695-1.917 2.238-3.945 4.471-7.455 4.471-1.953 0-3.62-.793-4.697-2.234-1.026-1.375-1.358-3.141-.888-4.724a.5.5 0 1 1 .96.284c-.376 1.264-.096 2.736.73 3.842.882 1.181 2.265 1.832 3.895 1.832 3.114 0 4.915-2.039 6.792-4.232-1.416-1.63-2.77-3.151-4.554-3.869a.499.499 0 1 1 .373-.927c1.957.787 3.432 2.412 4.84 4.029 2.014-2.323 4.232-4.528 8.23-4.528 1.704 0 3.153.673 4.078 1.896.977 1.293 1.291 3.131.82 4.795Z" fill="#FFF"/></g></svg>