<svg width="40" height="40" xmlns="http://www.w3.org/2000/svg"><defs><linearGradient x1="0%" y1="100%" x2="100%" y2="0%" id="a"><stop stop-color="#C8511B" offset="0%"/><stop stop-color="#F90" offset="100%"/></linearGradient></defs><g fill="none" fill-rule="evenodd"><path d="M0 0h40v40H0z" fill="url(#a)"/><path d="M30.535 19.038c-2.371 1.48-5.676 2.984-9.305 4.235-2.506.864-5.07 1.563-7.371 2.003 1.902 5.019 5.5 8.287 8.998 7.695 3.216-.543 5.605-4.37 5.943-9.52l.998.066c-.375 5.71-3.034 9.809-6.775 10.44a5.702 5.702 0 0 1-.964.08c-3.681 0-7.296-3.476-9.196-8.585-1.258.203-2.422.324-3.41.324-1.82 0-3.076-.38-3.382-1.266-.364-1.056.677-2.382 3.094-3.942l.543.84c-2.356 1.52-2.8 2.46-2.692 2.776.218.63 2.263.816 5.522.307a21.906 21.906 0 0 1-.726-2.977c-.622-3.683-.31-7.303.876-10.194 1.219-2.971 3.219-4.832 5.63-5.24 2.9-.487 6.004 1.28 8.283 4.736l-.834.55c-2.056-3.115-4.78-4.725-7.283-4.3-2.057.348-3.788 1.993-4.871 4.634-1.116 2.72-1.405 6.147-.814 9.647.174 1.038.426 2.029.73 2.974 2.088-.388 4.582-1.031 7.375-1.993 3.56-1.227 6.792-2.697 9.102-4.138 2.597-1.622 3.095-2.623 2.979-2.96-.1-.29-.937-.735-3.436-.56l-.071-.996c2.606-.186 4.107.229 4.453 1.23.378 1.1-.764 2.49-3.396 4.134" fill="#FFF"/></g></svg>