<svg width="40" height="40" xmlns="http://www.w3.org/2000/svg"><defs><linearGradient x1="0%" y1="100%" x2="100%" y2="0%" id="a"><stop stop-color="#2E27AD" offset="0%"/><stop stop-color="#527FFF" offset="100%"/></linearGradient></defs><g fill="none" fill-rule="evenodd"><path d="M0 0h40v40H0z" fill="url(#a)"/><path d="M24 30.001h6v-1h-6v1Zm-5.146-.146 4-4a.502.502 0 0 0 0-.708l-4-4-.707.708 3.646 3.646-3.646 3.646.707.708ZM14 33.001h19v-15H14v15Zm20-15.5v16a.5.5 0 0 1-.5.5h-20a.5.5 0 0 1-.5-.5v-16a.5.5 0 0 1 .5-.5h20a.5.5 0 0 1 .5.5Zm-21.822-9.45c-1.298.551-2.315 2.141-2.315 3.62l.032.523a.502.502 0 0 1-.374.514c-.755.193-2.021.791-2.021 2.61 0 1.372.742 2.13 1.364 2.522.076.042.402.122.679.167L11 18.001v1H9.463c-.308-.043-.865-.147-1.132-.315-.684-.432-1.831-1.444-1.831-3.368 0-1.653.879-2.919 2.373-3.457l-.009-.16c-.001-1.91 1.256-3.863 2.923-4.57 1.949-.829 4.019-.418 5.527 1.1.419.422.771.924 1.05 1.5a2.345 2.345 0 0 1 2.06-.297c.958.314 1.565 1.172 1.671 2.33.655.173 1.664.583 2.304 1.532.389.577.586 1.266.586 2.05h-1c0-.58-.139-1.083-.415-1.49-.581-.86-1.627-1.123-2.049-1.196a.5.5 0 0 1-.409-.574c-.001-.856-.365-1.494-1-1.702a1.365 1.365 0 0 0-1.528.505.5.5 0 0 1-.874-.13c-.258-.732-.63-1.345-1.104-1.822-.583-.585-2.178-1.842-4.428-.887Z" fill="#FFF"/></g></svg>