<svg width="48" height="48" xmlns="http://www.w3.org/2000/svg"><defs><linearGradient x1="0%" y1="100%" x2="100%" y2="0%" id="a"><stop stop-color="#1B660F" offset="0%"/><stop stop-color="#6CAE3E" offset="100%"/></linearGradient></defs><g fill="none" fill-rule="evenodd"><path fill="url(#a)" d="M4 4h40v40H4z"/><path stroke="#879196" stroke-width="2" d="M1 1h46v46H1z"/><path d="M21 35h3v-1h-3v1Zm-5 0h3v-1h-3v1Zm5-3h3v-1h-3v1Zm-5 0h3v-1h-3v1Zm5-4h3v-1h-3v1Zm-5 0h3v-1h-3v1Zm12 6h3v-6h-3v6Zm3.5-7h-4a.5.5 0 0 0-.5.5v7a.5.5 0 0 0 .5.5h4a.5.5 0 0 0 .5-.5v-7a.5.5 0 0 0-.5-.5ZM17 24h14v-3H17v3Zm-.5-4a.5.5 0 0 0-.5.5v4a.5.5 0 0 0 .5.5h15a.5.5 0 0 0 .5-.5v-4a.5.5 0 0 0-.5-.5h-15ZM35 37H13V18h6v.5a.5.5 0 0 0 .5.5h8a.5.5 0 0 0 .5-.488l.013-.512H35v19ZM19.587 11H25.5c1.208 0 1.639.976 1.639 1.877L27.013 18H20v-5.5c0-.633-.158-1.125-.413-1.5ZM16 14v-1.5c0-1.036.753-1.5 1.5-1.5.561 0 1.5.195 1.5 1.5V14h-3Zm19.5 3h-7.463l.102-4.11c0-1.729-1.061-2.89-2.639-2.89H18v.042c-1.44-.244-3 .601-3 2.458v2a.5.5 0 0 0 .5.5H19v2h-6.5a.5.5 0 0 0-.5.5v20a.5.5 0 0 0 .5.5h23a.5.5 0 0 0 .5-.5v-20a.5.5 0 0 0-.5-.5Z" fill="#FFF"/></g></svg>