<svg width="40" height="40" xmlns="http://www.w3.org/2000/svg"><defs><linearGradient x1="0%" y1="100%" x2="100%" y2="0%" id="a"><stop stop-color="#C8511B" offset="0%"/><stop stop-color="#F90" offset="100%"/></linearGradient></defs><g fill="none" fill-rule="evenodd"><path d="M0 0h40v40H0z" fill="url(#a)"/><path d="M14 26.232 11.5 27.9 9 26.232v-2.465l2.5-1.666 2.5 1.666v2.465Zm-2.223-5.148a.495.495 0 0 0-.554 0l-3 2A.5.5 0 0 0 8 23.5v3c0 .167.084.323.223.416l3 2a.498.498 0 0 0 .554 0l3-2A.501.501 0 0 0 15 26.5v-3a.5.5 0 0 0-.223-.416l-3-2ZM31 26.232 28.5 27.9 26 26.232v-2.465l2.5-1.666 2.5 1.666v2.465Zm-2.223-5.148a.495.495 0 0 0-.554 0l-3 2A.5.5 0 0 0 25 23.5v3c0 .167.084.323.223.416l3 2a.498.498 0 0 0 .554 0l3-2A.501.501 0 0 0 32 26.5v-3a.5.5 0 0 0-.223-.416l-3-2Zm-3.361 9.138a.5.5 0 0 1-.14.694l-4.494 2.996a.5.5 0 0 1-.277.088H20.495a.5.5 0 0 1-.277-.088l-4.495-2.996a.5.5 0 0 1 .554-.832L20 32.565V28a.5.5 0 1 1 1 0v4.565l3.723-2.48a.5.5 0 0 1 .693.137ZM8 18.5v-4.504a.488.488 0 0 1 .058-.242v-.001l.01-.018s.003.006 0-.001l.001-.001a.5.5 0 0 1 .197-.188l4.492-2.482a.5.5 0 1 1 .484.875l-3.713 2.05 3.715 2.075a.5.5 0 0 1-.488.873L9 14.84V18.5a.5.5 0 0 1-1 0Zm24-4.514V18.5a.5.5 0 0 1-1 0v-3.67l-3.756 2.106a.5.5 0 1 1-.488-.872l3.715-2.083-3.712-2.042a.501.501 0 0 1 .482-.876l4.493 2.472a.495.495 0 0 1 .193.182c.007.01.012.02.017.03a.496.496 0 0 1 .056.239ZM18 9.768l2.5-1.666L23 9.768v2.465L20.5 13.9 18 12.233V9.768Zm2.223 5.149a.498.498 0 0 0 .554 0l3-2A.501.501 0 0 0 24 12.5v-3a.5.5 0 0 0-.223-.416l-3-2a.495.495 0 0 0-.554 0l-3 2A.5.5 0 0 0 17 9.5v3c0 .167.084.323.223.416l3 2ZM18 17.335l5.91 3.165L18 23.665v-6.33ZM17.5 25c.081 0 .162-.02.236-.06l7.47-4a.5.5 0 0 0 0-.88l-7.47-4a.503.503 0 0 0-.493.01.504.504 0 0 0-.243.43v8a.504.504 0 0 0 .5.5Z" fill="#FFF"/></g></svg>