<svg width="40" height="40" xmlns="http://www.w3.org/2000/svg"><defs><linearGradient x1="0%" y1="100%" x2="100%" y2="0%" id="a"><stop stop-color="#B0084D" offset="0%"/><stop stop-color="#FF4F8B" offset="100%"/></linearGradient></defs><g fill="none" fill-rule="evenodd"><path d="M0 0h40v40H0z" fill="url(#a)"/><path d="M22.286 13.144a7.957 7.957 0 0 0-3.106 1.134l-.53-.848a8.957 8.957 0 0 1 3.493-1.276l.143.99Zm-3.96 1.75a8.017 8.017 0 0 0-2.903 5.83l-1-.042a9.023 9.023 0 0 1 3.266-6.558l.637.77Zm.777 4.266a4.105 4.105 0 0 0-.251 2.105l-.99.142a5.102 5.102 0 0 1 .314-2.62l.927.373Zm-.454-1.279a5.096 5.096 0 0 1 3.529-2.24l.142.99a4.095 4.095 0 0 0-2.835 1.8l-.836-.55Zm15.334 1.814-.998-.047c.004-.092.001-.526 0-.79l-.001-.194c0-3.247-2.771-4.062-3.963-4.263a.499.499 0 0 1-.405-.599c-.001-1.384-.618-2.417-1.693-2.78a2.47 2.47 0 0 0-2.717.838.501.501 0 0 1-.868-.13c-.414-1.13-1.012-2.08-1.774-2.818-1.957-1.904-4.631-2.42-7.159-1.38-2.1.858-3.745 3.333-3.745 5.634l.05.798a.5.5 0 0 1-.379.516C9.087 14.788 7 15.733 7 18.62c0 2.156 1.216 3.355 2.236 3.98.41.253.716.352 1.093.352h8.649v1h-8.649c-.566 0-1.05-.15-1.617-.5C7.7 22.832 6 21.377 6 18.62c0-3.339 2.328-4.566 3.687-4.997l-.026-.426c-.001-2.754 1.876-5.574 4.364-6.59 2.908-1.196 5.985-.603 8.236 1.587a8.15 8.15 0 0 1 1.719 2.471 3.436 3.436 0 0 1 3.262-.59c1.389.467 2.255 1.734 2.361 3.423 1.419.33 4.381 1.463 4.381 5.166l.001.19c.001.28.003.743-.002.841ZM27.397 32.02h1a1.914 1.914 0 0 1-1.912 1.912 1.915 1.915 0 0 1-1.912-1.912h1c0 .502.409.912.912.912.503 0 .912-.41.912-.912Zm4.581-1.083h-11a1.001 1.001 0 0 1 0-2h11a1.001 1.001 0 0 1 0 2ZM25.062 19.12a.5.5 0 0 0 .374-.484v-1.34c0-.296.151-.558.384-.669.314-.15.645-.142.907.025a.772.772 0 0 1 .371.654v1.201a.5.5 0 0 0 .393.488c2.038.448 3.407 2.194 3.407 4.344v4.597h-8.979V23.26c0-1.986 1.263-3.65 3.143-4.14Zm6.916 8.816h-.08V23.34c0-2.49-1.51-4.54-3.8-5.219v-.814a1.77 1.77 0 0 0-.836-1.5c-.55-.347-1.249-.378-1.872-.082-.58.275-.954.893-.954 1.571v.97c-2.119.72-3.517 2.68-3.517 4.995v4.682a2 2 0 0 0-1.941 1.994c0 1.104.898 2 2 2h11c1.103 0 2-.896 2-2 0-1.103-.897-2-2-2Z" fill="#FFF"/></g></svg>