<svg width="40" height="40" xmlns="http://www.w3.org/2000/svg"><defs><linearGradient x1="0%" y1="100%" x2="100%" y2="0%" id="a"><stop stop-color="#1B660F" offset="0%"/><stop stop-color="#6CAE3E" offset="100%"/></linearGradient></defs><g fill="none" fill-rule="evenodd"><path d="M0 0h40v40H0z" fill="url(#a)"/><path d="M33 25h-6v.5a.5.5 0 0 0 .5.5h5a.5.5 0 0 0 .5-.5V25Zm-5-1h4v-3h-4v3Zm6 .5v1c0 .827-.673 1.5-1.5 1.5h-5c-.827 0-1.5-.673-1.5-1.5v-1a.5.5 0 0 1 .5-.5h.5v-3.5a.5.5 0 0 1 .5-.5h5a.5.5 0 0 1 .5.5V24h.5a.5.5 0 0 1 .5.5Zm-16.586-4.727-1.664-.661c-.55-.215-.973-.417-1.268-.605-.294-.188-.507-.398-.637-.629-.13-.231-.195-.534-.195-.911 0-.666.213-1.18.638-1.54.425-.36 1.036-.54 1.835-.54.818 0 1.757.194 2.814.58v-.822A7.199 7.199 0 0 0 16.076 14c-1.006 0-1.816.277-2.433.831-.618.553-.925 1.276-.925 2.168 0 .656.186 1.207.559 1.653.373.447.959.83 1.757 1.153l1.804.726c.622.247 1.073.527 1.353.838.28.312.42.688.42 1.129 0 .72-.257 1.29-.77 1.709-.513.419-1.199.629-2.06.629-.913 0-1.913-.204-3.002-.612v.822c.903.451 1.929.677 3.079.677 1.11 0 2.003-.295 2.683-.887.679-.591 1.019-1.365 1.019-2.322 0-.656-.171-1.201-.514-1.637-.342-.435-.886-.803-1.632-1.104Zm2.663 5.736h1.252l2.088-3.163-.563-.826-2.777 3.989ZM6 25.449h.917v-5.192h4.339v-.855H6.917v-4.273h5.132v-.855H6v11.175Zm17.496-6.382-1.838-2.721h-1.304l2.484 3.63.658-.909ZM26.21 23H25l-1.611-2.249 2.994-4.405h1.234l-2.988 4.321L26.21 23Z" fill="#FFF"/></g></svg>