<svg width="40" height="40" xmlns="http://www.w3.org/2000/svg"><defs><linearGradient x1="0%" y1="100%" x2="100%" y2="0%" id="a"><stop stop-color="#1B660F" offset="0%"/><stop stop-color="#6CAE3E" offset="100%"/></linearGradient></defs><g fill="none" fill-rule="evenodd"><path d="M0 0h40v40H0z" fill="url(#a)"/><path d="M18 10h4V9h-4v1Zm-4 11h7v1h-7.5a.5.5 0 0 1-.5-.5v-6a.5.5 0 0 1 .5-.5h14a.5.5 0 0 1 .5.5V19h-1v-3H14v5Zm20-10.923V21h-1V10.077C33 8.932 32.119 8 31.036 8H8.964C7.881 8 7 8.932 7 10.077v15.847C7 27.069 7.881 28 8.964 28h11.023v1H8.964C7.33 29 6 27.62 6 25.924V10.077C6 8.381 7.33 7 8.964 7h22.072C32.67 7 34 8.381 34 10.077ZM10.64 25H20v1h-9.36C9.735 26 9 25.27 9 24.373V11.628C9 10.73 9.735 10 10.64 10h4.86a.5.5 0 0 1 .447.277L16.809 12h6.382l.862-1.723A.5.5 0 0 1 24.5 10h4.86c.905 0 1.64.73 1.64 1.628V20h-1v-8.372a.635.635 0 0 0-.64-.628h-4.551l-.862 1.724A.499.499 0 0 1 23.5 13h-7a.499.499 0 0 1-.447-.276L15.191 11H10.64a.635.635 0 0 0-.64.628v12.745c0 .346.287.627.64.627Zm16.86 3.291a1.778 1.778 0 0 1-1.776-1.776c0-.979.797-1.776 1.776-1.776s1.776.797 1.776 1.776-.797 1.776-1.776 1.776Zm0-4.552a2.779 2.779 0 0 0-2.776 2.776 2.779 2.779 0 0 0 2.776 2.776 2.779 2.779 0 0 0 2.776-2.776 2.779 2.779 0 0 0-2.776-2.776Zm5.19 3.378-.416-.024a.504.504 0 0 0-.515.389c-.11.483-.299.94-.564 1.361a.5.5 0 0 0 .09.639l.311.277-.852.851-.275-.309a.5.5 0 0 0-.641-.089 4.317 4.317 0 0 1-1.361.564.5.5 0 0 0-.389.516l.024.413h-1.204l.024-.414a.502.502 0 0 0-.389-.516 4.33 4.33 0 0 1-1.361-.565.505.505 0 0 0-.64.09l-.276.31-.852-.85.311-.277a.5.5 0 0 0 .09-.64 4.328 4.328 0 0 1-.564-1.361.499.499 0 0 0-.516-.389l-.415.023v-1.203l.417.024a.49.49 0 0 0 .515-.388c.111-.484.3-.941.566-1.359a.502.502 0 0 0-.09-.641l-.314-.279.852-.851.278.313c.162.181.433.22.64.09.42-.265.877-.454 1.359-.563a.5.5 0 0 0 .389-.516l-.024-.418h1.204l-.024.419a.5.5 0 0 0 .389.516c.483.109.94.299 1.357.563a.5.5 0 0 0 .641-.09l.279-.314.852.851-.313.278a.501.501 0 0 0-.09.64c.266.421.455.878.565 1.36a.494.494 0 0 0 .515.389l.417-.024v1.204Zm.472-2.232-.54.031a5.338 5.338 0 0 0-.369-.892l.403-.36a.497.497 0 0 0 .021-.727l-1.6-1.599a.499.499 0 0 0-.726.021l-.362.405a5.307 5.307 0 0 0-.889-.369l.03-.542a.498.498 0 0 0-.499-.528h-2.262a.498.498 0 0 0-.499.528l.03.541a5.353 5.353 0 0 0-.89.369l-.361-.404a.497.497 0 0 0-.358-.167.562.562 0 0 0-.368.146l-1.6 1.599a.503.503 0 0 0 .021.727l.404.361c-.15.285-.273.582-.37.891l-.54-.031a.561.561 0 0 0-.372.135.5.5 0 0 0-.156.364v2.262a.498.498 0 0 0 .528.499l.538-.031c.096.308.219.607.37.894l-.402.358a.497.497 0 0 0-.021.726l1.6 1.6a.55.55 0 0 0 .368.146.497.497 0 0 0 .358-.167l.359-.401c.286.15.585.274.892.37l-.03.537a.5.5 0 0 0 .499.528h2.262a.5.5 0 0 0 .499-.528l-.03-.536c.308-.096.607-.22.893-.371l.358.401a.497.497 0 0 0 .726.021l1.6-1.6a.5.5 0 0 0-.021-.726l-.402-.359c.15-.286.273-.585.369-.893l.539.031a.5.5 0 0 0 .528-.499v-2.262a.5.5 0 0 0-.156-.364.53.53 0 0 0-.372-.135Z" fill="#FFF"/></g></svg>