<svg width="40" height="40" xmlns="http://www.w3.org/2000/svg"><defs><linearGradient x1="0%" y1="100%" x2="100%" y2="0%" id="a"><stop stop-color="#BD0816" offset="0%"/><stop stop-color="#FF5252" offset="100%"/></linearGradient></defs><g fill="none" fill-rule="evenodd"><path d="M0 0h40v40H0z" fill="url(#a)"/><path d="M25 21.814c-.001.19-.074 4.475-4 4.818V14.594l4 1.734v5.486Zm-9-.015v-5.471l4-1.734v12.038c-3.927-.344-3.999-4.643-4-4.833Zm9.699-6.258-5-2.167a.5.5 0 0 0-.398 0l-5 2.167A.499.499 0 0 0 15 16v5.799c0 .059.062 5.867 5.5 5.867 5.437 0 5.5-5.792 5.5-5.851V16c0-.2-.118-.38-.301-.459ZM34 22.752l-1.794-.102a.479.479 0 0 0-.516.389 11.379 11.379 0 0 1-1.482 3.577.498.498 0 0 0 .09.64l1.342 1.197-3.188 3.185-1.191-1.336a.501.501 0 0 0-.64-.09 11.361 11.361 0 0 1-3.582 1.483.502.502 0 0 0-.389.517L22.753 34h-4.506l.103-1.789a.503.503 0 0 0-.389-.517 11.348 11.348 0 0 1-3.578-1.484.505.505 0 0 0-.641.089l-1.194 1.339-3.188-3.186 1.339-1.194a.497.497 0 0 0 .09-.639A11.351 11.351 0 0 1 9.31 23.04c-.054-.238-.245-.394-.517-.39L7 22.752v-4.506l1.797.103a.482.482 0 0 0 .515-.389 11.411 11.411 0 0 1 1.485-3.572.498.498 0 0 0-.09-.64L9.36 12.547l3.188-3.187 1.199 1.345c.162.181.434.22.64.09a11.405 11.405 0 0 1 3.574-1.479.5.5 0 0 0 .389-.516L18.247 7h4.506l-.103 1.802a.502.502 0 0 0 .389.516c1.268.287 2.47.784 3.571 1.48a.5.5 0 0 0 .64-.09l1.202-1.348 3.188 3.187-1.344 1.198a.499.499 0 0 0-.09.64 11.42 11.42 0 0 1 1.482 3.575.489.489 0 0 0 .516.389L34 18.246v4.506Zm.844-5.398a.516.516 0 0 0-.372-.136l-1.909.109a12.42 12.42 0 0 0-1.291-3.113L32.7 12.94a.497.497 0 0 0 .021-.726l-3.936-3.935a.497.497 0 0 0-.726.021l-1.278 1.431a12.348 12.348 0 0 0-3.109-1.288l.109-1.915A.501.501 0 0 0 23.282 6h-5.564a.5.5 0 0 0-.499.528l.109 1.913a12.376 12.376 0 0 0-3.111 1.288L12.941 8.3a.497.497 0 0 0-.358-.167.59.59 0 0 0-.368.146l-3.936 3.935a.5.5 0 0 0 .021.726l1.43 1.276a12.394 12.394 0 0 0-1.292 3.111l-1.91-.109a.544.544 0 0 0-.372.136.5.5 0 0 0-.156.363v5.565a.502.502 0 0 0 .528.499l1.906-.109a12.33 12.33 0 0 0 1.289 3.117L8.3 28.059a.497.497 0 0 0-.021.726l3.936 3.935a.497.497 0 0 0 .726-.021l1.27-1.423a12.35 12.35 0 0 0 3.116 1.293l-.108 1.902a.501.501 0 0 0 .499.529h5.564a.5.5 0 0 0 .499-.529l-.108-1.901a12.374 12.374 0 0 0 3.119-1.292l1.267 1.421a.497.497 0 0 0 .358.167.473.473 0 0 0 .368-.146l3.936-3.935a.5.5 0 0 0-.021-.726l-1.426-1.272a12.275 12.275 0 0 0 1.29-3.115l1.908.109a.502.502 0 0 0 .528-.499v-5.565a.5.5 0 0 0-.156-.363Z" fill="#FFF"/></g></svg>