<svg width="40" height="40" xmlns="http://www.w3.org/2000/svg"><defs><linearGradient x1="0%" y1="100%" x2="100%" y2="0%" id="a"><stop stop-color="#BD0816" offset="0%"/><stop stop-color="#FF5252" offset="100%"/></linearGradient></defs><g fill="none" fill-rule="evenodd"><path d="M0 0h40v40H0z" fill="url(#a)"/><path d="M13.466 13.288c.823.257 1.801.66 2.865 1.1 1.834.756 3.913 1.614 5.126 1.614 1.27 0 3.385-.868 5.251-1.634 1.04-.427 1.997-.82 2.806-1.074l-1.85-.96c-.945.338-4.768 1.668-6.207 1.668-1.372 0-5.18-1.307-6.202-1.667l-1.789.953Zm2.438-1.786c1.571.542 4.554 1.5 5.553 1.5 1.059 0 3.997-.952 5.547-1.494l-2.413-4.35c-.092-.145-.315-.196-.481-.096l-1.952 1.17c-.431.26-.97.26-1.402 0l-1.95-1.17c-.179-.105-.41-.056-.533.012l-2.369 4.428Zm10.443 4.094c-1.806.734-3.6 1.406-4.89 1.406-1.245 0-3.012-.67-4.796-1.398.629 2.537 3.017 6.398 4.812 6.398 1.866 0 4.259-3.843 4.874-6.406Zm-14.832-1.973a.5.5 0 0 1 .25-.563l3.037-1.617L17.445 6.5a.497.497 0 0 1 .111-.14c.397-.35 1.148-.524 1.764-.156l1.95 1.17a.366.366 0 0 0 .375 0l1.95-1.17a1.37 1.37 0 0 1 1.857.446l2.658 4.788 3.121 1.619a.501.501 0 0 1-.231.944c-.708 0-2.126.56-3.556 1.145-.415 2.817-3.254 7.855-5.971 7.855-2.692 0-5.505-5.034-5.916-7.852-1.433-.59-2.847-1.148-3.557-1.148a.5.5 0 0 1-.485-.38Zm17.597 10.474.242-.241a.504.504 0 0 0 0-.708l-2-2-.707.707 1.646 1.647-3.651 3.646a.5.5 0 0 0 0 .708l1.652 1.647-3.142 3.162.709.705 3.494-3.516a.5.5 0 0 0-.001-.706l-1.651-1.646 2.494-2.492c2.381.088 4.774 1.75 4.774 4.492v4h1v-4c0-2.733-2.061-4.937-4.859-5.405Zm-10.414 7.317-2.803-2.816c-.276.347-.59.659-.948.922l2.823 2.82c.244.244.65.234.906-.021.255-.255.265-.661.022-.905ZM12 29.502c2.206 0 4-1.795 4-4 0-2.206-1.794-4-4-4s-4 1.794-4 4c0 2.205 1.794 4 4 4Zm7.407 1.207c.63.633.62 1.672-.024 2.317a1.673 1.673 0 0 1-1.181.49 1.6 1.6 0 0 1-1.139-.468l-3.003-3.002a4.963 4.963 0 0 1-2.06.456c-2.757 0-5-2.243-5-5s2.243-5 5-5 5 2.243 5 5a4.94 4.94 0 0 1-.552 2.235l2.959 2.972Zm4.76-7.093-2.709 2.665-2.606-2.66-.715.702 2.957 3.015a.5.5 0 0 0 .352.15h.005a.501.501 0 0 0 .351-.143l3.066-3.016-.701-.713ZM29 33.502h1v-4h-1v4Z" fill="#FFF"/></g></svg>