<svg width="40" height="40" xmlns="http://www.w3.org/2000/svg"><defs><linearGradient x1="0%" y1="100%" x2="100%" y2="0%" id="a"><stop stop-color="#055F4E" offset="0%"/><stop stop-color="#56C0A7" offset="100%"/></linearGradient></defs><g fill="none" fill-rule="evenodd"><path d="M0 0h40v40H0z" fill="url(#a)"/><path d="M25 30h3V15h-3v15Zm-1 1h5V14h-5v17Zm-7-1h3V19h-3v11Zm-1 1h5V18h-5v13Zm-6-1h3v-6h-3v6Zm-1 1h5v-8H9v8ZM30 8v1h2.138l-3.537 3h-5.259a.502.502 0 0 0-.437.256L20.811 16h-5.18a.5.5 0 0 0-.46.304L13.599 20H9v1h4.93a.5.5 0 0 0 .46-.304L15.962 17h5.142c.18 0 .347-.098.436-.256L23.635 13h5.149a.495.495 0 0 0 .323-.119L33 9.58V12h1V8h-4Zm1 6h1v19H6V9h21v1H7v22h24V14Z" fill="#FFF"/></g></svg>