<svg width="40" height="40" xmlns="http://www.w3.org/2000/svg"><defs><linearGradient x1="0%" y1="100%" x2="100%" y2="0%" id="a"><stop stop-color="#055F4E" offset="0%"/><stop stop-color="#56C0A7" offset="100%"/></linearGradient></defs><g fill="none" fill-rule="evenodd"><path d="M0 0h40v40H0z" fill="url(#a)"/><path d="M20 31.645v-7.853l7-3.937v7.852l-7 3.938Zm-8-11.79 7 3.937v7.853l-7-3.938v-7.852Zm7.5-4.781L26.48 19l-6.98 3.926L12.52 19l6.98-3.926Zm8.245 3.49-8-4.5a.498.498 0 0 0-.49 0l-8 4.5A.501.501 0 0 0 11 19v9c0 .181.098.347.255.436l8 4.5a.506.506 0 0 0 .49 0l8-4.5A.501.501 0 0 0 28 28v-9a.501.501 0 0 0-.255-.436ZM13 9.5a.5.5 0 1 1-1 0 .5.5 0 0 1 1 0Zm-2 0a.5.5 0 1 1-1 0 .5.5 0 0 1 1 0Zm-2 0a.5.5 0 1 1-1 0 .5.5 0 0 1 1 0ZM30 24h1V14h-1v10ZM7 11V8h26v3H7Zm26.5-4h-27a.504.504 0 0 0-.354.146A.504.504 0 0 0 6 7.5l.001 19a.5.5 0 0 0 .5.5H9v-1H7V12h26v14h-3v1h3.5a.5.5 0 0 0 .5-.5v-19a.5.5 0 0 0-.5-.5Z" fill="#FFF"/></g></svg>