<svg width="40" height="40" xmlns="http://www.w3.org/2000/svg"><defs><linearGradient x1="0%" y1="100%" x2="100%" y2="0%" id="a"><stop stop-color="#C8511B" offset="0%"/><stop stop-color="#F90" offset="100%"/></linearGradient></defs><g fill="none" fill-rule="evenodd"><path d="M0 0h40v40H0z" fill="url(#a)"/><path d="M25 32.989v-15H15v15h3v-3.5a.5.5 0 0 1 .5-.5h3a.5.5 0 0 1 .5.5v3.5h3Zm-6 0h2v-3h-2v3Zm15 0v1H6v-1h8v-9h-2.844c-1.937 0-3.678-1.132-4.334-2.816a4.792 4.792 0 0 1-.292-1.163 6.18 6.18 0 0 1-.047-.777c0-2.84 1.664-4.431 3.381-5.06l-2.578-.94.344-.94 3.743 1.367a.5.5 0 0 1 .298.642l-1.366 3.743-.94-.343.964-2.641c-.905.3-2.846 1.28-2.846 4.172 0 .23.014.448.039.655.039.316.117.625.232.923.507 1.303 1.874 2.178 3.402 2.178H14v-5.5a.5.5 0 0 1 .5-.5h11a.5.5 0 0 1 .5.5v15.5h8Zm-11.5-13h-1a.5.5 0 0 0-.5.5v1a.5.5 0 0 0 .5.5h1a.5.5 0 0 0 .5-.5v-1a.5.5 0 0 0-.5-.5Zm-4 0h-1a.5.5 0 0 0-.5.5v1a.5.5 0 0 0 .5.5h1a.5.5 0 0 0 .5-.5v-1a.5.5 0 0 0-.5-.5Zm4 4h-1a.5.5 0 0 0-.5.5v1a.5.5 0 0 0 .5.5h1a.5.5 0 0 0 .5-.5v-1a.5.5 0 0 0-.5-.5Zm-4 0h-1a.5.5 0 0 0-.5.5v1a.5.5 0 0 0 .5.5h1a.5.5 0 0 0 .5-.5v-1a.5.5 0 0 0-.5-.5Zm-7.288-11.654-.961-.274c.608-2.131 2.112-3.932 3.926-4.7 2.8-1.185 5.763-.596 7.93 1.577a8.062 8.062 0 0 1 1.633 2.415 3.111 3.111 0 0 1 2.858-.605c1.383.405 2.311 1.675 2.522 3.429 1.36.322 4.223 1.437 4.223 5.112 0 3.063-2.396 4.539-4.061 5.197l2.278 1.087-.432.902-3.597-1.716a.5.5 0 0 1-.235-.667l1.717-3.597.902.43-1.313 2.752c1.516-.521 3.741-1.735 3.741-4.388 0-3.21-2.647-4.011-3.784-4.207a.5.5 0 0 1-.41-.566c-.097-1.431-.783-2.502-1.832-2.808-.857-.251-1.783.082-2.35.85a.5.5 0 0 1-.874-.131c-.393-1.113-.963-2.05-1.695-2.783-.896-.9-3.357-2.831-6.831-1.363-1.518.644-2.836 2.235-3.355 4.054Z" fill="#FFF"/></g></svg>