<svg width="48" height="48" xmlns="http://www.w3.org/2000/svg"><defs><linearGradient x1="0%" y1="100%" x2="100%" y2="0%" id="a"><stop stop-color="#BD0816" offset="0%"/><stop stop-color="#FF5252" offset="100%"/></linearGradient></defs><g fill="none" fill-rule="evenodd"><path fill="url(#a)" d="M4 4h40v40H4z"/><path stroke="#879196" stroke-width="2" d="M1 1h46v46H1z"/><path d="M35.192 37H12.809l-1.5-3h25.383l-1.5 3ZM14.5 21.786c0-.433.352-.786.786-.786H17.5v12h-3V21.786ZM19 19a.5.5 0 0 0 .5-.5V17h2v16h-3V19h.5Zm3.5 14h3V14h-3v19Zm6-16v1.5a.5.5 0 0 0 .5.5h.5v14h-3V17h2Zm4.213 4c.434 0 .787.353.787.786V33h-3V21h2.213Zm5.212 12.237A.502.502 0 0 0 37.5 33h-3V21.786c0-.985-.801-1.786-1.787-1.786H30.5v-1.5a.5.5 0 0 0-.5-.5h-.5v-1.5a.5.5 0 0 0-.5-.5h-2.5v-2.5a.5.5 0 0 0-.5-.5h-1.5v-3h-1v3H22a.5.5 0 0 0-.5.5V16H19a.5.5 0 0 0-.5.5V18H18a.5.5 0 0 0-.5.5V20h-2.214c-.986 0-1.786.801-1.786 1.786V33h-3a.503.503 0 0 0-.448.724l2 4A.501.501 0 0 0 12.5 38h23a.5.5 0 0 0 .447-.276l2-4a.503.503 0 0 0-.022-.487Z" fill="#FFF"/></g></svg>