<svg width="40" height="40" xmlns="http://www.w3.org/2000/svg"><defs><linearGradient x1="0%" y1="100%" x2="100%" y2="0%" id="a"><stop stop-color="#1B660F" offset="0%"/><stop stop-color="#6CAE3E" offset="100%"/></linearGradient></defs><g fill="none" fill-rule="evenodd"><path d="M0 0h40v40H0z" fill="url(#a)"/><path d="m30.532 21.391.197-1.459c2.092 1.2 2.135 1.694 2.134 1.708-.004.003-.354.283-2.33-.249Zm-.968-.288c-2.842-.897-6.66-2.572-8.84-3.599 0-.007.003-.013.003-.02 0-.663-.54-1.203-1.203-1.203s-1.203.54-1.203 1.203c0 .664.54 1.203 1.203 1.203.29 0 .546-.116.754-.287 1.27.594 5.797 2.676 9.15 3.713L28.25 30.85c0 .866-3.674 2.15-8.749 2.15-5.075 0-8.749-1.284-8.754-2.216l-2.463-18.22C10.458 14.154 15.074 15 19.5 15s9.043-.845 11.218-2.437l-1.154 8.54ZM8.004 10.49C8.031 9.61 12.103 7 19.5 7c7.395 0 11.47 2.61 11.5 3.49v.113C30.81 12.231 26.137 14 19.5 14S8.21 12.231 8.018 10.604l-.015-.115ZM32 10.5C32 8.665 27.131 6 19.5 6 11.87 6 7 8.665 7 10.5v.067L9.751 30.85c0 2.046 5.022 3.15 9.75 3.15 4.725 0 9.748-1.104 9.743-3.083l1.152-8.527c.821.214 1.485.328 1.996.328.593 0 .994-.144 1.236-.433a.975.975 0 0 0 .217-.83c-.137-.739-1.048-1.536-2.955-2.585l-.02.026L32 10.567V10.5Z" fill="#FFF"/></g></svg>