<svg width="40" height="40" xmlns="http://www.w3.org/2000/svg"><defs><linearGradient x1="0%" y1="100%" x2="100%" y2="0%" id="a"><stop stop-color="#055F4E" offset="0%"/><stop stop-color="#56C0A7" offset="100%"/></linearGradient></defs><g fill="none" fill-rule="evenodd"><path d="M0 0h40v40H0z" fill="url(#a)"/><path d="M30.998 26.685 20.021 32.92l-11.02-6.236v-13.46l11.02-6.148 10.977 6.147v13.46Zm.746-14.194L20.265 6.064a.5.5 0 0 0-.487 0L8.258 12.49A.503.503 0 0 0 8 12.93v14.047a.5.5 0 0 0 .254.436l11.52 6.522a.496.496 0 0 0 .494 0l11.479-6.522a.503.503 0 0 0 .253-.436V12.93a.504.504 0 0 0-.256-.439Zm-10.694.41c0 .57-.462 1.032-1.029 1.032a1.031 1.031 0 0 1 0-2.063c.567 0 1.029.463 1.029 1.031Zm6.428 5.519c0 .569-.462 1.031-1.029 1.031a1.032 1.032 0 0 1 0-2.063c.567 0 1.03.463 1.03 1.032Zm-3.477 5.324-.028.002-1.301-2.092 2.365-1.776c.147.143.32.26.507.353l-1.025 3.588a2.012 2.012 0 0 0-.518-.075Zm0 3.066a1.032 1.032 0 0 1 0-2.063 1.031 1.031 0 0 1 0 2.063Zm-2.133-4.552 1.104 1.775a2.15 2.15 0 0 0-.384.288l-1.733-1.303 1.013-.76Zm-4.414 2.063a2.108 2.108 0 0 0-.384-.288l1.104-1.775 1.013.76-1.733 1.303ZM16.04 26.81a1.031 1.031 0 0 1 0-2.063 1.032 1.032 0 0 1 0 2.063Zm-1.543-6.579c.187-.093.36-.21.507-.353l2.365 1.776-1.3 2.092-.029-.002c-.18 0-.352.03-.518.075l-1.025-3.588Zm-1.934-1.811c0-.569.462-1.032 1.029-1.032a1.032 1.032 0 0 1 0 2.063 1.031 1.031 0 0 1-1.029-1.031Zm6.956-1.965a2.03 2.03 0 0 0-1.53 1.965c0 .53.208 1.01.54 1.37l-.628 1.01-2.376-1.785a2.05 2.05 0 0 0 .098-.595c0-.516-.199-.983-.517-1.343l3.64-2.603c.224.182.485.318.773.392v1.59Zm-.15 3.882c.205.072.422.118.651.118.23 0 .446-.046.651-.118l.663 1.067-1.314.988-1.315-.988.664-1.067Zm.651-2.949a1.031 1.031 0 0 1 0 2.063 1.031 1.031 0 0 1 0-2.063Zm1.273-2.914 3.64 2.603c-.317.36-.516.827-.516 1.343 0 .209.04.405.098.595L22.14 20.8l-.628-1.01c.332-.36.54-.84.54-1.37a2.03 2.03 0 0 0-1.53-1.965v-1.589c.288-.074.549-.21.772-.392ZM17.99 12.9c0 .273.056.532.154.771l-3.924 2.807.015.02a2.004 2.004 0 0 0-.642-.114 2.032 2.032 0 0 0-.073 4.063l1.106 3.876a2.035 2.035 0 0 0 1.415 3.49c1.12 0 2.033-.914 2.033-2.035 0-.21-.04-.407-.1-.596l2.047-1.538 2.047 1.538c-.06.19-.1.387-.1.596 0 1.121.912 2.034 2.033 2.034a2.035 2.035 0 0 0 1.415-3.49l1.106-3.875a2.032 2.032 0 0 0-.073-4.063c-.226 0-.438.046-.642.114l.015-.02-3.924-2.807c.098-.239.154-.498.154-.77 0-1.122-.911-2.035-2.031-2.035s-2.03.913-2.03 2.034Z" fill="#FFF"/></g></svg>