<svg width="48" height="48" xmlns="http://www.w3.org/2000/svg"><defs><linearGradient x1="0%" y1="100%" x2="100%" y2="0%" id="a"><stop stop-color="#C8511B" offset="0%"/><stop stop-color="#F90" offset="100%"/></linearGradient></defs><g fill="none" fill-rule="evenodd"><path fill="url(#a)" d="M4 4h40v40H4z"/><path stroke="#879196" stroke-width="2" d="M1 1h46v46H1z"/><path d="M35.759 30.5c-.11.19-.265.354-.447.502A1.987 1.987 0 0 0 34 30.5c-.822 0-1.53.5-1.837 1.212a14.084 14.084 0 0 1-2.591-.364c.315-1.223.552-2.572.697-4.018a26.885 26.885 0 0 0 3.138-2.619c2.199 2.384 3.056 4.569 2.352 5.789M34 33.5a.99.99 0 0 1-.98-.906l-.008-.15A.994.994 0 0 1 35 32.5c0 .551-.448 1-1 1M24.5 37c-1.409 0-2.873-1.835-3.838-4.933 1.221-.339 2.509-.8 3.839-1.4a27.212 27.212 0 0 0 3.837 1.401C27.373 35.166 25.909 37 24.5 37m-11.258-6.5a1.972 1.972 0 0 1-.246-1H13c1.103 0 2-.897 2-2 0-.538-.216-1.023-.561-1.383.339-.466.724-.934 1.157-1.403a26.929 26.929 0 0 0 3.136 2.616 26.82 26.82 0 0 0 .699 4.028c-3.164.712-5.484.362-6.189-.858m-.242-4a1.001 1.001 0 0 1 0 2 1.001 1.001 0 0 1 0-2m.241-9c.706-1.221 3.026-1.571 6.19-.858a26.656 26.656 0 0 0-.698 4.025 27.052 27.052 0 0 0-3.144 2.617c-2.196-2.382-3.051-4.565-2.348-5.784M24.5 11c.58 0 1.095.301 1.513.675A1.982 1.982 0 0 0 25.5 13c0 1.103.898 2 2 2 .169 0 .331-.027.488-.067.122.321.237.654.344.999a26.893 26.893 0 0 0-3.832 1.407 26.932 26.932 0 0 0-3.838-1.408C21.628 12.834 23.091 11 24.5 11m4 2a1.001 1.001 0 0 1-2 0 1.001 1.001 0 0 1 2 0m1.871 8.977A24.914 24.914 0 0 1 32.717 24c-.685.67-1.461 1.35-2.346 2.023.039-.661.067-1.333.067-2.023 0-.684-.027-1.357-.067-2.023m-4.687-4.073a24.746 24.746 0 0 1 2.92-1.019c.243.949.435 1.967.574 3.035a33.835 33.835 0 0 0-1.709-1.062 33.813 33.813 0 0 0-1.785-.954m-5.871 2.024c.14-1.104.341-2.116.579-3.044.923.258 1.898.59 2.925 1.02-.593.297-1.188.609-1.786.954-.593.343-1.163.703-1.718 1.07m-1.184 6.095a24.666 24.666 0 0 1-2.346-2.024 25.377 25.377 0 0 1 2.345-2.008A33.715 33.715 0 0 0 18.563 24c0 .69.027 1.362.066 2.023m4.688 4.073c-1.026.43-2.002.763-2.925 1.02a24.787 24.787 0 0 1-.579-3.043c.552.364 1.121.724 1.718 1.069.594.343 1.19.656 1.786.954m5.871-2.023a24.74 24.74 0 0 1-.575 3.026 25.67 25.67 0 0 1-2.902-1.015 33.594 33.594 0 0 0 1.758-.942 34.238 34.238 0 0 0 1.719-1.069m-2.219.203a33.45 33.45 0 0 1-2.45 1.285 32.652 32.652 0 0 1-2.488-1.285 33.418 33.418 0 0 1-2.354-1.491A33.47 33.47 0 0 1 19.563 24c0-.967.04-1.894.113-2.776A33.027 33.027 0 0 1 24.5 18.43a34.227 34.227 0 0 1 4.817 2.78 33.032 33.032 0 0 1 .006 5.575 33.188 33.188 0 0 1-2.354 1.491m8.79-10.776c.704 1.22-.153 3.405-2.352 5.789a27.086 27.086 0 0 0-3.139-2.62 27.265 27.265 0 0 0-.696-4.028c3.163-.711 5.481-.361 6.187.859m.865-.5c-.997-1.729-3.787-2.118-7.322-1.314a17.33 17.33 0 0 0-.427-1.241A1.99 1.99 0 0 0 29.5 13c0-1.103-.897-2-2-2-.225 0-.438.046-.64.115C26.127 10.394 25.324 10 24.5 10c-1.997 0-3.728 2.222-4.8 5.687-3.536-.806-6.327-.416-7.324 1.313-.999 1.729.06 4.34 2.525 7a16.513 16.513 0 0 0-1.319 1.597A1.966 1.966 0 0 0 13 25.5c-1.102 0-2 .897-2 2 0 .743.412 1.385 1.014 1.729-.047.662.067 1.259.362 1.771.67 1.161 2.146 1.722 4.112 1.722.962 0 2.05-.147 3.211-.411C20.771 35.777 22.503 38 24.5 38c1.997 0 3.73-2.223 4.8-5.688.965.222 1.877.354 2.721.393A1.996 1.996 0 0 0 34 34.5c1.103 0 2-.897 2-2a1.98 1.98 0 0 0-.124-.669c.308-.236.563-.51.748-.831.999-1.729-.059-4.34-2.524-7 2.465-2.66 3.523-5.271 2.524-7" fill="#FFF"/></g></svg>