<svg width="40" height="40" xmlns="http://www.w3.org/2000/svg"><defs><linearGradient x1="0%" y1="100%" x2="100%" y2="0%" id="a"><stop stop-color="#4D27A8" offset="0%"/><stop stop-color="#A166FF" offset="100%"/></linearGradient></defs><g fill="none" fill-rule="evenodd"><path d="M0 0h40v40H0z" fill="url(#a)"/><path d="M32.888 19.913C11.234 19.913 8 16.024 8 13.706H7c0 3.532 4.767 5.774 14.172 6.707C11.767 21.346 7 23.587 7 27.119h1c0-2.318 3.234-6.206 24.888-6.206v-1ZM9.874 30.952h1c0-2.115.636-4.459 5.028-6.097v-1.061c-5.311 1.862-6.028 4.782-6.028 7.158Zm2.874 2.874h1c0-1.893.007-4.001 2.154-5.743v-1.241c-3.15 2.113-3.154 4.905-3.154 6.984Zm19.183-9.955h-13v9h1v-2.5a.5.5 0 0 1 .5-.5h2a.5.5 0 0 1 .5.5v2.5h1v-4.5a.5.5 0 0 1 .5-.5h2a.5.5 0 0 1 .5.5v4.5h1v-6.5a.5.5 0 0 1 .5-.5h2a.5.5 0 0 1 .5.5v6.5h1v-9Zm-3 9h1v-6h-1v6Zm-4 0h1v-4h-1v4Zm-4 0h1v-2h-1v2Zm12-9.5v10a.5.5 0 0 1-.5.5h-14a.5.5 0 0 1-.5-.5v-10a.5.5 0 0 1 .5-.5h14a.5.5 0 0 1 .5.5Zm-.043-4.374v-1c-19.398 0-22.014-4.106-22.014-8.123h-1c0 4.512 2.735 9.123 23.014 9.123ZM12.748 7h1c0 3.617 0 9.081 19.14 9.081v1c-18.585 0-20.14-4.98-20.14-10.081Z" fill="#FFF"/></g></svg>