<svg width="40" height="40" xmlns="http://www.w3.org/2000/svg"><defs><linearGradient x1="0%" y1="100%" x2="100%" y2="0%" id="a"><stop stop-color="#4D27A8" offset="0%"/><stop stop-color="#A166FF" offset="100%"/></linearGradient></defs><g fill="none" fill-rule="evenodd"><path d="M0 0h40v40H0z" fill="url(#a)"/><path d="M19.003 18.545h-.998v-4.496h.998v1.998l1.347-1.998h1.104l-1.56 2.102 1.689 2.394h-1.184l-1.396-2.173v2.173ZM33 25.059l-.334.289c-1.348 1.18-3.629 1.179-4.977-.001l-.666-.578c-.978-.855-2.69-.857-3.666-.002l-.67.58c-.674.592-1.58.887-2.488.887-.907 0-1.814-.296-2.489-.888l-.667-.577c-.977-.857-2.69-.856-3.665-.002l-.671.58C11.36 26.53 9.08 26.53 7.73 25.347l-.332-.287.653-.757.334.29c.978.858 2.69.857 3.665.002l.672-.58c1.346-1.18 3.626-1.182 4.975 0l.667.578c.978.858 2.69.857 3.665.002l.671-.58c1.348-1.182 3.628-1.18 4.978 0l.666.578c.978.856 2.69.858 3.665.002l.336-.291.654.756Zm-1.05 6.01.652.756-.334.29c-.673.59-1.58.885-2.486.885-.907 0-1.814-.296-2.49-.888l-.667-.576c-.978-.859-2.69-.857-3.665-.003l-.671.582c-1.347 1.179-3.626 1.181-4.976-.003l-.667-.576c-.977-.856-2.69-.857-3.666-.002l-.67.58c-1.347 1.181-3.628 1.179-4.977 0L7 31.824l.654-.756.334.29c.977.854 2.688.857 3.666.001l.67-.58c1.348-1.182 3.628-1.179 4.977.001l.667.577c.977.858 2.689.857 3.665.002l.67-.58c1.346-1.18 3.627-1.182 4.976.001l.668.577c.978.858 2.689.857 3.665.002l.336-.292Zm0-3.166.652.756-.334.29c-1.346 1.178-3.626 1.18-4.976-.003l-.667-.577c-.978-.857-2.69-.856-3.665-.002l-.671.581c-.673.59-1.58.885-2.486.885-.907 0-1.815-.295-2.49-.887l-.667-.577c-.977-.855-2.69-.856-3.666-.001l-.67.58c-1.347 1.18-3.628 1.18-4.977-.002L7 28.658l.656-.755.334.29c.975.854 2.687.856 3.665 0l.67-.58c1.348-1.181 3.628-1.178 4.977.002l.667.578c.977.855 2.689.855 3.665 0l.67-.58c1.346-1.18 3.627-1.181 4.976.002l.668.578c.978.855 2.689.855 3.665 0l.336-.29Zm-19.441-8.904a1 1 0 0 1 0 2 1 1 0 0 1 0-2Zm6.057-7.243c.282.15.595.244.935.244.34 0 .654-.094.935-.244l4.865 6.649c-.358.268-.619.65-.735 1.094h-10.13a1.99 1.99 0 0 0-.733-1.094l4.863-6.65ZM19.501 9a1 1 0 1 1-.002 2 1 1 0 0 1 .002-2Zm7.991 10.999a1 1 0 0 1-.999 1 1 1 0 0 1 0-2 1 1 0 0 1 1 1Zm-14.983 2c.928 0 1.703-.64 1.927-1.5h10.13c.224.86 1 1.5 1.927 1.5a2 2 0 0 0 0-4c-.08 0-.157.015-.234.024l-5.08-6.944c.2-.312.32-.681.32-1.08A2 2 0 0 0 19.5 8a2 2 0 0 0-1.998 2c0 .398.12.767.32 1.079l-5.078 6.944c-.08-.01-.155-.024-.236-.024a2 2 0 0 0 0 4Z" fill="#FFF"/></g></svg>