<svg width="40" height="40" xmlns="http://www.w3.org/2000/svg"><defs><linearGradient x1="0%" y1="100%" x2="100%" y2="0%" id="a"><stop stop-color="#C8511B" offset="0%"/><stop stop-color="#F90" offset="100%"/></linearGradient></defs><g fill="none" fill-rule="evenodd"><path d="M0 0h40v40H0z" fill="url(#a)"/><path d="M32.997 25.486c0-.827-.673-1.5-1.5-1.5h-19c-.827 0-1.5.673-1.5 1.5v2c0 .827.673 1.5 1.5 1.5h19c.827 0 1.5-.673 1.5-1.5v-2Zm1 0v2c0 1.378-1.121 2.5-2.5 2.5h-19a2.503 2.503 0 0 1-2.5-2.5v-2c0-1.378 1.121-2.5 2.5-2.5h19c1.379 0 2.5 1.122 2.5 2.5Zm-20 1.5h1v-1h-1v1Zm2 0h3v-1h-3v1Zm4 0h10v-1h-10v1ZM9.617 15.783c0 .183.012.364.032.54a.499.499 0 0 1-.372.544c-.832.212-2.227.867-2.227 2.868l.005.198c.044.91.376 2.476 2.088 2.708l-.134.991c-1.748-.237-2.853-1.603-2.953-3.654l-.006-.243c0-1.78.953-3.143 2.572-3.714a6.255 6.255 0 0 1-.005-.238c0-2.023 1.355-4.12 3.151-4.882 2.107-.89 4.33-.447 5.958 1.185a5.99 5.99 0 0 1 1.153 1.655 2.395 2.395 0 0 1 2.08-.363c1.04.303 1.745 1.235 1.93 2.523 1.078.241 3.108 1.047 3.108 4.825h-1c0-3.045-1.346-3.687-2.662-3.913a.499.499 0 0 1-.409-.568c-.069-.96-.535-1.699-1.248-1.907-.572-.169-1.195.057-1.577.573a.502.502 0 0 1-.874-.13c-.281-.797-.688-1.466-1.209-1.989-.639-.64-2.393-2.017-4.859-.97-1.426.603-2.542 2.343-2.542 3.961Z" fill="#FFF"/></g></svg>