<svg width="40" height="40" xmlns="http://www.w3.org/2000/svg"><defs><linearGradient x1="0%" y1="100%" x2="100%" y2="0%" id="a"><stop stop-color="#4D27A8" offset="0%"/><stop stop-color="#A166FF" offset="100%"/></linearGradient></defs><g fill="none" fill-rule="evenodd"><path d="M0 0h40v40H0z" fill="url(#a)"/><path d="M21 18h3v1h-3v3h-1v-3h-3v-1h3v-3h1v3Zm9.933-3.957c-1.306 0-1.884-.345-1.933-.446l-.004-6.13c.055-.12.637-.467 1.937-.467 1.25 0 1.955.325 2.067.475l.008 6.084c-.089.163-.81.484-2.075.484ZM20.5 24a5.506 5.506 0 0 1-5.5-5.5c0-3.033 2.468-5.5 5.5-5.5s5.5 2.467 5.5 5.5-2.468 5.5-5.5 5.5Zm9.946-3c.916 0 1.421.208 1.554.311l.026 4.356c-.071.089-.579.333-1.58.333-.921 0-1.392-.214-1.446-.237l-.021-4.448c.075-.098.547-.315 1.467-.315ZM25 32.82c-.135.073-.487.18-1.041.18-.555 0-.851-.106-.959-.167v-3.665c.109-.06.405-.168.959-.168.553 0 .905.108 1.041.182v3.638ZM9.419 30C7.63 30 7 29.501 7 29.395v-6.789c.035-.172.806-.606 2.419-.606 1.624 0 2.494.436 2.581.617l.002 6.764c-.066.176-.933.619-2.583.619ZM11 13.82c-.135.073-.487.18-1.041.18-.555 0-.851-.106-.959-.167v-3.665c.109-.06.405-.168.959-.168.553 0 .905.108 1.041.182v3.638ZM30.933 6C29.151 6 28 6.567 28 7.446v3.678l-3.051 2.65A6.472 6.472 0 0 0 20.5 12a6.495 6.495 0 0 0-5.447 2.966L12 12.408v-2.344C12 9.417 11.199 9 9.959 9 8.751 9 8 9.408 8 10.064v3.872C8 14.592 8.751 15 9.959 15 11.218 15 12 14.592 12 13.936v-.223l2.564 2.149a6.451 6.451 0 0 0 .744 6.531L13 24.435v-1.83C13 21.497 11.201 21 9.419 21 7.342 21 6 21.63 6 22.605v6.79C6 30.37 7.342 31 9.419 31 11.071 31 13 30.58 13 29.395V25.77l2.964-2.623A6.474 6.474 0 0 0 20.5 25c.381 0 .752-.04 1.114-.103l1.573 3.171c-.747.14-1.187.495-1.187.996v3.872c0 .656.751 1.064 1.959 1.064C25.218 34 26 33.592 26 32.936v-3.872c0-.589-.668-.984-1.724-1.05l-1.671-3.37a6.521 6.521 0 0 0 3.068-2.225L28 23.436v2.327c0 .763.937 1.237 2.446 1.237C31.624 27 33 26.676 33 25.763v-4.526C33 20.324 31.624 20 30.446 20 28.937 20 28 20.474 28 21.237v1.108l-1.773-.775a6.464 6.464 0 0 0-.604-7.056L28 12.448v1.149c0 .878 1.151 1.446 2.933 1.446 1.415 0 3.067-.379 3.067-1.446V7.446C34 6.447 32.459 6 30.933 6Z" fill="#FFF"/></g></svg>