<svg width="40" height="40" xmlns="http://www.w3.org/2000/svg"><defs><linearGradient x1="0%" y1="100%" x2="100%" y2="0%" id="a"><stop stop-color="#2E27AD" offset="0%"/><stop stop-color="#527FFF" offset="100%"/></linearGradient></defs><g fill="none" fill-rule="evenodd"><path d="M0 0h40v40H0z" fill="url(#a)"/><path d="M10.053 19.219c0-1.93 1.57-3.5 3.5-3.5s3.5 1.57 3.5 3.5-1.57 3.5-3.5 3.5-3.5-1.57-3.5-3.5Zm22.5-6.462h-26c-.276-.038-.5.186-.5.462v13.619c-.017.023-.036.043-.053.066l.053.037v.784a.5.5 0 0 0 .247.43l11.118 6.533a.496.496 0 0 0 .503.002l7.749-4.483-.999-.577-2.736 1.583a9.105 9.105 0 0 0-1.052-3.503l-.287-.453-.866.5.291.459a8.074 8.074 0 0 1 .948 3.555l-3.296 1.907-10.62-6.24v-.253a7.891 7.891 0 0 1 6.213-3.022 7.61 7.61 0 0 1 3.983 1.118l.335.25.935-.54-.575-.432a.527.527 0 0 0-.106-.09 8.563 8.563 0 0 0-2.645-1.07 4.498 4.498 0 0 0 2.86-4.18c0-2.481-2.019-4.5-4.5-4.5a4.505 4.505 0 0 0-4.5 4.5 4.498 4.498 0 0 0 2.647 4.09 8.927 8.927 0 0 0-4.647 2.386V13.719h25v2.46l1 .578v-3.538c0-.276-.224-.5-.5-.462Zm.5 6.103v6.65a.5.5 0 0 1-.25.433l-6 3.464a.496.496 0 0 1-.488.007l-4.812-2.681.953-.551 4.089 2.219 5.508-3.18v-6.072l-5.5-3.176-5.5 3.176v4.379l-1 .578V18.86a.5.5 0 0 1 .25-.433l6-3.463a.497.497 0 0 1 .5 0l6 3.463a.5.5 0 0 1 .25.433ZM7.914 11.719l9.623-5.704 9.815 5.704h1.868L17.769 5.063a.465.465 0 0 0-.47.002L6.073 11.719h1.841Zm7.532 17.34-.5-.865 10.334-5.966.5.866-10.334 5.965Z" fill="#FFF"/></g></svg>