<svg width="40" height="40" xmlns="http://www.w3.org/2000/svg"><defs><linearGradient x1="0%" y1="100%" x2="100%" y2="0%" id="a"><stop stop-color="#1B660F" offset="0%"/><stop stop-color="#6CAE3E" offset="100%"/></linearGradient></defs><g fill="none" fill-rule="evenodd"><path d="M0 0h40v40H0z" fill="url(#a)"/><path d="m32.714 29.384 1.022 1.012-.711.703-1.216-1.204H29.82l.977 1.678 1.685.469-.273.959-1.366-.382L30.47 34l-.972-.258.444-1.642-.993-1.707-.98 1.676.432 1.68-.974.245-.349-1.362-1.394.37-.261-.961 1.658-.44.997-1.706h-1.957l-1.251 1.208-.703-.712 1.017-.982-1.02-1.01.71-.704 1.215 1.204h1.99l-.982-1.679-1.68-.469.273-.957 1.365.38.373-1.38.972.257-.445 1.649.994 1.702.979-1.681-.431-1.676.974-.246.35 1.363 1.395-.37.26.961-1.663.441-.993 1.705h1.957l1.252-1.208.702.713-1.017.98Zm-1.828-8.004.189-1.382c1.876 1.098 1.92 1.57 1.92 1.57-.004.002-.333.257-2.11-.188ZM19.692 6.995c6.635 0 11.638 2.03 11.693 3.36l-.016.134c0 .003-.004.006-.005.01-.348 1.341-5.227 2.835-11.669 2.835-6.43 0-11.306-1.49-11.673-2.83l-.02-.127c0-1.33 5.019-3.382 11.69-3.382Zm-.203 10.436c0-.111.092-.202.204-.202.113 0 .204.09.204.202 0 .223-.408.223-.408 0Zm11.733 1.498 1.125-8.227.007-.013.032-.248a.443.443 0 0 0 .004-.064C32.39 7.797 25.698 6 19.692 6S6.996 7.798 7 10.443l.036.24v.007L9.76 30.736c0 2.285 6.094 3.136 9.934 3.136 1.306 0 2.616-.083 3.897-.245l-.127-.988c-1.24.158-2.507.237-3.77.237-5.54 0-8.929-1.385-8.934-2.206L8.246 12.146c.035.023.076.042.113.065.082.05.168.1.256.15.088.047.181.094.275.14.098.049.195.099.3.146.08.035.166.068.249.103.23.095.475.188.732.276.084.028.166.057.254.085a16.236 16.236 0 0 0 .715.211 21.17 21.17 0 0 0 .64.164c.647.155 1.337.288 2.056.402l.157.025c.232.034.466.067.704.1l.088.01c.777.099 1.574.174 2.377.225l.043.003c.259.017.518.03.779.04l.105.006c.537.022 1.074.036 1.603.036a39.553 39.553 0 0 0 1.742-.042 34.182 34.182 0 0 0 .885-.049 38.472 38.472 0 0 0 2.508-.249c.126-.017.252-.036.377-.054.233-.033.462-.07.69-.108l.181-.03c2.097-.367 3.921-.92 5.061-1.651l-1.227 8.96c-3.072-.936-7.294-2.854-9.01-3.658 0-.007.004-.013.004-.02 0-.66-.543-1.198-1.21-1.198-.666 0-1.209.537-1.209 1.197 0 .661.543 1.198 1.21 1.198.29 0 .547-.116.756-.286 2.02.946 6.222 2.844 9.322 3.765l-.096.706.995.134.078-.573c.717.175 1.306.266 1.771.266.595 0 .998-.143 1.243-.432a.97.97 0 0 0 .219-.827c-.134-.706-.995-1.468-2.76-2.453Z" fill="#FFF"/></g></svg>