<svg width="40" height="40" xmlns="http://www.w3.org/2000/svg"><defs><linearGradient x1="0%" y1="100%" x2="100%" y2="0%" id="a"><stop stop-color="#2E27AD" offset="0%"/><stop stop-color="#527FFF" offset="100%"/></linearGradient></defs><g fill="none" fill-rule="evenodd"><path d="M0 0h40v40H0z" fill="url(#a)"/><path d="M17 9.039h2.031V7H17v2.039Zm-1 .5V6.5a.5.5 0 0 1 .5-.5h3.031a.5.5 0 0 1 .5.5v3.039a.5.5 0 0 1-.5.5H16.5a.5.5 0 0 1-.5-.5Zm7 2.5h2.047v-2.032H23v2.032Zm-1 .5V9.507a.5.5 0 0 1 .5-.5h3.047a.5.5 0 0 1 .5.5v3.032a.5.5 0 0 1-.5.5H22.5a.5.5 0 0 1-.5-.5Zm-6 2.483h2.029v-1.983H16v1.983Zm-1 .5v-2.983a.5.5 0 0 1 .5-.5h3.029a.5.5 0 0 1 .5.5v2.983a.5.5 0 0 1-.5.5H15.5a.5.5 0 0 1-.5-.5Zm3.53 7.517h10.024v-1H18.53v1Zm-8.475 1h1.526A10.206 10.206 0 0 1 11 20.665v-3.608h-.945C8.342 17.057 7 18.585 7 20.536c0 1.964 1.342 3.503 3.055 3.503Zm0 1C7.781 25.039 6 23.061 6 20.536c0-2.512 1.781-4.479 4.055-4.479H11v-.518a.5.5 0 0 1 .5-.5H14v1h-2v4.626c0 .468.047.924.113 1.374h4.912v1H12.32c1.071 4.021 4.774 7 9.18 7 5.272 0 9.562-4.205 9.562-9.374v-.644H14.164v-1h16.898v-2.982H20.033v-1h11.529a.5.5 0 0 1 .5.5v5.126c0 5.72-4.739 10.374-10.562 10.374a10.513 10.513 0 0 1-9.508-6h-1.937Zm23.978 4.724c0 2.701-6.372 4.315-12.533 4.315-5.937 0-11.945-1.482-11.945-4.315 0-.756.489-1.858 2.819-2.82l.381.925c-1.399.577-2.2 1.267-2.2 1.895 0 1.601 4.398 3.315 10.945 3.315 6.601 0 11.533-1.75 11.533-3.315 0-.627-.802-1.318-2.199-1.896l.381-.924c2.329.962 2.818 2.064 2.818 2.82Z" fill="#FFF"/></g></svg>