<svg width="40" height="40" xmlns="http://www.w3.org/2000/svg"><defs><linearGradient x1="0%" y1="100%" x2="100%" y2="0%" id="a"><stop stop-color="#1B660F" offset="0%"/><stop stop-color="#6CAE3E" offset="100%"/></linearGradient></defs><g fill="none" fill-rule="evenodd"><path d="M0 0h40v40H0z" fill="url(#a)"/><path d="m27.537 22.267-3.548 4.915h1.6l2.669-3.898-.721-1.017Zm4.776 4.915H34l-4.194-5.966 3.819-5.325h-1.578l-3.019 4.31-.807 1.118 4.092 5.863Zm-3.955-7.937-2.348-3.354h-1.666l3.173 4.473.841-1.119Zm-10.813.909c-1.02-.398-1.768-.871-2.245-1.421-.477-.55-.715-1.229-.715-2.037 0-1.099.393-1.99 1.181-2.673.789-.682 1.826-1.023 3.111-1.023.583 0 1.195.07 1.838.208.642.14 1.248.335 1.818.587v1.013c-1.351-.477-2.551-.715-3.597-.715-1.02 0-1.801.222-2.344.666-.544.444-.815 1.076-.815 1.897 0 .464.082.838.248 1.123.165.285.438.543.815.775.378.232.917.48 1.619.745l2.127.815c.953.371 1.649.824 2.086 1.361.437.537.656 1.209.656 2.017 0 1.179-.435 2.133-1.302 2.861-.868.729-2.01 1.093-3.427 1.093-1.471 0-2.783-.278-3.935-.834v-1.014c1.391.504 2.669.755 3.835.755 1.1 0 1.977-.258 2.633-.775.656-.517.983-1.218.983-2.106a1.97 1.97 0 0 0-.536-1.391c-.357-.384-.934-.729-1.729-1.033l-2.305-.894ZM6 27.108v-13.77h7.729v1.053H7.172v5.266h5.545v1.053H7.172v6.398H6Z" fill="#FFF"/></g></svg>