<svg width="40" height="40" xmlns="http://www.w3.org/2000/svg"><defs><linearGradient x1="0%" y1="100%" x2="100%" y2="0%" id="a"><stop stop-color="#B0084D" offset="0%"/><stop stop-color="#FF4F8B" offset="100%"/></linearGradient></defs><g fill="none" fill-rule="evenodd"><path d="M0 0h40v40H0z" fill="url(#a)"/><path d="M27 19.982h3V18.98h-3v1.002Zm-13 6.009h3v-1.002h-3v1.002Zm-5 0h3v-1.002H9v1.002Zm0-3.005h6v-1.001H9v1.001Zm0-6.009h5v-1.001H9v1.001Zm0 3.005h16V18.98H9v1.002Zm9.968 11.016H7V13.973h11.968v3.021h1v-3.522a.5.5 0 0 0-.5-.5H6.5a.5.5 0 0 0-.5.5V31.5a.5.5 0 0 0 .5.501h12.968a.5.5 0 0 0 .5-.5v-9.498h-1v8.996ZM34 18.48c0 4.455-3.96 4.506-4 4.506h-8v-1.001h8c.305-.003 3-.122 3-3.505 0-2.848-2.569-3.425-3.083-3.513a.5.5 0 0 1-.415-.535l.003-.03c-.029-1.607-1.015-2.11-1.442-2.25-.799-.268-1.687-.012-2.158.618a.5.5 0 0 1-.871-.131c-.311-.87-.762-1.434-1.388-2.062-1.569-1.559-3.691-1.987-5.683-1.15-1.044.44-1.956 1.438-2.502 2.737l-.922-.388c.646-1.539 1.753-2.731 3.036-3.272 2.379-1.002 4.911-.491 6.777 1.364.534.536.978 1.057 1.323 1.734.749-.552 1.752-.717 2.704-.402 1.216.405 1.985 1.461 2.109 2.865C32.19 14.495 34 15.857 34 18.48Z" fill="#FFF"/></g></svg>