<svg width="40" height="40" xmlns="http://www.w3.org/2000/svg"><defs><linearGradient x1="0%" y1="100%" x2="100%" y2="0%" id="a"><stop stop-color="#4D27A8" offset="0%"/><stop stop-color="#A166FF" offset="100%"/></linearGradient></defs><g fill="none" fill-rule="evenodd"><path d="M0 0h40v40H0z" fill="url(#a)"/><path d="M19.029 23.988h1.96V21.98h-1.96v2.008Zm2.46-3.003h-2.96c-.277 0-.5.222-.5.498v3.003c0 .276.223.498.5.498h2.96c.275 0 .5-.222.5-.498v-3.003a.499.499 0 0 0-.5-.498Zm7.153 7.019L24.989 28v-5.055h7.936c.038.21.075.419.075.649 0 4.34-4.182 4.409-4.358 4.41Zm-17.81-.082 5.17-4.395v4.463l-4.173-.004c-.352 0-.68-.025-.997-.064ZM7 23.432c0-2.712 2.209-3.677 3.525-4.012a.493.493 0 0 0 .369-.474h5.108v.359l-8.31 6.944C7.238 25.584 7 24.737 7 23.72v-.288Zm7.645-10.952a6.085 6.085 0 0 1 1.357-.38v3.95h-4.67c.622-1.547 1.867-2.96 3.313-3.57Zm4.42 14.465h1.923v1.049h-1.923v-1.049Zm10.434-7.997v.996c.93 0 2.398.673 3.099 2.005h-8.109c-.277 0-.5.223-.5.498V28l-2-.002v-1.55a.5.5 0 0 0-.5-.498h-2.924c-.277 0-.5.223-.5.498v1.545l-1.063-.001v-5.544a.498.498 0 0 0-.824-.378l-6.561 5.577a4.08 4.08 0 0 1-1.24-.67l8.447-7.058a.495.495 0 0 0 .178-.381v-1.089a.498.498 0 0 0-.5-.498H10.91c.007-.299.047-.601.111-.904h5.481c.277 0 .5-.223.5-.498v-4.53c.357.002.71.03 1.063.098v7.42c0 .277.223.499.5.499h2.923c.276 0 .5-.222.5-.498v-2.511h-1v2.013h-1.923v-6.65a7.052 7.052 0 0 1 2.506 1.64l.71-.702c-2.271-2.268-5.27-2.925-8.027-1.764-2.44 1.03-4.352 3.878-4.352 6.485l-.007.27-.007.247C8.473 19.009 6 20.243 6 23.432v.288c0 3.295 2.18 5.262 5.828 5.262l6.733.007.004.001h.736l9.34.01c.054 0 5.359-.063 5.359-5.406 0-2.991-2.662-4.646-4.501-4.646Zm-3.63-4.108c0-.312.33-.64.641-.64.313 0 .644.328.644.64 0 .31-.33.64-.644.64-.312 0-.642-.33-.642-.64Zm2.285 0c0-.857-.784-1.637-1.644-1.637-.859 0-1.642.78-1.642 1.637 0 .856.783 1.635 1.642 1.635.86 0 1.644-.779 1.644-1.635Zm-1.644-2.372c1.358 0 2.38 1.02 2.38 2.372 0 .946-1.325 3.262-2.38 4.85-1.054-1.588-2.381-3.904-2.381-4.85 0-1.352 1.024-2.372 2.381-2.372Zm0 8.608c.163 0 .317-.08.41-.212.305-.435 2.971-4.284 2.971-6.024 0-1.92-1.453-3.368-3.38-3.368-1.929 0-3.382 1.447-3.382 3.368 0 1.74 2.667 5.59 2.971 6.024a.504.504 0 0 0 .41.212Z" fill="#FFF"/></g></svg>