<svg width="40" height="40" xmlns="http://www.w3.org/2000/svg"><defs><linearGradient x1="0%" y1="100%" x2="100%" y2="0%" id="a"><stop stop-color="#C8511B" offset="0%"/><stop stop-color="#F90" offset="100%"/></linearGradient></defs><g fill="none" fill-rule="evenodd"><path d="M0 0h40v40H0z" fill="url(#a)"/><path d="m17.254 8.663-.5-.866 2.996-1.73a.502.502 0 0 1 .5 0l2.996 1.73-.5.866L20 7.077l-2.746 1.586ZM23 28.212l-2.5 1.443-2.5-1.443v-2.887l2.5-1.444 2.5 1.444v2.887Zm1-3.176a.5.5 0 0 0-.25-.433l-3-1.732a.502.502 0 0 0-.5 0l-3 1.732a.5.5 0 0 0-.25.433V26H8v1h9v1.5c0 .179.096.344.25.434L20 30.52V34h1v-3.48l2.75-1.586A.503.503 0 0 0 24 28.5V27h8v-1h-8v-.964ZM26 18h3v-1h-3v1Zm0-3h3v-1h-3v1Zm-15 0h8v-1h-8v1Zm-2 5h22v-8H9v8Zm22.5-9h-23a.5.5 0 0 0-.5.5v9a.5.5 0 0 0 .5.5h23a.5.5 0 0 0 .5-.5v-9a.5.5 0 0 0-.5-.5Z" fill="#FFF"/></g></svg>