<svg width="48" height="48" xmlns="http://www.w3.org/2000/svg"><defs><linearGradient x1="0%" y1="100%" x2="100%" y2="0%" id="a"><stop stop-color="#BD0816" offset="0%"/><stop stop-color="#FF5252" offset="100%"/></linearGradient></defs><g fill="none" fill-rule="evenodd"><path fill="url(#a)" d="M4 4h40v40H4z"/><path stroke="#879196" stroke-width="2" d="M1 1h46v46H1z"/><path d="M30 35h3v-1h-3v1Zm7 1.5V33H26v3.5a.5.5 0 0 0 .5.5h10a.5.5 0 0 0 .5-.5Zm-11-18V32h11V18.5a.5.5 0 0 0-.5-.5h-10a.5.5 0 0 0-.5.5Zm12 0v18c0 .827-.673 1.5-1.5 1.5h-10c-.827 0-1.5-.673-1.5-1.5v-18c0-.827.673-1.5 1.5-1.5h10c.827 0 1.5.673 1.5 1.5ZM14 14h12v2h1v-2.5a.5.5 0 0 0-.5-.5h-13a.5.5 0 0 0-.5.5v19a.5.5 0 0 0 .5.5H24v-1H14V14Zm-2.093 21H24v1H11.907C10.855 36 10 35.121 10 34.041V11.959c0-1.08.855-1.959 1.907-1.959h16.186c1.052 0 1.907.879 1.907 1.959V16h-1v-4.041c0-.529-.407-.959-.907-.959H11.907c-.5 0-.907.43-.907.959v22.082c0 .529.407.959.907.959Z" fill="#FFF"/></g></svg>