<svg width="40" height="40" xmlns="http://www.w3.org/2000/svg"><defs><linearGradient x1="0%" y1="100%" x2="100%" y2="0%" id="a"><stop stop-color="#4D27A8" offset="0%"/><stop stop-color="#A166FF" offset="100%"/></linearGradient></defs><g fill="none" fill-rule="evenodd"><path d="M0 0h40v40H0z" fill="url(#a)"/><path d="M15 27c-3.859 0-7-3.14-7-7s3.141-7 7-7 7 3.14 7 7-3.141 7-7 7m14 1c1.103 0 2 .897 2 2s-.897 2-2 2-2-.897-2-2 .897-2 2-2m0-20c1.103 0 2 .897 2 2s-.897 2-2 2-2-.897-2-2 .897-2 2-2m1 10.5c1.103 0 2 .897 2 2s-.897 2-2 2-2-.897-2-2 .897-2 2-2M22.931 21h4.12A2.997 2.997 0 0 0 30 23.5c1.654 0 3-1.346 3-3s-1.346-3-3-3a2.997 2.997 0 0 0-2.949 2.5H23c0-1.489-.416-2.88-1.128-4.075l4.827-4.023A2.982 2.982 0 0 0 29 13c1.654 0 3-1.346 3-3s-1.346-3-3-3-3 1.346-3 3c0 .361.074.702.191 1.022l-4.885 4.072A7.985 7.985 0 0 0 15 12c-4.411 0-8 3.589-8 8s3.589 8 8 8a7.985 7.985 0 0 0 6.306-3.094l4.885 4.072c-.117.32-.191.661-.191 1.022 0 1.654 1.346 3 3 3s3-1.346 3-3-1.346-3-3-3c-.929 0-1.75.433-2.301 1.098l-4.827-4.023A7.927 7.927 0 0 0 22.931 21" fill="#FFF"/></g></svg>