<svg width="40" height="40" xmlns="http://www.w3.org/2000/svg"><defs><linearGradient x1="0%" y1="100%" x2="100%" y2="0%" id="a"><stop stop-color="#2E27AD" offset="0%"/><stop stop-color="#527FFF" offset="100%"/></linearGradient></defs><g fill="none" fill-rule="evenodd"><path d="M0 0h40v40H0z" fill="url(#a)"/><path d="M22.943 9.978h-.997v-.99h.997V8h.997v.989h.996v.989h-.996v.989h-.997v-.99Zm5.98 5.933h-.997v-.989h.997v-.989h.997v.99h.996v.988h-.996v.989h-.997v-.989Zm-2.896 14.24c-.904-2.197-2.93-4.198-5.147-5.08 2.199-.934 4.237-3.028 5.147-5.284.91 2.256 2.948 4.35 5.146 5.284-2.217.882-4.242 2.883-5.146 5.08Zm7.475-5.557c-3.196 0-6.977-3.9-6.977-7.195a.497.497 0 0 0-.498-.494.496.496 0 0 0-.499.494c0 3.295-3.78 7.195-6.976 7.195a.495.495 0 1 0 0 .989c3.26 0 6.976 3.688 6.976 6.923 0 .273.223.494.499.494.275 0 .498-.22.498-.494 0-3.235 3.716-6.923 6.977-6.923.275 0 .498-.22.498-.494a.497.497 0 0 0-.498-.495ZM13.475 11.956c3.955 0 6.478 1.171 6.478 1.977s-2.523 1.978-6.478 1.978c-3.955 0-6.478-1.172-6.478-1.978s2.523-1.977 6.478-1.977Zm-.65 9.46c-2.234 0-4.37-.327-5.828-.877V15.47c1.379.937 3.982 1.43 6.478 1.43 2.496 0 5.099-.493 6.478-1.43v4.38c-1.136.937-4 1.566-7.128 1.566Zm7.128 7.606c0 1.048-2.77 2.22-6.48 2.22-3.707 0-6.476-1.172-6.476-2.22v-2.24c1.544.578 3.721.916 6.013.916 1.563 0 3.084-.155 4.399-.446l-.218-.965c-1.244.275-2.69.422-4.18.422-2.375 0-4.588-.373-6.014-1v-4.117c1.552.52 3.621.813 5.828.813 2.935 0 5.602-.527 7.128-1.373v1.801h.997v-8.9c0-1.927-3.851-2.966-7.475-2.966C9.85 10.967 6 12.006 6 13.933v15.089c0 2.084 3.85 3.21 7.473 3.21 3.625 0 7.477-1.126 7.477-3.21v-1.244h-.997v1.244Z" fill="#FFF"/></g></svg>