<svg width="40" height="40" xmlns="http://www.w3.org/2000/svg"><defs><linearGradient x1="0%" y1="100%" x2="100%" y2="0%" id="a"><stop stop-color="#1B660F" offset="0%"/><stop stop-color="#6CAE3E" offset="100%"/></linearGradient></defs><g fill="none" fill-rule="evenodd"><path d="M0 0h40v40H0z" fill="url(#a)"/><path d="M7.047 18h4.062c.198-1.71.888-3.39 1.937-4.671l-.002-5.314A12.977 12.977 0 0 0 7.047 18Zm25.952 1h1a14.02 14.02 0 0 1-4.663 10.432 13.824 13.824 0 0 1-8.292 3.524V33h-.99l-.032.001c-.535 0-1.073-.029-1.615-.089-6.437-.711-11.62-5.9-12.322-12.339-.621-5.695 2.212-11.14 7.22-13.871l.739-.404L14.047 19h-1l-.001-3.882A8.254 8.254 0 0 0 12.044 19c0 4.411 3.589 8 8 8 4.41 0 8-3.589 8-8h1c0 4.962-4.037 9-9 9s-9-4.038-9-9h-4v-.954c-.06.796-.054 1.604.035 2.419.653 5.976 5.463 10.793 11.438 11.453.512.057 1.02.078 1.527.077V28h1v3.95a12.825 12.825 0 0 0 7.625-3.263A13.02 13.02 0 0 0 32.999 19Zm.045-2h1v-7h-1v7Zm-5 0h1V6h-1v11Zm-5 5h1V12h-1v10Zm-5 2h1V9h-1v15Z" fill="#FFF"/></g></svg>