<svg width="40" height="40" xmlns="http://www.w3.org/2000/svg"><defs><linearGradient x1="0%" y1="100%" x2="100%" y2="0%" id="a"><stop stop-color="#055F4E" offset="0%"/><stop stop-color="#56C0A7" offset="100%"/></linearGradient></defs><g fill="none" fill-rule="evenodd"><path d="M0 0h40v40H0z" fill="url(#a)"/><path d="M8.25 14h2.25v-1H9l.75-1h2.75a.49.49 0 0 0 .247-.075l.711 1.422L12.246 15H10v1h2.5c.16 0 .31-.076.403-.205l1.393-1.899h1.428l1.371 1.897c.093.13.245.207.405.207h1.95l-1.142 2h-9.54l-1.656-2.483L8.25 14Zm6.457-4h2.586l1.853 1.854a.554.554 0 0 0 .361.146l2.684-.038 1.33 1.753-1.443 2.266.844.538 1.242-1.954.723.954L23.232 18H19.46l2.12-3.71-.869-.497-.71 1.245V15h-2.245l-1.168-1.616 1.1-1.648-.834-.555-1.142 1.715h-1.36l-.848-1.693L14.707 10Zm-6.623 8.777c.093.14.249.223.416.223h15a.499.499 0 0 0 .416-.223l2-3a.499.499 0 0 0-.018-.579l-3.062-4.041a.49.49 0 0 0-.405-.199l-2.727.039-1.85-1.851A.504.504 0 0 0 17.5 9h-3a.504.504 0 0 0-.354.146L12.293 11H9.5a.5.5 0 0 0-.4.2l-3 4a.5.5 0 0 0-.016.577l2 3Zm24.31 2.807c-.427.357-1.046.497-1.845.418a.504.504 0 0 0-.513.312C30.001 22.401 26.451 31 18.5 31c-4.207 0-11.206-1.184-11.491-9H27.5a.5.5 0 0 0 .451-.715c-1.144-2.407.183-3.83.667-4.244.31.087.905.314 1.236.814.261.394.315.906.161 1.524a.502.502 0 0 0 .57.614c.016-.001 1.306-.21 2.372.687a1.8 1.8 0 0 1-.564.904Zm1.46-1.438c-.939-.938-2.06-1.146-2.76-1.171.048-.632-.088-1.193-.406-1.672-.705-1.065-2.053-1.288-2.11-1.297a.514.514 0 0 0-.356.078c-.028.019-2.526 1.739-1.463 4.916H6.5a.5.5 0 0 0-.5.5C6 30.636 13.832 32 18.5 32c7.687 0 11.537-7.31 12.315-8.979.91.022 1.653-.196 2.22-.669.867-.726.96-1.768.963-1.812a.502.502 0 0 0-.144-.394Z" fill="#FFF"/></g></svg>