<svg width="40" height="40" xmlns="http://www.w3.org/2000/svg"><defs><linearGradient x1="0%" y1="100%" x2="100%" y2="0%" id="a"><stop stop-color="#B0084D" offset="0%"/><stop stop-color="#FF4F8B" offset="100%"/></linearGradient></defs><g fill="none" fill-rule="evenodd"><path d="M0 0h40v40H0z" fill="url(#a)"/><path d="M6 22h12v-1H6v1Zm5-3h8v-1h-8v1Zm11.424.751a.5.5 0 0 0 .379-.549 1.788 1.788 0 0 1-.014-.222c0-.654.5-1.386 1.114-1.631.29-.117.558-.162.8-.162.689 0 1.174.371 1.386.571.232.221.415.504.541.844a.5.5 0 0 0 .862.132.505.505 0 0 1 .55-.181c.246.075.402.33.431.604a.5.5 0 0 0 .414.572c.42.068 1.125.307 1.125 1.139 0 .983-.941 1.117-1.088 1.132h-6.172c-.659 0-1.22-.483-1.252-1.146 0-.728.502-1.002.924-1.103ZM22.751 23h6.211c.709-.055 2.05-.571 2.05-2.132 0-1.16-.77-1.795-1.596-2.042-.143-.613-.53-1.061-1.083-1.229a1.492 1.492 0 0 0-1.05.065 3.02 3.02 0 0 0-.507-.63c-.887-.841-2.101-1.07-3.244-.612-.97.388-1.709 1.448-1.742 2.487-.815.338-1.29 1.041-1.29 1.947l.004.129c.057 1.126 1.044 2.016 2.247 2.017ZM23 9h1V8h-1v1Zm2 0h4V8h-4v1Zm6.5 24h-11c-.729 0-1.5-.771-1.5-1.5V30h14v1.5c0 .729-.771 1.5-1.5 1.5ZM19 10V8.5c0-.729.771-1.5 1.5-1.5h11c.729 0 1.5.771 1.5 1.5V10H19Zm12.5-4h-11C19.215 6 18 7.215 18 8.5V17h1v-6h14v18H19v-6h-1v8.5c0 1.285 1.215 2.5 2.5 2.5h11c1.285 0 2.5-1.215 2.5-2.5v-23C34 7.215 32.785 6 31.5 6Z" fill="#FFF"/></g></svg>