<svg width="40" height="40" xmlns="http://www.w3.org/2000/svg"><defs><linearGradient x1="0%" y1="100%" x2="100%" y2="0%" id="a"><stop stop-color="#2E27AD" offset="0%"/><stop stop-color="#527FFF" offset="100%"/></linearGradient></defs><g fill="none" fill-rule="evenodd"><path d="M0 0h40v40H0z" fill="url(#a)"/><path d="M7.057 24.133a3.428 3.428 0 0 1 .753-2.854 3.6 3.6 0 0 1 2.768-1.296h12.109l-2.368 2.368.707.707 3.22-3.22a.499.499 0 0 0 0-.708l-3.22-3.222-.707.707 2.368 2.368h-12.11a4.596 4.596 0 0 0-3.535 1.655 4.47 4.47 0 0 0-.97 3.673c.379 2.093 2.37 3.672 4.63 3.672h1.263v-1h-1.262c-1.786 0-3.353-1.225-3.646-2.85m26.94-1.523c0 4.948-4.973 5.368-5.024 5.372l-13.575.001 2.406 2.407-.707.707-3.26-3.26a.5.5 0 0 1 0-.707l3.26-3.26.707.706-2.406 2.407h13.539c.13-.012 4.06-.363 4.06-4.373 0-.733-.136-1.393-.407-1.962-.347-.732-.92-1.329-1.7-1.773a5.645 5.645 0 0 0-.937-.424 6.308 6.308 0 0 0-.987-.256.5.5 0 0 1-.41-.563c.003-.38-.04-.75-.125-1.083-.267-1.046-.951-1.749-1.877-1.93a2.416 2.416 0 0 0-2.39.948.5.5 0 0 1-.874-.13c-.41-1.166-1.004-2.147-1.768-2.914-.937-.943-3.51-2.967-7.135-1.428-2.108.895-3.89 3.621-3.89 5.953h-1c0-2.737 2.019-5.82 4.499-6.873 2.906-1.233 5.985-.62 8.235 1.643.699.702 1.272 1.556 1.71 2.544a3.41 3.41 0 0 1 2.804-.725c1.3.254 2.294 1.25 2.655 2.664.079.311.129.644.149.993.247.058.493.13.734.213a6.63 6.63 0 0 1 1.104.5c.96.546 1.669 1.291 2.107 2.212.334.704.503 1.508.503 2.391" fill="#FFF"/></g></svg>