<svg width="40" height="40" xmlns="http://www.w3.org/2000/svg"><defs><linearGradient x1="0%" y1="100%" x2="100%" y2="0%" id="a"><stop stop-color="#4D27A8" offset="0%"/><stop stop-color="#A166FF" offset="100%"/></linearGradient></defs><g fill="none" fill-rule="evenodd"><path d="M0 0h40v40H0z" fill="url(#a)"/><path d="M23 26c-2.206 0-4-1.794-4-4s1.794-4 4-4 4 1.794 4 4-1.794 4-4 4Zm0-9c-2.757 0-5 2.243-5 5s2.243 5 5 5 5-2.243 5-5-2.243-5-5-5Zm9.284 13.308a.848.848 0 0 1-1.191.063l-3.469-3.13c.422-.372.8-.792 1.122-1.255l3.475 3.13a.848.848 0 0 1 .063 1.192ZM17 22c0-3.309 2.691-6 6-6s6 2.691 6 6-2.691 6-6 6-6-2.691-6-6Zm12.264 3.106A6.96 6.96 0 0 0 30 22c0-3.86-3.141-7-7-7s-7 3.14-7 7 3.141 7 7 7a6.957 6.957 0 0 0 3.817-1.14l3.607 3.254c.351.316.792.471 1.232.471.504 0 1.007-.205 1.371-.608a1.85 1.85 0 0 0-.135-2.603l-3.628-3.268ZM34 9.5V26h-1V10h-4v5h-1V9.5a.5.5 0 0 1 .5-.5h5a.5.5 0 0 1 .5.5ZM26 32h1v1.5a.5.5 0 0 1-.5.5h-5a.5.5 0 0 1-.5-.5V31h1v2h4v-1Zm-4-19h-1V6.5a.5.5 0 0 1 .5-.5h5a.5.5 0 0 1 .5.5V13h-1V7h-4v6Zm-3 17h1v3.5a.5.5 0 0 1-.5.5h-5a.5.5 0 0 1-.5-.5V26h1v7h4v-3Zm-4-14h-1v-5.5a.5.5 0 0 1 .5-.5h5a.5.5 0 0 1 .5.5V13h-1v-2h-4v5ZM8 33h4V16H8v17Zm4.5-18h-5a.5.5 0 0 0-.5.5v18a.5.5 0 0 0 .5.5h5a.5.5 0 0 0 .5-.5v-18a.5.5 0 0 0-.5-.5Z" fill="#FFF"/></g></svg>