<svg width="40" height="40" xmlns="http://www.w3.org/2000/svg"><defs><linearGradient x1="0%" y1="100%" x2="100%" y2="0%" id="a"><stop stop-color="#B0084D" offset="0%"/><stop stop-color="#FF4F8B" offset="100%"/></linearGradient></defs><g fill="none" fill-rule="evenodd"><path d="M0 0h40v40H0z" fill="url(#a)"/><path d="M14.027 24.131h4.013v-.97h-4.013v.97Zm15.959-5.31c-.11-1.476-.846-2.56-2.017-2.938-.927-.302-1.958-.084-2.746.536a10.025 10.025 0 0 0-1.813-2.395c-2.006-1.915-4.56-2.507-7.01-1.622-2.257.815-4.881 3.57-4.881 5.9v.029c-1.474.368-2.505 2.275-2.505 3.316h1.003c0-.752.969-2.408 2.003-2.408a.493.493 0 0 0 .502-.485v-.452c0-1.866 2.326-4.303 4.23-4.99 2.827-1.022 4.944.44 5.953 1.403.651.62 1.52 1.738 1.886 2.725.064.168.216.289.399.316a.517.517 0 0 0 .474-.188c.548-.704 1.424-1.01 2.187-.765.856.277 1.346 1.157 1.346 2.414 0 .238.178.44.42.478 1.238.2 3.58 1.28 3.58 3.95 0 3.321-3.357 3.383-3.498 3.384H18.04V28H29.5c1.557-.003 4.5-.916 4.5-4.354 0-3.047-2.432-4.427-4.014-4.824Zm-13.952 7.245h7.023v-.971h-7.023v.97ZM13.024 28h3.01v-.97h-3.01V28Zm-1.004-1.934h2.007v-.971H12.02v.97ZM7.003 24.13h5.017v-.97H7.003v.97ZM6 26.066h5.017v-.971H6v.97ZM8.007 28h3.01v-.97h-3.01V28Z" fill="#FFF"/></g></svg>