<svg width="40" height="40" xmlns="http://www.w3.org/2000/svg"><defs><linearGradient x1="0%" y1="100%" x2="100%" y2="0%" id="a"><stop stop-color="#055F4E" offset="0%"/><stop stop-color="#56C0A7" offset="100%"/></linearGradient></defs><g fill="none" fill-rule="evenodd"><path d="M0 0h40v40H0z" fill="url(#a)"/><path d="M20.786 24.54c0 .44-.353.798-.785.798a.792.792 0 0 1-.785-.799c0-.44.352-.798.785-.798.432 0 .785.359.785.798Zm-2.571 0c0 1 .8 1.816 1.786 1.816.984 0 1.786-.816 1.786-1.817 0-1-.802-1.816-1.786-1.816-.986 0-1.786.816-1.786 1.816Zm.763 5.445h2.003v-1.018h-2.003v1.018Zm-1.049 1.036h4.142v-3.088h-4.142v3.088Zm-1.001-3.597v4.106c0 .281.224.51.5.51h5.143c.278 0 .501-.229.501-.51v-4.106a.504.504 0 0 0-.5-.51h-5.143c-.277 0-.501.228-.501.51ZM24 32.982H16V24.09l4-2.714L24 24.09v8.892ZM20.278 20.34a.494.494 0 0 0-.556 0l-4.5 3.054a.513.513 0 0 0-.222.425v9.672c0 .28.223.509.5.509h9c.277 0 .501-.228.501-.51V23.82c0-.17-.083-.33-.223-.425l-4.5-3.054Zm8.236.758a.792.792 0 0 1-.786-.798c0-.44.352-.797.786-.797.431 0 .784.357.784.797 0 .44-.353.798-.784.798Zm-2.085-8.212a.792.792 0 0 1-.785-.797c0-.441.352-.799.785-.799.433 0 .786.358.786.799 0 .44-.353.797-.786.797Zm-1.962 3.475c.433 0 .786.357.786.797 0 .44-.353.798-.786.798a.792.792 0 0 1-.785-.798c0-.44.352-.797.785-.797Zm9.258-.124-3.71-1.896V9.565a.51.51 0 0 0-.29-.464l-6.532-3.054a.484.484 0 0 0-.402-.006L19.48 7.45l-3.312-1.41a.49.49 0 0 0-.433.021l-5.529 3.055a.509.509 0 0 0-.262.448v4.778l-3.67 1.895a.51.51 0 0 0-.274.454V22.8a.51.51 0 0 0 .22.422l2.743 1.885v3.802c0 .17.084.33.223.424l4.507 3.054.556-.848-4.285-2.903v-3.8a.512.512 0 0 0-.22-.422L7.003 22.53v-2.47l3.214-1.911-.504-.879-2.71 1.61v-1.877l3.42-1.766 2.505 1.548v2.719l-2.277 1.883.632.79 2.15-1.78 2.232 1.785.62-.8-2.356-1.884v-2.71l2.802-1.696a.508.508 0 0 0 .245-.437v-4.072h-1.002v3.782l-2.543 1.54-2.484-1.537v-4.5l1.98-1.095v3.846h1.002v-4.4l2.074-1.146 2.975 1.268v6.314a.51.51 0 0 0 .253.442l3.455 2.007c0 .018-.004.036-.004.054 0 1.002.8 1.816 1.786 1.816.985 0 1.787-.814 1.787-1.816 0-1-.802-1.815-1.787-1.815-.604 0-1.136.307-1.46.775L19.98 14.36V8.342l2.996-1.277 6.04 2.825v1.69h-.879c-.218-.754-.897-1.308-1.707-1.308-.985 0-1.786.815-1.786 1.817 0 1 .8 1.815 1.786 1.815.81 0 1.489-.554 1.707-1.306h.878v2.057a.51.51 0 0 0 .276.454l3.708 1.896v4.917l-2.704-1.571c0-.016.005-.033.005-.051 0-1-.8-1.815-1.785-1.815-.986 0-1.787.814-1.787 1.815 0 1.002.801 1.816 1.787 1.816.605 0 1.138-.31 1.46-.778l2.574 1.495-2.33 1.58a.514.514 0 0 0-.223.424v3.8l-4.284 2.902.556.848 4.507-3.054a.515.515 0 0 0 .222-.424v-3.8l2.782-1.885A.515.515 0 0 0 34 22.8v-6.108a.51.51 0 0 0-.275-.455Z" fill="#FFF"/></g></svg>