<svg width="40" height="40" xmlns="http://www.w3.org/2000/svg"><defs><linearGradient x1="0%" y1="100%" x2="100%" y2="0%" id="a"><stop stop-color="#2E27AD" offset="0%"/><stop stop-color="#527FFF" offset="100%"/></linearGradient></defs><g fill="none" fill-rule="evenodd"><path d="M0 0h40v40H0z" fill="url(#a)"/><path d="m22.336 29.772.262.965c-.984.268-2.014.404-3.06.404-4.56 0-8.148-2.106-10.103-5.929l.89-.455c1.776 3.472 5.047 5.384 9.213 5.384.958 0 1.899-.124 2.798-.369Zm11.373-8.697L33 21.78l-1.218-1.226c-.142 1.077-.472 2.181-.948 3.106l-.889-.457c.407-.791.689-1.73.825-2.653l-1.564 1.266-.629-.777 2.473-2.004a.5.5 0 0 1 .669.036l1.99 2.004Zm-22.969-3.22-2 2.011a.497.497 0 0 1-.705.004L6 17.87l.701-.713 1.24 1.219C8.496 12.103 13.565 7 19.51 7c4.403 0 8.749 2.715 10.815 6.757l-.89.455C27.565 10.555 23.483 8 19.51 8c-5.358 0-9.937 4.565-10.549 10.227l1.07-1.078.709.706Zm8.605 3.433a2.171 2.171 0 0 1-2.169-2.169c0-1.196.973-2.169 2.169-2.169 1.196 0 2.17.973 2.17 2.169a2.172 2.172 0 0 1-2.17 2.169Zm0-5.338a3.173 3.173 0 0 0-3.169 3.169 3.172 3.172 0 0 0 3.169 3.169 3.173 3.173 0 0 0 3.17-3.169 3.173 3.173 0 0 0-3.17-3.169Zm3.418 7.667a.5.5 0 0 0-.64-.09 5.18 5.18 0 0 1-1.625.673.501.501 0 0 0-.389.516l.033.576h-1.594l.033-.576a.5.5 0 0 0-.389-.517 5.156 5.156 0 0 1-1.624-.673.501.501 0 0 0-.639.09l-.385.431-1.127-1.127.432-.384a.502.502 0 0 0 .09-.641 5.105 5.105 0 0 1-.672-1.623.504.504 0 0 0-.517-.389l-.578.033v-1.594l.58.033a.488.488 0 0 0 .516-.388 5.176 5.176 0 0 1 .673-1.621.5.5 0 0 0-.089-.64l-.435-.388 1.127-1.128.388.435a.5.5 0 0 0 .639.09 5.154 5.154 0 0 1 1.621-.671.5.5 0 0 0 .389-.516l-.033-.582h1.594l-.033.582a.501.501 0 0 0 .389.516c.575.131 1.12.357 1.62.672a.498.498 0 0 0 .64-.09l.389-.435 1.126 1.127-.433.387a.498.498 0 0 0-.09.64c.315.499.542 1.045.673 1.622a.48.48 0 0 0 .516.388l.579-.033v1.594l-.578-.033a.499.499 0 0 0-.516.389 5.192 5.192 0 0 1-.673 1.623.499.499 0 0 0 .09.64l.432.385-1.126 1.127-.384-.43Zm2.592-.364a.5.5 0 0 0-.021-.726l-.522-.466c.199-.369.359-.756.479-1.157l.698.04a.502.502 0 0 0 .529-.499v-2.652a.498.498 0 0 0-.529-.499l-.7.04a6.138 6.138 0 0 0-.478-1.155l.523-.468a.497.497 0 0 0 .021-.726l-1.875-1.876a.58.58 0 0 0-.368-.146.5.5 0 0 0-.359.167l-.469.526a6.207 6.207 0 0 0-1.153-.479l.039-.702a.498.498 0 0 0-.499-.529h-2.652a.5.5 0 0 0-.499.529l.04.702a6.123 6.123 0 0 0-1.155.477l-.467-.524a.501.501 0 0 0-.36-.167.627.627 0 0 0-.367.146l-1.875 1.876a.496.496 0 0 0 .021.726l.524.468a6.173 6.173 0 0 0-.48 1.155l-.701-.04a.54.54 0 0 0-.372.136.5.5 0 0 0-.156.363v2.652c0 .138.057.269.156.364a.507.507 0 0 0 .372.135l.698-.04a6.2 6.2 0 0 0 .48 1.158l-.521.465a.495.495 0 0 0-.167.359.495.495 0 0 0 .146.367l1.875 1.875a.54.54 0 0 0 .368.147.505.505 0 0 0 .359-.167l.464-.522c.371.2.757.36 1.158.48l-.04.697a.501.501 0 0 0 .499.529h2.652a.498.498 0 0 0 .499-.529l-.039-.696c.401-.12.788-.28 1.158-.48l.464.521a.504.504 0 0 0 .358.167.508.508 0 0 0 .369-.147l1.875-1.875Zm3.129 5.657a.773.773 0 1 1-.572-1.308h.016c.2 0 .389.076.535.216a.765.765 0 0 1 .237.541.763.763 0 0 1-.216.551Zm-1.835-1.764a1.776 1.776 0 0 0 .049 2.507c.333.32.768.495 1.228.495l.036-.001a1.759 1.759 0 0 0 1.243-.543c.328-.342.504-.79.495-1.264a1.775 1.775 0 0 0-3.051-1.194Zm4.363 3.068-1.063-.213a.503.503 0 0 0-.394.086l-.531.389a.501.501 0 0 0-.2.345l-.126 1.071-1.587-.002-.123-1.061a.506.506 0 0 0-.199-.345l-.537-.398a.504.504 0 0 0-.395-.088l-1.055.211-.489-1.51.987-.452a.501.501 0 0 0 .267-.3l.202-.619a.501.501 0 0 0-.04-.399l-.531-.946 1.284-.931.729.791a.519.519 0 0 0 .371.161l.669-.004a.497.497 0 0 0 .364-.161l.724-.785 1.283.933-.528.941a.497.497 0 0 0-.041.397l.199.626a.5.5 0 0 0 .268.302l.983.452-.491 1.509Zm1.313-2.233-1.187-.544-.067-.208.641-1.139a.5.5 0 0 0-.142-.65l-2.003-1.457a.5.5 0 0 0-.661.066l-.879.952-.23.001-.88-.955a.501.501 0 0 0-.662-.066l-2.005 1.454a.499.499 0 0 0-.142.649l.642 1.143-.065.202-1.193.547a.5.5 0 0 0-.267.608l.762 2.356a.502.502 0 0 0 .574.337l1.274-.255.185.137.149 1.288a.501.501 0 0 0 .496.443l2.477.002h.001c.254 0 .466-.19.497-.442l.151-1.296.178-.13 1.282.258a.499.499 0 0 0 .574-.336l.767-2.355a.502.502 0 0 0-.267-.61Z" fill="#FFF"/></g></svg>