<svg width="40" height="40" xmlns="http://www.w3.org/2000/svg"><defs><linearGradient x1="0%" y1="100%" x2="100%" y2="0%" id="a"><stop stop-color="#4D27A8" offset="0%"/><stop stop-color="#A166FF" offset="100%"/></linearGradient></defs><g fill="none" fill-rule="evenodd"><path d="M0 0h40v40H0z" fill="url(#a)"/><path d="M33 13a1.001 1.001 0 0 0-2.002 0 1.001 1.001 0 0 0 2.001 0ZM21.51 24a1.001 1.001 0 0 0-2.002 0 1.001 1.001 0 0 0 2.002 0Zm-1.001-7c.551 0 1-.449 1-1a1.001 1.001 0 0 0-2 0c0 .551.448 1 1 1ZM10.002 27a1.001 1.001 0 0 0-2.001 0 1.001 1.001 0 0 0 2.001 0ZM34 13c0 1.103-.898 2-2.001 2-.376 0-.724-.11-1.024-.291l-8.926 8.029c.283.345.461.781.461 1.262 0 1.103-.898 2-2.001 2a2.003 2.003 0 0 1-2.001-2c0-.93.64-1.706 1.5-1.929v-4.143a1.983 1.983 0 0 1-.8-.421l-8.49 8.483c.177.298.285.64.285 1.01A2.003 2.003 0 0 1 7 27c0-1.104.898-2 2.001-2 .37 0 .712.107 1.01.283l8.62-8.614a1.964 1.964 0 0 1-.123-.669 2.002 2.002 0 0 1 4.002 0c0 .929-.64 1.705-1.5 1.928v4.143c.071.018.141.039.21.065l9.053-8.141a1.98 1.98 0 0 1-.276-.995A2.003 2.003 0 0 1 34 13ZM9.001 9h23.016v1h1V8.5a.5.5 0 0 0-.5-.5H8.501a.5.5 0 0 0-.5.5V24h1V9Zm23.016 7h1v16.5a.5.5 0 0 1-.5.5H8.501a.5.5 0 0 1-.5-.5V30h1v2h23.016V16Z" fill="#FFF"/></g></svg>