<svg width="40" height="40" xmlns="http://www.w3.org/2000/svg"><defs><linearGradient x1="0%" y1="100%" x2="100%" y2="0%" id="a"><stop stop-color="#055F4E" offset="0%"/><stop stop-color="#56C0A7" offset="100%"/></linearGradient></defs><g fill="none" fill-rule="evenodd"><path d="M0 0h40v40H0z" fill="url(#a)"/><path d="M27.962 20.629c-.496.517-1.32.53-1.834.036a1.298 1.298 0 0 1 .899-2.231 1.298 1.298 0 0 1 .935 2.195Zm-2.591-2.491a2.302 2.302 0 0 0 .064 3.248c.445.428 1.019.64 1.591.64.604 0 1.207-.236 1.657-.704a2.3 2.3 0 0 0-.064-3.247 2.3 2.3 0 0 0-3.248.063Zm6.197 4.46-1.7-.341a.502.502 0 0 0-.394.087l-.756.554a.503.503 0 0 0-.201.345l-.201 1.715-2.642-.003-.197-1.702a.505.505 0 0 0-.2-.344l-.766-.568a.506.506 0 0 0-.396-.088l-1.688.338-.815-2.513 1.579-.724a.503.503 0 0 0 .268-.3l.288-.882a.5.5 0 0 0-.04-.4l-.849-1.513 2.138-1.551 1.167 1.268a.505.505 0 0 0 .368.161h.003l.953-.006a.504.504 0 0 0 .366-.161l1.159-1.258 2.137 1.553-.847 1.507a.497.497 0 0 0-.041.397l.283.891c.043.134.14.244.268.303l1.575.724-.819 2.511Zm1.641-3.235-1.779-.817-.151-.473.958-1.705a.5.5 0 0 0-.141-.65l-2.856-2.077a.502.502 0 0 0-.662.065l-1.314 1.427-.515.002-1.318-1.432a.502.502 0 0 0-.662-.066l-2.86 2.074a.5.5 0 0 0-.141.65l.96 1.71-.152.465-1.784.818a.5.5 0 0 0-.267.608l1.087 3.36a.5.5 0 0 0 .574.337l1.908-.382.414.307.224 1.928a.502.502 0 0 0 .497.443l3.532.003a.5.5 0 0 0 .497-.442l.227-1.94.403-.295 1.92.385a.497.497 0 0 0 .574-.335l1.094-3.358a.502.502 0 0 0-.267-.61ZM29.5 32a1.501 1.501 0 1 1 1.5-1.5c0 .827-.673 1.5-1.5 1.5Zm-15 0a1.501 1.501 0 1 1 1.5-1.5c0 .827-.673 1.5-1.5 1.5Zm-4.453-10.552c.151-.12.287-.256.406-.407L15 23.448v4.602a2.501 2.501 0 0 0-.5-.05c-.227 0-.444.04-.653.097l-3.8-6.649ZM7 19.5a1.501 1.501 0 0 1 3 0c0 .827-.673 1.5-1.5 1.5S7 20.327 7 19.5Zm6.847-8.598c.209.057.426.098.653.098.171 0 .338-.018.5-.051v4.602l-4.547 2.408a2.449 2.449 0 0 0-.406-.408l3.8-6.649ZM14.5 7a1.501 1.501 0 0 1 0 3 1.501 1.501 0 0 1 0-3Zm15 0a1.501 1.501 0 0 1 0 3 1.501 1.501 0 0 1 0-3Zm-9.327 5.813-3.634-2.875c.195-.278.34-.594.41-.938h10.102c.01.051.031.097.045.148l-6.923 3.665ZM16 15.022v-4.235l3.207 2.537L16 15.022Zm3.207 10.653L16 28.212v-4.235l3.207 1.698Zm7.889 4.177c-.014.05-.035.096-.045.148H16.949a2.49 2.49 0 0 0-.41-.938l3.634-2.875 6.923 3.665ZM29.5 28c-.795 0-1.495.379-1.953.959l-6.517-3.451.781-.616-.621-.784-1.125.889L16 22.845V21h-1v1.316l-4.096-2.168c.014-.051.036-.097.045-.148H19v-1h-8.051c-.009-.052-.031-.098-.045-.148L15 16.683V18h1v-1.846l4.065-2.152 1.125.89.621-.784-.781-.617 6.517-3.45A2.486 2.486 0 0 0 29.5 11c1.379 0 2.5-1.122 2.5-2.5C32 7.121 30.879 6 29.5 6c-1.208 0-2.217.86-2.449 2H16.949A2.502 2.502 0 0 0 14.5 6 2.502 2.502 0 0 0 12 8.5c0 .791.377 1.49.953 1.948l-3.8 6.649A2.466 2.466 0 0 0 8.5 17 2.502 2.502 0 0 0 6 19.5C6 20.878 7.121 22 8.5 22c.228 0 .444-.041.653-.098l3.8 6.649A2.486 2.486 0 0 0 12 30.5c0 1.378 1.121 2.5 2.5 2.5a2.503 2.503 0 0 0 2.449-2h10.102a2.503 2.503 0 0 0 2.449 2c1.379 0 2.5-1.122 2.5-2.5 0-1.379-1.121-2.5-2.5-2.5Z" fill="#FFF"/></g></svg>