<svg width="40" height="40" xmlns="http://www.w3.org/2000/svg"><defs><linearGradient x1="0%" y1="100%" x2="100%" y2="0%" id="a"><stop stop-color="#1B660F" offset="0%"/><stop stop-color="#6CAE3E" offset="100%"/></linearGradient></defs><g fill="none" fill-rule="evenodd"><path d="M0 0h40v40H0z" fill="url(#a)"/><path d="m32.345 20.255-.362-.342-2.873 2.634c-.091-.024-.179-.056-.278-.056a1.111 1.111 0 1 0 1.112 1.11c0-.117-.034-.224-.068-.331l2.469-3.015Zm-2.152.383.404-.915a4.354 4.354 0 0 0-1.765-.376c-2.559 0-4.804 2.388-4.804 5.11h1c0-2.189 1.778-4.11 3.804-4.11.466 0 .924.098 1.361.291Zm2.382.685-.8.599a4.28 4.28 0 0 1 .863 2.535h1a5.276 5.276 0 0 0-1.063-3.134Zm-13.502 3.195h1.074l1.791-2.617-.484-.682-2.381 3.299Zm6.467-7.578h-1.059l-2.026 2.892-.542.751 1.541 2.209c.079-.373.206-.731.37-1.072l-.847-1.207 2.563-3.573Zm-3.535 2.251-1.576-2.251h-1.118l2.131 3.002.563-.751Zm-5.216.583-1.427-.547c-.471-.178-.833-.345-1.087-.5-.253-.156-.436-.329-.546-.52-.112-.191-.167-.442-.167-.754 0-.551.181-.975.547-1.273.364-.298.888-.447 1.573-.447.702 0 1.507.16 2.414.48v-.68a6.293 6.293 0 0 0-1.221-.393 5.851 5.851 0 0 0-1.233-.14c-.862 0-1.558.229-2.087.686-.529.458-.794 1.056-.794 1.794 0 .543.16.998.48 1.367.321.369.823.687 1.507.953l1.547.601c.533.204.92.436 1.16.693.241.258.361.569.361.933 0 .597-.22 1.067-.66 1.414-.441.347-1.03.521-1.767.521-.783 0-1.641-.169-2.574-.507v.68c.773.373 1.653.56 2.64.56.952 0 1.718-.245 2.301-.733.582-.49.873-1.129.873-1.921 0-.542-.146-.994-.44-1.354-.293-.36-.76-.664-1.4-.913ZM7 15.226h5.188v.707H7.786v3.534h3.722v.707H7.786v4.294H7v-9.242Z" fill="#FFF"/></g></svg>