<svg width="40" height="40" xmlns="http://www.w3.org/2000/svg"><defs><linearGradient x1="0%" y1="100%" x2="100%" y2="0%" id="a"><stop stop-color="#1B660F" offset="0%"/><stop stop-color="#6CAE3E" offset="100%"/></linearGradient></defs><g fill="none" fill-rule="evenodd"><path d="M0 0h40v40H0z" fill="url(#a)"/><path d="M26 12h4.293L26 7.707V12Zm6 .5v21a.5.5 0 0 1-.5.5h-21a.5.5 0 0 1-.5-.5V27h1v6h20V13h-5.5a.5.5 0 0 1-.5-.5V7H11v11h-1V6.5a.5.5 0 0 1 .5-.5h15c.133 0 .26.053.354.146l6 6A.504.504 0 0 1 32 12.5ZM23 27h2v-1h-2v1Zm-3 0h2v-1h-2v1Zm-3 0h2v-1h-2v1Zm6-2h2v-1h-2v1Zm-3 0h2v-1h-2v1Zm-3 0h2v-1h-2v1Zm1-4h6v-2h-6v2Zm7-2.5v3a.5.5 0 0 1-.5.5h-7a.5.5 0 0 1-.5-.5v-3a.5.5 0 0 1 .5-.5h7a.5.5 0 0 1 .5.5ZM15 29h12V16H15v13Zm-.5 1a.5.5 0 0 1-.5-.5v-14a.5.5 0 0 1 .5-.5h13a.5.5 0 0 1 .5.5v14a.5.5 0 0 1-.5.5h-13ZM8 26h5v-1H8v1Zm1-3h4v-1H9v1Zm-2-3h6v-1H7v1Z" fill="#FFF"/></g></svg>