<svg width="40" height="40" xmlns="http://www.w3.org/2000/svg"><defs><linearGradient x1="0%" y1="100%" x2="100%" y2="0%" id="a"><stop stop-color="#B0084D" offset="0%"/><stop stop-color="#FF4F8B" offset="100%"/></linearGradient></defs><g fill="none" fill-rule="evenodd"><path d="M0 0h40v40H0z" fill="url(#a)"/><path d="M31.849 22h-9.965l1.072-4h9.965l-1.072 4Zm1.724-5h-11a.5.5 0 0 0-.484.371l-1.34 5a.501.501 0 0 0 .484.629h11a.5.5 0 0 0 .483-.371l1.34-5a.498.498 0 0 0-.483-.629Zm-12.17 14.5c0 .827-.673 1.5-1.5 1.5s-1.5-.673-1.5-1.5.673-1.5 1.5-1.5 1.5.673 1.5 1.5ZM6.152 24l.537-2h8.965l-.537 2H6.152Zm0-6 .537-2h8.964l-.536 2H6.152Zm12.25-9.5c0-.827.674-1.5 1.5-1.5.828 0 1.5.673 1.5 1.5s-.672 1.5-1.5 1.5c-.826 0-1.5-.673-1.5-1.5Zm9 18.5h-16v-2H15.5a.502.502 0 0 0 .484-.371l.804-3a.5.5 0 0 0-.483-.629h-4.902v-2H15.5a.502.502 0 0 0 .484-.371l.804-3a.5.5 0 0 0-.483-.629h-4.902v-2h16v2h1v-2.5a.5.5 0 0 0-.5-.5h-7.5v-1.051a2.504 2.504 0 0 0 2-2.449c0-1.378-1.121-2.5-2.5-2.5a2.503 2.503 0 0 0-2.5 2.5c0 1.207.86 2.217 2 2.449V12h-8.5a.5.5 0 0 0-.5.5V15H6.305a.5.5 0 0 0-.483.371l-.805 3A.498.498 0 0 0 5.5 19h4.903v2H6.305a.5.5 0 0 0-.483.371l-.805 3A.498.498 0 0 0 5.5 25h4.903v2.5a.5.5 0 0 0 .5.5h8.5v1.051c-1.14.232-2 1.242-2 2.449 0 1.378 1.12 2.5 2.5 2.5 1.379 0 2.5-1.122 2.5-2.5a2.504 2.504 0 0 0-2-2.449V28h7.5a.5.5 0 0 0 .5-.5V25h-1v2Z" fill="#FFF"/></g></svg>