<svg width="40" height="40" xmlns="http://www.w3.org/2000/svg"><defs><linearGradient x1="0%" y1="100%" x2="100%" y2="0%" id="a"><stop stop-color="#055F4E" offset="0%"/><stop stop-color="#56C0A7" offset="100%"/></linearGradient></defs><g fill="none" fill-rule="evenodd"><path d="M0 0h40v40H0z" fill="url(#a)"/><path d="M9 31h3v-2H9v2Zm3.5-3h-4a.5.5 0 0 0-.5.5v3a.5.5 0 0 0 .5.5h4a.5.5 0 0 0 .5-.5v-3a.5.5 0 0 0-.5-.5Zm2.5 3h3v-2h-3v2Zm3.5-3h-4a.5.5 0 0 0-.5.5v3a.5.5 0 0 0 .5.5h4a.5.5 0 0 0 .5-.5v-3a.5.5 0 0 0-.5-.5ZM31 33H7V10h4v16h1v-7.863l5 4.583V26h1v-7.433l5 4.167V26.5a.5.5 0 0 0 .5.5H31v6ZM7 9h4V7H7v2Zm24.5 17H24v-3.5a.497.497 0 0 0-.18-.384l-6-5a.5.5 0 0 0-.82.384v3.863l-5-4.583V6.5a.5.5 0 0 0-.5-.5h-5a.5.5 0 0 0-.5.5v27a.5.5 0 0 0 .5.5h25a.5.5 0 0 0 .5-.5v-7a.5.5 0 0 0-.5-.5Zm1.143-2.961c-.339.386-.881.646-1.268.306l-4.819-4.326a7.04 7.04 0 0 0 1.57-1.268l4.659 3.976a.63.63 0 0 1 .213.543c-.018.254-.144.527-.355.769Zm.796-2.068-4.683-3.997A6.96 6.96 0 0 0 30 13c0-3.86-3.141-7-7-7s-7 3.14-7 7c0 .358.027.72.082 1.076l.988-.152A6.006 6.006 0 0 1 23 7c3.309 0 6 2.691 6 6s-2.691 6-6 6v1c.916 0 1.789-.182 2.591-.503l5.12 4.596c.315.276.691.41 1.08.41.557 0 1.139-.275 1.604-.805.355-.406.569-.889.601-1.361a1.628 1.628 0 0 0-.557-1.366Z" fill="#FFF"/></g></svg>