<svg width="40" height="40" xmlns="http://www.w3.org/2000/svg"><defs><linearGradient x1="0%" y1="100%" x2="100%" y2="0%" id="a"><stop stop-color="#2E27AD" offset="0%"/><stop stop-color="#527FFF" offset="100%"/></linearGradient></defs><g fill="none" fill-rule="evenodd"><path d="M0 0h40v40H0z" fill="url(#a)"/><path d="M11.854 28.854 7.708 33H10.5v1h-4a.5.5 0 0 1-.5-.5v-4h1v2.793l4.147-4.146.707.707ZM33 29.5h1v4c0 .277-.223.5-.5.5h-4v-1h2.793l-4.146-4.146.707-.707L33 32.293V29.5Zm1-23v4h-1V7.708l-4.146 4.146-.707-.707L32.293 7H29.5V6h4a.5.5 0 0 1 .5.5Zm-27 4H6v-4a.5.5 0 0 1 .5-.5h4v1H7.527l4.319 4.14-.691.721L7 7.88v2.62Zm25.726 8.9c0-1.558-1.806-3.1-4.83-4.123l.32-.947c3.502 1.185 5.51 3.033 5.51 5.07 0 2.037-2.008 3.886-5.51 5.071l-.32-.948c3.024-1.023 4.83-2.565 4.83-4.123Zm-24.989 0c0 1.492 1.69 2.993 4.521 4.014l-.34.94c-3.293-1.187-5.181-2.993-5.181-4.954 0-1.961 1.888-3.767 5.181-4.955l.34.941c-2.831 1.021-4.521 2.522-4.521 4.014Zm12.286-3.681c-3.136 0-4.891-.799-4.917-1.125.026-.326 1.781-1.125 4.917-1.125 3.133 0 4.89.798 4.917 1.125-.027.326-1.784 1.125-4.917 1.125Zm0 3.555c-3.182 0-4.917-.926-4.917-1.402v-2.03c1.135.595 3.069.877 4.917.877 1.848 0 3.782-.282 4.917-.877v2.03c0 .476-1.735 1.402-4.917 1.402Zm0 3.737c-3.182 0-4.917-.927-4.917-1.403v-2.343c1.119.665 3.023 1.009 4.917 1.009 1.894 0 3.798-.344 4.917-1.009v2.343c0 .476-1.735 1.403-4.917 1.403Zm0 3.279c-3.182 0-4.917-.915-4.917-1.385v-1.904c1.119.666 3.023 1.01 4.917 1.01 1.894 0 3.798-.344 4.917-1.01v1.904c0 .47-1.735 1.385-4.917 1.385Zm0-13.821c-2.85 0-5.917.665-5.917 2.125v10.311c0 1.566 2.977 2.385 5.917 2.385s5.917-.819 5.917-2.385V14.594c0-1.46-3.067-2.125-5.917-2.125Z" fill="#FFF"/></g></svg>