<svg width="40" height="40" xmlns="http://www.w3.org/2000/svg"><defs><linearGradient x1="0%" y1="100%" x2="100%" y2="0%" id="a"><stop stop-color="#BD0816" offset="0%"/><stop stop-color="#FF5252" offset="100%"/></linearGradient></defs><g fill="none" fill-rule="evenodd"><path d="M0 0h40v40H0z" fill="url(#a)"/><path d="m33 23.224-8-2.312v-2.885l8 2.327v2.87Zm-3.775 6.534-1.94 1.938-3.979-7.135 1.948-1.948 3.971 7.145ZM22.452 24h-3.74a.501.501 0 0 0-.481.362l-.072.25L16 22.453v-3.74a.5.5 0 0 0-.361-.481l-.25-.072L17.548 16h3.74a.5.5 0 0 0 .481-.361l.072-.25L24 17.548v3.74a.5.5 0 0 0 .361.48l.25.073L22.452 24Zm-2.806 9h-2.87l2.312-8h2.886l-2.328 8Zm-9.404-3.776-1.938-1.938 7.135-3.98 1.949 1.949-7.146 3.969ZM7 19.646v-2.869l8 2.312v2.885l-8-2.328Zm3.775-9.403 1.94-1.938 3.979 7.134-1.948 1.949-3.971-7.145ZM20.354 7h2.87l-2.312 8h-2.886l2.328-8Zm9.404 3.776 1.938 1.939-7.135 3.98-1.949-1.949 7.146-3.97Zm3.882 8.723-7.921-2.305 7.042-3.928a.503.503 0 0 0 .11-.791l-2.673-2.672a.5.5 0 0 0-.596-.084l-7.293 4.052 2.06-7.132a.5.5 0 0 0-.48-.639h-3.91a.501.501 0 0 0-.481.361l-2.304 7.921-3.928-7.042a.501.501 0 0 0-.79-.11L9.802 9.803a.498.498 0 0 0-.084.596l4.053 7.294-7.132-2.062a.502.502 0 0 0-.639.481v3.91a.5.5 0 0 0 .36.48l7.921 2.305-7.042 3.928a.501.501 0 0 0-.11.79l2.673 2.673a.499.499 0 0 0 .596.084l7.293-4.052-2.06 7.132a.497.497 0 0 0 .48.638h3.91a.502.502 0 0 0 .481-.36l2.304-7.921 3.928 7.042a.501.501 0 0 0 .79.11l2.674-2.673a.499.499 0 0 0 .084-.596l-4.053-7.294 7.132 2.062a.5.5 0 0 0 .639-.481v-3.91a.5.5 0 0 0-.36-.48Z" fill="#FFF"/></g></svg>