<svg width="40" height="40" xmlns="http://www.w3.org/2000/svg"><defs><linearGradient x1="0%" y1="100%" x2="100%" y2="0%" id="a"><stop stop-color="#B0084D" offset="0%"/><stop stop-color="#FF4F8B" offset="100%"/></linearGradient></defs><g fill="none" fill-rule="evenodd"><path d="M0 0h40v40H0z" fill="url(#a)"/><path d="M25.103 24h2v1h-2v2h-1v-2h-2v-1h2v-2h1v2Zm3-6h4v-4h-4v4Zm4.5-5h-5a.5.5 0 0 0-.5.5v5a.5.5 0 0 0 .5.5h5a.5.5 0 0 0 .5-.5v-5a.5.5 0 0 0-.5-.5Zm-1.5 18h2v1h-2v2h-1v-2h-2v-1h2v-2h1v2Zm-11 1h5v-1h-5v1Zm2.757-14.229-1.095-1.095 1.842-1.842 1.095 1.095-1.842 1.842ZM8.301 32.329l-1.094-1.095 13.851-13.851 1.095 1.095L8.301 32.329Zm17.461-16.753-1.802-1.803a.5.5 0 0 0-.707 0L6.146 30.88a.5.5 0 0 0 0 .707l1.802 1.803a.5.5 0 0 0 .707 0l17.107-17.107a.5.5 0 0 0 0-.707ZM13.103 16h-2v-1h2v-2h1v2h2v1h-2v2h-1v-2Zm8-5h4V7h-4v4Zm-.5 1h5a.5.5 0 0 0 .5-.5v-5a.5.5 0 0 0-.5-.5h-5a.5.5 0 0 0-.5.5v5a.5.5 0 0 0 .5.5Zm-9.5-3h3V8h-3v1Zm-5 0h4V8h-4v1Zm22 2h4V7h-4v4Zm4.5-5h-5a.5.5 0 0 0-.5.5v5a.5.5 0 0 0 .5.5h5a.5.5 0 0 0 .5-.5v-5a.5.5 0 0 0-.5-.5Z" fill="#FFF"/></g></svg>