<svg width="40" height="40" xmlns="http://www.w3.org/2000/svg"><defs><linearGradient x1="0%" y1="100%" x2="100%" y2="0%" id="a"><stop stop-color="#1B660F" offset="0%"/><stop stop-color="#6CAE3E" offset="100%"/></linearGradient></defs><g fill="none" fill-rule="evenodd"><path d="M0 0h40v40H0z" fill="url(#a)"/><path d="M34 20c0 7.72-6.345 14-14.143 14-5.981 0-11.336-3.75-13.328-9.332l.942-.336C9.32 29.517 14.298 33 19.857 33 27.104 33 33 27.168 33 20S27.104 7 19.857 7c-5.124 0-9.812 2.977-11.943 7.585l-.908-.42C9.301 9.205 14.345 6 19.857 6 27.655 6 34 12.28 34 20ZM6 22h3v-1H6v1Zm0-2h3v-1H6v1Zm1-2h2v-1H7v1Zm20.5 8c-.827 0-1.5-.673-1.5-1.5s.673-1.5 1.5-1.5 1.5.673 1.5 1.5-.673 1.5-1.5 1.5Zm-8 0c-.827 0-1.5-.673-1.5-1.5s.673-1.5 1.5-1.5 1.5.673 1.5 1.5-.673 1.5-1.5 1.5Zm-5-3c.827 0 1.5.673 1.5 1.5s-.673 1.5-1.5 1.5-1.5-.673-1.5-1.5.673-1.5 1.5-1.5Zm10-8h-14a.5.5 0 0 0-.5.5v8a.5.5 0 0 0 .5.5h1.551a2.503 2.503 0 0 0 2.449 3c1.379 0 2.5-1.122 2.5-2.5S15.879 22 14.5 22c-.813 0-1.53.396-1.987 1H11v-7h13v7h-2.513a2.488 2.488 0 0 0-1.987-1 2.503 2.503 0 0 0-2.5 2.5c0 1.378 1.121 2.5 2.5 2.5a2.503 2.503 0 0 0 2.449-3H24.5a.5.5 0 0 0 .5-.5V19h2.833c1.276 0 2.167.908 2.167 2.208V23h-.513a2.488 2.488 0 0 0-1.987-1 2.503 2.503 0 0 0-2.5 2.5c0 1.378 1.121 2.5 2.5 2.5a2.503 2.503 0 0 0 2.449-3h.551a.5.5 0 0 0 .5-.5v-2.292C31 19.35 29.668 18 27.833 18H25v-2.5a.5.5 0 0 0-.5-.5Z" fill="#FFF"/></g></svg>