<svg width="40" height="40" xmlns="http://www.w3.org/2000/svg"><defs><linearGradient x1="0%" y1="100%" x2="100%" y2="0%" id="a"><stop stop-color="#B0084D" offset="0%"/><stop stop-color="#FF4F8B" offset="100%"/></linearGradient></defs><g fill="none" fill-rule="evenodd"><path d="M0 0h40v40H0z" fill="url(#a)"/><path d="M16.707 34H9.305l-3.237-6 3.237-6h7.402l3.236 6-3.236 6Zm.739-12.737a.502.502 0 0 0-.44-.263h-8a.502.502 0 0 0-.441.263l-3.505 6.5a.498.498 0 0 0 0 .474l3.505 6.5a.502.502 0 0 0 .441.263h8a.502.502 0 0 0 .44-.263l3.506-6.5a.504.504 0 0 0 0-.474l-3.506-6.5ZM8.676 13.5l1.877 3.25a.485.485 0 0 0 .112.134L11.887 19H9.305l-2.967-5.5h2.338ZM9.305 7h7.402l2.967 5.5h-2.338l-1.877-3.25a.499.499 0 0 0-.433-.25h-4.041a.498.498 0 0 0-.432.25L8.676 12.5H6.338L9.305 7Zm7.642 11.555-1.395-1.965 1.784-3.09h2.338l-2.727 5.055ZM11.31 16l-1.75-3.03L11.274 10h3.463l1.733 3-1.733 3H11.31Zm1.732 3-1.155-2h2.73l1.42 2h-2.995Zm-4.477.737a.502.502 0 0 0 .441.263h8a.502.502 0 0 0 .44-.263l3.506-6.5a.504.504 0 0 0 0-.474l-3.506-6.5a.502.502 0 0 0-.44-.263h-8a.502.502 0 0 0-.441.263l-3.505 6.5a.498.498 0 0 0 0 .474l3.505 6.5ZM14.737 31h-3.463l-1.732-3 1.732-3h3.463l1.733 3-1.733 3Zm.289-7h-4.041a.498.498 0 0 0-.432.25l-2.021 3.5a.497.497 0 0 0 0 .5l2.021 3.5c.089.155.254.25.432.25h4.041a.499.499 0 0 0 .433-.25l2.02-3.5a.497.497 0 0 0 0-.5l-2.02-3.5a.499.499 0 0 0-.433-.25Zm8.267-10h7.426l2.922 5h-2.368l-1.851-2.777a.499.499 0 0 0-.416-.223h-4a.499.499 0 0 0-.416.223L22.738 19h-2.367l2.922-5Zm-4.227 5.749A.501.501 0 0 0 19.5 20h3.506a.499.499 0 0 0 .416-.223L25.273 17h3.465l1.852 2.777c.093.14.249.223.416.223h3.506a.5.5 0 0 0 .431-.752l-3.506-6a.497.497 0 0 0-.431-.248h-8a.5.5 0 0 0-.432.248l-3.506 6a.503.503 0 0 0-.002.501Zm11.653 7.261h-7.426l-2.923-5.02h2.367l1.853 2.787a.5.5 0 0 0 .416.223h4a.5.5 0 0 0 .416-.223l1.852-2.787h2.368l-2.923 5.02Zm3.793-6.02h-3.506a.5.5 0 0 0-.416.223L28.737 24h-3.463l-1.852-2.787a.5.5 0 0 0-.416-.223H19.5a.499.499 0 0 0-.432.751l3.506 6.021a.498.498 0 0 0 .432.248h8a.496.496 0 0 0 .431-.248l3.506-6.021a.499.499 0 0 0-.431-.751Z" fill="#FFF"/></g></svg>