<svg width="40" height="40" xmlns="http://www.w3.org/2000/svg"><defs><linearGradient x1="0%" y1="100%" x2="100%" y2="0%" id="a"><stop stop-color="#2E27AD" offset="0%"/><stop stop-color="#527FFF" offset="100%"/></linearGradient></defs><g fill="none" fill-rule="evenodd"><path d="M0 0h40v40H0z" fill="url(#a)"/><path d="m18.082 22.997 2.95-6.591.912.408-2.95 6.59-.912-.407Zm5.131-2.008 1.77-1.292-1.559-1.582.713-.702 1.966 1.995a.5.5 0 0 1-.062.755l-2.238 1.633-.59-.807Zm-5.4-2.831-1.795 1.31 1.564 1.583-.711.703-1.973-1.995a.498.498 0 0 1 .061-.755l2.265-1.653.589.807Zm.222-11.297L8 12.794v11.07H7V12.509a.5.5 0 0 1 .245-.43l10.28-6.08.51.862ZM34 14.864v12.52a.5.5 0 0 1-.251.433L23.478 33.73l-.499-.866L33 27.095V14.864h1Zm-6 9.414-7.54 4.288L13 24.194v-8.662l7.455-4.287L28 15.619v8.659Zm1 .29v-9.237a.502.502 0 0 0-.249-.433l-8.044-4.663a.502.502 0 0 0-.5-.001l-7.956 4.575a.502.502 0 0 0-.251.434v9.237a.5.5 0 0 0 .247.432l7.956 4.662a.496.496 0 0 0 .5.004l8.044-4.575a.5.5 0 0 0 .253-.434Z" fill="#FFF"/></g></svg>