<svg width="40" height="40" xmlns="http://www.w3.org/2000/svg"><defs><linearGradient x1="0%" y1="100%" x2="100%" y2="0%" id="a"><stop stop-color="#055F4E" offset="0%"/><stop stop-color="#56C0A7" offset="100%"/></linearGradient></defs><g fill="none" fill-rule="evenodd"><path d="M0 0h40v40H0z" fill="url(#a)"/><path d="M11.934 21.873c0 .042.011.08.013.123h2.223v1.005h-2.079c.504 1.968 2.27 3.434 4.384 3.434 2.114 0 3.88-1.466 4.384-3.434h-2.151v-1.005h2.295c.001-.042.013-.081.013-.123 0-2.515-2.037-4.563-4.541-4.563-2.504 0-4.541 2.048-4.541 4.563Zm-1 0c0-3.07 2.485-5.568 5.54-5.568 3.057 0 5.543 2.498 5.543 5.568 0 3.07-2.486 5.567-5.542 5.567-3.056 0-5.542-2.498-5.542-5.567Zm-1.017 0c0 3.632 2.943 6.587 6.558 6.587 3.616 0 6.559-2.955 6.559-6.587 0-3.633-2.943-6.588-6.56-6.588-3.614 0-6.557 2.955-6.557 6.588ZM9.009 23H7.392l.724 1.19-.855.523-1.187-1.953a.505.505 0 0 1 0-.525l1.187-1.953.855.524-.724 1.19h1.53c0-.042-.006-.082-.006-.124 0-4.187 3.391-7.593 7.559-7.593s7.56 3.406 7.56 7.593c0 .042-.007.082-.007.123h4.981v1.005h-5.068c-.546 3.652-3.681 6.464-7.466 6.464s-6.92-2.812-7.466-6.464Zm6.492-2.47h.473v1.465h-.973v1.005h3.002v-1.005h-1.028v-1.465h.527v.502h1v-1.005a.5.5 0 0 0-.5-.502h-3.001c-.276 0-.5.224-.5.502v1.005h1v-.502Zm9.506-.44h4.002v-1.005h-4.002v1.005Zm-1 5.983h5.002v-1.005h-5.003v1.005Zm3.94-12.084h2.293l-2.294-2.22v2.22Zm3.88.141a.504.504 0 0 1 .153.362v18.004a.501.501 0 0 1-.5.503H15.55a.502.502 0 0 1-.501-.503V30.08h1v1.916h14.93v-17h-3.533a.501.501 0 0 1-.5-.502v-3.404H16.049v1.903h-1v-2.406c0-.277.224-.502.5-.502h11.897c.13 0 .254.05.347.141l4.034 3.906ZM34 11.89v19.195h-1V12.076l-3.502-4.07H17.913v.966h-1.001v-1.47c0-.277.223-.502.5-.502h12.314c.147 0 .284.063.379.174l3.773 4.386a.502.502 0 0 1 .122.329Z" fill="#FFF"/></g></svg>