<svg width="40" height="40" xmlns="http://www.w3.org/2000/svg"><defs><linearGradient x1="0%" y1="100%" x2="100%" y2="0%" id="a"><stop stop-color="#055F4E" offset="0%"/><stop stop-color="#56C0A7" offset="100%"/></linearGradient></defs><g fill="none" fill-rule="evenodd"><path d="M0 0h40v40H0z" fill="url(#a)"/><path d="M21 20v12.35L7.769 20h13.23Zm.699 13.958a.499.499 0 0 0 .3-.458v-14a.5.5 0 0 0-.5-.5h-15a.5.5 0 0 0-.34.866l15 14a.5.5 0 0 0 .54.092ZM34.5 34a.504.504 0 0 1-.336-.129l-10.5-9.5.672-.742L34 32.374V7H7.707l9.647 9.646-.708.708-10.5-10.5A.5.5 0 0 1 6.5 6h28a.5.5 0 0 1 .5.5v27a.499.499 0 0 1-.5.5Z" fill="#FFF"/></g></svg>