<svg width="40" height="40" xmlns="http://www.w3.org/2000/svg"><defs><linearGradient x1="0%" y1="100%" x2="100%" y2="0%" id="a"><stop stop-color="#C8511B" offset="0%"/><stop stop-color="#F90" offset="100%"/></linearGradient></defs><g fill="none" fill-rule="evenodd"><path d="M0 0h40v40H0z" fill="url(#a)"/><path d="M29.814 13.876a8.904 8.904 0 0 0-.736-1.019l3.277-1.36c.2.315.496.788.73 1.19l-3.27 1.19Zm-2.534 6.261a8.735 8.735 0 0 0-.848-3.632l3.24-1.179c.504 1.144.83 2.348.967 3.59l-3.359 1.221Zm5.515-.942a12.078 12.078 0 0 1-1.127 5.41c-2.833 6.077-10.08 8.712-16.157 5.882a12.11 12.11 0 0 1-4.342-3.42l3.483-1.27a8.635 8.635 0 0 0 2.311 1.576 8.662 8.662 0 0 0 6.668.288 8.664 8.664 0 0 0 5.673-7.196l3.491-1.27Zm-25.893 4.42 3.24-1.18a8.736 8.736 0 0 0 1.686 3.327l-1.635.595v.001l-1.725.627a12.243 12.243 0 0 1-1.566-3.37Zm6.817-5.043c.005.375.034.752.09 1.128l-3.282 1.195c-.077-.37-.136-.737-.177-1.097l3.37-1.226Zm11.573-2.099a7.723 7.723 0 0 1 .966 4.35.5.5 0 0 0 .67.506l1.315-.478a7.58 7.58 0 0 1-.595 1.88 7.665 7.665 0 0 1-4.358 3.99 7.673 7.673 0 0 1-5.905-.255 7.635 7.635 0 0 1-2.248-1.595.495.495 0 0 0-.529-.12l-1.76.64a7.713 7.713 0 0 1-1.825-3.613l3.518-1.28a.502.502 0 0 0 .32-.565 7.67 7.67 0 0 1-.12-2.045.503.503 0 0 0-.67-.508l-1.069.39a7.534 7.534 0 0 1 .586-1.877c1.8-3.859 6.401-5.536 10.264-3.736.83.387 1.585.925 2.243 1.6.144.145.362.19.55.111l1.458-.606c.34.372.64.793.91 1.24l-3.456 1.258a.502.502 0 0 0-.298.295.502.502 0 0 0 .033.418ZM8.438 19.43a12.126 12.126 0 0 1 1.131-5.412c2.833-6.076 10.083-8.714 16.156-5.88 1.632.761 3.067 1.9 4.208 3.281l-3.366 1.398a8.594 8.594 0 0 0-2.293-1.566c-4.356-2.033-9.56-.14-11.592 4.22a8.638 8.638 0 0 0-.743 2.685l-3.5 1.274Zm25.812-6.69c-.32-.659-1.243-2.078-1.282-2.138a.5.5 0 0 0-.61-.189l-1.455.604a13.177 13.177 0 0 0-4.755-3.786c-6.573-3.064-14.42-.21-17.485 6.364a13.129 13.129 0 0 0-1.188 6.575.499.499 0 0 0 .67.431l1.24-.452c.062.46.157.93.27 1.4l-3.527 1.283a.498.498 0 0 0-.313.591 13.208 13.208 0 0 0 2.054 4.453.499.499 0 0 0 .578.181l1.755-.639a13.074 13.074 0 0 0 4.887 3.975 13.078 13.078 0 0 0 5.54 1.232c4.957 0 9.715-2.815 11.945-7.596a13.07 13.07 0 0 0 1.183-6.574.497.497 0 0 0-.669-.43l-1.335.486-.149.054a13.245 13.245 0 0 0-1.127-3.867l3.493-1.27a.5.5 0 0 0 .28-.687Z" fill="#FFF"/></g></svg>