<svg width="40" height="40" xmlns="http://www.w3.org/2000/svg"><defs><linearGradient x1="0%" y1="100%" x2="100%" y2="0%" id="a"><stop stop-color="#BD0816" offset="0%"/><stop stop-color="#FF5252" offset="100%"/></linearGradient></defs><g fill="none" fill-rule="evenodd"><path d="M0 0h40v40H0z" fill="url(#a)"/><path d="M17.75 15.605c-.66 0-1.196-.547-1.196-1.218 0-.672.536-1.219 1.196-1.219.66 0 1.196.547 1.196 1.22 0 .67-.537 1.217-1.196 1.217m-.888 3.797c1.1 0 1.996.912 1.996 2.034 0 1.121-.895 2.035-1.996 2.035-1.1 0-1.996-.914-1.996-2.035 0-1.122.895-2.034 1.996-2.034m.044 5.956c-3.918 0-7.106-3.25-7.106-7.243 0-3.993 3.188-7.241 7.106-7.241 3.917 0 7.106 3.248 7.106 7.241 0 1.037-.22 2.021-.607 2.914l-3.728-.553a3.016 3.016 0 0 0-1.434-1.718v-2.21a2.215 2.215 0 0 0 1.689-2.16c0-1.227-.98-2.225-2.182-2.225-1.203 0-2.182.998-2.182 2.224 0 1.052.724 1.932 1.689 2.16v1.89c-.131-.017-.26-.04-.395-.04-.783 0-1.492.315-2.025.82l-1.233-1.268c.343-.494.549-1.092.549-1.741 0-1.035-.51-1.986-1.364-2.545l-.533.846a2.02 2.02 0 0 1 .911 1.699c0 1.113-.89 2.02-1.983 2.02v1.005c.644 0 1.238-.215 1.725-.572l1.327 1.366c-.22.424-.356.898-.356 1.409 0 1.676 1.338 3.04 2.982 3.04 1.617 0 2.932-1.323 2.974-2.961l3.073.455c-1.26 2.031-3.477 3.388-6.003 3.388m0-15.489c-4.462 0-8.092 3.7-8.092 8.246 0 4.548 3.63 8.248 8.092 8.248 4.461 0 8.092-3.7 8.092-8.248 0-4.547-3.63-8.246-8.092-8.246M32.593 32.44a1.64 1.64 0 0 1-2.338.126l-6.405-5.888c.852-.72 1.59-1.57 2.194-2.517l6.426 5.898c.676.623.73 1.692.123 2.381M6.986 18.115c0-5.574 4.45-10.11 9.92-10.11 5.469 0 9.919 4.536 9.919 10.11 0 5.575-4.45 10.11-9.92 10.11s-9.919-4.535-9.919-10.11m26.145 11.198-6.576-6.036a11.213 11.213 0 0 0 1.256-5.162C27.81 11.986 22.918 7 16.906 7 10.892 7 6 11.986 6 18.115c0 6.13 4.892 11.116 10.906 11.116 2.276 0 4.391-.718 6.141-1.939l6.548 6.02a2.62 2.62 0 0 0 3.73-.199 2.737 2.737 0 0 0-.194-3.8" fill="#FFF"/></g></svg>