<svg width="40" height="40" xmlns="http://www.w3.org/2000/svg"><defs><linearGradient x1="0%" y1="100%" x2="100%" y2="0%" id="a"><stop stop-color="#B0084D" offset="0%"/><stop stop-color="#FF4F8B" offset="100%"/></linearGradient></defs><g fill="none" fill-rule="evenodd"><path d="M0 0h40v40H0z" fill="url(#a)"/><path d="M17.496 13.989c.827 0 1.5-.673 1.5-1.5s-.673-1.5-1.5-1.5-1.5.673-1.5 1.5.673 1.5 1.5 1.5Zm0 1a2.503 2.503 0 0 1-2.5-2.5c0-1.378 1.121-2.5 2.5-2.5s2.5 1.122 2.5 2.5-1.121 2.5-2.5 2.5Zm-5.5 4.5h1c0-.827.673-1.5 1.5-1.5s1.5.673 1.5 1.5h1c0-1.378-1.121-2.5-2.5-2.5a2.503 2.503 0 0 0-2.5 2.5Zm10.354.854 1.646-1.647 1.646 1.647.708-.708-1.647-1.646 1.647-1.646-.708-.708-1.646 1.647-1.646-1.647-.708.708 1.647 1.646-1.647 1.646.708.708Zm-9.354 1.646v6.928c1.539-.395 3-2.461 3-3.428v-3.5h-3Zm3 5.888c-.753.995-1.847 1.86-3 2.063v.549c0 1.543.251 2.5 1.5 2.5s1.5-.957 1.5-2.5v-2.612Zm-5-6.888h7v1h-1v8.5c0 .957 0 3.5-2.5 3.5s-2.5-2.543-2.5-3.5v-8.5h-1v-1ZM33.5 18.796c0 4.782-4.766 5.188-4.814 5.192h-9.69v-1h9.653c.121-.01 3.851-.348 3.851-4.192 0-3.31-2.96-4.077-3.867-4.233a.499.499 0 0 1-.408-.574c.001-1.424-.601-2.456-1.652-2.801a2.284 2.284 0 0 0-2.545.837.498.498 0 0 1-.874-.13c-.393-1.12-.966-2.061-1.699-2.8-.9-.905-3.367-2.851-6.851-1.37-2.012.855-3.589 3.319-3.589 5.608l.046.792a.498.498 0 0 1-.375.513c-1.189.306-3.186 1.247-3.186 4.118 0 2.152 1.165 3.339 2.142 3.956.331.209.571.277.986.277l-.002 1c-.602 0-1.027-.122-1.518-.431-.974-.615-2.608-2.056-2.608-4.802 0-3.31 2.23-4.536 3.54-4.97l-.024-.423c-.001-2.735 1.804-5.541 4.198-6.558 2.805-1.192 5.777-.6 7.95 1.585a8.105 8.105 0 0 1 1.639 2.432 3.253 3.253 0 0 1 3.083-.584c1.372.45 2.226 1.718 2.33 3.424 2.142.504 4.284 2.08 4.284 5.134Z" fill="#FFF"/></g></svg>