<svg width="40" height="40" xmlns="http://www.w3.org/2000/svg"><defs><linearGradient x1="0%" y1="100%" x2="100%" y2="0%" id="a"><stop stop-color="#1B660F" offset="0%"/><stop stop-color="#6CAE3E" offset="100%"/></linearGradient></defs><g fill="none" fill-rule="evenodd"><path d="M0 0h40v40H0z" fill="url(#a)"/><path d="M24.527 28a2.503 2.503 0 0 1-2.5-2.5c0-1.378 1.121-2.5 2.5-2.5s2.5 1.122 2.5 2.5-1.121 2.5-2.5 2.5Zm0-6c-1.93 0-3.5 1.57-3.5 3.5s1.57 3.5 3.5 3.5 3.5-1.57 3.5-3.5-1.57-3.5-3.5-3.5Zm7.572 10.298a.524.524 0 0 1-.74.039l-3.107-2.802c.256-.237.49-.497.697-.779l3.111 2.802a.526.526 0 0 1 .039.74ZM20.027 25.5c0-2.481 2.019-4.5 4.5-4.5s4.5 2.019 4.5 4.5-2.019 4.5-4.5 4.5a4.505 4.505 0 0 1-4.5-4.5Zm12.703 5.315-3.254-2.931c.35-.722.551-1.529.551-2.384 0-3.033-2.468-5.5-5.5-5.5a5.506 5.506 0 0 0-5.5 5.5c0 3.033 2.468 5.5 5.5 5.5a5.453 5.453 0 0 0 2.918-.847l3.245 2.927a1.525 1.525 0 0 0 2.152-.112 1.53 1.53 0 0 0-.112-2.153ZM8.998 21.938a2.594 2.594 0 0 0 1.481-.974l2.617 1.957a2.326 2.326 0 0 0-.097.629c0 1.159.887 2.195 1.996 2.442v6.986H8.998v-11.04ZM7 19.494c0-.773.728-1.504 1.499-1.504.77 0 1.499.731 1.499 1.504 0 .771-.729 1.499-1.499 1.499-.771 0-1.499-.728-1.499-1.499Zm8.498 2.556c.77 0 1.499.729 1.499 1.5 0 .77-.729 1.499-1.499 1.499-.771 0-1.499-.729-1.499-1.499 0-.771.728-1.5 1.499-1.5Zm7.004-9.31c.77 0 1.499.729 1.499 1.5 0 .77-.729 1.499-1.499 1.499-.771 0-1.499-.729-1.499-1.499 0-.771.728-1.5 1.499-1.5Zm8.004-2.913c.77 0 1.499.728 1.499 1.499 0 .771-.729 1.5-1.499 1.5-.771 0-1.5-.729-1.5-1.5s.729-1.499 1.5-1.499ZM15.995 25.994c1.111-.245 2.002-1.282 2.002-2.444 0-.422-.127-.821-.329-1.178l4.247-5.718c.026.007.05.02.078.026V19h1v-2.314c1.114-.243 2.008-1.282 2.008-2.446 0-.061-.015-.119-.02-.178l3.212-1.836c.314.762 1.002 1.364 1.813 1.544v7.227h1V13.77c1.11-.247 1.999-1.283 1.999-2.444s-.889-2.197-1.999-2.443V7h-1v1.883c-1.06.235-1.907 1.191-1.983 2.288l-3.341 1.91c-.354-.639-.971-1.131-1.689-1.288V7h-1v4.799c-1.107.25-1.99 1.283-1.99 2.441 0 .779.405 1.493 1.003 1.959l-4.007 5.396a2.525 2.525 0 0 0-1.004-.49V7h-1v14.107a2.582 2.582 0 0 0-1.431.915l-2.641-1.974c.045-.18.075-.364.075-.554 0-1.164-.89-2.202-2-2.448V7h-1v10.047C6.888 17.294 6 18.331 6 19.494c0 1.161.888 2.196 1.998 2.443v12.041h18.029v-1H15.995v-6.984Z" fill="#FFF"/></g></svg>