<svg width="40" height="40" xmlns="http://www.w3.org/2000/svg"><defs><linearGradient x1="0%" y1="100%" x2="100%" y2="0%" id="a"><stop stop-color="#2E27AD" offset="0%"/><stop stop-color="#527FFF" offset="100%"/></linearGradient></defs><g fill="none" fill-rule="evenodd"><path d="M0 0h40v40H0z" fill="url(#a)"/><path d="M15.637 33h3.076V22.017h-3.076V33ZM10.06 15.998h3.354c-.184 1.89.137 3.347.518 4.333-1.536-.896-3.563-2.415-3.872-4.333Zm6.529-2h1.302l.542 1h-2.43l.586-1Zm.595-1.993.503.493-.503.493-.502-.493.502-.493Zm4.089 7.836a6.697 6.697 0 0 0 .808-3.843h2.545c-.285 1.56-1.846 2.892-3.353 3.843Zm-3.58-3.843h3.368c.272 2.87-1.521 4.6-2.02 5.019h-1.347v-5.019ZM15.4 21.017c-.34-.531-1.26-2.27-.968-5.019h2.242v5.019H15.4Zm10.291-5.519c0-.276-.228-.5-.51-.5h-5.593l-.941-1.735a.477.477 0 0 0-.145-.15l.061-.061a.496.496 0 0 0 .15-.354v-.4a.496.496 0 0 0-.15-.354l-.814-.8a.518.518 0 0 0-.361-.146h-.408a.518.518 0 0 0-.36.146l-.816.8a.499.499 0 0 0-.149.354v.4c0 .133.054.26.149.354l.124.122c-.024.026-.057.043-.076.075l-1.025 1.749H9.51a.504.504 0 0 0-.51.5c0 3.274 3.98 5.54 5.617 6.334V33.5c0 .276.229.5.51.5h4.096c.281 0 .51-.224.51-.5V21.83c2.353-1.117 5.958-3.32 5.958-6.332Zm-4.81-4.13-.914.445a3.07 3.07 0 0 0-2.761-1.68 3.073 3.073 0 0 0-2.762 1.68l-.913-.444c.698-1.38 2.106-2.237 3.675-2.237 1.568 0 2.976.856 3.675 2.237Zm.515-.257c-.8-1.57-2.405-2.545-4.19-2.545-1.79 0-3.397.978-4.193 2.553l-.913-.445c.97-1.918 2.927-3.108 5.106-3.108 2.174 0 4.129 1.187 5.101 3.098l-.911.447Zm-9.814-.69-.912-.446C11.912 7.523 14.417 6 17.206 6c2.78 0 5.282 1.517 6.527 3.958l-.912.447C21.749 8.305 19.598 7 17.206 7c-2.399 0-4.554 1.31-5.624 3.42Zm14.403 12.737c.48-.832.903-1.918.883-3.16h3.024c-.422 1.218-2.284 2.344-3.907 3.16ZM21.77 33h2.039v-8.001H21.77v8ZM31 19.498c0-.276-.228-.5-.51-.5H24.83v1h.993c.033 1.97-1.294 3.554-1.719 4h-2.332v-2h-1.02V33.5c0 .276.228.5.51.5h3.058c.282 0 .51-.224.51-.5v-8.683C27.16 23.754 31 21.986 31 19.498Z" fill="#FFF"/></g></svg>