<svg width="40" height="40" xmlns="http://www.w3.org/2000/svg"><defs><linearGradient x1="0%" y1="100%" x2="100%" y2="0%" id="a"><stop stop-color="#055F4E" offset="0%"/><stop stop-color="#56C0A7" offset="100%"/></linearGradient></defs><g fill="none" fill-rule="evenodd"><path d="M0 0h40v40H0z" fill="url(#a)"/><path d="M33 27h-2.5a.5.5 0 0 1-.5-.5V24h-3v2.5a.5.5 0 0 1-.5.5H24v3h2.5a.5.5 0 0 1 .5.5V33h3v-2.5a.5.5 0 0 1 .5-.5H33v-3Zm1-.5v4a.5.5 0 0 1-.5.5H31v2.5a.5.5 0 0 1-.5.5h-4a.5.5 0 0 1-.5-.5V31h-2.5a.5.5 0 0 1-.5-.5v-4a.5.5 0 0 1 .5-.5H26v-2.5a.5.5 0 0 1 .5-.5h4a.5.5 0 0 1 .5.5V26h2.5a.5.5 0 0 1 .5.5ZM7.098 9.986 11 27.867V9.185l-.125.023-3.78.778ZM26 7.174V10h3.117L26 7.174ZM12 32h11v1H11.5a.492.492 0 0 1-.48-.396l-.008.002L6.012 9.705a.497.497 0 0 1 .387-.597L11 8.177V6.5a.5.5 0 0 1 .5-.5H26c.124 0 .244.046.336.129l4.5 4.079c.104.095.164.23.164.371V22h-1V11h-4.5a.5.5 0 0 1-.5-.5V7H12v25Zm2-7h8v-1h-8v1Zm0-3h12v-1H14v1Zm0-9h9v-1h-9v1Zm0 6h13v-1H14v1Zm4-3h9v-1h-9v1Zm-4 0h3v-1h-3v1Z" fill="#FFF"/></g></svg>