<svg width="40" height="40" xmlns="http://www.w3.org/2000/svg"><defs><linearGradient x1="0%" y1="100%" x2="100%" y2="0%" id="a"><stop stop-color="#C8511B" offset="0%"/><stop stop-color="#F90" offset="100%"/></linearGradient></defs><g fill="none" fill-rule="evenodd"><path d="M0 0h40v40H0z" fill="url(#a)"/><path d="M16.17 21.5h2.038v-1H16.17v1Zm-3.057 0h2.038v-1h-2.038v1Zm-3.056 0h2.037v-1h-2.037v1ZM7 21.5h2.038v-1H7v1Zm23.178 2.642.983-.322-.983-.321-.327-.965-.328.965-.982.321.982.322.328.964.327-.964Zm-11.51 1.684-.329.965-.983.322.983.322.328.964.327-.964.983-.322-.983-.322-.327-.965Zm0-12.44-.329.965-.983.322.983.321.328.965.327-.965.983-.321-.983-.322-.327-.965Zm1.876 7.616c1.87 1.203 3.184 3.549 3.726 6.66 1.042-1.341 2.703-3.909 2.703-6.66 0-2.738-1.468-5.144-2.7-6.68-.538 3.12-1.854 5.474-3.73 6.68Zm-1.272.459a.498.498 0 0 1 0-.919c2.226-.937 3.738-3.654 4.145-7.454a.513.513 0 0 1 .884-.283c1.379 1.496 3.69 4.55 3.69 8.197 0 3.873-2.824 7.249-3.69 8.192a.506.506 0 0 1-.535.141.503.503 0 0 1-.349-.422c-.41-3.799-1.92-6.515-4.145-7.452ZM34 20.5C34 26.841 28.744 32 22.283 32c-5.22 0-9.858-3.439-11.276-8.364l.981-.272C13.283 27.86 17.517 31 22.283 31c5.9 0 10.698-4.71 10.698-10.5S28.182 10 22.283 10c-5.165 0-9.59 3.613-10.52 8.59l-1.004-.18C11.779 12.958 16.626 9 22.283 9 28.743 9 34 14.159 34 20.5Z" fill="#FFF"/></g></svg>