<svg width="40" height="40" xmlns="http://www.w3.org/2000/svg"><defs><linearGradient x1="0%" y1="100%" x2="100%" y2="0%" id="a"><stop stop-color="#C8511B" offset="0%"/><stop stop-color="#F90" offset="100%"/></linearGradient></defs><g fill="none" fill-rule="evenodd"><path d="M0 0h40v40H0z" fill="url(#a)"/><path d="M27.012 13.594c0-.242 0-.49-.016-.618-.128-.015-.372-.015-.61-.015h-7.833c-.238 0-.482 0-.61.016-.015.128-.015.375-.015.617v16.885c0 .241 0 .489.015.618.128.016.372.016.61.016h7.834c.237 0 .481 0 .609-.016.016-.13.016-.377.016-.618V13.594Zm-3.075 19.405h1.956v-.885h-1.956V33Zm-4.89 0h1.91v-.885h-1.91V33ZM28 13.594v16.885c0 1.218-.173 1.551-1.119 1.62v1.4c0 .277-.22.501-.494.501h-2.943a.497.497 0 0 1-.494-.5v-1.386h-1.004V33.5c0 .277-.222.501-.495.501h-2.898a.498.498 0 0 1-.494-.5v-1.402c-.947-.068-1.12-.401-1.12-1.619V13.594c0-1.405.226-1.635 1.614-1.635h7.834c1.387 0 1.613.23 1.613 1.635Zm-2.074 8.89a.996.996 0 0 1-.988 1.001.997.997 0 0 1-.989-1.001.997.997 0 0 1 .989-1.001c.545 0 .988.45.988 1.001Zm0-3.005a.995.995 0 0 1-.988 1.001.996.996 0 0 1-.989-1.001.997.997 0 0 1 .989-1.002c.545 0 .988.45.988 1.002Zm0-3.004a.995.995 0 0 1-.988 1.001.996.996 0 0 1-.989-1.001.997.997 0 0 1 .989-1.002c.545 0 .988.45.988 1.002Zm-6.93.501h3.954v-1.001h-3.954v1.001Zm0 6.009h3.954v-1.002h-3.954v1.002Zm0-3.005h3.954v-1h-3.954v1Zm.484-12.979c-1.538 0-2.496.737-3.027 1.356-.903 1.05-1.185 2.415-1.064 3.302a.5.5 0 0 1-.403.562c-.233.044-2.286.514-1.962 3.241.01.08.274 2.015 2.018 2.015h.989v1.001h-.989c-2.1 0-2.88-1.894-3-2.896-.34-2.872 1.469-3.895 2.333-4.217-.039-1.255.461-2.652 1.332-3.666C16.375 6.924 17.571 6 19.48 6h.001c2.869 0 4.126 1.812 4.633 2.957.658-.528 1.515-.597 1.956-.475 1.698.471 1.745 2.397 1.746 2.479l-.988.014c-.001-.05-.043-1.256-1.02-1.527-.192-.052-1.076-.003-1.424.735a.492.492 0 0 1-.509.28.498.498 0 0 1-.423-.402c-.024-.125-.63-3.06-3.97-3.06h-.002Z" fill="#FFF"/></g></svg>