<svg width="40" height="40" xmlns="http://www.w3.org/2000/svg"><defs><linearGradient x1="0%" y1="100%" x2="100%" y2="0%" id="a"><stop stop-color="#055F4E" offset="0%"/><stop stop-color="#56C0A7" offset="100%"/></linearGradient></defs><g fill="none" fill-rule="evenodd"><path d="M0 0h40v40H0z" fill="url(#a)"/><path d="m21.75 21.131.5.865A7.525 7.525 0 0 0 26 15.5c0-4.136-3.364-7.5-7.5-7.5S11 11.364 11 15.5a7.525 7.525 0 0 0 3.75 6.496l.5-.865A6.525 6.525 0 0 1 12 15.5c0-3.584 2.916-6.5 6.5-6.5s6.5 2.916 6.5 6.5a6.525 6.525 0 0 1-3.25 5.631Zm4.813-.608a9.43 9.43 0 0 1-1.612 1.951l5.559 4.493c.526.414 1.199.057 1.599-.453.42-.53.58-1.278.075-1.677l-5.621-4.314ZM9 15.5C9 10.262 13.262 6 18.5 6s9.5 4.262 9.5 9.5a9.493 9.493 0 0 1-.958 4.13l5.756 4.418c.891.705.931 2.03.097 3.086-.524.663-1.21 1.014-1.872 1.014-.403 0-.796-.131-1.137-.4l-5.727-4.629c-.41.304-.839.586-1.303.826l-.459-.889a8.503 8.503 0 0 0 3.373-3.142l-.005-.004.02-.026A8.49 8.49 0 0 0 27 15.5c0-4.687-3.813-8.5-8.5-8.5-4.687 0-8.5 3.813-8.5 8.5a8.488 8.488 0 0 0 5.194 7.834l-.388.921A9.484 9.484 0 0 1 9 15.5ZM7 33V6H6v28h28v-1H7Zm1.938-2.261-.876-.478 3-5.5a.497.497 0 0 1 .425-.261.538.538 0 0 1 .439.238l3.301 5.363 2.78-16.683a.5.5 0 0 1 .479-.418h.014a.5.5 0 0 1 .488.392l3.802 17.111 2.356-2.356a.5.5 0 0 1 .708 0l2.646 2.646 1.646-1.646.708.707-2 2a.502.502 0 0 1-.708 0L25.5 29.207l-2.646 2.647a.5.5 0 0 1-.842-.245L18.57 16.121l-2.577 15.461a.5.5 0 0 1-.919.18l-3.548-5.765-2.588 4.742Z" fill="#FFF"/></g></svg>