<svg width="40" height="40" xmlns="http://www.w3.org/2000/svg"><defs><linearGradient x1="0%" y1="100%" x2="100%" y2="0%" id="a"><stop stop-color="#BD0816" offset="0%"/><stop stop-color="#FF5252" offset="100%"/></linearGradient></defs><g fill="none" fill-rule="evenodd"><path d="M0 0h40v40H0z" fill="url(#a)"/><path d="M28.002 20.905c-.99-.79-1.822-1.451-2.522-1.996.825-1.51 1.788-3.223 2.222-3.599 1.257.812 5.098 7.709 5.33 9.376-.922-.497-3.262-2.369-5.03-3.781m-7.55 4.089c-.288-.139-.885-1.005-1.574-2.13l.44-.726c.892-1.474 2.368-3.91 2.904-4.25.311.104 1.057.624 1.959 1.304-1.124 2.065-3.116 5.702-3.73 5.802m-3.947-.353c-.336-.407-.929-1.507-1.304-2.202-.96-1.782-1.318-2.4-1.832-2.418H13.346c-.407 0-.884.408-2.647 2.068-.675.636-1.66 1.563-2.36 2.12 1.012-2.256 3.974-7.633 4.978-8.98.458.67 1.374 2.315 2.134 3.683.912 1.64 1.646 2.937 2.249 3.949-.468.756-.926 1.466-1.196 1.78m16.791-2.111c-.916-2.129-4.267-8.28-5.607-8.28-.698 0-1.353 1.008-3.016 4.042-1.313-.985-2.04-1.423-2.454-1.438h-.025c-.734 0-1.544 1.144-3.724 4.746l-.175.288c-.692-1.177-1.413-2.474-1.974-3.48-2.188-3.936-2.494-4.389-2.971-4.407L13.34 14c-1.148 0-5.871 9.652-6.164 10.413-.143.372-.32.835.015 1.13.623.551 1.536-.21 4.185-2.704.65-.612 1.504-1.415 1.906-1.71.262.353.72 1.206 1.041 1.802 1.104 2.048 1.576 2.823 2.173 2.84.429-.028.798-.373 1.79-1.951C19.294 25.412 19.87 26 20.364 26h.007c1.111-.013 2.328-1.994 4.617-6.189.8.621 1.651 1.301 2.398 1.899 5.065 4.048 5.837 4.519 6.381 3.916.302-.337.455-.945-.472-3.096" fill="#FFF"/></g></svg>