<svg width="40" height="40" xmlns="http://www.w3.org/2000/svg"><defs><linearGradient x1="0%" y1="100%" x2="100%" y2="0%" id="a"><stop stop-color="#055F4E" offset="0%"/><stop stop-color="#56C0A7" offset="100%"/></linearGradient></defs><g fill="none" fill-rule="evenodd"><path d="M0 0h40v40H0z" fill="url(#a)"/><path d="M20.285 15.849h2.952v-.983h-2.952v.983Zm0-2.934h4.92v-.983h-4.92v.983Zm3.936 5.835h5.905v-.983H24.22v.983Zm.984-2.901h4.92v-.983h-4.92v.983Zm7.81 11.694h-7.81v.983h8.303c.272 0 .492-.22.492-.491V19.75h-.984v7.792Zm-.864-15.611-4.062-3.39v3.39h4.062Zm1.849.491v4.379h-.984v-3.887h-5.42a.492.492 0 0 1-.492-.492v-4.44l-7.82.002v6.665h-.983V7.494c0-.272.22-.492.492-.492L27.596 7a.49.49 0 0 1 .316.114l5.91 4.932a.49.49 0 0 1 .178.377Zm-23.556 14.21h.984v-3.932h-.984v3.933Zm1.968.984h.984v-6.883h-.984v6.883Zm1.998-.983h.985v-4.916h-.985v4.916Zm1.892.983h.984v-6.883h-.984v6.883Zm1.983-.983h.984v-4.916h-.984v4.916Zm1.984.983h.984v-6.883h-.984v6.883Zm1.938-1.966h.984v-3.933h-.984v3.933Zm.62 2.678.82.543c-1.645 2.486-4.149 3.914-6.869 3.914-1.477 0-3.142-.436-4.42-1.148l-4.437 2.294A.668.668 0 0 1 7.63 34a.631.631 0 0 1-.556-.924l2.298-4.409c-.594-.963-1.425-2.642-1.425-4.47 0-4.683 3.806-8.213 8.854-8.213 1.747 0 3.004.552 4.356 1.382l-.515.838c-1.21-.743-2.326-1.237-3.841-1.237-3.814 0-7.87 2.534-7.87 7.23 0 1.27.518 2.794 1.42 4.178a.491.491 0 0 1 .024.496l-1.917 3.678 3.69-1.908a.486.486 0 0 1 .482.017c1.158.706 2.747 1.145 4.15 1.145 2.418 0 4.566-1.234 6.048-3.474Z" fill="#FFF"/></g></svg>