<svg xmlns="http://www.w3.org/2000/svg" width="18" height="18"><defs><linearGradient id="a" x1="9" y1="11.06" x2="9" y2="7.53" gradientUnits="userSpaceOnUse"><stop offset="0" stop-color="#e26708"/><stop offset="1" stop-color="#f78d1e"/></linearGradient><linearGradient id="b" x1="9" y1="17.7" x2="9" y2=".3" gradientUnits="userSpaceOnUse"><stop offset="0" stop-color="#e26708"/><stop offset=".005" stop-color="#e26808"/><stop offset=".117" stop-color="#ec7912"/><stop offset=".257" stop-color="#f28419"/><stop offset=".454" stop-color="#f68b1d"/><stop offset="1" stop-color="#f78d1e"/></linearGradient></defs><path d="m9 9.7-2.5 2.5c0-.2-.2-.4-.3-.6s-.2-.2-.3-.2L8.3 9 5.7 6.4a1.214 1.214 0 0 0 .7-.7L9 8.3l2.6-2.6c.1.2.1.3.3.4a1.38 1.38 0 0 1 .4.3L9.7 9l2.5 2.5a.87.87 0 0 0-.6.8Z" fill="#e27908"/><g fill="#e27908"><path d="m5.5 13.6 2.2 2.2v-.1a1.612 1.612 0 0 1 .5-1.1l-1.8-1.8a1.06 1.06 0 0 1-.9.8ZM2.2 10.2l2.1 2.2a1 1 0 0 1 .7-.9L3.3 9.7a1.612 1.612 0 0 1-1.1.5ZM4.3 5.6 2.5 7.4a1.451 1.451 0 0 1 1 .7l1.7-1.7-.6-.3c-.1-.2-.2-.3-.3-.5ZM7.7 2.2 5.6 4.3a1.091 1.091 0 0 1 .8.8l1.8-1.8a1.43 1.43 0 0 1-.5-1.1ZM12.5 4.3l-2-2a1.329 1.329 0 0 1-.6 1l1.8 1.8a1.091 1.091 0 0 1 .8-.8ZM15.7 7.5l-1.9-1.9a1.091 1.091 0 0 1-.8.8l1.8 1.8a1.111 1.111 0 0 1 .9-.7ZM14.8 9.8l-1.7 1.7c.2.1.3.1.4.3a.908.908 0 0 1 .3.7l2.1-2.1a2 2 0 0 1-1.1-.6ZM11.7 12.9 10 14.6l.1.1a1.28 1.28 0 0 1 .4 1l2.1-2.1a.908.908 0 0 1-.7-.3.762.762 0 0 1-.2-.4Z"/></g><circle cx="5.4" cy="5.4" r="1.5" fill="#f78d1e"/><circle cx="12.6" cy="5.4" r="1.5" fill="#f78d1e"/><circle cx="5.4" cy="12.6" r="1.5" fill="#f78d1e"/><circle cx="12.6" cy="12.6" r="1.5" fill="#f78d1e"/><path d="M2.2 7.1A1.9 1.9 0 1 1 .3 9a1.9 1.9 0 0 1 1.9-1.9Zm13.6 0A1.9 1.9 0 1 1 13.9 9a1.9 1.9 0 0 1 1.9-1.9Z" fill="url(#a)"/><path d="M9 .3a1.9 1.9 0 1 1-1.9 1.9A1.9 1.9 0 0 1 9 .3Zm0 13.6a1.9 1.9 0 1 1-1.9 1.9A1.9 1.9 0 0 1 9 13.9Z" fill="url(#b)"/></svg>