<svg xmlns="http://www.w3.org/2000/svg" width="18" height="18"><defs><linearGradient id="a" x1="8.153" y1="17.5" x2="8.153" y2="2.093" gradientUnits="userSpaceOnUse"><stop offset="0" stop-color="#ef7100"/><stop offset=".9" stop-color="#f78d1e"/></linearGradient></defs><path d="M1.931 2.109 3.142.7a.591.591 0 0 1 .444-.2H15.2a.813.813 0 0 1 .888.831v14.5a.59.59 0 0 1-.192.435l-1.308 1.191H2.716l-.8-.337Z" fill="#d15900"/><path d="m2.905 2.1.742-.846a.522.522 0 0 1 .394-.179h10.845a.522.522 0 0 1 .522.522v13.786a.521.521 0 0 1-.171.386l-1.158 1.055Z" fill="#fff"/><path d="M14.008 2.093H1.969a.056.056 0 0 0-.056.056v14.966a.385.385 0 0 0 .387.385h11.71a.385.385 0 0 0 .385-.385V2.478a.386.386 0 0 0-.387-.385Z" fill="url(#a)"/><path d="M10.5 9.859a2.263 2.263 0 0 1-.638 1.587.384.384 0 0 1-.574.064.394.394 0 0 1 .006-.593 1.565 1.565 0 0 0 0-2.174.39.39 0 1 1 .572-.522 2.311 2.311 0 0 1 .634 1.638ZM5.807 9.858a2.382 2.382 0 0 1 .636-1.632.392.392 0 1 1 .569.528 1.565 1.565 0 0 0 0 2.158.4.4 0 0 1 0 .607.381.381 0 0 1-.545-.052 2.367 2.367 0 0 1-.66-1.609ZM7.5 9.822a.657.657 0 0 1 .659-.656.665.665 0 0 1 0 1.329.65.65 0 0 1-.659-.673Z" fill="#fff"/><path d="M12.5 9.8a3.369 3.369 0 0 1-.952 2.367.573.573 0 0 1-.855.1.588.588 0 0 1 .009-.886 2.333 2.333 0 0 0 0-3.242.582.582 0 1 1 .854-.778A3.437 3.437 0 0 1 12.5 9.8ZM3.8 9.726a3.369 3.369 0 0 0 .952 2.367.573.573 0 0 0 .855.1.588.588 0 0 0-.007-.893 2.334 2.334 0 0 1 0-3.242.582.582 0 1 0-.853-.778A3.442 3.442 0 0 0 3.8 9.726Z" fill="#fff"/></svg>