<svg xmlns="http://www.w3.org/2000/svg" width="18" height="18"><defs><linearGradient id="b" x1="7.243" y1="9.904" x2="7.232" y2="8.458" gradientUnits="userSpaceOnUse"><stop offset="0" stop-color="#ccc"/><stop offset=".123" stop-color="#d7d7d7"/><stop offset="1" stop-color="#fcfcfc"/></linearGradient><linearGradient id="c" x1="9.337" y1="11.349" x2="9.337" y2="10.053" gradientUnits="userSpaceOnUse"><stop offset="0" stop-color="#ccc"/><stop offset=".123" stop-color="#d7d7d7"/><stop offset="1" stop-color="#fcfcfc"/></linearGradient><radialGradient id="a" cx="1427.09" cy="3357.234" r="20.684" gradientTransform="matrix(.15 0 0 .15 -205.142 -494.591)" gradientUnits="userSpaceOnUse"><stop offset=".183" stop-color="#5ea0ef"/><stop offset="1" stop-color="#0078d4"/></radialGradient></defs><g fill="#b3b3b3"><path d="M3.236 9c-.153.233-.3.465-.436.7a21.85 21.85 0 0 0 2.512 2.992A21.986 21.986 0 0 0 8.3 15.2q.348-.207.7-.438a20.494 20.494 0 0 1-3.165-2.6A20.56 20.56 0 0 1 3.236 9ZM1.894 1.893a2.571 2.571 0 0 1 1.874-.648 6.9 6.9 0 0 1 2.319.469 13.289 13.289 0 0 1 2.231 1.08q.341-.234.682-.448a14.426 14.426 0 0 0-2.66-1.327C4.159.223 2.394.347 1.371 1.37-.116 2.858.362 5.846 2.339 9c.145-.231.3-.463.461-.7C1.187 5.591.731 3.056 1.894 1.893Z"/></g><path d="M3.77 17.5a3.28 3.28 0 0 1-2.4-.871C-.7 14.56 1.035 9.589 5.312 5.311A18.318 18.318 0 0 1 11.66 1.02c2.181-.8 3.946-.672 4.969.35 2.068 2.068.336 7.039-3.941 11.317C9.632 15.742 6.222 17.5 3.77 17.5ZM14.232 1.245a6.9 6.9 0 0 0-2.319.469 17.572 17.572 0 0 0-6.078 4.12C1.983 9.686.178 14.389 1.894 16.105s6.419-.089 10.271-3.941 5.657-8.556 3.941-10.271a2.571 2.571 0 0 0-1.874-.648Z" fill="#5ea0ef"/><path fill="#b3b3b3" d="m2.8 8.303.692 1.072-.554.517-.842-1.293.704-.296zM15.05 8.107a21.862 21.862 0 0 0-2.362-2.8 21.737 21.737 0 0 0-3.006-2.513c-.227.136-.455.28-.682.431a20.682 20.682 0 0 1 3.165 2.609 20.548 20.548 0 0 1 2.4 2.877l.635.989c1.613 2.712 2.069 5.247.906 6.41s-3.7.707-6.41-.905c-.232.161-.465.314-.7.459a10.449 10.449 0 0 0 5.23 1.84 3.28 3.28 0 0 0 2.4-.871c1.439-1.44 1.024-4.287-.8-7.327l.009-.005-.116-.182c-.024-.039-.042-.076-.066-.115v.006Z"/><path d="M10.824 11.448a3.1 3.1 0 1 1-3.8-4.9l.031-.024a3.1 3.1 0 0 1 3.771 4.927" fill="url(#a)"/><circle cx="7.235" cy="8.88" r=".997" fill="url(#b)"/><circle cx="9.337" cy="10.701" r=".648" fill="url(#c)"/><circle cx="10.814" cy="9.094" r=".688" fill="#fff"/><g fill="#f2f2f2"><path d="M6.238 10.555a3.615 3.615 0 0 0 .227.336 3.056 3.056 0 0 0 .2.237 6.506 6.506 0 0 1 .395-1.266.99.99 0 0 1-.52-.265 7.07 7.07 0 0 0-.302.958ZM6.9 7.942a4.356 4.356 0 0 1-.252-1.075 3.071 3.071 0 0 0-.4.532 4.836 4.836 0 0 0 .208.862.989.989 0 0 1 .444-.319ZM7.963 9.56a.99.99 0 0 1-.545.3 4.362 4.362 0 0 0 .53.469 4.593 4.593 0 0 0 .747.456.772.772 0 0 1-.006-.084.645.645 0 0 1 .2-.463 4.359 4.359 0 0 1-.926-.678ZM9.983 10.661v.04a.644.644 0 0 1-.185.453 5.093 5.093 0 0 0 1.246.089 3.122 3.122 0 0 0 .42-.491 4.49 4.49 0 0 1-.478.027 4.333 4.333 0 0 1-1.003-.118ZM10.358 8.609a9.631 9.631 0 0 1-1.191-1.034 4.965 4.965 0 0 1 2.165-.531 3.044 3.044 0 0 0-.542-.528 5.28 5.28 0 0 0-1.714.405c-.119.05-.223.125-.337.186l-.01-.007a6.128 6.128 0 0 1-.724-1.067 3.142 3.142 0 0 0-.4.153 6.423 6.423 0 0 0 .756 1.133 4.546 4.546 0 0 0-.775.634.994.994 0 0 1 .491.4A4.309 4.309 0 0 1 8.79 7.8a9.98 9.98 0 0 0 1.344 1.17.674.674 0 0 1 .224-.361ZM11.853 9.5l-.012-.006-.108-.059-.02-.011-.1-.054-.024-.013-.115-.066a.656.656 0 0 1-.232.338l.136.078.031.017.127.071.012.007c.1.055.208.111.315.166a3.153 3.153 0 0 0 .1-.407Z" opacity=".55"/></g><circle cx="7.235" cy="8.88" r=".997" fill="#fff"/><circle cx="9.337" cy="10.701" r=".648" fill="#fff"/></svg>