<svg xmlns="http://www.w3.org/2000/svg" width="18" height="18"><defs><linearGradient id="a" x1="8.8" y1="12.87" x2="8.8" y2=".87" gradientUnits="userSpaceOnUse"><stop offset="0" stop-color="#0078d4"/><stop offset=".82" stop-color="#5ea0ef"/></linearGradient><linearGradient id="b" x1="8.81" y1="17.5" x2="8.81" y2="12.87" gradientUnits="userSpaceOnUse"><stop offset="0" stop-color="#1490df"/><stop offset=".98" stop-color="#1f56a3"/></linearGradient></defs><rect x="-.2" y=".87" width="18" height="12" rx=".6" fill="url(#a)"/><path fill="#50e6ff" d="M11.8 5.12v3.49l-3 1.76v-3.5l3-1.75z"/><path fill="#c3f1ff" d="M11.8 5.12 8.81 6.88 5.8 5.12l3.01-1.75 2.99 1.75z"/><path fill="#9cebff" d="M8.8 6.88v3.49l-3-1.76V5.12l3 1.76z"/><path fill="#c3f1ff" d="m5.8 8.61 3-1.74v3.5l-3-1.76z"/><path fill="#9cebff" d="m11.8 8.61-3-1.74v3.5l3-1.76z"/><path d="M12.41 16.5c-1.78-.28-1.85-1.56-1.84-3.63H7c0 2.07 0 3.35-1.81 3.63a1 1 0 0 0-.88 1h9a1.06 1.06 0 0 0-.9-1Z" fill="url(#b)"/><path d="M4.68 2.07H1.93a.66.66 0 0 0-.66.66v2.76a.33.33 0 0 0 .33.33h.22a.33.33 0 0 0 .33-.33V2.94h2.53A.33.33 0 0 0 5 2.61V2.4a.33.33 0 0 0-.32-.33ZM4.68 10.73H2.14V8.2a.33.33 0 0 0-.33-.33H1.6a.33.33 0 0 0-.33.33V11a.66.66 0 0 0 .66.67h2.75a.34.34 0 0 0 .32-.39v-.22a.33.33 0 0 0-.32-.33ZM15.71 2.1H13a.33.33 0 0 0-.33.33v.21A.33.33 0 0 0 13 3h2.53v2.51a.33.33 0 0 0 .33.33h.23a.33.33 0 0 0 .33-.33V2.76a.66.66 0 0 0-.71-.66ZM16.05 7.89h-.21a.33.33 0 0 0-.33.33v2.54H13a.33.33 0 0 0-.33.33v.22a.33.33 0 0 0 .33.33h2.75a.67.67 0 0 0 .67-.66V8.22a.33.33 0 0 0-.37-.33Z" fill="#fff"/></svg>