<svg xmlns="http://www.w3.org/2000/svg" width="18" height="18"><defs><linearGradient id="a" x1="6.436" y1="10.776" x2="6.436" y2="1.895" gradientUnits="userSpaceOnUse"><stop offset="0" stop-color="#0078d4"/><stop offset=".156" stop-color="#1380da"/><stop offset=".528" stop-color="#3c91e5"/><stop offset=".822" stop-color="#559cec"/><stop offset="1" stop-color="#5ea0ef"/></linearGradient><linearGradient id="b" x1="10.41" y1="10.763" x2="10.41" y2="7.476" gradientUnits="userSpaceOnUse"><stop offset="0" stop-color="#0078d4"/><stop offset=".156" stop-color="#1380da"/><stop offset=".528" stop-color="#3c91e5"/><stop offset=".822" stop-color="#559cec"/><stop offset="1" stop-color="#5ea0ef"/></linearGradient><linearGradient id="c" x1="-221.35" y1="-247.668" x2="-224.426" y2="-254.285" gradientTransform="matrix(0 -1 -1 0 -243.245 -212.172)" gradientUnits="userSpaceOnUse"><stop offset=".174" stop-color="#e6e6e6"/><stop offset=".583" stop-color="#f6f6f6"/><stop offset=".957" stop-color="#fff"/></linearGradient></defs><ellipse cx="12.861" cy="12.644" rx="4.879" ry="1.148" fill="#32bedd"/><path d="M17.74 14.9v-2.26c0 .634-2.184 1.148-4.879 1.148s-4.878-.514-4.878-1.148v2.313c0 .634 2.184 1.148 4.878 1.148 2.638 0 4.786-.493 4.875-1.109v-.014a.213.213 0 0 0 0-.025V14.9Z" fill="#0078d4"/><path d="M7.609 8.446c0-.985 2.91-1.363 5-1.389a2.915 2.915 0 0 0-2.264-1.769A3.549 3.549 0 0 0 6.693 1.9a3.641 3.641 0 0 0-3.479 2.367A3.361 3.361 0 0 0 .26 7.5a3.41 3.41 0 0 0 3.529 3.276c.1 0 .208 0 .31-.013h3.51Z" fill="url(#a)"/><path d="M8.028 8.446v2.317h1.785a.536.536 0 0 0 .151-.023A2.848 2.848 0 0 0 12.791 8a2.539 2.539 0 0 0-.055-.519c-3.088.009-4.708.63-4.708.965Z" fill="url(#b)"/><path d="M12.847 9.706c-2.665 0-4.827-.5-4.874-1.127v2.292c0 .634 2.184 1.148 4.879 1.148 2.638 0 4.785-.493 4.874-1.109V8.558c-.001.634-2.185 1.148-4.879 1.148Z" fill="#5ea0ef"/><ellipse cx="12.847" cy="8.584" rx="4.879" ry="1.148" fill="#9cebff"/><path d="m12.854 12.578-1.931 1.88c-.2.2-.381.129-.381-.2v-.833a.24.24 0 0 0-.245-.241c-1.245.028-4.7-.322-4.819-5.046a.242.242 0 0 1 .241-.249h1.222a.24.24 0 0 1 .24.263 2.9 2.9 0 0 0 3.118 3.5.242.242 0 0 0 .243-.241v-.772c0-.393.118-.458.381-.2l1.931 1.741a.24.24 0 0 1 0 .398Z" fill="url(#c)"/></svg>