<svg xmlns="http://www.w3.org/2000/svg" width="18" height="18"><defs><linearGradient id="a" x1="-554.999" y1="1012.218" x2="-554.999" y2="1024.977" gradientTransform="matrix(1 0 0 -1 564 1025.516)" gradientUnits="userSpaceOnUse"><stop offset="0" stop-color="#0078d4"/><stop offset=".156" stop-color="#1380da"/><stop offset=".528" stop-color="#3c91e5"/><stop offset=".822" stop-color="#559cec"/><stop offset="1" stop-color="#5ea0ef"/></linearGradient></defs><path d="M17.992 12.77c-.105.675-1.083 1.057-1.639 1.26-1.7.619-14.109.429-15.535-.394-.041-.023-.078-.047-.118-.071l-.064-.04a2.642 2.642 0 0 1-.16-.115A1 1 0 0 1 0 12.655v2.438c0 1.093 2.118 1.535 2.9 1.737a20.963 20.963 0 0 0 4 .554 29.042 29.042 0 0 0 8.145-.529c.889-.2 2.594-.575 2.927-1.567a.675.675 0 0 0 .02-.1V12.674a.894.894 0 0 1 0 .096Z" fill="#5e9624"/><ellipse cx="9.001" cy="12.665" rx="2.358" ry="8.996" transform="rotate(-89.936 9.002 12.665)" fill="#76bc2d"/><path d="M11.5 14.308c-4.087.3-8.518-.188-9.9-1.1s.814-1.888 4.9-2.191 8.516.188 9.9 1.1-.816 1.888-4.9 2.191Z" fill="#f2f2f2"/><path d="M18 9.3a4.042 4.042 0 0 0-3.51-3.886A5.1 5.1 0 0 0 9.242.541a5.227 5.227 0 0 0-5 3.407A4.823 4.823 0 0 0 0 8.6a4.9 4.9 0 0 0 5.068 4.7c.151 0 .3-.007.446-.02h8.205a.837.837 0 0 0 .217-.032A4.091 4.091 0 0 0 18 9.3Z" fill="url(#a)"/></svg>