<svg xmlns="http://www.w3.org/2000/svg" width="18" height="18"><defs><linearGradient id="a" x1="4.984" y1="18.749" x2="8.956" y2="4.782" gradientUnits="userSpaceOnUse"><stop offset="0" stop-color="#258277"/><stop offset=".2" stop-color="#27887d"/><stop offset=".5" stop-color="#2c9a8d"/><stop offset="1" stop-color="#37c2b1"/></linearGradient><linearGradient id="b" x1="6.489" y1="19.216" x2="9.98" y2="5.02" gradientUnits="userSpaceOnUse"><stop offset="0" stop-color="#258277"/><stop offset=".3" stop-color="#2ea193"/><stop offset=".7" stop-color="#34b9a9"/><stop offset="1" stop-color="#37c2b1"/></linearGradient><linearGradient id="c" x1="10.741" y1="12.441" x2="10.741" y2="1.908" gradientUnits="userSpaceOnUse"><stop offset="0" stop-color="#37c2b1"/><stop offset="1" stop-color="#3cd4c2"/></linearGradient></defs><path d="M14.087 5.605H.442a.427.427 0 0 0-.442.41v9.464a.428.428 0 0 0 .443.4h13.644a.42.42 0 0 0 .435-.4V6a.419.419 0 0 0-.435-.395Z" fill="url(#a)"/><path d="M15.826 3.866H2.182a.428.428 0 0 0-.443.411v9.463a.426.426 0 0 0 .443.394h13.644a.418.418 0 0 0 .435-.394V4.26a.418.418 0 0 0-.435-.394Z" fill="url(#b)"/><path d="M17.556 2.149H3.933a.426.426 0 0 0-.441.411v9.448a.426.426 0 0 0 .442.394h13.622a.418.418 0 0 0 .434-.394V2.543a.417.417 0 0 0-.434-.394Z" fill="url(#c)"/><rect x="13.527" y="3.414" width="1.234" height="7.53" rx=".119" fill="#fff" opacity=".9"/><rect x="4.803" y="9.392" width="6.904" height="1.56" rx=".128" fill="#fff" opacity=".6"/><rect x="15.419" y="6.494" width="1.234" height="4.45" rx=".091" fill="#fff" opacity=".9"/><path fill="#fff" d="M10.835 3.869 9.119 6.922 7.305 5.073 5.434 7.498l.439.344 1.483-1.913L9.24 7.851l2.081-3.702-.486-.28z"/><ellipse cx="7.326" cy="5.499" rx=".705" ry=".709" fill="#fff"/><ellipse cx="9.24" cy="7.258" rx=".705" ry=".709" fill="#fff"/><ellipse cx="11.016" cy="4.097" rx=".705" ry=".709" fill="#fff"/><ellipse cx="5.727" cy="7.567" rx=".705" ry=".709" fill="#fff"/>​</svg>