<svg xmlns="http://www.w3.org/2000/svg" width="18" height="18"><defs><linearGradient id="a" x1="7.63" y1="15.34" x2="7.63" y2="5.84" gradientUnits="userSpaceOnUse"><stop offset="0" stop-color="#ccc"/><stop offset=".15" stop-color="#dadada"/><stop offset=".44" stop-color="#eee"/><stop offset=".72" stop-color="#fbfbfb"/><stop offset="1" stop-color="#fff"/></linearGradient></defs><path d="M15 4.77h-1v12.8l1-1.93Z" fill="#50e6ff"/><path d="m15 15.63-1 1.93 1-.8 1.23-.95Z" fill="#9cebff"/><path d="M8.39 2.86A1.57 1.57 0 0 1 10 1.35a1.57 1.57 0 0 1 1.63 1.51v1.91h.78V2.86A2.35 2.35 0 0 0 10 .57a2.35 2.35 0 0 0-2.4 2.29v1.91h.78Z" fill="#a3a3a3"/><path d="M6 2.86a1.57 1.57 0 0 1 1.62-1.51 1.58 1.58 0 0 1 1.63 1.51v1.91H10V2.86A2.36 2.36 0 0 0 7.62.57a2.35 2.35 0 0 0-2.4 2.29v1.91H6Z" fill="#767676"/><path fill="#32bedd" d="M13.92 4.77v12.8l-12.47-.99.38-11.81h12.09zM14.95 4.77v10.87l1.23.18-.37-11.05h-.86z"/><path d="M12.19 12.31a2.3 2.3 0 0 0-1.79-2.18 2.84 2.84 0 0 0-2.66-2.75A2.47 2.47 0 0 0 5.2 9a2.3 2.3 0 0 0-2.13 2.31A2.74 2.74 0 0 0 5.63 14h.22l4.16.28h.11a2 2 0 0 0 2.07-1.97Z" fill="url(#a)"/></svg>