<svg xmlns="http://www.w3.org/2000/svg" width="18" height="18"><defs><linearGradient id="b" x1="9" y1="19.25" x2="9" y2="-.46" gradientTransform="rotate(45 9.003 8.999)" gradientUnits="userSpaceOnUse"><stop offset="0" stop-color="#5e9624"/><stop offset=".55" stop-color="#6dad2a"/><stop offset="1" stop-color="#76bc2d"/></linearGradient><linearGradient id="a" x1="7.54" y1="6.44" x2="7.53" y2="5.18" gradientUnits="userSpaceOnUse"><stop offset="0" stop-color="#ccc"/><stop offset=".12" stop-color="#d7d7d7"/><stop offset=".42" stop-color="#ebebeb"/><stop offset=".72" stop-color="#f8f8f8"/><stop offset="1" stop-color="#fcfcfc"/></linearGradient><linearGradient id="c" x1="9.36" y1="7.69" x2="9.36" y2="6.57" href="#a"/></defs><rect x="2.82" y="2.82" width="12.35" height="12.35" rx=".57" transform="rotate(-45 8.999 9.003)" fill="url(#b)"/><g fill="#fff"><path d="M10.89 10.51h2.84a.11.11 0 0 0 .1-.11V7.57a.1.1 0 0 0-.18-.07l-.78.78v.05a.1.1 0 0 1-.14 0L9.26 4.91a.1.1 0 0 0-.14 0l-.88.88a.11.11 0 0 0 0 .15l3.41 3.41a.11.11 0 0 1 0 .15l-.05.05-.78.78a.11.11 0 0 0 .07.18Z"/><path d="M6.92 10.51H4.08A.11.11 0 0 1 4 10.4V7.57a.1.1 0 0 1 .17-.07l.79.78v.05a.1.1 0 0 0 .14 0l3.45-3.42a.1.1 0 0 1 .14 0l.88.88a.11.11 0 0 1 0 .15L6.16 9.35a.11.11 0 0 0 0 .15v.05l.78.78a.11.11 0 0 1-.02.18Z"/><path d="m6.82 13.07 2 2a.1.1 0 0 0 .14 0l2-2a.1.1 0 0 0-.07-.17H9.72a.11.11 0 0 1-.1-.1V8a.1.1 0 0 0-.1-.11H8.28a.11.11 0 0 0-.11.11v4.8a.1.1 0 0 1-.1.1H6.89a.1.1 0 0 0-.07.17Z"/></g><path d="M10.65 7.78A2.71 2.71 0 0 1 7.33 3.5a2.71 2.71 0 0 1 3.29 4.3" fill="#0078d4"/><circle cx="7.53" cy="5.55" r=".87" fill="url(#a)"/><g fill="#f2f2f2"><path d="m6.67 7 .19.3.14.2a5.94 5.94 0 0 1 .34-1.1.85.85 0 0 1-.45-.23 6.71 6.71 0 0 0-.22.83ZM7.24 4.73A4 4 0 0 1 7 3.8a2.48 2.48 0 0 0-.34.46 3.51 3.51 0 0 0 .2.74 1 1 0 0 1 .38-.27ZM8.17 6.14a.87.87 0 0 1-.48.26 4.62 4.62 0 0 0 .46.41 4.14 4.14 0 0 0 .65.39v-.07a.53.53 0 0 1 .2-.4 3.6 3.6 0 0 1-.83-.59ZM10.79 7.2a4.14 4.14 0 0 1-.87-.1.55.55 0 0 1-.16.39 3.84 3.84 0 0 0 1.08.08 2.93 2.93 0 0 0 .37-.42Z" opacity=".55"/></g><circle cx="9.36" cy="7.13" r=".56" fill="url(#c)"/><circle cx="10.64" cy="5.74" r=".6" fill="#f2f2f2"/><g fill="#f2f2f2"><path d="M9.21 4.42A4.29 4.29 0 0 1 11.09 4a2.24 2.24 0 0 0-.47-.45 4.5 4.5 0 0 0-1.49.35c-.1 0-.19.11-.29.16a5.85 5.85 0 0 1-.63-.93l-.34.13a5.35 5.35 0 0 0 .65 1 3.92 3.92 0 0 0-.67.55.87.87 0 0 1 .43.35 3.29 3.29 0 0 1 .61-.48 9.16 9.16 0 0 0 1.17 1 .57.57 0 0 1 .2-.32 8.44 8.44 0 0 1-1.05-.94ZM11.55 6.09h-.18l-.1-.06a.61.61 0 0 1-.2.3l.12.07.11.06.28.14a3.58 3.58 0 0 0 .09-.35Z" opacity=".55"/></g><circle cx="7.53" cy="5.55" r=".87" fill="#f2f2f2"/><circle cx="9.36" cy="7.13" r=".56" fill="#f2f2f2"/></svg>