<svg xmlns="http://www.w3.org/2000/svg" width="18" height="18"><path fill="#a33a85" d="m15.433 9.341-1.712 1.006-1.716 1.007-3.007 1.765-3.006-1.765-1.713-1.007-1.712-1.006 6.431-3.782 6.435 3.782z"/><path fill="#59285f" d="M15.433 9.341v3.222l-6.435 3.778-6.431-3.778V9.341l1.712 1.006 1.713 1.007 3.006 1.765 3.007-1.765 1.716-1.007 1.712-1.006z"/><path d="M16.755 4.794v8.416a.565.565 0 0 1-.281.49l-7.186 4.222A.566.566 0 0 1 9 18V9.022l7.679-4.51a.569.569 0 0 1 .076.282Z" fill="#a33a85" opacity=".6"/><path d="M16.68 4.512 9 9.011v.011L1.32 4.511a.551.551 0 0 1 .206-.211L8.718.075a.569.569 0 0 1 .57 0l7.189 4.227a.567.567 0 0 1 .203.21Z" fill="#dc92bf" opacity=".6"/><path d="M9 9.022V18a.547.547 0 0 1-.284-.077L1.526 13.7a.565.565 0 0 1-.281-.49V4.791a.564.564 0 0 1 .075-.28Z" fill="#ce74b6" opacity=".6"/></svg>