<svg xmlns="http://www.w3.org/2000/svg" width="18" height="18"><defs><linearGradient id="a" x1="7.944" y1=".233" x2="7.944" y2="15.56" gradientUnits="userSpaceOnUse"><stop offset=".134" stop-color="#005ba1"/><stop offset="1" stop-color="#003067"/></linearGradient><linearGradient id="b" x1="7.945" y1="-.041" x2="7.945" y2="15.754" gradientUnits="userSpaceOnUse"><stop offset="0" stop-color="#5ea0ef"/><stop offset="1" stop-color="#0078d4"/></linearGradient></defs><path d="M15.888 7.947a8.031 8.031 0 0 1-.041.81.282.282 0 0 1-.4.226 4.921 4.921 0 0 0-6.471 6.468.283.283 0 0 1-.225.4 8.026 8.026 0 0 1-.809.041 7.945 7.945 0 1 1 7.943-7.943Z" fill="url(#a)"/><path d="M14.443.528v8.143a4.921 4.921 0 0 0-5.464 6.78.283.283 0 0 1-.225.4 8.026 8.026 0 0 1-.809.041 7.931 7.931 0 0 1-6.5-3.373V.527A.529.529 0 0 1 1.976 0h11.938a.529.529 0 0 1 .529.528Z" fill="url(#b)"/><path d="M18 13.5A4.5 4.5 0 1 1 13.5 9a4.5 4.5 0 0 1 4.5 4.5Z" fill="#fff"/><path d="M18 13.5A4.5 4.5 0 1 1 13.5 9a4.5 4.5 0 0 1 4.5 4.5Z" fill="#57a300"/><path d="M6.768 4.524h4.973a.283.283 0 0 1 .282.283v.726a.283.283 0 0 1-.282.283H6.768a.283.283 0 0 1-.283-.283v-.726a.283.283 0 0 1 .283-.283Zm-.242 3.059v.727a.283.283 0 0 0 .283.283h4.972a.283.283 0 0 0 .283-.283v-.727a.283.283 0 0 0-.283-.282H6.809a.282.282 0 0 0-.283.282Zm.27 2.494a.283.283 0 0 0-.282.283v.726a.283.283 0 0 0 .282.283h2.267a4.913 4.913 0 0 1 .9-1.292Zm6.055 5.579a.281.281 0 0 0 .427-.018l2.739-3.507a.225.225 0 0 0-.045-.312l-.51-.393a.227.227 0 0 0-.318.041L13 14.21l-1.2-1.29a.227.227 0 0 0-.32-.012l-.47.434a.23.23 0 0 0-.073.16.226.226 0 0 0 .06.164Z" fill="#fff"/><path d="M4.073 4.524H5.1a.291.291 0 0 1 .291.292v.708a.291.291 0 0 1-.291.292H4.073a.291.291 0 0 1-.291-.292v-.708a.291.291 0 0 1 .291-.292Zm-.251 3.068V8.3a.292.292 0 0 0 .292.292h1.025a.292.292 0 0 0 .292-.292v-.708a.291.291 0 0 0-.292-.292H4.114a.291.291 0 0 0-.292.292Zm-.012 2.777v.708a.291.291 0 0 0 .291.292h1.026a.291.291 0 0 0 .291-.292v-.708a.291.291 0 0 0-.291-.292H4.1a.291.291 0 0 0-.29.292Z" fill="#fff" opacity=".8"/></svg>