<svg xmlns="http://www.w3.org/2000/svg" width="18" height="18"><defs><linearGradient id="a" x1="5.626" y1="20.16" x2="7.185" y2="2.336" gradientTransform="matrix(1 0 0 -1 0 20)" gradientUnits="userSpaceOnUse"><stop offset=".5" stop-color="#b796f9"/><stop offset=".9" stop-color="#a67af4"/></linearGradient><linearGradient id="b" x1="-21.467" y1="2.275" x2="-21.129" y2="-1.588" gradientTransform="matrix(1 0 0 -1 27.6 7.804)" gradientUnits="userSpaceOnUse"><stop offset="0" stop-color="#a67af4"/><stop offset=".241" stop-color="#9065db"/><stop offset=".748" stop-color="#653eab"/><stop offset="1" stop-color="#552f99"/></linearGradient><linearGradient id="c" x1="-21.32" y1="5.276" x2="-21.023" y2="1.887" gradientTransform="matrix(1 0 0 -1 27.6 7.804)" gradientUnits="userSpaceOnUse"><stop offset="0" stop-color="#a67af4"/><stop offset=".241" stop-color="#9065db"/><stop offset=".748" stop-color="#653eab"/><stop offset="1" stop-color="#552f99"/></linearGradient><linearGradient id="d" x1="13.248" y1="2.252" x2="13.248" y2="10.977" gradientTransform="matrix(1 0 0 -1 0 20)" gradientUnits="userSpaceOnUse"><stop offset="0" stop-color="#76bc2d"/><stop offset=".309" stop-color="#7ac22e"/><stop offset=".718" stop-color="#84d332"/><stop offset=".785" stop-color="#86d633"/></linearGradient></defs><rect x=".356" y=".252" width="12.099" height="17" rx=".585" fill="url(#a)"/><rect x="2.927" y="12.987" width="6.957" height="1.24" rx=".306" fill="#773adc"/><rect x="2.927" y="10.582" width="6.957" height="1.24" rx=".306" fill="#773adc"/><path d="M8.9 9.175a.52.52 0 0 0 .539-.5v-.017a.342.342 0 0 0 0-.064c-.214-1.7-1.18-3.075-3.021-3.075s-2.847 1.17-3.047 3.062a.543.543 0 0 0 .486.594Z" fill="url(#b)"/><path d="M6.44 5.923a1.681 1.681 0 0 1-.9-.271l.9 2.38.91-2.363a1.72 1.72 0 0 1-.91.254Z" fill="#f2f2f2"/><circle cx="6.429" cy="4.222" r="1.701" fill="url(#c)"/><path d="m13.684 9.152.5.323a.793.793 0 0 0 .432.127h.6a.8.8 0 0 1 .727.468l.249.544a.785.785 0 0 0 .295.34l.5.323a.8.8 0 0 1 .359.786l-.085.592a.786.786 0 0 0 .064.446l.248.544a.8.8 0 0 1-.123.855l-.391.452a.788.788 0 0 0-.187.41l-.086.592a.8.8 0 0 1-.566.653l-.573.169a.8.8 0 0 0-.379.243l-.392.452a.8.8 0 0 1-.829.244l-.574-.169a.8.8 0 0 0-.45 0l-.574.169a.8.8 0 0 1-.829-.244l-.392-.452a.807.807 0 0 0-.379-.243l-.574-.169a.8.8 0 0 1-.565-.653l-.086-.592a.8.8 0 0 0-.187-.41l-.391-.452a.8.8 0 0 1-.123-.855l.248-.544a.8.8 0 0 0 .064-.446l-.085-.592a.8.8 0 0 1 .359-.786l.5-.323a.8.8 0 0 0 .295-.34l.249-.544a.8.8 0 0 1 .727-.47h.6a.8.8 0 0 0 .432-.127l.5-.323a.8.8 0 0 1 .872.002Z" fill="url(#d)"/><path d="M13.155 10.465a3 3 0 1 0 3 3 3 3 0 0 0-3-3Z" fill="#b4ec36"/></svg>