<svg xmlns="http://www.w3.org/2000/svg" width="18" height="18"><defs><linearGradient id="a" x1="5.993" y1=".381" x2="5.993" y2="15.291" gradientUnits="userSpaceOnUse"><stop offset="0" stop-color="#b3b2b3"/><stop offset=".375" stop-color="#afaeaf"/><stop offset=".763" stop-color="#a2a2a2"/><stop offset="1" stop-color="#979797"/></linearGradient><linearGradient id="b" x1="12.098" y1="11.148" x2="12.098" y2="17.619" gradientUnits="userSpaceOnUse"><stop offset="0" stop-color="#5ea0ef"/><stop offset="1" stop-color="#0078d4"/></linearGradient><linearGradient id="c" x1="12.109" y1="9.062" x2="12.109" y2="11.148" gradientUnits="userSpaceOnUse"><stop offset="0" stop-color="#3b3b3b"/><stop offset=".389" stop-color="#373737"/><stop offset=".791" stop-color="#2a2a2a"/><stop offset=".997" stop-color="#212121"/></linearGradient></defs><path d="M10.833 14.785a.535.535 0 0 1-.559.506H1.712a.535.535 0 0 1-.559-.506V.887a.535.535 0 0 1 .559-.506h8.562a.535.535 0 0 1 .559.506Z" fill="url(#a)"/><path d="M2.576 6.755A1.109 1.109 0 0 1 3.628 5.6h4.817A1.109 1.109 0 0 1 9.5 6.755a1.11 1.11 0 0 1-1.052 1.16h-4.82a1.11 1.11 0 0 1-1.052-1.16ZM2.576 3.311a1.109 1.109 0 0 1 1.052-1.159h4.817A1.109 1.109 0 0 1 9.5 3.311a1.11 1.11 0 0 1-1.052 1.16h-4.82a1.11 1.11 0 0 1-1.052-1.16Z" fill="#003067"/><circle cx="3.93" cy="3.311" r=".778" fill="#50e6ff"/><circle cx="3.93" cy="6.755" r=".778" fill="#50e6ff"/><path d="M7.366 17.619v-5.86a.612.612 0 0 1 .612-.611h8.24a.612.612 0 0 1 .612.611v5.86Z" fill="url(#b)"/><path d="M14.764 11.148h-.716v-1.032a.334.334 0 0 0-.338-.338h-3.2a.333.333 0 0 0-.337.338v1.032h-.72v-1.032a1.043 1.043 0 0 1 1.054-1.054h3.2a1.043 1.043 0 0 1 1.054 1.054Z" fill="url(#c)"/><path d="M16.847 13.406H7.366v.456h3.771v.64a.275.275 0 0 0 .274.274h1.508a.275.275 0 0 0 .274-.274v-.64h3.654Z" fill="#fff"/></svg>