<svg xmlns="http://www.w3.org/2000/svg" width="18" height="18"><defs><linearGradient id="a" x1="8.995" y1="20.15" x2="8.995" y2="4.41" gradientTransform="matrix(1 0 0 -1 0 20)" gradientUnits="userSpaceOnUse"><stop offset="0" stop-color="#5ea0ef"/><stop offset="1" stop-color="#0078d4"/></linearGradient></defs><path d="M1 1.65h16a.5.5 0 0 1 .51.46v11.1a.49.49 0 0 1-.51.46H1a.5.5 0 0 1-.52-.46V2.13A.5.5 0 0 1 1 1.65Z" fill="url(#a)"/><path d="m11.87 8.34 2.66 1.54 2.67 1.53a.159.159 0 0 1 .049.221.153.153 0 0 1-.049.049l-1.78 1 1.27 2.18a.88.88 0 0 1-.32 1.19l-.26.15a.87.87 0 0 1-1.19-.31l-1.27-2.2-1.77 1a.15.15 0 0 1-.23-.14V8.48a.161.161 0 0 1 .168-.152.158.158 0 0 1 .052.012Z" fill="#50e6ff"/><path d="M7.6 3.32h2.88a.14.14 0 0 1 .14.14v3a.13.13 0 0 1-.13.13H7.66a.14.14 0 0 1-.14-.14v-3a.129.129 0 0 1 .09-.13Z" fill="#fff"/><path d="M7.6 8.15h2.88a.151.151 0 0 1 .14.14v3a.13.13 0 0 1-.13.13H7.66a.14.14 0 0 1-.14-.14v-3a.129.129 0 0 1 .09-.13Zm5.3-4.83h2.88a.14.14 0 0 1 .14.14v3a.13.13 0 0 1-.13.13h-2.84a.14.14 0 0 1-.14-.14v-3a.129.129 0 0 1 .09-.13Z" fill="#83b9f9"/><path d="M2.56 8.15h2.88a.151.151 0 0 1 .14.14v3a.13.13 0 0 1-.13.13H2.62a.14.14 0 0 1-.14-.14v-3a.129.129 0 0 1 .09-.13ZM2.56 3.32h2.88a.151.151 0 0 1 .14.14v3a.13.13 0 0 1-.13.13H2.62a.14.14 0 0 1-.14-.14v-3a.129.129 0 0 1 .09-.13Z" fill="#fff"/></svg>