<svg xmlns="http://www.w3.org/2000/svg" width="18" height="18"><defs><radialGradient id="a" cx="3.117" cy="-116.12" r="9.022" gradientTransform="matrix(1.013 0 0 .789 5.844 100.656)" gradientUnits="userSpaceOnUse"><stop offset=".196" stop-color="#ffd70f"/><stop offset=".438" stop-color="#ffcb12"/><stop offset=".873" stop-color="#feac19"/><stop offset="1" stop-color="#fea11b"/></radialGradient></defs><path d="M8.09 10.01H3.464a.239.239 0 0 1-.262-.2.175.175 0 0 1 .023-.085L8.775.12A.274.274 0 0 1 9.014 0h5.47a.238.238 0 0 1 .262.2.177.177 0 0 1-.046.119L8.186 7.834h6.35a.239.239 0 0 1 .262.2.185.185 0 0 1-.067.137L4.175 17.788c-.1.051-.8.562-.458-.214Z" fill="url(#a)"/></svg>