<svg xmlns="http://www.w3.org/2000/svg" width="18" height="18"><defs><linearGradient id="a" x1="13.01" y1="5.83" x2="12.78" y2="19.82" gradientUnits="userSpaceOnUse"><stop offset="0" stop-color="#9cebff"/><stop offset="1" stop-color="#50e6ff"/></linearGradient></defs><path d="M13.1.26h-7a.45.45 0 0 0-.45.45v10.2a8.8 8.8 0 0 1 1.13-.83h1.33l.74 1v1.54l-.93 1.24-1.28-.17-1-.39v.27a.45.45 0 0 0 .45.46h7a.45.45 0 0 0 .45-.46V.71a.45.45 0 0 0-.44-.45Z" fill="#0078d4"/><path d="M6.7 2.07H8a.11.11 0 0 1 .12.11v1.7A.12.12 0 0 1 8 4H6.7a.11.11 0 0 1-.11-.12v-1.7a.11.11 0 0 1 .11-.11Zm2.3 0h1.29a.11.11 0 0 1 .11.11v1.7a.11.11 0 0 1-.11.12H9a.11.11 0 0 1-.11-.12v-1.7A.11.11 0 0 1 9 2.07Zm2.27 0h1.28a.11.11 0 0 1 .11.11v1.7a.11.11 0 0 1-.11.12h-1.32a.12.12 0 0 1-.12-.12v-1.7a.11.11 0 0 1 .12-.11ZM6.7 5.16H8a.11.11 0 0 1 .12.11V7a.11.11 0 0 1-.12.09H6.7A.11.11 0 0 1 6.59 7V5.27a.11.11 0 0 1 .11-.11Zm2.3 0h1.29a.11.11 0 0 1 .11.11V7a.11.11 0 0 1-.11.11H9A.11.11 0 0 1 8.85 7V5.27A.11.11 0 0 1 9 5.16Zm2.27 0h1.28a.11.11 0 0 1 .11.11V7a.11.11 0 0 1-.11.11h-1.32a.11.11 0 0 1-.12-.11V5.27a.11.11 0 0 1 .12-.11Z" fill="#f2f2f2"/><path d="M7.12 11.05a1 1 0 0 0-1 .76H2.53a3.07 3.07 0 0 0-.06.53v.05h3.65a1 1 0 1 0 1-1.34Z" fill="#50e6ff"/><path d="M9.88 10.6A2.64 2.64 0 0 0 7.2 8.05a2.67 2.67 0 0 0-2.56 1.78 2.57 2.57 0 0 0-2 1.64H5.9a1.37 1.37 0 0 1 1.22-.76 1.41 1.41 0 1 1-1.22 2H2.53a2.55 2.55 0 0 0 2.53 2H9.6a2.05 2.05 0 0 0 .28-4.09Z" fill="#32bedd"/><path d="M7.12 11.05a1 1 0 0 0-1 .76H2.53a1.92 1.92 0 0 1-.37-.05 1.84 1.84 0 0 1 .2-3.63h.17l.06-.17a2 2 0 0 1 2-1.36 2.08 2.08 0 0 1 1.82 1A2.89 2.89 0 0 1 7 7.54 2.66 2.66 0 0 0 4.55 6a2.63 2.63 0 0 0-2.44 1.59 2.42 2.42 0 0 0-.21 4.71 1.51 1.51 0 0 0 .59.1h3.63a1 1 0 1 0 1-1.34Z" fill="#50e6ff"/><path d="m8 11.29 4.5-4.5a.54.54 0 0 1 .76 0l4.49 4.5a.24.24 0 0 1-.17.41h-2.72a.24.24 0 0 0-.24.24v5.61a.19.19 0 0 1-.19.19h-3a.18.18 0 0 1-.19-.19v-5.61a.24.24 0 0 0-.24-.24H8.21a.24.24 0 0 1-.21-.41Z" fill="url(#a)"/></svg>