<svg xmlns="http://www.w3.org/2000/svg" width="18" height="18"><defs><linearGradient id="a" x1="7.726" y1="-4.417" x2="9.174" y2="18.808" gradientUnits="userSpaceOnUse"><stop offset="0" stop-color="#83b9f9"/><stop offset="1" stop-color="#0078d4"/></linearGradient><linearGradient id="c" x1="13.969" y1="782.479" x2="14.014" y2="776.813" gradientTransform="matrix(1 0 0 -1 0 791.516)" gradientUnits="userSpaceOnUse"><stop offset="0" stop-color="#f2f2f2"/><stop offset="1" stop-color="#b4ec36" stop-opacity=".02"/></linearGradient><radialGradient id="b" cx="13.959" cy="11.04" r="5.644" gradientUnits="userSpaceOnUse"><stop offset="0" stop-color="#b4ec36"/><stop offset=".813" stop-color="#86d633"/></radialGradient></defs><path d="M9.2 10.945a4.755 4.755 0 0 1 4.72-5.3H14a4.8 4.8 0 0 1 .549.031 4.718 4.718 0 0 1 2.192.863V.613a.558.558 0 0 0-.561-.558H.557A.558.558 0 0 0 0 .613v10.8a.558.558 0 0 0 .558.558h8.923a3.575 3.575 0 0 1-.281-1.026Z" fill="#0078d4"/><path d="M9.165 10.348a4.765 4.765 0 0 1 4.751-4.7H14a4.431 4.431 0 0 1 1.628.3V1.2a.161.161 0 0 0-.161-.161H1.282a.162.162 0 0 0-.161.161v9.523a.162.162 0 0 0 .161.161h7.911a4.794 4.794 0 0 1-.028-.536Z" opacity=".9" fill="url(#a)"/><rect x="6.974" y=".355" width="2.836" height=".386" rx=".178" fill="#f2f2f2"/><path d="M9.917 10.347a4.026 4.026 0 0 0 .026.5c.184 1.678 1.78 2.459 2.236 4.586a.332.332 0 0 0 .319.258h2.921a.334.334 0 0 0 .32-.258c.455-2.127 2.038-2.908 2.235-4.586A4 4 0 0 0 14 6.386h-.082a4 4 0 0 0-4.001 3.961Z" fill="url(#b)"/><path d="M15.628 8.63a.951.951 0 0 0-.917.978v.523h-1.434v-.523a.957.957 0 0 0-.937-.978h-.021a.984.984 0 0 0 0 1.963h.435v4.077a.245.245 0 0 0 .489 0v-4.077h1.468v4.077a.245.245 0 0 0 .489 0v-4.077h.428a.95.95 0 0 0 .917-.983.951.951 0 0 0-.917-.98Zm-2.874 1.5h-.462a.527.527 0 1 1 .462-.523Zm2.908 0H15.2v-.55a.462.462 0 0 1 .917-.112.42.42 0 0 1 0 .112.5.5 0 0 1-.437.549Z" fill="url(#c)"/><path d="m14.792 17.87.551-.591V15.7H12.6v1.576l.55.591a.222.222 0 0 0 .129.075h1.359a.222.222 0 0 0 .154-.072Z" fill="#cecece"/><path fill="#999" d="m12.571 16.79 2.772-.537v-.306l-2.772.544v.299zM15.343 17v-.299l-2.772.551v.027l.21.231 2.562-.51z"/>​</svg>