<svg xmlns="http://www.w3.org/2000/svg" width="18" height="18"><defs><linearGradient id="a" x1="9" y1="22.81" x2="9" y2="-2.491" gradientUnits="userSpaceOnUse"><stop offset="0" stop-color="#0078d4"/><stop offset=".165" stop-color="#1c84dc"/><stop offset=".378" stop-color="#3990e4"/><stop offset=".59" stop-color="#4d99ea"/><stop offset=".799" stop-color="#5a9eee"/><stop offset="1" stop-color="#5ea0ef"/></linearGradient><linearGradient id="b" x1="9" y1="15.982" x2="9" y2="1.522" gradientUnits="userSpaceOnUse"><stop offset="0" stop-color="#d2ebff"/><stop offset=".997" stop-color="#f0fffd"/></linearGradient></defs><rect x="3.612" width="10.777" height="18" rx=".419" fill="url(#a)"/><rect x="7.758" y=".604" width="2.483" height=".333" rx=".154" fill="#f2f2f2"/><rect x="4.623" y="1.522" width="8.754" height="14.461" rx=".201" opacity=".9" fill="url(#b)"/><rect x="8.398" y="16.58" width="1.204" height="1.028" rx=".286" fill="#f2f2f2"/><path d="M11.4 2.892v3.584a.192.192 0 0 1-.193.192h-1.5a.047.047 0 0 0-.047.047v.578a.094.094 0 0 1-.151.074l-.9-.689a.048.048 0 0 0-.029-.01H5.974a.192.192 0 0 1-.193-.192V2.892a.192.192 0 0 1 .193-.192h5.236a.192.192 0 0 1 .19.192Z" fill="#5ea0ef"/><rect x="5.768" y="9.88" width="1.683" height="4.782" rx=".293" fill="#5ea0ef"/><rect x="8.265" y="8.806" width="1.683" height="5.855" rx=".293" fill="#0078d4"/><rect x="10.761" y="7.927" width="1.683" height="6.734" rx=".293" fill="#005ba1"/></svg>