<svg xmlns="http://www.w3.org/2000/svg" width="18" height="18"><defs><linearGradient id="a" x1="10.31" y1="12.7" x2="10.31" y2="6.83" gradientUnits="userSpaceOnUse"><stop offset="0" stop-color="#0078d4"/><stop offset=".82" stop-color="#5ea0ef"/></linearGradient><linearGradient id="b" x1="10.31" y1="14.97" x2="10.31" y2="12.7" gradientUnits="userSpaceOnUse"><stop offset=".15" stop-color="#ccc"/><stop offset="1" stop-color="#707070"/></linearGradient></defs><path fill="#0078d4" d="M2.12.5h1.97v.57H2.12zM16.63 1.07h.32v.31h.55V.5h-.87v.57zM1.41 16.89h-.28v-.32H.5v.93h.91v-.61zM16.95 16.6v.29h-.32v.61h.87v-.9h-.55zM1.13 1.36v-.29h.28V.5H.5v.86h.63z"/><rect x="3.37" y="3.55" width="8.79" height="5.88" rx=".29" fill="#0078d4"/><path fill="#50e6ff" d="M9.23 5.64v1.71l-1.46.86V6.49l1.46-.85z"/><path fill="#c3f1ff" d="m9.23 5.64-1.46.86-1.47-.86 1.47-.86 1.46.86z"/><path fill="#9cebff" d="M7.77 6.5v1.71L6.3 7.35V5.64l1.47.86z"/><rect x="5.91" y="6.83" width="8.79" height="5.88" rx=".29" fill="url(#a)"/><path fill="#50e6ff" d="M11.77 8.91v1.71l-1.46.86V9.77l1.46-.86z"/><path fill="#c3f1ff" d="m11.77 8.91-1.46.86-1.47-.86 1.47-.86 1.46.86z"/><path fill="#9cebff" d="M10.31 9.77v1.71l-1.47-.86V8.91l1.47.86z"/><path fill="#c3f1ff" d="m8.84 10.62 1.47-.85v1.71l-1.47-.86z"/><path fill="#9cebff" d="m11.77 10.62-1.46-.85v1.71l1.46-.86z"/><path d="M12.07 14.48c-.87-.14-.9-.77-.9-1.78H9.44c0 1 0 1.64-.9 1.78a.51.51 0 0 0-.43.49h4.4a.51.51 0 0 0-.44-.49Z" fill="url(#b)"/><path fill="#0078d4" d="M5.07.5h1.97v.57H5.07zM8.01.5h1.97v.57H8.01zM10.96.5h1.97v.57h-1.97zM13.91.5h1.97v.57h-1.97zM2.14 16.89h1.97v.57H2.14zM5.08 16.89h1.97v.57H5.08zM8.03 16.89H10v.57H8.03zM10.98 16.89h1.97v.57h-1.97zM13.92 16.89h1.97v.57h-1.97zM16.93 2.05h.57v1.97h-.57zM16.93 4.99h.57v1.97h-.57zM16.93 7.94h.57v1.97h-.57zM16.93 10.88h.57v1.97h-.57zM16.93 13.83h.57v1.97h-.57zM.5 2.03h.57V4H.5zM.5 4.98h.57v1.97H.5zM.5 7.92h.57v1.97H.5zM.5 10.87h.57v1.97H.5zM.5 13.81h.57v1.97H.5z"/></svg>