<svg xmlns="http://www.w3.org/2000/svg" width="16" height="16"><defs><linearGradient id="a" x1="7.961" y1="3.179" x2="7.961" y2=".271" gradientUnits="userSpaceOnUse"><stop offset=".001" stop-color="#37c2b1"/><stop offset=".496" stop-color="#3acebc"/><stop offset="1" stop-color="#3cd4c2"/></linearGradient><linearGradient id="b" x1="12.562" y1="15.074" x2="12.562" y2="12.166" gradientUnits="userSpaceOnUse"><stop offset=".001" stop-color="#37c2b1"/><stop offset=".496" stop-color="#3acebc"/><stop offset="1" stop-color="#3cd4c2"/></linearGradient><linearGradient id="c" x1="3.116" y1="15.074" x2="3.116" y2="12.166" gradientUnits="userSpaceOnUse"><stop offset=".001" stop-color="#37c2b1"/><stop offset=".496" stop-color="#3acebc"/><stop offset="1" stop-color="#3cd4c2"/></linearGradient><linearGradient id="d" x1="-419.126" y1="-214.048" x2="-419.126" y2="-221.784" gradientTransform="matrix(1 0 0 -1 427.126 -209.758)" gradientUnits="userSpaceOnUse"><stop offset="0" stop-color="#9d79eb"/><stop offset="1" stop-color="#7548d6"/></linearGradient></defs><ellipse cx="7.961" cy="1.725" rx="1.4" ry="1.454" fill="url(#a)"/><path d="M9.694 1.826a1.846 1.846 0 0 1-.172.689 6.321 6.321 0 0 1 4.6 6.147 6.492 6.492 0 0 1-.892 3.287 1.73 1.73 0 0 1 .571.4 7.228 7.228 0 0 0 1.006-3.685 7.019 7.019 0 0 0-5.113-6.838Z" fill="#37c2b1"/><ellipse cx="12.562" cy="13.62" rx="1.4" ry="1.454" fill="url(#b)"/><ellipse cx="3.116" cy="13.62" rx="1.4" ry="1.454" fill="url(#c)"/><g fill="#37c2b1"><path d="M10.931 14.238a5.886 5.886 0 0 1-6.131-.171 1.822 1.822 0 0 1-.3.645 6.559 6.559 0 0 0 6.793.135 1.835 1.835 0 0 1-.362-.609ZM2.721 11.861a6.492 6.492 0 0 1-.841-3.2 6.324 6.324 0 0 1 4.53-6.128 1.833 1.833 0 0 1-.18-.687A7.023 7.023 0 0 0 1.2 8.662a7.232 7.232 0 0 0 .9 3.5 1.693 1.693 0 0 1 .621-.301Z"/></g><path d="M10.84 12.012a2.455 2.455 0 0 0 2.36-2.406 2.406 2.406 0 0 0-2.027-2.366 3.037 3.037 0 0 0-5.916-.9 2.85 2.85 0 0 0 .478 5.672Z" fill="url(#d)"/><path d="M10.273 8.588v-.54l-.028-.027-.531-.186-.136-.371.263-.564.028-.063-.169-.176-.2-.208-.069.036-.519.277-.358-.105-.227-.6h-.512l-.026.027-.179.551-.363.142-.6-.3-.367.378.035.071.266.539-.149.371-.632.231v.54l.074.023.554.19.149.372-.277.624.367.386.069-.036.52-.276.357.154.228.651h.519l.022-.077.183-.575.353-.154.607.295.367-.381-.035-.073-.269-.534.1-.377Zm-2.187.5a.757.757 0 1 1 .725-.761v.003a.745.745 0 0 1-.725.756Z" fill="#fff"/></svg>