<svg xmlns="http://www.w3.org/2000/svg" width="18" height="18"><defs><radialGradient id="a" cx="-7.55" cy="17.42" r="9" gradientTransform="matrix(.94 0 0 .94 16.02 -7.37)" gradientUnits="userSpaceOnUse"><stop offset=".18" stop-color="#5ea0ef"/><stop offset=".56" stop-color="#5c9fee"/><stop offset=".69" stop-color="#559ced"/><stop offset=".78" stop-color="#4a97e9"/><stop offset=".86" stop-color="#3990e4"/><stop offset=".93" stop-color="#2387de"/><stop offset=".99" stop-color="#087bd6"/><stop offset="1" stop-color="#0078d4"/></radialGradient><radialGradient id="b" cx="-7.17" cy="18.5" r="1.26" gradientTransform="matrix(.94 0 0 .94 15.68 -8.34)" gradientUnits="userSpaceOnUse"><stop offset="0" stop-color="#7f7f7f"/><stop offset="1" stop-color="#5e5e5e"/></radialGradient></defs><circle cx="8.88" cy="9.09" r="8.5" fill="url(#a)"/><circle cx="8.92" cy="9.09" r="7.4" fill="#fff"/><path fill="#7a7a7a" d="m12.347 5.348.898-.898.29.29-.898.898zM13.93 8.88h1.27v.41h-1.27zM12.288 12.756l.29-.29.898.898-.29.29zM8.71 14.08h.41v1.27h-.41zM4.251 4.7l.29-.29.898.897-.29.29zM4.314 13.395l.898-.898.29.29-.898.898zM2.55 8.88h1.27v.41H2.55z"/><rect x="8.4" y="2.83" width="1.14" height="6.52" rx=".52" fill="#7a7a7a"/><rect x="9.92" y="8.65" width="1.14" height="4.08" rx=".52" transform="rotate(135 10.494 10.685)" fill="#7a7a7a"/><circle cx="8.92" cy="9.08" r="1.2" fill="url(#b)"/></svg>