<svg xmlns="http://www.w3.org/2000/svg" width="18" height="18"><defs><linearGradient id="a" x1="11.729" y1="4.88" x2="11.729" y2="13.099" gradientUnits="userSpaceOnUse"><stop offset=".001" stop-color="#773adc"/><stop offset=".528" stop-color="#6635bb"/><stop offset="1" stop-color="#552f99"/></linearGradient><linearGradient id="b" x1="6.35" y1="13.914" x2="6.35" y2="4.198" gradientUnits="userSpaceOnUse"><stop offset=".001" stop-color="#773adc"/><stop offset=".307" stop-color="#793ddd"/><stop offset=".532" stop-color="#8046e1"/><stop offset=".731" stop-color="#8c56e7"/><stop offset=".915" stop-color="#9c6def"/><stop offset="1" stop-color="#a67af4"/></linearGradient></defs><path d="M8.617 8.644H.639v-6.86A1.16 1.16 0 0 1 1.788.624h6.829ZM1.63 7.653h6V1.594H1.788a.158.158 0 0 0-.158.158ZM17.5 8.644H9.523V.624h6.828a1.16 1.16 0 0 1 1.149 1.16Zm-6.987-.991h6V1.784a.157.157 0 0 0-.123-.187.2.2 0 0 0-.035 0h-5.842ZM8.617 17.485H1.788a1.149 1.149 0 0 1-1.149-1.138V9.476h7.978ZM1.63 10.467v5.88a.158.158 0 0 0 .158.158h5.838v-6.038ZM16.351 17.485H9.523V9.476H17.5v6.871a1.149 1.149 0 0 1-1.149 1.138Zm-5.838-.991h5.838a.157.157 0 0 0 .158-.158v-5.869h-6Z" fill="#949494"/><path d="M14.6 6.294a.294.294 0 0 0-.2-.278L9.044 4.205A.128.128 0 0 0 9 4.2a.132.132 0 0 0-.133.133v9.445a.133.133 0 0 0 .133.133.138.138 0 0 0 .049-.01l5.365-2.145a.292.292 0 0 0 .184-.272Z" fill="url(#a)"/><path d="m8.966 4.2-5.293.966a.161.161 0 0 0-.13.158v7.306a.16.16 0 0 0 .126.157l5.293 1.123a.161.161 0 0 0 .191-.121.22.22 0 0 0 0-.036V4.358A.16.16 0 0 0 9 4.2a.163.163 0 0 0-.034 0Z" fill="url(#b)"/><path d="M6.52 5.656v6.8l1.842.3V5.335Zm-2.262.367v5.955l1.6.326v-6.55Z" fill="#b796f9" opacity=".5"/></svg>