<svg xmlns="http://www.w3.org/2000/svg" width="18" height="18"><defs><linearGradient id="a" x1="5.23" y1="17.45" x2="5.23" y2="8.09" gradientUnits="userSpaceOnUse"><stop offset="0" stop-color="#1988d9"/><stop offset=".9" stop-color="#54aef0"/></linearGradient><linearGradient id="b" x1="11.5" y1="12.45" x2="11.5" y2=".55" gradientUnits="userSpaceOnUse"><stop offset="0" stop-color="#198ab3"/><stop offset=".01" stop-color="#198bb4"/><stop offset=".44" stop-color="#27b2d7"/><stop offset=".79" stop-color="#2fcbed"/><stop offset="1" stop-color="#32d4f5"/></linearGradient></defs><path d="M5.59 13.13h4.32v4.32H5.59Zm-4.44 4.32h3.72v-4.32H.55v3.72a.6.6 0 0 0 .6.6Zm-.6-5h4.32V8.09H.55Z" fill="url(#a)"/><path d="M11.5.55a5.89 5.89 0 0 1 5.95 6 5.89 5.89 0 0 1-5.95 5.95H5.55v-6A5.89 5.89 0 0 1 11.5.55Z" fill-rule="evenodd" fill="url(#b)"/><path fill="#fff" d="M7.59 5.65h1.36v4.08H7.59zM10.31 7.01h1.36v2.72h-1.36zM13.03 4.29h1.36v5.44h-1.36z"/></svg>