<svg xmlns="http://www.w3.org/2000/svg" width="18" height="18"><defs><linearGradient id="a" x1="9" y1="13.343" x2="9" y2=".586" gradientUnits="userSpaceOnUse"><stop offset="0" stop-color="#0078d4"/><stop offset="1" stop-color="#5ea0ef"/></linearGradient><linearGradient id="b" x1="9.104" y1="10.28" x2="9.104" y2="7.603" gradientUnits="userSpaceOnUse"><stop offset="0" stop-color="#76bc2d"/><stop offset=".412" stop-color="#7ac32f"/><stop offset="1" stop-color="#86d633"/></linearGradient><linearGradient id="c" x1="9.119" y1="17.414" x2="9.119" y2="13.924" gradientUnits="userSpaceOnUse"><stop offset="0" stop-color="#0078d4"/><stop offset="1" stop-color="#5ea0ef"/></linearGradient></defs><path d="M18 9.348a4.045 4.045 0 0 0-3.51-3.888A5.1 5.1 0 0 0 9.24.586a5.228 5.228 0 0 0-5 3.407A4.827 4.827 0 0 0 0 8.637a4.9 4.9 0 0 0 5.068 4.706c.151 0 .3-.007.447-.019h8.207a.819.819 0 0 0 .217-.032A4.093 4.093 0 0 0 18 9.348Z" fill="url(#a)"/><path fill="#005ba1" d="M8.295 10.097h1.693v5.35H8.295z"/><path d="M13.937 5.8a.207.207 0 0 0-.207-.2h-2.445a.092.092 0 0 0-.065.158l.705.705.047.047a.094.094 0 0 1 0 .13l-.747.747a2.677 2.677 0 0 0-1.517-1.038V4.874a.093.093 0 0 1 .092-.093h1.068a.093.093 0 0 0 .066-.158L9.2 2.886a.207.207 0 0 0-.293 0l-1.74 1.737a.092.092 0 0 0 .065.158H8.3a.093.093 0 0 1 .093.093v1.475a2.678 2.678 0 0 0-1.56 1.092l-.805-.8a.094.094 0 0 1 0-.13l.047-.047.705-.7a.092.092 0 0 0-.065-.164H4.27a.207.207 0 0 0-.207.206v2.443a.093.093 0 0 0 .158.065l.705-.7.047-.047a.092.092 0 0 1 .13 0l1.275 1.271v.1a2.677 2.677 0 1 0 5.354 0c0-.067-.005-.133-.01-.2l1.18-1.18a.092.092 0 0 1 .13 0l.047.047.705.705a.093.093 0 0 0 .158-.065Z" fill="#fff"/><circle cx="9.104" cy="8.941" r="1.338" fill="url(#b)"/><circle cx="9.119" cy="15.669" r="1.745" fill="url(#c)"/></svg>