<svg xmlns="http://www.w3.org/2000/svg" width="18" height="18"><defs><linearGradient id="a" x1="6.809" y1="16.003" x2="6.809" y2=".414" gradientUnits="userSpaceOnUse"><stop offset="0" stop-color="#773adc"/><stop offset=".4" stop-color="#8d58e7"/><stop offset="1" stop-color="#a67af4"/></linearGradient><linearGradient id="b" x1="11.106" y1="18" x2="11.106" y2="12.199" gradientUnits="userSpaceOnUse"><stop offset="0" stop-color="#fea11b"/><stop offset=".7" stop-color="#ffd70f"/></linearGradient></defs><path d="M12.1 1.676H7.983v1.405a.663.663 0 0 1-.663.663h-1a.663.663 0 0 1-.663-.663v-1.4H1.521a.47.47 0 0 0-.47.47v13.086a.47.47 0 0 0 .47.47h3.386V14.518a.478.478 0 0 1 .477-.477h.638v-.917a.479.479 0 0 1 .478-.478h1.157a.478.478 0 0 1 .477.478v.917h2.832a3.252 3.252 0 0 1 1.6-1.848V2.146a.47.47 0 0 0-.466-.47Z" fill="url(#a)"/><path d="M9.458 10.505A2.842 2.842 0 0 0 7.607 7.94a1.468 1.468 0 0 1-1.593-.018 2.625 2.625 0 0 0-1.856 2.587.475.475 0 0 0 .424.52.359.359 0 0 0 .047 0h4.359a.472.472 0 0 0 .473-.47.544.544 0 0 0-.003-.054Z" fill="#fff" opacity=".8"/><path d="M6.838 8.166a1.477 1.477 0 0 1-.8-.237l.8 2.083.792-2.069a1.485 1.485 0 0 1-.792.223Z" fill="#fff" opacity=".9"/><circle cx="6.827" cy="6.679" r="1.488" fill="#fff" opacity=".8"/><rect x="6.033" width="1.571" height="3.364" rx=".283" fill="#773adc"/><path d="M11.236 15.8a2.9 2.9 0 1 0 3.013-3.592c-.068 0-.134-.006-.2-.006a2.9 2.9 0 0 0-2.813 2.2H7.889a.116.116 0 0 1-.116-.116v-1.162a.116.116 0 0 0-.116-.117H6.5a.116.116 0 0 0-.116.117v1.162a.116.116 0 0 1-.117.116h-.888a.116.116 0 0 0-.116.116v1.162a.116.116 0 0 0 .116.117Zm2.813-2.217a1.669 1.669 0 0 1 .2.012 1.52 1.52 0 0 1-.2 3.027 1.485 1.485 0 0 1-.2-.013 1.519 1.519 0 0 1 .2-3.026Z" fill="url(#b)"/>​</svg>