<svg xmlns="http://www.w3.org/2000/svg" width="18" height="18"><defs><linearGradient id="a" x1="-245.439" y1="803.355" x2="-245.439" y2="815.481" gradientTransform="scale(1 -1) rotate(-45 -1103.926 95.67)" gradientUnits="userSpaceOnUse"><stop offset="0" stop-color="#ef7100"/><stop offset=".82" stop-color="#f78d1e"/></linearGradient></defs><path d="M9.3 14.752c0-.154-.613-.154-.613 0a1.656 1.656 0 0 1-1.636 1.8h3.882a1.655 1.655 0 0 1-1.633-1.8Z" fill="#999"/><path d="M13.335 1.1a.571.571 0 0 1 .807 0l.026.028a8.32 8.32 0 0 1-11.736 11.73.57.57 0 0 1-.049-.8l.025-.026A.571.571 0 0 1 3.19 12 7.178 7.178 0 0 0 13.312 1.882a.573.573 0 0 1 .023-.782ZM11.946 17.5h-5.9a.476.476 0 0 1-.476-.476.476.476 0 0 1 .476-.476h5.9a.476.476 0 0 1 .475.476.476.476 0 0 1-.475.476Z" fill="#a3a3a3"/><circle cx="7.871" cy="6.563" r="6.063" fill="url(#a)"/><path d="M4.15 9.515h7.562a.293.293 0 0 0 .251-.443l-3.78-6.355a.293.293 0 0 0-.5 0L3.9 9.072a.293.293 0 0 0 .25.443Z" fill="#f2f2f2"/><path d="M8.254 7.571h-.646a.146.146 0 0 1-.152-.134l-.069-2.946a.144.144 0 0 1 .151-.14h.786a.144.144 0 0 1 .151.14l-.069 2.946a.146.146 0 0 1-.152.134Z" fill="#f78d1e"/><circle cx="7.931" cy="8.451" r=".516" fill="#f78d1e"/></svg>