<svg xmlns="http://www.w3.org/2000/svg" width="18" height="18"><defs><linearGradient id="a" x1="8.284" y1="13.471" x2="8.284" y2=".189" gradientUnits="userSpaceOnUse"><stop offset="0" stop-color="#0078d4"/><stop offset="1" stop-color="#5ea0ef"/></linearGradient></defs><rect x="1.904" y=".189" width="12.761" height="13.281" rx=".521" fill="url(#a)"/><g fill="#fff"><ellipse cx="6.29" cy="5.086" rx="1.025" ry="1.029"/><ellipse cx="10.124" cy="7.034" rx="1.025" ry="1.029"/><ellipse cx="12.628" cy="2.116" rx="1.025" ry="1.029"/><ellipse cx="4.241" cy="10.987" rx="1.025" ry="1.029"/><path opacity=".8" d="m4.591 11.097-.7-.221 1.988-6.301 4.204 1.972 2.215-4.59.661.319-2.53 5.244-4.102-1.924-1.736 5.501z"/></g><path d="m16 15.764-1.847 1.976a.24.24 0 0 1-.34 0 .236.236 0 0 1-.066-.129l-1.118-5.449a.241.241 0 0 1 .111-.222l1.219-.5a.239.239 0 0 1 .3.12l1.8 3.971a.223.223 0 0 1-.059.233Z" fill="#32bedd"/><path d="m9.969 15.764 1.847 1.976a.24.24 0 0 0 .34 0 .244.244 0 0 0 .067-.129l1.117-5.449a.241.241 0 0 0-.14-.262l-1.219-.5a.239.239 0 0 0-.3.12L9.877 15.5a.222.222 0 0 0 .092.264Z" fill="#50e6ff"/><path d="m13.276 7.322.24-.2a.378.378 0 0 1 .526.046.338.338 0 0 1 .065.111l.111.3a.388.388 0 0 0 .415.24l.305-.056a.379.379 0 0 1 .434.3.316.316 0 0 1 0 .13l-.055.3a.386.386 0 0 0 .24.416l.295.1a.386.386 0 0 1 .222.489.686.686 0 0 1-.065.111l-.2.231a.388.388 0 0 0 0 .48l.2.24a.368.368 0 0 1-.047.52l-.008.007a.382.382 0 0 1-.1.064l-.295.111a.37.37 0 0 0-.24.416l.055.3a.359.359 0 0 1-.286.422h-.019a.281.281 0 0 1-.129 0h-.305a.369.369 0 0 0-.415.24l-.111.287a.37.37 0 0 1-.472.225h-.008a.332.332 0 0 1-.111-.064l-.231-.231a.37.37 0 0 0-.48 0l-.24.194a.369.369 0 0 1-.521-.04l-.006-.006a.233.233 0 0 1-.065-.111l-.11-.287a.362.362 0 0 0-.416-.24l-.3.056a.379.379 0 0 1-.434-.314.27.27 0 0 1 0-.12l.056-.3a.37.37 0 0 0-.241-.416l-.286-.111a.388.388 0 0 1-.268-.461.686.686 0 0 1 .065-.111l.2-.24a.389.389 0 0 0 0-.481l-.2-.23a.378.378 0 0 1 .052-.533.226.226 0 0 1 .111-.056l.287-.11a.39.39 0 0 0 .24-.416l-.019-.277a.379.379 0 0 1 .3-.434h.129l.3.055a.379.379 0 0 0 .416-.24l.11-.3a.379.379 0 0 1 .481-.221l.111.064.24.2a.379.379 0 0 0 .477-.049Z" fill="#005ba1"/><circle cx="13.045" cy="10.112" r="2.18" fill="#ffd400"/></svg>