<svg xmlns="http://www.w3.org/2000/svg" width="18" height="18"><defs><linearGradient id="a" x1="5.06" y1="11.62" x2="5.06" y2="14.5" gradientUnits="userSpaceOnUse"><stop offset="0" stop-color="#b77af4"/><stop offset="1" stop-color="#773adc"/></linearGradient><linearGradient id="b" x1="13.06" y1="11.62" x2="13.06" y2="14.5" gradientUnits="userSpaceOnUse"><stop offset="0" stop-color="#b77af4"/><stop offset="1" stop-color="#773adc"/></linearGradient></defs><path d="M1.06 1.6v14.92a.54.54 0 0 0 .54.54h14.92a.54.54 0 0 0 .54-.54V1.6a.54.54 0 0 0-.54-.54H1.6a.54.54 0 0 0-.54.54Zm14.56 14H3a.54.54 0 0 1-.54-.54V2.5h13.16Z" fill="#0078d4"/><path d="M3.62 3.62H6.5V6.5H3.62Z" fill="#ffca00"/><path d="M3.62 7.62H6.5v2.88H3.62Z" fill="#e62323"/><path d="M7.62 7.62h2.88v2.88H7.62Z" fill="#5ea0ef"/><path d="M3.62 11.62H6.5v2.88H3.62Z" fill="url(#a)"/><path d="M7.62 11.62h2.88v2.88H7.62Z" fill="#e62323"/><path d="M11.62 11.62h2.88v2.88h-2.88Z" fill="url(#b)"/></svg>