<svg xmlns="http://www.w3.org/2000/svg" width="18" height="18"><defs><linearGradient id="a" x1="-655.644" y1="751.401" x2="-655.644" y2="763.239" gradientTransform="translate(667.725 -742.844)" gradientUnits="userSpaceOnUse"><stop offset="0" stop-color="#76bc2d"/><stop offset=".312" stop-color="#72b62c"/><stop offset="1" stop-color="#5e9624"/></linearGradient><linearGradient id="b" x1="-650.227" y1="759.495" x2="-650.227" y2="763.239" gradientTransform="translate(666.355 -752.308)" gradientUnits="userSpaceOnUse"><stop offset="0" stop-color="#76bc2d"/><stop offset=".312" stop-color="#72b62c"/><stop offset="1" stop-color="#5e9624"/></linearGradient><linearGradient id="c" x1="-644.724" y1="751.401" x2="-644.724" y2="763.239" gradientTransform="translate(656.805 -753.765)" gradientUnits="userSpaceOnUse"><stop offset="0" stop-color="#76bc2d"/><stop offset=".312" stop-color="#72b62c"/><stop offset="1" stop-color="#5e9624"/></linearGradient></defs><rect x="7.753" y="5.476" width="2.494" height="18" rx=".596" transform="rotate(-90 9 14.476)" fill="#5e9624"/><rect x="7.753" y=".059" width="2.494" height="18" rx=".596" transform="rotate(-90 9 9.059)" fill="#5e9624"/><rect x="7.753" y="-5.444" width="2.494" height="18" rx=".596" transform="rotate(-90 9 3.556)" fill="#5e9624"/><rect x="10.834" y="8.557" width="2.494" height="11.838" rx=".596" transform="rotate(-90 12.081 14.476)" fill="url(#a)"/><rect x="14.881" y="7.187" width="2.494" height="3.744" rx=".596" transform="rotate(-90 16.128 9.06)" fill="url(#b)"/><rect x="10.834" y="-2.363" width="2.494" height="11.838" rx=".596" transform="rotate(-90 12.081 3.556)" fill="url(#c)"/><rect x="4.74" y="13.855" width="3.766" height="1.178" rx=".589" transform="rotate(-90 6.623 14.444)" fill="#e6e6e6"/><rect x="12.671" y="8.419" width="3.766" height="1.178" rx=".589" transform="rotate(-90 14.554 9.008)" fill="#e6e6e6"/><rect x="4.74" y="2.967" width="3.766" height="1.178" rx=".589" transform="rotate(-90 6.623 3.556)" fill="#e6e6e6"/></svg>