<svg xmlns="http://www.w3.org/2000/svg" width="18" height="18"><defs><linearGradient id="b" x1="3.844" y1="9.561" x2="3.817" y2="6.165" gradientUnits="userSpaceOnUse"><stop offset="0" stop-color="#ccc"/><stop offset=".123" stop-color="#d7d7d7"/><stop offset="1" stop-color="#fcfcfc"/></linearGradient><linearGradient id="c" x1="8.763" y1="12.958" x2="8.763" y2="9.913" gradientUnits="userSpaceOnUse"><stop offset="0" stop-color="#ccc"/><stop offset=".123" stop-color="#d7d7d7"/><stop offset="1" stop-color="#fcfcfc"/></linearGradient><linearGradient id="d" x1="-105.292" y1="373.011" x2="-105.292" y2="364.165" gradientTransform="rotate(-18.3 -1154.522 -177.398)" gradientUnits="userSpaceOnUse"><stop offset="0" stop-color="#32bedd"/><stop offset=".576" stop-color="#32ceef"/><stop offset="1" stop-color="#32d4f5"/></linearGradient><radialGradient id="a" cx="4649.515" cy="3578.357" r="48.597" gradientTransform="matrix(.15 0 0 .15 -689.641 -529.326)" gradientUnits="userSpaceOnUse"><stop offset=".183" stop-color="#5ea0ef"/><stop offset="1" stop-color="#0078d4"/></radialGradient></defs><path data-name="Path 1237" d="M12.257 13.19A7.289 7.289 0 1 1 3.323 1.67l.077-.056a7.289 7.289 0 0 1 8.857 11.576" fill="url(#a)"/><path d="M5.808 5.913a11.162 11.162 0 0 1 7.642-3.071A7.185 7.185 0 0 0 12.176 1.6a12.386 12.386 0 0 0-4.026.95 10.628 10.628 0 0 0-3.5 2.414 2.348 2.348 0 0 1 1.158.949ZM2.2 8.841a16.236 16.236 0 0 0-.717 2.25 7.7 7.7 0 0 0 .534.791 6.782 6.782 0 0 0 .475.555 15.3 15.3 0 0 1 .928-2.975 2.332 2.332 0 0 1-1.22-.621Z" fill="#fff" opacity=".6"/><path d="M3.039 4.952a10.239 10.239 0 0 1-.591-2.526 7.277 7.277 0 0 0-.948 1.25A11.361 11.361 0 0 0 1.991 5.7a2.33 2.33 0 0 1 1.048-.748Z" fill="#f2f2f2" opacity=".55"/><circle cx="3.825" cy="7.157" r="2.343" fill="url(#b)"/><g fill="#f2f2f2"><path d="M7.241 11.435a1.515 1.515 0 0 1 .459-1.088 10.307 10.307 0 0 1-2.165-1.592 2.336 2.336 0 0 1-1.28.7 10.213 10.213 0 0 0 1.245 1.1 10.6 10.6 0 0 0 1.755 1.07 1.4 1.4 0 0 1-.014-.19ZM12.642 11.617a10.288 10.288 0 0 1-2.362-.275c0 .031.005.062.005.093a1.515 1.515 0 0 1-.433 1.065 11.879 11.879 0 0 0 2.925.209 7.185 7.185 0 0 0 .987-1.152 10.517 10.517 0 0 1-1.122.06Z" opacity=".55"/></g><circle cx="8.763" cy="11.435" r="1.522" fill="url(#c)"/><path d="M10.635 7.368a1.588 1.588 0 0 1 .525-.848 21.663 21.663 0 0 1-3.827-3.558A14.576 14.576 0 0 1 5.632.457 7.227 7.227 0 0 0 4.7.816a15.211 15.211 0 0 0 1.829 2.732 22.61 22.61 0 0 0 4.106 3.82Z" fill="#f2f2f2" opacity=".7"/><circle cx="12.232" cy="7.66" r="1.617" fill="#f2f2f2"/><path d="M14.948 8.75c-.1-.05-.18-.094-.275-.145l-.026-.014c-.086-.045-.17-.091-.254-.137l-.047-.026-.229-.128-.056-.032c-.091-.051-.181-.1-.27-.154a1.536 1.536 0 0 1-.546.793c.105.062.212.123.321.184l.072.041.3.165.029.016c.241.131.487.262.739.391a7.107 7.107 0 0 0 .243-.955Z" fill="#f2f2f2" opacity=".55"/><circle cx="3.825" cy="7.157" r="2.343" fill="url(#b)"/><circle cx="8.763" cy="11.435" r="1.522" fill="#f2f2f2"/><path d="m17.5 10.571-.317-.958h-1.287l-.485-.566.154-1.281-.895-.45-.112.112-.8.8-.744-.052-.8-1.02-.958.317-.006.151V8.76l-.566.485-1.26-.157-.449.894.112.112.8.8-.051.743-1.037.81.317.957.151.006h1.136l.485.566-.154 1.281.895.449.112-.112.8-.8.744.052.8 1.02.958-.317.006-.151v-1.135l.566-.486 1.281.154.45-.894-.112-.113-.8-.8.052-.744Zm-3.739 2.779a1.941 1.941 0 1 1 1.233-2.45 1.94 1.94 0 0 1-1.233 2.45Z" fill="url(#d)"/><path d="M7.613 14.753v-.794l-.113-.041-.85-.279-.221-.539.432-.919-.561-.562-.112.056-.794.4-.543-.223-.344-.952h-.794l-.042.111-.278.85-.544.223-.905-.432-.557.557.055.112.4.794-.222.543L.649 14v.8l.111.042.85.279.223.543-.432.919.557.557.111-.056.794-.4.543.222.349.962h.794l.041-.112.279-.85.543-.222.92.431.557-.557-.056-.111-.4-.794.223-.543Zm-3.482 1.153a1.529 1.529 0 1 1 1.528-1.529 1.528 1.528 0 0 1-1.528 1.529Z" fill="#50e6ff"/><circle cx="13.151" cy="11.507" r="1.941" fill="#fff"/><circle cx="4.131" cy="14.377" r="1.528" fill="#fff"/></svg>