<svg xmlns="http://www.w3.org/2000/svg" width="18" height="18"><defs><linearGradient id="a" x1="9" y1="15.834" x2="9" y2="5.788" gradientUnits="userSpaceOnUse"><stop offset="0" stop-color="#32bedd"/><stop offset=".775" stop-color="#32d4f5"/></linearGradient></defs><path d="M.5 5.788h17v9.478a.568.568 0 0 1-.568.568H1.068a.568.568 0 0 1-.568-.568V5.788Z" fill="url(#a)"/><path d="M1.071 2.166h15.858a.568.568 0 0 1 .568.568v3.054H.5V2.734a.568.568 0 0 1 .571-.568Z" fill="#0078d4"/><rect x="2.328" y="7.049" width="6.281" height="3.408" rx=".283" fill="#0078d4"/><rect x="9.336" y="7.049" width="6.281" height="3.408" rx=".283" fill="#fff"/><rect x="2.296" y="11.128" width="6.281" height="3.408" rx=".283" fill="#0078d4"/><rect x="9.304" y="11.128" width="6.281" height="3.408" rx=".283" fill="#0078d4"/></svg>