<svg xmlns="http://www.w3.org/2000/svg" width="18" height="18"><defs><linearGradient id="a" x1="3.96" y1="2.52" x2="3.96" y2="7.82" gradientUnits="userSpaceOnUse"><stop offset="0" stop-color="#32d4f5"/><stop offset="1" stop-color="#198ab3"/></linearGradient><linearGradient id="b" x1="14.04" y1="5.58" x2="14.04" y2="10.89" gradientUnits="userSpaceOnUse"><stop offset="0" stop-color="#32d4f5"/><stop offset="1" stop-color="#198ab3"/></linearGradient><linearGradient id="c" x1="5.29" y1="10.18" x2="5.29" y2="15.48" gradientUnits="userSpaceOnUse"><stop offset="0" stop-color="#32d4f5"/><stop offset="1" stop-color="#198ab3"/></linearGradient></defs><rect x=".5" y="2.52" width="6.92" height="5.31" rx=".28" fill="url(#a)"/><rect x="10.58" y="5.58" width="6.92" height="5.31" rx=".28" fill="url(#b)"/><rect x="1.82" y="10.18" width="6.92" height="5.31" rx=".42" fill="url(#c)"/><path d="m13.15 8.92.23-.64-8.56-3.15-.23.63Zm.53-.09-.32-.6-8.07 4.25.31.6ZM5 13.37l.67-.12-1.36-7.71-.67.12Z" fill="#773adc"/><circle cx="14.04" cy="8.23" r="1.08" transform="rotate(-32.41 14.042 8.242)" fill="#fff"/><circle cx="3.96" cy="5.17" r="1.08" transform="rotate(-32.41 3.966 5.164)" fill="#fff"/><circle cx="5.29" cy="12.83" r="1.08" transform="rotate(-32.41 5.285 12.824)" fill="#fff"/></svg>