<svg xmlns="http://www.w3.org/2000/svg" width="18" height="18"><defs><linearGradient id="a" x1="9" y1="13.51" x2="9" y2=".76" gradientUnits="userSpaceOnUse"><stop offset="0" stop-color="#f78d1e"/><stop offset=".44" stop-color="#f8911e"/><stop offset=".85" stop-color="#f99c1d"/><stop offset="1" stop-color="#faa21d"/></linearGradient></defs><rect y=".76" width="18" height="12.75" rx=".6" fill="url(#a)"/><rect x="1.05" y="1.88" width="15.9" height="10.5" rx=".3" fill="#fff"/><path d="M14.94 9.34a.29.29 0 0 1-.28.29h-6.5a.29.29 0 0 1 0-.58h6.5a.28.28 0 0 1 .28.29M14.94 7.54a.29.29 0 0 1-.28.29h-6.5a.29.29 0 0 1 0-.58h6.5a.28.28 0 0 1 .28.29M14.94 4.93a.28.28 0 0 1-.28.29H3.77a.29.29 0 1 1 0-.58h10.89a.28.28 0 0 1 .28.29" fill="#d15900"/><path d="M5.13 12.69a2.52 2.52 0 0 1-3.37 0l-.21 4.19a.33.33 0 0 0 .57.25l1.3-1.32 1.31 1.33a.33.33 0 0 0 .57-.24Z" fill="#b31b1b"/><ellipse cx="3.48" cy="10.54" rx="3.01" ry="3.02" fill="#e62323"/><circle cx="3.48" cy="10.54" fill="#ffb34d" r="2.29"/></svg>