<svg xmlns="http://www.w3.org/2000/svg" width="18" height="18"><defs><linearGradient id="a" x1="12.3" y1=".49" x2="12.3" y2="17.33" gradientUnits="userSpaceOnUse"><stop offset="0" stop-color="#5ea0ef"/><stop offset=".18" stop-color="#559cec"/><stop offset=".47" stop-color="#3c91e5"/><stop offset=".84" stop-color="#1380da"/><stop offset="1" stop-color="#0078d4"/></linearGradient><linearGradient id="b" x1="9.48" y1="17.51" x2="9.48" y2="9.35" gradientUnits="userSpaceOnUse"><stop offset="0" stop-color="#198ab3"/><stop offset="0" stop-color="#198ab3"/><stop offset=".14" stop-color="#22a5cb"/><stop offset=".3" stop-color="#29bade"/><stop offset=".47" stop-color="#2ec9eb"/><stop offset=".68" stop-color="#31d1f3"/><stop offset="1" stop-color="#32d4f5"/></linearGradient></defs><path d="M16.68.49H7.92a.57.57 0 0 0-.57.56v12.48a10.47 10.47 0 0 1 1.42-1h1.66l.92 1.22v1.85l-1.16.84-1.61-.2-1.23-1.16v1.69a.57.57 0 0 0 .57.56h8.76a.56.56 0 0 0 .56-.56V1.05a.56.56 0 0 0-.56-.56Z" fill="url(#a)"/><path d="M8.66 2.24h1.61a.14.14 0 0 1 .14.14v2.08a.14.14 0 0 1-.14.14H8.66a.14.14 0 0 1-.14-.14V2.38a.14.14 0 0 1 .14-.14Zm2.83 0h1.61a.14.14 0 0 1 .14.14v2.08a.14.14 0 0 1-.14.14h-1.61a.14.14 0 0 1-.14-.14V2.38a.14.14 0 0 1 .14-.14Zm2.84 0h1.61a.14.14 0 0 1 .14.14v2.08a.14.14 0 0 1-.14.14h-1.61a.14.14 0 0 1-.14-.14V2.38a.14.14 0 0 1 .14-.14ZM8.66 6h1.61a.14.14 0 0 1 .14.14v2.1a.14.14 0 0 1-.14.14H8.66a.14.14 0 0 1-.14-.14V6.16A.14.14 0 0 1 8.66 6Zm2.83 0h1.61a.14.14 0 0 1 .14.14v2.1a.14.14 0 0 1-.14.14h-1.61a.14.14 0 0 1-.14-.14V6.16a.14.14 0 0 1 .14-.16Zm2.84 0h1.61a.14.14 0 0 1 .14.14v2.1a.14.14 0 0 1-.14.14h-1.61a.14.14 0 0 1-.14-.14V6.16a.14.14 0 0 1 .14-.16ZM8.66 9.8h1.61a.14.14 0 0 1 .14.14V12a.14.14 0 0 1-.14.14H8.66a.14.14 0 0 1-.14-.14V9.94a.14.14 0 0 1 .14-.14Zm2.83 0h1.61a.14.14 0 0 1 .14.14V12a.14.14 0 0 1-.14.14h-1.61a.14.14 0 0 1-.14-.14V9.94a.14.14 0 0 1 .14-.14Zm0 3.78h1.61a.14.14 0 0 1 .14.14v3.08a.14.14 0 0 1-.14.14h-1.61a.14.14 0 0 1-.14-.14v-3.08a.14.14 0 0 1 .14-.14Zm2.84-3.78h1.61a.14.14 0 0 1 .14.14V12a.14.14 0 0 1-.14.14h-1.61a.14.14 0 0 1-.14-.14V9.94a.14.14 0 0 1 .14-.14Z" fill="#f2f2f2"/><path d="M9.5 13a1.3 1.3 0 0 0-1.24 1h-4.5a2.82 2.82 0 0 0-.08.65v.06h4.58A1.29 1.29 0 1 0 9.5 13Z" fill="#50e6ff"/><path d="M13 12.46a3.26 3.26 0 0 0-3.4-3.11 3.34 3.34 0 0 0-3.2 2.18 3.18 3.18 0 0 0-2.54 2H8A1.72 1.72 0 1 1 9.5 16a1.73 1.73 0 0 1-1.53-1H3.75a3.2 3.2 0 0 0 3.18 2.42h5.68a2.63 2.63 0 0 0 2.6-2.42A2.6 2.6 0 0 0 13 12.46Z" fill="url(#b)"/><path d="M9.5 13a1.3 1.3 0 0 0-1.24 1h-4.5a2.22 2.22 0 0 1-.47-.06 2.32 2.32 0 0 1-1.82-2.19 2.33 2.33 0 0 1 2.07-2.29h.22l.07-.2a2.56 2.56 0 0 1 2.46-1.71 2.64 2.64 0 0 1 2.28 1.27 3.08 3.08 0 0 1 .75-.09 3.32 3.32 0 0 0-3-1.89 3.28 3.28 0 0 0-3.09 1.95 3 3 0 0 0-2.47 2.92A3 3 0 0 0 3 14.55a2 2 0 0 0 .73.12h4.53A1.29 1.29 0 1 0 9.5 13Z" fill="#50e6ff"/></svg>