<svg xmlns="http://www.w3.org/2000/svg" width="18" height="18"><defs><linearGradient id="a" x1="-655.236" y1="2848.852" x2="-637.632" y2="2879.398" gradientTransform="scale(1 -1) rotate(-60 -2804.166 866.454)" gradientUnits="userSpaceOnUse"><stop offset="0" stop-color="#005ba1"/><stop offset=".366" stop-color="#004e8f"/><stop offset="1" stop-color="#003067"/></linearGradient><linearGradient id="b" x1="-4132.03" y1="-451.06" x2="-4110.646" y2="-413.559" gradientTransform="scale(-1 1) rotate(-60 -1677.659 -3770.88)" gradientUnits="userSpaceOnUse"><stop offset="0" stop-color="#005ba1"/><stop offset=".451" stop-color="#004685"/><stop offset="1" stop-color="#003067"/></linearGradient><linearGradient id="c" x1="5.986" y1="506.861" x2="7.43" y2="515.104" gradientTransform="matrix(1 0 0 -1 0 521.307)" gradientUnits="userSpaceOnUse"><stop offset=".26" stop-color="#50e6ff"/><stop offset=".42" stop-color="#79eaff"/><stop offset=".58" stop-color="#99edff"/><stop offset=".733" stop-color="#b0efff"/><stop offset=".876" stop-color="#bef1ff"/><stop offset="1" stop-color="#c3f1ff"/></linearGradient></defs><path d="M9.226 3.927 13.6 6.442l3.048-1.76a8.79 8.79 0 0 0-13.93-1.858 10.022 10.022 0 0 1 6.508 1.103Z" fill="url(#a)"/><path d="m13.541 6.442-.069 6.034 3.168.851A8.793 8.793 0 0 0 11.4.536a10.454 10.454 0 0 1 2.141 5.906Z" fill="#0078d4"/><path d="m13.535 11.646-4.552 2.63.071 3.5a8.8 8.8 0 0 0 8.764-8.8 8.48 8.48 0 0 0-.288-2.09 9.579 9.579 0 0 1-3.995 4.76Z" fill="#5ea0ef"/><path d="m8.983 14.276-4.555-2.63-3.02 1.812a8.782 8.782 0 0 0 13.672 1.881 9.907 9.907 0 0 1-6.097-1.063Z" fill="url(#b)"/><path d="m4.425 11.646.069-6.237-3.117-.821A8.727 8.727 0 0 0 .183 9a8.846 8.846 0 0 0 6.535 8.5 10.184 10.184 0 0 1-2.293-5.854Z" fill="#0078d4"/><path d="m4.583 6.3 4.4-2.543a10.573 10.573 0 0 0-5.942-1.245A8.754 8.754 0 0 0 .183 9 8.966 8.966 0 0 0 .5 11.32 10.245 10.245 0 0 1 4.583 6.3Z" fill="#5ea0ef"/><path fill="#c3f1ff" d="M13.535 11.646v-5.26L8.98 3.757 4.425 6.386v5.26l4.555 2.63 4.555-2.63z"/><path fill="url(#c)" d="M8.986 9.071v5.205l-4.561-2.63V6.404l4.561 2.667z"/><path fill="#50e6ff" d="M8.98 9.071v5.205l4.561-2.63V6.404L8.98 9.071z"/></svg>