<svg xmlns="http://www.w3.org/2000/svg" width="18" height="18"><defs><linearGradient id="a" x1="-4014.225" y1="-119.864" x2="-4014.225" y2="-127.984" gradientTransform="rotate(180 -2002.611 -59.682)" gradientUnits="userSpaceOnUse"><stop offset="0" stop-color="#6bb9f2"/><stop offset="1" stop-color="#1b93eb"/></linearGradient></defs><path d="M12.649 16.631c-1.9-.255-1.866-1.475-1.857-3.452H7.237c.009 1.977.041 3.2-1.856 3.452a.967.967 0 0 0-.894.869h9.061a.972.972 0 0 0-.899-.869Z" fill="#1f56a3"/><rect x=".83" y="1.665" width="16.34" height="11.571" rx=".554" fill="#1490df"/><rect x="1.77" y="2.561" width="14.435" height="9.601" rx=".277" fill="#fff"/><path d="M12.565 5.22 9.279 8.505a.392.392 0 0 1-.554 0L5.44 5.22a.175.175 0 0 1 .124-.3h2.02a.175.175 0 0 0 .175-.175V.64A.139.139 0 0 1 7.9.5h2.207a.139.139 0 0 1 .139.14v4.106a.176.176 0 0 0 .176.175h2.02a.175.175 0 0 1 .123.299Z" fill="url(#a)"/><g fill="#999"><path d="M4.388 8.869h.724a.16.16 0 0 1 .16.16v2.024h-.723a.321.321 0 0 1-.321-.321V9.03a.16.16 0 0 1 .16-.161Z"/><path d="M4.388 8.869h.724a.16.16 0 0 1 .16.16v2.024h-.723a.321.321 0 0 1-.321-.321V9.03a.16.16 0 0 1 .16-.161Z" opacity=".5"/></g><g fill="#999"><path d="M12.887 8.869h.724a.16.16 0 0 1 .16.16v1.7a.321.321 0 0 1-.321.321h-.724V9.03a.16.16 0 0 1 .161-.161Z"/><path d="M12.887 8.869h.724a.16.16 0 0 1 .16.16v1.7a.321.321 0 0 1-.321.321h-.724V9.03a.16.16 0 0 1 .161-.161Z" opacity=".5"/></g><path d="M4.228 10.735v-.7h9.544v.7a.318.318 0 0 1-.316.318h-8.91a.318.318 0 0 1-.318-.318Z" fill="#949494"/></svg>