<svg xmlns="http://www.w3.org/2000/svg" width="18" height="18"><defs><linearGradient id="a" x1="8.886" y1="12.654" x2="8.886" y2="6.632" gradientUnits="userSpaceOnUse"><stop offset="0" stop-color="#1988d9"/><stop offset=".218" stop-color="#218ddc"/><stop offset=".559" stop-color="#379ce5"/><stop offset=".9" stop-color="#54aef0"/></linearGradient></defs><path d="M8.886 12.654c3.062-2.194 3.165-3.474 3.179-3.875.019-.56-.059-2.026-1.537-2.141a1.6 1.6 0 0 0-1.642 1.069 1.6 1.6 0 0 0-1.642-1.069c-1.478.115-1.556 1.581-1.537 2.141.013.4.116 1.681 3.179 3.875" fill="url(#a)"/><path d="M12.065 8.779c.019-.56-.059-2.026-1.537-2.141a1.6 1.6 0 0 0-1.642 1.069 1.6 1.6 0 0 0-1.642-1.069c-1.478.115-1.556 1.581-1.537 2.141.013.4.09 1.662 3.152 3.856" fill="none"/><path d="M12.688 5.311a21.737 21.737 0 0 0-3.006-2.517c-.227.136-.455.28-.682.431a20.682 20.682 0 0 1 3.165 2.609A20.494 20.494 0 0 1 14.763 9q.231-.35.437-.7a21.85 21.85 0 0 0-2.512-2.989ZM5.835 12.164A20.56 20.56 0 0 1 3.236 9c-.153.233-.3.465-.436.7a21.85 21.85 0 0 0 2.512 2.992A21.986 21.986 0 0 0 8.3 15.2q.348-.207.7-.438a20.494 20.494 0 0 1-3.165-2.598ZM15.661 9c-.145.231-.3.463-.461.7 1.613 2.712 2.069 5.247.906 6.41s-3.7.707-6.41-.905c-.232.161-.465.314-.7.459a10.449 10.449 0 0 0 5.23 1.84 3.28 3.28 0 0 0 2.4-.871c1.49-1.493 1.012-4.481-.965-7.633ZM2.8 8.3C1.187 5.591.731 3.056 1.894 1.893a2.571 2.571 0 0 1 1.874-.648 6.9 6.9 0 0 1 2.319.469 13.289 13.289 0 0 1 2.231 1.08q.341-.234.682-.448A14.356 14.356 0 0 0 6.34 1.02c-2.181-.8-3.946-.673-4.969.35C-.116 2.858.362 5.846 2.339 9c.145-.232.3-.464.461-.7Z" fill="#b3b3b3"/><path d="M3.77 17.5a3.28 3.28 0 0 1-2.4-.871C-.7 14.56 1.035 9.589 5.312 5.311A18.318 18.318 0 0 1 11.66 1.02c2.181-.8 3.946-.672 4.969.35 2.068 2.068.336 7.039-3.941 11.317C9.632 15.742 6.222 17.5 3.77 17.5ZM14.232 1.245a6.9 6.9 0 0 0-2.319.469 17.572 17.572 0 0 0-6.078 4.12C1.983 9.686.178 14.389 1.894 16.105s6.419-.089 10.271-3.941 5.657-8.556 3.941-10.271a2.571 2.571 0 0 0-1.874-.648Z" fill="#5ea0ef"/><path fill="#b3b3b3" d="m2.8 8.303.692 1.072-.554.517-.842-1.293.704-.296zM15.2 9.695l-.734-1.133.606-.472.771 1.206-.643.399z"/></svg>