<svg xmlns="http://www.w3.org/2000/svg" width="18" height="18"><defs><linearGradient id="a" x1="6.36" y1="22.03" x2="6.36" y2="-1.85" gradientUnits="userSpaceOnUse"><stop offset="0" stop-color="#0078d4"/><stop offset=".17" stop-color="#1c84dc"/><stop offset=".38" stop-color="#3990e4"/><stop offset=".59" stop-color="#4d99ea"/><stop offset=".8" stop-color="#5a9eee"/><stop offset="1" stop-color="#5ea0ef"/></linearGradient><linearGradient id="b" x1="6.36" y1="15.59" x2="6.36" y2="1.94" gradientUnits="userSpaceOnUse"><stop offset="0" stop-color="#d2ebff"/><stop offset="1" stop-color="#f0fffd"/></linearGradient></defs><rect x="1.28" y=".5" width="10.17" height="16.99" rx=".51" fill="url(#a)"/><rect x="5.79" y="16.17" width="1.14" height=".97" rx=".27" fill="#f2f2f2"/><rect x="5.19" y="1.07" width="2.34" height=".31" rx=".15" fill="#f2f2f2"/><rect x="2.23" y="1.94" width="8.26" height="13.65" rx=".19" opacity=".9" fill="url(#b)"/><rect x="9.2" y="9.98" width="7.52" height="7.52" rx=".28" fill="#76bc2d"/><path d="m12.575 15.34-.432.43a.19.19 0 0 1-.268 0l-1.726-1.724a.19.19 0 0 1 0-.27l.304-.303a.19.19 0 0 1 .269 0l1.86 1.86Z" fill="#fff"/><path d="m11.914 15.759-.431-.432 3.96-3.96a.19.19 0 0 1 .268 0l.304.304a.19.19 0 0 1 0 .27l-3.825 3.825a.19.19 0 0 1-.269 0Z" fill="#fff"/></svg>