<svg xmlns="http://www.w3.org/2000/svg" width="18" height="18"><defs><linearGradient id="a" x1="9" y1="15.296" x2="9" y2="2.704" gradientUnits="userSpaceOnUse"><stop offset="0" stop-color="#0078d4"/><stop offset=".817" stop-color="#5ea0ef"/></linearGradient></defs><path d="M17.884 11.352a3.992 3.992 0 0 0-3.465-3.837A5.031 5.031 0 0 0 9.237 2.7 5.162 5.162 0 0 0 4.3 6.067a4.765 4.765 0 0 0-4.184 4.584 4.834 4.834 0 0 0 5 4.645c.149 0 .295-.007.441-.019h8.1a.791.791 0 0 0 .214-.032 4.039 4.039 0 0 0 4.013-3.893Z" fill="url(#a)"/><path d="M9.465 10.534A4.675 4.675 0 1 0 4.792 15.3h4.675v-4.766Z" fill="#005ba1"/><path fill="#32bedd" d="M7.654 9.172v3.311l-2.862 1.664v-3.316l2.862-1.659z"/><path fill="#9cebff" d="m7.654 9.172-2.862 1.663-2.863-1.664 2.863-1.664 2.862 1.665z"/><path fill="#50e6ff" d="M4.792 10.835v3.312l-2.863-1.664V9.171l2.863 1.664z"/></svg>