<svg xmlns="http://www.w3.org/2000/svg" width="18" height="18"><defs><linearGradient id="a" x1="9" y1="2" x2="9" y2="16" gradientUnits="userSpaceOnUse"><stop offset=".18" stop-color="#5ea0ef"/><stop offset="1" stop-color="#0078d4"/></linearGradient></defs><rect y="2" width="18" height="14" rx=".76" fill="url(#a)"/><path d="m8.318 4.81-.009.043a3.97 3.97 0 0 0-1.213.573 2.83 2.83 0 0 0-2.162.074 3.092 3.092 0 0 0 .559 2.097 5.25 5.25 0 0 0-.275 1.192 2.797 2.797 0 0 0-1.354 1.573 2.98 2.98 0 0 0 1.888 1.065l.003-.002a4.409 4.409 0 0 0 .668.903 2.348 2.348 0 0 0 .045 1.665 2.708 2.708 0 0 0 1.742-.531 4.385 4.385 0 0 0 1.587.222 1.952 1.952 0 0 0 1.262.746 2.011 2.011 0 0 0 .605-1.33l-.001-.027-.002-.027a3.514 3.514 0 0 0 .984-1.042 1.6 1.6 0 0 0 1.103-.4 1.682 1.682 0 0 0-.572-1.066l-.015-.011-.015-.01a2.808 2.808 0 0 0-2.851-3.152c-2.835-.103-2.532 4.888.283 3.511.173-.415-.484.024-.662-.069A1.168 1.168 0 0 1 8.834 9.58a1.47 1.47 0 0 1 2.255-1.1c1.883 1.053.538 3.992-1.428 3.827h-.002a3.067 3.067 0 0 1-2.99-3.05 3.306 3.306 0 0 1 3.198-3.413c1.916-.182 3.373 1.376 3.918 2.987a3.44 3.44 0 0 0-1.134-2.95 1.581 1.581 0 0 0-.186-1.134 1.68 1.68 0 0 0-1.094.281 4.253 4.253 0 0 0-1.095-.303A2.033 2.033 0 0 0 9.29 3.57a2.157 2.157 0 0 0-.972 1.24" fill="#f2f2f2"/></svg>