<svg xmlns="http://www.w3.org/2000/svg" width="18" height="18"><defs><linearGradient id="a" x1="9.03" y1="13.38" x2="9.03" y2="4.63" gradientUnits="userSpaceOnUse"><stop offset="0" stop-color="#198ab3"/><stop offset=".4" stop-color="#25aed3"/><stop offset=".78" stop-color="#2fcaec"/><stop offset="1" stop-color="#32d4f5"/></linearGradient></defs><rect x="4.65" y="4.63" width="8.75" height="8.75" rx=".41" fill="url(#a)"/><path d="M7.31 12.53Z" fill="#fff"/><path d="m11.78 12.18 4.38-3.07a.13.13 0 0 0 0-.22l-4.38-3.06a.13.13 0 0 0-.21.11V7.7H4.65v2.6h6.92v1.77a.14.14 0 0 0 .21.11Z" fill="#c3f1ff"/><path d="M17 17.6H1a.52.52 0 0 1-.52-.52V.92A.52.52 0 0 1 1 .4h16a.52.52 0 0 1 .52.52V6a.26.26 0 0 1-.41.22l-1-.7A.27.27 0 0 1 16 5.3V2H2.06v14h13.88v-3.2a.26.26 0 0 1 .11-.21l1-.73a.26.26 0 0 1 .41.22v5a.52.52 0 0 1-.46.52Z" fill="#949494"/><path d="M15.94 2v3.25a.27.27 0 0 0 .11.22l1 .7A.26.26 0 0 0 17.5 6V2ZM15.94 16v-3.25a.25.25 0 0 1 .11-.21l1-.71a.27.27 0 0 1 .41.22v4Z" fill="#767676"/></svg>