<svg xmlns="http://www.w3.org/2000/svg" width="18" height="18"><defs><linearGradient id="a" x1="54.259" y1="17.732" x2="54.259" y2="12.155" gradientTransform="translate(-48.199 .923)" gradientUnits="userSpaceOnUse"><stop offset="0" stop-color="#76bc2d"/><stop offset=".192" stop-color="#7fcb30"/><stop offset=".42" stop-color="#84d332"/><stop offset=".775" stop-color="#86d633"/></linearGradient><linearGradient id="b" x1="8.267" y1="14.714" x2="8.267" y2="1.379" gradientUnits="userSpaceOnUse"><stop offset="0" stop-color="#1988d9"/><stop offset=".9" stop-color="#54aef0"/></linearGradient></defs><path d="M2.881 1.393 3.93.175A.51.51 0 0 1 4.314 0h10.052a.7.7 0 0 1 .768.719v12.546a.508.508 0 0 1-.166.377l-1.132 1.031H3.561l-.695-.292Z" fill="#005ba1"/><path d="m3.725 1.387.642-.732A.453.453 0 0 1 4.707.5H14.1a.451.451 0 0 1 .451.452v11.93a.45.45 0 0 1-.147.334l-1 .914Z" fill="#fff"/><path d="M7.654 12.9h-3.19a.172.172 0 0 0-.171.172V17.9a.086.086 0 0 0 .139.067l1.574-1.234a.082.082 0 0 1 .036-.015h-.006l1.79-1.4V13.07a.172.172 0 0 0-.172-.17Z" fill="url(#a)"/><path d="m6.036 16.712 1.79-1.4v2.6a.086.086 0 0 1-.138.068Z" fill="#76bc2d"/><path d="M13.334 1.379H2.914a.048.048 0 0 0-.048.048v12.954a.333.333 0 0 0 .333.333h10.135a.334.334 0 0 0 .334-.333V1.712a.334.334 0 0 0-.334-.333Z" fill="url(#b)"/><g fill="#fff"><path d="M6.059 6.142v3.544H5.3V7a.931.931 0 0 1-.149.1 1.463 1.463 0 0 1-.182.089 1.7 1.7 0 0 1-.2.068 1.386 1.386 0 0 1-.206.04v-.635a3.08 3.08 0 0 0 .561-.223 3.169 3.169 0 0 0 .477-.3ZM8.3 9.747q-1.239 0-1.238-1.739A2.358 2.358 0 0 1 7.4 6.634a1.115 1.115 0 0 1 .97-.473q1.209 0 1.209 1.768a2.331 2.331 0 0 1-.33 1.349 1.085 1.085 0 0 1-.949.469Zm.034-3q-.5 0-.5 1.245 0 1.173.486 1.173t.48-1.212q0-1.209-.465-1.209ZM11.756 6.142v3.544h-.762V7a.888.888 0 0 1-.149.1 1.463 1.463 0 0 1-.182.089 1.636 1.636 0 0 1-.2.068 1.4 1.4 0 0 1-.205.04v-.635a3.139 3.139 0 0 0 .561-.223 3.209 3.209 0 0 0 .476-.3Z"/></g></svg>