<svg xmlns="http://www.w3.org/2000/svg" width="18" height="18"><defs><linearGradient id="a" x1="9" y1="3.12" x2="9" y2="14.88" gradientUnits="userSpaceOnUse"><stop offset="0" stop-color="#32d4f5"/><stop offset=".228" stop-color="#31d0f1"/><stop offset=".463" stop-color="#2cc3e6"/><stop offset=".703" stop-color="#25afd4"/><stop offset=".944" stop-color="#1c92ba"/><stop offset="1" stop-color="#198ab3"/></linearGradient></defs><rect x=".5" y="3.12" width="17" height="11.76" rx=".572" fill="url(#a)"/><path d="M17.463 9.912 16.235 8.8a1.374 1.374 0 0 0-1.785 0l-6.622 6.08h9.1a.572.572 0 0 0 .572-.572v-4.4Z" fill="#86d633"/><path d="m15.69 14.88-5.208-4.731a1.06 1.06 0 0 0-1.376 0L3.9 14.88Z" fill="#b4ec36"/><path d="M9 7.852a1.555 1.555 0 0 0-1.351-1.5 1.962 1.962 0 0 0-2.021-1.873A2.027 2.027 0 0 0 3.7 5.792a1.847 1.847 0 0 0-1.628 1.786A1.885 1.885 0 0 0 4.023 9.39c.058 0 .115 0 .172-.008h3.159a.326.326 0 0 0 .083-.012A1.575 1.575 0 0 0 9 7.852Z" fill="#fff"/></svg>