<svg xmlns="http://www.w3.org/2000/svg" width="18" height="18"><defs><linearGradient id="a" x1="9" y1="9" x2="15.8" y2="9" gradientUnits="userSpaceOnUse"><stop offset="0" stop-color="#ccc"/><stop offset=".32" stop-color="#dfdfdf"/><stop offset=".67" stop-color="#ececec"/><stop offset="1" stop-color="#f0f0f0"/></linearGradient></defs><path d="M16.79 3.42H1.21a.68.68 0 0 0-.71.65v11.72a.68.68 0 0 0 .71.65h15.58a.68.68 0 0 0 .71-.65V4.07a.68.68 0 0 0-.71-.65Z" fill="#0078d4"/><path d="M16.85 3.42H9v13h7.88a.65.65 0 0 0 .65-.65V4.07a.65.65 0 0 0-.68-.65Z" fill="#005ba1"/><path d="M7.64 1.56h-5.1a.35.35 0 0 0-.34.34v13a.35.35 0 0 0 .34.35h5.1A1.24 1.24 0 0 1 9 16.43V2.93a1.37 1.37 0 0 0-1.36-1.37Z" fill="#f2f2f2"/><path d="M10.36 1.56h5.1a.35.35 0 0 1 .34.34v13a.35.35 0 0 1-.34.35h-5.1A1.24 1.24 0 0 0 9 16.43V2.93a1.37 1.37 0 0 1 1.36-1.37Z" fill="url(#a)"/><path d="M7.49 5H3.72a.16.16 0 0 0-.16.15v.38a.16.16 0 0 0 .16.15h3.77a.15.15 0 0 0 .15-.15v-.4A.15.15 0 0 0 7.49 5ZM7.49 7H3.72a.16.16 0 0 0-.16.15v.38a.16.16 0 0 0 .16.15h3.77a.15.15 0 0 0 .15-.15v-.35A.15.15 0 0 0 7.49 7ZM7.49 2.93H3.72a.16.16 0 0 0-.16.15v.38a.16.16 0 0 0 .16.15h3.77a.15.15 0 0 0 .15-.15v-.38a.15.15 0 0 0-.15-.15ZM7.49 9.08H3.72a.16.16 0 0 0-.16.15v.38a.16.16 0 0 0 .16.15h3.77a.15.15 0 0 0 .15-.15v-.38a.15.15 0 0 0-.15-.15ZM7.49 11.13H3.72a.16.16 0 0 0-.16.15v.38a.16.16 0 0 0 .16.15h3.77a.15.15 0 0 0 .15-.15v-.38a.15.15 0 0 0-.15-.15ZM5.45 13.18H3.72a.16.16 0 0 0-.16.15v.38a.16.16 0 0 0 .16.15h1.73a.15.15 0 0 0 .15-.15v-.38a.15.15 0 0 0-.15-.15Z" fill="#b3b3b3"/></svg>