<svg xmlns="http://www.w3.org/2000/svg" width="18" height="18"><defs><linearGradient id="a" x1="9" y1=".5" x2="9" y2="17.5" gradientUnits="userSpaceOnUse"><stop offset="0" stop-color="#5ea0ef"/><stop offset=".18" stop-color="#559cec"/><stop offset=".47" stop-color="#3c91e5"/><stop offset=".84" stop-color="#1380da"/><stop offset="1" stop-color="#0078d4"/></linearGradient></defs><path d="M14 1.07v15.86a.56.56 0 0 1-.56.57H4.57a.56.56 0 0 1-.57-.57V1.07A.56.56 0 0 1 4.57.5h8.86a.56.56 0 0 1 .57.57Z" fill="url(#a)"/><path d="M5.33 2.27H7a.14.14 0 0 1 .14.14v2.1a.14.14 0 0 1-.14.14H5.33a.15.15 0 0 1-.15-.14v-2.1a.15.15 0 0 1 .15-.14Zm2.86 0h1.62a.14.14 0 0 1 .14.14v2.1a.14.14 0 0 1-.14.14H8.19a.14.14 0 0 1-.14-.14v-2.1a.14.14 0 0 1 .14-.14Zm2.86 0h1.62a.15.15 0 0 1 .15.14v2.1a.15.15 0 0 1-.15.14h-1.62a.14.14 0 0 1-.14-.14v-2.1a.14.14 0 0 1 .14-.14ZM5.33 6.08H7a.14.14 0 0 1 .14.14v2.1a.15.15 0 0 1-.14.15H5.33a.15.15 0 0 1-.15-.15v-2.1a.15.15 0 0 1 .15-.14Zm2.86 0h1.62a.14.14 0 0 1 .14.14v2.1a.15.15 0 0 1-.14.15H8.19a.15.15 0 0 1-.14-.15v-2.1a.14.14 0 0 1 .14-.14Zm2.86 0h1.62a.15.15 0 0 1 .15.14v2.1a.15.15 0 0 1-.15.15h-1.62a.15.15 0 0 1-.14-.15v-2.1a.14.14 0 0 1 .14-.14ZM5.33 9.9H7a.14.14 0 0 1 .14.14v2.1a.14.14 0 0 1-.14.14H5.33a.15.15 0 0 1-.15-.14V10a.15.15 0 0 1 .15-.1Zm2.86 0h1.62a.14.14 0 0 1 .19.1v2.1a.14.14 0 0 1-.14.14H8.19a.14.14 0 0 1-.14-.14V10a.14.14 0 0 1 .14-.1Zm0 3.81h1.62a.14.14 0 0 1 .14.14V17a.14.14 0 0 1-.14.14H8.19a.14.14 0 0 1-.14-.14v-3.15a.14.14 0 0 1 .14-.14Zm2.86-3.81h1.62a.15.15 0 0 1 .15.14v2.1a.15.15 0 0 1-.15.14h-1.62a.14.14 0 0 1-.14-.14V10a.14.14 0 0 1 .14-.1Z" fill="#f2f2f2"/></svg>