<svg xmlns="http://www.w3.org/2000/svg" width="18" height="18"><defs><linearGradient id="a" x1="9" y1="790.787" x2="9" y2="774.125" gradientTransform="matrix(1 0 0 -1 0 791.516)" gradientUnits="userSpaceOnUse"><stop offset="0" stop-color="#6cc6b9"/><stop offset=".46" stop-color="#6ac4b7"/><stop offset=".64" stop-color="#62bdb0"/><stop offset=".77" stop-color="#56b1a4"/><stop offset="1" stop-color="#258277"/></linearGradient></defs><path d="M.549 2.636h16.912a.518.518 0 0 1 .539.489v11.75a.518.518 0 0 1-.539.489H.549A.528.528 0 0 1 0 14.875V3.145a.529.529 0 0 1 .548-.509Z" fill="url(#a)"/><rect x="12.459" y="4.206" width="1.532" height="9.349" rx=".147" fill="#fff" opacity=".9"/><rect x="1.628" y="11.629" width="8.572" height="1.937" rx=".159" fill="#fff" opacity=".6"/><rect x="14.808" y="8.031" width="1.532" height="5.524" rx=".113" fill="#fff" opacity=".9"/><path fill="#fff" d="m9.117 4.772-2.13 3.79-2.253-2.295-2.322 3.011.544.427 1.842-2.376 2.338 2.386L9.72 5.119l-.603-.347z"/><ellipse cx="4.761" cy="6.795" rx=".876" ry=".881" fill="#fff"/><ellipse cx="7.136" cy="8.979" rx=".876" ry=".881" fill="#fff"/><ellipse cx="9.341" cy="5.055" rx=".876" ry=".881" fill="#fff"/><ellipse cx="2.775" cy="9.363" rx=".876" ry=".881" fill="#fff"/>​</svg>