<svg xmlns="http://www.w3.org/2000/svg" width="18" height="18"><defs><linearGradient id="a" x1="-1194.321" y1="9.128" x2="-1190.755" y2="9.128" gradientTransform="matrix(-1 0 0 1 -1179.887 0)" gradientUnits="userSpaceOnUse"><stop offset="0" stop-color="#32bedd"/><stop offset=".998" stop-color="#9cebff" stop-opacity=".5"/></linearGradient><linearGradient id="b" x1="80.363" y1="9.135" x2="83.929" y2="9.135" gradientTransform="translate(-76.796)" gradientUnits="userSpaceOnUse"><stop offset="0" stop-color="#005ba1"/><stop offset=".998" stop-color="#005ba1" stop-opacity="0"/></linearGradient><linearGradient id="c" x1="3.555" y1="9.326" x2="14.434" y2="9.326" gradientUnits="userSpaceOnUse"><stop offset="0" stop-color="#005ba1"/><stop offset=".974" stop-color="#32bedd"/></linearGradient></defs><path fill="#5ea0ef" d="M7.132 4.469 3.567 6.542 0 4.468l3.567-2.073 3.565 2.074z"/><path fill="#005ba1" d="m7.132 13.794-3.566-2.059v4.132l3.566-2.073z"/><path fill="#0078d4" d="m3.567 6.542-.001-.001v.001L0 4.468v9.333l3.566 2.073 3.566-2.073v-.007l-3.566 2.073v-4.132l3.566 2.059V4.469L3.567 6.542z"/><path fill="#9cebff" d="m10.868 4.469 3.565 2.073L18 4.468l-3.567-2.073-3.565 2.074z"/><path fill="#32bedd" d="m10.868 13.794 3.566-2.059v4.132l-3.566-2.073z"/><path fill="url(#a)" d="M14.433 6.535h.001v5.193l-3.566 2.066V4.462l3.565 2.073z"/><path fill="#9cebff" d="m10.868 4.469 3.565 2.073L18 4.468l-3.567-2.073-3.565 2.074z"/><path fill="#50e6ff" d="m14.433 6.542-3.565-2.073v9.325l3.566-2.059v4.132l-3.566-2.073v.007l3.566 2.073L18 13.801V4.468l-3.567 2.074z"/><path fill="#32bedd" d="m10.868 13.794 3.566-2.059v4.132l-3.566-2.073z"/><path fill="url(#a)" d="M14.433 6.535h.001v5.193l-3.566 2.066V4.462l3.565 2.073z"/><path fill="url(#b)" d="M3.567 6.541h-.001v5.193l3.566 2.067V4.469L3.567 6.541z"/><path d="M14.423 10.126c-.624 1.556-3.066 2.584-5.348 2.584h-.161c-2.282 0-4.724-1.028-5.348-2.584 0 0-.025-1.561 0-1.713.454 1.737 2.834 3.022 5.293 3.022h.271c2.455 0 4.839-1.285 5.293-3.022.025.152 0 1.713 0 1.713ZM13.4 5.942a6.653 6.653 0 0 1-4.27 1.474h-.271a6.656 6.656 0 0 1-4.267-1.47l-.856.5C4.553 7.809 6.8 8.69 8.914 8.69h.161c2.115 0 4.366-.883 5.181-2.251Z" fill="url(#c)"/></svg>