<svg xmlns="http://www.w3.org/2000/svg" width="18" height="18"><path d="M17.5 5.788V2.734a.568.568 0 0 0-.568-.568H1.071a.568.568 0 0 0-.571.568v12.532a.568.568 0 0 0 .568.568h15.864a.568.568 0 0 0 .568-.568V5.788Z" fill="#0078d4"/><g fill="#fff"><rect x="1.857" y="4.552" width="4.13" height="8.895" rx=".307"/><rect x="6.94" y="4.552" width="4.13" height="8.895" rx=".307" opacity=".75"/><rect x="12.023" y="4.552" width="4.13" height="8.895" rx=".307" opacity=".5"/></g><path d="M3.9 11.1q-1.446 0-1.446-2.031a2.763 2.763 0 0 1 .391-1.606 1.3 1.3 0 0 1 1.134-.552q1.411 0 1.412 2.065a2.723 2.723 0 0 1-.386 1.576A1.27 1.27 0 0 1 3.9 11.1Zm.039-3.5q-.579 0-.579 1.45 0 1.371.568 1.37t.554-1.412q0-1.408-.543-1.408ZM8.911 11.1q-1.446 0-1.446-2.031a2.763 2.763 0 0 1 .392-1.606 1.3 1.3 0 0 1 1.134-.552q1.412 0 1.412 2.065a2.723 2.723 0 0 1-.386 1.576 1.27 1.27 0 0 1-1.106.548Zm.04-3.5q-.579 0-.579 1.454 0 1.371.568 1.37t.553-1.412q0-1.412-.542-1.412Z" fill="#0078d4"/><path d="M14.8 6.939v4.141h-.89V7.945a1.044 1.044 0 0 1-.174.122 1.757 1.757 0 0 1-.213.105 2.026 2.026 0 0 1-.235.079 1.752 1.752 0 0 1-.24.047v-.752a3.661 3.661 0 0 0 .655-.259 3.773 3.773 0 0 0 .557-.348Z" fill="#f2f2f2"/></svg>