<svg xmlns="http://www.w3.org/2000/svg" width="18" height="18"><defs><linearGradient id="a" x1="13.41" y1="14.43" x2="7" y2="3.72" gradientUnits="userSpaceOnUse"><stop offset="0" stop-color="#0078d4"/><stop offset=".16" stop-color="#1380da"/><stop offset=".53" stop-color="#3c91e5"/><stop offset=".82" stop-color="#559cec"/><stop offset="1" stop-color="#5ea0ef"/></linearGradient></defs><path d="M17.33 3.09 15 .81a.61.61 0 0 0-.42-.17L10.36.8A.53.53 0 0 0 10 1L.67 10.22a.55.55 0 0 0 0 .8l6.2 6.17a.57.57 0 0 0 .8 0L17 7.92a.53.53 0 0 0 .17-.35l.34-4a.58.58 0 0 0-.18-.48ZM14.56 4.6a1 1 0 1 1 1-1 1 1 0 0 1-1 1Z" fill="url(#a)"/><path d="M14.56 1.72a1.85 1.85 0 1 0 1.86 1.85 1.85 1.85 0 0 0-1.86-1.85Zm1 2.05a1 1 0 0 1-2-.4 1 1 0 0 1 .81-.81 1 1 0 0 1 1.21 1.21Z" fill="#005ba1"/><path d="m9.74 5.21-.38-.38-.36.38-.49-.49.84-.87.87.87ZM5.13 9.05l-.49-.49 1.08-1.08.28.25-.25-.25.46.52Zm2.52-3.48.49.5-1.06 1.06-.49-.49ZM3.8 11.15l-.87-.87.87-.84.49.49-.38.35.38.38Zm1.4.42 1.16 1.17-.5.49-1.16-1.16ZM7.64 15l-.87-.87.53-.49.34.35.36-.32.49.49ZM10 11.73l.5.49-1.11 1.06-.49-.49Zm1.35-.37-.52-.49 1.08-1.08.49.49-1 1.08-.24-.24Zm1.93-1.92L12.75 9Zm0 0L12.75 9l.35-.39-.35-.34.49-.53.87.87Zm-2.12-3.79 1.16 1.16-.5.5-1.16-1.16Z" fill="#fff"/></svg>