<svg data-name="azure-fluent-icons" xmlns="http://www.w3.org/2000/svg" width="18" height="18"><defs><linearGradient id="a" x1="9" y1="16.007" x2="9" y2="5.707" gradientUnits="userSpaceOnUse"><stop offset="0" stop-color="#32bedd"/><stop offset=".175" stop-color="#32caea"/><stop offset=".41" stop-color="#32d2f2"/><stop offset=".775" stop-color="#32d4f5"/></linearGradient></defs><path d="M.285 5.707h17.43v10.08a.22.22 0 0 1-.22.22H.505a.22.22 0 0 1-.22-.22V5.707Z" fill="url(#a)"/><path d="M.509 1.993h16.982a.22.22 0 0 1 .22.22v3.494H.289V2.213a.22.22 0 0 1 .22-.22Z" fill="#0078d4"/><g fill="#0078d4"><circle cx="12.917" cy="10.218" r="1.416"/><circle cx="9.058" cy="10.218" r="1.416"/><circle cx="5.083" cy="10.218" r="1.416"/></g><rect x="2.63" y="3.102" width="12.739" height="1.496" rx=".11" fill="#f2f2f2"/></svg>