<svg xmlns="http://www.w3.org/2000/svg" width="18" height="18"><defs><linearGradient id="a" x1="8.44" y1="4.529" x2="8.44" y2="12.659" gradientUnits="userSpaceOnUse"><stop offset=".196" stop-color="#5ea0ef"/><stop offset="1" stop-color="#0078d4"/></linearGradient></defs><path d="M14.006.47v8.579h-.075l-.592.005H13.3a.288.288 0 0 0-.041 0A4.7 4.7 0 0 0 9.894 11c-.028.038-.053.075-.078.112a.209.209 0 0 0-.027.039.238.238 0 0 0-.023.041l-.01.022-.013.04h-.678a.573.573 0 0 0-.076-.362 1.057 1.057 0 0 0-.183-.234L7.168 8.874a.675.675 0 0 0-.218-.181.666.666 0 0 0-.3-.072.655.655 0 0 0-.513.248l-1.76 1.818a.669.669 0 0 0-.232.568H.477a.471.471 0 0 1-.469-.47V.461A.469.469 0 0 1 .477 0h13.059a.471.471 0 0 1 .47.47Z" fill="#005ba1"/><path d="M15.318 4.529v4.788a4.7 4.7 0 0 0-6.179 3.342H2.024a.461.461 0 0 1-.461-.461V4.529Z" fill="url(#a)"/><path d="M2.025 1.6h12.831a.461.461 0 0 1 .462.461v2.468H1.564V2.053a.46.46 0 0 1 .461-.453Z" fill="#0078d4"/><path d="M11.888 6.591a1.068 1.068 0 1 1-1.068 1.068 1.068 1.068 0 0 1 1.068-1.068ZM7.419 7.659a1.068 1.068 0 1 0 1.068-1.068 1.067 1.067 0 0 0-1.068 1.068Zm-3.493 0a1.068 1.068 0 1 0 1.067-1.068 1.067 1.067 0 0 0-1.067 1.068Z" fill="#fff"/><path d="M15.959 15.8h1.509a4.242 4.242 0 0 0 .524-1.909h-1.654a5.267 5.267 0 0 1-.379 1.909Zm.379-2.211h1.654a4.228 4.228 0 0 0-.523-1.909h-1.535a4.918 4.918 0 0 1 .404 1.906ZM14.094 18a4.285 4.285 0 0 0 3.192-1.9H15.81a5.111 5.111 0 0 1-1.716 1.9Zm1.688-6.625h1.5A4.28 4.28 0 0 0 14 9.471h-.066l.066.037a5.343 5.343 0 0 1 1.784 1.867Zm-2.006 0h1.677a4.797 4.797 0 0 0-.226-.33A5.16 5.16 0 0 0 14 9.865c-.072-.05-.146-.1-.222-.145Zm0 2.211h2.26a4.549 4.549 0 0 0-.433-1.909h-1.827Zm0 2.211h1.845a4.882 4.882 0 0 0 .415-1.909h-2.26Zm1.7.3h-1.7v1.751a4.984 4.984 0 0 0 1.698-1.748Zm-2 0H11.9a4.923 4.923 0 0 0 1.577 1.673Zm0-6.381a4.752 4.752 0 0 0-1.527 1.531l-.075.124h1.6Zm0 4.168h-2.14a4.847 4.847 0 0 0 .415 1.909h1.725Zm0-2.211h-1.745a4.973 4.973 0 0 0-.264.8 4.891 4.891 0 0 0-.133 1.114h2.14ZM13.266 18a5.139 5.139 0 0 1-1.707-1.9h-1.41c.015.021.028.042.045.062a4.02 4.02 0 0 0 .356.454A4.288 4.288 0 0 0 13.266 18Zm.034-8.527a4.291 4.291 0 0 0-3.072 1.778c-.03.041-.057.081-.084.121h1.4l.066-.121a4.983 4.983 0 0 1 1.69-1.778Zm-3.158 1.9Zm-.709 2.211h1.6a5.135 5.135 0 0 1 .126-1.114 5.364 5.364 0 0 1 .243-.795h-1.44a4.211 4.211 0 0 0-.338.8 4.324 4.324 0 0 0-.188 1.111Zm.529 2.216h1.448c-.017-.044-.035-.089-.05-.133a5.175 5.175 0 0 1-.314-1.442 4.614 4.614 0 0 1-.014-.334h-1.6c0 .07.007.14.013.209a3.947 3.947 0 0 0 .065.46 4.22 4.22 0 0 0 .452 1.24Zm-.339.25a4.191 4.191 0 0 1-3.753-4.482.2.2 0 0 0-.014-.087.207.207 0 0 0-.115-.124.232.232 0 0 0-.086-.018h-.8c-.309 0-.378-.167-.18-.368l1.776-1.828a.226.226 0 0 1 .084-.075.233.233 0 0 1 .212 0 .222.222 0 0 1 .083.075l1.643 1.787a.774.774 0 0 1 .122.152c.052.094.031.154-.062.188a.738.738 0 0 1-.24.03h-.736a.229.229 0 0 0-.23.23 2.743 2.743 0 0 0 1.733 2.86 4.618 4.618 0 0 0 .563 1.657Z" fill="#50e6ff"/></svg>