<svg xmlns="http://www.w3.org/2000/svg" width="18" height="18"><defs><linearGradient id="a" x1="13.689" y1="9.249" x2="13.689" y2="17.97" gradientUnits="userSpaceOnUse"><stop offset=".131" stop-color="#b796f9"/><stop offset="1" stop-color="#773adc"/></linearGradient><linearGradient id="b" x1="9.949" y1=".702" x2="9.949" y2="15.185" gradientUnits="userSpaceOnUse"><stop offset="0" stop-color="#999"/><stop offset=".999" stop-color="#767676"/></linearGradient><linearGradient id="c" x1="9.949" y1="4.513" x2="9.949" y2="11.352" gradientUnits="userSpaceOnUse"><stop offset=".001" stop-color="#b3b3b3"/><stop offset="1" stop-color="#999"/></linearGradient><linearGradient id="d" x1="5.139" y1="-.223" x2="5.139" y2="16.194" gradientUnits="userSpaceOnUse"><stop offset="0" stop-color="#0078d4"/><stop offset="1" stop-color="#005ba1"/></linearGradient></defs><rect x="9.379" y="9.379" width="8.621" height="8.621" rx="4.311" fill="url(#a)"/><path d="M15.9 16.209h-4.419l.01-.026.9-2.054q.64-1.458 1.278-2.918a.057.057 0 0 1 .063-.041c.082 0 .082 0 .112.075l1.474 3.561.57 1.379Zm-.87-.31-1.47-3.614-1.591 3.615Z" fill="#fff"/><path d="M16.952 7.912a7.059 7.059 0 0 1-.2 1.681.281.281 0 0 1-.427.167 4.733 4.733 0 0 0-7.368 3.925 4.778 4.778 0 0 0 .152 1.192 7.012 7.012 0 0 1-5.816-4.786 7.009 7.009 0 0 1-.345-2.178 6.958 6.958 0 0 1 .1-1.19 6.862 6.862 0 0 1 .231-.953A7.008 7.008 0 0 1 9.949.9c.111 0 .221 0 .329.007a7.011 7.011 0 0 1 6.674 7.005Z" fill="url(#b)"/><path d="M13.251 7.912A3.242 3.242 0 0 1 13.068 9a4.747 4.747 0 0 0-3.408 2.207A3.3 3.3 0 0 1 7.307 9.9a3.248 3.248 0 0 1-.518-1.025 3.313 3.313 0 0 1 0-1.919 3.3 3.3 0 0 1 3.16-2.35 3.249 3.249 0 0 1 .329.017 3.3 3.3 0 0 1 2.973 3.289Z" fill="url(#c)"/><path d="M10.278.5v9.91a4.733 4.733 0 0 0-1.323 3.275 4.778 4.778 0 0 0 .152 1.192 4.864 4.864 0 0 0 .2.587.28.28 0 0 1-.262.382H.5a.5.5 0 0 1-.5-.5V.5A.5.5 0 0 1 .5 0h9.283a.5.5 0 0 1 .495.5Z" fill="url(#d)"/><path fill="#50e6ff" d="m7.909 6.286.019 3.24-2.765 1.644-.02-3.247 2.766-1.637z"/><path fill="#c3f1ff" d="M7.909 6.286 5.143 7.93 2.35 6.32l2.773-1.644 2.786 1.61z"/><path fill="#9cebff" d="m5.143 7.93.02 3.24L2.37 9.56l-.02-3.24 2.793 1.61z"/><path fill="#c3f1ff" d="m2.37 9.56 2.773-1.637.02 3.247L2.37 9.56z"/><path fill="#9cebff" d="M7.928 9.526 5.143 7.923l.02 3.247 2.765-1.644z"/></svg>