<svg xmlns="http://www.w3.org/2000/svg" width="18" height="18"><defs><linearGradient id="a" x1="3.707" y1="5.123" x2="3.707" y2="2.061" gradientUnits="userSpaceOnUse"><stop offset="0" stop-color="#0078d4"/><stop offset="1" stop-color="#5ea0ef"/></linearGradient><linearGradient id="b" x1="12.741" y1="10.558" x2="12.741" y2="5.161" gradientUnits="userSpaceOnUse"><stop offset="0" stop-color="#0078d4"/><stop offset="1" stop-color="#5ea0ef"/></linearGradient><linearGradient id="c" x1="3.707" y1="13.723" x2="3.707" y2="10.378" gradientUnits="userSpaceOnUse"><stop offset="0" stop-color="#0078d4"/><stop offset="1" stop-color="#5ea0ef"/></linearGradient></defs><path fill="#003067" d="m5.459 3.98.464-.862 5.445 2.929-.464.863z"/><path d="M7.081 4.2V1.5H.33v2.7c0 .716 1.511 1.3 3.376 1.3s3.376-.58 3.376-1.3Z" fill="url(#a)"/><ellipse cx="3.707" cy="1.546" rx="3.376" ry="1.296" fill="#83b9f9"/><path d="M16.115 8.616v-2.7h-6.75v2.7c0 .716 1.511 1.3 3.376 1.3s3.376-.58 3.376-1.3Z" fill="url(#b)"/><ellipse cx="12.741" cy="5.96" rx="3.376" ry="1.296" fill="#83b9f9"/><path fill="#003067" d="M3.22 4.168h.98v7.962h-.98z"/><circle cx="3.75" cy="3.337" r="1.157" fill="#c3f1ff"/><path d="M7.081 12.824v-2.7H.33v2.7c0 .716 1.511 1.3 3.376 1.3s3.376-.58 3.376-1.3Z" fill="url(#c)"/><ellipse cx="3.707" cy="10.167" rx="3.376" ry="1.296" fill="#83b9f9"/><path fill="#003067" d="m3.99 11.36 8.745-4.291.432.88-8.745 4.29z"/><circle cx="3.701" cy="11.939" r="1.157" fill="#c3f1ff"/><circle cx="12.743" cy="7.548" r="1.157" fill="#c3f1ff"/><path d="M17.166 15.5a.255.255 0 0 0-.1-.185A17 17 0 0 0 15.563 14a3.563 3.563 0 0 0-2.638-.706 5.515 5.515 0 0 0-3.339 2.066.224.224 0 0 0-.058.14.26.26 0 0 0 .1.186 17.319 17.319 0 0 0 1.507 1.315 3.568 3.568 0 0 0 2.637.706 5.517 5.517 0 0 0 3.339-2.066.229.229 0 0 0 .059-.141Z" fill="#003067"/><circle cx="13.381" cy="15.501" r="1.846" fill="#c3f1ff"/><path d="M13.389 14.478a.875.875 0 0 0-.144.029.537.537 0 0 1 .1.292.559.559 0 0 1-.559.558.548.548 0 0 1-.368-.145.985.985 0 0 0-.062.3 1.038 1.038 0 1 0 1.038-1.037ZM17.529 13.472a6.582 6.582 0 0 0-1.929-1.231l.437-.776a.458.458 0 0 0 .044-.34.441.441 0 0 0-.806-.106l-.535.952a5.762 5.762 0 0 0-.914-.143v-.975a.442.442 0 0 0-.883 0v.974a5.879 5.879 0 0 0-.934.144l-.536-.952a.442.442 0 0 0-.6-.158.45.45 0 0 0-.159.6l.437.776a6.582 6.582 0 0 0-1.931 1.231c-.422.382.2 1 .624.624a5.183 5.183 0 0 1 7.067 0c.415.384 1.04-.238.618-.62Z" fill="#003067"/><path fill="none" stroke="#b31b1b" stroke-miterlimit="10" d="M-4.934-3.691h29.331V30.57H-4.934z"/></svg>