<svg xmlns="http://www.w3.org/2000/svg" width="18" height="18"><defs><linearGradient id="a" x1="5.368" y1="2.599" x2="9.681" y2="7.232" gradientUnits="userSpaceOnUse"><stop offset="0" stop-color="#5ea0ef"/><stop offset=".2" stop-color="#83b9f9"/><stop offset=".5" stop-color="#83b9f9"/><stop offset=".75" stop-color="#83b9f9"/><stop offset=".9" stop-color="#6facf4"/><stop offset="1" stop-color="#5ea0ef"/></linearGradient><linearGradient id="b" x1="8.32" y1="6.332" x2="12.637" y2="10.969" gradientUnits="userSpaceOnUse"><stop offset="0" stop-color="#5ea0ef"/><stop offset=".2" stop-color="#83b9f9"/><stop offset=".5" stop-color="#83b9f9"/><stop offset=".75" stop-color="#83b9f9"/><stop offset=".9" stop-color="#6facf4"/><stop offset="1" stop-color="#5ea0ef"/></linearGradient></defs><path d="M6.218 10.879a1.615 1.615 0 0 1-.7-1.265v-.727a1.313 1.313 0 0 1-.018-.249c0-.927.88-1.591 2.108-1.979h-.113c-2.42 0-4.381.806-4.381 1.8a.791.791 0 0 0 .023.187v.789c0 .767 1.205 1.419 2.846 1.677a2.145 2.145 0 0 1 .235-.233Z" fill="#0078d4"/><path d="M10.386 6.254c.919-.33 1.51-.809 1.51-1.349 0-.994-1.961-1.8-4.381-1.8s-4.382.805-4.382 1.8S5.07 6.692 7.468 6.7a9.54 9.54 0 0 1 2.918-.446Z" fill="url(#a)"/><ellipse cx="7.626" cy="4.882" rx="1.455" ry=".397" fill="#005ba1"/><path d="M10.467 6.253a10.79 10.79 0 0 1 1.29.085.845.845 0 0 0 .137-.407V4.868c0 .564-.619 1.058-1.61 1.388l.183-.003ZM7.6 6.661h-.061c-2.442 0-4.4-.806-4.381-1.8v1.02c0 .764 1.194 1.413 2.824 1.674A3.943 3.943 0 0 1 7.6 6.661Z" fill="#5ea0ef"/><path d="M14.828 12.187c0-.994-1.962-1.8-4.382-1.8s-4.381.806-4.381 1.8a.783.783 0 0 0 .023.186v.789c0 .993 2.01 1.8 4.382 1.8s4.3-.789 4.381-1.753l-.023-.748Z" fill="#0078d4"/><ellipse cx="10.557" cy="12.163" rx="1.455" ry=".397" fill="#005ba1"/><ellipse cx="10.467" cy="8.638" rx="4.382" ry="1.799" fill="url(#b)"/><ellipse cx="10.578" cy="8.615" rx="1.455" ry=".397" fill="#005ba1"/><path d="M10.465 10.431c2.425 0 4.382-.806 4.382-1.8V9.7c-.082.964-2.01 1.753-4.382 1.753s-4.381-.807-4.381-1.8V8.632c-.024.993 1.939 1.799 4.381 1.799Z" fill="#5ea0ef"/><path d="M0 15.587a.174.174 0 0 0 .086.15l1.221.708 2.075 1.2a.169.169 0 0 0 .232-.061l.7-1.215a.175.175 0 0 0-.063-.236l-2.428-1.4a.169.169 0 0 1-.086-.149V3.422a.169.169 0 0 1 .086-.149l2.428-1.409a.175.175 0 0 0 .063-.235L3.616.414a.172.172 0 0 0-.233-.065L1.349 1.53l-1.263.733A.172.172 0 0 0 0 2.412Z" fill="#949494"/><path d="M4.314 1.629 3.616.414A.171.171 0 0 0 3.442.33a.161.161 0 0 0-.086.021L1.324 1.53l-1.263.733a.175.175 0 0 0-.061.06l.02.012a.173.173 0 0 0-.02.077l1.739 1.01a.167.167 0 0 1 .086-.149l2.426-1.409a.175.175 0 0 0 .063-.235ZM4.314 16.372l-.7 1.215a.172.172 0 0 1-.174.084.161.161 0 0 1-.086-.021l-2.032-1.18-1.261-.732A.178.178 0 0 1 0 15.677l.02-.011a.165.165 0 0 1-.02-.078l1.739-1.009a.169.169 0 0 0 .086.149l2.426 1.408a.175.175 0 0 1 .063.236Z" fill="#a3a3a3"/><path d="M18 2.413a.174.174 0 0 0-.086-.15l-1.221-.708L14.616.351a.169.169 0 0 0-.232.061l-.7 1.215a.175.175 0 0 0 .063.236l2.426 1.408a.169.169 0 0 1 .086.149v11.158a.169.169 0 0 1-.086.149l-2.426 1.409a.175.175 0 0 0-.063.235l.7 1.215a.172.172 0 0 0 .233.065l2.033-1.18 1.263-.733a.172.172 0 0 0 .087-.15Z" fill="#949494"/><path d="m13.684 16.371.7 1.215a.171.171 0 0 0 .174.084.161.161 0 0 0 .086-.021l2.032-1.179 1.263-.733a.175.175 0 0 0 .061-.06l-.02-.012a.173.173 0 0 0 .02-.077l-1.739-1.01a.167.167 0 0 1-.086.149l-2.426 1.409a.174.174 0 0 0-.065.235ZM13.684 1.628l.7-1.215a.172.172 0 0 1 .174-.084.161.161 0 0 1 .086.021l2.032 1.18 1.263.732a.172.172 0 0 1 .061.061l-.02.011a.165.165 0 0 1 .02.078l-1.741 1.009a.169.169 0 0 0-.086-.149l-2.426-1.408a.175.175 0 0 1-.063-.236Z" fill="#a3a3a3"/></svg>