<svg xmlns="http://www.w3.org/2000/svg" width="18" height="18"><defs><linearGradient id="a" x1="9.889" y1="15.825" x2="9.889" y2="1.04" gradientUnits="userSpaceOnUse"><stop offset="0" stop-color="#0078d4"/><stop offset="1" stop-color="#5ea0ef"/></linearGradient><linearGradient id="b" x1="13.087" y1="10.331" x2="10.274" y2="8.427" gradientUnits="userSpaceOnUse"><stop offset="0" stop-color="#32bedd"/><stop offset="1" stop-color="#9cebff"/></linearGradient><linearGradient id="c" x1="8.277" y1="12.08" x2="8.277" y2="6.437" gradientUnits="userSpaceOnUse"><stop offset="0" stop-color="#32bedd"/><stop offset="1" stop-color="#9cebff"/></linearGradient></defs><path d="M8.146.87a7.626 7.626 0 0 0-2.733 13.853l.262-.658a.144.144 0 0 1 .25-.036l1.883 2.431a.149.149 0 0 1-.024.207.144.144 0 0 1-.071.031l-3.025.431a.146.146 0 0 1-.164-.127.15.15 0 0 1 .009-.074l.383-.974a8.873 8.873 0 0 1-3.942-5.36 7.76 7.76 0 0 1 5.423-9.468A7.534 7.534 0 0 1 8.147.87Z" fill="#86d633"/><path d="M9.89 1.04a7.386 7.386 0 0 0-5.341 12.495 7.08 7.08 0 0 0 .688.6l.084-.21a.528.528 0 0 1 .501-.334.526.526 0 0 1 .403.204l1.255 1.62A7.39 7.39 0 1 0 9.89 1.04Z" fill="url(#a)"/><path fill="url(#b)" d="M13.114 6.437v3.751L9.889 12.08V8.318l3.225-1.881z"/><path fill="#c3f1ff" d="M13.114 6.437 9.9 8.329 6.665 6.437 9.9 4.556l3.214 1.881z"/><path fill="url(#c)" d="M9.889 8.329v3.751l-3.224-1.892V6.437l3.224 1.892z"/><g fill="#fff"><path d="M7.748 3.809H5.463a.548.548 0 0 0-.548.548V6.65a.274.274 0 0 0 .274.275h.183a.274.274 0 0 0 .274-.275V4.532h2.102a.274.274 0 0 0 .266-.274v-.175a.274.274 0 0 0-.266-.274ZM7.748 12.275h-2.11v-2.102a.274.274 0 0 0-.274-.274h-.175a.274.274 0 0 0-.274.274v2.326a.548.548 0 0 0 .54.557H7.748a.282.282 0 0 0 .269-.296l-.003-.028v-.183a.274.274 0 0 0-.266-.274ZM14.274 3.835h-2.252a.274.274 0 0 0-.274.274v.174a.274.274 0 0 0 .248.298.253.253 0 0 0 .026.001h2.102v2.086a.274.274 0 0 0 .274.274h.192a.274.274 0 0 0 .274-.274V4.383a.548.548 0 0 0-.547-.55.62.62 0 0 0-.043.002ZM14.556 9.916h-.174a.274.274 0 0 0-.274.274v2.11h-2.086a.274.274 0 0 0-.274.274v.183a.274.274 0 0 0 .274.274h2.285a.557.557 0 0 0 .557-.548V10.19a.274.274 0 0 0-.308-.274Z"/></g></svg>