<svg xmlns="http://www.w3.org/2000/svg" width="18" height="18"><defs><linearGradient id="a" x1="10.03" y1="6.02" x2="10.03" y2="1.92" gradientUnits="userSpaceOnUse"><stop offset="0" stop-color="#198ab3"/><stop offset=".1" stop-color="#1c93bb"/><stop offset=".7" stop-color="#2cc2e5"/><stop offset="1" stop-color="#32d4f5"/></linearGradient><linearGradient id="b" x1="10.03" y1="12.18" x2="10.03" y2="8.08" href="#a"/><linearGradient id="c" x1="9.66" y1="17.45" x2="9.66" y2="14.44" href="#a"/></defs><path d="M14 .55H2a.68.68 0 0 0-.69.68v3.08A.69.69 0 0 0 2 5h12a.69.69 0 0 0 .69-.69V1.23A.69.69 0 0 0 14 .55Zm0 6.16H2a.68.68 0 0 0-.69.68v3.08a.69.69 0 0 0 .69.69h12a.69.69 0 0 0 .69-.69V7.39a.68.68 0 0 0-.69-.68Z" fill="#198ab3"/><path d="M9.15 5h1v10.26h-1Z" fill="#32bedd"/><path d="M16.13 1.92H3.92a.57.57 0 0 0-.57.57v3a.57.57 0 0 0 .57.51h12.21a.57.57 0 0 0 .57-.57v-3a.57.57 0 0 0-.57-.51Z" fill="url(#a)"/><g fill="#b4ec36"><rect x="14.51" y="2.49" width="1.05" height="1.05" rx=".15"/><rect x="14.51" y="4.3" width="1.05" height="1.05" rx=".15"/></g><path d="M16.13 8.08H3.92a.57.57 0 0 0-.57.57v3a.57.57 0 0 0 .57.57h12.21a.57.57 0 0 0 .57-.57v-3a.57.57 0 0 0-.57-.57Z" fill="url(#b)"/><circle cx="9.66" cy="15.95" r="1.51" fill="url(#c)"/><g fill="#b4ec36"><rect x="14.51" y="8.7" width="1.05" height="1.05" rx=".15"/><rect x="14.51" y="10.51" width="1.05" height="1.05" rx=".15"/></g></svg>