<svg xmlns="http://www.w3.org/2000/svg" width="18" height="18"><defs><linearGradient id="a" x1="-554.03" y1="1012.115" x2="-546" y2="1012.115" gradientTransform="matrix(1 0 0 -1 564 1025.516)" gradientUnits="userSpaceOnUse"><stop offset="0" stop-color="#005ba1"/><stop offset=".3" stop-color="#0071c8"/><stop offset=".5" stop-color="#0078d4"/><stop offset=".8" stop-color="#006abb"/><stop offset="1" stop-color="#005ba1"/></linearGradient><linearGradient id="c" x1="-561.718" y1="1019.116" x2="-561.736" y2="1021.424" gradientTransform="matrix(1 0 0 -1 564 1025.516)" gradientUnits="userSpaceOnUse"><stop offset="0" stop-color="#ccc"/><stop offset="1" stop-color="#fcfcfc"/></linearGradient><linearGradient id="d" x1="-558.371" y1="1016.796" x2="-558.371" y2="1018.87" gradientTransform="matrix(1 0 0 -1 564 1025.516)" gradientUnits="userSpaceOnUse"><stop offset="0" stop-color="#ccc"/><stop offset="1" stop-color="#fcfcfc"/></linearGradient><linearGradient id="e" x1="8.857" y1="1.834" x2="8.857" y2="16.187" gradientUnits="userSpaceOnUse"><stop offset="0" stop-color="#50e6ff"/><stop offset="1" stop-color="#32bedd"/></linearGradient><radialGradient id="b" cx="13739.634" cy="-1957.723" r="33.137" gradientTransform="matrix(.15 0 0 -.15 -2055.987 -288.708)" gradientUnits="userSpaceOnUse"><stop offset="0" stop-color="#5ea0ef"/><stop offset="1" stop-color="#0078d4"/></radialGradient></defs><path d="M13.985 10.256c-2.218 0-4.015-.626-4.015-1.453v7.742c0 .8 1.766 1.441 3.958 1.453h.057C16.2 18 18 17.372 18 16.545V8.8c0 .811-1.8 1.456-4.015 1.456Z" fill="url(#a)"/><path d="M18 8.8c0 .808-1.8 1.453-4.015 1.453S9.97 9.63 9.97 8.8s1.8-1.453 4.015-1.453S18 7.976 18 8.8" fill="#e8e8e8"/><path d="M17.067 8.684c0 .513-1.385.927-3.082.927S10.9 9.2 10.9 8.684s1.384-.921 3.082-.921 3.082.413 3.082.921" fill="#50e6ff"/><path d="M13.985 8.916a7.2 7.2 0 0 0-2.437.357 7.166 7.166 0 0 0 2.437.338 7 7 0 0 0 2.436-.363 7.391 7.391 0 0 0-2.436-.332Z" fill="#198ab3"/><path d="M8.014 8.878a4.969 4.969 0 1 1-6.089-7.854l.052-.035a4.967 4.967 0 0 1 6.037 7.889" fill="url(#b)"/><path d="M3.619 3.916a7.6 7.6 0 0 1 5.207-2.092 4.954 4.954 0 0 0-.871-.841 8.35 8.35 0 0 0-2.74.643A7.317 7.317 0 0 0 2.83 3.274a1.607 1.607 0 0 1 .789.642ZM1.159 5.915a10.391 10.391 0 0 0-.485 1.531 4.63 4.63 0 0 0 .362.537 4.926 4.926 0 0 0 .322.38 10.42 10.42 0 0 1 .631-2.027 1.613 1.613 0 0 1-.83-.421Z" fill="#fff" opacity=".6"/><path d="M1.732 3.262a7.008 7.008 0 0 1-.4-1.718 4.727 4.727 0 0 0-.643.847 7.4 7.4 0 0 0 .333 1.391 1.569 1.569 0 0 1 .71-.52Z" fill="#f2f2f2" opacity=".55"/><circle cx="2.269" cy="4.764" r="1.595" fill="url(#c)"/><path d="M4.6 7.68a1.037 1.037 0 0 1 .316-.743 6.941 6.941 0 0 1-1.484-1.086 1.6 1.6 0 0 1-.87.485 7.73 7.73 0 0 0 .847.748 7.075 7.075 0 0 0 1.2.73A1 1 0 0 1 4.6 7.68ZM8.277 7.8a6.95 6.95 0 0 1-1.613-.187.236.236 0 0 1 0 .065 1.023 1.023 0 0 1-.3.724 7.924 7.924 0 0 0 2 .14 4.756 4.756 0 0 0 .7-.783 6.614 6.614 0 0 1-.787.041Z" fill="#f2f2f2" opacity=".55"/><circle cx="5.629" cy="7.68" r="1.04" fill="url(#d)"/><path d="M6.909 4.91a1.073 1.073 0 0 1 .357-.585 14.873 14.873 0 0 1-2.607-2.419A9.887 9.887 0 0 1 3.491.2a4.341 4.341 0 0 0-.637.245A10.616 10.616 0 0 0 4.11 2.3a15.478 15.478 0 0 0 2.799 2.61Z" fill="#f2f2f2" opacity=".7"/><circle cx="7.996" cy="5.108" r="1.104" fill="#fff"/><path d="m9.849 5.851-.205-.1-.175-.093h-.035l-.152-.123h-.041l-.181-.117a1.032 1.032 0 0 1-.374.538c.07.047.146.087.222.128l.047.03.2.111.5.263a5.2 5.2 0 0 0 .169-.649Z" fill="#f2f2f2" opacity=".55"/><circle cx="2.269" cy="4.764" r="1.595" fill="#fff"/><circle cx="5.629" cy="7.68" r="1.04" fill="#fff"/><path d="M9 14.986a6.4 6.4 0 0 0 .368-.012v1.2c-.122.007-.245.01-.368.01a7.2 7.2 0 0 1-7.164-6.63 5.49 5.49 0 0 0 1.3.655A6 6 0 0 0 9 14.986Zm.548-13.152a5.546 5.546 0 0 1 .658 1.3 6.011 6.011 0 0 1 4.347 3.629 10.562 10.562 0 0 1 1.324.144 7.2 7.2 0 0 0-6.329-5.073Z" fill="url(#e)"/></svg>