<svg xmlns="http://www.w3.org/2000/svg" width="18" height="18"><defs><linearGradient id="a" x1="79.78" y1="683.519" x2="79.78" y2="687.516" gradientTransform="matrix(1 0 0 -1 -72 701.516)" gradientUnits="userSpaceOnUse"><stop offset=".15" stop-color="#ccc"/><stop offset="1" stop-color="#707070"/></linearGradient><linearGradient id="b" x1="79.741" y1="687.34" x2="79.741" y2="697.693" gradientTransform="matrix(1 0 0 -1 -72 701.516)" gradientUnits="userSpaceOnUse"><stop offset="0" stop-color="#0078d4"/><stop offset=".82" stop-color="#5ea0ef"/></linearGradient><linearGradient id="c" x1="11.608" y1="-.318" x2="11.608" y2="10.689" gradientUnits="userSpaceOnUse"><stop offset=".212" stop-color="#ffb34d"/><stop offset="1" stop-color="#faa21d"/></linearGradient></defs><path d="M10.842 17.124c-1.531-.245-1.531-1.348-1.531-3.063H6.248c0 1.776 0 2.879-1.531 3.063a.9.9 0 0 0-.766.876h7.657a.9.9 0 0 0-.766-.876Z" fill="url(#a)"/><rect y="3.823" width="15.482" height="10.337" rx=".521" fill="url(#b)"/><path d="M5.217.649v7.716A.69.69 0 0 0 5.909 9h4.679a.165.165 0 0 1 .071.023l.949.633 1.044.692.376.246a.241.241 0 0 0 .117.047.259.259 0 0 0 .281-.222v-1.3a.108.108 0 0 1 .117-.106H17.3a.711.711 0 0 0 .7-.645V.649A.72.72 0 0 0 17.3 0H5.909a.709.709 0 0 0-.692.649Z" fill="url(#c)"/><path d="M11.882 4.117H7.9a.5.5 0 0 1 0-.99h3.987a.5.5 0 0 1 0 .99Zm2.97 1.394a.5.5 0 0 0-.5-.5H7.9a.5.5 0 0 0 0 .99h6.462a.5.5 0 0 0 .49-.49Z" fill="#fff"/></svg>