<svg xmlns="http://www.w3.org/2000/svg" width="18" height="18"><defs><linearGradient id="b" x1="4.4" y1="11.48" x2="4.37" y2="7.53" gradientUnits="userSpaceOnUse"><stop offset="0" stop-color="#ccc"/><stop offset="1" stop-color="#fcfcfc"/></linearGradient><linearGradient id="c" x1="10.13" y1="15.45" x2="10.13" y2="11.9" gradientUnits="userSpaceOnUse"><stop offset="0" stop-color="#ccc"/><stop offset="1" stop-color="#fcfcfc"/></linearGradient><linearGradient id="d" x1="14.18" y1="11.15" x2="14.18" y2="7.38" gradientUnits="userSpaceOnUse"><stop offset="0" stop-color="#ccc"/><stop offset="1" stop-color="#fcfcfc"/></linearGradient><radialGradient id="a" cx="13428.81" cy="3518.86" r="56.67" gradientTransform="matrix(.15 0 0 .15 -2005.33 -518.83)" gradientUnits="userSpaceOnUse"><stop offset=".18" stop-color="#5ea0ef"/><stop offset="1" stop-color="#0078d4"/></radialGradient></defs><path d="M14.21 15.72A8.5 8.5 0 0 1 3.79 2.28l.09-.06a8.5 8.5 0 0 1 10.33 13.5" fill="url(#a)"/><path d="M6.69 7.23a13 13 0 0 1 8.91-3.58 8.47 8.47 0 0 0-1.49-1.44 14.34 14.34 0 0 0-4.69 1.1 12.54 12.54 0 0 0-4.08 2.82 2.76 2.76 0 0 1 1.35 1.1ZM2.48 10.65a17.86 17.86 0 0 0-.83 2.62 7.82 7.82 0 0 0 .62.92c.18.23.35.44.55.65a17.94 17.94 0 0 1 1.08-3.47 2.76 2.76 0 0 1-1.42-.72Z" fill="#fff" opacity=".6"/><path d="M3.46 6.11a12 12 0 0 1-.69-2.94 8.15 8.15 0 0 0-1.1 1.45A12.69 12.69 0 0 0 2.24 7a2.69 2.69 0 0 1 1.22-.89Z" fill="#f2f2f2" opacity=".55"/><circle cx="4.38" cy="8.68" r="2.73" fill="url(#b)"/><path d="M8.36 13.67a1.77 1.77 0 0 1 .54-1.27 11.88 11.88 0 0 1-2.53-1.86 2.74 2.74 0 0 1-1.49.83 13.1 13.1 0 0 0 1.45 1.28 12.12 12.12 0 0 0 2.05 1.25 1.79 1.79 0 0 1-.02-.23ZM14.66 13.88a12 12 0 0 1-2.76-.32.41.41 0 0 1 0 .11 1.75 1.75 0 0 1-.51 1.24 13.69 13.69 0 0 0 3.42.24A8.21 8.21 0 0 0 16 13.81a11.5 11.5 0 0 1-1.34.07Z" fill="#f2f2f2" opacity=".55"/><circle cx="10.13" cy="13.67" r="1.78" fill="url(#c)"/><path d="M12.32 8.93a1.83 1.83 0 0 1 .61-1 25.5 25.5 0 0 1-4.46-4.14 16.91 16.91 0 0 1-2-2.92 7.64 7.64 0 0 0-1.09.42 18.14 18.14 0 0 0 2.15 3.18 26.44 26.44 0 0 0 4.79 4.46Z" fill="#f2f2f2" opacity=".7"/><circle cx="14.18" cy="9.27" r="1.89" fill="url(#d)"/><path d="m17.35 10.54-.35-.17-.3-.16h-.06l-.26-.21h-.07L16 9.8a1.76 1.76 0 0 1-.64.92c.12.08.25.15.38.22l.08.05.35.19.86.45a8.63 8.63 0 0 0 .29-1.11Z" fill="#f2f2f2" opacity=".55"/><circle cx="4.38" cy="8.68" r="2.73" fill="url(#b)"/><circle cx="10.13" cy="13.67" r="1.78" fill="url(#c)"/></svg>