<svg xmlns="http://www.w3.org/2000/svg" width="18" height="18"><path d="M10.83 8.42a.26.26 0 0 1-.24.27H8.5a.26.26 0 0 1-.27-.24V6.89a.26.26 0 0 1 .24-.27h2.09a.26.26 0 0 1 .27.24v1.56ZM14.54 10a.26.26 0 0 1-.24.27h-2.09a.26.26 0 0 1-.27-.24V8.48a.26.26 0 0 1 .24-.27h2.09a.26.26 0 0 1 .27.24V10ZM10.83 11.6a.26.26 0 0 1-.24.27H8.5a.26.26 0 0 1-.27-.24v-1.56a.26.26 0 0 1 .24-.27h2.09a.26.26 0 0 1 .27.24v1.56Z" fill="#76bc2d"/><path d="M7.12 6.84a.25.25 0 0 1-.23.26H4.74a.26.26 0 0 1-.27-.23V5.25A.26.26 0 0 1 4.71 5H6.8c.22 0 .32.11.32.27Z" fill="#86d633"/><path d="M7.12 10a.25.25 0 0 1-.23.27H4.74a.26.26 0 0 1-.27-.27V8.42a.26.26 0 0 1 .24-.26H6.8c.22 0 .32.11.32.26ZM7.12 13.19a.25.25 0 0 1-.23.27H4.74a.26.26 0 0 1-.27-.24V11.6a.25.25 0 0 1 .24-.26H6.8c.22 0 .32.1.32.26Z" fill="#76bc2d"/><g fill="#999"><path d="M1.07 1.51h1.29v3.6a.29.29 0 0 1-.29.29H.79a.29.29 0 0 1-.29-.29v-3a.57.57 0 0 1 .57-.6Z"/><path d="M1.07 1.51h1.29v3.6a.29.29 0 0 1-.29.29H.79a.29.29 0 0 1-.29-.29v-3a.57.57 0 0 1 .57-.6Z" opacity=".5"/></g><g fill="#999"><path d="M15.64 1.51h1.29a.57.57 0 0 1 .57.57v3a.29.29 0 0 1-.29.29h-1.29a.29.29 0 0 1-.29-.29V1.51h.01Z"/><path d="M15.64 1.51h1.29a.57.57 0 0 1 .57.57v3a.29.29 0 0 1-.29.29h-1.29a.29.29 0 0 1-.29-.29V1.51h.01Z" opacity=".5"/></g><path d="M17.5 2.08v1.25H.5V2.08a.57.57 0 0 1 .57-.57h15.87a.57.57 0 0 1 .56.57Z" fill="#949494"/><g fill="#999"><path d="M.79 12.76h1.29a.29.29 0 0 1 .29.29v3.6h-1.3a.57.57 0 0 1-.57-.57V13a.29.29 0 0 1 .29-.24Z"/><path d="M.79 12.76h1.29a.29.29 0 0 1 .29.29v3.6h-1.3a.57.57 0 0 1-.57-.57V13a.29.29 0 0 1 .29-.24Z" opacity=".5"/></g><g fill="#999"><path d="M15.92 12.76h1.29a.29.29 0 0 1 .29.29v3a.57.57 0 0 1-.57.57h-1.29V13a.29.29 0 0 1 .28-.24Z"/><path d="M15.92 12.76h1.29a.29.29 0 0 1 .29.29v3a.57.57 0 0 1-.57.57h-1.29V13a.29.29 0 0 1 .28-.24Z" opacity=".5"/></g><path d="M.5 16.08v-1.25h17v1.25a.57.57 0 0 1-.57.57H1.07a.57.57 0 0 1-.57-.57Z" fill="#949494"/></svg>