<svg xmlns="http://www.w3.org/2000/svg" width="18" height="18"><defs><linearGradient id="a" x1="9.252" y1=".485" x2="8.842" y2="16.966" gradientUnits="userSpaceOnUse"><stop offset="0" stop-color="#ffd400"/><stop offset="1" stop-color="#ffbd02"/></linearGradient><linearGradient id="c" x1="6.874" y1="11.261" x2="6.86" y2="9.431" gradientUnits="userSpaceOnUse"><stop offset="0" stop-color="#ccc"/><stop offset=".123" stop-color="#d7d7d7"/><stop offset="1" stop-color="#fcfcfc"/></linearGradient><linearGradient id="d" x1="9.524" y1="13.091" x2="9.524" y2="11.45" gradientUnits="userSpaceOnUse"><stop offset="0" stop-color="#ccc"/><stop offset=".123" stop-color="#d7d7d7"/><stop offset="1" stop-color="#fcfcfc"/></linearGradient><radialGradient id="b" cx="2073.6" cy="3109.478" r="26.184" gradientTransform="matrix(.15 0 0 .15 -302.042 -456.312)" gradientUnits="userSpaceOnUse"><stop offset=".183" stop-color="#5ea0ef"/><stop offset="1" stop-color="#0078d4"/></radialGradient></defs><path d="M17.579 3.283H9.727a.419.419 0 0 1-.233-.07L7.251 1.721a.42.42 0 0 0-.233-.071H.421A.42.42 0 0 0 0 2.07v13.86a.42.42 0 0 0 .421.42h17.158a.42.42 0 0 0 .421-.42V3.7a.42.42 0 0 0-.421-.417Z" fill="#dfa500"/><rect x="1.636" y="2.455" width="4.091" height=".818" rx=".172" fill="#fff"/><path d="M17.579 3.263H8.956a.421.421 0 0 0-.3.123L7.272 4.773a.42.42 0 0 1-.3.123H.421a.42.42 0 0 0-.421.42V15.91a.42.42 0 0 0 .421.419h17.158A.42.42 0 0 0 18 15.91V3.683a.42.42 0 0 0-.421-.42Z" fill="url(#a)"/><path fill="#f78d1e" d="M12.343 8.16v3.913l-3.382 1.966V10.12l3.382-1.96z"/><path fill="#ffb34d" d="m12.343 8.16-3.381 1.966L5.58 8.159l3.382-1.966 3.381 1.967z"/><path fill="#faa21d" d="M8.961 10.126v3.913L5.58 12.073V8.16l3.381 1.966z"/><path d="M17.579 3.283H9.727a.419.419 0 0 1-.233-.07L7.251 1.721a.42.42 0 0 0-.233-.071H.421A.42.42 0 0 0 0 2.07v13.86a.42.42 0 0 0 .421.42h17.158a.42.42 0 0 0 .421-.42V3.7a.42.42 0 0 0-.421-.417Z" fill="#dfa500"/><rect x="1.636" y="2.455" width="4.091" height=".818" rx=".172" fill="#fff"/><path d="M17.579 3.263H8.956a.421.421 0 0 0-.3.123L7.272 4.773a.42.42 0 0 1-.3.123H.421a.42.42 0 0 0-.421.42V15.91a.42.42 0 0 0 .421.419h17.158A.42.42 0 0 0 18 15.91V3.683a.42.42 0 0 0-.421-.42Z" fill="url(#a)"/><path d="M11.407 13.216a3.928 3.928 0 1 1-4.814-6.207l.04-.03a3.927 3.927 0 0 1 4.774 6.237" fill="url(#b)"/><circle cx="6.864" cy="9.965" r="1.262" fill="url(#c)"/><circle cx="9.524" cy="12.271" r=".82" fill="url(#d)"/><circle cx="11.394" cy="10.236" r=".871" fill="#fff"/><g fill="#f2f2f2"><path d="M5.6 12.085a4.207 4.207 0 0 0 .288.426 3.842 3.842 0 0 0 .256.3 8.217 8.217 0 0 1 .5-1.6 1.253 1.253 0 0 1-.658-.334 8.775 8.775 0 0 0-.386 1.208ZM6.44 8.777a5.514 5.514 0 0 1-.318-1.361 3.922 3.922 0 0 0-.509.674 6.128 6.128 0 0 0 .263 1.091 1.261 1.261 0 0 1 .564-.404ZM7.785 10.826a1.254 1.254 0 0 1-.689.379 5.347 5.347 0 0 0 .67.594 5.687 5.687 0 0 0 .946.577.745.745 0 0 1-.012-.106.815.815 0 0 1 .248-.586 5.566 5.566 0 0 1-1.163-.858ZM10.342 12.22v.05a.82.82 0 0 1-.234.573 6.412 6.412 0 0 0 1.576.113 3.888 3.888 0 0 0 .532-.621 5.561 5.561 0 0 1-.6.033 5.453 5.453 0 0 1-1.274-.148ZM10.816 9.622a12.288 12.288 0 0 1-1.507-1.309 6.284 6.284 0 0 1 2.741-.672 3.879 3.879 0 0 0-.687-.668 6.68 6.68 0 0 0-2.169.512c-.15.064-.283.159-.427.235l-.013-.015a7.885 7.885 0 0 1-.917-1.35 3.927 3.927 0 0 0-.5.194 8.282 8.282 0 0 0 .957 1.434 5.641 5.641 0 0 0-.981.8 1.262 1.262 0 0 1 .622.509 5.412 5.412 0 0 1 .9-.7 12.741 12.741 0 0 0 1.7 1.488.856.856 0 0 1 .281-.458ZM12.709 10.746l-.014-.008-.137-.074-.026-.014-.123-.068-.03-.017-.146-.083a.819.819 0 0 1-.294.427l.173.1.039.022.161.089.015.009c.13.07.263.141.4.21a3.91 3.91 0 0 0 .131-.514Z" opacity=".55"/></g><circle cx="6.864" cy="9.965" r="1.262" fill="#fff"/><circle cx="9.524" cy="12.271" r=".82" fill="#fff"/></svg>