<svg xmlns="http://www.w3.org/2000/svg" width="18" height="18"><defs><linearGradient id="a" x1="8.977" y1="11.134" x2="8.977" y2="7.178" gradientUnits="userSpaceOnUse"><stop offset="0" stop-color="#29bade"/><stop offset="1" stop-color="#50e6ff"/></linearGradient><linearGradient id="b" x1="6.446" y1="14.626" x2="6.446" y2="3.374" gradientUnits="userSpaceOnUse"><stop offset=".041" stop-color="#32bedd"/><stop offset=".495" stop-color="#50e6ff"/><stop offset=".92" stop-color="#c3f1ff"/></linearGradient><linearGradient id="c" x1="7.464" y1="10.047" x2="7.464" y2=".254" gradientUnits="userSpaceOnUse"><stop offset=".244" stop-color="#0078d4"/><stop offset=".6" stop-color="#2e8ce1"/><stop offset=".933" stop-color="#589eed"/></linearGradient><linearGradient id="d" x1="13.628" y1="14.626" x2="13.628" y2="4.193" gradientUnits="userSpaceOnUse"><stop offset="0" stop-color="#005ba1"/><stop offset=".399" stop-color="#0078d4"/><stop offset=".857" stop-color="#5ea0ef"/></linearGradient></defs><path d="M10.577 8.8a1.622 1.622 0 0 1-1.622-1.62 1.979 1.979 0 1 0 1.961 1.583 1.638 1.638 0 0 1-.339.037Z" fill="url(#a)"/><path d="M12.862 11.231a5.051 5.051 0 0 0-.656-2.024A3.218 3.218 0 0 1 9 12.227c-.077 0-.149-.017-.224-.023a6.735 6.735 0 0 1-4.559-1.86 8.724 8.724 0 0 1-2.281-3.683A20.447 20.447 0 0 0 .294 8.335a.909.909 0 0 0 0 1.336 16.887 16.887 0 0 0 3.866 3.408 8.8 8.8 0 0 0 4.971 1.541 7.2 7.2 0 0 0 3.318-.789c.065-.03.121-.07.185-.1a6.926 6.926 0 0 0 .228-2.5Z" fill="url(#b)"/><path d="M6.158 10.5a3.177 3.177 0 0 1 .591-3.807 6.414 6.414 0 0 1 3.245-2.3 7.915 7.915 0 0 1 2.182-.344 8.377 8.377 0 0 0-1.857-.56 7.978 7.978 0 0 0-5.107.843 14.276 14.276 0 0 0-2.46 1.618 7.836 7.836 0 0 0 2.1 3.615 5.977 5.977 0 0 0 1.306.935Z" fill="url(#c)"/><path d="M17.73 8.379A17.2 17.2 0 0 0 14.374 5.3a7.439 7.439 0 0 0-3.991.02 5.724 5.724 0 0 0-1.127.48 3.209 3.209 0 0 1 1.562.536.453.453 0 0 1 .118.053 6.712 6.712 0 0 1 2.891 4.544 7.629 7.629 0 0 1-.033 2.161 16.951 16.951 0 0 0 3.932-3.457.862.862 0 0 0 .004-1.258Z" fill="url(#d)"/></svg>