<svg xmlns="http://www.w3.org/2000/svg" width="18" height="18"><defs><linearGradient id="a" x1="14.415" y1="13.555" x2="11.867" y2="9.096" gradientUnits="userSpaceOnUse"><stop offset=".101" stop-color="#773adc"/><stop offset="1" stop-color="#403457"/></linearGradient></defs><path fill="#773adc" d="M16.299 4.726v8.548L9 17.5V9.048l7.299-4.322z"/><path d="M13.074 9.1c1.057-.58 1.826-.1 1.826 1.053a4.189 4.189 0 0 1-1.825 3.169c-1.056.576-1.825.1-1.825-1.056A3.933 3.933 0 0 1 13.074 9.1Z" fill="url(#a)"/><path fill="#b796f9" d="M16.299 4.726 9 9.048 1.701 4.726 9 .5l7.299 4.226z"/><path fill="#a67af4" d="M9 9.048V17.5l-7.299-4.226V4.726L9 9.048z"/></svg>