<svg xmlns="http://www.w3.org/2000/svg" width="18" height="18"><defs><linearGradient id="a" x1="6.01" y1="17.69" x2="6.01" y2=".26" gradientUnits="userSpaceOnUse"><stop offset="0" stop-color="#949494"/><stop offset=".53" stop-color="#a2a2a2"/><stop offset="1" stop-color="#b3b3b3"/></linearGradient><linearGradient id="b" x1="10.55" y1="853.33" x2="15" y2="858.17" gradientTransform="matrix(1 0 0 1.59 0 -1351.46)" gradientUnits="userSpaceOnUse"><stop offset="0" stop-color="#0078d4"/><stop offset=".02" stop-color="#0d7ed8"/><stop offset=".08" stop-color="#2b8ae0"/><stop offset=".15" stop-color="#4194e7"/><stop offset=".22" stop-color="#519beb"/><stop offset=".29" stop-color="#5b9fee"/><stop offset=".4" stop-color="#5ea0ef"/><stop offset=".55" stop-color="#5b9fee"/><stop offset=".68" stop-color="#509aeb"/><stop offset=".8" stop-color="#3f92e6"/><stop offset=".91" stop-color="#2688df"/><stop offset=".99" stop-color="#127fd9"/></linearGradient></defs><path d="M11.13 17.1a.6.6 0 0 1-.59.59H1.48a.59.59 0 0 1-.59-.59V.85a.58.58 0 0 1 .59-.59h9.06a.59.59 0 0 1 .59.59Z" fill="url(#a)"/><path d="M2.39 6.37a1.12 1.12 0 0 1 1.12-1.11H8.6a1.11 1.11 0 0 1 1.11 1.11A1.11 1.11 0 0 1 8.6 7.49H3.51a1.12 1.12 0 0 1-1.12-1.12ZM2.39 3.07A1.11 1.11 0 0 1 3.51 2H8.6a1.1 1.1 0 0 1 1.11 1.07A1.11 1.11 0 0 1 8.6 4.18H3.51a1.12 1.12 0 0 1-1.12-1.11Z" fill="#003067"/><circle cx="3.55" cy="3.07" r=".75" fill="#50e6ff"/><circle cx="3.55" cy="6.37" r=".75" fill="#50e6ff"/><ellipse cx="12.62" cy="14.91" rx="4.49" ry="1.84" fill="#76bc2d"/><ellipse cx="12.73" cy="14.89" rx="1.49" ry=".41" fill="#5e9624"/><ellipse cx="12.62" cy="10.82" rx="4.49" ry="1.84" fill="url(#b)"/><ellipse cx="12.73" cy="10.8" rx="1.49" ry=".41" fill="#005ba1"/><path d="M12.62 16.72c2.48 0 4.49-.83 4.49-1.85V16c-.09 1-2.06 1.78-4.49 1.78s-4.49-.82-4.49-1.84v-1c0 .95 2.01 1.78 4.49 1.78Z" fill="#5e9624"/><path d="M12.62 12.62c2.48 0 4.49-.82 4.49-1.84v1.09c-.09 1-2.06 1.78-4.49 1.78s-4.49-.83-4.49-1.85v-1c0 1 2.01 1.82 4.49 1.82Z" fill="#0078d4"/></svg>