<svg xmlns="http://www.w3.org/2000/svg" width="18" height="18"><defs><linearGradient id="a" x1="5.05" y1="10.55" x2="5.05" y2="13.48" gradientUnits="userSpaceOnUse"><stop offset="0" stop-color="#76bc2d"/><stop offset="1" stop-color="#5e9624"/></linearGradient><linearGradient id="b" x1="12.84" y1="10.57" x2="12.84" y2="13.5" gradientUnits="userSpaceOnUse"><stop offset="0" stop-color="#76bc2d"/><stop offset="1" stop-color="#5e9624"/></linearGradient></defs><path d="M3.19 15.6a2.49 2.49 0 0 1-1.53-.38 1.7 1.7 0 0 1-.45-1.36v-3.53c0-.58-.23-.89-.71-.89v-.88c.48 0 .71-.31.71-.92V4.17a1.79 1.79 0 0 1 .45-1.39 2.29 2.29 0 0 1 1.53-.38v.89c-.51 0-.79.27-.79.85v3.4c0 .78-.23 1.26-.74 1.46a1.42 1.42 0 0 1 .74 1.46v3.37a1.25 1.25 0 0 0 .17.68.74.74 0 0 0 .58.2v.89ZM14.81 2.4a2.49 2.49 0 0 1 1.53.38 1.7 1.7 0 0 1 .45 1.36v3.53c0 .58.23.89.71.89v.88c-.48 0-.71.31-.71.92v3.43a1.8 1.8 0 0 1-.45 1.4 2.28 2.28 0 0 1-1.53.41v-.89c.51 0 .79-.27.79-.85v-3.4c0-.78.23-1.26.74-1.46a1.42 1.42 0 0 1-.74-1.46V4.17a1.25 1.25 0 0 0-.17-.68.74.74 0 0 0-.58-.2Z" fill="#949494"/><path d="M9.41 8.35V7.08h-.9v1.27a.18.18 0 0 1-.18.18H5a.36.36 0 0 0-.36.36v1.65h.9v-.91a.18.18 0 0 1 .17-.18h6.54a.18.18 0 0 1 .18.18v.93h.89V8.89a.36.36 0 0 0-.35-.36H9.59a.18.18 0 0 1-.18-.18Z" fill="#005ba1"/><path d="M10.61 3.21H7.25a.38.38 0 0 0-.38.37v3.36a.37.37 0 0 0 .38.37h3.36a.37.37 0 0 0 .39-.37V3.58a.38.38 0 0 0-.39-.37Zm-.32 3.17a.25.25 0 0 1-.25.24H7.81a.25.25 0 0 1-.25-.24V4.15a.25.25 0 0 1 .25-.25H10a.25.25 0 0 1 .25.25Z" fill="#0078d4"/><rect x="3.58" y="10.55" width="2.94" height="2.94" rx=".27" fill="url(#a)"/><rect x="11.38" y="10.57" width="2.94" height="2.94" rx=".27" fill="url(#b)"/></svg>