<svg xmlns="http://www.w3.org/2000/svg" width="18" height="18"><defs><linearGradient id="a" x1="11.202" y1="13.906" x2="2.831" y2="-.576" gradientUnits="userSpaceOnUse"><stop offset="0" stop-color="#5e9624"/><stop offset="1" stop-color="#b4ec36"/></linearGradient></defs><path d="M12.574 7.01c0 4.036-4.969 7.286-6.049 7.945a.4.4 0 0 1-.412 0C5.032 14.3.064 11.046.064 7.01V2.153a.39.39 0 0 1 .384-.385C4.312 1.666 3.423 0 6.319 0s2.006 1.666 5.871 1.768a.39.39 0 0 1 .384.385Z" fill="#86d633"/><path d="M12.055 7.051c0 3.7-4.556 6.682-5.547 7.286a.366.366 0 0 1-.378 0c-.991-.6-5.547-3.584-5.547-7.286V2.6a.357.357 0 0 1 .352-.353C4.479 2.15 3.663.623 6.319.623S8.159 2.15 11.7 2.244a.357.357 0 0 1 .352.353Z" fill="url(#a)"/><path d="M6.13 8.631h11.418a.369.369 0 0 1 .388.347v8.675a.369.369 0 0 1-.388.347H6.13a.369.369 0 0 1-.388-.347V8.978a.37.37 0 0 1 .388-.347Z" fill="#b4ec36"/><path d="M6.108 8.631h11.463a.348.348 0 0 1 .365.327v1.307H5.742V8.958a.349.349 0 0 1 .366-.327ZM16.275 13.673H8.749c-.167 0-.3.076-.3.17v.42c0 .094.136.17.3.17h7.526c.168 0 .3-.076.3-.17v-.42c.003-.094-.132-.17-.3-.17ZM16.275 11.759H8.749c-.167 0-.3.076-.3.17v.42c0 .094.136.17.3.17h7.526c.168 0 .3-.076.3-.17v-.42c.003-.094-.132-.17-.3-.17ZM16.76 16.272H8.733c-.179 0-.324.082-.324.182v.446c0 .1.145.181.324.181h8.027c.179 0 .324-.081.324-.181v-.448c0-.098-.145-.18-.324-.18Z" fill="#fff" opacity=".7"/><circle cx="7.198" cy="12.139" r=".498" fill="#fff" opacity=".7"/><circle cx="7.198" cy="14.053" r=".498" fill="#fff" opacity=".7"/><circle cx="7.078" cy="16.678" r=".531" fill="#fff" opacity=".7"/></svg>