<svg xmlns="http://www.w3.org/2000/svg" width="18" height="18"><defs><linearGradient id="a" x1="11.994" y1="-.209" x2="11.994" y2="10.309" gradientUnits="userSpaceOnUse"><stop offset=".141" stop-color="#0078d4"/><stop offset="1" stop-color="#005ba1"/></linearGradient><linearGradient id="b" x1="14.007" y1="773.156" x2="8.781" y2="782.207" gradientTransform="matrix(1 0 0 -1 0 791.516)" gradientUnits="userSpaceOnUse"><stop offset="0" stop-color="#005ba1"/><stop offset=".765" stop-color="#0078d4"/></linearGradient><linearGradient id="c" x1="3.561" y1="2.123" x2="7.189" y2="5.751" gradientUnits="userSpaceOnUse"><stop offset="0" stop-color="#50e6ff"/><stop offset="1" stop-color="#32bedd"/></linearGradient><linearGradient id="d" x1="1.245" y1="9.432" x2="8.564" y2="16.751" gradientUnits="userSpaceOnUse"><stop offset="0" stop-color="#50e6ff"/><stop offset="1" stop-color="#32bedd"/></linearGradient><linearGradient id="e" x1="9.42" y1="4.015" x2="12.866" y2="7.46" gradientUnits="userSpaceOnUse"><stop offset=".235" stop-color="#0078d4"/><stop offset="1" stop-color="#005ba1"/></linearGradient></defs><path d="M11.108 0A5.675 5.675 0 0 0 7.27 1.486a.28.28 0 0 0 .011.425 2.8 2.8 0 0 1 .859 1.126.283.283 0 0 0 .461.1 3.59 3.59 0 1 1 4.546 5.524.28.28 0 0 0 .013.474 4.8 4.8 0 0 1 1.153.964.283.283 0 0 0 .391.033A5.7 5.7 0 0 0 11.108 0Z" fill="url(#a)"/><path d="M9.322 18h5.157a.611.611 0 0 0 .6-.595v-4.166a4.364 4.364 0 0 0-8.728 0Z" fill="url(#b)"/><path d="M5.553 6.5a2.38 2.38 0 1 0-2.38-2.38 2.38 2.38 0 0 0 2.38 2.38Z" fill="url(#c)"/><path d="M1.785 18h7.537a.611.611 0 0 0 .6-.595v-5.752a4.364 4.364 0 1 0-8.728 0v5.752a.611.611 0 0 0 .591.595Z" fill="url(#d)"/><circle cx="11.108" cy="5.702" r="2.38" fill="url(#e)"/></svg>