<svg xmlns="http://www.w3.org/2000/svg" width="18" height="18"><defs><linearGradient id="a" x1="-609.26" y1="-224.13" x2="-609.26" y2="-211.218" gradientTransform="matrix(1 0 0 -1 617.126 -205.758)" gradientUnits="userSpaceOnUse"><stop offset="0" stop-color="#5e9624"/><stop offset="1" stop-color="#b4ec36"/></linearGradient><linearGradient id="b" x1="-609.223" y1="-214.978" x2="-609.223" y2="-203.218" gradientTransform="matrix(1 0 0 -1 617.126 -205.758)" gradientUnits="userSpaceOnUse"><stop offset="0" stop-color="#5e9624"/><stop offset="1" stop-color="#b4ec36"/></linearGradient></defs><path d="M14.239 17.221a1.363 1.363 0 0 0 1.383-1.341v-.031a.943.943 0 0 0 0-.168c-.545-4.346-3.016-7.881-7.75-7.881s-7.246 3-7.76 7.9a1.4 1.4 0 0 0 1.247 1.529Z" fill="url(#a)"/><path d="M7.956 8.822a4.364 4.364 0 0 1-2.367-.691l2.283 6.105L10.2 8.173a4.4 4.4 0 0 1-2.244.649Z" fill="#fff" opacity=".8"/><circle cx="7.904" cy="4.466" r="4.367" fill="url(#b)"/><path fill="#ef7100" d="M17.894 11.231v4.44l-3.812 2.23v-4.44l3.812-2.23z"/><path fill="#f78d1e" d="m17.894 11.231-3.812 2.23-3.812-2.23L14.082 9l3.812 2.231z"/><path fill="#faa21d" d="M14.082 13.461v4.44l-3.812-2.23v-4.44l3.812 2.23z"/><path fill="#ffb34d" d="m10.27 15.671 3.812-2.21v4.44l-3.812-2.23z"/><path fill="#f78d1e" d="m17.894 15.671-3.812-2.21v4.44l3.812-2.23z"/></svg>