<svg xmlns="http://www.w3.org/2000/svg" width="18" height="18"><defs><linearGradient id="a" x1="8.916" y1="17.5" x2="8.916" y2="2.605" gradientUnits="userSpaceOnUse"><stop offset="0" stop-color="#773adc"/><stop offset="1" stop-color="#a67af4"/></linearGradient></defs><path d="M9 4.759a.432.432 0 0 1-.335-.159l-2.8-3.4A.43.43 0 0 1 6.53.657L8.995 3.65 11.422.659a.43.43 0 0 1 .668.542L9.331 4.6A.431.431 0 0 1 9 4.759ZM1.621 8.837a.43.43 0 0 1-.43-.43v-1.28a.43.43 0 0 1 .247-.389l4.519-2.119a.43.43 0 0 1 .365.778l-4.271 2v1.01a.431.431 0 0 1-.43.43ZM1.621 12.741a.429.429 0 0 1-.43-.43v-1.279a.428.428 0 0 1 .247-.389l4.519-2.12a.43.43 0 0 1 .365.779l-4.271 2v1.006a.43.43 0 0 1-.43.433ZM1.621 16.845a.43.43 0 0 1-.43-.43v-1.28a.43.43 0 0 1 .247-.389l4.519-2.119a.43.43 0 0 1 .365.778l-4.271 2v1.007a.431.431 0 0 1-.43.433ZM16.379 8.837a.431.431 0 0 1-.43-.43V7.4l-4.271-2a.43.43 0 0 1 .365-.778l4.519 2.119a.43.43 0 0 1 .247.389v1.28a.43.43 0 0 1-.43.427ZM16.379 12.741a.43.43 0 0 1-.43-.43v-1.006l-4.271-2a.43.43 0 0 1 .365-.779l4.519 2.12a.428.428 0 0 1 .247.389v1.279a.429.429 0 0 1-.43.427ZM16.379 16.845a.431.431 0 0 1-.43-.43v-1.007l-4.271-2a.43.43 0 0 1 .365-.778l4.519 2.119a.43.43 0 0 1 .247.389v1.28a.43.43 0 0 1-.43.427Z" fill="#773adc"/><path d="M13.345 7.034a4.429 4.429 0 1 0-8.857 0v6.038a4.429 4.429 0 0 0 8.857 0Z" fill="url(#a)"/><path d="M12.817 4.937a4.44 4.44 0 0 0-1.8-1.8 1.29 1.29 0 0 0 1.8 1.8ZM5.016 4.937a1.29 1.29 0 0 0 1.8-1.8 4.44 4.44 0 0 0-1.8 1.8Z" fill="#b796f9"/></svg>