<svg xmlns="http://www.w3.org/2000/svg" width="18" height="18"><defs><linearGradient id="a" x1="2.053" y1="3.258" x2="2.053" y2="5.918" gradientUnits="userSpaceOnUse"><stop offset="0" stop-color="#50e6ff"/><stop offset="1" stop-color="#32bedd"/></linearGradient><linearGradient id="b" x1="9.034" y1="15.265" x2="9.034" y2="17.924" gradientUnits="userSpaceOnUse"><stop offset="0" stop-color="#50e6ff"/><stop offset="1" stop-color="#32bedd"/></linearGradient><linearGradient id="c" x1="15.947" y1="3.34" x2="15.947" y2="5.999" gradientUnits="userSpaceOnUse"><stop offset="0" stop-color="#50e6ff"/><stop offset="1" stop-color="#32bedd"/></linearGradient><linearGradient id="d" x1="9.001" y1="7.048" x2="9.001" y2="13.068" gradientUnits="userSpaceOnUse"><stop offset="0" stop-color="#50e6ff"/><stop offset="1" stop-color="#32bedd"/></linearGradient></defs><path d="M8.622 17.233 1.77 13.277a.757.757 0 0 1-.377-.654V4.711a.756.756 0 0 1 .377-.654L8.622.1a.754.754 0 0 1 .755 0l6.852 3.956a.755.755 0 0 1 .378.654v7.912a.756.756 0 0 1-.378.654l-6.852 3.957a.759.759 0 0 1-.755 0Zm-5.817-4.554 5.817 3.359a.754.754 0 0 0 .755 0l5.823-3.359a.754.754 0 0 0 .377-.653V5.308a.756.756 0 0 0-.377-.654L9.377 1.3a.759.759 0 0 0-.755 0L2.805 4.654a.755.755 0 0 0-.378.654v6.718a.753.753 0 0 0 .378.653Z" fill="#a3a3a3"/><circle cx="2.053" cy="4.664" r="1.33" fill="url(#a)"/><circle cx="9.034" cy="16.67" r="1.33" fill="url(#b)"/><circle cx="15.947" cy="4.745" r="1.33" fill="url(#c)"/><path d="M8.093 7.994h-2.58L5.9 4.22a.33.33 0 0 1 .329-.3h1.148a.331.331 0 0 1 .33.3ZM10.373 8.161H8.534L8.809 5.6a.236.236 0 0 1 .235-.214h.819a.237.237 0 0 1 .237.214Z" fill="#32bedd"/><path d="M13.586 7.434H4.415a.385.385 0 0 0-.385.385v4.2a.385.385 0 0 0 .385.384h5.258v-1.549a.189.189 0 0 1 .189-.189h1.065a.189.189 0 0 1 .189.189V12.4h2.47a.384.384 0 0 0 .385-.384v-4.2a.385.385 0 0 0-.385-.382Z" fill="url(#d)"/><rect x="5.505" y="8.639" width="1.524" height="1.115" rx=".138" fill="#fff"/><rect x="8.239" y="8.639" width="1.524" height="1.115" rx=".138" fill="#fff"/><rect x="10.972" y="8.639" width="1.524" height="1.115" rx=".138" fill="#fff"/>​</svg>