<svg xmlns="http://www.w3.org/2000/svg" width="18" height="18"><defs><linearGradient id="a" x1="13.23" y1="12.83" x2="8.6" y2="4.06" gradientUnits="userSpaceOnUse"><stop offset="0" stop-color="#1988d9"/><stop offset=".9" stop-color="#54aef0"/></linearGradient><linearGradient id="b" x1="11.23" y1="10.28" x2="14.44" y2="15.8" gradientUnits="userSpaceOnUse"><stop offset=".1" stop-color="#54aef0"/><stop offset=".29" stop-color="#4fabee"/><stop offset=".51" stop-color="#41a2e9"/><stop offset=".74" stop-color="#2a93e0"/><stop offset=".88" stop-color="#1988d9"/></linearGradient></defs><path fill="#50e6ff" d="m.99 10 7.91 5.14 8.06-5.16 1.01 1.18L8.9 17l-8.93-5.84L.99 10z"/><path fill="#fff" d="M1.58 9.34 8.9.62l7.47 8.73-7.47 4.72-7.32-4.73z"/><path fill="#50e6ff" d="M8.9.62v13.45L1.58 9.34 8.9.62z"/><path fill="url(#a)" d="M8.9.62v13.45l7.47-4.72L8.9.62z"/><path fill="#53b1e0" d="m8.9 7.57 7.47 1.78-7.47 4.72v-6.5z"/><path fill="#9cebff" d="M8.9 14.07 1.58 9.34 8.9 7.57v6.5z"/><path fill="url(#b)" d="m8.9 17 9.07-5.84-1.01-1.18-8.06 5.16V17z"/><path d="M13.52 17.38C17.9 14.24 18 12.45 18 11.89c0-.8-.08-2.88-2.17-3a2.27 2.27 0 0 0-2.33 1.52 2.26 2.26 0 0 0-2.3-1.56C9.11 9 9 11.09 9 11.89c0 .56.13 2.35 4.47 5.46" fill="#f04049"/><path d="M18 11.57h-2a.17.17 0 0 0-.14.08l-.63 1.07a.08.08 0 0 1-.14 0L14.14 11a.16.16 0 0 0-.3 0L13 13.6a.08.08 0 0 1-.15 0l-.76-1.75a.16.16 0 0 0-.29 0l-1 1.82a.16.16 0 0 1-.15.09h-.96a7.13 7.13 0 0 0 .48.65H11a.17.17 0 0 0 .14-.09l.71-1.32 1 2.19a.16.16 0 0 0 .3 0l1-2.93.85 1.66a.16.16 0 0 0 .28 0l1-1.62a.17.17 0 0 1 .14-.08H18" fill="#fff"/></svg>