<svg xmlns="http://www.w3.org/2000/svg" width="18" height="18"><defs><linearGradient id="a" x1="5.839" y1="17.068" x2="5.839" gradientUnits="userSpaceOnUse"><stop offset="0" stop-color="#5e9624"/><stop offset=".037" stop-color="#609925"/><stop offset=".439" stop-color="#75ba2d"/><stop offset=".775" stop-color="#81cf31"/><stop offset="1" stop-color="#86d633"/></linearGradient></defs><path d="M9.477 8.936A7.412 7.412 0 0 0 6.7 7.3V4.244a6.734 6.734 0 0 1 2.511.887.215.215 0 0 0 .327-.185V2.49a.218.218 0 0 0-.11-.189A6.592 6.592 0 0 0 6.7 1.667V.216A.216.216 0 0 0 6.481 0H5.163a.216.216 0 0 0-.216.216v1.5a4.5 4.5 0 0 0-2.565 1.2A3.511 3.511 0 0 0 1.3 5.51a3.488 3.488 0 0 0 .887 2.481 7.536 7.536 0 0 0 2.76 1.633v2.92a7.14 7.14 0 0 1-1.571-.4 5.118 5.118 0 0 1-1.492-.744.216.216 0 0 0-.343.174V14.1a.216.216 0 0 0 .116.191 7.588 7.588 0 0 0 3.29.859v1.707a.216.216 0 0 0 .216.216h1.318a.216.216 0 0 0 .215-.216v-1.79A4.678 4.678 0 0 0 9.375 13.9a3.457 3.457 0 0 0 1.005-2.577 3.363 3.363 0 0 0-.903-2.387Zm-1.925 2.5v.015a.984.984 0 0 1-.852 1.032V10.34c.558.31.845.677.852 1.093ZM4.127 5.355a1 1 0 0 1 .821-1.048v2.25a1.413 1.413 0 0 1-.821-1.202Z" fill="url(#a)"/><rect x="11.394" y="14.994" width="5.966" height="1.359" rx=".635" transform="rotate(-135 14.378 15.674)" fill="#198ab3"/><circle cx="10.45" cy="11.677" r="4.093" fill="#32bedd"/><circle cx="10.458" cy="11.604" r="3.215" fill="#fff"/></svg>