<svg xmlns="http://www.w3.org/2000/svg" width="18" height="18"><defs><linearGradient id="a" x1="9" y1="15.83" x2="9" y2="5.79" gradientUnits="userSpaceOnUse"><stop offset="0" stop-color="#32bedd"/><stop offset=".18" stop-color="#32caea"/><stop offset=".41" stop-color="#32d2f2"/><stop offset=".78" stop-color="#32d4f5"/></linearGradient></defs><path d="M.5 5.79h17v9.48a.57.57 0 0 1-.57.57H1.07a.57.57 0 0 1-.57-.57V5.79Z" fill="url(#a)"/><path d="M1.07 2.17h15.86a.57.57 0 0 1 .57.57v3.05H.5V2.73a.57.57 0 0 1 .57-.56Z" fill="#005ba1"/><rect x="2.79" y="3.25" width="12.43" height="1.46" rx=".28" fill="#f2f2f2"/><path d="m6.68 9-.9 3h-.72l-.55-2a1.1 1.1 0 0 1 0-.27 1 1 0 0 1 0 .26L3.8 12h-.71L2.2 9h.71l.55 2.19a1.43 1.43 0 0 1 0 .26 1.32 1.32 0 0 1 0-.26L4.18 9h.65l.55 2.2a1.59 1.59 0 0 1 0 .26 1.51 1.51 0 0 1 0-.26L6 9ZM11.28 9l-.9 3h-.72l-.55-2a1.1 1.1 0 0 1 0-.27A1.85 1.85 0 0 1 9 10l-.6 2h-.7l-.9-3h.71l.56 2.19a1.56 1.56 0 0 1 0 .26c0-.08 0-.17.05-.26L8.79 9h.64l.55 2.2a1.59 1.59 0 0 1 0 .26 1.51 1.51 0 0 1 0-.26l.65-2.2ZM15.89 9 15 12h-.72l-.57-2a1.93 1.93 0 0 1 0-.27 1 1 0 0 1-.05.26L13 12h-.7l-.9-3h.72l.55 2.19a1.43 1.43 0 0 1 0 .26 1.27 1.27 0 0 1 0-.26L13.39 9H14l.54 2.2a1.59 1.59 0 0 1 0 .26 1.66 1.66 0 0 1 0-.26l.69-2.2Z" fill="#fff"/></svg>