<svg xmlns="http://www.w3.org/2000/svg" width="18" height="18"><defs><linearGradient id="a" x1="8.67" y1="8.09" x2="8.67" y2="20.18" gradientUnits="userSpaceOnUse"><stop offset=".22" stop-color="#32d4f5"/><stop offset="1" stop-color="#198ab3"/></linearGradient><linearGradient id="b" x1="8.33" y1="1.61" x2="9.21" y2="12.59" gradientUnits="userSpaceOnUse"><stop offset=".22" stop-color="#32d4f5"/><stop offset="1" stop-color="#198ab3"/></linearGradient></defs><path d="M14.65 18A1.3 1.3 0 0 0 16 16.71v-.16c-.51-4.07-2.84-7.38-7.27-7.38S1.85 12 1.4 16.56A1.29 1.29 0 0 0 2.56 18h12.09Z" fill="url(#a)"/><path d="M8.68 10.13a4 4 0 0 1-2.21-.65l2.19 5.72 2.18-5.68a4.09 4.09 0 0 1-2.16.61Z" fill="#fff" opacity=".8"/><circle cx="8.68" cy="6.05" r="4.08" fill="url(#b)"/><path d="M14.8 7.23a6.26 6.26 0 0 0-.09-2.55A6.19 6.19 0 0 0 8.89 0a5.53 5.53 0 0 0-5.21 2.77.59.59 0 0 0 .18.81.54.54 0 0 0 .74-.16 4.53 4.53 0 0 1 4.22-2.29 5.1 5.1 0 0 1 4.76 3.68A5.34 5.34 0 0 1 13.71 7a.93.93 0 0 0-.54.59l-.27.9a.94.94 0 0 0 .62 1.17A1 1 0 0 0 14.7 9l.27-.9a.92.92 0 0 0-.17-.87Z" fill="#767676"/></svg>