<svg xmlns="http://www.w3.org/2000/svg" width="18" height="18"><defs><radialGradient id="a" cx="16.858" cy="14.328" r="8.737" gradientTransform="matrix(.944 0 0 .944 -6.212 -5.281)" gradientUnits="userSpaceOnUse"><stop offset=".183" stop-color="#5ea0ef"/><stop offset=".555" stop-color="#5c9fee"/><stop offset=".689" stop-color="#559ced"/><stop offset=".785" stop-color="#4a97e9"/><stop offset=".862" stop-color="#3990e4"/><stop offset=".928" stop-color="#2387de"/><stop offset=".985" stop-color="#087bd6"/><stop offset="1" stop-color="#0078d4"/></radialGradient><radialGradient id="b" cx="17.97" cy="15.337" r="1.223" gradientTransform="matrix(.943 0 0 .943 -7.203 -6.199)" gradientUnits="userSpaceOnUse"><stop offset="0" stop-color="#7f7f7f"/><stop offset="1" stop-color="#5e5e5e"/></radialGradient></defs><circle cx="9.71" cy="8.252" r="8.252" fill="url(#a)"/><circle cx="9.742" cy="8.252" r="7.185" fill="#fff"/><path fill="#7a7a7a" d="m13.08 4.624.87-.87.281.28-.87.87zM14.61 8.045h1.231v.397H14.61zM13.023 11.807l.28-.281.871.87-.28.281zM9.543 13.093h.397v1.231h-.397zM5.211 3.995l.28-.281.871.87-.28.281zM5.271 12.432l.87-.87.281.28-.87.871zM3.565 8.045h1.231v.397H3.565z"/><rect x="9.237" y="2.172" width="1.107" height="6.326" rx=".505" fill="#7a7a7a"/><rect x="10.722" y="7.822" width="1.105" height="3.961" rx=".504" transform="rotate(135 11.274 9.802)" fill="#7a7a7a"/><circle cx="9.747" cy="8.238" r="1.169" fill="url(#b)"/><path d="M8.078.146A8.294 8.294 0 0 0 5.4 15.353l.274-.726a.161.161 0 0 1 .275-.046l2.151 2.61a.161.161 0 0 1-.1.262L4.657 18a.162.162 0 0 1-.177-.216l.4-1.074a9.719 9.719 0 0 1-4.507-5.757A8.462 8.462 0 0 1 8.078.146Z" fill="#86d633"/></svg>