<svg xmlns="http://www.w3.org/2000/svg" width="18" height="18"><defs><linearGradient id="a" x1="9" y1="-.052" x2="9" y2="17.947" gradientUnits="userSpaceOnUse"><stop offset=".219" stop-color="#0078d4"/><stop offset="1" stop-color="#005ba1"/></linearGradient><linearGradient id="b" x1="9.013" y1="4.425" x2="9.013" y2="13.575" gradientUnits="userSpaceOnUse"><stop offset=".191" stop-color="#005ba1"/><stop offset="1" stop-color="#003067"/></linearGradient><linearGradient id="c" x1="6.033" y1="4.66" x2="12.241" y2="4.66" gradientUnits="userSpaceOnUse"><stop offset=".314" stop-color="#9cebff"/><stop offset="1" stop-color="#50e6ff"/></linearGradient><linearGradient id="d" x1="8.633" y1="8.328" x2="14.824" y2="8.328" gradientUnits="userSpaceOnUse"><stop offset=".357" stop-color="#50e6ff"/><stop offset="1" stop-color="#32bedd"/></linearGradient><linearGradient id="e" x1="5.119" y1="13.34" x2="11.689" y2="13.34" gradientUnits="userSpaceOnUse"><stop offset=".314" stop-color="#9cebff"/><stop offset="1" stop-color="#50e6ff"/></linearGradient><linearGradient id="f" x1="6.164" y1="5.986" x2="6.164" y2="13.06" gradientUnits="userSpaceOnUse"><stop offset=".357" stop-color="#50e6ff"/><stop offset="1" stop-color="#32bedd"/></linearGradient></defs><path d="M18 9.617V8.4a.562.562 0 0 0-.385-.534l-2.029-.676a.284.284 0 0 1-.173-.166l-.437-1.136a.285.285 0 0 1 .011-.227l.927-1.861a.562.562 0 0 0-.106-.648l-.908-.906a.561.561 0 0 0-.649-.106l-1.858.927a.278.278 0 0 1-.226.01l-1.141-.439a.277.277 0 0 1-.162-.163L10.09.418a.563.563 0 0 0-.526-.365h-1.22a.564.564 0 0 0-.532.378l-.677 1.945a.28.28 0 0 1-.148.163l-1.145.527a.283.283 0 0 1-.243 0L3.753 2.14a.563.563 0 0 0-.649.1l-.91.909a.565.565 0 0 0-.106.65l.929 1.861a.285.285 0 0 1 .011.227l-.44 1.142a.282.282 0 0 1-.164.162l-2.059.772A.561.561 0 0 0 0 8.49v1.216a.561.561 0 0 0 .385.533l2.032.678a.282.282 0 0 1 .173.166l.438 1.137a.285.285 0 0 1-.011.227L2.088 14.3a.564.564 0 0 0 .1.65l.911.911a.561.561 0 0 0 .649.1l1.855-.928a.277.277 0 0 1 .227-.011l1.145.439a.283.283 0 0 1 .161.161l.767 1.962a.562.562 0 0 0 .524.358h1.228a.563.563 0 0 0 .534-.385l.677-2.029a.283.283 0 0 1 .166-.174l1.135-.436a.278.278 0 0 1 .226.01l1.858.926a.563.563 0 0 0 .649-.106l.9-.9a.562.562 0 0 0 .1-.658l-.913-1.745a.282.282 0 0 1-.013-.231l.438-1.14a.283.283 0 0 1 .164-.163l2.056-.77A.562.562 0 0 0 18 9.617Zm-8.987 3.958A4.575 4.575 0 1 1 13.587 9a4.576 4.576 0 0 1-4.574 4.575Z" fill="url(#a)"/><circle cx="9.013" cy="9" r="4.575" fill="url(#b)"/><path d="M12.773 5.34a5.155 5.155 0 0 0-.223-.112 4.661 4.661 0 0 0-3.917-.134A3.959 3.959 0 0 0 7 5.652a.318.318 0 0 1-.444-.131l-.352-.7a.319.319 0 0 1 .121-.417 4.8 4.8 0 0 1 4.753-.281 5.612 5.612 0 0 1 1.695 1.217Z" fill="url(#c)"/><path d="m12.541 11.755-.976-1.947a.319.319 0 0 1 .35-.454l.584.123a3.376 3.376 0 0 0-.691-3.04 3.549 3.549 0 0 0-3.175-1.343 4.661 4.661 0 0 1 3.917.134c.076.036.15.073.223.112a5.045 5.045 0 0 1 1.256 3.774q-.012.327-.051.669l.124.026.47.1a.319.319 0 0 1 .138.556l-1.34 1.11-.343.284a.318.318 0 0 1-.486-.104Z" fill="url(#d)"/><path d="M5.119 12.66c.073.039.147.076.224.112a4.661 4.661 0 0 0 3.917.134 3.955 3.955 0 0 0 1.633-.558.318.318 0 0 1 .444.131l.352.7a.319.319 0 0 1-.121.417 4.8 4.8 0 0 1-4.753.281 5.624 5.624 0 0 1-1.696-1.217Z" fill="url(#e)"/><path d="m5.352 6.245.975 1.947a.319.319 0 0 1-.35.454l-.584-.123a3.376 3.376 0 0 0 .691 3.04 3.549 3.549 0 0 0 3.176 1.343 4.661 4.661 0 0 1-3.917-.134 4.676 4.676 0 0 1-.224-.112 5.04 5.04 0 0 1-1.255-3.774q.011-.327.051-.669l-.124-.026-.47-.1a.318.318 0 0 1-.138-.556l1.339-1.11.343-.284a.319.319 0 0 1 .487.104Z" fill="url(#f)"/></svg>