<svg xmlns="http://www.w3.org/2000/svg" width="18" height="18"><defs><linearGradient id="a" x1="9" y1="15.84" x2="9" y2=".52" gradientUnits="userSpaceOnUse"><stop offset="0" stop-color="#d2ebff"/><stop offset="1" stop-color="#f0fffd"/></linearGradient></defs><rect y="1.13" width="18" height="12.81" rx=".6" fill="#0078d4"/><rect x="1.05" y="2.03" width="15.91" height="10.9" rx=".33" opacity=".9" fill="url(#a)"/><rect x="8.07" y="1.53" width="1.91" height=".26" rx=".12" fill="#f2f2f2"/><circle cx="12.87" cy="12.65" r="4.22" fill="#76bc2d"/><path d="M10.35 12a2.76 2.76 0 0 0-.08 1 2.65 2.65 0 0 0 .36 1 2.53 2.53 0 0 0 .48.6 2.92 2.92 0 0 0 .61.43 3.61 3.61 0 0 0 .72.25 2.75 2.75 0 0 0 .76 0l-.07-.73a.14.14 0 0 0-.14-.14h-.39a2 2 0 0 1-.48-.17 2.42 2.42 0 0 1-.42-.24 1.52 1.52 0 0 1-.32-.4 1.69 1.69 0 0 1-.24-.67 1.88 1.88 0 0 1 0-.71l.25.42a.15.15 0 0 0 .2.05l.31-.18a.15.15 0 0 0 .05-.2l-.84-1.42a.16.16 0 0 0-.21-.05l-1.41.84a.14.14 0 0 0 0 .2l.17.3a.15.15 0 0 0 .21.06ZM13.3 10.88a2.48 2.48 0 0 1 .48.17 2 2 0 0 1 .42.3 1.6 1.6 0 0 1 .33.4 1.78 1.78 0 0 1 .23.67 1.89 1.89 0 0 1 0 .71l-.25-.42a.15.15 0 0 0-.2-.06l-.3.18a.15.15 0 0 0-.05.21l.83 1.41a.16.16 0 0 0 .21.06l1.41-.84a.15.15 0 0 0 .06-.21l-.18-.3a.16.16 0 0 0-.21-.05l-.49.29a2.62 2.62 0 0 0 .08-1.08 2.88 2.88 0 0 0-.35-1 3.09 3.09 0 0 0-.48-.59 2.79 2.79 0 0 0-1.38-.73 2.47 2.47 0 0 0-.61 0 .14.14 0 0 0-.13.16v.58a.15.15 0 0 0 .14.13 2.56 2.56 0 0 1 .44.01Z" fill="#fff"/></svg>