<svg xmlns="http://www.w3.org/2000/svg" width="18" height="18"><defs><linearGradient id="a" x1="9" y1="18" x2="9" gradientUnits="userSpaceOnUse"><stop offset="0" stop-color="#0078d4"/><stop offset=".817" stop-color="#5ea0ef"/></linearGradient></defs><path d="M10.023.134H2.362a.605.605 0 0 0-.605.606v16.52a.605.605 0 0 0 .605.606h13.276a.605.605 0 0 0 .6-.606V6.327a.605.605 0 0 0-.6-.606h-4.406a.605.605 0 0 1-.6-.605V.74a.6.6 0 0 0-.609-.606Z" fill="#fff"/><path d="M9.743.908v4.149a1.524 1.524 0 0 0 1.52 1.523h4.18v10.512H2.557V.908h7.186M10.036 0H2.264a.614.614 0 0 0-.614.615v16.77a.614.614 0 0 0 .614.615h13.472a.614.614 0 0 0 .614-.615V6.286a.614.614 0 0 0-.614-.614h-4.473a.614.614 0 0 1-.613-.615V.615A.614.614 0 0 0 10.036 0Z" fill="url(#a)"/><path d="M16.116 5.794 10.438.134v4.612a1.041 1.041 0 0 0 1.035 1.048Z" fill="#0078d4"/><rect x="4" y="8.196" width="9.999" height="1.341" rx=".603" fill="#5ea0ef"/><rect x="4" y="10.599" width="9.999" height="1.341" rx=".603" fill="#5ea0ef"/><rect x="4" y="13.002" width="6.302" height="1.341" rx=".603" fill="#5ea0ef"/></svg>