<svg xmlns="http://www.w3.org/2000/svg" width="18" height="18"><defs><linearGradient id="a" x1="6.57" y1="7.06" x2="6.57" y2="3.76" gradientUnits="userSpaceOnUse"><stop offset="0" stop-color="#773adc"/><stop offset="1" stop-color="#b77af4"/></linearGradient><linearGradient id="b" x1="11.02" y1="11.15" x2="11.02" y2="7.86" gradientUnits="userSpaceOnUse"><stop offset="0" stop-color="#773adc"/><stop offset="1" stop-color="#b77af4"/></linearGradient><linearGradient id="c" x1="15.15" y1="3.79" x2="15.15" y2=".5" gradientUnits="userSpaceOnUse"><stop offset="0" stop-color="#773adc"/><stop offset="1" stop-color="#b77af4"/></linearGradient><linearGradient id="d" x1="2.85" y1="11.86" x2="2.85" y2="8.57" gradientUnits="userSpaceOnUse"><stop offset="0" stop-color="#773adc"/><stop offset="1" stop-color="#b77af4"/></linearGradient></defs><path fill="#b796f9" d="m14.73 1.62-3.99 7.1-4.22-4.3-4.35 5.64 1.02.8 3.45-4.45 4.38 4.47 4.84-8.61-1.13-.65z"/><ellipse cx="6.57" cy="5.41" rx="1.64" ry="1.65" fill="url(#a)"/><ellipse cx="11.02" cy="9.5" rx="1.64" ry="1.65" fill="url(#b)"/><ellipse cx="15.15" cy="2.15" rx="1.64" ry="1.65" fill="url(#c)"/><ellipse cx="2.85" cy="10.22" rx="1.64" ry="1.65" fill="url(#d)"/><rect x="5.67" y="9.92" width="2.58" height="7.58" rx=".28" fill="#0078d4"/><rect x="9.78" y="12.54" width="2.58" height="4.96" rx=".28" fill="#005ba1"/><rect x="13.89" y="7.38" width="2.58" height="10.12" rx=".28" fill="#005ba1"/><rect x="1.56" y="12.54" width="2.58" height="4.96" rx=".28" fill="#5ea0ef"/></svg>