<svg xmlns="http://www.w3.org/2000/svg" width="18" height="18"><defs><linearGradient id="a" x1="6.49" y1="17.38" x2="6.49" y2=".44" gradientUnits="userSpaceOnUse"><stop offset="0" stop-color="#949494"/><stop offset=".53" stop-color="#a2a2a2"/><stop offset="1" stop-color="#b3b3b3"/></linearGradient><linearGradient id="b" x1="10.06" y1="13.89" x2="16.48" y2="13.89" gradientUnits="userSpaceOnUse"><stop offset="0" stop-color="#005ba1"/><stop offset=".07" stop-color="#0060a9"/><stop offset=".36" stop-color="#0071c8"/><stop offset=".52" stop-color="#0078d4"/><stop offset=".64" stop-color="#0074cd"/><stop offset=".82" stop-color="#006abb"/><stop offset="1" stop-color="#005ba1"/></linearGradient></defs><path d="M11 9.57a6.72 6.72 0 0 0-2.23.32 6.64 6.64 0 0 0 2.23.33 6.56 6.56 0 0 0 2.23-.33A6.63 6.63 0 0 0 11 9.57Z" fill="#198ab3"/><path d="M11.47 16.81a.57.57 0 0 1-.58.57h-8.8a.56.56 0 0 1-.57-.57V1a.57.57 0 0 1 .57-.56h8.8a.58.58 0 0 1 .58.57Z" fill="url(#a)"/><path d="M3 6.38A1.08 1.08 0 0 1 4.06 5.3H9a1.08 1.08 0 0 1 1.08 1.08A1.08 1.08 0 0 1 9 7.47H4.06A1.08 1.08 0 0 1 3 6.38ZM3 3.17a1.08 1.08 0 0 1 1.06-1.08H9a1.08 1.08 0 0 1 1.08 1.08A1.08 1.08 0 0 1 9 4.25H4.06A1.08 1.08 0 0 1 3 3.17Z" fill="#003067"/><circle cx="4.11" cy="3.17" r=".73" fill="#50e6ff"/><circle cx="4.11" cy="6.38" r=".73" fill="#50e6ff"/><path d="M13.27 11.38c-1.77 0-3.21-.53-3.21-1.17v6.19c0 .63 1.42 1.15 3.17 1.16 1.78 0 3.21-.52 3.21-1.16v-6.19c.04.64-1.39 1.17-3.17 1.17Z" fill="url(#b)"/><path d="M16.48 10.21c0 .64-1.43 1.17-3.21 1.17s-3.21-.53-3.21-1.17 1.44-1.16 3.21-1.16 3.21.52 3.21 1.16" fill="#e6e6e6"/><path d="M15.73 10.12c0 .41-1.1.74-2.46.74s-2.46-.33-2.46-.74 1.1-.74 2.46-.74 2.46.33 2.46.74M13.68 8.66l2.13-2.13a.11.11 0 0 0-.08-.19h-1.24c0-2.57-1.37-5.13-3.84-5.13a6.68 6.68 0 0 1 2 5.13h-1.18a.11.11 0 0 0-.08.19l2.13 2.13a.12.12 0 0 0 .16 0Z" fill="#50e6ff"/></svg>