<svg xmlns="http://www.w3.org/2000/svg" width="18" height="18"><defs><linearGradient id="a" x1="9.908" y1="15.943" x2="7.516" y2="2.383" gradientUnits="userSpaceOnUse"><stop offset=".15" stop-color="#0078d4"/><stop offset=".8" stop-color="#5ea0ef"/><stop offset="1" stop-color="#83b9f9"/></linearGradient></defs><path d="M14.49 7.15a5.147 5.147 0 0 0-5.25-4.986 5.272 5.272 0 0 0-5.024 3.489A4.869 4.869 0 0 0 0 10.4a4.946 4.946 0 0 0 5.068 4.814h8.752A4.292 4.292 0 0 0 18 11.127a4.105 4.105 0 0 0-3.51-3.977Z" fill="url(#a)"/><path d="M12.9 11.4V8H12v4.13h2.46v-.73ZM5.76 9.73a1.825 1.825 0 0 1-.51-.31.441.441 0 0 1-.12-.32.342.342 0 0 1 .15-.3.683.683 0 0 1 .42-.12 1.62 1.62 0 0 1 1 .29v-.86a2.58 2.58 0 0 0-1-.16 1.641 1.641 0 0 0-1.09.34 1.08 1.08 0 0 0-.42.89c0 .51.32.91 1 1.21a2.907 2.907 0 0 1 .62.36.419.419 0 0 1 .15.32.381.381 0 0 1-.16.31.806.806 0 0 1-.45.11 1.66 1.66 0 0 1-1.09-.42V12a2.173 2.173 0 0 0 1.07.24 1.877 1.877 0 0 0 1.18-.33 1.08 1.08 0 0 0 .33-.91 1.048 1.048 0 0 0-.25-.7 2.425 2.425 0 0 0-.83-.57ZM11 11.32A2.191 2.191 0 0 0 11 9a1.808 1.808 0 0 0-.7-.75 2 2 0 0 0-1-.26 2.112 2.112 0 0 0-1.08.27 1.856 1.856 0 0 0-.73.74 2.465 2.465 0 0 0-.26 1.14 2.256 2.256 0 0 0 .24 1 1.766 1.766 0 0 0 .69.74 2.056 2.056 0 0 0 1 .3l.86 1h1.21L10 12.08a1.79 1.79 0 0 0 1-.76Zm-1-.25a.941.941 0 0 1-.76.35.916.916 0 0 1-.76-.36 1.523 1.523 0 0 1-.29-1 1.529 1.529 0 0 1 .29-1 1 1 0 0 1 .78-.37.869.869 0 0 1 .75.37 1.619 1.619 0 0 1 .27 1 1.459 1.459 0 0 1-.28 1.01Z" fill="#f2f2f2"/>​</svg>