<svg data-name="azure-fluent-icons" xmlns="http://www.w3.org/2000/svg" xmlns:xlink="http://www.w3.org/1999/xlink" width="18" height="18"><defs><linearGradient id="a" x1="5.055" y1="-1401.772" x2="5.055" y2="-1395.802" gradientTransform="matrix(1 0 0 -1 0 -1391.642)" gradientUnits="userSpaceOnUse"><stop offset="0" stop-color="#32bedd"/><stop offset=".18" stop-color="#32caea"/><stop offset=".41" stop-color="#32d2f2"/><stop offset=".78" stop-color="#32d4f5"/></linearGradient><linearGradient id="b" x1="9" y1="-1404.702" x2="9" y2="-1398.732" xlink:href="#a"/><linearGradient id="c" x1="12.945" y1="-1407.632" x2="12.945" y2="-1401.662" xlink:href="#a"/></defs><path d="M0 4.16h10.11V9.8a.34.34 0 0 1-.34.34H.34A.34.34 0 0 1 0 9.8V4.16Z" fill="url(#a)"/><path d="M.34 2h9.43a.34.34 0 0 1 .34.34v1.82H0V2.34A.34.34 0 0 1 .34 2Z" fill="#767676"/><rect x="1.36" y="2.65" width="7.39" height=".87" rx=".17" fill="#f2f2f2"/><path d="M3.94 7.08h10.12v5.64a.34.34 0 0 1-.34.34H4.28a.34.34 0 0 1-.34-.34Z" fill="url(#b)"/><path d="M4.28 4.93h9.43a.34.34 0 0 1 .34.34v1.81H3.95V5.27a.34.34 0 0 1 .33-.34Z" fill="#767676"/><rect x="5.3" y="5.58" width="7.39" height=".87" rx=".17" fill="#f2f2f2"/><path d="M7.89 10.02H18v5.64a.34.34 0 0 1-.34.34H8.23a.34.34 0 0 1-.34-.34Z" fill="url(#c)"/><path d="M8.23 7.86h9.43a.34.34 0 0 1 .34.34v1.82H7.89V8.2a.34.34 0 0 1 .34-.34Z" fill="#767676"/><g fill="#f2f2f2"><circle cx="15.22" cy="12.64" r=".82"/><circle cx="12.98" cy="12.64" r=".82"/><circle cx="10.67" cy="12.64" r=".82"/></g><rect x="9.25" y="8.51" width="7.39" height=".87" rx=".17" fill="#f2f2f2"/></svg>