<svg xmlns="http://www.w3.org/2000/svg" width="18" height="18"><defs><linearGradient id="a" x1="8.86" y1="13.02" x2="8.86" y2="1.02" gradientUnits="userSpaceOnUse"><stop offset="0" stop-color="#0078d4"/><stop offset=".82" stop-color="#5ea0ef"/></linearGradient><linearGradient id="b" x1="8.86" y1="17.65" x2="8.86" y2="13.02" gradientUnits="userSpaceOnUse"><stop offset="0" stop-color="#1490df"/><stop offset=".98" stop-color="#1f56a3"/></linearGradient></defs><rect x="-.14" y="1.02" width="18" height="12" rx=".6" fill="url(#a)"/><rect x=".86" y="2.02" width="16" height="10" rx=".33" fill="#fff"/><path fill="#0078d4" d="M11.86 5.27v3.49l-3 1.76v-3.5l3-1.75z"/><path fill="#83b9f9" d="m11.86 5.27-3 1.76-3-1.76 3-1.75 3 1.75z"/><path fill="#5ea0ef" d="M8.86 7.03v3.49l-3-1.76V5.27l3 1.76z"/><path fill="#83b9f9" opacity=".2" d="m5.86 8.76 3-1.74v3.5l-3-1.76z"/><path fill="#5ea0ef" opacity=".2" d="m11.86 8.76-3-1.74v3.5l3-1.76z"/><path d="M12.46 16.65c-1.77-.28-1.84-1.57-1.84-3.63H7.09c0 2.06-.07 3.35-1.84 3.63a1 1 0 0 0-.89 1h9a1 1 0 0 0-.9-1Z" fill="url(#b)"/></svg>