<svg xmlns="http://www.w3.org/2000/svg" width="18" height="18"><defs><linearGradient id="a" x1="6.234" y1="5.679" x2="6.234" y2="16.03" gradientUnits="userSpaceOnUse"><stop offset=".227" stop-color="#a67af4"/><stop offset="1" stop-color="#773adc"/></linearGradient><linearGradient id="b" x1="5.972" y1=".13" x2="6.727" y2="9.529" gradientUnits="userSpaceOnUse"><stop offset=".225" stop-color="#a67af4"/><stop offset="1" stop-color="#773adc"/></linearGradient><linearGradient id="c" x1="9.128" y1="13.552" x2="18" y2="13.552" gradientUnits="userSpaceOnUse"><stop offset="0" stop-color="#1988d9"/><stop offset=".9" stop-color="#54aef0"/></linearGradient></defs><path d="M16.312 11.946a.74.74 0 0 0 .742-.738.532.532 0 0 0 0-.089C16.758 8.792 15.431 6.9 12.9 6.9c-2.577 0-3.907 1.605-4.166 4.228a.745.745 0 0 0 .664.817.628.628 0 0 0 .075 0Z" fill="#773adc"/><circle cx="12.898" cy="5.114" r="2.335" fill="#773adc"/><path d="M11.355 14.162a1.109 1.109 0 0 0 1.112-1.105 1 1 0 0 0-.008-.134C12.024 9.439 10.036 6.6 6.243 6.6 2.385 6.6.394 9 .006 12.933A1.115 1.115 0 0 0 1 14.156a1.051 1.051 0 0 0 .112.006Z" fill="url(#a)"/><path d="M6.3 7.428a3.481 3.481 0 0 1-1.89-.557l1.874 4.895L8.144 6.9a3.468 3.468 0 0 1-1.844.528Z" fill="#fff" opacity=".8"/><circle cx="6.277" cy="3.932" r="3.496" fill="url(#b)"/><path fill="url(#c)" d="m13.564 9.54-4.436 6.211 4.436 1.813L18 15.751 13.564 9.54z"/><path fill="#50e6ff" d="m13.564 9.54-4.436 6.211 4.436 1.813V9.54z"/></svg>