<svg xmlns="http://www.w3.org/2000/svg" width="18" height="18"><defs><linearGradient id="a" x1="9" y1="15.379" x2="9" y2="2.798" gradientUnits="userSpaceOnUse"><stop offset="0" stop-color="#0078d4"/><stop offset=".156" stop-color="#1380da"/><stop offset=".528" stop-color="#3c91e5"/><stop offset=".822" stop-color="#559cec"/><stop offset="1" stop-color="#5ea0ef"/></linearGradient><linearGradient id="b" x1="-416.202" y1="-210.743" x2="-416.202" y2="-217.833" gradientTransform="matrix(1 0 0 -1 427.126 -205.758)" gradientUnits="userSpaceOnUse"><stop offset="0" stop-color="#c3f1ff"/><stop offset=".107" stop-color="#beeffe"/><stop offset=".765" stop-color="#32bedd"/></linearGradient></defs><path d="M17.875 11.439a3.989 3.989 0 0 0-3.461-3.834A5.026 5.026 0 0 0 9.237 2.8a5.156 5.156 0 0 0-4.928 3.359 4.759 4.759 0 0 0-4.184 4.579 4.83 4.83 0 0 0 5 4.641c.148 0 .295-.007.44-.019h8.094a.789.789 0 0 0 .213-.032 4.036 4.036 0 0 0 4.003-3.889Z" fill="url(#a)"/><path d="m8.371 9.669 2.3-4.522a.294.294 0 0 1 .522 0l2.29 4.32a1.571 1.571 0 0 1 .232.9c0 .948-1.248 1.716-2.788 1.716s-2.788-.768-2.788-1.716a1.179 1.179 0 0 1 .232-.698Z" fill="url(#b)"/><path d="M8.371 9.707c-.189.381-.235.445-.235.691a1.181 1.181 0 0 0 .012.146v.056h.013c.14.733 1.032 1.325 2.189 1.475v-.148c-1.1-.147-1.945-.7-2.05-1.385.045-.687.879-1.426 2.05-1.591v-.087l-.023.013-.1-.056a2.933 2.933 0 0 0-1.686.879l.016-.031.712-1.4-.128-.074-.77 1.518Z" fill="#fff"/><path fill="#9cebff" d="M10.346 8.809v3.505l-3.029 1.761v-3.51l3.029-1.756z" opacity=".8"/><path fill="#9cebff" opacity=".85" d="m10.346 8.801-3.029 1.76L4.288 8.8l3.029-1.761 3.029 1.762z"/><path fill="#9cebff" d="M7.317 10.564v3.506l-3.029-1.761V8.804l3.029 1.76z"/><path d="m7.317 14.16-3.1-1.8V8.767l3.1-1.8 3.1 1.8v3.589Zm-2.956-1.888 2.956 1.718 2.955-1.718v-3.42L7.317 7.133 4.361 8.851Z" fill="#fff"/><path d="M13.712 10.359a1.571 1.571 0 0 0-.232-.9l-2.29-4.32a.294.294 0 0 0-.522 0L9.141 8.151l.128.074L10.8 5.213a.143.143 0 0 1 .131-.081.144.144 0 0 1 .13.078l2.29 4.32v.012a1.214 1.214 0 0 1 .18.464 3.292 3.292 0 0 0-2.7-1.276 3.518 3.518 0 0 0-.608.053l.1.055.023-.013v.087a3.517 3.517 0 0 1 .489-.035c1.473 0 2.663.879 2.718 1.631-.127.8-1.257 1.42-2.629 1.42a4.335 4.335 0 0 1-.578-.04v.149a4.538 4.538 0 0 0 .578.038c1.429 0 2.605-.661 2.767-1.514h.014c0-.017 0-.034-.005-.051a1.085 1.085 0 0 0 .012-.151Z" fill="#fff"/></svg>