<svg xmlns="http://www.w3.org/2000/svg" width="18" height="18"><defs><linearGradient id="a" x1="9" y1="9.387" x2="9" y2=".486" gradientUnits="userSpaceOnUse"><stop offset="0" stop-color="#773adc"/><stop offset=".229" stop-color="#8952e5"/><stop offset=".55" stop-color="#9e6ff0"/><stop offset=".735" stop-color="#a67af4"/></linearGradient><linearGradient id="b" x1="9" y1="17.514" x2="9" y2="11.713" gradientUnits="userSpaceOnUse"><stop offset="0" stop-color="#773adc"/><stop offset=".735" stop-color="#a67af4"/></linearGradient></defs><path d="M5.1 4.213 8.7.612a.43.43 0 0 1 .608 0l3.6 3.6a.192.192 0 0 1-.135.328h-2.218a.191.191 0 0 0-.192.191v4.5a.154.154 0 0 1-.153.153H7.79a.154.154 0 0 1-.153-.153v-4.5a.191.191 0 0 0-.192-.191H5.23a.192.192 0 0 1-.13-.327Z" fill="url(#a)"/><rect y="11.713" width="18" height="5.801" rx=".581" fill="url(#b)"/><rect x="2.995" y="13.182" width="3.012" height="3.012" rx=".245" fill="#fff"/><rect x="7.494" y="13.182" width="3.012" height="3.012" rx=".245" fill="#b4ec36"/><rect x="11.993" y="13.182" width="3.012" height="3.012" rx=".245" fill="#b4ec36"/></svg>