<svg xmlns="http://www.w3.org/2000/svg" width="18" height="18"><defs><linearGradient id="a" x1="9" y1="17.37" x2="9" y2=".63" gradientUnits="userSpaceOnUse"><stop offset="0" stop-color="#773adc"/><stop offset=".82" stop-color="#a67af4"/></linearGradient></defs><circle cx="9" cy="9" r="8.37" fill="url(#a)"/><path fill="#c3f1ff" d="m3.28 9.34 5.69 3.69 5.79-3.7.73.84-6.52 4.2-6.42-4.19.73-.84z"/><path fill="#fff" d="M3.71 8.87 8.97 2.6l5.37 6.28-5.37 3.39-5.26-3.4z"/><path fill="#c3f1ff" d="M8.97 2.6v9.67l-5.26-3.4L8.97 2.6z"/><path fill="#50e6ff" d="M8.97 2.6v9.67l5.37-3.39L8.97 2.6z"/><path fill="#32bedd" d="m8.97 7.59 5.37 1.29-5.37 3.39V7.59z"/><path fill="#9cebff" d="m8.97 12.27-5.26-3.4 5.26-1.28v4.68z"/><path fill="#32bedd" d="m8.97 14.37 6.52-4.2-.73-.84-5.79 3.7v1.34z"/></svg>