<svg xmlns="http://www.w3.org/2000/svg" width="18" height="18"><defs><linearGradient id="a" x1="2.624" y1="15.969" x2="2.624" y2="11.167" gradientUnits="userSpaceOnUse"><stop offset="0" stop-color="#76bc2d"/><stop offset=".601" stop-color="#81ce31"/><stop offset=".822" stop-color="#86d633"/></linearGradient><linearGradient id="b" x1="9.026" y1="18" x2="9.026" y2="13.198" gradientUnits="userSpaceOnUse"><stop offset="0" stop-color="#76bc2d"/><stop offset=".601" stop-color="#81ce31"/><stop offset=".822" stop-color="#86d633"/></linearGradient><linearGradient id="c" x1="15.376" y1="16.001" x2="15.376" y2="11.199" gradientUnits="userSpaceOnUse"><stop offset="0" stop-color="#76bc2d"/><stop offset=".601" stop-color="#81ce31"/><stop offset=".822" stop-color="#86d633"/></linearGradient></defs><path d="M15.509 7.868h-5.457a.293.293 0 0 1-.293-.293V5.491H8.293v2.084A.294.294 0 0 1 8 7.868H2.479a.587.587 0 0 0-.587.587v2.7h1.466v-1.5a.294.294 0 0 1 .294-.293h4.641v3.918h1.466V9.368h4.577a.293.293 0 0 1 .293.293v1.53H16.1V8.455a.587.587 0 0 0-.591-.587Z" fill="#50e6ff"/><rect x="6.029" width="5.881" height="5.881" rx=".532" fill="#0078d4"/><rect x="7.158" y="1.13" width="3.622" height="3.622" rx=".328" fill="#fff"/><rect x=".223" y="11.167" width="4.802" height="4.802" rx=".435" fill="url(#a)"/><rect x="6.624" y="13.198" width="4.802" height="4.802" rx=".435" fill="url(#b)"/><rect x="12.975" y="11.199" width="4.802" height="4.802" rx=".435" fill="url(#c)"/></svg>