<svg xmlns="http://www.w3.org/2000/svg" width="18" height="18"><defs><linearGradient id="a" x1="8.21" y1="5.16" x2="12.34" y2="11.42" gradientUnits="userSpaceOnUse"><stop offset="0" stop-color="#f9a11f"/><stop offset=".02" stop-color="#f89f1f"/><stop offset=".39" stop-color="#f28721"/><stop offset=".72" stop-color="#ed7823"/><stop offset="1" stop-color="#ec7323"/></linearGradient><linearGradient id="b" x1="11.09" y1="11.03" x2="16.27" y2="18.1" href="#a"/></defs><path fill="#faa21d" d="m1.01 10.19 7.92 5.14 8.06-5.16L18 11.35l-9.07 5.84L0 11.35l1.01-1.16z"/><path fill="#fff" d="M1.61 9.53 8.93.81l7.47 8.73-7.47 4.72-7.32-4.73z"/><path fill="#f78d1e" d="M8.93.81v13.45L1.61 9.53 8.93.81z"/><path fill="url(#a)" d="M8.93.81v13.45l7.47-4.72L8.93.81z"/><path fill="#f78d1e" d="m8.93 7.76 7.47 1.78-7.47 4.72v-6.5z"/><path fill="#faa21d" d="M8.93 14.26 1.61 9.53l7.32-1.77v6.5z"/><path fill="url(#b)" d="M8.93 17.19 18 11.35l-1.01-1.18-8.06 5.16v1.86z"/></svg>