<svg xmlns="http://www.w3.org/2000/svg" width="18" height="18"><defs><linearGradient id="a" x1="8.05" y1="11.32" x2="8.05" y2="1.26" gradientUnits="userSpaceOnUse"><stop offset="0" stop-color="#0078d4"/><stop offset=".82" stop-color="#5ea0ef"/></linearGradient><linearGradient id="b" x1="8.05" y1="15.21" x2="8.05" y2="11.32" gradientUnits="userSpaceOnUse"><stop offset="0" stop-color="#1490df"/><stop offset=".98" stop-color="#1f56a3"/></linearGradient><linearGradient id="c" x1="8.05" y1="7.87" x2="8.05" y2="4.94" gradientUnits="userSpaceOnUse"><stop offset="0" stop-color="#d2ebff"/><stop offset="1" stop-color="#f0fffd"/></linearGradient></defs><rect x=".5" y="1.26" width="15.1" height="10.06" rx=".5" fill="url(#a)"/><rect x="1.34" y="2.1" width="13.42" height="8.39" rx=".28" fill="#fff"/><path d="M11.08 14.37c-1.5-.23-1.56-1.31-1.55-3h-3c0 1.74-.06 2.82-1.55 3a.87.87 0 0 0-.74.84h7.54a.88.88 0 0 0-.7-.84Z" fill="url(#b)"/><path d="M17.17 5.91h-6.88a2.31 2.31 0 1 0 0 .92H11v9.58a.33.33 0 0 0 .33.33h5.83a.33.33 0 0 0 .33-.33V6.24a.33.33 0 0 0-.32-.33Z" fill="#32bedd"/><rect x="11.62" y="6.82" width="5.27" height="8.7" rx=".12" fill="#fff"/><circle cx="8.05" cy="6.41" r="1.46" opacity=".9" fill="url(#c)"/><path d="M14.88 10.82 13.76 9.7a.06.06 0 0 0-.1.05v.68a.06.06 0 0 1-.06.06H11v.83h2.6a.06.06 0 0 1 .06.06v.69a.06.06 0 0 0 .1 0L14.88 11a.12.12 0 0 0 0-.18Z" fill="#0078d4"/></svg>