<svg xmlns="http://www.w3.org/2000/svg" width="18" height="18"><defs><linearGradient id="a" x1="9" y1="12.798" x2="9" y2=".798" gradientUnits="userSpaceOnUse"><stop offset="0" stop-color="#76bc2d"/><stop offset=".817" stop-color="#86d633"/></linearGradient><linearGradient id="b" x1="9" y1="17.434" x2="9" y2="12.798" gradientUnits="userSpaceOnUse"><stop offset=".149" stop-color="#ccc"/><stop offset="1" stop-color="#707070"/></linearGradient></defs><rect y=".798" width="18" height="12" rx=".601" fill="url(#a)"/><g fill="#fff"><path d="M12 5.053 9 6.807 6 5.052l3-1.754 3 1.755z"/><path opacity=".8" d="M6 5.052v3.492l2.996-1.74L6 5.052z"/><path d="m5.998 8.543 3 1.754V6.805l-.004-.002-2.996 1.74z"/><path opacity=".6" d="m9 6.802 3 1.742V5.053L9 6.802z"/><path opacity=".8" d="m9 10.298 3-1.754-3-1.742v3.496z"/></g><path d="M12.607 16.428c-1.78-.278-1.85-1.562-1.844-3.63H7.232c0 2.068-.065 3.352-1.844 3.63a1.048 1.048 0 0 0-.888 1.006h9a1.053 1.053 0 0 0-.893-1.006Z" fill="url(#b)"/></svg>