<svg xmlns="http://www.w3.org/2000/svg" width="18" height="18"><defs><linearGradient id="a" x1="12.764" y1="-.269" x2="12.764" y2="16.422" gradientUnits="userSpaceOnUse"><stop offset="0" stop-color="#5ea0ef"/><stop offset=".2" stop-color="#328de2"/><stop offset=".4" stop-color="#0078d4"/><stop offset=".7" stop-color="#006abb"/><stop offset="1" stop-color="#005ba1"/></linearGradient><linearGradient id="b" x1="9.367" y1="20.932" x2="9.367" y2="9.35" gradientUnits="userSpaceOnUse"><stop offset="0" stop-color="#198ab3"/><stop offset=".4" stop-color="#29b8dc"/><stop offset=".7" stop-color="#38d5f6"/><stop offset="1" stop-color="#9cebff"/></linearGradient></defs><path d="M17.407.055H8.132a.6.6 0 0 0-.6.593v13.269h.179a1.75 1.75 0 0 1 1.574-1.059h.013a1.74 1.74 0 1 1-.789 3.3 1.723 1.723 0 0 1-.773-.746h-.2v.737a.6.6 0 0 0 .6.593h9.275a.592.592 0 0 0 .589-.59V.648a.592.592 0 0 0-.593-.593Z" fill="url(#a)"/><path d="M8.915 1.908h1.705a.148.148 0 0 1 .148.148v2.2a.148.148 0 0 1-.148.148h-1.7a.148.148 0 0 1-.148-.148v-2.2a.148.148 0 0 1 .148-.148Zm3 0h1.705a.148.148 0 0 1 .148.148v2.2a.148.148 0 0 1-.148.148h-1.7a.148.148 0 0 1-.148-.148v-2.2a.148.148 0 0 1 .148-.148Zm3.007 0h1.7a.148.148 0 0 1 .148.148v2.2a.148.148 0 0 1-.148.148h-1.7a.148.148 0 0 1-.148-.148v-2.2a.148.148 0 0 1 .148-.148Zm-6 3.981h1.698a.148.148 0 0 1 .148.148V8.26a.149.149 0 0 1-.148.149h-1.7a.149.149 0 0 1-.148-.149v-2.2a.149.149 0 0 1 .126-.168Zm3 0h1.705a.148.148 0 0 1 .148.148V8.26a.149.149 0 0 1-.148.149h-1.7a.149.149 0 0 1-.148-.149v-2.2a.148.148 0 0 1 .125-.168Zm3.007 0h1.7a.148.148 0 0 1 .148.148V8.26a.149.149 0 0 1-.148.149h-1.7a.149.149 0 0 1-.148-.149v-2.2a.148.148 0 0 1 .119-.17Zm-6 3.469h1.691a.148.148 0 0 1 .148.148v2.224a.148.148 0 0 1-.148.148h-1.7a.148.148 0 0 1-.148-.148v-2.2a.148.148 0 0 1 .126-.167Zm3 0h1.705a.148.148 0 0 1 .148.148v2.224a.148.148 0 0 1-.148.148h-1.7a.148.148 0 0 1-.148-.148v-2.2a.146.146 0 0 1 .125-.167Zm3.007 0h1.7a.148.148 0 0 1 .148.148v2.224a.148.148 0 0 1-.148.148h-1.7a.148.148 0 0 1-.148-.148v-2.2a.146.146 0 0 1 .112-.17Z" fill="#f2f2f2" opacity=".4"/><path d="M15.181 11H3.553a.587.587 0 0 0-.588.587v2.327h4.742a1.75 1.75 0 0 1 1.574-1.059h.013a1.74 1.74 0 1 1-.789 3.3 1.723 1.723 0 0 1-.773-.746H2.965v1.943a.587.587 0 0 0 .588.587h11.628a.588.588 0 0 0 .588-.587V11.59a.588.588 0 0 0-.588-.59Z" fill="url(#b)"/><rect x="12.07" y="11.892" width="1.866" height="5.166" rx=".238" fill="#fff" opacity=".8"/><path d="M6.6 13.917V12.13a.238.238 0 0 0-.238-.238H4.973a.237.237 0 0 0-.238.238v1.787ZM4.735 15.415v1.405a.237.237 0 0 0 .238.237h1.39a.238.238 0 0 0 .237-.237v-1.405ZM9.281 12.858h.013a1.742 1.742 0 0 1 .975.323V12.13a.238.238 0 0 0-.238-.238H8.64a.238.238 0 0 0-.238.238v.995a1.745 1.745 0 0 1 .879-.267ZM9.833 16.242a1.736 1.736 0 0 1-1.328-.081 1.043 1.043 0 0 1-.1-.055v.714a.238.238 0 0 0 .238.237h1.391a.238.238 0 0 0 .238-.237v-.811a1.753 1.753 0 0 1-.439.233Z" fill="#fff" opacity=".8"/><path d="M10.571 14.211a1.352 1.352 0 0 0-2.616.095H3.182a2.318 2.318 0 0 1-.5-.063 2.4 2.4 0 0 1 .265-4.752h.233l.074-.212a2.716 2.716 0 0 1 2.61-1.814 2.792 2.792 0 0 1 1.656.527v-.876a3.5 3.5 0 0 0-1.624-.4A3.478 3.478 0 0 0 2.62 8.78a3.12 3.12 0 0 0-.244 6.11 2.129 2.129 0 0 0 .774.127h4.805a1.369 1.369 0 0 0 2.616-.806Z" fill="#32bedd"/>​</svg>