<svg xmlns="http://www.w3.org/2000/svg" width="18" height="18"><defs><linearGradient id="a" x1="9" y1="17.198" x2="9" y2="-3.282" gradientUnits="userSpaceOnUse"><stop offset="0" stop-color="#5e9624"/><stop offset=".183" stop-color="#629c25"/><stop offset=".435" stop-color="#6dae2a"/><stop offset=".726" stop-color="#7fcb30"/><stop offset=".822" stop-color="#86d633"/></linearGradient></defs><path d="M17.5 2.5v10.832a.583.583 0 0 1-.584.581H12.4a.142.142 0 0 0-.142.141V15.8a.284.284 0 0 1-.456.224l-2.723-2.081a.145.145 0 0 0-.087-.03H1.084a.583.583 0 0 1-.584-.581V2.5a.584.584 0 0 1 .584-.582h15.832a.584.584 0 0 1 .584.582Z" fill="url(#a)"/><path d="M10.772 7.857a3.811 3.811 0 0 0-1.424-.839V5.454a3.444 3.444 0 0 1 1.286.455.11.11 0 0 0 .111 0 .109.109 0 0 0 .056-.1V4.556a.11.11 0 0 0-.056-.1 3.37 3.37 0 0 0-1.4-.325v-.739a.11.11 0 0 0-.11-.11h-.672a.11.11 0 0 0-.11.11v.766a2.3 2.3 0 0 0-1.313.614A1.8 1.8 0 0 0 6.584 6.1a1.788 1.788 0 0 0 .454 1.271 3.874 3.874 0 0 0 1.415.836V9.7a3.684 3.684 0 0 1-.8-.2 2.6 2.6 0 0 1-.763-.382.111.111 0 0 0-.176.089V10.5a.112.112 0 0 0 .059.1 3.883 3.883 0 0 0 1.685.439v.874a.111.111 0 0 0 .11.111h.675a.111.111 0 0 0 .11-.111V11a2.39 2.39 0 0 0 1.367-.6 1.77 1.77 0 0 0 .514-1.319 1.721 1.721 0 0 0-.462-1.224Zm-.985 1.278v.008a.5.5 0 0 1-.438.53v-1.1c.287.161.434.349.438.562ZM8.033 6.023a.512.512 0 0 1 .42-.536v1.152a.726.726 0 0 1-.42-.616Z" fill="#f2f2f2"/></svg>