<svg xmlns="http://www.w3.org/2000/svg" width="18" height="18"><defs><linearGradient id="a" x1="8.011" y1="6.499" x2="8.011" y2="19.191" gradientUnits="userSpaceOnUse"><stop offset=".225" stop-color="#32d4f5"/><stop offset=".473" stop-color="#31d1f3"/><stop offset=".633" stop-color="#2ec9eb"/><stop offset=".999" stop-color="#198ab3"/><stop offset="1" stop-color="#198ab3"/></linearGradient><linearGradient id="b" x1="7.649" y1="-.304" x2="8.575" y2="11.219" gradientUnits="userSpaceOnUse"><stop offset=".225" stop-color="#32d4f5"/><stop offset=".473" stop-color="#31d1f3"/><stop offset=".633" stop-color="#2ec9eb"/><stop offset=".999" stop-color="#198ab3"/><stop offset="1" stop-color="#198ab3"/></linearGradient><linearGradient id="c" x1="14.349" y1="17.929" x2="14.349" y2="13.063" gradientUnits="userSpaceOnUse"><stop offset="0" stop-color="#a67af4"/><stop offset=".999" stop-color="#773adc"/></linearGradient></defs><path d="M14.29 16.9a1.358 1.358 0 0 0 1.364-1.354 1.488 1.488 0 0 0-.009-.164c-.534-4.272-2.972-7.751-7.622-7.751-4.731 0-7.172 2.946-7.647 7.762a1.366 1.366 0 0 0 1.219 1.5c.045 0 .091.007.137.007Z" fill="url(#a)"/><path d="M8.023 8.644A4.262 4.262 0 0 1 5.7 7.961l2.3 6L10.281 8a4.256 4.256 0 0 1-2.258.644Z" fill="#fff" opacity=".8"/><circle cx="8.023" cy="4.358" r="4.287" fill="url(#b)"/><path d="M16.178 13.063a2.7 2.7 0 0 1-3.609 0l-.224 4.48a.356.356 0 0 0 .609.268l1.4-.887 1.389.9a.356.356 0 0 0 .61-.264Z" fill="url(#c)"/><ellipse cx="14.41" cy="10.767" rx="3.221" ry="3.232" fill="#a67af4"/><ellipse cx="14.41" cy="10.767" rx="2.444" ry="2.452" fill="#ffe452"/></svg>