<svg xmlns="http://www.w3.org/2000/svg" width="18" height="18"><defs><radialGradient id="b" cx="11.996" cy="1.934" r="2.254" gradientUnits="userSpaceOnUse"><stop offset="0" stop-color="#c3f1ff"/><stop offset="1" stop-color="#9cebff"/></radialGradient><radialGradient id="c" cx="13.718" cy="13.162" r="2.254" gradientUnits="userSpaceOnUse"><stop offset="0" stop-color="#c3f1ff"/><stop offset="1" stop-color="#9cebff"/></radialGradient><radialGradient id="d" cx="3.342" cy="9.716" r="2.254" gradientUnits="userSpaceOnUse"><stop offset="0" stop-color="#c3f1ff"/><stop offset="1" stop-color="#9cebff"/></radialGradient><radialGradient id="e" cx="10.341" cy="7.144" r="4.431" gradientUnits="userSpaceOnUse"><stop offset="0" stop-color="#c3f1ff"/><stop offset="1" stop-color="#9cebff"/></radialGradient><linearGradient id="a" x1="9" y1="1.047" x2="9" y2="15.591" gradientUnits="userSpaceOnUse"><stop offset="0" stop-color="#a67af4"/><stop offset="1" stop-color="#773adc"/></linearGradient></defs><circle cx="9" cy="9" r="9" fill="url(#a)"/><path d="M11.385 15.476a.141.141 0 0 1-.059.223 7.09 7.09 0 0 1-8.211-2.746.14.14 0 0 1 .085-.213 2.132 2.132 0 0 0 .727-.346.139.139 0 0 1 .2.035 5.963 5.963 0 0 0 6.7 2.253.137.137 0 0 1 .175.086 2.151 2.151 0 0 0 .383.708ZM9 1.909a7.1 7.1 0 0 0-7.069 6.539.141.141 0 0 0 .178.144 2.127 2.127 0 0 1 .55-.072 2.088 2.088 0 0 1 .251.015.139.139 0 0 0 .152-.127A5.975 5.975 0 0 1 9 3.034h.175a1.557 1.557 0 0 1-.006-.155 2.14 2.14 0 0 1 .146-.779.139.139 0 0 0-.128-.191H9Zm4.326 1.715a2.178 2.178 0 0 1-.417.69.138.138 0 0 0 .016.2 5.96 5.96 0 0 1 1.181 7.577.136.136 0 0 0 .043.19 2.178 2.178 0 0 1 .6.541.141.141 0 0 0 .23-.007 7.08 7.08 0 0 0-1.431-9.249.14.14 0 0 0-.222.058Z" fill="#fff"/><circle cx="9" cy="9.153" r="6.529" fill="#b796f9" opacity=".6"/><path d="M13.036 2.875v.118a1.722 1.722 0 0 1-3.41.206 1.648 1.648 0 0 1-.031-.324 1.723 1.723 0 1 1 3.445 0Z" fill="url(#b)"/><path d="M14.759 14.1a1.724 1.724 0 1 1-.109-.6 1.7 1.7 0 0 1 .109.6Z" fill="url(#c)"/><path d="M4.382 10.657a1.722 1.722 0 0 1-1.723 1.722h-.047a1.722 1.722 0 0 1 .047-3.444 1.754 1.754 0 0 1 .515.077 1.725 1.725 0 0 1 1.208 1.645Z" fill="url(#d)"/><circle cx="9" cy="8.992" r="3.387" fill="url(#e)"/></svg>