<svg xmlns="http://www.w3.org/2000/svg" width="18" height="18"><defs><linearGradient id="a" x1="9" y1="13.333" x2="9" y2="1.244" gradientUnits="userSpaceOnUse"><stop offset="0" stop-color="#0078d4"/><stop offset=".156" stop-color="#1380da"/><stop offset=".528" stop-color="#3c91e5"/><stop offset=".822" stop-color="#559cec"/><stop offset="1" stop-color="#5ea0ef"/></linearGradient></defs><path d="M17.5 13.333H.5L1.683 2.412a1.308 1.308 0 0 1 1.3-1.168h12.033a1.308 1.308 0 0 1 1.3 1.168Z" fill="url(#a)"/><path d="M.5 13.333h17v2.114a1.309 1.309 0 0 1-1.309 1.309H1.809A1.309 1.309 0 0 1 .5 15.447v-2.114Z" fill="#5ea0ef"/><path d="M15.028 11.835H2.972a.328.328 0 0 1-.326-.363l.914-8.438a.327.327 0 0 1 .325-.292h10.23a.327.327 0 0 1 .325.292l.914 8.438a.328.328 0 0 1-.326.363ZM13.691 15.294V14.5a.294.294 0 0 0-.294-.294h-.035a.294.294 0 0 0-.294.294v.753H9.221V14.5a.294.294 0 0 0-.294-.294h-.035a.294.294 0 0 0-.292.294v.753H4.542v-.743a.294.294 0 0 0-.294-.294h-.035a.294.294 0 0 0-.294.294v.79a.588.588 0 0 0 .588.588h.035l8.562-.01a.587.587 0 0 0 .587-.584Z" fill="#f2f2f2"/><path d="M8.579 7.584H6.441c-.067 0-.121-.033-.121-.074a.05.05 0 0 1 .011-.03L8.9 3.985a.14.14 0 0 1 .11-.043h2.529c.067 0 .121.033.121.074a.057.057 0 0 1-.021.042L8.624 6.793h2.935c.067 0 .121.033.121.074a.064.064 0 0 1-.031.05l-4.88 3.5c-.045.019-.371.205-.211-.078Z" fill="#5ea0ef"/></svg>