<svg xmlns="http://www.w3.org/2000/svg" width="18" height="18"><defs><linearGradient id="a" x1="-.258" y1="-.226" x2="8.727" y2="8.72" gradientUnits="userSpaceOnUse"><stop offset=".059" stop-color="#0086ec"/><stop offset="1" stop-color="#004dae"/></linearGradient><linearGradient id="b" x1="9.064" y1="8.78" x2="17.493" y2=".669" gradientUnits="userSpaceOnUse"><stop offset="0" stop-color="#004dae"/><stop offset=".941" stop-color="#0086ec"/></linearGradient><linearGradient id="c" x1="8.863" y1="8.499" x2="17.77" y2="18.081" gradientUnits="userSpaceOnUse"><stop offset=".059" stop-color="#0086ec"/><stop offset="1" stop-color="#004dae"/></linearGradient><linearGradient id="d" x1="8.643" y1="9.163" x2=".493" y2="17.672" gradientUnits="userSpaceOnUse"><stop offset=".059" stop-color="#0086ec"/><stop offset="1" stop-color="#004dae"/></linearGradient></defs><path d="M7.335 7.347H1.93a.286.286 0 0 1-.286-.286V1.942a.286.286 0 0 1 .286-.286h5.119a.286.286 0 0 1 .286.286v5.405M8.48 8.491V.8a.287.287 0 0 0-.286-.289H.786A.287.287 0 0 0 .5.8v7.405a.286.286 0 0 0 .286.286Z" fill="url(#a)"/><path d="M10.665 7.347v-5.4a.286.286 0 0 1 .286-.286h5.119a.286.286 0 0 1 .286.286v5.114a.286.286 0 0 1-.286.286h-5.405M9.52 8.491h7.694a.286.286 0 0 0 .286-.286V.8a.287.287 0 0 0-.286-.287H9.806A.287.287 0 0 0 9.52.8v7.691Z" fill="url(#b)"/><path d="M10.665 10.653h5.405a.286.286 0 0 1 .286.286v5.119a.286.286 0 0 1-.286.286h-5.119a.286.286 0 0 1-.286-.286v-5.4M9.52 9.509V17.2a.287.287 0 0 0 .286.287h7.408a.287.287 0 0 0 .286-.287V9.8a.286.286 0 0 0-.286-.286Z" fill="url(#c)"/><path d="M7.335 10.653v5.4a.286.286 0 0 1-.286.286H1.93a.286.286 0 0 1-.286-.286v-5.114a.286.286 0 0 1 .286-.286h5.405M8.48 9.509H.786A.286.286 0 0 0 .5 9.8v7.4a.287.287 0 0 0 .286.287h7.408a.287.287 0 0 0 .286-.287V9.509Z" fill="url(#d)"/><path d="M14.9 8.22a15.94 15.94 0 0 0-1.033-4.881 4.868 4.868 0 0 1-.563.985 5.8 5.8 0 0 0-4.036-1.643A5.633 5.633 0 1 0 14.9 8.314Z" fill="#5fb832"/><path d="M13.821 10.849c-1.408 1.83-4.365 1.22-6.242 1.314a5.315 5.315 0 0 0-.658.047l.282-.094a21.8 21.8 0 0 0 2.769-.986 6.39 6.39 0 0 0 3.333-4.271 6.617 6.617 0 0 1-3.943 3.755 22.549 22.549 0 0 1-3.1.8l-.094-.047C4.809 10.708 4.762 7.751 7.2 6.812c1.08-.422 2.112-.188 3.286-.469A5.256 5.256 0 0 0 13.775 3.9c.704 2.02 1.455 5.071.046 6.949Zm-7.932 1.83a.469.469 0 1 0-.47-.469.469.469 0 0 0 .47.469Z" fill="#fff"/></svg>