<svg xmlns="http://www.w3.org/2000/svg" width="18" height="18"><defs><linearGradient id="a" x1="9" y1="12.43" x2="9" y2="1.26" gradientUnits="userSpaceOnUse"><stop offset="0" stop-color="#0078d4"/><stop offset=".82" stop-color="#5ea0ef"/></linearGradient><linearGradient id="b" x1="9" y1="16.74" x2="9" y2="12.43" gradientUnits="userSpaceOnUse"><stop offset=".15" stop-color="#ccc"/><stop offset="1" stop-color="#707070"/></linearGradient></defs><rect x=".62" y="1.26" width="16.75" height="11.17" rx=".56" fill="url(#a)"/><path fill="#50e6ff" d="M11.79 6.34v3.25L9 11.22V7.97l2.79-1.63z"/><path fill="#9cebff" d="M9 7.97v3.25L6.21 9.59V6.34L9 7.97z"/><path fill="#c3f1ff" d="M6.21 9.59 9 7.97v3.25L6.21 9.59z"/><path fill="#9cebff" d="M11.79 9.59 9 7.97v3.25l2.79-1.63z"/><path d="M12.36 15.81c-1.66-.26-1.72-1.46-1.72-3.38H7.36c0 1.92-.06 3.12-1.72 3.38a1 1 0 0 0-.83.93h8.38a1 1 0 0 0-.83-.93Z" fill="url(#b)"/><path d="M11.13 6.22a3.78 3.78 0 0 1-2.08 0L9 6.17l-.19.07a3.57 3.57 0 0 1-2.07-.15l-.46.27L9 8l2.79-1.64-.38-.22Z" fill="#c3f1ff"/><path d="M12.48 5c-.09-.29-.45-.7-1.83-.28a3.78 3.78 0 0 0-1.55 1 4.33 4.33 0 0 1 2.69-1.73l-1.21-.06.42-.81a4.34 4.34 0 0 0-2 2.54s0 .09 0 .13A5.89 5.89 0 0 0 6.38 2l.41 1.08H5.11a6.37 6.37 0 0 1 3.21 2.13 3.42 3.42 0 0 0-1-.62 2.25 2.25 0 0 0-1.48-.22.63.63 0 0 0-.37.36c-.12.28-.1.83 1.23 1.36a3.57 3.57 0 0 0 2.07.15L9 6.17h.08a3.78 3.78 0 0 0 2.08 0 2.33 2.33 0 0 0 1.28-.76.62.62 0 0 0 .04-.41Zm-5.58.67c-.78-.31-1.06-.63-1-.79A.11.11 0 0 1 6 4.8c.1 0 .42-.09 1.15.21a3 3 0 0 1 1.17.86 3.27 3.27 0 0 1-1.42-.2Zm5.1-.45a2 2 0 0 1-1 .56 3.2 3.2 0 0 1-1.45.07 3.34 3.34 0 0 1 1.24-.76c.8-.25 1.21-.18 1.27 0a.17.17 0 0 1-.06.13Z" fill="#ffca00"/></svg>