<svg xmlns="http://www.w3.org/2000/svg" width="18" height="18"><defs><radialGradient id="a" cx="9.477" cy="9.576" r="7.889" gradientUnits="userSpaceOnUse"><stop offset=".669" stop-color="#76bc2d"/><stop offset=".787" stop-color="#70b22b"/><stop offset=".985" stop-color="#5f9825"/><stop offset="1" stop-color="#5e9624"/></radialGradient></defs><path d="M11.609 9.82A4.577 4.577 0 0 0 9.9 8.81V6.93a4.118 4.118 0 0 1 1.547.547.134.134 0 0 0 .134 0 .131.131 0 0 0 .068-.115V5.849a.134.134 0 0 0-.068-.116 4.064 4.064 0 0 0-1.681-.39v-.894a.132.132 0 0 0-.133-.133h-.815a.132.132 0 0 0-.133.133v.921a2.76 2.76 0 0 0-1.58.739 2.159 2.159 0 0 0-.669 1.6 2.147 2.147 0 0 0 .547 1.528 4.625 4.625 0 0 0 1.7 1.006v1.8a4.391 4.391 0 0 1-.968-.244 3.133 3.133 0 0 1-.919-.46.136.136 0 0 0-.139-.011.135.135 0 0 0-.072.119V13a.132.132 0 0 0 .071.118 4.667 4.667 0 0 0 2.027.529V14.7a.132.132 0 0 0 .133.132h.811A.132.132 0 0 0 9.9 14.7v-1.1a2.883 2.883 0 0 0 1.65-.716 2.129 2.129 0 0 0 .619-1.588 2.071 2.071 0 0 0-.56-1.476Zm-1.186 1.538v.01a.606.606 0 0 1-.527.638v-1.321c.346.191.523.415.527.673Zm-2.11-3.743a.618.618 0 0 1 .506-.646v1.386a.873.873 0 0 1-.506-.74Z" fill="#76bc2d"/><circle cx="2.027" cy="8.496" r="1.527" fill="#f78d1e"/><circle cx="4.102" cy="3.932" r="1.527" fill="#f78d1e"/><path d="M11.636 1.891a7.742 7.742 0 0 0-.947-.2 1.512 1.512 0 0 1-.252 1.146 6.825 6.825 0 1 1-6.754 10.331l.6-.225a.132.132 0 0 0 .038-.226l-2.149-1.772a.133.133 0 0 0-.216.081l-.448 2.747a.133.133 0 0 0 .178.146l.883-.332a8 8 0 1 0 9.067-11.7Z" fill="url(#a)"/><circle cx="8.566" cy="1.928" r="1.527" fill="#f78d1e"/></svg>