<svg xmlns="http://www.w3.org/2000/svg" width="18" height="18"><defs><linearGradient id="a" x1="8.388" y1="1.268" x2="8.388" y2="15.439" gradientUnits="userSpaceOnUse"><stop offset=".163" stop-color="#f2f2f2"/><stop offset="1" stop-color="#e6e6e6"/></linearGradient><linearGradient id="b" x1="13.511" y1="8.97" x2="13.511" y2="17.914" gradientUnits="userSpaceOnUse"><stop offset="0" stop-color="#86d633"/><stop offset=".999" stop-color="#76bc2d"/></linearGradient></defs><path d="M15.58 8.408c0 .216-.012.434-.031.646-3.949-1.97-8.465 2.578-6.494 6.527C3.906 16.2-.31 10.564 1.707 5.8a7.121 7.121 0 0 1 1.4-2.247c.676 1.292.86-.864 1.363-1.175 5.038-3.118 11.293.465 11.11 6.03Z" fill="url(#a)"/><path d="M8.4 1.227h-.028a7.136 7.136 0 0 0-3.9 1.15l-.567-1.088a8.353 8.353 0 0 1 4.486-1.3.6.6 0 0 0-.595.6v.016a.625.625 0 0 0 .604.622Zm-.543 1.514v5.412a.514.514 0 0 0 .514.514h.1a.515.515 0 0 0 .515-.514V2.741a.515.515 0 0 0-.515-.514h-.1a.514.514 0 0 0-.514.514Zm1.407 5.8a.514.514 0 0 0-.727 0l-.071.069a.517.517 0 0 0 0 .728l1.17 1.169a4.925 4.925 0 0 1 .792-.8Z" fill="#7a7a7a"/><circle cx="8.371" cy="8.4" r="1.187" fill="#4f4f4f"/><path d="M9.055 15.581c.086.364.824.963.213 1.166C1.774 17.6-3.175 8.3 2.375 2.542c-.149-.248-.87-.887-.254-1.043l2.4-.283c.67.016.028.879-.053 1.162-.1.236-.5 1.089-.655 1.452-.27.418-.553-.023-.708-.277a7.782 7.782 0 0 0-.374.441L2.727 4c-.045.06-.09.119-.133.179l-.012.021a6.9 6.9 0 0 0-.871 1.595v.007c-2.055 4.907 2.259 10.283 7.344 9.779ZM12.084.845a.185.185 0 0 0-.065-.031 8.3 8.3 0 0 0-3.627-.822.619.619 0 0 0 0 1.236h.133a7.188 7.188 0 0 1 7.015 7.82c1.144.644 1.261.8 1.26-.662A8.409 8.409 0 0 0 12.084.845Z" fill="#76bc2d"/><path d="M16.594 10.256a4.575 4.575 0 0 0-1.1-.761.967.967 0 0 0-.065-.034 4.492 4.492 0 0 0-5.986 5.97.748.748 0 0 0 .039.081 4.473 4.473 0 0 0 .741 1.071c0 .008.012.012.019.02a4.49 4.49 0 1 0 6.347-6.347Z" fill="url(#b)"/><path d="M14.734 13.947a1.4 1.4 0 0 0-.726-.692 4.175 4.175 0 0 1-.69-.341.361.361 0 0 1-.162-.487.338.338 0 0 1 .13-.119 1.31 1.31 0 0 1 1.168.042 1.578 1.578 0 0 1 .211.119v-.8a2.846 2.846 0 0 0-1.536-.085 1.222 1.222 0 0 0-.792.523.145.145 0 0 1-.019.034 1.053 1.053 0 0 0-.123.515 1.013 1.013 0 0 0 .219.653 1.768 1.768 0 0 0 .669.457c.325.15.991.334.787.8a.326.326 0 0 1-.119.123.982.982 0 0 1-.492.1 1.64 1.64 0 0 1-.987-.338.813.813 0 0 1-.069-.054v.857a1.823 1.823 0 0 0 .507.169c.077.011.15.023.246.031.625.05 1.5.007 1.787-.663a1.039 1.039 0 0 0-.009-.844Zm-1.294 1.8a.386.386 0 1 0 .384.388.387.387 0 0 0-.384-.385Zm.019-5.233a.387.387 0 1 0 .384.384.379.379 0 0 0-.384-.381Z" fill="#fff"/></svg>