<svg xmlns="http://www.w3.org/2000/svg" width="18" height="18"><defs><linearGradient id="a" x1="9" y1="15.432" x2="9" y2="5.977" gradientUnits="userSpaceOnUse"><stop offset="0" stop-color="#32bedd"/><stop offset=".175" stop-color="#32caea"/><stop offset=".41" stop-color="#32d2f2"/><stop offset=".775" stop-color="#32d4f5"/></linearGradient></defs><path d="M1 5.977h16V14.9a.535.535 0 0 1-.535.535H1.535A.535.535 0 0 1 1 14.9V5.977Z" fill="url(#a)"/><path d="M1.539 2.568h14.924A.535.535 0 0 1 17 3.1v2.877H1V3.1a.535.535 0 0 1 .539-.532Z" fill="#0078d4"/><rect x="3.252" y="3.58" width="11.499" height="1.35" rx=".263" fill="#f2f2f2"/><g fill="#f2f2f2"><path d="m6.611 13.469 2.055-5.546a.27.27 0 0 0-.253-.363H7.136a.269.269 0 0 0-.252.176l-2.055 5.546a.269.269 0 0 0 .252.362h1.277a.27.27 0 0 0 .253-.175ZM11.116 13.469l2.055-5.546a.269.269 0 0 0-.252-.363h-1.277a.269.269 0 0 0-.253.176l-2.055 5.546a.269.269 0 0 0 .253.362h1.277a.269.269 0 0 0 .252-.175Z"/></g></svg>